<svg xmlns="http://www.w3.org/2000/svg" xmlns:xlink="http://www.w3.org/1999/xlink" width="300" zoomAndPan="magnify" viewBox="0 0 224.87999 225" height="300" preserveAspectRatio="xMidYMid meet" version="1.0"><defs><g/><clipPath id="c4fef458fa"><path d="M 11.867188 12.015625 L 212.761719 12.015625 L 212.761719 212.910156 L 11.867188 212.910156 Z M 11.867188 12.015625 " clip-rule="nonzero"/></clipPath></defs><g clip-path="url(#c4fef458fa)"><path fill="#fd7000" d="M 11.867188 12.015625 L 212.761719 12.015625 L 212.761719 212.910156 L 11.867188 212.910156 Z M 11.867188 12.015625 " fill-opacity="1" fill-rule="nonzero"/></g><g fill="#ffffff" fill-opacity="1"><g transform="translate(83.996238, 106.906029)"><g><path d="M 23.828125 0 L 18.671875 0 L 16.796875 -5.71875 L 7.28125 -5.71875 L 5.421875 0 L 0.375 0 L 8.953125 -24.828125 L 15.25 -24.828125 Z M 11.796875 -19.65625 L 8.609375 -9.84375 L 15.4375 -9.84375 L 12.234375 -19.65625 Z M 11.796875 -19.65625 "/></g></g></g><g fill="#ffffff" fill-opacity="1"><g transform="translate(107.499936, 106.906029)"><g><path d="M 12.828125 -24.828125 C 14.597656 -24.828125 16.113281 -24.5 17.375 -23.84375 C 18.644531 -23.195312 19.601562 -22.285156 20.25 -21.109375 C 20.894531 -19.941406 21.21875 -18.582031 21.21875 -17.03125 C 21.21875 -15.476562 20.894531 -14.117188 20.25 -12.953125 C 19.601562 -11.785156 18.644531 -10.875 17.375 -10.21875 C 16.113281 -9.570312 14.597656 -9.25 12.828125 -9.25 L 8.140625 -9.25 L 8.140625 0 L 3.234375 0 L 3.234375 -24.828125 Z M 12.171875 -13.140625 C 14.898438 -13.140625 16.265625 -14.4375 16.265625 -17.03125 C 16.265625 -19.632812 14.898438 -20.9375 12.171875 -20.9375 L 8.140625 -20.9375 L 8.140625 -13.140625 Z M 12.171875 -13.140625 "/></g></g></g><g fill="#ffffff" fill-opacity="1"><g transform="translate(129.492234, 106.906029)"><g><path d="M 8.140625 0 L 3.234375 0 L 3.234375 -24.828125 L 8.140625 -24.828125 Z M 8.140625 0 "/></g></g></g><g fill="#ffffff" fill-opacity="1"><g transform="translate(140.181101, 106.906029)"><g/></g></g><g fill="#ffffff" fill-opacity="1"><g transform="translate(55.317011, 148.283948)"><g><path d="M 23.828125 0 L 18.671875 0 L 16.796875 -5.71875 L 7.28125 -5.71875 L 5.421875 0 L 0.375 0 L 8.953125 -24.828125 L 15.25 -24.828125 Z M 11.796875 -19.65625 L 8.609375 -9.84375 L 15.4375 -9.84375 L 12.234375 -19.65625 Z M 11.796875 -19.65625 "/></g></g></g><g fill="#ffffff" fill-opacity="1"><g transform="translate(78.820709, 148.283948)"><g><path d="M 10.921875 0.359375 C 9.109375 0.359375 7.503906 -0.015625 6.109375 -0.765625 C 4.722656 -1.523438 3.640625 -2.632812 2.859375 -4.09375 C 2.078125 -5.550781 1.6875 -7.304688 1.6875 -9.359375 C 1.6875 -11.421875 2.078125 -13.179688 2.859375 -14.640625 C 3.640625 -16.097656 4.71875 -17.203125 6.09375 -17.953125 C 7.476562 -18.710938 9.054688 -19.09375 10.828125 -19.09375 C 14.785156 -19.09375 17.316406 -17.660156 18.421875 -14.796875 L 15.203125 -12.484375 L 14.84375 -12.484375 C 14.457031 -13.367188 13.957031 -14.023438 13.34375 -14.453125 C 12.726562 -14.878906 11.890625 -15.09375 10.828125 -15.09375 C 9.472656 -15.09375 8.414062 -14.625 7.65625 -13.6875 C 6.894531 -12.75 6.515625 -11.304688 6.515625 -9.359375 C 6.515625 -7.429688 6.898438 -5.992188 7.671875 -5.046875 C 8.441406 -4.109375 9.523438 -3.640625 10.921875 -3.640625 C 11.941406 -3.640625 12.804688 -3.910156 13.515625 -4.453125 C 14.222656 -5.003906 14.726562 -5.796875 15.03125 -6.828125 L 15.390625 -6.859375 L 18.734375 -5.03125 C 18.253906 -3.445312 17.367188 -2.148438 16.078125 -1.140625 C 14.796875 -0.140625 13.078125 0.359375 10.921875 0.359375 Z M 10.921875 0.359375 "/></g></g></g><g fill="#ffffff" fill-opacity="1"><g transform="translate(97.433597, 148.283948)"><g><path d="M 10.921875 0.359375 C 9.109375 0.359375 7.503906 -0.015625 6.109375 -0.765625 C 4.722656 -1.523438 3.640625 -2.632812 2.859375 -4.09375 C 2.078125 -5.550781 1.6875 -7.304688 1.6875 -9.359375 C 1.6875 -11.421875 2.078125 -13.179688 2.859375 -14.640625 C 3.640625 -16.097656 4.71875 -17.203125 6.09375 -17.953125 C 7.476562 -18.710938 9.054688 -19.09375 10.828125 -19.09375 C 14.785156 -19.09375 17.316406 -17.660156 18.421875 -14.796875 L 15.203125 -12.484375 L 14.84375 -12.484375 C 14.457031 -13.367188 13.957031 -14.023438 13.34375 -14.453125 C 12.726562 -14.878906 11.890625 -15.09375 10.828125 -15.09375 C 9.472656 -15.09375 8.414062 -14.625 7.65625 -13.6875 C 6.894531 -12.75 6.515625 -11.304688 6.515625 -9.359375 C 6.515625 -7.429688 6.898438 -5.992188 7.671875 -5.046875 C 8.441406 -4.109375 9.523438 -3.640625 10.921875 -3.640625 C 11.941406 -3.640625 12.804688 -3.910156 13.515625 -4.453125 C 14.222656 -5.003906 14.726562 -5.796875 15.03125 -6.828125 L 15.390625 -6.859375 L 18.734375 -5.03125 C 18.253906 -3.445312 17.367188 -2.148438 16.078125 -1.140625 C 14.796875 -0.140625 13.078125 0.359375 10.921875 0.359375 Z M 10.921875 0.359375 "/></g></g></g><g fill="#ffffff" fill-opacity="1"><g transform="translate(116.046482, 148.283948)"><g><path d="M 18.515625 -8.3125 L 6.46875 -8.3125 C 6.601562 -6.675781 7.066406 -5.488281 7.859375 -4.75 C 8.648438 -4.007812 9.734375 -3.640625 11.109375 -3.640625 C 12.179688 -3.640625 13.050781 -3.835938 13.71875 -4.234375 C 14.382812 -4.640625 14.921875 -5.25 15.328125 -6.0625 L 15.6875 -6.0625 L 18.8125 -4.0625 C 18.207031 -2.75 17.285156 -1.679688 16.046875 -0.859375 C 14.816406 -0.046875 13.171875 0.359375 11.109375 0.359375 C 9.171875 0.359375 7.492188 -0.00390625 6.078125 -0.734375 C 4.671875 -1.472656 3.585938 -2.570312 2.828125 -4.03125 C 2.066406 -5.488281 1.6875 -7.265625 1.6875 -9.359375 C 1.6875 -11.484375 2.085938 -13.273438 2.890625 -14.734375 C 3.691406 -16.203125 4.773438 -17.296875 6.140625 -18.015625 C 7.515625 -18.734375 9.054688 -19.09375 10.765625 -19.09375 C 13.410156 -19.09375 15.4375 -18.390625 16.84375 -16.984375 C 18.257812 -15.578125 18.96875 -13.515625 18.96875 -10.796875 C 18.96875 -9.816406 18.9375 -9.054688 18.875 -8.515625 Z M 14.46875 -11.34375 C 14.425781 -12.769531 14.09375 -13.804688 13.46875 -14.453125 C 12.851562 -15.109375 11.953125 -15.4375 10.765625 -15.4375 C 8.390625 -15.4375 6.992188 -14.070312 6.578125 -11.34375 Z M 14.46875 -11.34375 "/></g></g></g><g fill="#ffffff" fill-opacity="1"><g transform="translate(135.712254, 148.283948)"><g><path d="M 8.765625 0.359375 C 7.484375 0.359375 6.3125 0.207031 5.25 -0.09375 C 4.1875 -0.394531 3.273438 -0.804688 2.515625 -1.328125 C 1.765625 -1.859375 1.207031 -2.460938 0.84375 -3.140625 L 3.46875 -5.96875 L 3.828125 -5.96875 C 4.441406 -5.125 5.171875 -4.492188 6.015625 -4.078125 C 6.867188 -3.660156 7.796875 -3.453125 8.796875 -3.453125 C 9.710938 -3.453125 10.398438 -3.613281 10.859375 -3.9375 C 11.328125 -4.269531 11.5625 -4.738281 11.5625 -5.34375 C 11.5625 -5.820312 11.394531 -6.222656 11.0625 -6.546875 C 10.726562 -6.867188 10.1875 -7.117188 9.4375 -7.296875 L 6.96875 -7.890625 C 5.101562 -8.335938 3.742188 -9.015625 2.890625 -9.921875 C 2.035156 -10.835938 1.609375 -12 1.609375 -13.40625 C 1.609375 -14.570312 1.90625 -15.582031 2.5 -16.4375 C 3.09375 -17.300781 3.929688 -17.957031 5.015625 -18.40625 C 6.097656 -18.863281 7.359375 -19.09375 8.796875 -19.09375 C 10.484375 -19.09375 11.878906 -18.847656 12.984375 -18.359375 C 14.097656 -17.867188 14.96875 -17.21875 15.59375 -16.40625 L 13.078125 -13.6875 L 12.734375 -13.6875 C 12.210938 -14.28125 11.625 -14.710938 10.96875 -14.984375 C 10.320312 -15.253906 9.597656 -15.390625 8.796875 -15.390625 C 6.941406 -15.390625 6.015625 -14.8125 6.015625 -13.65625 C 6.015625 -13.164062 6.1875 -12.765625 6.53125 -12.453125 C 6.875 -12.148438 7.484375 -11.90625 8.359375 -11.71875 L 10.671875 -11.203125 C 12.566406 -10.796875 13.953125 -10.140625 14.828125 -9.234375 C 15.710938 -8.335938 16.15625 -7.132812 16.15625 -5.625 C 16.15625 -4.4375 15.859375 -3.390625 15.265625 -2.484375 C 14.679688 -1.578125 13.832031 -0.875 12.71875 -0.375 C 11.613281 0.113281 10.296875 0.359375 8.765625 0.359375 Z M 8.765625 0.359375 "/></g></g></g><g fill="#ffffff" fill-opacity="1"><g transform="translate(152.287306, 148.283948)"><g><path d="M 8.765625 0.359375 C 7.484375 0.359375 6.3125 0.207031 5.25 -0.09375 C 4.1875 -0.394531 3.273438 -0.804688 2.515625 -1.328125 C 1.765625 -1.859375 1.207031 -2.460938 0.84375 -3.140625 L 3.46875 -5.96875 L 3.828125 -5.96875 C 4.441406 -5.125 5.171875 -4.492188 6.015625 -4.078125 C 6.867188 -3.660156 7.796875 -3.453125 8.796875 -3.453125 C 9.710938 -3.453125 10.398438 -3.613281 10.859375 -3.9375 C 11.328125 -4.269531 11.5625 -4.738281 11.5625 -5.34375 C 11.5625 -5.820312 11.394531 -6.222656 11.0625 -6.546875 C 10.726562 -6.867188 10.1875 -7.117188 9.4375 -7.296875 L 6.96875 -7.890625 C 5.101562 -8.335938 3.742188 -9.015625 2.890625 -9.921875 C 2.035156 -10.835938 1.609375 -12 1.609375 -13.40625 C 1.609375 -14.570312 1.90625 -15.582031 2.5 -16.4375 C 3.09375 -17.300781 3.929688 -17.957031 5.015625 -18.40625 C 6.097656 -18.863281 7.359375 -19.09375 8.796875 -19.09375 C 10.484375 -19.09375 11.878906 -18.847656 12.984375 -18.359375 C 14.097656 -17.867188 14.96875 -17.21875 15.59375 -16.40625 L 13.078125 -13.6875 L 12.734375 -13.6875 C 12.210938 -14.28125 11.625 -14.710938 10.96875 -14.984375 C 10.320312 -15.253906 9.597656 -15.390625 8.796875 -15.390625 C 6.941406 -15.390625 6.015625 -14.8125 6.015625 -13.65625 C 6.015625 -13.164062 6.1875 -12.765625 6.53125 -12.453125 C 6.875 -12.148438 7.484375 -11.90625 8.359375 -11.71875 L 10.671875 -11.203125 C 12.566406 -10.796875 13.953125 -10.140625 14.828125 -9.234375 C 15.710938 -8.335938 16.15625 -7.132812 16.15625 -5.625 C 16.15625 -4.4375 15.859375 -3.390625 15.265625 -2.484375 C 14.679688 -1.578125 13.832031 -0.875 12.71875 -0.375 C 11.613281 0.113281 10.296875 0.359375 8.765625 0.359375 Z M 8.765625 0.359375 "/></g></g></g></svg>