<svg xmlns="http://www.w3.org/2000/svg" xmlns:xlink="http://www.w3.org/1999/xlink" width="300" zoomAndPan="magnify" viewBox="0 0 224.87999 225" height="300" preserveAspectRatio="xMidYMid meet" version="1.0"><defs><g/><clipPath id="27353dd4f7"><path d="M 11.867188 12.015625 L 212.761719 12.015625 L 212.761719 212.910156 L 11.867188 212.910156 Z M 11.867188 12.015625 " clip-rule="nonzero"/></clipPath></defs><g clip-path="url(#27353dd4f7)"><path fill="#fd7000" d="M 11.867188 12.015625 L 212.761719 12.015625 L 212.761719 212.910156 L 11.867188 212.910156 Z M 11.867188 12.015625 " fill-opacity="1" fill-rule="nonzero"/></g><g fill="#ffffff" fill-opacity="1"><g transform="translate(15.564319, 101.026889)"><g><path d="M 12.375 0.328125 C 10.289062 0.328125 8.453125 -0.09375 6.859375 -0.9375 C 5.273438 -1.789062 4.03125 -3.085938 3.125 -4.828125 C 2.226562 -6.578125 1.78125 -8.75 1.78125 -11.34375 C 1.78125 -13.9375 2.226562 -16.101562 3.125 -17.84375 C 4.03125 -19.59375 5.273438 -20.890625 6.859375 -21.734375 C 8.453125 -22.585938 10.289062 -23.015625 12.375 -23.015625 C 14.445312 -23.015625 16.273438 -22.59375 17.859375 -21.75 C 19.441406 -20.90625 20.679688 -19.609375 21.578125 -17.859375 C 22.472656 -16.109375 22.921875 -13.9375 22.921875 -11.34375 C 22.921875 -8.75 22.472656 -6.578125 21.578125 -4.828125 C 20.679688 -3.078125 19.441406 -1.78125 17.859375 -0.9375 C 16.273438 -0.09375 14.445312 0.328125 12.375 0.328125 Z M 12.375 -3.5625 C 14.289062 -3.5625 15.753906 -4.179688 16.765625 -5.421875 C 17.785156 -6.660156 18.296875 -8.632812 18.296875 -11.34375 C 18.296875 -14.050781 17.785156 -16.023438 16.765625 -17.265625 C 15.753906 -18.515625 14.289062 -19.140625 12.375 -19.140625 C 10.4375 -19.140625 8.957031 -18.515625 7.9375 -17.265625 C 6.914062 -16.023438 6.40625 -14.050781 6.40625 -11.34375 C 6.40625 -8.632812 6.914062 -6.660156 7.9375 -5.421875 C 8.957031 -4.179688 10.4375 -3.5625 12.375 -3.5625 Z M 12.375 -3.5625 "/></g></g></g><g fill="#ffffff" fill-opacity="1"><g transform="translate(39.64688, 101.026889)"><g><path d="M 2.46875 6.9375 L 2.46875 -17.109375 L 6.765625 -17.109375 L 6.765625 -14.875 L 7.09375 -14.8125 C 7.601562 -15.6875 8.28125 -16.34375 9.125 -16.78125 C 9.96875 -17.21875 10.960938 -17.4375 12.109375 -17.4375 C 13.484375 -17.4375 14.679688 -17.109375 15.703125 -16.453125 C 16.734375 -15.804688 17.535156 -14.816406 18.109375 -13.484375 C 18.691406 -12.160156 18.984375 -10.515625 18.984375 -8.546875 C 18.984375 -6.597656 18.675781 -4.957031 18.0625 -3.625 C 17.457031 -2.300781 16.617188 -1.3125 15.546875 -0.65625 C 14.472656 0 13.234375 0.328125 11.828125 0.328125 C 10.753906 0.328125 9.832031 0.148438 9.0625 -0.203125 C 8.289062 -0.566406 7.632812 -1.125 7.09375 -1.875 L 6.765625 -1.8125 L 6.765625 6.9375 Z M 10.625 -3.328125 C 11.90625 -3.328125 12.878906 -3.742188 13.546875 -4.578125 C 14.210938 -5.410156 14.546875 -6.734375 14.546875 -8.546875 C 14.546875 -10.359375 14.210938 -11.6875 13.546875 -12.53125 C 12.878906 -13.375 11.90625 -13.796875 10.625 -13.796875 C 9.425781 -13.796875 8.472656 -13.359375 7.765625 -12.484375 C 7.066406 -11.617188 6.71875 -10.304688 6.71875 -8.546875 C 6.71875 -6.796875 7.066406 -5.488281 7.765625 -4.625 C 8.472656 -3.757812 9.425781 -3.328125 10.625 -3.328125 Z M 10.625 -3.328125 "/></g></g></g><g fill="#ffffff" fill-opacity="1"><g transform="translate(59.508877, 101.026889)"><g><path d="M 16.921875 -7.59375 L 5.90625 -7.59375 C 6.03125 -6.101562 6.453125 -5.019531 7.171875 -4.34375 C 7.898438 -3.664062 8.894531 -3.328125 10.15625 -3.328125 C 11.132812 -3.328125 11.925781 -3.507812 12.53125 -3.875 C 13.144531 -4.238281 13.640625 -4.796875 14.015625 -5.546875 L 14.34375 -5.546875 L 17.1875 -3.703125 C 16.632812 -2.503906 15.789062 -1.53125 14.65625 -0.78125 C 13.53125 -0.0390625 12.03125 0.328125 10.15625 0.328125 C 8.382812 0.328125 6.851562 -0.00390625 5.5625 -0.671875 C 4.269531 -1.347656 3.273438 -2.347656 2.578125 -3.671875 C 1.878906 -5.003906 1.53125 -6.628906 1.53125 -8.546875 C 1.53125 -10.492188 1.894531 -12.132812 2.625 -13.46875 C 3.363281 -14.800781 4.359375 -15.796875 5.609375 -16.453125 C 6.867188 -17.109375 8.28125 -17.4375 9.84375 -17.4375 C 12.257812 -17.4375 14.109375 -16.796875 15.390625 -15.515625 C 16.679688 -14.234375 17.328125 -12.351562 17.328125 -9.875 C 17.328125 -8.96875 17.296875 -8.269531 17.234375 -7.78125 Z M 13.21875 -10.359375 C 13.175781 -11.671875 12.875 -12.625 12.3125 -13.21875 C 11.75 -13.8125 10.925781 -14.109375 9.84375 -14.109375 C 7.664062 -14.109375 6.382812 -12.859375 6 -10.359375 Z M 13.21875 -10.359375 "/></g></g></g><g fill="#ffffff" fill-opacity="1"><g transform="translate(77.477827, 101.026889)"><g><path d="M 2.46875 0 L 2.46875 -17.109375 L 6.59375 -17.109375 L 6.59375 -14.609375 L 6.921875 -14.53125 C 7.984375 -16.46875 9.710938 -17.4375 12.109375 -17.4375 C 14.078125 -17.4375 15.523438 -16.898438 16.453125 -15.828125 C 17.378906 -14.753906 17.84375 -13.1875 17.84375 -11.125 L 17.84375 0 L 13.546875 0 L 13.546875 -10.59375 C 13.546875 -11.738281 13.316406 -12.5625 12.859375 -13.0625 C 12.410156 -13.5625 11.679688 -13.8125 10.671875 -13.8125 C 9.441406 -13.8125 8.484375 -13.410156 7.796875 -12.609375 C 7.109375 -11.816406 6.765625 -10.566406 6.765625 -8.859375 L 6.765625 0 Z M 2.46875 0 "/></g></g></g><g fill="#ffffff" fill-opacity="1"><g transform="translate(96.889841, 101.026889)"><g><path d="M 10.859375 -9.125 L 1.34375 -9.125 L 1.34375 -12.90625 L 10.859375 -12.90625 Z M 10.859375 -9.125 "/></g></g></g><g fill="#ffffff" fill-opacity="1"><g transform="translate(108.496916, 101.026889)"><g><path d="M 9.1875 0 L 4.6875 0 L 0.625 -17.109375 L 4.609375 -17.109375 L 7.125 -5.546875 L 7.453125 -5.546875 L 10.703125 -17.109375 L 14.4375 -17.109375 L 17.796875 -5.546875 L 18.125 -5.546875 L 20.546875 -17.109375 L 24.421875 -17.109375 L 20.40625 0 L 15.890625 0 L 12.640625 -11.65625 L 12.328125 -11.65625 Z M 9.1875 0 "/></g></g></g><g fill="#ffffff" fill-opacity="1"><g transform="translate(132.889814, 101.026889)"><g><path d="M 16.921875 -7.59375 L 5.90625 -7.59375 C 6.03125 -6.101562 6.453125 -5.019531 7.171875 -4.34375 C 7.898438 -3.664062 8.894531 -3.328125 10.15625 -3.328125 C 11.132812 -3.328125 11.925781 -3.507812 12.53125 -3.875 C 13.144531 -4.238281 13.640625 -4.796875 14.015625 -5.546875 L 14.34375 -5.546875 L 17.1875 -3.703125 C 16.632812 -2.503906 15.789062 -1.53125 14.65625 -0.78125 C 13.53125 -0.0390625 12.03125 0.328125 10.15625 0.328125 C 8.382812 0.328125 6.851562 -0.00390625 5.5625 -0.671875 C 4.269531 -1.347656 3.273438 -2.347656 2.578125 -3.671875 C 1.878906 -5.003906 1.53125 -6.628906 1.53125 -8.546875 C 1.53125 -10.492188 1.894531 -12.132812 2.625 -13.46875 C 3.363281 -14.800781 4.359375 -15.796875 5.609375 -16.453125 C 6.867188 -17.109375 8.28125 -17.4375 9.84375 -17.4375 C 12.257812 -17.4375 14.109375 -16.796875 15.390625 -15.515625 C 16.679688 -14.234375 17.328125 -12.351562 17.328125 -9.875 C 17.328125 -8.96875 17.296875 -8.269531 17.234375 -7.78125 Z M 13.21875 -10.359375 C 13.175781 -11.671875 12.875 -12.625 12.3125 -13.21875 C 11.75 -13.8125 10.925781 -14.109375 9.84375 -14.109375 C 7.664062 -14.109375 6.382812 -12.859375 6 -10.359375 Z M 13.21875 -10.359375 "/></g></g></g><g fill="#ffffff" fill-opacity="1"><g transform="translate(150.85876, 101.026889)"><g><path d="M 4.609375 -19.171875 C 3.828125 -19.171875 3.191406 -19.40625 2.703125 -19.875 C 2.222656 -20.34375 1.984375 -20.945312 1.984375 -21.6875 C 1.984375 -22.425781 2.222656 -23.03125 2.703125 -23.5 C 3.191406 -23.96875 3.828125 -24.203125 4.609375 -24.203125 C 5.128906 -24.203125 5.585938 -24.09375 5.984375 -23.875 C 6.390625 -23.664062 6.703125 -23.367188 6.921875 -22.984375 C 7.148438 -22.609375 7.265625 -22.175781 7.265625 -21.6875 C 7.265625 -21.207031 7.148438 -20.773438 6.921875 -20.390625 C 6.703125 -20.003906 6.390625 -19.703125 5.984375 -19.484375 C 5.585938 -19.273438 5.128906 -19.171875 4.609375 -19.171875 Z M 2.46875 0 L 2.46875 -17.109375 L 6.765625 -17.109375 L 6.765625 0 Z M 2.46875 0 "/></g></g></g><g fill="#ffffff" fill-opacity="1"><g transform="translate(159.440065, 101.026889)"><g><path d="M 8.875 7.265625 C 6.050781 7.265625 3.96875 6.847656 2.625 6.015625 C 1.28125 5.191406 0.609375 4.039062 0.609375 2.5625 C 0.609375 1.65625 0.894531 0.914062 1.46875 0.34375 C 2.039062 -0.226562 2.863281 -0.613281 3.9375 -0.8125 L 3.9375 -1.140625 C 3.363281 -1.484375 2.945312 -1.867188 2.6875 -2.296875 C 2.4375 -2.734375 2.3125 -3.234375 2.3125 -3.796875 C 2.3125 -5.171875 3.207031 -6.097656 5 -6.578125 L 5 -6.90625 C 4.070312 -7.4375 3.375 -8.09375 2.90625 -8.875 C 2.445312 -9.65625 2.21875 -10.597656 2.21875 -11.703125 C 2.21875 -12.835938 2.476562 -13.835938 3 -14.703125 C 3.519531 -15.566406 4.285156 -16.238281 5.296875 -16.71875 C 6.304688 -17.195312 7.515625 -17.4375 8.921875 -17.4375 C 10.347656 -17.4375 11.488281 -17.191406 12.34375 -16.703125 C 12.863281 -17.460938 13.164062 -18.34375 13.25 -19.34375 L 13.578125 -19.546875 L 16.671875 -18.796875 C 16.578125 -17.972656 16.335938 -17.285156 15.953125 -16.734375 C 15.566406 -16.179688 14.972656 -15.6875 14.171875 -15.25 L 14.171875 -14.90625 C 15.128906 -14.0625 15.609375 -12.878906 15.609375 -11.359375 C 15.609375 -10.304688 15.34375 -9.359375 14.8125 -8.515625 C 14.289062 -7.679688 13.523438 -7.019531 12.515625 -6.53125 C 11.503906 -6.039062 10.304688 -5.796875 8.921875 -5.796875 L 8.265625 -5.8125 C 7.859375 -5.832031 7.570312 -5.84375 7.40625 -5.84375 C 7.007812 -5.84375 6.695312 -5.738281 6.46875 -5.53125 C 6.25 -5.320312 6.140625 -5.050781 6.140625 -4.71875 C 6.140625 -4.351562 6.285156 -4.066406 6.578125 -3.859375 C 6.867188 -3.660156 7.296875 -3.550781 7.859375 -3.53125 L 11.6875 -3.40625 C 15.46875 -3.289062 17.359375 -1.660156 17.359375 1.484375 C 17.359375 2.597656 17.078125 3.582031 16.515625 4.4375 C 15.953125 5.300781 15.039062 5.988281 13.78125 6.5 C 12.519531 7.007812 10.882812 7.265625 8.875 7.265625 Z M 8.921875 -8.8125 C 9.753906 -8.8125 10.398438 -9.050781 10.859375 -9.53125 C 11.328125 -10.019531 11.5625 -10.71875 11.5625 -11.625 C 11.5625 -12.519531 11.328125 -13.207031 10.859375 -13.6875 C 10.398438 -14.175781 9.753906 -14.421875 8.921875 -14.421875 C 8.085938 -14.421875 7.441406 -14.175781 6.984375 -13.6875 C 6.523438 -13.207031 6.296875 -12.519531 6.296875 -11.625 C 6.296875 -10.707031 6.523438 -10.007812 6.984375 -9.53125 C 7.441406 -9.050781 8.085938 -8.8125 8.921875 -8.8125 Z M 8.875 4.140625 C 10.34375 4.140625 11.410156 3.929688 12.078125 3.515625 C 12.742188 3.109375 13.078125 2.570312 13.078125 1.90625 C 13.078125 1.375 12.90625 0.976562 12.5625 0.71875 C 12.226562 0.46875 11.6875 0.332031 10.9375 0.3125 L 7.5625 0.15625 C 7.445312 0.15625 7.335938 0.148438 7.234375 0.140625 C 7.140625 0.128906 7.046875 0.125 6.953125 0.125 C 6.222656 0.125 5.671875 0.28125 5.296875 0.59375 C 4.921875 0.90625 4.734375 1.332031 4.734375 1.875 C 4.734375 2.601562 5.078125 3.160156 5.765625 3.546875 C 6.460938 3.941406 7.5 4.140625 8.875 4.140625 Z M 8.875 4.140625 "/></g></g></g><g fill="#ffffff" fill-opacity="1"><g transform="translate(176.602139, 101.026889)"><g><path d="M 2.46875 0 L 2.46875 -23.984375 L 6.765625 -23.984375 L 6.765625 -14.875 L 7.09375 -14.8125 C 7.664062 -15.65625 8.363281 -16.300781 9.1875 -16.75 C 10.007812 -17.207031 11.007812 -17.4375 12.1875 -17.4375 C 15.957031 -17.4375 17.84375 -15.296875 17.84375 -11.015625 L 17.84375 0 L 13.546875 0 L 13.546875 -10.46875 C 13.546875 -11.644531 13.3125 -12.492188 12.84375 -13.015625 C 12.382812 -13.546875 11.660156 -13.8125 10.671875 -13.8125 C 9.472656 -13.8125 8.519531 -13.410156 7.8125 -12.609375 C 7.113281 -11.804688 6.765625 -10.554688 6.765625 -8.859375 L 6.765625 0 Z M 2.46875 0 "/></g></g></g><g fill="#ffffff" fill-opacity="1"><g transform="translate(196.014153, 101.026889)"><g><path d="M 11.8125 -4.078125 L 12.921875 -0.90625 C 12.460938 -0.519531 11.878906 -0.21875 11.171875 0 C 10.472656 0.21875 9.675781 0.328125 8.78125 0.328125 C 6.925781 0.328125 5.519531 -0.175781 4.5625 -1.1875 C 3.601562 -2.195312 3.125 -3.664062 3.125 -5.59375 L 3.125 -13.71875 L 0.515625 -13.71875 L 0.515625 -17.125 L 3.125 -17.125 L 3.125 -20.46875 L 7.421875 -21.171875 L 7.421875 -17.125 L 12.28125 -17.125 L 12.28125 -13.71875 L 7.421875 -13.71875 L 7.421875 -5.890625 C 7.421875 -5.046875 7.59375 -4.425781 7.9375 -4.03125 C 8.289062 -3.644531 8.804688 -3.453125 9.484375 -3.453125 C 10.242188 -3.453125 10.910156 -3.660156 11.484375 -4.078125 Z M 11.8125 -4.078125 "/></g></g></g><g fill="#ffffff" fill-opacity="1"><g transform="translate(57.068733, 138.806728)"><g><path d="M 7.0625 0 L 2.953125 0 L 2.953125 -22.6875 L 8.8125 -22.6875 L 14.5625 -6 L 14.875 -6 L 20.59375 -22.6875 L 26.3125 -22.6875 L 26.3125 0 L 22.0625 0 L 22.0625 -14.984375 L 21.671875 -15.046875 L 16.4375 0 L 12.6875 0 L 7.453125 -15.046875 L 7.0625 -14.984375 Z M 7.0625 0 "/></g></g></g><g fill="#ffffff" fill-opacity="1"><g transform="translate(85.713225, 138.806728)"><g><path d="M 9.953125 0.328125 C 8.273438 0.328125 6.800781 -0.015625 5.53125 -0.703125 C 4.257812 -1.390625 3.273438 -2.394531 2.578125 -3.71875 C 1.878906 -5.050781 1.53125 -6.660156 1.53125 -8.546875 C 1.53125 -10.429688 1.878906 -12.039062 2.578125 -13.375 C 3.273438 -14.707031 4.257812 -15.71875 5.53125 -16.40625 C 6.800781 -17.09375 8.273438 -17.4375 9.953125 -17.4375 C 11.628906 -17.4375 13.097656 -17.09375 14.359375 -16.40625 C 15.628906 -15.71875 16.613281 -14.707031 17.3125 -13.375 C 18.019531 -12.039062 18.375 -10.429688 18.375 -8.546875 C 18.375 -6.660156 18.019531 -5.050781 17.3125 -3.71875 C 16.613281 -2.394531 15.628906 -1.390625 14.359375 -0.703125 C 13.097656 -0.015625 11.628906 0.328125 9.953125 0.328125 Z M 9.953125 -3.328125 C 12.609375 -3.328125 13.9375 -5.066406 13.9375 -8.546875 C 13.9375 -10.359375 13.59375 -11.6875 12.90625 -12.53125 C 12.226562 -13.375 11.242188 -13.796875 9.953125 -13.796875 C 7.285156 -13.796875 5.953125 -12.046875 5.953125 -8.546875 C 5.953125 -5.066406 7.285156 -3.328125 9.953125 -3.328125 Z M 9.953125 -3.328125 "/></g></g></g><g fill="#ffffff" fill-opacity="1"><g transform="translate(104.970069, 138.806728)"><g><path d="M 8.453125 0.328125 C 7.097656 0.328125 5.898438 0 4.859375 -0.65625 C 3.828125 -1.3125 3.015625 -2.304688 2.421875 -3.640625 C 1.828125 -4.972656 1.53125 -6.609375 1.53125 -8.546875 C 1.53125 -10.503906 1.832031 -12.144531 2.4375 -13.46875 C 3.050781 -14.800781 3.890625 -15.796875 4.953125 -16.453125 C 6.023438 -17.109375 7.265625 -17.4375 8.671875 -17.4375 C 9.734375 -17.4375 10.65625 -17.253906 11.4375 -16.890625 C 12.21875 -16.523438 12.878906 -15.953125 13.421875 -15.171875 L 13.75 -15.25 L 13.75 -23.984375 L 18.046875 -23.984375 L 18.046875 0 L 13.75 0 L 13.75 -2.21875 L 13.421875 -2.28125 C 12.941406 -1.476562 12.285156 -0.84375 11.453125 -0.375 C 10.628906 0.09375 9.628906 0.328125 8.453125 0.328125 Z M 9.859375 -3.328125 C 11.066406 -3.328125 12.019531 -3.753906 12.71875 -4.609375 C 13.425781 -5.472656 13.78125 -6.785156 13.78125 -8.546875 C 13.78125 -10.304688 13.425781 -11.617188 12.71875 -12.484375 C 12.019531 -13.359375 11.066406 -13.796875 9.859375 -13.796875 C 8.585938 -13.796875 7.617188 -13.375 6.953125 -12.53125 C 6.285156 -11.6875 5.953125 -10.359375 5.953125 -8.546875 C 5.953125 -6.742188 6.285156 -5.421875 6.953125 -4.578125 C 7.617188 -3.742188 8.585938 -3.328125 9.859375 -3.328125 Z M 9.859375 -3.328125 "/></g></g></g><g fill="#ffffff" fill-opacity="1"><g transform="translate(124.847582, 138.806728)"><g><path d="M 16.921875 -7.59375 L 5.90625 -7.59375 C 6.03125 -6.101562 6.453125 -5.019531 7.171875 -4.34375 C 7.898438 -3.664062 8.894531 -3.328125 10.15625 -3.328125 C 11.132812 -3.328125 11.925781 -3.507812 12.53125 -3.875 C 13.144531 -4.238281 13.640625 -4.796875 14.015625 -5.546875 L 14.34375 -5.546875 L 17.1875 -3.703125 C 16.632812 -2.503906 15.789062 -1.53125 14.65625 -0.78125 C 13.53125 -0.0390625 12.03125 0.328125 10.15625 0.328125 C 8.382812 0.328125 6.851562 -0.00390625 5.5625 -0.671875 C 4.269531 -1.347656 3.273438 -2.347656 2.578125 -3.671875 C 1.878906 -5.003906 1.53125 -6.628906 1.53125 -8.546875 C 1.53125 -10.492188 1.894531 -12.132812 2.625 -13.46875 C 3.363281 -14.800781 4.359375 -15.796875 5.609375 -16.453125 C 6.867188 -17.109375 8.28125 -17.4375 9.84375 -17.4375 C 12.257812 -17.4375 14.109375 -16.796875 15.390625 -15.515625 C 16.679688 -14.234375 17.328125 -12.351562 17.328125 -9.875 C 17.328125 -8.96875 17.296875 -8.269531 17.234375 -7.78125 Z M 13.21875 -10.359375 C 13.175781 -11.671875 12.875 -12.625 12.3125 -13.21875 C 11.75 -13.8125 10.925781 -14.109375 9.84375 -14.109375 C 7.664062 -14.109375 6.382812 -12.859375 6 -10.359375 Z M 13.21875 -10.359375 "/></g></g></g><g fill="#ffffff" fill-opacity="1"><g transform="translate(142.816535, 138.806728)"><g><path d="M 7.109375 0.328125 C 5.566406 0.328125 4.390625 -0.0859375 3.578125 -0.921875 C 2.765625 -1.753906 2.359375 -3.019531 2.359375 -4.71875 L 2.359375 -23.984375 L 6.65625 -23.984375 L 6.65625 -4.890625 C 6.65625 -3.847656 7.085938 -3.328125 7.953125 -3.328125 C 8.203125 -3.328125 8.46875 -3.363281 8.75 -3.4375 L 8.96875 -3.390625 L 9.359375 -0.078125 C 9.117188 0.046875 8.800781 0.144531 8.40625 0.21875 C 8.019531 0.289062 7.585938 0.328125 7.109375 0.328125 Z M 7.109375 0.328125 "/></g></g></g><g fill="#ffffff" fill-opacity="1"><g transform="translate(152.01851, 138.806728)"><g><path d="M 8 0.328125 C 6.832031 0.328125 5.765625 0.191406 4.796875 -0.078125 C 3.828125 -0.359375 2.992188 -0.738281 2.296875 -1.21875 C 1.609375 -1.695312 1.101562 -2.25 0.78125 -2.875 L 3.171875 -5.453125 L 3.484375 -5.453125 C 4.054688 -4.679688 4.726562 -4.101562 5.5 -3.71875 C 6.28125 -3.34375 7.125 -3.15625 8.03125 -3.15625 C 8.875 -3.15625 9.503906 -3.300781 9.921875 -3.59375 C 10.347656 -3.894531 10.5625 -4.328125 10.5625 -4.890625 C 10.5625 -5.328125 10.410156 -5.691406 10.109375 -5.984375 C 9.804688 -6.273438 9.3125 -6.503906 8.625 -6.671875 L 6.359375 -7.21875 C 4.660156 -7.625 3.421875 -8.238281 2.640625 -9.0625 C 1.859375 -9.894531 1.46875 -10.957031 1.46875 -12.25 C 1.46875 -13.3125 1.738281 -14.234375 2.28125 -15.015625 C 2.832031 -15.804688 3.597656 -16.40625 4.578125 -16.8125 C 5.566406 -17.226562 6.71875 -17.4375 8.03125 -17.4375 C 9.570312 -17.4375 10.847656 -17.210938 11.859375 -16.765625 C 12.878906 -16.328125 13.675781 -15.734375 14.25 -14.984375 L 11.953125 -12.5 L 11.640625 -12.5 C 11.160156 -13.039062 10.625 -13.4375 10.03125 -13.6875 C 9.4375 -13.9375 8.769531 -14.0625 8.03125 -14.0625 C 6.34375 -14.0625 5.5 -13.535156 5.5 -12.484375 C 5.5 -12.035156 5.65625 -11.671875 5.96875 -11.390625 C 6.28125 -11.109375 6.835938 -10.878906 7.640625 -10.703125 L 9.75 -10.234375 C 11.488281 -9.867188 12.753906 -9.273438 13.546875 -8.453125 C 14.347656 -7.628906 14.75 -6.523438 14.75 -5.140625 C 14.75 -4.046875 14.476562 -3.085938 13.9375 -2.265625 C 13.40625 -1.441406 12.632812 -0.800781 11.625 -0.34375 C 10.613281 0.101562 9.40625 0.328125 8 0.328125 Z M 8 0.328125 "/></g></g></g></svg>