<svg xmlns="http://www.w3.org/2000/svg" xmlns:xlink="http://www.w3.org/1999/xlink" width="1920" zoomAndPan="magnify" viewBox="0 0 1440 149.999998" height="200" preserveAspectRatio="xMidYMid meet" version="1.0"><defs><g/><clipPath id="89d0858303"><path d="M 397.984375 0 L 1004.734375 0 L 1004.734375 150 L 397.984375 150 Z M 397.984375 0 " clip-rule="nonzero"/></clipPath></defs><g clip-path="url(#89d0858303)"><path fill="#fd7000" d="M 397.984375 0 L 1004.734375 0 L 1004.734375 150 L 397.984375 150 Z M 397.984375 0 " fill-opacity="1" fill-rule="nonzero"/></g><g fill="#ffffff" fill-opacity="1"><g transform="translate(481.361322, 96.24613)"><g><path d="M 29.65625 0 L 25.5 0 L 22.46875 -9.03125 L 8.421875 -9.03125 L 5.359375 0 L 1.3125 0 L 12.796875 -32.9375 L 18.15625 -32.9375 Z M 15.15625 -28.953125 L 9.5 -12.28125 L 21.359375 -12.28125 L 15.71875 -28.953125 Z M 15.15625 -28.953125 "/></g></g></g><g fill="#ffffff" fill-opacity="1"><g transform="translate(511.393235, 96.24613)"><g><path d="M 14.265625 0.46875 C 12.066406 0.46875 10.097656 -0.0234375 8.359375 -1.015625 C 6.617188 -2.015625 5.242188 -3.488281 4.234375 -5.4375 C 3.222656 -7.382812 2.71875 -9.707031 2.71875 -12.40625 C 2.71875 -15.125 3.222656 -17.457031 4.234375 -19.40625 C 5.242188 -21.351562 6.617188 -22.828125 8.359375 -23.828125 C 10.097656 -24.828125 12.066406 -25.328125 14.265625 -25.328125 C 16.890625 -25.328125 18.976562 -24.828125 20.53125 -23.828125 C 22.09375 -22.835938 23.21875 -21.519531 23.90625 -19.875 L 21.40625 -18.0625 L 20.953125 -18.0625 C 20.273438 -19.4375 19.40625 -20.441406 18.34375 -21.078125 C 17.289062 -21.710938 15.929688 -22.03125 14.265625 -22.03125 C 12.734375 -22.03125 11.390625 -21.671875 10.234375 -20.953125 C 9.078125 -20.234375 8.175781 -19.148438 7.53125 -17.703125 C 6.894531 -16.265625 6.578125 -14.5 6.578125 -12.40625 C 6.578125 -10.34375 6.898438 -8.59375 7.546875 -7.15625 C 8.191406 -5.71875 9.085938 -4.632812 10.234375 -3.90625 C 11.390625 -3.175781 12.734375 -2.8125 14.265625 -2.8125 C 15.992188 -2.8125 17.421875 -3.203125 18.546875 -3.984375 C 19.679688 -4.765625 20.570312 -6 21.21875 -7.6875 L 21.703125 -7.6875 L 24.109375 -6.265625 C 23.460938 -4.171875 22.304688 -2.523438 20.640625 -1.328125 C 18.984375 -0.128906 16.859375 0.46875 14.265625 0.46875 Z M 14.265625 0.46875 "/></g></g></g><g fill="#ffffff" fill-opacity="1"><g transform="translate(536.085779, 96.24613)"><g><path d="M 14.265625 0.46875 C 12.066406 0.46875 10.097656 -0.0234375 8.359375 -1.015625 C 6.617188 -2.015625 5.242188 -3.488281 4.234375 -5.4375 C 3.222656 -7.382812 2.71875 -9.707031 2.71875 -12.40625 C 2.71875 -15.125 3.222656 -17.457031 4.234375 -19.40625 C 5.242188 -21.351562 6.617188 -22.828125 8.359375 -23.828125 C 10.097656 -24.828125 12.066406 -25.328125 14.265625 -25.328125 C 16.890625 -25.328125 18.976562 -24.828125 20.53125 -23.828125 C 22.09375 -22.835938 23.21875 -21.519531 23.90625 -19.875 L 21.40625 -18.0625 L 20.953125 -18.0625 C 20.273438 -19.4375 19.40625 -20.441406 18.34375 -21.078125 C 17.289062 -21.710938 15.929688 -22.03125 14.265625 -22.03125 C 12.734375 -22.03125 11.390625 -21.671875 10.234375 -20.953125 C 9.078125 -20.234375 8.175781 -19.148438 7.53125 -17.703125 C 6.894531 -16.265625 6.578125 -14.5 6.578125 -12.40625 C 6.578125 -10.34375 6.898438 -8.59375 7.546875 -7.15625 C 8.191406 -5.71875 9.085938 -4.632812 10.234375 -3.90625 C 11.390625 -3.175781 12.734375 -2.8125 14.265625 -2.8125 C 15.992188 -2.8125 17.421875 -3.203125 18.546875 -3.984375 C 19.679688 -4.765625 20.570312 -6 21.21875 -7.6875 L 21.703125 -7.6875 L 24.109375 -6.265625 C 23.460938 -4.171875 22.304688 -2.523438 20.640625 -1.328125 C 18.984375 -0.128906 16.859375 0.46875 14.265625 0.46875 Z M 14.265625 0.46875 "/></g></g></g><g fill="#ffffff" fill-opacity="1"><g transform="translate(560.778326, 96.24613)"><g><path d="M 23.671875 -11.578125 L 6.59375 -11.578125 C 6.707031 -8.554688 7.4375 -6.335938 8.78125 -4.921875 C 10.125 -3.515625 11.96875 -2.8125 14.3125 -2.8125 C 16.082031 -2.8125 17.503906 -3.125 18.578125 -3.75 C 19.660156 -4.382812 20.507812 -5.378906 21.125 -6.734375 L 21.609375 -6.734375 L 24 -5.3125 C 23.269531 -3.507812 22.113281 -2.09375 20.53125 -1.0625 C 18.945312 -0.0390625 16.875 0.46875 14.3125 0.46875 C 11.90625 0.46875 9.835938 0 8.109375 -0.9375 C 6.378906 -1.882812 5.046875 -3.320312 4.109375 -5.25 C 3.179688 -7.175781 2.71875 -9.5625 2.71875 -12.40625 C 2.71875 -15.238281 3.207031 -17.625 4.1875 -19.5625 C 5.175781 -21.5 6.523438 -22.941406 8.234375 -23.890625 C 9.941406 -24.847656 11.890625 -25.328125 14.078125 -25.328125 C 17.265625 -25.328125 19.75 -24.425781 21.53125 -22.625 C 23.320312 -20.832031 24.222656 -18.171875 24.234375 -14.640625 C 24.234375 -13.265625 24.207031 -12.332031 24.15625 -11.84375 Z M 20.609375 -14.640625 C 20.554688 -17.285156 19.972656 -19.207031 18.859375 -20.40625 C 17.742188 -21.613281 16.148438 -22.21875 14.078125 -22.21875 C 11.898438 -22.21875 10.191406 -21.613281 8.953125 -20.40625 C 7.710938 -19.195312 6.957031 -17.273438 6.6875 -14.640625 Z M 20.609375 -14.640625 "/></g></g></g><g fill="#ffffff" fill-opacity="1"><g transform="translate(586.349501, 96.24613)"><g><path d="M 11.328125 0.46875 C 9.765625 0.46875 8.316406 0.265625 6.984375 -0.140625 C 5.660156 -0.554688 4.539062 -1.125 3.625 -1.84375 C 2.707031 -2.5625 2.0625 -3.375 1.6875 -4.28125 L 3.859375 -6.53125 L 4.328125 -6.53125 C 5.140625 -5.300781 6.113281 -4.375 7.25 -3.75 C 8.394531 -3.125 9.753906 -2.8125 11.328125 -2.8125 C 13.160156 -2.8125 14.550781 -3.164062 15.5 -3.875 C 16.457031 -4.59375 16.9375 -5.59375 16.9375 -6.875 C 16.9375 -7.851562 16.644531 -8.660156 16.0625 -9.296875 C 15.488281 -9.929688 14.554688 -10.40625 13.265625 -10.71875 L 9.078125 -11.765625 C 6.835938 -12.304688 5.203125 -13.160156 4.171875 -14.328125 C 3.148438 -15.503906 2.640625 -16.953125 2.640625 -18.671875 C 2.640625 -20.023438 2.984375 -21.203125 3.671875 -22.203125 C 4.359375 -23.203125 5.351562 -23.972656 6.65625 -24.515625 C 7.957031 -25.054688 9.5 -25.328125 11.28125 -25.328125 C 13.570312 -25.328125 15.375 -25.003906 16.6875 -24.359375 C 18 -23.722656 19.023438 -22.835938 19.765625 -21.703125 L 17.6875 -19.671875 L 17.234375 -19.671875 C 16.441406 -20.585938 15.570312 -21.25 14.625 -21.65625 C 13.6875 -22.0625 12.570312 -22.265625 11.28125 -22.265625 C 9.644531 -22.265625 8.390625 -21.96875 7.515625 -21.375 C 6.648438 -20.789062 6.21875 -19.941406 6.21875 -18.828125 C 6.21875 -17.828125 6.523438 -17.019531 7.140625 -16.40625 C 7.753906 -15.789062 8.828125 -15.296875 10.359375 -14.921875 L 14.484375 -13.921875 C 16.648438 -13.410156 18.210938 -12.5625 19.171875 -11.375 C 20.128906 -10.1875 20.609375 -8.703125 20.609375 -6.921875 C 20.609375 -5.460938 20.265625 -4.175781 19.578125 -3.0625 C 18.890625 -1.945312 17.84375 -1.078125 16.4375 -0.453125 C 15.039062 0.160156 13.335938 0.46875 11.328125 0.46875 Z M 11.328125 0.46875 "/></g></g></g><g fill="#ffffff" fill-opacity="1"><g transform="translate(608.406151, 96.24613)"><g><path d="M 11.328125 0.46875 C 9.765625 0.46875 8.316406 0.265625 6.984375 -0.140625 C 5.660156 -0.554688 4.539062 -1.125 3.625 -1.84375 C 2.707031 -2.5625 2.0625 -3.375 1.6875 -4.28125 L 3.859375 -6.53125 L 4.328125 -6.53125 C 5.140625 -5.300781 6.113281 -4.375 7.25 -3.75 C 8.394531 -3.125 9.753906 -2.8125 11.328125 -2.8125 C 13.160156 -2.8125 14.550781 -3.164062 15.5 -3.875 C 16.457031 -4.59375 16.9375 -5.59375 16.9375 -6.875 C 16.9375 -7.851562 16.644531 -8.660156 16.0625 -9.296875 C 15.488281 -9.929688 14.554688 -10.40625 13.265625 -10.71875 L 9.078125 -11.765625 C 6.835938 -12.304688 5.203125 -13.160156 4.171875 -14.328125 C 3.148438 -15.503906 2.640625 -16.953125 2.640625 -18.671875 C 2.640625 -20.023438 2.984375 -21.203125 3.671875 -22.203125 C 4.359375 -23.203125 5.351562 -23.972656 6.65625 -24.515625 C 7.957031 -25.054688 9.5 -25.328125 11.28125 -25.328125 C 13.570312 -25.328125 15.375 -25.003906 16.6875 -24.359375 C 18 -23.722656 19.023438 -22.835938 19.765625 -21.703125 L 17.6875 -19.671875 L 17.234375 -19.671875 C 16.441406 -20.585938 15.570312 -21.25 14.625 -21.65625 C 13.6875 -22.0625 12.570312 -22.265625 11.28125 -22.265625 C 9.644531 -22.265625 8.390625 -21.96875 7.515625 -21.375 C 6.648438 -20.789062 6.21875 -19.941406 6.21875 -18.828125 C 6.21875 -17.828125 6.523438 -17.019531 7.140625 -16.40625 C 7.753906 -15.789062 8.828125 -15.296875 10.359375 -14.921875 L 14.484375 -13.921875 C 16.648438 -13.410156 18.210938 -12.5625 19.171875 -11.375 C 20.128906 -10.1875 20.609375 -8.703125 20.609375 -6.921875 C 20.609375 -5.460938 20.265625 -4.175781 19.578125 -3.0625 C 18.890625 -1.945312 17.84375 -1.078125 16.4375 -0.453125 C 15.039062 0.160156 13.335938 0.46875 11.328125 0.46875 Z M 11.328125 0.46875 "/></g></g></g><g fill="#ffffff" fill-opacity="1"><g transform="translate(630.462801, 96.24613)"><g/></g></g><g fill="#ffffff" fill-opacity="1"><g transform="translate(640.849419, 96.24613)"><g><path d="M 18.0625 0.46875 C 15.207031 0.46875 12.671875 -0.144531 10.453125 -1.375 C 8.234375 -2.601562 6.484375 -4.484375 5.203125 -7.015625 C 3.929688 -9.546875 3.296875 -12.695312 3.296875 -16.46875 C 3.296875 -20.238281 3.929688 -23.390625 5.203125 -25.921875 C 6.484375 -28.453125 8.234375 -30.332031 10.453125 -31.5625 C 12.671875 -32.789062 15.207031 -33.40625 18.0625 -33.40625 C 20.914062 -33.40625 23.453125 -32.789062 25.671875 -31.5625 C 27.898438 -30.332031 29.648438 -28.453125 30.921875 -25.921875 C 32.203125 -23.390625 32.84375 -20.238281 32.84375 -16.46875 C 32.84375 -12.695312 32.203125 -9.546875 30.921875 -7.015625 C 29.648438 -4.484375 27.898438 -2.601562 25.671875 -1.375 C 23.453125 -0.144531 20.914062 0.46875 18.0625 0.46875 Z M 18.0625 -3.109375 C 21.488281 -3.109375 24.117188 -4.175781 25.953125 -6.3125 C 27.785156 -8.457031 28.703125 -11.84375 28.703125 -16.46875 C 28.703125 -21.09375 27.785156 -24.472656 25.953125 -26.609375 C 24.117188 -28.753906 21.488281 -29.828125 18.0625 -29.828125 C 10.976562 -29.828125 7.4375 -25.375 7.4375 -16.46875 C 7.4375 -7.5625 10.976562 -3.109375 18.0625 -3.109375 Z M 18.0625 -3.109375 "/></g></g></g><g fill="#ffffff" fill-opacity="1"><g transform="translate(676.063007, 96.24613)"><g><path d="M 12.28125 0.46875 C 9.46875 0.46875 7.375 -0.269531 6 -1.75 C 4.625 -3.238281 3.9375 -5.421875 3.9375 -8.296875 L 3.9375 -24.84375 L 7.609375 -24.84375 L 7.609375 -8.375 C 7.609375 -4.601562 9.382812 -2.71875 12.9375 -2.71875 C 15.1875 -2.71875 16.960938 -3.453125 18.265625 -4.921875 C 19.578125 -6.398438 20.234375 -8.789062 20.234375 -12.09375 L 20.234375 -24.84375 L 23.90625 -24.84375 L 23.90625 0 L 20.4375 0 L 20.4375 -3.890625 L 19.96875 -4.015625 C 19.101562 -2.492188 18.070312 -1.363281 16.875 -0.625 C 15.6875 0.101562 14.15625 0.46875 12.28125 0.46875 Z M 12.28125 0.46875 "/></g></g></g><g fill="#ffffff" fill-opacity="1"><g transform="translate(703.368919, 96.24613)"><g><path d="M 4.328125 0 L 4.328125 -24.84375 L 7.8125 -24.84375 L 7.8125 -20.953125 L 8.296875 -20.84375 C 9.453125 -23.664062 11.628906 -25.078125 14.828125 -25.078125 C 16.523438 -25.078125 17.789062 -24.769531 18.625 -24.15625 L 17.6875 -21.046875 L 17.234375 -20.953125 C 16.304688 -21.421875 15.285156 -21.65625 14.171875 -21.65625 C 12.191406 -21.65625 10.664062 -20.910156 9.59375 -19.421875 C 8.53125 -17.929688 8 -15.519531 8 -12.1875 L 8 0 Z M 4.328125 0 "/></g></g></g><g fill="#ffffff" fill-opacity="1"><g transform="translate(721.640697, 96.24613)"><g/></g></g><g fill="#ffffff" fill-opacity="1"><g transform="translate(732.027315, 96.24613)"><g><path d="M 16.765625 -32.9375 C 19.023438 -32.9375 20.96875 -32.53125 22.59375 -31.71875 C 24.21875 -30.90625 25.453125 -29.742188 26.296875 -28.234375 C 27.148438 -26.734375 27.578125 -24.957031 27.578125 -22.90625 C 27.578125 -20.863281 27.148438 -19.09375 26.296875 -17.59375 C 25.453125 -16.09375 24.21875 -14.929688 22.59375 -14.109375 C 20.96875 -13.296875 19.023438 -12.890625 16.765625 -12.890625 L 8.859375 -12.890625 L 8.859375 0 L 4.984375 0 L 4.984375 -32.9375 Z M 16.65625 -16.203125 C 21.226562 -16.203125 23.515625 -18.4375 23.515625 -22.90625 C 23.515625 -27.40625 21.226562 -29.65625 16.65625 -29.65625 L 8.859375 -29.65625 L 8.859375 -16.203125 Z M 16.65625 -16.203125 "/></g></g></g><g fill="#ffffff" fill-opacity="1"><g transform="translate(761.135547, 96.24613)"><g><path d="M 9.890625 0.46875 C 8.128906 0.46875 6.742188 -0.0234375 5.734375 -1.015625 C 4.734375 -2.015625 4.234375 -3.507812 4.234375 -5.5 L 4.234375 -34.828125 L 7.90625 -34.828125 L 7.90625 -5.75 C 7.90625 -4.707031 8.101562 -3.957031 8.5 -3.5 C 8.90625 -3.039062 9.523438 -2.8125 10.359375 -2.8125 C 10.867188 -2.8125 11.390625 -2.894531 11.921875 -3.0625 L 12.234375 -2.96875 L 12.65625 -0.09375 C 12.382812 0.09375 12 0.234375 11.5 0.328125 C 11 0.421875 10.460938 0.46875 9.890625 0.46875 Z M 9.890625 0.46875 "/></g></g></g><g fill="#ffffff" fill-opacity="1"><g transform="translate(773.73, 96.24613)"><g><path d="M 10.25 0.46875 C 7.800781 0.46875 5.890625 -0.164062 4.515625 -1.4375 C 3.140625 -2.71875 2.453125 -4.546875 2.453125 -6.921875 C 2.453125 -8.390625 2.753906 -9.628906 3.359375 -10.640625 C 3.972656 -11.660156 4.914062 -12.488281 6.1875 -13.125 C 7.46875 -13.757812 9.140625 -14.25 11.203125 -14.59375 C 13.003906 -14.894531 14.375 -15.234375 15.3125 -15.609375 C 16.25 -15.984375 16.878906 -16.40625 17.203125 -16.875 C 17.523438 -17.34375 17.6875 -17.925781 17.6875 -18.625 C 17.6875 -19.757812 17.296875 -20.625 16.515625 -21.21875 C 15.742188 -21.820312 14.503906 -22.125 12.796875 -22.125 C 11.191406 -22.125 9.8125 -21.8125 8.65625 -21.1875 C 7.507812 -20.5625 6.457031 -19.632812 5.5 -18.40625 L 5.046875 -18.40625 L 3.25 -20.953125 C 4.300781 -22.285156 5.632812 -23.347656 7.25 -24.140625 C 8.875 -24.929688 10.722656 -25.328125 12.796875 -25.328125 C 15.722656 -25.328125 17.878906 -24.679688 19.265625 -23.390625 C 20.660156 -22.109375 21.359375 -20.332031 21.359375 -18.0625 L 21.359375 -4.890625 C 21.359375 -3.503906 21.941406 -2.8125 23.109375 -2.8125 C 23.503906 -2.8125 23.878906 -2.878906 24.234375 -3.015625 L 24.5625 -2.921875 L 24.984375 -0.390625 C 24.710938 -0.203125 24.351562 -0.0625 23.90625 0.03125 C 23.46875 0.132812 23.015625 0.1875 22.546875 0.1875 C 21.179688 0.1875 20.148438 -0.113281 19.453125 -0.71875 C 18.753906 -1.320312 18.304688 -2.207031 18.109375 -3.375 L 17.640625 -3.421875 C 16.929688 -2.117188 15.976562 -1.144531 14.78125 -0.5 C 13.582031 0.144531 12.070312 0.46875 10.25 0.46875 Z M 11.0625 -2.453125 C 12.445312 -2.453125 13.644531 -2.769531 14.65625 -3.40625 C 15.664062 -4.050781 16.441406 -4.953125 16.984375 -6.109375 C 17.523438 -7.265625 17.796875 -8.597656 17.796875 -10.109375 L 17.796875 -13.265625 L 17.375 -13.359375 C 16.8125 -12.972656 16.132812 -12.644531 15.34375 -12.375 C 14.550781 -12.113281 13.441406 -11.878906 12.015625 -11.671875 C 10.566406 -11.472656 9.414062 -11.171875 8.5625 -10.765625 C 7.71875 -10.359375 7.113281 -9.84375 6.75 -9.21875 C 6.394531 -8.601562 6.21875 -7.835938 6.21875 -6.921875 C 6.21875 -5.460938 6.644531 -4.351562 7.5 -3.59375 C 8.351562 -2.832031 9.539062 -2.453125 11.0625 -2.453125 Z M 11.0625 -2.453125 "/></g></g></g><g fill="#ffffff" fill-opacity="1"><g transform="translate(798.512664, 96.24613)"><g><path d="M 16.8125 -3.9375 L 17.984375 -1.3125 C 17.390625 -0.71875 16.613281 -0.273438 15.65625 0.015625 C 14.707031 0.316406 13.679688 0.46875 12.578125 0.46875 C 7.828125 0.46875 5.453125 -1.929688 5.453125 -6.734375 L 5.453125 -21.859375 L 1.125 -21.859375 L 1.125 -24.875 L 5.453125 -24.875 L 5.453125 -30.125 L 9.125 -30.734375 L 9.125 -24.875 L 17.125 -24.875 L 17.125 -21.859375 L 9.125 -21.859375 L 9.125 -7.09375 C 9.125 -4.238281 10.363281 -2.8125 12.84375 -2.8125 C 14.195312 -2.8125 15.359375 -3.1875 16.328125 -3.9375 Z M 16.8125 -3.9375 "/></g></g></g><g fill="#ffffff" fill-opacity="1"><g transform="translate(816.514077, 96.24613)"><g><path d="M 5.546875 0 L 5.546875 -21.859375 L 1.21875 -21.859375 L 1.21875 -24.875 L 5.546875 -24.875 C 5.273438 -25.957031 5.140625 -26.984375 5.140625 -27.953125 C 5.140625 -29.566406 5.476562 -30.925781 6.15625 -32.03125 C 6.84375 -33.132812 7.796875 -33.953125 9.015625 -34.484375 C 10.234375 -35.023438 11.632812 -35.296875 13.21875 -35.296875 C 15.695312 -35.296875 17.597656 -34.765625 18.921875 -33.703125 L 17.5 -31.109375 L 17.03125 -31.015625 C 16.050781 -31.796875 14.78125 -32.1875 13.21875 -32.1875 C 11.769531 -32.1875 10.671875 -31.8125 9.921875 -31.0625 C 9.179688 -30.3125 8.8125 -29.25 8.8125 -27.875 C 8.8125 -27.007812 8.945312 -26.007812 9.21875 -24.875 L 17.125 -24.875 L 17.125 -21.859375 L 9.21875 -21.859375 L 9.21875 0 Z M 5.546875 0 "/></g></g></g><g fill="#ffffff" fill-opacity="1"><g transform="translate(833.298933, 96.24613)"><g><path d="M 14.265625 0.46875 C 11.921875 0.46875 9.878906 -0.0234375 8.140625 -1.015625 C 6.410156 -2.003906 5.070312 -3.460938 4.125 -5.390625 C 3.1875 -7.328125 2.71875 -9.664062 2.71875 -12.40625 C 2.71875 -15.15625 3.1875 -17.5 4.125 -19.4375 C 5.070312 -21.375 6.410156 -22.835938 8.140625 -23.828125 C 9.878906 -24.828125 11.921875 -25.328125 14.265625 -25.328125 C 16.609375 -25.328125 18.644531 -24.828125 20.375 -23.828125 C 22.113281 -22.835938 23.453125 -21.375 24.390625 -19.4375 C 25.328125 -17.5 25.796875 -15.15625 25.796875 -12.40625 C 25.796875 -9.664062 25.328125 -7.328125 24.390625 -5.390625 C 23.453125 -3.460938 22.113281 -2.003906 20.375 -1.015625 C 18.644531 -0.0234375 16.609375 0.46875 14.265625 0.46875 Z M 14.265625 -2.8125 C 16.742188 -2.8125 18.640625 -3.59375 19.953125 -5.15625 C 21.265625 -6.71875 21.921875 -9.132812 21.921875 -12.40625 C 21.921875 -15.695312 21.265625 -18.125 19.953125 -19.6875 C 18.640625 -21.25 16.742188 -22.03125 14.265625 -22.03125 C 11.785156 -22.03125 9.882812 -21.242188 8.5625 -19.671875 C 7.238281 -18.109375 6.578125 -15.6875 6.578125 -12.40625 C 6.578125 -9.132812 7.238281 -6.71875 8.5625 -5.15625 C 9.882812 -3.59375 11.785156 -2.8125 14.265625 -2.8125 Z M 14.265625 -2.8125 "/></g></g></g><g fill="#ffffff" fill-opacity="1"><g transform="translate(860.89771, 96.24613)"><g><path d="M 4.328125 0 L 4.328125 -24.84375 L 7.8125 -24.84375 L 7.8125 -20.953125 L 8.296875 -20.84375 C 9.453125 -23.664062 11.628906 -25.078125 14.828125 -25.078125 C 16.523438 -25.078125 17.789062 -24.769531 18.625 -24.15625 L 17.6875 -21.046875 L 17.234375 -20.953125 C 16.304688 -21.421875 15.285156 -21.65625 14.171875 -21.65625 C 12.191406 -21.65625 10.664062 -20.910156 9.59375 -19.421875 C 8.53125 -17.929688 8 -15.519531 8 -12.1875 L 8 0 Z M 4.328125 0 "/></g></g></g><g fill="#ffffff" fill-opacity="1"><g transform="translate(879.169487, 96.24613)"><g><path d="M 4.328125 0 L 4.328125 -24.84375 L 7.8125 -24.84375 L 7.8125 -21.171875 L 8.296875 -21.09375 C 9.128906 -22.488281 10.144531 -23.539062 11.34375 -24.25 C 12.539062 -24.96875 13.972656 -25.328125 15.640625 -25.328125 C 17.554688 -25.328125 19.039062 -24.960938 20.09375 -24.234375 C 21.144531 -23.503906 21.960938 -22.328125 22.546875 -20.703125 L 23.03125 -20.703125 C 23.882812 -22.222656 24.9375 -23.375 26.1875 -24.15625 C 27.445312 -24.9375 28.992188 -25.328125 30.828125 -25.328125 C 33.378906 -25.328125 35.28125 -24.632812 36.53125 -23.25 C 37.78125 -21.863281 38.40625 -19.757812 38.40625 -16.9375 L 38.40625 0 L 34.734375 0 L 34.734375 -16.859375 C 34.734375 -18.660156 34.351562 -19.988281 33.59375 -20.84375 C 32.84375 -21.695312 31.625 -22.125 29.9375 -22.125 C 27.957031 -22.125 26.335938 -21.398438 25.078125 -19.953125 C 23.828125 -18.515625 23.203125 -16.144531 23.203125 -12.84375 L 23.203125 0 L 19.53125 0 L 19.53125 -16.859375 C 19.53125 -18.660156 19.148438 -19.988281 18.390625 -20.84375 C 17.628906 -21.695312 16.410156 -22.125 14.734375 -22.125 C 12.753906 -22.125 11.132812 -21.425781 9.875 -20.03125 C 8.625 -18.632812 8 -16.363281 8 -13.21875 L 8 0 Z M 4.328125 0 "/></g></g></g></svg>