<svg width="187" height="220" viewBox="0 0 187 220" fill="none" xmlns="http://www.w3.org/2000/svg">
<g clip-path="url(#clip0_15_914)">
<path d="M135.961 101.535L135.961 33.8367L119.04 33.8367L119.04 50.7721L102.134 50.7721L102.134 67.6929L85.2274 67.6929L85.2274 50.7721L68.3209 50.7721L68.3209 33.8367L51.4145 33.8367L51.4145 101.535L34.4935 101.535L34.4935 118.455L85.2274 118.455L85.2274 101.535L68.3209 101.535L68.3209 84.6137L85.2274 84.6137L85.2274 101.535L102.134 101.535L102.134 84.6137L119.04 84.6137L119.04 101.535L102.134 101.535L102.134 118.455L152.868 118.455L152.868 101.535L135.961 101.535Z" fill="#8DD70C"/>
<path d="M152.867 152.317L17.5861 152.317L17.5861 169.238L169.773 169.238L169.773 152.317L152.867 152.317Z" fill="#A57355"/>
<path d="M169.772 -1.76051e-08L0.678711 0L0.678711 152.317L186.679 152.317L186.679 -1.93653e-08L169.772 -1.76051e-08ZM169.772 33.8417L169.772 135.381L17.5852 135.381L17.5852 16.9208L169.772 16.9208L169.772 33.8417Z" fill="#E1B496"/>
<path d="M152.866 169.235L0.678711 169.235L0.678711 219.998L186.679 219.998L186.679 169.235L152.866 169.235ZM85.2255 203.077L17.5852 203.077L17.5852 186.156L85.2255 186.156L85.2255 203.077ZM169.772 203.077L152.866 203.077L152.866 186.156L169.772 186.156L169.772 203.077Z" fill="#E1B496"/>
<path d="M152.867 16.9183L17.5861 16.9183L17.5861 135.379L169.773 135.379L169.773 16.9183L152.867 16.9183ZM152.867 118.458L102.133 118.458L102.133 101.537L85.2264 101.537L85.2264 118.458L34.4925 118.458L34.4925 101.537L51.399 101.537L51.399 33.8392L68.3054 33.8392L68.3054 50.76L85.2118 50.76L85.2118 67.6808L102.118 67.6808L102.118 50.76L119.025 50.76L119.025 33.8392L135.931 33.8392L135.931 101.537L152.838 101.537L152.838 118.458L152.867 118.458Z" fill="#1E1E1E"/>
<path d="M169.772 186.153L152.866 186.153L152.866 203.074L169.772 203.074L169.772 186.153Z" fill="#1E1E1E"/>
<path d="M51.4135 186.153L17.5861 186.153L17.5861 203.074L85.2264 203.074L85.2264 186.153L51.4135 186.153Z" fill="#1E1E1E"/>
<path d="M85.2249 84.6227L68.3185 84.6227L68.3185 101.544L85.2249 101.544L85.2249 84.6227Z" fill="#1E1E1E"/>
<path d="M119.04 84.6227L102.133 84.6227L102.133 101.544L119.04 101.544L119.04 84.6227Z" fill="#1E1E1E"/>
</g>
<defs>
<clipPath id="clip0_15_914">
<rect width="186" height="220" fill="white" transform="translate(0.678711)"/>
</clipPath>
</defs>
</svg>
