<svg width="160" height="160" viewBox="0 0 160 160" fill="none" xmlns="http://www.w3.org/2000/svg">
<rect x="32" y="24" width="96" height="80" fill="#E1B496"/>
<rect x="40" y="32" width="80" height="64" fill="#202020"/>
<rect width="80" height="8" transform="matrix(1 0 0 -1 40 112)" fill="#B36843"/>
<rect width="96" height="24" transform="matrix(1 0 0 -1 32 136)" fill="#E1B496"/>
<rect width="32" height="8" transform="matrix(1 0 0 -1 40 128)" fill="#66331A"/>
<rect width="8" height="8" transform="matrix(1 0 0 -1 112 128)" fill="#66331A"/>
<rect x="60" y="44" width="8" height="8" fill="#FFD700"/>
<rect x="92" y="44" width="8" height="8" fill="#FFD700"/>
<rect x="76" y="68" width="8" height="8" fill="#FA500F"/>
<rect x="60" y="68" width="8" height="8" fill="#FA500F"/>
<rect x="92" y="68" width="8" height="8" fill="#FA500F"/>
<rect x="60" y="52" width="16" height="8" fill="#FFAF00"/>
<rect x="52" y="76" width="24" height="8" fill="#E92700"/>
<rect x="84" y="76" width="24" height="8" fill="#E92700"/>
<rect x="60" y="60" width="40" height="8" fill="#FF8205"/>
<rect x="84" y="52" width="16" height="8" fill="#FFAF00"/>
</svg>
