<svg width="193" height="205" viewBox="0 0 193 205" fill="none" xmlns="http://www.w3.org/2000/svg">
<g clip-path="url(#clip0_3_148)">
<path d="M132.389 144.479V95.9675H120.394V108.091H108.39V120.223H96.3956V108.091H84.3916V95.9675H72.3876V144.479H60.393V156.612H96.3956V144.479H84.3916V132.356H96.3956V144.479H108.39V132.356H120.394V144.479H108.39V156.612H144.393V144.479H132.389Z" fill="black"/>
<path d="M48.393 96.5698H36.393V108.579H48.393V96.5698Z" fill="black"/>
<path d="M36.393 108.578H24.393V120.587H36.393V108.578Z" fill="black"/>
<path d="M24.393 120.587H12.393V131.395H24.393V120.587Z" fill="black"/>
<path d="M84.393 203.444V191.435H72.393V203.444H84.393Z" fill="black"/>
<path d="M84.393 191.435V179.426H72.393V191.435H84.393Z" fill="#149E2F"/>
<path d="M84.393 179.426V167.418H72.393V179.426H84.393Z" fill="#9FDA44"/>
<path d="M84.393 168.02V156.011H72.393V168.02H84.393Z" fill="#9FDA44"/>
<path d="M132.393 191.435V179.426H120.393V191.435H132.393Z" fill="#149E2F"/>
<path d="M132.393 203.444V191.435H120.393V203.444H132.393Z" fill="black"/>
<path d="M132.393 179.426V167.418H120.393V179.426H132.393Z" fill="#9BDB47"/>
<path d="M156.393 191.435V179.426H144.393V191.435H156.393Z" fill="#1D793E"/>
<path d="M132.393 168.02V156.011H120.393V168.02H132.393Z" fill="#9BDB47"/>
<path d="M72.393 191.435V179.426H60.393V191.435H72.393Z" fill="#149E2F"/>
<path d="M156.393 179.426V167.418H144.393V179.426H156.393Z" fill="#119F2E"/>
<path d="M156.393 203.444V191.435H144.393V203.444H156.393Z" fill="black"/>
<path d="M60.393 191.435V179.426H48.393V191.435H60.393Z" fill="#1D793E"/>
<path d="M60.393 156.613V144.605H48.393V156.613H60.393Z" fill="#1D793E"/>
<path d="M48.393 144.605V132.596H36.393V144.605H48.393Z" fill="#1D793E"/>
<path d="M96.393 144.603V131.994H84.393V144.603H96.393Z" fill="#1D793E"/>
<path d="M108.393 157.214V144.605H96.393V157.214H108.393Z" fill="#1D793E"/>
<path d="M120.393 144.603V131.994H108.393V144.603H120.393Z" fill="#1D793E"/>
<path d="M48.393 120.587V108.578H36.393V120.587H48.393Z" fill="#1D793E"/>
<path d="M156.393 168.02V156.011H144.393V168.02H156.393Z" fill="#58C138"/>
<path d="M168.393 156.613V144.605H156.393V156.613H168.393Z" fill="#58C138"/>
<path d="M72.393 179.426V167.418H60.393V179.426H72.393Z" fill="#58C138"/>
<path d="M120.393 191.435V179.426H108.393V191.435H120.393Z" fill="#149E2F"/>
<path d="M72.393 203.444V191.435H60.393V203.444H72.393Z" fill="black"/>
<path d="M96.393 191.435V179.426H84.393V191.435H96.393Z" fill="#149E2F"/>
<path d="M60.393 179.426V167.418H48.393V179.426H60.393Z" fill="#119F2E"/>
<path d="M48.393 155.412V144.605H36.393V155.412H48.393Z" fill="#119F2E"/>
<path d="M72.393 168.02V156.011H60.393V168.02H72.393Z" fill="#9BDB47"/>
<path d="M108.393 191.435V179.426H96.393V191.435H108.393Z" fill="#149E2F"/>
<path d="M120.393 179.426V167.418H108.393V179.426H120.393Z" fill="#9BDB47"/>
<path d="M60.393 203.444V191.435H48.393V203.444H60.393Z" fill="black"/>
<path d="M144.393 191.435V179.426H132.393V191.435H144.393Z" fill="#149E2F"/>
<path d="M96.393 179.426V167.418H84.393V179.426H96.393Z" fill="#9BDB47"/>
<path d="M60.393 168.02V156.011H48.393V168.02H60.393Z" fill="#119F2E"/>
<path d="M108.393 179.426V167.418H96.393V179.426H108.393Z" fill="#9BDB47"/>
<path d="M144.393 179.426V167.418H132.393V179.426H144.393Z" fill="#58C138"/>
<path d="M36.393 155.413V120.587H24.393V155.413H36.393Z" fill="#119F2E"/>
<path d="M120.393 203.444V191.435H108.393V203.444H120.393Z" fill="black"/>
<path d="M120.393 168.02V156.011H108.393V168.02H120.393Z" fill="#9BDB47"/>
<path d="M168.393 179.426V167.418H156.393V179.426H168.393Z" fill="#1D793E"/>
<path d="M168.393 191.435V179.426H156.393V191.435H168.393Z" fill="black"/>
<path d="M96.393 203.444V191.435H84.393V203.444H96.393Z" fill="black"/>
<path d="M96.393 168.02V156.011H84.393V168.02H96.393Z" fill="#9BDB47"/>
<path d="M108.393 203.444V191.435H96.393V203.444H108.393Z" fill="black"/>
<path d="M108.393 168.02V156.011H96.393V168.02H108.393Z" fill="#9BDB47"/>
<path d="M144.393 203.444V191.435H132.393V203.444H144.393Z" fill="black"/>
<path d="M144.393 168.02V156.011H132.393V168.02H144.393Z" fill="#9BDB47"/>
<path d="M156.393 156.013V144.605H144.393V156.013H156.393Z" fill="#9BDB47"/>
<path d="M24.393 131.391H12.393V143.4H24.393V131.391Z" fill="black"/>
<path d="M24.393 143.4H12.393V155.409H24.393V143.4Z" fill="black"/>
<path d="M24.393 155.409H12.393V167.418H24.393V155.409Z" fill="black"/>
<path d="M168.393 168.02V156.011H156.393V168.02H168.393Z" fill="#14A030"/>
<path d="M180.393 168.02V156.011H168.393V168.02H180.393Z" fill="#1E7A3D"/>
<path d="M168.393 119.383V107.374H156.393V119.383H168.393Z" fill="#1D793E"/>
<path d="M168.393 119.383V107.374H156.393V119.383H168.393Z" fill="#1D793E"/>
<path d="M156.393 96.5698V84.561H144.393V96.5698H156.393Z" fill="#1D793E"/>
<path d="M180.393 156.009V119.383H168.393V156.009H180.393Z" fill="#149E2E"/>
<path d="M60.393 133.196V96.5698H48.393V133.196H60.393Z" fill="#58C138"/>
<path d="M144.393 144.605V96.5698H132.393V144.605H144.393Z" fill="#149E2E"/>
<path d="M72.393 144.605V96.5698H60.393V144.605H72.393Z" fill="#149E2E"/>
<path d="M168.393 144.601V119.383H156.393V144.601H168.393Z" fill="#9BDC44"/>
<path d="M180.393 179.428V168.02H168.393V179.428H180.393Z" fill="black"/>
<path d="M192.393 168.018V155.409H180.393V168.018H192.393Z" fill="black"/>
<path d="M192.393 155.409V143.4H180.393V155.409H192.393Z" fill="black"/>
<path d="M192.393 143.4V131.391H180.393V143.4H192.393Z" fill="black"/>
<path d="M192.393 131.391V119.383H180.393V131.391H192.393Z" fill="black"/>
<path d="M180.393 119.383V107.374H168.393V119.383H180.393Z" fill="black"/>
<path d="M168.393 107.378V96.5698H156.393V107.378H168.393Z" fill="black"/>
<path d="M156.393 108.579V96.5698H144.393V108.579H156.393Z" fill="black"/>
<path d="M144.393 96.5698V84.561H132.393V96.5698H144.393Z" fill="black"/>
<path d="M132.393 96.5698V84.561H120.393V96.5698H132.393Z" fill="#1F793E"/>
<path d="M120.393 96.5698V84.561H108.393V96.5698H120.393Z" fill="#9BDC44"/>
<path d="M120.393 108.579V96.5698H108.393V108.579H120.393Z" fill="#149E2F"/>
<path d="M108.393 96.5698V84.561H96.393V96.5698H108.393Z" fill="#9BDC44"/>
<path d="M108.393 108.579V96.5698H96.393V108.579H108.393Z" fill="#149E2F"/>
<path d="M108.393 120.587V108.578H96.393V120.587H108.393Z" fill="#149E2F"/>
<path d="M96.393 96.5698V84.561H84.393V96.5698H96.393Z" fill="#9BDC44"/>
<path d="M96.393 108.579V96.5698H84.393V108.579H96.393Z" fill="#149E2F"/>
<path d="M84.393 96.5698V84.561H72.393V96.5698H84.393Z" fill="#9BDC44"/>
<path d="M156.393 84.5611V72.5524H144.393V84.5611H156.393Z" fill="black"/>
<path d="M168.393 96.5698V84.561H156.393V96.5698H168.393Z" fill="black"/>
<path d="M144.393 72.5523V60.5436H132.393V72.5523H144.393Z" fill="black"/>
<path d="M144.393 60.5436V48.5349H132.393V60.5436H144.393Z" fill="black"/>
<path d="M132.393 48.5348V36.5261H120.393V48.5348H132.393Z" fill="black"/>
<path d="M120.393 36.5262V24.5175H108.393V36.5262H120.393Z" fill="black"/>
<path d="M108.393 24.5174V12.5087H96.393V24.5174H108.393Z" fill="black"/>
<path d="M96.393 12.5087V0.5L84.393 0.5V12.5087H96.393Z" fill="black"/>
<path d="M84.393 12.5087V0.5L72.393 0.5V12.5087H84.393Z" fill="black"/>
<path d="M72.393 12.5087V0.5L60.393 0.5V12.5087H72.393Z" fill="black"/>
<path d="M60.393 12.5087V0.5L48.393 0.5V12.5087H60.393Z" fill="black"/>
<path d="M60.393 24.5174V12.5087H48.393V24.5174H60.393Z" fill="#9FDA44"/>
<path d="M48.393 36.5262V24.5175H36.393V36.5262H48.393Z" fill="#9FDA44"/>
<path d="M60.393 61.1422V47.9326H48.393V61.1422H60.393Z" fill="#5DC139"/>
<path d="M72.393 61.1422V47.9326H60.393V61.1422H72.393Z" fill="#177B3E"/>
<path d="M108.393 60.5436V48.5349H96.393V60.5436H108.393Z" fill="#177B3E"/>
<path d="M108.393 84.5592V71.9501H96.393V84.5592H108.393Z" fill="#149E2E"/>
<path d="M72.393 48.5348V36.5261H36.393V48.5348H72.393Z" fill="#58C138"/>
<path d="M108.393 48.5348V36.5261H72.393V48.5348H108.393Z" fill="#149E2F"/>
<path d="M72.393 24.5174V12.5087H60.393V24.5174H72.393Z" fill="#9FDA44"/>
<path d="M72.393 36.5262V24.5175H60.393V36.5262H72.393Z" fill="#9FDA44"/>
<path d="M84.393 24.5174V12.5087H72.393V24.5174H84.393Z" fill="#9FDA44"/>
<path d="M96.393 24.5174V12.5087H84.393V24.5174H96.393Z" fill="#9FDA44"/>
<path d="M96.393 36.5262V24.5175H84.393V36.5262H96.393Z" fill="#58C139"/>
<path d="M108.393 36.5262V24.5175H96.393V36.5262H108.393Z" fill="#9FDA44"/>
<path d="M120.393 48.5348V36.5261H108.393V48.5348H120.393Z" fill="#9FDA44"/>
<path d="M132.393 84.5611V48.5349H120.393V84.5611H132.393Z" fill="#9FDA44"/>
<path d="M120.393 84.5611V48.5349H108.393V84.5611H120.393Z" fill="#58C138"/>
<path d="M48.393 24.5174V12.5087H36.393V24.5174H48.393Z" fill="black"/>
<path d="M60.393 36.5262V24.5175H48.393V36.5262H60.393Z" fill="#DF3F20"/>
<path d="M24.393 72.5523V60.5436H12.393V72.5523H24.393Z" fill="#DF3F20"/>
<path d="M36.393 60.5436V48.5349H24.393V60.5436H36.393Z" fill="#DF3F20"/>
<path d="M48.393 60.5436V48.5349H36.393V60.5436H48.393Z" fill="#B5202C"/>
<path d="M84.393 36.5262V24.5175H72.393V36.5262H84.393Z" fill="#DF3F20"/>
<path d="M36.393 36.5262V24.5175H24.393V36.5262H36.393Z" fill="black"/>
<path d="M36.393 48.5348V36.5261H24.393V48.5348H36.393Z" fill="black"/>
<path d="M24.393 60.5436V48.5349H12.393V60.5436H24.393Z" fill="black"/>
<path d="M12.393 72.5523V60.5436H0.393005V72.5523H12.393Z" fill="black"/>
<path d="M24.393 84.5611V72.5524H12.393V84.5611H24.393Z" fill="black"/>
<path d="M36.393 72.5523V60.5436H24.393V72.5523H36.393Z" fill="black"/>
<path d="M48.393 72.5523V60.5436H36.393V72.5523H48.393Z" fill="black"/>
<path d="M60.393 72.5523V60.5436H48.393V72.5523H60.393Z" fill="black"/>
<path d="M60.393 96.5698V84.561H48.393V96.5698H60.393Z" fill="black"/>
<path d="M72.393 72.5523V60.5436H60.393V72.5523H72.393Z" fill="black"/>
<path d="M72.393 96.5698V84.561H60.393V96.5698H72.393Z" fill="black"/>
<path d="M156.393 120.587V108.578H144.393V120.587H156.393Z" fill="black"/>
<path d="M156.393 132.596V120.587H144.393V132.596H156.393Z" fill="black"/>
<path d="M48.393 167.418H36.393V179.426H48.393V167.418Z" fill="#1D793E"/>
<path d="M48.393 179.426H36.393V191.435H48.393V179.426Z" fill="black"/>
<path d="M156.393 144.605V132.596H144.393V144.605H156.393Z" fill="black"/>
<path d="M60.393 144.605V132.596H48.393V144.605H60.393Z" fill="black"/>
<path d="M48.393 132.596V120.587H36.393V132.596H48.393Z" fill="black"/>
<path d="M84.393 60.5436V48.5349H72.393V60.5436H84.393Z" fill="black"/>
<path d="M96.393 60.5436V48.5349H84.393V60.5436H96.393Z" fill="black"/>
<path d="M108.393 72.5523V60.5436H96.393V72.5523H108.393Z" fill="black"/>
<path d="M96.393 84.5611V72.5524H84.393V84.5611H96.393Z" fill="black"/>
<path d="M84.393 84.5611V72.5524H72.393V84.5611H84.393Z" fill="black"/>
<path d="M144.393 84.5611V72.5524H132.393V84.5611H144.393Z" fill="black"/>
<path d="M36.393 167.418H24.393V179.426H36.393V167.418Z" fill="black"/>
<path d="M48.393 155.409H36.393V168.018H48.393V155.409Z" fill="#1D793E"/>
<path d="M36.393 155.409H24.393V167.418H36.393V155.409Z" fill="#1D793E"/>
</g>
<defs>
<clipPath id="clip0_3_148">
<rect width="192" height="204" fill="white" transform="translate(0.393005 0.5)"/>
</clipPath>
</defs>
</svg>
