<svg fill="none" xmlns="http://www.w3.org/2000/svg" viewBox="-0.03 -0.03 71.05 83.3">
<g clip-path="url(#clip0_306_6068)">
<path d="M51.634 38.4233L51.634 12.8047L45.1756 12.8047L45.1756 19.2135L38.7229 19.2135L38.7229 25.6168L32.2701 25.6168L32.2701 19.2135L25.8173 19.2135L25.8173 12.8047L19.3646 12.8047L19.3646 38.4233L12.9062 38.4233L12.9062 44.8266L32.2701 44.8266L32.2701 38.4233L25.8173 38.4233L25.8173 32.0201L32.2701 32.0201L32.2701 38.4233L38.7229 38.4233L38.7229 32.0201L45.1756 32.0201L45.1756 38.4233L38.7229 38.4233L38.7229 44.8266L58.0867 44.8266L58.0867 38.4233L51.634 38.4233Z" fill="#46BE00"/>
<path d="M58.0864 57.6406L6.45312 57.6406L6.45312 64.0439L64.5391 64.0439L64.5391 57.6406L58.0864 57.6406Z" fill="#A57355"/>
<path d="M64.5388 -7.31898e-09L0 0L-7.68408e-09 57.6406L70.9916 57.6406L70.9916 -8.05075e-09L64.5388 -7.31898e-09ZM64.5388 12.8066L64.5388 51.2318L6.45277 51.2318L6.45277 6.40329L64.5388 6.40329L64.5388 12.8066Z" fill="#E1B496"/>
<path d="M58.086 64.043L0 64.043L-2.56087e-09 83.2528L70.9916 83.2528L70.9916 64.043L58.086 64.043ZM32.2694 76.8495L6.45277 76.8495L6.45277 70.4463L32.2694 70.4463L32.2694 76.8495ZM64.5388 76.8495L58.086 76.8495L58.086 70.4463L64.5388 70.4463L64.5388 76.8495Z" fill="#E1B496"/>
<path d="M58.0864 6.40234L6.45312 6.40234L6.45312 51.2309L64.5391 51.2309L64.5391 6.40234L58.0864 6.40234ZM58.0864 44.8276L38.7225 44.8276L38.7225 38.4243L32.2697 38.4243L32.2697 44.8276L12.9059 44.8276L12.9059 38.4243L19.3587 38.4243L19.3587 12.8056L25.8114 12.8056L25.8114 19.2089L32.2642 19.2089L32.2642 25.6122L38.717 25.6122L38.717 19.2089L45.1697 19.2089L45.1697 12.8056L51.6225 12.8056L51.6225 38.4243L58.0753 38.4243L58.0753 44.8276L58.0864 44.8276Z" fill="#1E1E1E"/>
<path d="M64.5387 70.4453L58.0859 70.4453L58.0859 76.8486L64.5387 76.8486L64.5387 70.4453Z" fill="#1E1E1E"/>
<path d="M19.3642 70.4453L6.45312 70.4453L6.45312 76.8486L32.2698 76.8486L32.2698 70.4453L19.3642 70.4453Z" fill="#1E1E1E"/>
<path d="M32.2692 32.0234L25.8164 32.0234L25.8164 38.4267L32.2692 38.4267L32.2692 32.0234Z" fill="#1E1E1E"/>
<path d="M45.1754 32.0234L38.7227 32.0234L38.7227 38.4267L45.1754 38.4267L45.1754 32.0234Z" fill="#1E1E1E"/>
</g>
<defs>
<clipPath id="clip0_306_6068">
<rect width="70.9916" height="83.2537" fill="white"/>
</clipPath>
</defs>
</svg>