<svg width="160" height="160" viewBox="0 0 160 160" fill="none" xmlns="http://www.w3.org/2000/svg">
<path d="M103.997 103.997V72H96.0009V79.9962H87.9982V87.9987H80.0018V79.9962H71.9991V72H63.9964V103.997H56V112H80.0018V103.997H71.9991V96.0012H80.0018V103.997H87.9982V96.0012H96.0009V103.997H87.9982V112H112V103.997H103.997Z" fill="#202020"/>
<rect x="40" y="72" width="8" height="8" fill="#0E5327"/>
<rect x="32" y="80" width="8" height="8" fill="#0E5327"/>
<rect x="72.0001" y="135.953" width="8.04748" height="8.00001" transform="rotate(90 72.0001 135.953)" fill="#0E5327"/>
<rect x="72.0001" y="127.905" width="8.04748" height="8.00001" transform="rotate(90 72.0001 127.905)" fill="#149E2F"/>
<rect x="72" y="119.905" width="8" height="8" transform="rotate(90 72 119.905)" fill="#9FDA44"/>
<rect x="72" y="112" width="8" height="8" transform="rotate(90 72 112)" fill="#9FDA44"/>
<rect x="104" y="127.905" width="8.04748" height="8.00001" transform="rotate(90 104 127.905)" fill="#149E2F"/>
<rect x="104" y="135.953" width="8.04748" height="8.00001" transform="rotate(90 104 135.953)" fill="#0E5327"/>
<rect x="104" y="119.905" width="8" height="8" transform="rotate(90 104 119.905)" fill="#9BDB47"/>
<rect x="120" y="127.905" width="8.04748" height="8.00001" transform="rotate(90 120 127.905)" fill="#1D793E"/>
<rect x="104" y="112" width="8" height="8" transform="rotate(90 104 112)" fill="#9BDB47"/>
<rect x="64" y="127.905" width="8.04748" height="8.00001" transform="rotate(90 64 127.905)" fill="#149E2F"/>
<rect x="120" y="119.858" width="8.04748" height="8.00001" transform="rotate(90 120 119.858)" fill="#119F2E"/>
<rect x="120" y="135.953" width="8.04748" height="8.00001" transform="rotate(90 120 135.953)" fill="#0E5327"/>
<rect x="56" y="127.905" width="8.04748" height="8.00001" transform="rotate(90 56 127.905)" fill="#1D793E"/>
<rect x="56" y="104" width="8" height="8" transform="rotate(90 56 104)" fill="#1D793E"/>
<rect x="48" y="96" width="8" height="8" transform="rotate(90 48 96)" fill="#1D793E"/>
<rect x="80" y="96" width="8" height="8" transform="rotate(90 80 96)" fill="#1D793E"/>
<rect x="88" y="104" width="8" height="8" transform="rotate(90 88 104)" fill="#1D793E"/>
<rect x="96" y="96" width="8" height="8" transform="rotate(90 96 96)" fill="#1D793E"/>
<rect x="48" y="80" width="8" height="8" transform="rotate(90 48 80)" fill="#1D793E"/>
<rect x="120" y="112" width="8" height="8" transform="rotate(90 120 112)" fill="#58C138"/>
<rect x="128" y="104" width="8" height="8" transform="rotate(90 128 104)" fill="#58C138"/>
<rect x="64" y="119.905" width="8" height="8" transform="rotate(90 64 119.905)" fill="#58C138"/>
<rect x="96.0001" y="127.905" width="8.04748" height="8.00001" transform="rotate(90 96.0001 127.905)" fill="#149E2F"/>
<rect x="64" y="135.953" width="8.04748" height="8.00001" transform="rotate(90 64 135.953)" fill="#0E5327"/>
<rect x="80.0001" y="127.905" width="8.04748" height="8.00001" transform="rotate(90 80.0001 127.905)" fill="#149E2F"/>
<rect x="56" y="119.905" width="8" height="8" transform="rotate(90 56 119.905)" fill="#119F2E"/>
<rect x="48" y="104" width="8" height="8" transform="rotate(90 48 104)" fill="#119F2E"/>
<rect x="64" y="112" width="8" height="8" transform="rotate(90 64 112)" fill="#9BDB47"/>
<rect x="88.0001" y="127.905" width="8.04748" height="8.00001" transform="rotate(90 88.0001 127.905)" fill="#149E2F"/>
<rect x="96" y="119.905" width="8" height="8" transform="rotate(90 96 119.905)" fill="#9BDB47"/>
<rect x="56" y="135.953" width="8.04748" height="8.00001" transform="rotate(90 56 135.953)" fill="#0E5327"/>
<rect x="112" y="127.905" width="8.04748" height="8.00001" transform="rotate(90 112 127.905)" fill="#149E2F"/>
<rect x="80" y="119.905" width="8" height="8" transform="rotate(90 80 119.905)" fill="#9BDB47"/>
<rect x="56" y="112" width="8" height="8" transform="rotate(90 56 112)" fill="#119F2E"/>
<rect x="88" y="119.905" width="8" height="8" transform="rotate(90 88 119.905)" fill="#9BDB47"/>
<rect x="112" y="119.858" width="8.04748" height="8.00001" transform="rotate(90 112 119.858)" fill="#58C138"/>
<rect x="40" y="88" width="24" height="8" transform="rotate(90 40 88)" fill="#119F2E"/>
<rect x="96.0001" y="135.953" width="8.04748" height="8.00001" transform="rotate(90 96.0001 135.953)" fill="#0E5327"/>
<rect x="96" y="112" width="8" height="8" transform="rotate(90 96 112)" fill="#9BDB47"/>
<rect x="128" y="120" width="8" height="8" transform="rotate(90 128 120)" fill="#1D793E"/>
<rect x="128" y="128" width="8" height="8" transform="rotate(90 128 128)" fill="#0E5327"/>
<rect x="80.0001" y="135.953" width="8.04748" height="8.00001" transform="rotate(90 80.0001 135.953)" fill="#0E5327"/>
<rect x="80" y="112" width="8" height="8" transform="rotate(90 80 112)" fill="#9BDB47"/>
<rect x="88.0001" y="135.953" width="8.04748" height="8.00001" transform="rotate(90 88.0001 135.953)" fill="#0E5327"/>
<rect x="88" y="112" width="8" height="8" transform="rotate(90 88 112)" fill="#9BDB47"/>
<rect x="112" y="135.953" width="8.04748" height="8.00001" transform="rotate(90 112 135.953)" fill="#0E5327"/>
<rect x="112" y="112" width="8" height="8" transform="rotate(90 112 112)" fill="#9BDB47"/>
<rect x="120" y="104" width="8" height="8" transform="rotate(90 120 104)" fill="#9BDB47"/>
<rect x="24" y="88" width="8" height="32" fill="#0E5327"/>
<rect x="128" y="112" width="8" height="8" transform="rotate(90 128 112)" fill="#14A030"/>
<rect x="136" y="112" width="8" height="8" transform="rotate(90 136 112)" fill="#1E7A3D"/>
<rect x="128" y="79.6201" width="8.04748" height="8.00001" transform="rotate(90 128 79.6201)" fill="#1D793E"/>
<rect x="128" y="80" width="8" height="8" transform="rotate(90 128 80)" fill="#1D793E"/>
<rect x="120" y="64" width="8" height="8" transform="rotate(90 120 64)" fill="#1D793E"/>
<rect x="136" y="88" width="24" height="8" transform="rotate(90 136 88)" fill="#149E2E"/>
<rect x="56" y="72" width="24" height="8" transform="rotate(90 56 72)" fill="#58C138"/>
<rect x="112" y="72" width="33" height="8" transform="rotate(90 112 72)" fill="#149E2E"/>
<rect x="64" y="72" width="32" height="8" transform="rotate(90 64 72)" fill="#149E2E"/>
<rect x="128" y="88" width="17" height="8" transform="rotate(90 128 88)" fill="#9BDC44"/>
<rect x="136" y="120" width="8" height="8" transform="rotate(90 136 120)" fill="#0E5327"/>
<rect x="144" y="88" width="32" height="8" transform="rotate(90 144 88)" fill="#0E5327"/>
<rect x="136" y="80" width="8" height="8" transform="rotate(90 136 80)" fill="#0E5327"/>
<rect x="128" y="64" width="16" height="8" transform="rotate(90 128 64)" fill="#0E5327"/>
<rect x="120" y="72" width="8" height="8" transform="rotate(90 120 72)" fill="#0E5327"/>
<rect x="112" y="64" width="8" height="8" transform="rotate(90 112 64)" fill="#0E5327"/>
<rect x="104" y="64" width="8" height="8" transform="rotate(90 104 64)" fill="#1F793E"/>
<rect x="96" y="64" width="8" height="8" transform="rotate(90 96 64)" fill="#9BDC44"/>
<rect x="96" y="72" width="8" height="8" transform="rotate(90 96 72)" fill="#149E2F"/>
<rect x="88" y="64" width="8" height="8" transform="rotate(90 88 64)" fill="#9BDC44"/>
<rect x="88" y="72" width="8" height="8" transform="rotate(90 88 72)" fill="#149E2F"/>
<rect x="88" y="80" width="8" height="8" transform="rotate(90 88 80)" fill="#149E2F"/>
<rect x="80" y="64" width="8" height="8" transform="rotate(90 80 64)" fill="#9BDC44"/>
<rect x="80" y="72" width="8" height="8" transform="rotate(90 80 72)" fill="#149E2F"/>
<rect x="72" y="64" width="8" height="8" transform="rotate(90 72 64)" fill="#9BDC44"/>
<rect x="120" y="56" width="8" height="8" transform="rotate(90 120 56)" fill="#0E5327"/>
<rect x="112" y="48" width="8" height="8" transform="rotate(90 112 48)" fill="#0E5327"/>
<rect x="112" y="40" width="8" height="8" transform="rotate(90 112 40)" fill="#177B3E"/>
<rect x="104" y="32.1425" width="8.04748" height="8.00001" transform="rotate(90 104 32.1425)" fill="#177B3E"/>
<rect x="96" y="24" width="8" height="8" transform="rotate(90 96 24)" fill="#177B3E"/>
<rect x="88" y="16" width="8" height="8" transform="rotate(90 88 16)" fill="#177B3E"/>
<rect x="80" y="8.04749" width="8" height="8" transform="rotate(90 80 8.04749)" fill="#149E2F"/>
<rect x="72" y="8.04749" width="8" height="8" transform="rotate(90 72 8.04749)" fill="#149E2F"/>
<rect x="64" y="8.04749" width="8" height="8" transform="rotate(90 64 8.04749)" fill="#149E2F"/>
<rect x="56" y="8.04749" width="8" height="8" transform="rotate(90 56 8.04749)" fill="#149E2F"/>
<rect x="56" y="16.0475" width="8" height="8" transform="rotate(90 56 16.0475)" fill="#9FDA44"/>
<rect x="48" y="24" width="8" height="8" transform="rotate(90 48 24)" fill="#9FDA44"/>
<rect x="56" y="40" width="8" height="8" transform="rotate(90 56 40)" fill="#5DC139"/>
<rect x="64" y="40" width="8" height="8" transform="rotate(90 64 40)" fill="#177B3E"/>
<rect x="88" y="40" width="8" height="8" transform="rotate(90 88 40)" fill="#177B3E"/>
<rect x="88.0001" y="55.8813" width="8.44986" height="8.00001" transform="rotate(90 88.0001 55.8813)" fill="#149E2E"/>
<rect x="64" y="32" width="8" height="24" transform="rotate(90 64 32)" fill="#58C138"/>
<rect x="88" y="32" width="8" height="24" transform="rotate(90 88 32)" fill="#149E2F"/>
<rect x="64" y="16.0475" width="8" height="8" transform="rotate(90 64 16.0475)" fill="#9FDA44"/>
<rect x="64" y="24" width="8" height="8" transform="rotate(90 64 24)" fill="#9FDA44"/>
<rect x="72" y="16.0475" width="8" height="8" transform="rotate(90 72 16.0475)" fill="#9FDA44"/>
<rect x="80" y="16.0475" width="8" height="8" transform="rotate(90 80 16.0475)" fill="#9FDA44"/>
<rect x="80" y="24" width="8" height="8" transform="rotate(90 80 24)" fill="#58C139"/>
<rect x="88" y="24" width="8" height="8" transform="rotate(90 88 24)" fill="#9FDA44"/>
<rect x="96" y="32" width="8" height="8" transform="rotate(90 96 32)" fill="#9FDA44"/>
<rect x="104" y="40.1899" width="24.1425" height="8.00001" transform="rotate(90 104 40.1899)" fill="#9FDA44"/>
<rect x="96" y="40" width="24" height="8" transform="rotate(90 96 40)" fill="#58C138"/>
<rect x="48" y="16.0475" width="8.04748" height="8.00001" transform="rotate(90 48 16.0475)" fill="#149E2F"/>
<rect x="56" y="24" width="8" height="8" transform="rotate(90 56 24)" fill="#DF3F20"/>
<rect x="32" y="48" width="8.04748" height="8.00001" transform="rotate(90 32 48)" fill="#DF3F20"/>
<rect x="40" y="40" width="8" height="8" transform="rotate(90 40 40)" fill="#DF3F20"/>
<rect x="48" y="40" width="8" height="8" transform="rotate(90 48 40)" fill="#B5202C"/>
<rect x="72" y="24" width="8" height="8" transform="rotate(90 72 24)" fill="#DF3F20"/>
<rect x="40" y="24" width="8" height="8" transform="rotate(90 40 24)" fill="#177B3E"/>
<rect x="40" y="32" width="8" height="8" transform="rotate(90 40 32)" fill="#177B3E"/>
<rect x="32" y="40" width="8" height="8" transform="rotate(90 32 40)" fill="#177B3E"/>
<rect x="24" y="48" width="8.04748" height="8.00001" transform="rotate(90 24 48)" fill="#177B3E"/>
<rect x="32" y="56" width="8.04748" height="8.00001" transform="rotate(90 32 56)" fill="#0E5327"/>
<rect x="40" y="48" width="8" height="8" transform="rotate(90 40 48)" fill="#0E5327"/>
<rect x="48" y="48" width="8" height="8" transform="rotate(90 48 48)" fill="#0E5327"/>
<rect x="56" y="48" width="8" height="8" transform="rotate(90 56 48)" fill="#0E5327"/>
<rect x="56" y="64" width="8" height="8" transform="rotate(90 56 64)" fill="#0E5327"/>
<rect x="64" y="48" width="8" height="8" transform="rotate(90 64 48)" fill="#0E5327"/>
<rect x="64" y="64" width="8" height="8" transform="rotate(90 64 64)" fill="#0E5327"/>
<rect x="120" y="80" width="8" height="8" transform="rotate(90 120 80)" fill="#0E5327"/>
<rect x="120" y="88" width="9" height="8" transform="rotate(90 120 88)" fill="#0E5327"/>
<rect x="40" y="119.858" width="8.00001" height="8.04748" fill="#1D793E"/>
<rect x="40" y="127.905" width="8.00001" height="8.04748" fill="#0E5327"/>
<rect x="120" y="97" width="8" height="8" transform="rotate(90 120 97)" fill="#0E5327"/>
<rect x="56" y="96" width="8" height="8" transform="rotate(90 56 96)" fill="#0E5327"/>
<rect x="48" y="88" width="8" height="8" transform="rotate(90 48 88)" fill="#0E5327"/>
<rect x="72" y="40" width="8" height="8" transform="rotate(90 72 40)" fill="#0E5327"/>
<rect x="80" y="40" width="8" height="8" transform="rotate(90 80 40)" fill="#0E5327"/>
<rect x="88" y="48" width="8" height="8" transform="rotate(90 88 48)" fill="#0E5327"/>
<rect x="80.0001" y="56.2849" width="8.04748" height="8.00001" transform="rotate(90 80.0001 56.2849)" fill="#0E5327"/>
<rect x="72.0001" y="56.2849" width="8.04748" height="8.00001" transform="rotate(90 72.0001 56.2849)" fill="#0E5327"/>
<rect x="112" y="56" width="8" height="8" transform="rotate(90 112 56)" fill="#0E5327"/>
<rect x="32" y="119.858" width="8.00001" height="8.04748" fill="#0E5327"/>
<rect x="40" y="111.81" width="8.00001" height="8.44986" fill="#1D793E"/>
<rect x="32" y="111.81" width="8.00001" height="8.04748" fill="#1D793E"/>
</svg>
