<svg width="160" height="160" viewBox="0 0 160 160" fill="none" xmlns="http://www.w3.org/2000/svg">
<rect x="40" y="32" width="88" height="24" fill="#DFDFDF"/>
<rect x="32" y="56" width="96" height="64" fill="#202020"/>
<rect x="45" y="40" width="8" height="8" fill="#E10500"/>
<rect x="60" y="40" width="8" height="8" fill="#FF8205"/>
<rect x="76" y="40" width="8" height="8" fill="#00A514"/>
<rect x="128" y="32" width="8" height="96" fill="#202020"/>
<rect x="40" y="32" width="8" height="8" fill="#C8C8C8"/>
<rect x="120" y="32" width="8" height="8" fill="#C8C8C8"/>
<rect x="32" y="40" width="8" height="8" fill="#C8C8C8"/>
<rect x="32" y="32" width="8" height="8" fill="#C8C8C8"/>
<rect x="24" y="32" width="8" height="96" fill="#474747"/>
<rect x="128" y="128" width="8" height="96" transform="rotate(90 128 128)" fill="#202020"/>
<rect x="32" y="24" width="96" height="8" fill="#5B6472"/>
<rect x="32" y="48" width="8" height="8" fill="#C8C8C8"/>
<rect x="32" y="120" width="96" height="8" fill="#202020"/>
<path d="M99.1443 96.3342L99.1443 73.1332L93.2836 73.1332L93.2836 78.9372L87.4279 78.9372L87.4279 84.7362L81.5721 84.7362L81.5721 78.9372L75.7164 78.9372L75.7164 73.1332L69.8607 73.1332L69.8607 96.3342L64 96.3342L64 102.133L81.5721 102.133L81.5721 96.3342L75.7164 96.3342L75.7164 90.5352L81.5721 90.5352L81.5721 96.3342L87.4279 96.3342L87.4279 90.5352L93.2836 90.5352L93.2836 96.3342L87.4279 96.3342L87.4279 102.133L105 102.133L105 96.3342L99.1443 96.3342Z" fill="white"/>
<rect x="44" y="72" width="6" height="6" fill="white"/>
<rect x="50" y="78" width="6" height="6" fill="white"/>
<rect x="56" y="84" width="6" height="6" fill="white"/>
<rect x="50" y="90" width="6" height="6" fill="white"/>
<rect x="44" y="96" width="6" height="6" fill="white"/>
</svg>
