<svg width="211" height="196" viewBox="0 0 211 196" fill="none" xmlns="http://www.w3.org/2000/svg">
<g clip-path="url(#clip0_2_186)">
<path d="M196.974 14H14.9741V56H196.974V14Z" fill="#DFDFDF"/>
<path d="M182.974 56H14.9741V182H182.974V56Z" fill="black"/>
<path d="M28.9741 0H14.9741V14H28.9741V0Z" fill="black"/>
<path d="M28.9741 182H14.9741V196H28.9741V182Z" fill="black"/>
<path d="M42.9741 0H28.9741V14H42.9741V0Z" fill="black"/>
<path d="M42.9741 182H28.9741V196H42.9741V182Z" fill="black"/>
<path d="M56.9741 0H42.9741V14H56.9741V0Z" fill="black"/>
<path d="M56.9741 182H42.9741V196H56.9741V182Z" fill="black"/>
<path d="M70.9741 0H56.9741V14H70.9741V0Z" fill="black"/>
<path d="M70.9741 182H56.9741V196H70.9741V182Z" fill="black"/>
<path d="M84.9741 0H70.9741V14H84.9741V0Z" fill="black"/>
<path d="M84.9741 182H70.9741V196H84.9741V182Z" fill="black"/>
<path d="M98.9741 0H84.9741V14H98.9741V0Z" fill="black"/>
<path d="M98.9741 182H84.9741V196H98.9741V182Z" fill="black"/>
<path d="M112.974 0H98.9741V14H112.974V0Z" fill="black"/>
<path d="M112.974 182H98.9741V196H112.974V182Z" fill="black"/>
<path d="M126.974 0H112.974V14H126.974V0Z" fill="black"/>
<path d="M126.974 182H112.974V196H126.974V182Z" fill="black"/>
<path d="M140.974 0H126.974V14H140.974V0Z" fill="black"/>
<path d="M140.974 182H126.974V196H140.974V182Z" fill="black"/>
<path d="M154.974 0H140.974V14H154.974V0Z" fill="black"/>
<path d="M154.974 182H140.974V196H154.974V182Z" fill="black"/>
<path d="M168.974 0H154.974V14H168.974V0Z" fill="black"/>
<path d="M168.974 182H154.974V196H168.974V182Z" fill="black"/>
<path d="M182.974 0H168.974V14H182.974V0Z" fill="black"/>
<path d="M182.974 182H168.974V196H182.974V182Z" fill="black"/>
<path d="M196.974 0H182.974V14H196.974V0Z" fill="black"/>
<path d="M42.9741 28H28.9741V42H42.9741V28Z" fill="#E10500"/>
<path d="M66.3074 28H52.3074V42H66.3074V28Z" fill="#FFD800"/>
<path d="M89.6408 28H75.6408V42H89.6408V28Z" fill="#00A514"/>
<path d="M196.974 182H182.974V196H196.974V182Z" fill="black"/>
<path d="M210.974 14H196.974V28H210.974V14Z" fill="black"/>
<path d="M210.974 28H196.974V42H210.974V28Z" fill="black"/>
<path d="M210.974 42H196.974V56H210.974V42Z" fill="black"/>
<path d="M210.974 56H196.974V70H210.974V56Z" fill="black"/>
<path d="M196.974 56H182.974V70H196.974V56Z" fill="#242424"/>
<path d="M210.974 70H196.974V84H210.974V70Z" fill="black"/>
<path d="M196.974 70H182.974V84H196.974V70Z" fill="#242424"/>
<path d="M210.974 84H196.974V98H210.974V84Z" fill="black"/>
<path d="M196.974 84H182.974V98H196.974V84Z" fill="#242424"/>
<path d="M196.974 182V168H182.974V182H196.974Z" fill="#242424"/>
<path d="M196.974 98H182.974V112H196.974V98Z" fill="#242424"/>
<path d="M210.974 98H196.974V112H210.974V98Z" fill="black"/>
<path d="M196.974 112H182.974V126H196.974V112Z" fill="#242424"/>
<path d="M182.974 182V168H168.974V182H182.974Z" fill="#242424"/>
<path d="M196.974 126H182.974V140H196.974V126Z" fill="#242424"/>
<path d="M210.974 112H196.974V126H210.974V112Z" fill="black"/>
<path d="M196.974 140H182.974V154H196.974V140Z" fill="#242424"/>
<path d="M168.974 182V168H154.974V182H168.974Z" fill="#242424"/>
<path d="M112.974 182V168H98.9741V182H112.974Z" fill="#242424"/>
<path d="M196.974 154H182.974V168H196.974V154Z" fill="#242424"/>
<path d="M154.974 182V168H140.974V182H154.974Z" fill="#242424"/>
<path d="M210.974 126H196.974V140H210.974V126Z" fill="black"/>
<path d="M140.974 182V168H126.974V182H140.974Z" fill="#242424"/>
<path d="M98.9741 182V168H84.9741V182H98.9741Z" fill="#242424"/>
<path d="M126.974 182V168H112.974V182H126.974Z" fill="#242424"/>
<path d="M210.974 140H196.974V154H210.974V140Z" fill="black"/>
<path d="M84.9741 182V168H70.9741V182H84.9741Z" fill="#242424"/>
<path d="M210.974 154H196.974V168H210.974V154Z" fill="black"/>
<path d="M70.9741 182V168H56.9741V182H70.9741Z" fill="#242424"/>
<path d="M210.974 168H196.974V182H210.974V168Z" fill="black"/>
<path d="M14.9741 14H0.974121V28H14.9741V14Z" fill="black"/>
<path d="M14.9741 28H0.974121V42H14.9741V28Z" fill="black"/>
<path d="M14.9741 42H0.974121V56H14.9741V42Z" fill="black"/>
<path d="M14.9741 56H0.974121V70H14.9741V56Z" fill="black"/>
<path d="M14.9741 70H0.974121V84H14.9741V70Z" fill="black"/>
<path d="M14.9741 84H0.974121V98H14.9741V84Z" fill="black"/>
<path d="M14.9741 98H0.974121V112H14.9741V98Z" fill="black"/>
<path d="M14.9741 112H0.974121V126H14.9741V112Z" fill="black"/>
<path d="M14.9741 126H0.974121V140H14.9741V126Z" fill="black"/>
<path d="M42.9741 14H28.9741V28H42.9741V14Z" fill="#C8C8C8"/>
<path d="M28.9741 14H14.9741V28H28.9741V14Z" fill="#C8C8C8"/>
<path d="M14.9741 140H0.974121V154H14.9741V140Z" fill="black"/>
<path d="M28.9741 28H14.9741V42H28.9741V28Z" fill="#C8C8C8"/>
<path d="M14.9741 154H0.974121V168H14.9741V154Z" fill="black"/>
<path d="M28.9741 42H14.9741V56H28.9741V42Z" fill="#C8C8C8"/>
<path d="M14.9741 168H0.974121V182H14.9741V168Z" fill="black"/>
<path d="M28.9741 168H14.9741V182H28.9741V168Z" fill="#242424"/>
<path d="M42.9741 168H28.9741V182H42.9741V168Z" fill="#242424"/>
<path d="M56.9741 168H42.9741V182H56.9741V168Z" fill="#242424"/>
<path d="M109.994 102.131V71.9831H102.34V79.5249H94.6918V87.0602H87.0436V79.5249H79.3954V71.9831H71.7474V102.131H64.0927V109.666H87.0436V102.131H79.3954V94.5957H87.0436V102.131H94.6918V94.5957H102.34V102.131H94.6918V109.666H117.643V102.131H109.994Z" fill="white"/>
<path d="M46.2408 70H38.3074V77.9333H46.2408V70Z" fill="white"/>
<path d="M54.175 77.9336H46.2417V85.8669H54.175V77.9336Z" fill="white"/>
<path d="M62.1093 85.8667H54.176V93.8H62.1093V85.8667Z" fill="white"/>
<path d="M54.175 93.8002H46.2417V101.734H54.175V93.8002Z" fill="white"/>
<path d="M46.2408 101.733H38.3074V109.666H46.2408V101.733Z" fill="white"/>
</g>
<defs>
<clipPath id="clip0_2_186">
<rect width="210" height="196" fill="white" transform="translate(0.974121)"/>
</clipPath>
</defs>
</svg>
