<svg width="160" height="160" viewBox="0 0 160 160" fill="none" xmlns="http://www.w3.org/2000/svg">
<rect x="24" y="36" width="112" height="80" fill="#0E5327"/>
<rect x="24" y="36" width="112" height="80" fill="#166C35"/>
<rect x="136" y="36" width="8" height="80" fill="#66331A"/>
<rect x="16" y="36" width="8" height="88" fill="#B36843"/>
<rect x="144" y="116" width="8.00001" height="120" transform="rotate(90 144 116)" fill="#66331A"/>
<rect x="16" y="28" width="128" height="8" fill="#B36843"/>
<rect x="64" y="20" width="32" height="8" fill="#9E481E"/>
<rect x="48" y="124" width="64" height="8" fill="#9E481E"/>
<rect x="24" y="108" width="112" height="8" fill="#0E5327"/>
<rect x="136" y="36" width="80" height="8" transform="rotate(90 136 36)" fill="#0E5327"/>
<rect x="32" y="44" width="64" height="8" transform="rotate(90 32 44)" fill="#1D793E"/>
<rect width="8" height="104" transform="matrix(-4.37114e-08 1 1 4.37114e-08 24 36)" fill="#1D793E"/>
<rect width="8" height="104" transform="matrix(-4.37114e-08 1 1 4.37114e-08 24 36)" fill="#1D793E"/>
<path d="M111.862 91.8507L111.862 63.2903L104.718 63.2903L104.718 70.435L97.5797 70.435L97.5797 77.5736L90.4417 77.5736L90.4417 70.435L83.3037 70.435L83.3037 63.2903L76.1657 63.2903L76.1657 91.8507L69.0215 91.8507L69.0215 98.9893L90.4417 98.9893L90.4417 91.8507L83.3037 91.8507L83.3037 84.7122L90.4417 84.7122L90.4417 91.8507L97.5797 91.8507L97.5797 84.7122L104.718 84.7122L104.718 91.8507L97.5797 91.8507L97.5797 98.9893L119 98.9893L119 91.8507L111.862 91.8507Z" fill="white"/>
<rect x="43.1399" y="84.7097" width="7.13978" height="7.13978" fill="white"/>
<rect x="43.1399" y="77.5699" width="7.13978" height="7.13978" fill="white"/>
<rect x="36" y="70.4301" width="7.13978" height="7.13978" fill="white"/>
<rect x="50.2795" y="91.8495" width="7.13978" height="7.13978" fill="white"/>
<rect x="57.4194" y="56.1506" width="7.13978" height="35.6989" fill="white"/>
<rect width="47" height="7" transform="matrix(1 0 0 -1 65 56)" fill="white"/>
<rect x="40" y="108" width="24" height="8" fill="#FFD800"/>
</svg>
