<svg fill="none" xmlns="http://www.w3.org/2000/svg" viewBox="0 0 87.9 97.03">
<rect x="12.5566" y="37.6703" width="4.18558" height="4.18558" fill="#FF8205"/>
<rect x="12.5566" y="41.8559" width="4.18558" height="4.18558" fill="#FF8205"/>
<rect x="12.5566" y="46.0416" width="4.18558" height="4.18558" fill="#FF8205"/>
<rect x="16.7441" y="37.6703" width="4.18558" height="4.18558" fill="#FF8205"/>
<rect x="16.7441" y="41.8559" width="4.18558" height="4.18558" fill="#FF8205"/>
<rect x="16.7441" y="46.0416" width="4.18558" height="4.18558" fill="#FF8205"/>
<rect x="20.9297" y="37.6703" width="4.18558" height="4.18558" fill="#FF8205"/>
<rect x="20.9297" y="41.8559" width="4.18558" height="4.18558" fill="#FF8205"/>
<rect x="20.9297" y="46.0416" width="4.18558" height="4.18558" fill="#FF8205"/>
<rect x="12.5566" y="25.1138" width="4.18558" height="4.18558" fill="#FF8205"/>
<rect x="12.5566" y="29.2994" width="4.18558" height="4.18558" fill="#FF8205"/>
<rect x="12.5566" y="33.485" width="4.18558" height="4.18558" fill="#FF8205"/>
<rect x="16.7441" y="25.1138" width="4.18558" height="4.18558" fill="#FF8205"/>
<rect x="16.7441" y="29.2994" width="4.18558" height="4.18558" fill="#FF8205"/>
<rect x="16.7441" y="33.485" width="4.18558" height="4.18558" fill="#FF8205"/>
<rect x="20.9297" y="25.1138" width="4.18558" height="4.18558" fill="#FF8205"/>
<rect x="20.9297" y="29.2994" width="4.18558" height="4.18558" fill="#FF8205"/>
<rect x="20.9297" y="33.485" width="4.18558" height="4.18558" fill="#FF8205"/>
<rect x="25.1152" y="25.1138" width="4.18558" height="4.18558" fill="#FF8205"/>
<rect x="25.1152" y="29.2994" width="4.18558" height="4.18558" fill="#FF8205"/>
<rect x="25.1152" y="33.485" width="4.18558" height="4.18558" fill="#FF8205"/>
<rect x="29.3008" y="25.1138" width="4.18558" height="4.18558" fill="#FF8205"/>
<rect x="29.3008" y="29.2994" width="4.18558" height="4.18558" fill="#FF8205"/>
<rect x="29.3008" y="33.485" width="4.18558" height="4.18558" fill="#FF8205"/>
<rect x="33.4863" y="25.1138" width="4.18558" height="4.18558" fill="#FF8205"/>
<rect x="33.4863" y="29.2994" width="4.18558" height="4.18558" fill="#FF8205"/>
<rect x="33.4863" y="33.485" width="4.18558" height="4.18558" fill="#FF8205"/>
<rect x="12.5566" y="12.5565" width="4.18558" height="4.18558" fill="#FF8205"/>
<rect x="12.5566" y="16.7422" width="4.18558" height="4.18558" fill="#FF8205"/>
<rect x="12.5566" y="20.9278" width="4.18558" height="4.18558" fill="#FF8205"/>
<rect x="16.7441" y="12.5565" width="4.18558" height="4.18558" fill="#FF8205"/>
<rect x="16.7441" y="16.7422" width="4.18558" height="4.18558" fill="#FF8205"/>
<rect x="16.7441" y="20.9278" width="4.18558" height="4.18558" fill="#FF8205"/>
<rect x="20.9297" y="12.5565" width="4.18558" height="4.18558" fill="#FF8205"/>
<rect x="20.9297" y="16.7422" width="4.18558" height="4.18558" fill="#FF8205"/>
<rect x="20.9297" y="20.9278" width="4.18558" height="4.18558" fill="#FF8205"/>
<rect x="12.5566" width="4.18558" height="4.18558" fill="#FF8205"/>
<rect x="12.5566" y="4.18561" width="4.18558" height="4.18558" fill="#FF8205"/>
<rect x="12.5566" y="8.37128" width="4.18558" height="4.18558" fill="#FF8205"/>
<rect x="16.7441" width="4.18558" height="4.18558" fill="#FF8205"/>
<rect x="16.7441" y="4.18561" width="4.18558" height="4.18558" fill="#FF8205"/>
<rect x="16.7441" y="8.37128" width="4.18558" height="4.18558" fill="#FF8205"/>
<rect x="20.9297" width="4.18558" height="4.18558" fill="#FF8205"/>
<rect x="20.9297" y="4.18561" width="4.18558" height="4.18558" fill="#FF8205"/>
<rect x="20.9297" y="8.37128" width="4.18558" height="4.18558" fill="#FF8205"/>
<rect x="25.1152" y="12.5565" width="4.18558" height="4.18558" fill="#FF8205"/>
<rect x="25.1152" y="16.7422" width="4.18558" height="4.18558" fill="#FF8205"/>
<rect x="25.1152" y="20.9278" width="4.18558" height="4.18558" fill="#FF8205"/>
<rect x="29.3008" y="12.5565" width="4.18558" height="4.18558" fill="#FF8205"/>
<rect x="29.3008" y="16.7422" width="4.18558" height="4.18558" fill="#FF8205"/>
<rect x="29.3008" y="20.9278" width="4.18558" height="4.18558" fill="#FF8205"/>
<rect x="33.4863" y="12.5565" width="4.18558" height="4.18558" fill="#FF8205"/>
<rect x="33.4863" y="16.7422" width="4.18558" height="4.18558" fill="#FF8205"/>
<rect x="33.4863" y="20.9278" width="4.18558" height="4.18558" fill="#FF8205"/>
<rect width="4.18558" height="4.18558" transform="matrix(-1 0 0 1 75.3418 12.5565)" fill="#FF8205"/>
<rect width="4.18558" height="4.18558" transform="matrix(-1 0 0 1 75.3418 16.7422)" fill="#FF8205"/>
<rect width="4.18558" height="4.18558" transform="matrix(-1 0 0 1 75.3418 20.9278)" fill="#FF8205"/>
<rect width="4.18558" height="4.18558" transform="matrix(-1 0 0 1 71.1543 12.5565)" fill="#FF8205"/>
<rect width="4.18558" height="4.18558" transform="matrix(-1 0 0 1 71.1543 16.7422)" fill="#FF8205"/>
<rect width="4.18558" height="4.18558" transform="matrix(-1 0 0 1 71.1543 20.9278)" fill="#FF8205"/>
<rect width="4.18558" height="4.18558" transform="matrix(-1 0 0 1 66.9688 12.5565)" fill="#FF8205"/>
<rect width="4.18558" height="4.18558" transform="matrix(-1 0 0 1 66.9688 16.7422)" fill="#FF8205"/>
<rect width="4.18558" height="4.18558" transform="matrix(-1 0 0 1 66.9688 20.9278)" fill="#FF8205"/>
<rect width="4.18558" height="4.18558" transform="matrix(-1 0 0 1 75.3418 0)" fill="#FF8205"/>
<rect width="4.18558" height="4.18558" transform="matrix(-1 0 0 1 75.3418 4.18561)" fill="#FF8205"/>
<rect width="4.18558" height="4.18558" transform="matrix(-1 0 0 1 75.3418 8.37128)" fill="#FF8205"/>
<rect width="4.18558" height="4.18558" transform="matrix(-1 0 0 1 71.1543 0)" fill="#FF8205"/>
<rect width="4.18558" height="4.18558" transform="matrix(-1 0 0 1 71.1543 4.18561)" fill="#FF8205"/>
<rect width="4.18558" height="4.18558" transform="matrix(-1 0 0 1 71.1543 8.37128)" fill="#FF8205"/>
<rect width="4.18558" height="4.18558" transform="matrix(-1 0 0 1 66.9688 0)" fill="#FF8205"/>
<rect width="4.18558" height="4.18558" transform="matrix(-1 0 0 1 66.9688 4.18561)" fill="#FF8205"/>
<rect width="4.18558" height="4.18558" transform="matrix(-1 0 0 1 66.9688 8.37128)" fill="#FF8205"/>
<rect width="4.18558" height="4.18558" transform="matrix(-1 0 0 1 62.7832 12.5565)" fill="#FF8205"/>
<rect width="4.18558" height="4.18558" transform="matrix(-1 0 0 1 62.7832 16.7422)" fill="#FF8205"/>
<rect width="4.18558" height="4.18558" transform="matrix(-1 0 0 1 62.7832 20.9278)" fill="#FF8205"/>
<rect width="4.18558" height="4.18558" transform="matrix(-1 0 0 1 58.5977 12.5565)" fill="#FF8205"/>
<rect width="4.18558" height="4.18558" transform="matrix(-1 0 0 1 58.5977 16.7422)" fill="#FF8205"/>
<rect width="4.18558" height="4.18558" transform="matrix(-1 0 0 1 58.5977 20.9278)" fill="#FF8205"/>
<rect width="4.18558" height="4.18558" transform="matrix(-1 0 0 1 54.4121 12.5565)" fill="#FF8205"/>
<rect width="4.18558" height="4.18558" transform="matrix(-1 0 0 1 54.4121 16.7422)" fill="#FF8205"/>
<rect width="4.18558" height="4.18558" transform="matrix(-1 0 0 1 54.4121 20.9278)" fill="#FF8205"/>
<rect x="37.6719" y="25.1138" width="4.18558" height="4.18558" fill="#FF8205"/>
<rect x="37.6719" y="29.2994" width="4.18558" height="4.18558" fill="#FF8205"/>
<rect x="37.6719" y="33.485" width="4.18558" height="4.18558" fill="#FF8205"/>
<rect x="41.8574" y="25.1138" width="4.18558" height="4.18558" fill="#FF8205"/>
<rect x="41.8574" y="29.2994" width="4.18558" height="4.18558" fill="#FF8205"/>
<rect x="41.8574" y="33.485" width="4.18558" height="4.18558" fill="#FF8205"/>
<rect x="46.041" y="25.1138" width="4.18558" height="4.18558" fill="#FF8205"/>
<rect x="46.041" y="29.2994" width="4.18558" height="4.18558" fill="#FF8205"/>
<rect x="46.041" y="33.485" width="4.18558" height="4.18558" fill="#FF8205"/>
<rect x="37.6719" y="37.6703" width="4.18558" height="4.18558" fill="#FF8205"/>
<rect x="37.6719" y="41.8559" width="4.18558" height="4.18558" fill="#FF8205"/>
<rect x="37.6719" y="46.0416" width="4.18558" height="4.18558" fill="#FF8205"/>
<rect x="41.8574" y="37.6703" width="4.18558" height="4.18558" fill="#FF8205"/>
<rect x="41.8574" y="41.8559" width="4.18558" height="4.18558" fill="#FF8205"/>
<rect x="41.8574" y="46.0416" width="4.18558" height="4.18558" fill="#FF8205"/>
<rect x="46.041" y="37.6703" width="4.18558" height="4.18558" fill="#FF8205"/>
<rect x="46.041" y="41.8559" width="4.18558" height="4.18558" fill="#FF8205"/>
<rect x="46.041" y="46.0416" width="4.18558" height="4.18558" fill="#FF8205"/>
<rect x="50.2266" y="25.1138" width="4.18558" height="4.18558" fill="#FF8205"/>
<rect x="50.2266" y="29.2994" width="4.18558" height="4.18558" fill="#FF8205"/>
<rect x="50.2266" y="33.485" width="4.18558" height="4.18558" fill="#FF8205"/>
<rect x="54.4121" y="25.1138" width="4.18558" height="4.18558" fill="#FF8205"/>
<rect x="54.4121" y="29.2994" width="4.18558" height="4.18558" fill="#FF8205"/>
<rect x="54.4121" y="33.485" width="4.18558" height="4.18558" fill="#FF8205"/>
<rect x="58.5977" y="25.1138" width="4.18558" height="4.18558" fill="#FF8205"/>
<rect x="58.5977" y="29.2994" width="4.18558" height="4.18558" fill="#FF8205"/>
<rect x="58.5977" y="33.485" width="4.18558" height="4.18558" fill="#FF8205"/>
<rect x="62.7832" y="25.1138" width="4.18558" height="4.18558" fill="#FF8205"/>
<rect x="62.7832" y="29.2994" width="4.18558" height="4.18558" fill="#FF8205"/>
<rect x="62.7832" y="33.485" width="4.18558" height="4.18558" fill="#FF8205"/>
<rect x="66.9688" y="25.1138" width="4.18558" height="4.18558" fill="#FF8205"/>
<rect x="66.9688" y="29.2994" width="4.18558" height="4.18558" fill="#FF8205"/>
<rect x="66.9688" y="33.485" width="4.18558" height="4.18558" fill="#FF8205"/>
<rect x="71.1543" y="25.1138" width="4.18558" height="4.18558" fill="#FF8205"/>
<rect x="71.1543" y="29.2994" width="4.18558" height="4.18558" fill="#FF8205"/>
<rect x="71.1543" y="33.485" width="4.18558" height="4.18558" fill="#FF8205"/>
<rect x="62.7832" y="37.6703" width="4.18558" height="4.18558" fill="#FF8205"/>
<rect x="62.7832" y="41.8559" width="4.18558" height="4.18558" fill="#FF8205"/>
<rect x="62.7832" y="46.0416" width="4.18558" height="4.18558" fill="#FF8205"/>
<rect x="66.9688" y="37.6703" width="4.18558" height="4.18558" fill="#FF8205"/>
<rect x="66.9688" y="41.8559" width="4.18558" height="4.18558" fill="#FF8205"/>
<rect x="66.9688" y="46.0416" width="4.18558" height="4.18558" fill="#FF8205"/>
<rect x="71.1543" y="37.6703" width="4.18558" height="4.18558" fill="#FF8205"/>
<rect x="71.1543" y="41.8559" width="4.18558" height="4.18558" fill="#FF8205"/>
<rect x="71.1543" y="46.0416" width="4.18558" height="4.18558" fill="#FF8205"/>
<rect y="50.227" width="4.18558" height="4.18558" fill="#FF8205"/>
<rect y="54.4127" width="4.18558" height="4.18558" fill="#FF8205"/>
<rect y="58.5983" width="4.18558" height="4.18558" fill="#FF8205"/>
<rect x="12.5566" y="50.227" width="4.18558" height="4.18558" fill="#FF8205"/>
<rect x="12.5566" y="54.4127" width="4.18558" height="4.18558" fill="#FF8205"/>
<rect x="12.5566" y="58.5983" width="4.18558" height="4.18558" fill="#FF8205"/>
<rect x="4.18555" y="50.227" width="4.18558" height="4.18558" fill="#FF8205"/>
<rect x="8.37109" y="50.227" width="4.18558" height="4.18558" fill="#FF8205"/>
<rect x="4.18555" y="54.4127" width="4.18558" height="4.18558" fill="#FF8205"/>
<rect x="8.37109" y="54.4127" width="4.18558" height="4.18558" fill="#FF8205"/>
<rect x="25.1152" y="50.227" width="4.18558" height="4.18558" fill="#FF8205"/>
<rect x="16.7441" y="50.227" width="4.18558" height="4.18558" fill="#FF8205"/>
<rect x="25.1152" y="54.4127" width="4.18558" height="4.18558" fill="#FF8205"/>
<rect x="25.1152" y="58.5983" width="4.18558" height="4.18558" fill="#FF8205"/>
<rect x="16.7441" y="54.4127" width="4.18558" height="4.18558" fill="#FF8205"/>
<rect x="16.7441" y="58.5983" width="4.18558" height="4.18558" fill="#FF8205"/>
<rect x="29.3008" y="50.227" width="4.18558" height="4.18558" fill="#FF8205"/>
<rect x="20.9297" y="50.227" width="4.18558" height="4.18558" fill="#FF8205"/>
<rect x="29.3008" y="54.4127" width="4.18558" height="4.18558" fill="#FF8205"/>
<rect x="29.3008" y="58.5983" width="4.18558" height="4.18558" fill="#FF8205"/>
<rect x="20.9297" y="54.4127" width="4.18558" height="4.18558" fill="#FF8205"/>
<rect x="20.9297" y="58.5983" width="4.18558" height="4.18558" fill="#FF8205"/>
<rect x="33.4863" y="50.227" width="4.18558" height="4.18558" fill="#FF8205"/>
<rect x="33.4863" y="54.4127" width="4.18558" height="4.18558" fill="#FF8205"/>
<rect x="33.4863" y="58.5983" width="4.18558" height="4.18558" fill="#FF8205"/>
<rect x="50.2266" y="50.2269" width="4.18558" height="4.18558" fill="#FF8205"/>
<rect x="50.2266" y="54.4126" width="4.18558" height="4.18558" fill="#FF8205"/>
<rect x="50.2266" y="58.5982" width="4.18558" height="4.18558" fill="#FF8205"/>
<rect x="54.4121" y="50.2269" width="4.18558" height="4.18558" fill="#FF8205"/>
<rect x="54.4121" y="54.4126" width="4.18558" height="4.18558" fill="#FF8205"/>
<rect x="54.4121" y="58.5982" width="4.18558" height="4.18558" fill="#FF8205"/>
<rect x="58.5977" y="50.2269" width="4.18558" height="4.18558" fill="#FF8205"/>
<rect x="58.5977" y="54.4126" width="4.18558" height="4.18558" fill="#FF8205"/>
<rect x="58.5977" y="58.5982" width="4.18558" height="4.18558" fill="#FF8205"/>
<rect x="62.7832" y="50.2269" width="4.18558" height="4.18558" fill="#FF8205"/>
<rect x="62.7832" y="54.4125" width="4.18558" height="4.18558" fill="#FF8205"/>
<rect x="62.7832" y="58.5981" width="4.18558" height="4.18558" fill="#FF8205"/>
<rect x="66.9688" y="50.2269" width="4.18558" height="4.18558" fill="#FF8205"/>
<rect x="66.9688" y="54.4125" width="4.18558" height="4.18558" fill="#FF8205"/>
<rect x="66.9688" y="58.5981" width="4.18558" height="4.18558" fill="#FF8205"/>
<rect x="71.1543" y="50.2269" width="4.18558" height="4.18558" fill="#FF8205"/>
<rect x="71.1543" y="54.4125" width="4.18558" height="4.18558" fill="#FF8205"/>
<rect x="71.1543" y="58.5981" width="4.18558" height="4.18558" fill="#FF8205"/>
<rect x="75.3418" y="50.2269" width="4.18558" height="4.18558" fill="#FF8205"/>
<rect x="75.3418" y="54.4126" width="4.18558" height="4.18558" fill="#FF8205"/>
<rect x="75.3418" y="58.5982" width="4.18558" height="4.18558" fill="#FF8205"/>
<rect x="79.5273" y="50.2269" width="4.18558" height="4.18558" fill="#FF8205"/>
<rect x="79.5273" y="54.4126" width="4.18558" height="4.18558" fill="#FF8205"/>
<rect x="79.5273" y="58.5982" width="4.18558" height="4.18558" fill="#FF8205"/>
<rect x="83.7129" y="50.2269" width="4.18558" height="4.18558" fill="#FF8205"/>
<rect x="83.7129" y="54.4126" width="4.18558" height="4.18558" fill="#FF8205"/>
<rect x="83.7129" y="58.5982" width="4.18558" height="4.18558" fill="#FF8205"/>
<rect x="4.18555" y="58.5983" width="4.18558" height="4.18558" fill="#FF8205"/>
<rect x="8.37109" y="58.5983" width="4.18558" height="4.18558" fill="#FF8205"/>
<rect x="16.7441" y="58.5983" width="4.18558" height="4.18558" fill="#FF8205"/>
<rect x="16.7441" y="62.7836" width="4.18558" height="4.18558" fill="#E10500"/>
<rect x="13.4492" y="56.3481" width="4.18558" height="4.18558" transform="rotate(-9.04686 13.4492 56.3481)" fill="black"/>
<rect x="16.2676" y="47.423" width="4.18558" height="4.18558" transform="rotate(-9.04686 16.2676 47.423)" fill="black"/>
<rect x="21.0586" y="50.8983" width="4.18558" height="4.18558" transform="rotate(-9.04686 21.0586 50.8983)" fill="black"/>
<rect x="21.7168" y="55.032" width="4.18558" height="4.18558" transform="rotate(-9.04686 21.7168 55.032)" fill="black"/>
<rect x="12.791" y="52.2147" width="4.18558" height="4.18558" transform="rotate(-9.04686 12.791 52.2147)" fill="black"/>
<rect width="4.18558" height="4.18558" transform="matrix(-0.98756 0.157242 0.157242 0.98756 45.0156 68.2749)" fill="black"/>
<rect width="4.18558" height="4.18558" transform="matrix(-0.98756 0.157242 0.157242 0.98756 32.6172 70.2495)" fill="black"/>
<rect width="4.18558" height="4.18558" transform="matrix(-0.98756 0.157242 0.157242 0.98756 20.2148 72.2241)" fill="black"/>
<rect width="4.18558" height="4.18558" transform="matrix(-0.98756 0.157242 0.157242 0.98756 40.8828 68.9334)" fill="black"/>
<rect width="4.18558" height="4.18558" transform="matrix(-0.98756 0.157242 0.157242 0.98756 28.4824 70.9076)" fill="black"/>
<rect width="4.18558" height="4.18558" transform="matrix(-0.98756 0.157242 0.157242 0.98756 16.082 72.8822)" fill="black"/>
<rect width="4.18558" height="4.18558" transform="matrix(-0.98756 0.157242 0.157242 0.98756 36.75 69.5915)" fill="black"/>
<rect width="4.18558" height="4.18558" transform="matrix(-0.98756 0.157242 0.157242 0.98756 24.3496 71.566)" fill="black"/>
<rect width="4.18558" height="4.18558" transform="matrix(-0.98756 0.157242 0.157242 0.98756 11.9492 73.5403)" fill="black"/>
<rect width="4.18558" height="4.18558" transform="matrix(-0.98756 0.157242 0.157242 0.98756 47.834 59.3501)" fill="black"/>
<rect width="4.18558" height="4.18558" transform="matrix(-0.98756 0.157242 0.157242 0.98756 48.4922 63.4835)" fill="black"/>
<rect width="4.18558" height="4.18558" transform="matrix(-0.98756 0.157242 0.157242 0.98756 51.9668 58.6917)" fill="black"/>
<rect width="4.18558" height="4.18558" transform="matrix(-0.98756 0.157242 0.157242 0.98756 53.2832 66.9588)" fill="black"/>
<rect width="4.18558" height="4.18558" transform="matrix(-0.98756 0.157242 0.157242 0.98756 49.1504 67.6169)" fill="black"/>
<rect width="4.18558" height="4.18558" transform="matrix(-0.98756 0.157242 0.157242 0.98756 45.0156 68.2749)" fill="black"/>
<rect width="4.18558" height="4.18558" transform="matrix(-0.98756 0.157242 0.157242 0.98756 56.1016 58.0337)" fill="black"/>
<rect width="4.18558" height="4.18558" transform="matrix(-0.98756 0.157242 0.157242 0.98756 60.8926 61.5089)" fill="black"/>
<rect width="4.18558" height="4.18558" transform="matrix(-0.98756 0.157242 0.157242 0.98756 56.1016 58.0337)" fill="black"/>
<rect width="4.18558" height="4.18558" transform="matrix(-0.98756 0.157242 0.157242 0.98756 57.416 66.3007)" fill="black"/>
<rect x="7.15625" y="70.065" width="4.18558" height="4.18558" transform="rotate(-9.04686 7.15625 70.065)" fill="#E10500"/>
<rect x="11.2891" y="69.407" width="4.18558" height="4.18558" transform="rotate(-9.04686 11.2891 69.407)" fill="#E10500"/>
<rect x="15.4238" y="68.7489" width="4.18558" height="4.18558" transform="rotate(-9.04686 15.4238 68.7489)" fill="#E10500"/>
<rect x="14.1074" y="60.4819" width="4.18558" height="4.18558" transform="rotate(-9.04686 14.1074 60.4819)" fill="#FF8205"/>
<rect x="14.7654" y="64.6153" width="4.18558" height="4.18558" transform="rotate(-9.04686 14.7654 64.6153)" fill="#FF8205"/>
<rect x="17.582" y="55.6902" width="4.18558" height="4.18558" transform="rotate(-9.04686 17.582 55.6902)" fill="#FF8205"/>
<rect x="18.2404" y="59.8239" width="4.18558" height="4.18558" transform="rotate(-9.04686 18.2404 59.8239)" fill="#FF8205"/>
<rect x="18.8984" y="63.9572" width="4.18558" height="4.18558" transform="rotate(-9.04686 18.8984 63.9572)" fill="#FF8205"/>
<rect x="22.373" y="59.1655" width="4.18558" height="4.18558" transform="rotate(-9.04686 22.373 59.1655)" fill="#FF8205"/>
<rect x="23.0312" y="63.2991" width="4.18558" height="4.18558" transform="rotate(-9.04686 23.0312 63.2991)" fill="#FF8205"/>
<rect x="31.2988" y="61.9825" width="4.18558" height="4.18558" transform="rotate(-9.04686 31.2988 61.9825)" fill="#E10500"/>
<rect x="31.959" y="66.1162" width="4.18558" height="4.18558" transform="rotate(-9.04686 31.959 66.1162)" fill="#E10500"/>
<rect x="35.4336" y="61.3244" width="4.18558" height="4.18558" transform="rotate(-9.04686 35.4336 61.3244)" fill="#E10500"/>
<rect x="36.0918" y="65.4578" width="4.18558" height="4.18558" transform="rotate(-9.04686 36.0918 65.4578)" fill="#E10500"/>
<rect x="39.5664" y="60.6663" width="4.18558" height="4.18558" transform="rotate(-9.04686 39.5664 60.6663)" fill="#E10500"/>
<rect x="40.2246" y="64.7997" width="4.18558" height="4.18558" transform="rotate(-9.04686 40.2246 64.7997)" fill="#E10500"/>
<rect x="22.375" y="59.1653" width="4.18558" height="4.18558" transform="rotate(-9.04686 22.375 59.1653)" fill="black"/>
<rect x="14.1074" y="60.4818" width="4.18558" height="4.18558" transform="rotate(-9.04686 14.1074 60.4818)" fill="black"/>
<rect x="10.6331" y="65.2733" width="4.18558" height="4.18558" transform="rotate(-9.04686 10.6331 65.2733)" fill="black"/>
<rect x="7.15625" y="70.065" width="4.18558" height="4.18558" transform="rotate(-9.04686 7.15625 70.065)" fill="black"/>
<rect x="7.81445" y="74.1984" width="4.18558" height="4.18558" transform="rotate(-9.04686 7.81445 74.1984)" fill="black"/>
<rect x="8.47266" y="78.3321" width="4.18558" height="4.18558" transform="rotate(-9.04686 8.47266 78.3321)" fill="black"/>
<rect x="9.13086" y="82.4654" width="4.18558" height="4.18558" transform="rotate(-9.04686 9.13086 82.4654)" fill="black"/>
<rect x="13.9238" y="85.941" width="4.18558" height="4.18558" transform="rotate(-9.04686 13.9238 85.941)" fill="black"/>
<rect x="18.7148" y="89.4163" width="4.18558" height="4.18558" transform="rotate(-9.04686 18.7148 89.4163)" fill="black"/>
<rect x="23.5078" y="92.8915" width="4.18558" height="4.18558" transform="rotate(-9.04686 23.5078 92.8915)" fill="black"/>
<rect x="27.166" y="62.6406" width="4.18558" height="4.18558" transform="rotate(-9.04686 27.166 62.6406)" fill="black"/>
<rect x="31.2988" y="61.9825" width="4.18558" height="4.18558" transform="rotate(-9.04686 31.2988 61.9825)" fill="black"/>
<rect x="35.4336" y="61.3244" width="4.18558" height="4.18558" transform="rotate(-9.04686 35.4336 61.3244)" fill="black"/>
<rect x="39.5664" y="60.6663" width="4.18558" height="4.18558" transform="rotate(-9.04686 39.5664 60.6663)" fill="black"/>
<rect x="44.3574" y="64.1416" width="4.18558" height="4.18558" transform="rotate(-9.04686 44.3574 64.1416)" fill="#FFAF00"/>
<rect x="48.4922" y="63.4835" width="4.18558" height="4.18558" transform="rotate(-9.04686 48.4922 63.4835)" fill="#FFAF00"/>
<rect x="31.959" y="66.1162" width="4.18558" height="4.18558" transform="rotate(-9.04686 31.959 66.1162)" fill="#FFAF00"/>
<rect x="32.6172" y="70.2495" width="4.18558" height="4.18558" transform="rotate(-9.04686 32.6172 70.2495)" fill="#FB7F01"/>
<rect x="33.2754" y="74.3832" width="4.18558" height="4.18558" transform="rotate(-9.04686 33.2754 74.3832)" fill="#FFAF00"/>
<rect x="33.9316" y="78.5166" width="4.18558" height="4.18558" transform="rotate(-9.04686 33.9316 78.5166)" fill="#FB7F01"/>
<rect x="34.5898" y="82.6502" width="4.18558" height="4.18558" transform="rotate(-9.04686 34.5898 82.6502)" fill="#FFAF00"/>
<rect x="36.0918" y="65.4578" width="4.18558" height="4.18558" transform="rotate(-9.04686 36.0918 65.4578)" fill="#FFAF00"/>
<rect x="24.3496" y="71.566" width="4.18558" height="4.18558" transform="rotate(-9.04686 24.3496 71.566)" fill="#FFAF00"/>
<rect x="38.0664" y="77.8585" width="4.18558" height="4.18558" transform="rotate(-9.04686 38.0664 77.8585)" fill="#FFAF00"/>
<rect x="37.4082" y="73.7248" width="4.18558" height="4.18558" transform="rotate(-9.04686 37.4082 73.7248)" fill="#FB7F01"/>
<rect x="38.7246" y="81.9918" width="4.18558" height="4.18558" transform="rotate(-9.04686 38.7246 81.9918)" fill="#FB7F01"/>
<rect x="23.6914" y="67.4323" width="4.18558" height="4.18558" transform="rotate(-9.04686 23.6914 67.4323)" fill="#FFAF00"/>
<rect x="25.666" y="79.833" width="4.18558" height="4.18558" transform="rotate(-9.04686 25.666 79.833)" fill="#FFAF00"/>
<rect x="28.4824" y="70.9076" width="4.18558" height="4.18558" transform="rotate(-9.04686 28.4824 70.9076)" fill="#FFAF00"/>
<rect x="25.0078" y="75.6994" width="4.18558" height="4.18558" transform="rotate(-9.04686 25.0078 75.6994)" fill="#FFAF00"/>
<rect x="26.3242" y="83.9664" width="4.18558" height="4.18558" transform="rotate(-9.04686 26.3242 83.9664)" fill="#FFAF00"/>
<rect x="29.7988" y="79.1747" width="4.18558" height="4.18558" transform="rotate(-9.04686 29.7988 79.1747)" fill="#FFAF00"/>
<rect x="23.0332" y="63.299" width="4.18558" height="4.18558" transform="rotate(-9.04686 23.0332 63.299)" fill="#FFAF00"/>
<rect x="27.8242" y="66.7743" width="4.18558" height="4.18558" transform="rotate(-9.04686 27.8242 66.7743)" fill="#FFAF00"/>
<rect x="29.1406" y="75.0413" width="4.18558" height="4.18558" transform="rotate(-9.04686 29.1406 75.0413)" fill="#FFAF00"/>
<rect x="30.457" y="83.3083" width="4.18558" height="4.18558" transform="rotate(-9.04686 30.457 83.3083)" fill="#FFAF00"/>
<rect x="40.2246" y="64.7997" width="4.18558" height="4.18558" transform="rotate(-9.04686 40.2246 64.7997)" fill="#FFAF00"/>
<rect x="52.627" y="62.8254" width="4.18558" height="4.18558" transform="rotate(-9.04686 52.627 62.8254)" fill="#FB7F01"/>
<rect x="27.6406" y="92.2335" width="4.18558" height="4.18558" transform="rotate(-9.04686 27.6406 92.2335)" fill="black"/>
<rect x="31.7734" y="91.5753" width="4.18558" height="4.18558" transform="rotate(-9.04686 31.7734 91.5753)" fill="black"/>
<rect x="35.9062" y="90.9172" width="4.18558" height="4.18558" transform="rotate(-9.04686 35.9062 90.9172)" fill="black"/>
<rect x="11.2891" y="69.407" width="4.18558" height="4.18558" transform="rotate(-9.04686 11.2891 69.407)" fill="#FB7F01"/>
<rect x="11.9492" y="73.5403" width="4.18558" height="4.18558" transform="rotate(-9.04686 11.9492 73.5403)" fill="#FFAF00"/>
<rect x="12.6074" y="77.674" width="4.18558" height="4.18558" transform="rotate(-9.04686 12.6074 77.674)" fill="#FB7F01"/>
<rect x="13.2656" y="81.8073" width="4.18558" height="4.18558" transform="rotate(-9.04686 13.2656 81.8073)" fill="#FB7F01"/>
<rect x="17.3984" y="81.1492" width="4.18558" height="4.18558" transform="rotate(-9.04686 17.3984 81.1492)" fill="#FFAF00"/>
<rect x="21.5312" y="80.4911" width="4.18558" height="4.18558" transform="rotate(-9.04686 21.5312 80.4911)" fill="#FFAF00"/>
<rect x="22.1895" y="84.6245" width="4.18558" height="4.18558" transform="rotate(-9.04686 22.1895 84.6245)" fill="#FFAF00"/>
<rect x="22.8496" y="88.7582" width="4.18558" height="4.18558" transform="rotate(-9.04686 22.8496 88.7582)" fill="#FB7F01"/>
<rect x="26.9824" y="88.1001" width="4.18558" height="4.18558" transform="rotate(-9.04686 26.9824 88.1001)" fill="#FB7F01"/>
<rect x="31.1152" y="87.4417" width="4.18558" height="4.18558" transform="rotate(-9.04686 31.1152 87.4417)" fill="#FB7F01"/>
<rect x="35.248" y="86.7836" width="4.18558" height="4.18558" transform="rotate(-9.04686 35.248 86.7836)" fill="#FB7F01"/>
<rect x="39.3828" y="86.1255" width="4.18558" height="4.18558" transform="rotate(-9.04686 39.3828 86.1255)" fill="#FFAF00"/>
<rect x="42.8574" y="81.3337" width="4.18558" height="4.18558" transform="rotate(-9.04686 42.8574 81.3337)" fill="black"/>
<rect x="42.1992" y="77.2004" width="4.18558" height="4.18558" transform="rotate(-9.04686 42.1992 77.2004)" fill="black"/>
<rect x="38.0664" y="77.8585" width="4.18558" height="4.18558" transform="rotate(-9.04686 38.0664 77.8585)" fill="black"/>
<rect x="39.3828" y="86.1255" width="4.18558" height="4.18558" transform="rotate(-9.04686 39.3828 86.1255)" fill="black"/>
<rect x="41.541" y="73.0667" width="4.18558" height="4.18558" transform="rotate(-9.04686 41.541 73.0667)" fill="black"/>
<rect x="18.0566" y="85.2826" width="4.18558" height="4.18558" transform="rotate(-9.04686 18.0566 85.2826)" fill="#FB7F01"/>
<rect x="14.7656" y="64.6151" width="4.18558" height="4.18558" transform="rotate(-9.04686 14.7656 64.6151)" fill="#FB7F01"/>
<rect x="18.9004" y="63.9571" width="4.18558" height="4.18558" transform="rotate(-9.04686 18.9004 63.9571)" fill="#FFAF00"/>
<rect x="17.582" y="55.69" width="4.18558" height="4.18558" transform="rotate(-9.04686 17.582 55.69)" fill="#FFAF00"/>
<rect x="16.9238" y="51.5563" width="4.18558" height="4.18558" transform="rotate(-9.04686 16.9238 51.5563)" fill="#FFAF00"/>
<rect x="20.2148" y="72.2241" width="4.18558" height="4.18558" transform="rotate(-9.04686 20.2148 72.2241)" fill="#FFAF00"/>
<rect x="19.5586" y="68.0904" width="4.18558" height="4.18558" transform="rotate(-9.04686 19.5586 68.0904)" fill="#FFAF00"/>
<rect x="20.873" y="76.3575" width="4.18558" height="4.18558" transform="rotate(-9.04686 20.873 76.3575)" fill="#FFAF00"/>
<rect x="16.082" y="72.8822" width="4.18558" height="4.18558" transform="rotate(-9.04686 16.082 72.8822)" fill="#FFAF00"/>
<rect x="18.2402" y="59.8234" width="4.18558" height="4.18558" transform="rotate(-9.04686 18.2402 59.8234)" fill="#FFAF00"/>
<rect x="15.4238" y="68.7489" width="4.18558" height="4.18558" transform="rotate(-9.04686 15.4238 68.7489)" fill="#FFAF00"/>
<rect x="16.7402" y="77.0159" width="4.18558" height="4.18558" transform="rotate(-9.04686 16.7402 77.0159)" fill="#FFAF00"/>
</svg>