<svg width="160" height="160" viewBox="0 0 160 160" fill="none" xmlns="http://www.w3.org/2000/svg">
<rect x="24" y="32" width="96" height="16" fill="#FFD800"/>
<rect x="128" y="40" width="96" height="16" transform="rotate(90 128 40)" fill="#0082E6"/>
<rect x="14" y="53" width="90" height="91" fill="#FA500F"/>
<rect width="8" height="96" transform="matrix(-1 0 0 1 16 48)" fill="#66331A"/>
<rect width="8" height="96" transform="matrix(-1 0 0 1 48 56)" fill="#66331A"/>
<rect width="8" height="96" transform="matrix(-1 0 0 1 80 56)" fill="#66331A"/>
<rect width="8" height="96" transform="matrix(1.19249e-08 -1 -1 -1.19249e-08 112 88)" fill="#66331A"/>
<rect width="8" height="96" transform="matrix(1.19249e-08 -1 -1 -1.19249e-08 112 120)" fill="#66331A"/>
<path d="M80 111.999V80H72.0031V87.9965H64V95.9993H56.0031V87.9965H48V80H39.9969V111.999H32V120.001H56.0031V111.999H48V104.002H56.0031V111.999H64V104.002H72.0031V111.999H64V120.001H88.0031V111.999H80Z" fill="white"/>
<rect width="8" height="96" transform="matrix(1.19249e-08 -1 -1 -1.19249e-08 112 152)" fill="#66331A"/>
<rect width="8" height="88" transform="matrix(1.19249e-08 -1 -1 -1.19249e-08 104 56)" fill="#66331A"/>
<rect width="8" height="88" transform="matrix(-1 0 0 1 112 56)" fill="#66331A"/>
<rect width="8" height="96" transform="matrix(-1 0 0 1 136 32)" fill="#66331A"/>
<rect width="8" height="8" transform="matrix(-1 0 0 1 24 40)" fill="#66331A"/>
<rect width="8" height="8" transform="matrix(-1 0 0 1 112 48)" fill="#66331A"/>
<rect width="8" height="8" transform="matrix(-1 0 0 1 88 40)" fill="#66331A"/>
<rect width="8" height="8" transform="matrix(-1 0 0 1 120 72)" fill="#66331A"/>
<rect width="8" height="8" transform="matrix(-1 0 0 1 120 104)" fill="#66331A"/>
<rect width="8" height="8" transform="matrix(-1 0 0 1 56 40)" fill="#66331A"/>
<rect width="8" height="8" transform="matrix(-1 0 0 1 120 136)" fill="#66331A"/>
<rect width="8" height="8" transform="matrix(-1 0 0 1 32 32)" fill="#66331A"/>
<rect width="8" height="8" transform="matrix(-1 0 0 1 40 32)" fill="#66331A"/>
<rect width="8" height="8" transform="matrix(-1 0 0 1 120 40)" fill="#66331A"/>
<rect width="8" height="8" transform="matrix(-1 0 0 1 96 32)" fill="#66331A"/>
<rect width="96" height="8" transform="matrix(-1 0 0 1 128 24)" fill="#9E481E"/>
<rect width="8" height="8" transform="matrix(-1 0 0 1 104 32)" fill="#66331A"/>
<rect width="8" height="8" transform="matrix(-1 0 0 1 72 32)" fill="#66331A"/>
<rect width="8" height="8" transform="matrix(-1 0 0 1 128 64)" fill="#66331A"/>
<rect width="8" height="8" transform="matrix(-1 0 0 1 128 96)" fill="#66331A"/>
<rect width="8" height="8" transform="matrix(-1 0 0 1 64 32)" fill="#66331A"/>
<rect width="8" height="8" transform="matrix(-1 0 0 1 128 128)" fill="#66331A"/>
<rect width="8" height="8" transform="matrix(-1 0 0 1 128 32)" fill="#66331A"/>
</svg>
