<svg width="148" height="215" viewBox="0 0 148 215" fill="none" xmlns="http://www.w3.org/2000/svg">
<g clip-path="url(#clip0_3_319)">
<path d="M132.501 198.855V14.2026L6.50447 14.2026L6.50447 198.855H132.501Z" fill="#E1B496"/>
<path d="M132.491 0H7.37628V14.204H132.491V0Z" fill="black"/>
<path d="M118.403 28.4053H20.6019V42.6093H118.403V28.4053Z" fill="black"/>
<path d="M118.402 42.608H34.6981V85.2201H118.402V42.608Z" fill="#46BE00"/>
<path d="M34.6993 42.608H20.6019V85.2201H34.6993V42.608Z" fill="black"/>
<path d="M132.491 198.856H7.37628V213.06H132.491V198.856Z" fill="black"/>
<path d="M7.37628 198.855L7.37628 14.2026H-6.72116L-6.72116 198.855H7.37628Z" fill="black"/>
<path d="M146.597 198.855V14.2026H132.499V198.855H146.597Z" fill="black"/>
<path d="M118.403 99.4282H20.6019V170.448H118.403V99.4282Z" fill="#F4EBE4"/>
<g style="mix-blend-mode:multiply">
<path d="M118.403 113.631H20.6019V127.835H118.403V113.631Z" fill="#CB9372"/>
</g>
<g style="mix-blend-mode:multiply">
<path d="M118.403 142.036H20.6019V156.24H118.403V142.036Z" fill="#CB9372"/>
</g>
<g style="mix-blend-mode:multiply">
<path d="M91.0826 185.54V99.4282H76.104V185.54H91.0826Z" fill="#CB9372"/>
</g>
<g style="mix-blend-mode:multiply">
<path d="M118.395 185.54V99.4282H103.416V185.54H118.395Z" fill="#CB9372"/>
</g>
<g style="mix-blend-mode:multiply">
<path d="M35.5778 185.54L35.5778 99.4282H20.5992L20.5992 185.54H35.5778Z" fill="#CB9372"/>
</g>
<g style="mix-blend-mode:multiply">
<path d="M62.8903 185.54L62.8903 99.4282H47.9118L47.9118 185.54H62.8903Z" fill="#CB9372"/>
</g>
<path d="M111.269 76.3606V42.4214H102.936V50.9117H94.6092V59.3947H86.283V50.9117H77.9569V42.4214H69.6308V76.3606H61.2973V84.8435H86.283V76.3606H77.9569V67.8776H86.283V76.3606H94.6092V67.8776H102.936V76.3606H94.6092V84.8435H119.595V76.3606H111.269Z" fill="#3C8B0D"/>
</g>
<defs>
<clipPath id="clip0_3_319">
<rect width="147" height="215" fill="white" transform="translate(0.393066)"/>
</clipPath>
</defs>
</svg>
