<svg width="169" height="228" viewBox="0 0 169 228" fill="none" xmlns="http://www.w3.org/2000/svg">
<path d="M77.8881 0.932648L62.8304 0.807983L62.7058 15.8657L77.7635 15.9904L77.8881 0.932648Z" fill="#1D1D1B"/>
<path d="M92.961 1.05465L77.8899 0.929871L77.7652 15.9876L92.8363 16.1124L92.961 1.05465Z" fill="#1D1D1B"/>
<path d="M108.046 1.17678L92.9746 1.052L92.8499 16.1097L107.921 16.2345L108.046 1.17678Z" fill="#1D1D1B"/>
<path d="M17.1276 60.6989L2.05652 60.5742L1.93174 75.6453L17.0029 75.77L17.1276 60.6989Z" fill="#1D1D1B"/>
<path d="M16.9979 75.772L1.92676 75.6472L1.80198 90.7183L16.8731 90.8431L16.9979 75.772Z" fill="#1D1D1B"/>
<path d="M16.8725 90.841L1.80139 90.7162L1.67662 105.787L16.7477 105.912L16.8725 90.841Z" fill="#1D1D1B"/>
<path d="M16.7509 105.913L1.67981 105.789L1.55515 120.846L16.6263 120.971L16.7509 105.913Z" fill="#1D1D1B"/>
<path d="M167.802 61.9486L152.744 61.824L152.619 76.8951L167.677 77.0197L167.802 61.9486Z" fill="#1D1D1B"/>
<path d="M167.685 77.0211L152.627 76.8965L152.502 91.9676L167.56 92.0922L167.685 77.0211Z" fill="#1D1D1B"/>
<path d="M167.559 92.094L152.501 91.9693L152.376 107.04L167.434 107.165L167.559 92.094Z" fill="#1D1D1B"/>
<path d="M167.433 107.163L152.376 107.039L152.251 122.096L167.309 122.221L167.433 107.163Z" fill="#1D1D1B"/>
<path d="M61.5862 151.494L46.5151 151.369L46.3905 166.427L61.4616 166.552L61.5862 151.494Z" fill="#1D1D1B"/>
<path d="M76.6407 151.62L61.583 151.495L61.4583 166.553L76.5161 166.677L76.6407 151.62Z" fill="#1D1D1B"/>
<path d="M106.79 151.871L91.7191 151.747L91.5945 166.804L106.666 166.929L106.79 151.871Z" fill="#1D1D1B"/>
<path d="M121.849 151.997L106.791 151.872L106.666 166.93L121.724 167.055L121.849 151.997Z" fill="#1D1D1B"/>
<path d="M61.712 136.425L46.6409 136.3L46.5161 151.371L61.5872 151.496L61.712 136.425Z" fill="#FA500F"/>
<path d="M76.7749 136.551L61.7172 136.426L61.5924 151.497L76.6501 151.622L76.7749 136.551Z" fill="#FA500F"/>
<path d="M91.852 136.673L76.7809 136.548L76.6561 151.619L91.7272 151.744L91.852 136.673Z" fill="#FA500F"/>
<path d="M106.911 136.799L91.8403 136.674L91.7156 151.745L106.787 151.87L106.911 136.799Z" fill="#FA500F"/>
<path d="M121.974 136.92L106.917 136.796L106.792 151.867L121.85 151.991L121.974 136.92Z" fill="#FA500F"/>
<path d="M137.173 121.977L122.102 121.852L121.977 136.923L137.048 137.048L137.173 121.977Z" fill="#FF8205"/>
<path d="M152.371 107.041L137.299 106.916L137.175 121.974L152.246 122.099L152.371 107.041Z" fill="#FFAF00"/>
<path d="M76.8921 121.478L61.8344 121.354L61.7096 136.425L76.7673 136.549L76.8921 121.478Z" fill="#FF8205"/>
<path d="M61.8376 121.353L46.7665 121.228L46.6417 136.299L61.7128 136.424L61.8376 121.353Z" fill="#FF8205"/>
<path d="M91.9775 121.604L76.9064 121.479L76.7816 136.55L91.8527 136.675L91.9775 121.604Z" fill="#FFD800"/>
<path d="M107.037 121.73L91.9661 121.605L91.8413 136.676L106.912 136.801L107.037 121.73Z" fill="#FF8205"/>
<path d="M122.1 121.855L107.042 121.731L106.917 136.802L121.975 136.926L122.1 121.855Z" fill="#FF8205"/>
<path d="M92.0906 106.539L77.0195 106.414L76.8949 121.471L91.966 121.596L92.0906 106.539Z" fill="#FF8205"/>
<path d="M77.0259 106.417L61.9681 106.292L61.8435 121.35L76.9012 121.474L77.0259 106.417Z" fill="#FFD800"/>
<path d="M107.159 106.664L92.0874 106.539L91.9627 121.597L107.034 121.722L107.159 106.664Z" fill="#FFD800"/>
<path d="M137.294 106.916L122.223 106.791L122.098 121.849L137.17 121.974L137.294 106.916Z" fill="#FFD800"/>
<path d="M152.496 91.9684L137.425 91.8436L137.3 106.915L152.371 107.04L152.496 91.9684Z" fill="#FFD800"/>
<path d="M152.617 76.8959L137.546 76.7711L137.422 91.8422L152.493 91.967L152.617 76.8959Z" fill="#FFD800"/>
<path d="M152.747 61.8228L137.676 61.6981L137.551 76.7692L152.622 76.8939L152.747 61.8228Z" fill="#FFD800"/>
<path d="M137.671 61.6972L122.6 61.5724L122.475 76.6435L137.546 76.7683L137.671 61.6972Z" fill="#FFD800"/>
<path d="M122.598 61.5749L107.54 61.4503L107.416 76.5214L122.473 76.646L122.598 61.5749Z" fill="#FF8205"/>
<path d="M137.797 46.6355L122.725 46.5107L122.601 61.5685L137.672 61.6932L137.797 46.6355Z" fill="#FFD800"/>
<path d="M92.8397 16.1201L77.7686 15.9953L77.6438 31.0664L92.7149 31.1912L92.8397 16.1201Z" fill="#FFF0C3"/>
<path d="M107.912 16.246L92.8408 16.1212L92.716 31.1923L107.787 31.3171L107.912 16.246Z" fill="#FFF0C3"/>
<path d="M92.7143 31.1896L77.6432 31.0648L77.5184 46.1359L92.5895 46.2607L92.7143 31.1896Z" fill="#FFD800"/>
<path d="M62.5866 30.938L47.5155 30.8132L47.3907 45.8843L62.4618 46.0091L62.5866 30.938Z" fill="#FFF0C3"/>
<path d="M47.3806 45.8889L32.3094 45.7641L32.1848 60.8218L47.2559 60.9466L47.3806 45.8889Z" fill="#FFF0C3"/>
<path d="M31.8138 106.039L16.7561 105.915L16.6314 120.972L31.6891 121.097L31.8138 106.039Z" fill="#FFF0C3"/>
<path d="M31.9351 90.9662L16.8774 90.8416L16.7527 105.913L31.8104 106.037L31.9351 90.9662Z" fill="#FFF0C3"/>
<path d="M32.0523 75.8972L16.9946 75.7726L16.8699 90.8437L31.9276 90.9683L32.0523 75.8972Z" fill="#FFF0C3"/>
<path d="M32.1905 60.8245L17.1328 60.6998L17.008 75.7709L32.0657 75.8956L32.1905 60.8245Z" fill="#FFF0C3"/>
<path d="M47.5021 30.8123L32.431 30.6876L32.3063 45.7587L47.3774 45.8834L47.5021 30.8123Z" fill="#FFF0C3"/>
<path d="M77.7668 15.9943L62.7091 15.8696L62.5843 30.9407L77.642 31.0654L77.7668 15.9943Z" fill="#FFF0C3"/>
<path d="M122.845 31.437L107.787 31.3123L107.663 46.3834L122.72 46.5081L122.845 31.437Z" fill="#FFD800"/>
<path d="M137.922 31.5628L122.851 31.438L122.726 46.5091L137.797 46.6339L137.922 31.5628Z" fill="#FFD800"/>
<path d="M137.545 76.77L122.474 76.6452L122.349 91.7163L137.42 91.8411L137.545 76.77Z" fill="#FFD800"/>
<path d="M137.047 137.046L121.976 136.922L121.851 151.993L136.923 152.117L137.047 137.046Z" fill="#1D1D1B"/>
<path d="M46.6356 136.3L31.5645 136.175L31.4397 151.246L46.5108 151.371L46.6356 136.3Z" fill="#1D1D1B"/>
<path d="M47.0123 91.0888L31.9412 90.964L31.8164 106.035L46.8875 106.16L47.0123 91.0888Z" fill="#FFD800"/>
<path d="M122.723 46.513L107.666 46.3884L107.541 61.4461L122.599 61.5707L122.723 46.513Z" fill="#FFD800"/>
<path d="M107.539 61.4497L92.4681 61.3249L92.3434 76.396L107.414 76.5208L107.539 61.4497Z" fill="#FFD800"/>
<path d="M77.2729 76.2707L62.2152 76.1461L62.0904 91.2172L77.1482 91.3418L77.2729 76.2707Z" fill="#FF8205"/>
<path d="M92.2203 91.4731L77.1492 91.3483L77.0244 106.419L92.0955 106.544L92.2203 91.4731Z" fill="#FF8205"/>
<path d="M107.661 46.3878L92.5895 46.263L92.4648 61.3207L107.536 61.4455L107.661 46.3878Z" fill="#FFD800"/>
<path d="M107.79 31.3114L92.7192 31.1866L92.5945 46.2577L107.666 46.3825L107.79 31.3114Z" fill="#FFD800"/>
<path d="M77.386 61.1982L62.3282 61.0735L62.2035 76.1447L77.2612 76.2693L77.386 61.1982Z" fill="#FFD800"/>
<path d="M77.5199 46.1399L62.4622 46.0152L62.3375 61.0729L77.3952 61.1976L77.5199 46.1399Z" fill="#FFD800"/>
<path d="M77.6412 31.0633L62.5835 30.9386L62.4587 46.0097L77.5164 46.1344L77.6412 31.0633Z" fill="#FFD800"/>
<path d="M122.975 16.368L107.917 16.2433L107.792 31.3144L122.85 31.4391L122.975 16.368Z" fill="#1D1D1B"/>
<path d="M138.039 16.4935L122.968 16.3687L122.843 31.4398L137.914 31.5646L138.039 16.4935Z" fill="#1D1D1B"/>
<path d="M62.7039 15.869L47.6328 15.7443L47.508 30.8154L62.5791 30.9401L62.7039 15.869Z" fill="#1D1D1B"/>
<path d="M47.6319 15.7431L32.5608 15.6183L32.436 30.6894L47.5071 30.8142L47.6319 15.7431Z" fill="#1D1D1B"/>
<path d="M152.998 31.6884L137.927 31.5637L137.802 46.6348L152.874 46.7595L152.998 31.6884Z" fill="#1D1D1B"/>
<path d="M152.864 46.7612L137.793 46.6364L137.669 61.6941L152.74 61.8189L152.864 46.7612Z" fill="#1D1D1B"/>
<path d="M152.245 122.103L137.174 121.978L137.049 137.049L152.12 137.174L152.245 122.103Z" fill="#1D1D1B"/>
<path d="M137.428 91.8427L122.357 91.718L122.232 106.789L137.303 106.914L137.428 91.8427Z" fill="#FFD800"/>
<path d="M122.225 106.79L107.168 106.665L107.043 121.723L122.101 121.847L122.225 106.79Z" fill="#FF8205"/>
<path d="M122.343 91.7205L107.285 91.5958L107.16 106.667L122.218 106.792L122.343 91.7205Z" fill="#FF8205"/>
<path d="M122.468 76.6439L107.411 76.5192L107.286 91.5903L122.344 91.715L122.468 76.6439Z" fill="#FF8205"/>
<path d="M107.288 91.5952L92.217 91.4705L92.0923 106.542L107.163 106.666L107.288 91.5952Z" fill="#FF8205"/>
<path d="M91.7224 151.746L76.6512 151.621L76.5266 166.679L91.5977 166.804L91.7224 151.746Z" fill="#1D1D1B"/>
<path d="M107.405 76.5186L92.3344 76.3939L92.2096 91.465L107.281 91.5897L107.405 76.5186Z" fill="#FF8205"/>
<path d="M92.4714 61.3237L77.4003 61.1989L77.2755 76.27L92.3466 76.3948L92.4714 61.3237Z" fill="#FFD800"/>
<path d="M92.5886 46.2621L77.5175 46.1373L77.3928 61.195L92.4639 61.3198L92.5886 46.2621Z" fill="#FFD800"/>
<path d="M62.457 46.0143L47.3859 45.8895L47.2612 60.9472L62.3323 61.072L62.457 46.0143Z" fill="#FFD800"/>
<path d="M46.7613 121.23L31.6902 121.106L31.5654 136.177L46.6365 136.302L46.7613 121.23Z" fill="#FF8205"/>
<path d="M61.9548 106.291L46.8837 106.166L46.759 121.224L61.8301 121.348L61.9548 106.291Z" fill="#FF8205"/>
<path d="M77.1432 91.3473L62.0854 91.2227L61.9607 106.294L77.0184 106.418L77.1432 91.3473Z" fill="#FF8205"/>
<path d="M62.0887 91.2218L47.0176 91.097L46.8928 106.168L61.9639 106.293L62.0887 91.2218Z" fill="#FF8205"/>
<path d="M62.2099 76.1452L47.1388 76.0204L47.014 91.0915L62.0851 91.2163L62.2099 76.1452Z" fill="#FF8205"/>
<path d="M62.3312 61.0724L47.2601 60.9476L47.1354 76.0187L62.2065 76.1435L62.3312 61.0724Z" fill="#FF8205"/>
<path d="M92.3458 76.3965L77.2747 76.2717L77.1499 91.3428L92.221 91.4676L92.3458 76.3965Z" fill="#FFD800"/>
<path d="M47.2552 60.9503L32.1841 60.8255L32.0593 75.8966L47.1304 76.0214L47.2552 60.9503Z" fill="#FFD800"/>
<path d="M46.8785 106.165L31.8074 106.04L31.6827 121.098L46.7538 121.223L46.8785 106.165Z" fill="#FFD800"/>
<path d="M47.1336 76.023L32.0625 75.8983L31.9377 90.9693L47.0088 91.0941L47.1336 76.023Z" fill="#FFD800"/>
<path d="M32.429 30.6862L17.3713 30.5616L17.2466 45.6327L32.3043 45.7573L32.429 30.6862Z" fill="#1D1D1B"/>
<path d="M32.3077 45.7626L17.25 45.6379L17.1253 60.6957L32.183 60.8203L32.3077 45.7626Z" fill="#1D1D1B"/>
<path d="M31.684 121.101L16.6263 120.976L16.5016 136.047L31.5593 136.172L31.684 121.101Z" fill="#1D1D1B"/>
<path d="M76.5216 166.681L61.4639 166.557L61.3392 181.614L76.3969 181.739L76.5216 166.681Z" fill="#B9DAFF"/>
<path d="M91.5988 166.803L76.5277 166.678L76.403 181.736L91.4742 181.861L91.5988 166.803Z" fill="#B9DAFF"/>
<path d="M106.667 166.929L91.5956 166.804L91.4709 181.862L106.542 181.987L106.667 166.929Z" fill="#00425C"/>
<path d="M61.4587 166.556L46.3876 166.431L46.2629 181.488L61.334 181.613L61.4587 166.556Z" fill="#1D1D1B"/>
<path d="M91.4731 181.865L76.402 181.74L76.2772 196.811L91.3483 196.936L91.4731 181.865Z" fill="#1D1D1B"/>
<path d="M106.541 181.991L91.47 181.866L91.3452 196.937L106.416 197.062L106.541 181.991Z" fill="#1D1D1B"/>
<path d="M91.3475 196.941L76.2764 196.817L76.1516 211.888L91.2227 212.013L91.3475 196.941Z" fill="#00425C"/>
<path d="M61.2158 196.69L46.1447 196.565L46.0199 211.636L61.091 211.761L61.2158 196.69Z" fill="#1D1D1B"/>
<path d="M76.4002 181.743L61.3425 181.618L61.2178 196.689L76.2755 196.814L76.4002 181.743Z" fill="#1D1D1B"/>
<path d="M121.478 197.193L106.421 197.068L106.296 212.139L121.353 212.264L121.478 197.193Z" fill="#1D1D1B"/>
<path d="M121.729 167.055L106.672 166.93L106.547 181.988L121.605 182.112L121.729 167.055Z" fill="#1D1D1B"/>
<path d="M106.29 212.14L91.2189 212.015L91.0942 227.073L106.165 227.198L106.29 212.14Z" fill="#1D1D1B"/>
<path d="M106.424 197.067L91.3527 196.943L91.2279 212.014L106.299 212.138L106.424 197.067Z" fill="#00425C"/>
<path d="M76.1449 211.889L61.0872 211.764L60.9625 226.822L76.0202 226.946L76.1449 211.889Z" fill="#1D1D1B"/>
<path d="M76.2706 196.816L61.2129 196.691L61.0881 211.762L76.1458 211.887L76.2706 196.816Z" fill="#B9DAFF"/>
<path d="M121.596 182.116L106.538 181.992L106.413 197.063L121.471 197.187L121.596 182.116Z" fill="#1D1D1B"/>
<path d="M61.3373 181.618L46.2662 181.493L46.1415 196.564L61.2126 196.689L61.3373 181.618Z" fill="#1D1D1B"/>
<path d="M91.2177 212.014L76.1466 211.89L76.0219 226.947L91.093 227.072L91.2177 212.014Z" fill="#1D1D1B"/>
</svg>
