<svg width="152" height="218" viewBox="0 0 152 218" fill="none" xmlns="http://www.w3.org/2000/svg">
<mask id="mask0_3_491" style="mask-type:luminance" maskUnits="userSpaceOnUse" x="0" y="0" width="152" height="218">
<path d="M151.026 1.52588e-05H0.974243V218H151.026V1.52588e-05Z" fill="white"/>
</mask>
<g mask="url(#mask0_3_491)">
<path d="M69.1818 95.3843H55.5466V109.004H69.1818V95.3843Z" fill="#FFAF00"/>
<path d="M82.815 27.2472H69.1798V40.8667H82.815V27.2472Z" fill="#FFAF00"/>
<path d="M96.4484 13.6333H82.813V27.2529H96.4484V13.6333Z" fill="#FFAF00"/>
<path d="M69.1818 3.8147e-05H55.5466V13.6197H69.1818V3.8147e-05Z" fill="#FFAF00"/>
<path d="M82.8247 68.1276H69.1895V81.7471H82.8247V68.1276Z" fill="#FFAF00"/>
<path d="M96.4484 108.998H82.813V122.618H96.4484V108.998Z" fill="#FFAF00"/>
<path d="M123.743 177.131V149.881H110.097V136.251H69.1808V122.631H55.5349V136.251H41.889V149.881H28.2535V177.131H14.6077V204.382H137.378V177.131H123.743Z" fill="#FFAF00"/>
<path d="M110.104 190.755V136.255H96.4687V149.885H82.8228V163.505H69.1876V149.885H55.5416V136.255H41.9064V190.755H28.2605V204.385H69.1876V190.755H55.5416V177.135H69.1876V190.755H82.8228V177.135H96.4687V190.755H82.8228V204.385H123.75V190.755H110.104Z" fill="#FA500F"/>
<path d="M110.097 204.383H14.6077V218.002H137.378V204.383H110.097Z" fill="black"/>
<path d="M14.6096 177.135H0.974365V204.385H14.6096V177.135Z" fill="black"/>
<path d="M28.2528 163.498V149.879H14.6174V177.129H28.2528V163.498Z" fill="black"/>
<path d="M41.9064 136.251V122.631H28.2605V149.881H41.9064V136.251Z" fill="black"/>
<path d="M55.5389 109.004V95.3843H41.9034V122.634H55.5389V109.004Z" fill="black"/>
<path d="M69.1848 81.7501V40.8804H41.9034V54.5001H55.5389V95.3805H69.1848V81.7501Z" fill="black"/>
<path d="M151.021 177.135H137.385V204.385H151.021V177.135Z" fill="black"/>
<path d="M137.387 149.879H123.752V177.129H137.387V149.879Z" fill="black"/>
<path d="M123.735 122.631H110.099V149.881H123.735V122.631Z" fill="black"/>
<path d="M110.101 95.3843H96.4659V122.634H110.101V95.3843Z" fill="black"/>
<path d="M96.4592 68.1304V54.5001H110.094V40.8804H82.813V95.3805H96.4592V68.1304Z" fill="black"/>
</g>
</svg>
