<svg width="275" height="210" viewBox="0 0 275 210" fill="none" xmlns="http://www.w3.org/2000/svg">
<g clip-path="url(#clip0_3_108)">
<mask id="mask0_3_108" style="mask-type:luminance" maskUnits="userSpaceOnUse" x="0" y="0" width="275" height="210">
<path d="M274.321 0.5H0.321289V209.5H274.321V0.5Z" fill="white"/>
</mask>
<g mask="url(#mask0_3_108)">
<path d="M68.8382 163.061H45.9958V186.273H91.6627V163.061H68.8382Z" fill="black"/>
<path d="M183.013 163.061H160.171V186.273H183.013V163.061Z" fill="black"/>
<path d="M251.501 163.061H228.659V186.273H251.501V163.061Z" fill="black"/>
<path d="M251.501 46.9392H228.659V70.1696H251.501V46.9392Z" fill="black"/>
<path d="M274.338 70.1714H251.496V163.056H274.338V70.1714Z" fill="black"/>
<path d="M228.676 70.1588H205.833V93.3889H228.676V70.1588Z" fill="black"/>
<path d="M205.826 46.9392H182.984V70.1696H205.826V46.9392Z" fill="black"/>
<path d="M183.013 23.7075H160.171V46.9379H183.013V23.7075Z" fill="black"/>
<path d="M137.325 23.7303H160.168V0.5H91.6587V23.7303H137.325Z" fill="black"/>
<path d="M91.6627 23.7075H45.9958V46.9379H91.6627V23.7075Z" fill="black"/>
<path d="M46.0008 46.9392H23.1587V70.1696H46.0008V46.9392Z" fill="black"/>
<path d="M23.1635 93.3827V70.1708H0.321289V139.825H23.1635V93.3827Z" fill="black"/>
<path d="M68.8382 93.3784H45.9958V116.608H68.8382V93.3784Z" fill="black"/>
<path d="M114.501 186.268H91.6587V209.499H160.168V186.268H114.501Z" fill="black"/>
<path d="M205.826 139.829H182.984V163.06H228.651V139.829H205.826Z" fill="black"/>
<path d="M46.0008 139.829H23.1587V163.041H46.0008V139.829Z" fill="black"/>
<path d="M228.656 70.1498V93.3621H205.813V70.1498H182.971V46.9198H160.147V23.7075H91.6378V46.9198H45.9709V70.1498H23.1466V139.823H45.9709V163.053H91.6378V186.265H160.147V163.053H182.971V139.823H228.638V163.053H251.462V70.168H228.638L228.656 70.1498ZM45.9888 93.3802H68.8312V116.611H45.9888V93.3802Z" fill="#FF8205"/>
<path d="M182.996 139.824V46.9392H160.172V70.1514H137.329V93.3815H114.505V70.1514H91.6627V46.9392H68.8204V139.824H45.9958V163.054H114.505V139.824H91.6627V116.612H114.505V139.824H137.329V116.612H160.172V139.824H137.329V163.054H205.838V139.824H182.996Z" fill="white"/>
</g>
</g>
<defs>
<clipPath id="clip0_3_108">
<rect width="274" height="209" fill="white" transform="translate(0.321289 0.5)"/>
</clipPath>
</defs>
</svg>
