<svg width="192" height="192" viewBox="0 0 192 192" fill="none" xmlns="http://www.w3.org/2000/svg">
<rect x="67.2" y="38.3999" width="57.6" height="67.2" fill="#FFF0C3"/>
<rect x="57.6" y="48" width="76.8" height="48" fill="#FFF0C3"/>
<rect x="124.8" y="19.2" width="9.6" height="57.6" transform="rotate(90 124.8 19.2)" fill="#9E481E"/>
<rect x="134.4" y="28.8" width="9.6" height="76.8" transform="rotate(90 134.4 28.8)" fill="#9E481E"/>
<rect x="124.8" y="28.8" width="9.6" height="57.6" transform="rotate(90 124.8 28.8)" fill="#66331A"/>
<rect x="57.6" y="38.3999" width="9.6" height="9.6" transform="rotate(90 57.6 38.3999)" fill="#9E481E"/>
<rect x="67.2" y="38.3999" width="9.6" height="9.6" transform="rotate(90 67.2 38.3999)" fill="#B36843"/>
<rect x="67.2" y="38.3999" width="9.6" height="9.6" transform="rotate(90 67.2 38.3999)" fill="#66331A"/>
<rect width="9.6" height="9.59999" transform="matrix(4.37113e-08 1 1 -4.37114e-08 124.8 38.3999)" fill="#9E481E"/>
<rect width="9.6" height="9.59999" transform="matrix(4.37113e-08 1 1 -4.37114e-08 124.8 38.3999)" fill="#66331A"/>
<rect width="9.6" height="9.60001" transform="matrix(4.37114e-08 1 1 -4.37114e-08 134.4 38.3999)" fill="#9E481E"/>
<rect x="48" y="48" width="19.2" height="9.6" transform="rotate(90 48 48)" fill="#9E481E"/>
<rect x="57.6" y="48" width="9.6" height="9.6" transform="rotate(90 57.6 48)" fill="#9E481E"/>
<rect x="57.6" y="48" width="48" height="9.6" transform="rotate(90 57.6 48)" fill="#66331A"/>
<rect width="9.6" height="9.60001" transform="matrix(4.37114e-08 1 1 -4.37113e-08 134.4 48)" fill="#9E481E"/>
<rect width="19.2" height="9.60001" transform="matrix(4.37114e-08 1 1 -4.37114e-08 144 48)" fill="#9E481E"/>
<path d="M116.573 84.2415L116.573 51.6001L108.34 51.6001L108.34 59.7657L100.113 59.7657L100.113 67.9243L91.8867 67.9243L91.8867 59.7657L83.6601 59.7657L83.6601 51.6001L75.4336 51.6001L75.4336 84.2415L67.2 84.2415L67.2 92.4001L91.8867 92.4001L91.8867 84.2415L83.6601 84.2415L83.6601 76.0829L91.8867 76.0829L91.8867 84.2415L100.113 84.2415L100.113 76.0829L108.34 76.0829L108.34 84.2415L100.113 84.2415L100.113 92.4001L124.8 92.4001L124.8 84.2415L116.573 84.2415Z" fill="#FA500F"/>
<rect x="48" y="67.2" width="19.2" height="9.6" transform="rotate(90 48 67.2)" fill="#9E481E"/>
<rect width="19.2" height="9.60001" transform="matrix(4.37114e-08 1 1 -4.37114e-08 144 67.2)" fill="#9E481E"/>
<rect x="48" y="86.3999" width="19.2" height="9.6" transform="rotate(90 48 86.3999)" fill="#9E481E"/>
<rect width="19.2" height="9.60001" transform="matrix(4.37114e-08 1 1 -4.37114e-08 144 86.3999)" fill="#9E481E"/>
<rect x="57.6" y="96" width="9.6" height="9.6" transform="rotate(90 57.6 96)" fill="#9E481E"/>
<rect x="67.2" y="96" width="9.6" height="9.6" transform="rotate(90 67.2 96)" fill="#66331A"/>
<rect width="9.6" height="9.59999" transform="matrix(4.37114e-08 1 1 -4.37114e-08 124.8 96)" fill="#66331A"/>
<rect width="9.6" height="9.60001" transform="matrix(4.37114e-08 1 1 -4.37113e-08 134.4 96)" fill="#9E481E"/>
<rect x="57.6" y="105.6" width="9.6" height="9.6" transform="rotate(90 57.6 105.6)" fill="#9E481E"/>
<rect x="67.2" y="105.6" width="9.6" height="9.6" transform="rotate(90 67.2 105.6)" fill="#9E481E"/>
<rect width="9.6" height="9.59999" transform="matrix(4.37114e-08 1 1 -4.37114e-08 124.8 105.6)" fill="#9E481E"/>
<rect x="144" y="105.6" width="9.6" height="9.60001" transform="rotate(90 144 105.6)" fill="#9E481E"/>
<rect x="124.8" y="105.6" width="9.6" height="57.6" transform="rotate(90 124.8 105.6)" fill="#66331A"/>
<rect x="134.4" y="115.2" width="9.6" height="76.8" transform="rotate(90 134.4 115.2)" fill="#9E481E"/>
<rect x="134.4" y="115.2" width="9.6" height="76.8" transform="rotate(90 134.4 115.2)" fill="#9E481E"/>
<rect x="115.2" y="124.8" width="9.6" height="38.4" transform="rotate(90 115.2 124.8)" fill="#66331A"/>
<rect x="105.6" y="134.4" width="28.8" height="19.2" transform="rotate(90 105.6 134.4)" fill="#9E481E"/>
<rect x="105.6" y="163.2" width="9.60001" height="19.2" transform="rotate(90 105.6 163.2)" fill="#66331A"/>
<rect width="48" height="9.6" transform="matrix(4.37114e-08 1 1 -4.37114e-08 134.4 48)" fill="#66331A"/>
</svg>
