<svg width="162" height="232" viewBox="0 0 162 232" fill="none" xmlns="http://www.w3.org/2000/svg">
<path d="M98.7167 17.4193H116.603V26.1351H134.499V34.8431H143.437V50.5179H152.394V102.777H143.437V118.456H134.499V127.169L116.603 127.168V135.872H98.7167V144.584H62.9364V135.872H45.0419V127.168H27.1561V118.456H18.205V102.777H9.27136V50.5179H18.205V34.8431H27.1561V26.1351H45.0419V17.4193H62.9364V8.71222H98.7167V17.4193Z" fill="#FFAF00"/>
<path d="M98.7084 34.8337H116.603V43.5505H125.551V59.2253H134.49V94.0642H125.551V109.744H116.603V118.448H98.7084V127.16H62.9271V118.448H45.0424V109.744H36.099V94.0642H27.1478V59.2253H36.099V43.5505H45.0424V34.8337H62.9271V26.1267H98.7084V34.8337Z" fill="#FFF0C3"/>
<path d="M114.29 97.2868V43.8027H100.427V57.179H86.5537V70.5447H72.6912V57.179H58.8178V43.8027H44.9552V97.2868H31.0818V110.663H72.6912V97.2868H58.8178V83.921H72.6912V97.2868H86.5537V83.921H100.427V97.2868H86.5537V110.663H128.163V97.2868H114.29Z" fill="#FA500F"/>
<rect width="20.4315" height="19.8939" transform="matrix(-1 -6.89827e-08 -1.10792e-07 1 92.1636 203.264)" fill="black"/>
<rect x="92.1636" y="203.264" width="20.4315" height="50.8399" transform="rotate(-180 92.1636 203.264)" fill="#FFAF00"/>
<rect x="0.310303" y="50.5204" width="8.94516" height="52.2586" fill="#060605"/>
<rect x="63.2454" y="144.041" width="10.037" height="78.1829" fill="#060605"/>
<rect x="90.8511" y="144.041" width="10.037" height="78.1829" fill="#060605"/>
<rect x="9.25793" y="34.8401" width="8.94516" height="15.6776" fill="#060605"/>
<rect x="143.438" y="34.8401" width="8.94516" height="15.6776" fill="#060605"/>
<rect x="18.1967" y="26.1279" width="8.94516" height="8.70976" fill="#060605"/>
<rect x="134.481" y="26.1279" width="8.94516" height="8.70976" fill="#060605"/>
<rect x="27.1445" y="17.4158" width="17.8903" height="8.70976" fill="#060605"/>
<rect x="116.603" y="17.4158" width="17.8903" height="8.70976" fill="#060605"/>
<rect x="45.0398" y="8.71222" width="17.8903" height="8.70976" fill="#060605"/>
<rect x="98.6992" y="8.71222" width="17.8903" height="8.70976" fill="#060605"/>
<rect x="62.9174" width="35.7807" height="8.70976" fill="#060605"/>
<rect x="152.376" y="118.457" width="8.94516" height="15.6776" transform="rotate(-180 152.376 118.457)" fill="#060605"/>
<rect x="134.481" y="109.744" width="8.94516" height="15.6776" transform="rotate(-180 134.481 109.744)" fill="#060605"/>
<rect x="36.0833" y="109.744" width="8.94516" height="15.6776" transform="rotate(-180 36.0833 109.744)" fill="#060605"/>
<rect x="36.0833" y="59.2239" width="8.94516" height="15.6776" transform="rotate(-180 36.0833 59.2239)" fill="#060605"/>
<rect x="134.481" y="59.2239" width="8.94516" height="15.6776" transform="rotate(-180 134.481 59.2239)" fill="#060605"/>
<rect x="27.1445" y="94.0641" width="8.94517" height="34.8391" transform="rotate(-180 27.1445 94.0641)" fill="#060605"/>
<rect x="143.438" y="94.0641" width="8.94517" height="34.8391" transform="rotate(-180 143.438 94.0641)" fill="#060605"/>
<rect x="18.1967" y="118.457" width="8.94516" height="15.6776" transform="rotate(-180 18.1967 118.457)" fill="#060605"/>
<rect x="143.438" y="127.16" width="8.94516" height="8.70976" transform="rotate(-180 143.438 127.16)" fill="#060605"/>
<rect x="27.1445" y="127.16" width="8.94516" height="8.70976" transform="rotate(-180 27.1445 127.16)" fill="#060605"/>
<rect x="45.0398" y="118.457" width="8.94516" height="8.70976" transform="rotate(-180 45.0398 118.457)" fill="#060605"/>
<rect x="45.0398" y="43.5524" width="8.94516" height="8.70976" transform="rotate(-180 45.0398 43.5524)" fill="#060605"/>
<rect x="125.542" y="43.5524" width="8.94516" height="8.70976" transform="rotate(-180 125.542 43.5524)" fill="#060605"/>
<rect x="125.542" y="118.457" width="8.94516" height="8.70976" transform="rotate(-180 125.542 118.457)" fill="#060605"/>
<rect x="134.481" y="135.872" width="17.8903" height="8.70976" transform="rotate(-180 134.481 135.872)" fill="#060605"/>
<rect x="45.0398" y="135.872" width="17.8903" height="8.70976" transform="rotate(-180 45.0398 135.872)" fill="#060605"/>
<rect x="116.603" y="144.584" width="17.8903" height="8.70976" transform="rotate(-180 116.603 144.584)" fill="#060605"/>
<rect x="62.9174" y="144.584" width="17.8903" height="8.70976" transform="rotate(-180 62.9174 144.584)" fill="#060605"/>
<rect x="116.603" y="127.16" width="17.8903" height="8.70976" transform="rotate(-180 116.603 127.16)" fill="#060605"/>
<rect x="62.9174" y="127.16" width="17.8903" height="8.70976" transform="rotate(-180 62.9174 127.16)" fill="#060605"/>
<rect x="62.9174" y="34.8401" width="17.8903" height="8.70976" transform="rotate(-180 62.9174 34.8401)" fill="#060605"/>
<rect x="116.595" y="34.8396" width="17.8903" height="8.70976" transform="rotate(-180 116.595 34.8396)" fill="#060605"/>
<rect x="98.371" y="153.815" width="35.1295" height="9.77285" transform="rotate(-180 98.371 153.815)" fill="#060605"/>
<rect x="98.6992" y="135.872" width="35.7807" height="8.70976" transform="rotate(-180 98.6992 135.872)" fill="#060605"/>
<rect x="98.6992" y="26.1279" width="35.7807" height="8.70976" transform="rotate(-180 98.6992 26.1279)" fill="#060605"/>
<rect x="90.8511" y="232" width="17.5647" height="9.77285" transform="rotate(-180 90.8511 232)" fill="#060605"/>
<rect x="152.376" y="50.5204" width="8.94516" height="52.2586" fill="#060605"/>
</svg>
