<svg fill="none" xmlns="http://www.w3.org/2000/svg" viewBox="-0.03 10.32 82.07 81.35">
<g clip-path="url(#clip0_306_5580)">
<path d="M70.6896 15.955H36.7578V60.8126H76.344V15.955H70.6896Z" fill="#FFAF00"/>
<path d="M41.6052 60.8126H36.7578V66.4198H42.413V60.8126H41.6052Z" fill="black"/>
<path d="M41.6052 10.3478H36.7578V15.955H42.413V10.3478H41.6052Z" fill="black"/>
<path d="M35.9509 55.2054H31.1035V60.8126H36.7587V55.2054H35.9509Z" fill="black"/>
<path d="M35.9509 49.5982H31.1035V55.2054H36.7587V49.5982H35.9509Z" fill="black"/>
<path d="M35.9509 43.991H31.1035V49.5982H36.7587V43.991H35.9509Z" fill="black"/>
<path d="M35.9509 38.3839H31.1035V43.991H36.7587V38.3839H35.9509Z" fill="black"/>
<path d="M35.9509 32.7767H31.1035V38.3839H36.7587V32.7767H35.9509Z" fill="black"/>
<path d="M35.9509 27.1695H31.1035V32.7767H36.7587V27.1695H35.9509Z" fill="black"/>
<path d="M35.9509 21.5622H31.1035V27.1694H36.7587V21.5622H35.9509Z" fill="black"/>
<path d="M47.2615 60.8126H42.4141V66.4198H48.0692V60.8126H47.2615Z" fill="black"/>
<path d="M52.9158 60.8126H48.0684V66.4198H53.7235V60.8126H52.9158Z" fill="black"/>
<path d="M58.572 60.8126H53.7246V66.4198H59.3798V60.8126H58.572Z" fill="black"/>
<path d="M64.2263 60.8126H59.3789V66.4198H65.0341V60.8126H64.2263Z" fill="black"/>
<path d="M69.8824 60.8126H65.035V66.4198H70.6902V60.8126H69.8824Z" fill="black"/>
<path d="M75.5369 60.8126H70.6895V66.4198H76.3446V60.8126H75.5369Z" fill="black"/>
<path d="M35.9509 15.955H31.1035V21.5622H36.7587V15.955H35.9509Z" fill="black"/>
<path d="M47.2615 10.3478H42.4141V15.955H48.0692V10.3478H47.2615Z" fill="black"/>
<path d="M52.9158 10.3478H48.0684V15.955H53.7235V10.3478H52.9158Z" fill="black"/>
<path d="M58.572 10.3478H53.7246V15.955H59.3798V10.3478H58.572Z" fill="black"/>
<path d="M64.2263 10.3478H59.3789V15.955H65.0341V10.3478H64.2263Z" fill="black"/>
<path d="M69.8824 10.3478H65.035V15.955H70.6902V10.3478H69.8824Z" fill="black"/>
<path d="M75.5369 10.3478H70.6895V15.955H76.3446V10.3478H75.5369Z" fill="black"/>
<path d="M81.1931 49.5982H76.3457V55.2054H82.0009V49.5982H81.1931Z" fill="black"/>
<path d="M81.1931 55.2054H76.3457V60.8126H82.0009V55.2054H81.1931Z" fill="black"/>
<path d="M81.1931 43.991H76.3457V49.5982H82.0009V43.991H81.1931Z" fill="black"/>
<path d="M81.1931 38.3839H76.3457V43.991H82.0009V38.3839H81.1931Z" fill="black"/>
<path d="M81.1931 32.7767H76.3457V38.3839H82.0009V32.7767H81.1931Z" fill="black"/>
<path d="M81.1931 27.1695H76.3457V32.7767H82.0009V27.1695H81.1931Z" fill="black"/>
<path d="M81.1931 21.5622H76.3457V27.1694H82.0009V21.5622H81.1931Z" fill="black"/>
<path d="M81.1931 15.955H76.3457V21.5622H82.0009V15.955H81.1931Z" fill="black"/>
<path d="M47.2615 25.7676H42.4141V31.3748H48.0692V25.7676H47.2615Z" fill="#A06B39"/>
<path d="M52.9158 25.7676H48.0684V31.3748H53.7235V25.7676H52.9158Z" fill="#A06B39"/>
<path d="M58.572 25.7676H53.7246V31.3748H59.3798V25.7676H58.572Z" fill="#A06B39"/>
<path d="M64.2263 25.7676H59.3789V31.3748H65.0341V25.7676H64.2263Z" fill="#A06B39"/>
<path d="M69.8824 25.7676H65.035V31.3748H70.6902V25.7676H69.8824Z" fill="#A06B39"/>
<path d="M64.2263 31.3748H59.3789V36.982H65.0341V31.3748H64.2263Z" fill="#A06B39"/>
<path d="M58.572 36.982H53.7246V42.5892H59.3798V36.982H58.572Z" fill="#A06B39"/>
<path d="M58.572 42.5892H53.7246V48.1964H59.3798V42.5892H58.572Z" fill="#A06B39"/>
<path d="M58.572 48.1964H53.7246V53.8035H59.3798V48.1964H58.572Z" fill="#A06B39"/>
<path d="M52.9158 48.1964H48.0684V53.8035H53.7235V48.1964H52.9158Z" fill="#A06B39"/>
<path d="M47.2615 48.1964H42.4141V53.8035H48.0692V48.1964H47.2615Z" fill="#A06B39"/>
<path d="M64.2263 48.1964H59.3789V53.8035H65.0341V48.1964H64.2263Z" fill="#A06B39"/>
<path d="M69.8824 48.1964H65.035V53.8036H70.6902V48.1964H69.8824Z" fill="#A06B39"/>
<path d="M52.9158 36.982H48.0684V42.5892H53.7235V36.982H52.9158Z" fill="#A06B39"/>
<path d="M58.572 20.1605H53.7246V25.7677H59.3798V20.1605H58.572Z" fill="#A06B39"/>
<path d="M39.5861 41.1874H5.6543V86.0449H45.2405V41.1874H39.5861Z" fill="#0082E6"/>
<path d="M10.5017 86.045H5.6543V91.6522H11.3095V86.045H10.5017Z" fill="black"/>
<path d="M10.5017 35.5802H5.6543V41.1874H11.3095V35.5802H10.5017Z" fill="black"/>
<path d="M4.8474 80.4377H0V86.0449H5.65517V80.4377H4.8474Z" fill="black"/>
<path d="M4.8474 74.8306H0V80.4378H5.65517V74.8306H4.8474Z" fill="black"/>
<path d="M4.8474 69.2234H0V74.8306H5.65517V69.2234H4.8474Z" fill="black"/>
<path d="M4.8474 63.6162H0V69.2234H5.65517V63.6162H4.8474Z" fill="black"/>
<path d="M4.8474 58.009H0V63.6162H5.65517V58.009H4.8474Z" fill="black"/>
<path d="M4.8474 52.4018H0V58.009H5.65517V52.4018H4.8474Z" fill="black"/>
<path d="M4.8474 46.7946H0V52.4018H5.65517V46.7946H4.8474Z" fill="black"/>
<path d="M16.1579 86.045H11.3105V91.6522H16.9657V86.045H16.1579Z" fill="black"/>
<path d="M21.8124 86.045H16.965V91.6522H22.6201V86.045H21.8124Z" fill="black"/>
<path d="M27.4685 86.045H22.6211V91.6522H28.2763V86.045H27.4685Z" fill="black"/>
<path d="M33.1228 86.045H28.2754V91.6522H33.9306V86.045H33.1228Z" fill="black"/>
<path d="M38.779 86.045H33.9316V91.6522H39.5868V86.045H38.779Z" fill="black"/>
<path d="M44.4333 86.0449H39.5859V91.6521H45.2411V86.0449H44.4333Z" fill="black"/>
<path d="M4.8474 41.1874H0V46.7946H5.65517V41.1874H4.8474Z" fill="black"/>
<path d="M16.1579 35.5802H11.3105V41.1874H16.9657V35.5802H16.1579Z" fill="black"/>
<path d="M21.8124 35.5802H16.965V41.1874H22.6201V35.5802H21.8124Z" fill="black"/>
<path d="M27.4685 35.5802H22.6211V41.1874H28.2763V35.5802H27.4685Z" fill="black"/>
<path d="M33.1228 35.5802H28.2754V41.1874H33.9306V35.5802H33.1228Z" fill="black"/>
<path d="M38.779 35.5802H33.9316V41.1874H39.5868V35.5802H38.779Z" fill="black"/>
<path d="M44.4333 35.5802H39.5859V41.1874H45.2411V35.5802H44.4333Z" fill="black"/>
<path d="M50.0896 74.8306H45.2422V80.4378H50.8974V74.8306H50.0896Z" fill="black"/>
<path d="M50.0896 80.4377H45.2422V86.0449H50.8974V80.4377H50.0896Z" fill="black"/>
<path d="M50.0896 69.2234H45.2422V74.8306H50.8974V69.2234H50.0896Z" fill="black"/>
<path d="M50.0896 63.6162H45.2422V69.2234H50.8974V63.6162H50.0896Z" fill="black"/>
<path d="M50.0896 58.009H45.2422V63.6162H50.8974V58.009H50.0896Z" fill="black"/>
<path d="M50.0896 52.4019H45.2422V58.0091H50.8974V52.4019H50.0896Z" fill="black"/>
<path d="M50.0896 46.7946H45.2422V52.4018H50.8974V46.7946H50.0896Z" fill="black"/>
<path d="M50.0896 41.1874H45.2422V46.7946H50.8974V41.1874H50.0896Z" fill="black"/>
<path d="M39.586 73.9905V51H33.9315V56.7488H28.2746V62.4952H22.6202V56.7488H16.9657V51H11.3088V73.9905H5.6543V79.7369H22.6202V73.9905H16.9657V68.2416H22.6202V73.9905H28.2746V68.2416H33.9315V73.9905H28.2746V79.7369H45.2405V73.9905H39.586Z" fill="white"/>
<path d="M64.1095 85.7391H59.6367V91.6522H64.8549V85.7391H64.1095Z" fill="black"/>
<path d="M58.7837 80.5652H53.6719V85.7391H59.6355V80.5652H58.7837Z" fill="black"/>
<path d="M17.8905 16.2609L22.3633 16.2609L22.3633 10.3478L17.1451 10.3478L17.1451 16.2609L17.8905 16.2609Z" fill="black"/>
<path d="M64.1095 80.5652H59.6367V85.7391H64.8549V80.5652H64.1095Z" fill="black"/>
<path d="M69.9673 80.5652H64.8555V85.7391H70.8191V80.5652H69.9673Z" fill="black"/>
<path d="M23.2163 21.4348L28.3281 21.4348L28.3281 16.2609L22.3645 16.2609L22.3645 21.4348L23.2163 21.4348Z" fill="black"/>
<path d="M75.2911 80.5652H70.8182V85.7391H76.0364V80.5652H75.2911Z" fill="black"/>
<path d="M17.8905 21.4348L22.3633 21.4348L22.3633 16.2609L17.1451 16.2609L17.1451 21.4348L17.8905 21.4348Z" fill="black"/>
<path d="M81.1489 74.6522H76.0371V80.5653H82.0007V74.6522H81.1489Z" fill="black"/>
<path d="M81.1489 69.4783H76.0371V74.6522H82.0007V69.4783H81.1489Z" fill="black"/>
<path d="M12.0327 21.4348L17.1445 21.4348L17.1445 16.2609L11.1809 16.2609L11.1809 21.4348L12.0327 21.4348Z" fill="black"/>
<path d="M64.1095 74.6522H59.6367V80.5653H64.8549V74.6522H64.1095Z" fill="black"/>
<path d="M6.70893 21.4348L11.1818 21.4348L11.1818 16.2608L5.96358 16.2608L5.96358 21.4348L6.70893 21.4348Z" fill="black"/>
<path d="M0.851084 27.3478L5.96289 27.3478L5.96289 21.4347L-0.000745729 21.4347L-0.00074625 27.3478L0.851084 27.3478Z" fill="black"/>
<path d="M0.851084 32.5217L5.96289 32.5217L5.96289 27.3478L-0.000745794 27.3478L-0.00074625 32.5217L0.851084 32.5217Z" fill="black"/>
<path d="M17.8905 27.3478L22.3633 27.3478L22.3633 21.4347L17.1451 21.4347L17.1451 27.3478L17.8905 27.3478Z" fill="black"/>
</g>
<defs>
<clipPath id="clip0_306_5580">
<rect width="82" height="102" fill="white"/>
</clipPath>
</defs>
</svg>