<svg width="186" height="251" viewBox="0 0 186 251" fill="none" xmlns="http://www.w3.org/2000/svg">
<g clip-path="url(#clip0_3_4)">
<mask id="mask0_3_4" style="mask-type:luminance" maskUnits="userSpaceOnUse" x="0" y="0" width="186" height="251">
<path d="M185.393 0H0.393066V250.795H185.393V0Z" fill="white"/>
</mask>
<g mask="url(#mask0_3_4)">
<path d="M113.786 53.7444V35.8294H107.819V23.8881H101.849V17.9173H95.8819V11.9438H89.9146V17.9173H83.9475V23.8881H77.9802V35.8294H72.0102V53.7444H66.0431V107.486H72.0102V119.428H77.9802V131.369H83.9475V149.284H89.9146V173.17H95.8819V149.284H101.849V131.369H107.819V119.428H113.786V107.486H119.753V53.7444H113.786Z" fill="#FFD800"/>
<path d="M83.9409 5.97192H77.9736V11.9426H72.0037V17.9161H60.0693V23.8868H54.1021V29.8576H48.1348V35.8283H42.1649V47.7725H36.1978V59.7138H30.2305V95.5408H36.1978V113.456H42.1649V119.427H48.1348V131.368H54.1021V137.341H60.0693V143.312H66.0365V155.254H72.0037V167.198H77.9736V173.169H83.9409V149.283H77.9736V131.368H72.0037V119.427H66.0365V107.485H60.0693V53.7431H66.0365V35.8283H72.0037V23.8868H77.9736V17.9161H83.9409V11.9426H89.908V5.97192H83.9409Z" fill="#FF8205"/>
<path d="M149.584 59.7138V47.7725H143.616V35.8283H137.649V29.8576H131.679V23.8868H125.712V17.9161H113.777V11.9426H107.81V5.97192H95.873V11.9426H101.84V17.9161H107.81V23.8868H113.777V35.8283H119.745V53.7431H125.712V107.485H119.745V119.427H113.777V131.368H107.81V149.283H101.84V173.169H107.81V167.198H113.777V155.254H119.745V143.312H125.712V137.341H131.679V131.368H137.649V119.427H143.616V113.456H149.584V95.5408H155.551V59.7138H149.584Z" fill="#46BE00"/>
<path d="M173.461 59.7151V47.7736H167.493V35.8294H161.526V29.8587H155.556V23.8881H149.589V17.9173H137.655V11.9438H125.717V17.9173H131.687V23.8881H137.655V29.8587H143.622V35.8294H149.589V47.7736H155.556V59.7151H161.526V95.5422H155.556V113.457H149.589V119.428H143.622V131.369H137.655V137.343H131.687V143.313H125.717V155.255H119.75V167.199H113.783V173.17H125.717V161.228H131.687V155.255H137.655V149.284H143.622V143.313H149.589V137.343H155.556V131.369H161.526V119.428H167.493V113.457H173.461V101.513H179.428V59.7151H173.461Z" fill="#0082E6"/>
<path d="M119.75 5.97192H113.783V11.9426H125.717V5.97192H119.75Z" fill="#0082E6"/>
<path d="M72.0025 5.97192H60.0681V11.9426H72.0025V5.97192Z" fill="#FA500F"/>
<path d="M24.265 83.6006V59.7151H30.2323V47.7736H36.1994V35.8294H42.1667V29.8587H48.1366V23.8881H54.1037V17.9173H60.071V11.9438H48.1366V17.9173H36.1994V23.8881H30.2323V29.8587H24.265V35.8294H18.2978V47.7736H12.3278V59.7151H6.3606V101.513H12.3278V113.457H18.2978V119.428H24.265V131.369H30.2323V137.343H36.1994V143.313H42.1667V149.284H48.1366V155.255H54.1037V161.228H60.071V173.17H72.0054V167.199H66.0381V155.255H60.071V143.313H54.1037V137.343H48.1366V131.369H42.1667V119.428H36.1994V113.457H30.2323V95.5422H24.265V83.6006Z" fill="#E10500"/>
<path d="M113.786 179.136H66.0431V185.107H119.753V179.136H113.786Z" fill="#E1B496"/>
<path d="M107.812 232.882V214.968H101.842V220.941H95.8747V226.912H89.9075V220.941H83.9403V214.968H77.9731V238.853H72.0032V244.824H89.9075V238.853H83.9403V232.882H89.9075V238.853H95.8747V232.882H101.842V238.853H95.8747V244.824H113.779V238.853H107.812V232.882Z" fill="#E1B496"/>
<path d="M107.819 185.108H66.0431V203.023H72.0102V191.081H83.9475V208.994H89.9146V191.081H95.8819V208.994H101.849V191.081H113.786V203.023H119.753V185.108H107.819Z" fill="black"/>
<path d="M60.0753 161.22H54.1082V173.162H60.0753V161.22Z" fill="black"/>
<path d="M113.778 173.17V167.199H107.811V173.17H101.841V149.284H95.874V173.17H89.9069V149.284H83.9396V173.17H77.9725V167.199H72.0025V173.17H60.0681V185.111H66.0352V179.14H119.746V185.111H125.713V173.17H113.778Z" fill="black"/>
<path d="M125.718 167.194V173.165H131.685V161.22H125.718V167.194Z" fill="black"/>
<path d="M113.783 161.226V167.2H119.75V155.256H113.783V161.226Z" fill="black"/>
<path d="M119.743 149.283V155.253H125.71V143.312H119.743V149.283Z" fill="black"/>
<path d="M131.685 137.34H125.718V143.311H131.685V137.34Z" fill="black"/>
<path d="M137.66 131.368H131.693V137.339H137.66V131.368Z" fill="black"/>
<path d="M137.653 125.395V131.365H143.62V119.424H137.653V125.395Z" fill="black"/>
<path d="M149.588 113.452H143.621V119.423H149.588V113.452Z" fill="black"/>
<path d="M72.0102 155.256H66.0431V167.197H72.0102V155.256Z" fill="black"/>
<path d="M66.0427 143.312H60.0756V155.253H66.0427V143.312Z" fill="black"/>
<path d="M60.0753 137.34H54.1082V143.311H60.0753V137.34Z" fill="black"/>
<path d="M54.1002 131.368H48.1329V137.339H54.1002V131.368Z" fill="black"/>
<path d="M48.1328 119.424H42.1655V131.365H48.1328V119.424Z" fill="black"/>
<path d="M42.1653 113.452H36.198V119.423H42.1653V113.452Z" fill="black"/>
<path d="M36.1978 101.507V95.5363H30.2305V113.451H36.1978V101.507Z" fill="black"/>
<path d="M30.2304 83.5976V59.7119H24.2631V95.5391H30.2304V83.5976Z" fill="black"/>
<path d="M36.1978 53.7389V47.7682H30.2305V59.7095H36.1978V53.7389Z" fill="black"/>
<path d="M66.0431 41.795V53.7392H72.0102V35.8242H66.0431V41.795Z" fill="black"/>
<path d="M113.783 47.7684V53.7392H119.75V35.8242H113.783V47.7684Z" fill="black"/>
<path d="M72.0032 29.8586V35.8293H77.9731V23.8878H72.0032V29.8586Z" fill="black"/>
<path d="M113.783 23.8878H107.816V35.8293H113.783V23.8878Z" fill="black"/>
<path d="M107.815 17.9159H101.848V23.8867H107.815V17.9159Z" fill="black"/>
<path d="M101.84 11.9438H95.873V17.9146H101.84V11.9438Z" fill="black"/>
<path d="M83.9451 17.9159H77.978V23.8867H83.9451V17.9159Z" fill="black"/>
<path d="M89.9052 11.9438H83.9381V17.9146H89.9052V11.9438Z" fill="black"/>
<path d="M125.717 11.9438H113.783V17.9146H125.717V11.9438Z" fill="black"/>
<path d="M131.678 17.9156H125.711V23.8863H131.678V17.9156Z" fill="black"/>
<path d="M131.685 11.9426H137.655V5.97192H125.718V11.9426H131.685Z" fill="black"/>
<path d="M143.62 17.9173H149.588V11.9438H137.653V17.9173H143.62Z" fill="black"/>
<path d="M155.555 17.9156H149.588V23.8863H155.555V17.9156Z" fill="black"/>
<path d="M161.523 23.8878H155.556V29.8586H161.523V23.8878Z" fill="black"/>
<path d="M167.49 29.8597H161.523V35.8305H167.49V29.8597Z" fill="black"/>
<path d="M173.465 35.8242H167.498V47.7657H173.465V35.8242Z" fill="black"/>
<path d="M179.425 47.7682H173.458V59.7095H179.425V47.7682Z" fill="black"/>
<path d="M185.393 59.7119H179.426V101.51H185.393V59.7119Z" fill="black"/>
<path d="M72.0025 5.97072V11.9414H77.9725V5.97072H89.9069V11.9414H95.874V5.97072H107.811V11.9414H113.778V5.97072H125.713V0H60.0681V5.97072H72.0025Z" fill="black"/>
<path d="M60.0675 5.97192H48.1329V11.9426H60.0675V5.97192Z" fill="black"/>
<path d="M48.1324 11.9438H36.198V17.9146H48.1324V11.9438Z" fill="black"/>
<path d="M36.1978 17.9159H30.2305V23.8867H36.1978V17.9159Z" fill="black"/>
<path d="M42.1653 41.795V35.8242H36.198V47.7684H42.1653V41.795Z" fill="black"/>
<path d="M48.1328 29.8597H42.1655V35.8305H48.1328V29.8597Z" fill="black"/>
<path d="M54.1002 23.8878H48.1329V29.8586H54.1002V23.8878Z" fill="black"/>
<path d="M60.0753 17.9159H54.1082V23.8867H60.0753V17.9159Z" fill="black"/>
<path d="M72.0025 11.9438H60.0681V17.9146H72.0025V11.9438Z" fill="black"/>
<path d="M137.66 155.256H131.693V161.226H137.66V155.256Z" fill="black"/>
<path d="M143.62 149.284H137.653V155.255H143.62V149.284Z" fill="black"/>
<path d="M149.588 143.312H143.621V149.283H149.588V143.312Z" fill="black"/>
<path d="M155.555 137.34H149.588V143.311H155.555V137.34Z" fill="black"/>
<path d="M161.523 131.368H155.556V137.339H161.523V131.368Z" fill="black"/>
<path d="M54.1002 155.256H48.1329V161.226H54.1002V155.256Z" fill="black"/>
<path d="M48.1328 149.284H42.1655V155.255H48.1328V149.284Z" fill="black"/>
<path d="M42.1653 143.312H36.198V149.283H42.1653V143.312Z" fill="black"/>
<path d="M36.1978 137.34H30.2305V143.311H36.1978V137.34Z" fill="black"/>
<path d="M107.818 208.996H101.848V214.964H107.818V238.851H113.785V203.025H107.818V208.996Z" fill="black"/>
<path d="M161.523 125.395V131.365H167.493V119.424H161.523V125.395Z" fill="black"/>
<path d="M173.465 113.452H167.498V119.423H173.465V113.452Z" fill="black"/>
<path d="M137.66 23.8878H131.693V29.8586H137.66V23.8878Z" fill="black"/>
<path d="M143.62 29.8597H137.653V35.8305H143.62V29.8597Z" fill="black"/>
<path d="M149.588 35.8242H143.621V47.7657H149.588V35.8242Z" fill="black"/>
<path d="M155.555 47.7682H149.588V59.7095H155.555V47.7682Z" fill="black"/>
<path d="M149.588 101.514V113.459H155.555V95.5437H149.588V101.514Z" fill="black"/>
<path d="M30.2304 23.8878H24.2631V29.8586H30.2304V23.8878Z" fill="black"/>
<path d="M24.2702 29.8597H18.303V35.8305H24.2702V29.8597Z" fill="black"/>
<path d="M18.2981 41.795V35.8242H12.3281V47.7684H18.2981V41.795Z" fill="black"/>
<path d="M12.3278 53.7389V47.7682H6.3606V59.7095H12.3278V53.7389Z" fill="black"/>
<path d="M6.36027 89.5684V59.7119H0.393066V101.51H6.36027V89.5684Z" fill="black"/>
<path d="M155.556 71.6534V95.5391H161.526V59.7119H155.556V71.6534Z" fill="black"/>
<path d="M173.458 107.482V113.452H179.425V101.508H173.458V107.482Z" fill="black"/>
<path d="M77.9703 119.424H72.0032V131.365H77.9703V119.424Z" fill="black"/>
<path d="M72.0102 107.48H66.0431V119.422H72.0102V107.48Z" fill="black"/>
<path d="M107.816 125.395V131.365H113.783V119.424H107.816V125.395Z" fill="black"/>
<path d="M113.783 113.451V119.422H119.75V107.48H113.783V113.451Z" fill="black"/>
<path d="M60.0681 59.7107V107.482H66.0352V53.74H60.0681V59.7107Z" fill="black"/>
<path d="M119.743 65.6815V107.482H125.71V53.74H119.743V65.6815Z" fill="black"/>
<path d="M30.2304 131.368H24.2631V137.339H30.2304V131.368Z" fill="black"/>
<path d="M24.2702 119.424H18.303V131.365H24.2702V119.424Z" fill="black"/>
<path d="M18.2953 113.452H12.3281V119.423H18.2953V113.452Z" fill="black"/>
<path d="M12.3278 101.508H6.3606V113.45H12.3278V101.508Z" fill="black"/>
<path d="M83.9451 137.342V131.368H77.978V149.283H83.9451V137.342Z" fill="black"/>
<path d="M107.818 143.312V131.368H101.848V149.283H107.818V143.312Z" fill="black"/>
<path d="M83.9381 214.966V220.941H89.9052V226.912H95.8725V220.941H101.84V214.966H95.8725V208.996H89.9052V214.966H83.9381Z" fill="black"/>
<path d="M72.0102 238.847H66.0431V244.818H72.0102V238.847Z" fill="black"/>
<path d="M119.75 238.847H113.783V244.818H119.75V238.847Z" fill="black"/>
<path d="M77.9731 232.88V214.964H83.9403V208.996H77.9731V203.025H72.0032V238.851H77.9731V232.88Z" fill="black"/>
<path d="M101.842 244.818H95.8747V238.847H89.9075V244.818H72.0032V250.793H113.779V244.818H101.842Z" fill="black"/>
<path d="M89.9052 232.877H83.9381V238.847H89.9052V232.877Z" fill="black"/>
<path d="M101.84 232.884H95.873V238.855H101.84V232.884Z" fill="black"/>
</g>
</g>
<defs>
<clipPath id="clip0_3_4">
<rect width="185" height="251" fill="white" transform="translate(0.393066)"/>
</clipPath>
</defs>
</svg>
