<svg width="160" height="160" viewBox="0 0 160 160" fill="none" xmlns="http://www.w3.org/2000/svg">
<rect x="16" y="128" width="120" height="8" fill="#1C2175"/>
<rect x="32" y="120" width="96" height="8" fill="#005EA6"/>
<rect x="40" y="112" width="88" height="8" fill="#005EA6"/>
<rect x="40" y="104" width="72" height="8" fill="#005EA6"/>
<rect x="56" y="96" width="56" height="8" fill="#005EA6"/>
<rect x="16" y="128" width="8" height="8" fill="#1C2175"/>
<rect x="24" y="120" width="8" height="8" fill="#0082E6"/>
<rect x="32" y="112" width="8" height="8" fill="#0082E6"/>
<rect x="16" y="120" width="8" height="8" fill="#0082E6"/>
<rect x="24" y="112" width="8" height="8" fill="#0082E6"/>
<rect x="24" y="104" width="8" height="8" fill="#0082E6"/>
<rect x="32" y="96" width="8" height="8" fill="#0082E6"/>
<rect x="32" y="104" width="8" height="8" fill="#0082E6"/>
<rect x="32" y="88" width="8" height="8" fill="#0082E6"/>
<rect x="40" y="80" width="8" height="8" fill="#0082E6"/>
<rect x="40" y="72" width="8" height="8" fill="#0082E6"/>
<rect x="48" y="64" width="8" height="8" fill="#0082E6"/>
<rect x="56" y="64" width="8" height="8" fill="white"/>
<rect x="64" y="64" width="8" height="8" fill="#0082E6"/>
<rect x="56" y="72" width="8" height="8" fill="#0082E6"/>
<rect x="56" y="80" width="8" height="8" fill="#0082E6"/>
<rect x="48" y="88" width="8" height="8" fill="#005EA6"/>
<rect x="64" y="72" width="8" height="8" fill="#0082E6"/>
<rect x="64" y="80" width="8" height="8" fill="#0082E6"/>
<rect x="72" y="80" width="8" height="8" fill="#0082E6"/>
<rect x="72" y="72" width="8" height="8" fill="#0082E6"/>
<rect x="72" y="64" width="8" height="8" fill="#0082E6"/>
<rect x="80" y="72" width="8" height="16" fill="#0082E6"/>
<rect x="80" y="80" width="8" height="8" fill="#005EA6"/>
<rect x="88" y="80" width="8" height="8" fill="#005EA6"/>
<rect x="96" y="64" width="8" height="32" fill="#005EA6"/>
<rect x="104" y="64" width="8" height="32" fill="#005EA6"/>
<rect x="112" y="80" width="8" height="24" fill="#005EA6"/>
<rect x="120" y="96" width="8" height="16" fill="#005EA6"/>
<rect x="128" y="112" width="8" height="16" fill="#005EA6"/>
<rect x="48" y="72" width="8" height="24" fill="#0082E6"/>
<rect x="48" y="88" width="8" height="8" fill="#0082E6"/>
<rect x="40" y="88" width="8" height="16" fill="#0082E6"/>
<rect x="40" y="96" width="8" height="8" fill="#0082E6"/>
<rect x="32" y="104" width="8" height="8" fill="#0082E6"/>
<rect x="48" y="56" width="8" height="8" fill="#0082E6"/>
<rect x="56" y="48" width="8" height="8" fill="#8F9BB2"/>
<rect x="72" y="24" width="8" height="8" fill="#8F9BB2"/>
<rect x="88" y="40" width="8" height="8" fill="#8F9BB2"/>
<rect x="96" y="48" width="8" height="8" fill="#8F9BB2"/>
<rect x="88" y="48" width="8" height="8" fill="#B6BFD1"/>
<rect x="96" y="56" width="8" height="8" fill="#005EA6"/>
<rect x="88" y="56" width="8" height="8" fill="#B6BFD1"/>
<rect x="88" y="64" width="8" height="8" fill="#B6BFD1"/>
<rect x="80" y="40" width="8" height="8" fill="#B6BFD1"/>
<rect x="72" y="48" width="8" height="8" fill="white"/>
<rect x="72" y="56" width="8" height="8" fill="#B6BFD1"/>
<rect x="80" y="64" width="8" height="8" fill="#B6BFD1"/>
<rect x="136" y="120" width="8" height="8" fill="#1C2175"/>
<rect x="128" y="120" width="8" height="8" fill="#1C2175"/>
<rect x="144" y="128" width="8" height="8" fill="#1C2175"/>
<rect x="136" y="128" width="8" height="8" fill="#1C2175"/>
<rect x="8" y="128" width="8" height="8" fill="#1C2175"/>
<rect x="40" y="104" width="8" height="8" fill="#0082E6"/>
<rect x="112" y="104" width="8" height="8" fill="#005EA6"/>
<rect x="120" y="112" width="8" height="8" fill="#005EA6"/>
<rect x="120" y="120" width="8" height="8" fill="#1C2175"/>
<rect x="112" y="120" width="8" height="8" fill="#1C2175"/>
<rect x="128" y="128" width="8" height="8" fill="#1C2175"/>
<rect x="48" y="112" width="8" height="8" fill="#0082E6"/>
<rect x="56" y="112" width="8" height="8" fill="#0082E6"/>
<rect x="40" y="120" width="16" height="8" fill="#0082E6"/>
<rect x="48" y="96" width="8" height="8" fill="#0082E6"/>
<rect x="56" y="96" width="24" height="8" fill="#0082E6"/>
<rect x="72" y="88" width="16" height="8" fill="#0082E6"/>
<rect x="48" y="104" width="24" height="8" fill="#0082E6"/>
<rect x="40" y="112" width="8" height="8" fill="#0082E6"/>
<rect x="32" y="120" width="8" height="8" fill="#0082E6"/>
<rect x="24" y="128" width="32" height="8" fill="#1C2175"/>
<rect x="56" y="88" width="16" height="8" fill="#0082E6"/>
<rect x="88" y="96" width="24" height="8" fill="#005EA6"/>
<rect x="104" y="96" width="8" height="8" fill="#005EA6"/>
<rect x="72" y="32" width="8" height="16" fill="white"/>
<rect x="64" y="40" width="8" height="24" fill="white"/>
<rect x="56" y="56" width="8" height="8" fill="white"/>
<rect x="80" y="32" width="8" height="8" fill="white"/>
<rect x="64" y="64" width="8" height="8" fill="white"/>
<rect x="56" y="72" width="8" height="8" fill="white"/>
<rect x="64" y="80" width="8" height="8" fill="#0082E6"/>
<rect x="80" y="48" width="8" height="8" fill="white"/>
<rect x="80" y="56" width="8" height="8" fill="white"/>
<rect x="88" y="72" width="8" height="8" fill="#B6BFD1"/>
<rect x="80" y="64" width="8" height="8" fill="#B6BFD1"/>
<rect x="96" y="72" width="8" height="8" fill="#B6BFD1"/>
<rect x="48" y="72" width="8" height="8" fill="#B6BFD1"/>
<rect x="64" y="40" width="8" height="8" fill="#8F9BB2"/>
<rect x="64" y="32" width="8" height="8" fill="#8F9BB2"/>
<rect x="80" y="32" width="8" height="8" fill="#8F9BB2"/>
<rect x="56" y="88" width="8" height="8" fill="#9FDA44"/>
<rect x="88" y="88" width="8" height="8" fill="#9FDA44"/>
<rect x="72" y="112" width="8" height="8" fill="#9FDA44"/>
<rect x="56" y="112" width="8" height="8" fill="#9FDA44"/>
<rect x="88" y="112" width="8" height="8" fill="#9FDA44"/>
<rect x="56" y="96" width="16" height="8" fill="#9FDA44"/>
<rect x="48" y="120" width="24" height="8" fill="#9FDA44"/>
<rect x="80" y="120" width="24" height="8" fill="#9FDA44"/>
<rect x="56" y="104" width="40" height="8" fill="#9FDA44"/>
<rect x="80" y="96" width="16" height="8" fill="#9FDA44"/>
<rect x="128" y="112" width="8" height="8" fill="#1C2175"/>
<rect x="120" y="112" width="8" height="8" fill="#1C2175"/>
<rect x="120" y="104" width="8" height="8" fill="#1C2175"/>
<rect x="120" y="96" width="8" height="8" fill="#1C2175"/>
<rect x="112" y="96" width="8" height="8" fill="#1C2175"/>
<rect x="112" y="88" width="8" height="8" fill="#1C2175"/>
<rect x="104" y="88" width="8" height="8" fill="#1C2175"/>
<rect x="112" y="80" width="8" height="8" fill="#1C2175"/>
<rect x="80" y="88" width="8" height="8" fill="#005EA6"/>
<rect x="80" y="72" width="8" height="8" fill="#005EA6"/>
</svg>
