<svg width="169" height="218" viewBox="0 0 169 218" fill="none" xmlns="http://www.w3.org/2000/svg">
<g clip-path="url(#clip0_3_343)">
<path d="M130.936 37.913H116.672V48.9656H130.936V60.029H145.201V37.913H130.936Z" fill="#00AAE6"/>
<path d="M133.202 199.043H61.2006V211.681H145.201V199.043H133.202Z" fill="black"/>
<path d="M137.505 15.7971H24.7477V28.4348H156.295V15.7971H137.505Z" fill="black"/>
<path d="M48.5213 199.043H37.427V211.681H48.5213V199.043Z" fill="black"/>
<path d="M37.4269 199.043H24.7477V211.681H37.4269V199.043Z" fill="black"/>
<path d="M156.295 199.043H145.201V211.681H156.295V199.043Z" fill="black"/>
<path d="M24.7477 187.986H13.6533V199.044H24.7477V187.986Z" fill="black"/>
<path d="M24.7477 28.4348H13.6533V39.4928H24.7477V28.4348Z" fill="black"/>
<path d="M13.6534 39.4928H0.974121V187.986H13.6534V39.4928Z" fill="black"/>
<path d="M168.974 26.8551H156.295V199.043H168.974V26.8551Z" fill="black"/>
<path d="M144.323 28.4348H48.5212V164.29H156.295V28.4348H144.323ZM144.323 47.8386V57.5405H132.35V47.8386H120.378V38.1367H144.323V47.8386Z" fill="#0082E6"/>
<path d="M24.7477 38.1367V164.29H37.4269V28.4348H24.7477V38.1367Z" fill="#0082E6"/>
<path d="M48.5212 187.455V211.681H61.2005V175.348H48.5212V187.455Z" fill="#E10500"/>
<path d="M36.7906 176.138H145.201V164.29H24.7477V187.986H36.7906V176.138Z" fill="#828282"/>
<path d="M85.1972 187.986H145.201V175.348H61.2006V187.986H85.1972Z" fill="white"/>
<path d="M48.5213 175.348H37.427V187.986H48.5213V175.348Z" fill="white"/>
<path d="M156.295 164.29H145.201V175.348H156.295V164.29Z" fill="#323796"/>
<path d="M13.6533 176.138V187.986H24.7477V164.29H13.6533V176.138Z" fill="#323796"/>
<path d="M37.427 38.1367V164.29H48.5213V28.4348H37.427V38.1367Z" fill="#323796"/>
<path d="M48.5213 187.986H24.7477V199.044H48.5213V187.986Z" fill="#0082E6"/>
<path d="M144.41 175.348V187.19H61.2006V199.043H156.295V175.348H144.41Z" fill="#0082E6"/>
<path d="M24.7477 154.692V39.4928H13.6533V164.29H24.7477V154.692Z" fill="#323796"/>
<path d="M120.525 117.849V71.0869H108.516V82.7745H96.5196V94.4735H84.5229V82.7745H72.5262V71.0869H60.5296V117.849H48.5212V129.536H84.5229V117.849H72.5262V106.161H84.5229V117.849H96.5196V106.161H108.516V117.849H96.5196V129.536H132.521V117.849H120.525Z" fill="#F1F1F1"/>
</g>
<defs>
<clipPath id="clip0_3_343">
<rect width="168" height="218" fill="white" transform="translate(0.974121)"/>
</clipPath>
</defs>
</svg>
