<svg width="186" height="232" viewBox="0 0 186 232" fill="none" xmlns="http://www.w3.org/2000/svg">
<g clip-path="url(#clip0_3_392)">
<path d="M159.511 36.2899H82.957V138.319H172.267V36.2899H159.511Z" fill="#FFAF00"/>
<path d="M93.8932 138.319H82.957V151.072H95.7157V138.319H93.8932Z" fill="black"/>
<path d="M93.8932 23.5362H82.957V36.2899H95.7157V23.5362H93.8932Z" fill="black"/>
<path d="M81.1354 125.565H70.1992V138.319H82.9578V125.565H81.1354Z" fill="black"/>
<path d="M81.1354 112.811H70.1992V125.565H82.9578V112.811H81.1354Z" fill="black"/>
<path d="M81.1354 100.058H70.1992V112.812H82.9578V100.058H81.1354Z" fill="black"/>
<path d="M81.1354 87.3043H70.1992V100.058H82.9578V87.3043H81.1354Z" fill="black"/>
<path d="M81.1354 74.5508H70.1992V87.3044H82.9578V74.5508H81.1354Z" fill="black"/>
<path d="M81.1354 61.7972H70.1992V74.5508H82.9578V61.7972H81.1354Z" fill="black"/>
<path d="M81.1354 49.0434H70.1992V61.797H82.9578V49.0434H81.1354Z" fill="black"/>
<path d="M106.652 138.319H95.7156V151.072H108.474V138.319H106.652Z" fill="black"/>
<path d="M119.41 138.319H108.474V151.073H121.232V138.319H119.41Z" fill="black"/>
<path d="M132.168 138.319H121.232V151.073H133.991V138.319H132.168Z" fill="black"/>
<path d="M144.926 138.319H133.99V151.073H146.749V138.319H144.926Z" fill="black"/>
<path d="M157.688 138.319H146.751V151.073H159.51V138.319H157.688Z" fill="black"/>
<path d="M170.446 138.319H159.51V151.073H172.268V138.319H170.446Z" fill="black"/>
<path d="M81.1354 36.2898H70.1992V49.0434H82.9578V36.2898H81.1354Z" fill="black"/>
<path d="M106.652 23.5362H95.7156V36.2899H108.474V23.5362H106.652Z" fill="black"/>
<path d="M119.41 23.5362H108.474V36.2899H121.232V23.5362H119.41Z" fill="black"/>
<path d="M132.168 23.5362H121.232V36.2899H133.991V23.5362H132.168Z" fill="black"/>
<path d="M144.926 23.5362H133.99V36.2899H146.749V23.5362H144.926Z" fill="black"/>
<path d="M157.688 23.5362H146.751V36.2899H159.51V23.5362H157.688Z" fill="black"/>
<path d="M170.446 23.5362H159.51V36.2899H172.268V23.5362H170.446Z" fill="black"/>
<path d="M183.204 112.811H172.268V125.565H185.026V112.811H183.204Z" fill="black"/>
<path d="M183.204 125.565H172.268V138.319H185.026V125.565H183.204Z" fill="black"/>
<path d="M183.204 100.058H172.268V112.812H185.026V100.058H183.204Z" fill="black"/>
<path d="M183.204 87.3043H172.268V100.058H185.026V87.3043H183.204Z" fill="black"/>
<path d="M183.204 74.5508H172.268V87.3044H185.026V74.5508H183.204Z" fill="black"/>
<path d="M183.204 61.7972H172.268V74.5508H185.026V61.7972H183.204Z" fill="black"/>
<path d="M183.204 49.0434H172.268V61.797H185.026V49.0434H183.204Z" fill="black"/>
<path d="M183.204 36.2898H172.268V49.0434H185.026V36.2898H183.204Z" fill="black"/>
<path d="M106.652 58.6087H95.7156V71.3623H108.474V58.6087H106.652Z" fill="#A06B39"/>
<path d="M119.41 58.6087H108.474V71.3623H121.232V58.6087H119.41Z" fill="#A06B39"/>
<path d="M132.168 58.6087H121.232V71.3623H133.99V58.6087H132.168Z" fill="#A06B39"/>
<path d="M144.926 58.6087H133.99V71.3623H146.749V58.6087H144.926Z" fill="#A06B39"/>
<path d="M157.688 58.6087H146.751V71.3623H159.51V58.6087H157.688Z" fill="#A06B39"/>
<path d="M144.926 71.3623H133.99V84.1159H146.749V71.3623H144.926Z" fill="#A06B39"/>
<path d="M132.168 84.1158H121.232V96.8695H133.99V84.1158H132.168Z" fill="#A06B39"/>
<path d="M132.168 96.8696H121.232V109.623H133.99V96.8696H132.168Z" fill="#A06B39"/>
<path d="M132.168 109.623H121.232V122.377H133.99V109.623H132.168Z" fill="#A06B39"/>
<path d="M119.41 109.623H108.474V122.377H121.232V109.623H119.41Z" fill="#A06B39"/>
<path d="M106.652 109.623H95.7156V122.377H108.474V109.623H106.652Z" fill="#A06B39"/>
<path d="M144.926 109.623H133.99V122.377H146.749V109.623H144.926Z" fill="#A06B39"/>
<path d="M157.688 109.623H146.751V122.377H159.51V109.623H157.688Z" fill="#A06B39"/>
<path d="M119.41 84.1158H108.474V96.8695H121.232V84.1158H119.41Z" fill="#A06B39"/>
<path d="M132.168 45.8551H121.232V58.6087H133.99V45.8551H132.168Z" fill="#A06B39"/>
<path d="M89.3376 93.6811H12.7841V195.71H102.094V93.6811H89.3376Z" fill="#0082E6"/>
<path d="M23.7203 195.71H12.7841V208.464H25.5427V195.71H23.7203Z" fill="black"/>
<path d="M23.7203 80.9276H12.7841V93.6812H25.5427V80.9276H23.7203Z" fill="black"/>
<path d="M10.9621 182.957H0.0258789V195.71H12.7845V182.957H10.9621Z" fill="black"/>
<path d="M10.9621 170.203H0.0258789V182.957H12.7845V170.203H10.9621Z" fill="black"/>
<path d="M10.9621 157.449H0.0258789V170.203H12.7845V157.449H10.9621Z" fill="black"/>
<path d="M10.9621 144.696H0.0258789V157.449H12.7845V144.696H10.9621Z" fill="black"/>
<path d="M10.9621 131.942H0.0258789V144.696H12.7845V131.942H10.9621Z" fill="black"/>
<path d="M10.9621 119.188H0.0258789V131.942H12.7845V119.188H10.9621Z" fill="black"/>
<path d="M10.9621 106.435H0.0258789V119.188H12.7845V106.435H10.9621Z" fill="black"/>
<path d="M36.4784 195.71H25.5422V208.464H38.3009V195.71H36.4784Z" fill="black"/>
<path d="M49.2366 195.71H38.3004V208.464H51.059V195.71H49.2366Z" fill="black"/>
<path d="M61.998 195.71H51.0618V208.464H63.8204V195.71H61.998Z" fill="black"/>
<path d="M74.7563 195.71H63.8201V208.464H76.5787V195.71H74.7563Z" fill="black"/>
<path d="M87.5143 195.71H76.5781V208.464H89.3367V195.71H87.5143Z" fill="black"/>
<path d="M100.272 195.71H89.3362V208.464H102.095V195.71H100.272Z" fill="black"/>
<path d="M10.9621 93.6812H0.0258789V106.435H12.7845V93.6812H10.9621Z" fill="black"/>
<path d="M36.4784 80.9276H25.5422V93.6812H38.3009V80.9276H36.4784Z" fill="black"/>
<path d="M49.2366 80.9276H38.3004V93.6812H51.059V80.9276H49.2366Z" fill="black"/>
<path d="M61.998 80.9276H51.0618V93.6812H63.8204V80.9276H61.998Z" fill="black"/>
<path d="M74.7563 80.9276H63.8201V93.6812H76.5787V80.9276H74.7563Z" fill="black"/>
<path d="M87.5143 80.9276H76.5781V93.6812H89.3367V80.9276H87.5143Z" fill="black"/>
<path d="M100.272 80.9275H89.3362V93.6812H102.095V80.9275H100.272Z" fill="black"/>
<path d="M113.031 170.203H102.095V182.957H114.853V170.203H113.031Z" fill="black"/>
<path d="M113.031 182.957H102.095V195.71H114.853V182.957H113.031Z" fill="black"/>
<path d="M113.031 157.449H102.095V170.203H114.853V157.449H113.031Z" fill="black"/>
<path d="M113.031 144.696H102.095V157.449H114.853V144.696H113.031Z" fill="black"/>
<path d="M113.031 131.942H102.095V144.696H114.853V131.942H113.031Z" fill="black"/>
<path d="M113.031 119.188H102.095V131.942H114.853V119.188H113.031Z" fill="black"/>
<path d="M113.031 106.435H102.095V119.188H114.853V106.435H113.031Z" fill="black"/>
<path d="M113.031 93.6812H102.095V106.435H114.853V93.6812H113.031Z" fill="black"/>
<path d="M89.3373 168.292V116H76.5803V129.076H63.8178V142.146H51.0607V129.076H38.3036V116H25.5411V168.292H12.7841V181.362H51.0607V168.292H38.3036V155.216H51.0607V168.292H63.8178V155.216H76.5803V168.292H63.8178V181.362H102.094V168.292H89.3373Z" fill="white"/>
<path d="M144.662 195.014H134.571V208.464H146.344V195.014H144.662Z" fill="black"/>
<path d="M132.649 183.246H121.117V195.015H134.571V183.246H132.649Z" fill="black"/>
<path d="M40.3893 36.9855L50.4805 36.9855L50.4805 23.5362L38.7077 23.5362L38.7077 36.9855L40.3893 36.9855Z" fill="black"/>
<path d="M144.662 183.246H134.571V195.015H146.344V183.246H144.662Z" fill="black"/>
<path d="M157.877 183.246H146.344V195.015H159.799V183.246H157.877Z" fill="black"/>
<path d="M52.4023 48.7536L63.9351 48.7536L63.9351 36.9855L50.4805 36.9855L50.4805 48.7536L52.4023 48.7536Z" fill="black"/>
<path d="M169.89 183.246H159.799V195.015H171.571V183.246H169.89Z" fill="black"/>
<path d="M40.3893 48.7536L50.4805 48.7536L50.4805 36.9855L38.7077 36.9855L38.7077 48.7536L40.3893 48.7536Z" fill="black"/>
<path d="M183.104 169.797H171.571V183.246H185.026V169.797H183.104Z" fill="black"/>
<path d="M183.104 158.029H171.571V169.797H185.026V158.029H183.104Z" fill="black"/>
<path d="M27.1749 48.7536L38.7076 48.7536L38.7076 36.9855L25.2531 36.9855L25.2531 48.7536L27.1749 48.7536Z" fill="black"/>
<path d="M144.662 169.797H134.571V183.246H146.344V169.797H144.662Z" fill="black"/>
<path d="M15.162 48.7536L25.2532 48.7536L25.2532 36.9855L13.4804 36.9855L13.4804 48.7536L15.162 48.7536Z" fill="black"/>
<path d="M1.94773 62.2029L13.4805 62.2029L13.4805 48.7536L0.025922 48.7536L0.0259209 62.2029L1.94773 62.2029Z" fill="black"/>
<path d="M1.94773 73.971L13.4805 73.971L13.4805 62.2029L0.0259219 62.2029L0.0259209 73.971L1.94773 73.971Z" fill="black"/>
<path d="M40.3893 62.2029L50.4805 62.2029L50.4805 48.7536L38.7077 48.7536L38.7077 62.2029L40.3893 62.2029Z" fill="black"/>
</g>
<defs>
<clipPath id="clip0_3_392">
<rect width="185" height="232" fill="white" transform="translate(0.0258789)"/>
</clipPath>
</defs>
</svg>
