<svg width="223" height="198" viewBox="0 0 223 198" fill="none" xmlns="http://www.w3.org/2000/svg">
<g clip-path="url(#clip0_1_4)">
<path d="M6.55971 170.739H0.97406V180.065H10.2837V170.739H6.55971Z" fill="black"/>
<path d="M6.55971 161.413H0.97406V170.739H10.2837V161.413H6.55971Z" fill="black"/>
<path d="M6.55971 152.087H0.97406V161.413H10.2837V152.087H6.55971Z" fill="black"/>
<path d="M64.2786 58.8261H19.5934V152.087H94.0708V58.8261H64.2786Z" fill="#00AAE6"/>
<path d="M64.2794 30.8478H47.5224V124.109H75.4515V30.8478H64.2794Z" fill="#00AAE6"/>
<path d="M96.8633 86.8044H80.1063V152.087H108.035V86.8044H96.8633Z" fill="#00AAE6"/>
<path d="M109.664 96.1304H92.9071V152.087H120.836V96.1304H109.664Z" fill="#00AAE6"/>
<path d="M164.125 124.109H117.345V152.087H195.314V124.109H164.125Z" fill="#00AAE6"/>
<path d="M182.744 133.435H135.964V152.087H213.933V133.435H182.744Z" fill="#00AAE6"/>
<path d="M108.267 114.783H61.487V142.761H139.456V114.783H108.267Z" fill="#00AAE6"/>
<path d="M85.5913 143.463V134.834V126.206V117.582V108.954H77.1118V117.582H68.636V126.206H60.1565V117.582H51.677V108.954H43.1975V117.582V126.206V134.834V143.463H34.7216V152.087H43.1975H51.677H60.1565V143.463H51.677V134.834H60.1565V143.463H68.636V134.834H77.1118V143.463H68.636V152.087H77.1118H85.5913H94.0708V143.463H85.5913Z" fill="#FFD800"/>
<path d="M51.0136 100.793H42.8676V108.954H51.0136V100.793Z" fill="black"/>
<path d="M60.3233 108.954H51.0136V118.28H60.3233V108.954Z" fill="black"/>
<path d="M76.6152 108.954H68.4692V118.28H76.6152V108.954Z" fill="black"/>
<path d="M68.4692 118.28H60.3233V126.44H68.4692V118.28Z" fill="black"/>
<path d="M85.9249 100.793H76.6152V108.954H85.9249V100.793Z" fill="black"/>
<path d="M102.217 143.927H94.0708V152.087H102.217V143.927Z" fill="black"/>
<path d="M68.4692 143.927H60.3233V152.087H68.4692V143.927Z" fill="black"/>
<path d="M34.7216 143.927H26.5757V152.087H34.7216V143.927Z" fill="black"/>
<path d="M42.8676 135.182V126.438V117.698V108.954H34.7216V117.698V126.438V135.182V143.927H42.8676V135.182Z" fill="black"/>
<path d="M94.0708 126.438V117.698V108.954H85.9249V117.698V126.438V135.182V143.927H94.0708V135.182V126.438Z" fill="black"/>
<path d="M60.3233 134.601H51.0136V143.927H60.3233V134.601Z" fill="black"/>
<path d="M76.6152 134.601H68.4692V143.927H76.6152V134.601Z" fill="black"/>
<path d="M15.8694 180.065H10.2837V189.391H19.5934V180.065H15.8694Z" fill="black"/>
<path d="M15.8694 170.739H10.2837V180.065H19.5934V170.739H15.8694Z" fill="white"/>
<path d="M15.8694 161.413H10.2837V170.739H19.5934V161.413H15.8694Z" fill="white"/>
<path d="M15.8694 152.087H10.2837V161.413H19.5934V152.087H15.8694Z" fill="black"/>
<path d="M15.8694 142.761H10.2837V152.087H19.5934V142.761H15.8694Z" fill="black"/>
<path d="M15.8694 133.435H10.2837V142.761H19.5934V133.435H15.8694Z" fill="black"/>
<path d="M15.8694 124.109H10.2837V133.435H19.5934V124.109H15.8694Z" fill="black"/>
<path d="M15.8694 114.783H10.2837V124.109H19.5934V114.783H15.8694Z" fill="black"/>
<path d="M25.1791 105.457H19.5934V114.783H28.9031V105.457H25.1791Z" fill="black"/>
<path d="M25.1791 96.1304H19.5934V105.457H28.9031V96.1304H25.1791Z" fill="black"/>
<path d="M25.1791 86.8044H19.5934V96.1304H28.9031V86.8044H25.1791Z" fill="black"/>
<path d="M25.1791 77.4783H19.5934V86.8043H28.9031V77.4783H25.1791Z" fill="black"/>
<path d="M25.1791 68.1522H19.5934V77.4783H28.9031V68.1522H25.1791Z" fill="black"/>
<path d="M25.1791 152.087H19.5934V161.413H28.9031V152.087H25.1791Z" fill="black"/>
<path d="M34.4887 152.087H28.9031V161.413H38.2128V152.087H34.4887Z" fill="black"/>
<path d="M61.2541 152.087H55.6684V161.413H64.9781V152.087H61.2541Z" fill="black"/>
<path d="M43.7984 152.087H38.2128V161.413H47.5224V152.087H43.7984Z" fill="black"/>
<path d="M70.5637 152.087H64.9781V161.413H74.2878V152.087H70.5637Z" fill="black"/>
<path d="M53.1081 152.087H47.5224V161.413H56.8321V152.087H53.1081Z" fill="black"/>
<path d="M79.8734 152.087H74.2878V161.413H83.5974V152.087H79.8734Z" fill="black"/>
<path d="M89.1831 152.087H83.5974V161.413H92.9071V152.087H89.1831Z" fill="black"/>
<path d="M98.4928 152.087H92.9071V161.413H102.217V152.087H98.4928Z" fill="black"/>
<path d="M107.802 152.087H102.217V161.413H111.526V152.087H107.802Z" fill="black"/>
<path d="M117.112 152.087H111.526V161.413H120.836V152.087H117.112Z" fill="black"/>
<path d="M126.422 152.087H120.836V161.413H130.146V152.087H126.422Z" fill="black"/>
<path d="M135.731 152.087H130.146V161.413H139.456V152.087H135.731Z" fill="black"/>
<path d="M145.041 152.087H139.456V161.413H148.765V152.087H145.041Z" fill="black"/>
<path d="M154.351 152.087H148.765V161.413H158.075V152.087H154.351Z" fill="black"/>
<path d="M163.661 152.087H158.075V161.413H167.385V152.087H163.661Z" fill="black"/>
<path d="M172.97 152.087H167.385V161.413H176.694V152.087H172.97Z" fill="black"/>
<path d="M182.28 152.087H176.694V161.413H186.004V152.087H182.28Z" fill="black"/>
<path d="M191.59 152.087H186.004V161.413H195.314V152.087H191.59Z" fill="black"/>
<path d="M200.899 152.087H195.314V161.413H204.623V152.087H200.899Z" fill="black"/>
<path d="M210.209 152.087H204.623V161.413H213.933V152.087H210.209Z" fill="black"/>
<path d="M219.519 152.087H213.933V161.413H223.243V152.087H219.519Z" fill="black"/>
<path d="M219.519 142.761H213.933V152.087H223.243V142.761H219.519Z" fill="black"/>
<path d="M210.209 133.435H204.623V142.761H213.933V133.435H210.209Z" fill="black"/>
<path d="M200.899 133.435H195.314V142.761H204.623V133.435H200.899Z" fill="black"/>
<path d="M191.59 124.109H186.004V133.435H195.314V124.109H191.59Z" fill="black"/>
<path d="M182.28 124.109H176.694V133.435H186.004V124.109H182.28Z" fill="black"/>
<path d="M182.28 133.435H176.694V142.761H186.004V133.435H182.28Z" fill="black"/>
<path d="M172.97 142.761H167.385V152.087H176.694V142.761H172.97Z" fill="black"/>
<path d="M172.97 124.109H167.385V133.435H176.694V124.109H172.97Z" fill="black"/>
<path d="M163.661 114.783H158.075V124.109H167.385V114.783H163.661Z" fill="black"/>
<path d="M154.351 114.783H148.765V124.109H158.075V114.783H154.351Z" fill="black"/>
<path d="M135.731 105.457H130.146V114.783H139.456V105.457H135.731Z" fill="black"/>
<path d="M117.112 96.1304H111.526V105.457H120.836V96.1304H117.112Z" fill="black"/>
<path d="M107.802 86.8044H102.217V96.1304H111.526V86.8044H107.802Z" fill="black"/>
<path d="M99.6565 77.4783H94.0708V86.8043H103.381V77.4783H99.6565Z" fill="black"/>
<path d="M90.3468 68.1522H84.7612V77.4783H94.0708V68.1522H90.3468Z" fill="black"/>
<path d="M90.3468 58.8261H84.7612V68.1522H94.0708V58.8261H90.3468Z" fill="black"/>
<path d="M81.0371 49.5H75.4515V58.8261H84.7612V49.5H81.0371Z" fill="black"/>
<path d="M71.7275 40.1739H66.1418V49.5H75.4515V40.1739H71.7275Z" fill="black"/>
<path d="M71.7275 30.8478H66.1418V40.1739H75.4515V30.8478H71.7275Z" fill="black"/>
<path d="M62.4178 30.8478H56.8321V40.1739H66.1418V30.8478H62.4178Z" fill="#0082E6"/>
<path d="M62.4178 40.1739H56.8321V49.5H66.1418V40.1739H62.4178Z" fill="#0082E6"/>
<path d="M62.4178 49.5H56.8321V58.8261H66.1418V49.5H62.4178Z" fill="#0082E6"/>
<path d="M62.4178 58.8261H56.8321V68.1522H66.1418V58.8261H62.4178Z" fill="#0082E6"/>
<path d="M81.0371 58.8261H75.4515V68.1522H84.7612V58.8261H81.0371Z" fill="#0082E6"/>
<path d="M81.0371 68.1522H75.4515V77.4783H84.7612V68.1522H81.0371Z" fill="#0082E6"/>
<path d="M98.4928 86.8044H92.9071V96.1304H102.217V86.8044H98.4928Z" fill="#0082E6"/>
<path d="M117.112 105.457H111.526V114.783H120.836V105.457H117.112Z" fill="#0082E6"/>
<path d="M135.731 114.783H130.146V124.109H139.456V114.783H135.731Z" fill="#0082E6"/>
<path d="M163.661 124.109H158.075V133.435H167.385V124.109H163.661Z" fill="#0082E6"/>
<path d="M90.3468 86.8044H84.7612V96.1304H94.0708V86.8044H90.3468Z" fill="#0082E6"/>
<path d="M71.7275 68.1522H66.1418V77.4783H75.4515V68.1522H71.7275Z" fill="#0082E6"/>
<path d="M90.3468 77.4783H84.7612V86.8043H94.0708V77.4783H90.3468Z" fill="#0082E6"/>
<path d="M107.802 105.457H102.217V114.783H111.526V105.457H107.802Z" fill="#0082E6"/>
<path d="M126.422 114.783H120.836V124.109H130.146V114.783H126.422Z" fill="#0082E6"/>
<path d="M154.351 124.109H148.765V133.435H158.075V124.109H154.351Z" fill="#0082E6"/>
<path d="M71.7275 58.8261H66.1418V68.1522H75.4515V58.8261H71.7275Z" fill="black"/>
<path d="M81.0371 77.4783H75.4515V86.8043H84.7612V77.4783H81.0371Z" fill="black"/>
<path d="M98.4928 96.1304H92.9071V105.457H102.217V96.1304H98.4928Z" fill="black"/>
<path d="M117.112 113.617H111.526V122.943H120.836V113.617H117.112Z" fill="black"/>
<path d="M145.041 124.109H139.456V133.435H148.765V124.109H145.041Z" fill="black"/>
<path d="M107.802 96.1304H102.217V105.457H111.526V96.1304H107.802Z" fill="#0082E6"/>
<path d="M53.1081 49.5H47.5224V58.8261H56.8321V49.5H53.1081Z" fill="#0082E6"/>
<path d="M71.7275 49.5H66.1418V58.8261H75.4515V49.5H71.7275Z" fill="#0082E6"/>
<path d="M62.4178 21.5217H56.8321V30.8478H66.1418V21.5217H62.4178Z" fill="black"/>
<path d="M53.1081 30.8478H47.5224V40.1739H56.8321V30.8478H53.1081Z" fill="black"/>
<path d="M53.1081 40.1739H47.5224V49.5H56.8321V40.1739H53.1081Z" fill="black"/>
<path d="M43.7984 49.5H38.2128V58.8261H47.5224V49.5H43.7984Z" fill="black"/>
<path d="M34.4887 49.5H28.9031V58.8261H38.2128V49.5H34.4887Z" fill="black"/>
<path d="M25.1791 49.5H19.5934V58.8261H28.9031V49.5H25.1791Z" fill="black"/>
<path d="M15.8694 40.1739H10.2837V49.5H19.5934V40.1739H15.8694Z" fill="black"/>
<path d="M15.8694 49.5H10.2837V58.8261H19.5934V49.5H15.8694Z" fill="black"/>
<path d="M15.8694 58.8261H10.2837V68.1522H19.5934V58.8261H15.8694Z" fill="black"/>
<path d="M145.041 114.783H139.456V124.109H148.765V114.783H145.041Z" fill="black"/>
<path d="M126.422 105.457H120.836V114.783H130.146V105.457H126.422Z" fill="black"/>
<path d="M219.519 161.413H213.933V170.739H223.243V161.413H219.519Z" fill="black"/>
<path d="M219.519 170.739H213.933V180.065H223.243V170.739H219.519Z" fill="black"/>
<path d="M25.1791 180.065H19.5934V189.391H28.9031V180.065H25.1791Z" fill="black"/>
<path d="M25.1791 161.413H19.5934V170.739H28.9031V161.413H25.1791Z" fill="white"/>
<path d="M25.1791 170.739H19.5934V180.065H28.9031V170.739H25.1791Z" fill="white"/>
<path d="M34.4887 161.413H28.9031V170.739H38.2128V161.413H34.4887Z" fill="white"/>
<path d="M34.4887 180.065H28.9031V189.391H38.2128V180.065H34.4887Z" fill="black"/>
<path d="M34.4887 170.739H28.9031V180.065H38.2128V170.739H34.4887Z" fill="white"/>
<path d="M61.2541 161.413H55.6684V170.739H64.9781V161.413H61.2541Z" fill="white"/>
<path d="M61.2541 180.065H55.6684V189.391H64.9781V180.065H61.2541Z" fill="black"/>
<path d="M43.7984 161.413H38.2128V170.739H47.5224V161.413H43.7984Z" fill="white"/>
<path d="M61.2541 170.739H55.6684V180.065H64.9781V170.739H61.2541Z" fill="white"/>
<path d="M70.5637 161.413H64.9781V170.739H74.2878V161.413H70.5637Z" fill="white"/>
<path d="M43.7984 180.065H38.2128V189.391H47.5224V180.065H43.7984Z" fill="black"/>
<path d="M43.7984 170.739H38.2128V180.065H47.5224V170.739H43.7984Z" fill="white"/>
<path d="M53.1081 161.413H47.5224V170.739H56.8321V161.413H53.1081Z" fill="white"/>
<path d="M70.5637 180.065H64.9781V189.391H74.2878V180.065H70.5637Z" fill="black"/>
<path d="M79.8734 161.413H74.2878V170.739H83.5974V161.413H79.8734Z" fill="white"/>
<path d="M70.5637 170.739H64.9781V180.065H74.2878V170.739H70.5637Z" fill="white"/>
<path d="M89.1831 161.413H83.5974V170.739H92.9071V161.413H89.1831Z" fill="white"/>
<path d="M53.1081 180.065H47.5224V189.391H56.8321V180.065H53.1081Z" fill="black"/>
<path d="M53.1081 170.739H47.5224V180.065H56.8321V170.739H53.1081Z" fill="white"/>
<path d="M98.4928 161.413H92.9071V170.739H102.217V161.413H98.4928Z" fill="white"/>
<path d="M79.8734 180.065H74.2878V189.391H83.5974V180.065H79.8734Z" fill="black"/>
<path d="M107.802 161.413H102.217V170.739H111.526V161.413H107.802Z" fill="white"/>
<path d="M79.8734 170.739H74.2878V180.065H83.5974V170.739H79.8734Z" fill="white"/>
<path d="M117.112 161.413H111.526V170.739H120.836V161.413H117.112Z" fill="white"/>
<path d="M89.1831 180.065H83.5974V189.391H92.9071V180.065H89.1831Z" fill="black"/>
<path d="M89.1831 170.739H83.5974V180.065H92.9071V170.739H89.1831Z" fill="white"/>
<path d="M126.422 161.413H120.836V170.739H130.146V161.413H126.422Z" fill="white"/>
<path d="M98.4928 180.065H92.9071V189.391H102.217V180.065H98.4928Z" fill="black"/>
<path d="M135.731 161.413H130.146V170.739H139.456V161.413H135.731Z" fill="white"/>
<path d="M98.4928 170.739H92.9071V180.065H102.217V170.739H98.4928Z" fill="white"/>
<path d="M145.041 161.413H139.456V170.739H148.765V161.413H145.041Z" fill="white"/>
<path d="M107.802 180.065H102.217V189.391H111.526V180.065H107.802Z" fill="black"/>
<path d="M107.802 170.739H102.217V180.065H111.526V170.739H107.802Z" fill="white"/>
<path d="M154.351 161.413H148.765V170.739H158.075V161.413H154.351Z" fill="white"/>
<path d="M117.112 180.065H111.526V189.391H120.836V180.065H117.112Z" fill="black"/>
<path d="M163.661 161.413H158.075V170.739H167.385V161.413H163.661Z" fill="white"/>
<path d="M117.112 170.739H111.526V180.065H120.836V170.739H117.112Z" fill="white"/>
<path d="M172.97 161.413H167.385V170.739H176.694V161.413H172.97Z" fill="white"/>
<path d="M126.422 180.065H120.836V189.391H130.146V180.065H126.422Z" fill="black"/>
<path d="M126.422 170.739H120.836V180.065H130.146V170.739H126.422Z" fill="white"/>
<path d="M182.28 161.413H176.694V170.739H186.004V161.413H182.28Z" fill="white"/>
<path d="M135.731 180.065H130.146V189.391H139.456V180.065H135.731Z" fill="black"/>
<path d="M191.59 161.413H186.004V170.739H195.314V161.413H191.59Z" fill="white"/>
<path d="M135.731 170.739H130.146V180.065H139.456V170.739H135.731Z" fill="white"/>
<path d="M200.899 161.413H195.314V170.739H204.623V161.413H200.899Z" fill="white"/>
<path d="M145.041 180.065H139.456V189.391H148.765V180.065H145.041Z" fill="black"/>
<path d="M145.041 170.739H139.456V180.065H148.765V170.739H145.041Z" fill="white"/>
<path d="M210.209 161.413H204.623V170.739H213.933V161.413H210.209Z" fill="white"/>
<path d="M154.351 180.065H148.765V189.391H158.075V180.065H154.351Z" fill="black"/>
<path d="M154.351 170.739H148.765V180.065H158.075V170.739H154.351Z" fill="white"/>
<path d="M163.661 180.065H158.075V189.391H167.385V180.065H163.661Z" fill="black"/>
<path d="M163.661 170.739H158.075V180.065H167.385V170.739H163.661Z" fill="white"/>
<path d="M172.97 180.065H167.385V189.391H176.694V180.065H172.97Z" fill="black"/>
<path d="M172.97 170.739H167.385V180.065H176.694V170.739H172.97Z" fill="white"/>
<path d="M182.28 180.065H176.694V189.391H186.004V180.065H182.28Z" fill="black"/>
<path d="M182.28 170.739H176.694V180.065H186.004V170.739H182.28Z" fill="white"/>
<path d="M191.59 180.065H186.004V189.391H195.314V180.065H191.59Z" fill="black"/>
<path d="M191.59 170.739H186.004V180.065H195.314V170.739H191.59Z" fill="white"/>
<path d="M200.899 180.065H195.314V189.391H204.623V180.065H200.899Z" fill="black"/>
<path d="M200.899 170.739H195.314V180.065H204.623V170.739H200.899Z" fill="white"/>
<path d="M210.209 180.065H204.623V189.391H213.933V180.065H210.209Z" fill="black"/>
<path d="M210.209 170.739H204.623V180.065H213.933V170.739H210.209Z" fill="white"/>
<path d="M113.29 167.242H110.769H108.248H105.726H103.205H100.683H98.1625H95.6408H93.1191H90.5985H88.0768H85.5552H83.0335H80.5129H77.9912H75.4695H72.9489H70.4272H67.9056H65.3839H62.8633H60.3416H57.8199H55.2993H52.7776H50.256H47.7343H45.2137H42.692H40.1703H37.6497H35.128H32.6064H30.0847H27.5641H25.0424H22.5207H20.0001H17.4784H14.9568H12.4351H9.91448V174.236H12.4351H14.9568H17.4784H20.0001H22.5207H25.0424H27.5641H30.0847H32.6064H35.128H37.6497H40.1703H42.692H45.2137H47.7343H50.256H52.7776H55.2993H57.8199H60.3416H62.8633H65.3839H67.9056H70.4272H72.9489H75.4695H77.9912H80.5129H83.0335H85.5552H88.0768H90.5985H93.1191H95.6408H98.1625H100.683H103.205H105.726H108.248H110.769H113.29H115.812V167.242H113.29Z" fill="#E10500"/>
</g>
<defs>
<clipPath id="clip0_1_4">
<rect width="222" height="198" fill="white" transform="translate(0.97406)"/>
</clipPath>
</defs>
</svg>
