<svg width="171" height="186" viewBox="0 0 171 186" fill="none" xmlns="http://www.w3.org/2000/svg">
<g clip-path="url(#clip0_3_515)">
<path d="M118.668 66.5726V13.7123H105.592V26.9302H92.5117V40.1425H79.4365V26.9302H66.3612V13.7123H53.2805V66.5726H40.2053V79.7849H79.4365V66.5726H66.3612V53.3547H79.4365V66.5726H92.5117V53.3547H105.592V66.5726H92.5117V79.7849H131.743V66.5726H118.668Z" fill="#FF91DC"/>
<path d="M66.3557 0.5H53.2805V13.7123H66.3557V0.5Z" fill="black"/>
<path d="M79.4364 13.7123H66.3612V26.9245H79.4364V13.7123Z" fill="black"/>
<path d="M105.587 13.7123H92.5117V26.9245H105.587V13.7123Z" fill="black"/>
<path d="M92.5117 26.9302H79.4365V40.1425H92.5117V26.9302Z" fill="black"/>
<path d="M118.668 0.5H105.592V13.7123H118.668V0.5Z" fill="black"/>
<path d="M40.2053 66.5726H27.1301V79.7849H40.2053V66.5726Z" fill="black"/>
<path d="M144.818 66.5726H131.743V79.7849H144.818V66.5726Z" fill="black"/>
<path d="M53.2805 53.3547V13.7123H40.2053V66.5726H53.2805V53.3547Z" fill="black"/>
<path d="M118.668 40.1425V66.5726H131.743V13.7123H118.668V40.1425Z" fill="black"/>
<path d="M79.4364 53.3547H66.3612V66.567H79.4364V53.3547Z" fill="black"/>
<path d="M105.587 53.3547H92.5117V66.567H105.587V53.3547Z" fill="black"/>
<path d="M66.3613 145.858V159.07H79.4365V92.9972H92.5117V159.07H105.592V145.858H118.668V132.64H105.592V92.9972H131.743V79.7849H92.5117V66.5726H79.4365V79.7849H40.2053V92.9972H66.3613V132.64H53.2805V145.858H66.3613Z" fill="black"/>
<path d="M40.2053 132.64H53.2805V119.427H27.1301V132.64H40.2053Z" fill="black"/>
<path d="M14.0493 119.427H27.1301V106.215H0.97406V145.858H14.0493V119.427Z" fill="black"/>
<path d="M27.1245 145.858H14.0493V159.07H27.1245V145.858Z" fill="black"/>
<path d="M40.2053 159.07H27.1301V172.282H53.2805V159.07H40.2053Z" fill="black"/>
<path d="M144.824 119.427H118.668V132.64H144.824V119.427Z" fill="black"/>
<path d="M157.899 106.215H144.824V119.427H157.899V145.858H170.974V106.215H157.899Z" fill="black"/>
<path d="M157.899 145.858H144.824V159.07H157.899V145.858Z" fill="black"/>
<path d="M92.5113 172.282H53.2801V185.5H118.667V172.282H92.5113Z" fill="black"/>
<path d="M144.824 159.07H118.668V172.282H144.824V159.07Z" fill="black"/>
<path d="M144.824 119.427V132.64H118.668V145.858H105.592V159.07H92.5117V92.9972H79.4364V159.07H66.3612V145.858H53.2805V132.64H27.13V119.427H14.0493V145.858H27.13V159.07H53.2805V172.282H118.668V159.07H144.824V145.858H157.899V119.427H144.824Z" fill="#00A514"/>
</g>
<defs>
<clipPath id="clip0_3_515">
<rect width="170" height="185" fill="white" transform="translate(0.97406 0.5)"/>
</clipPath>
</defs>
</svg>
