<svg width="160" height="160" viewBox="0 0 160 160" fill="none" xmlns="http://www.w3.org/2000/svg">
<g clip-path="url(#clip0_272_18192)">
<path d="M56.0059 96.0018H48.0028V103.998H64.0028V96.0018H56.0059Z" fill="#66331A"/>
<path d="M96.0087 96.0018H88.0056V103.998H96.0087V96.0018Z" fill="#66331A"/>
<path d="M104.003 96H96V103.997H104.003V96Z" fill="#66331A"/>
<path d="M104.003 80H96V87.9965H104.003V80Z" fill="#90320E"/>
<path d="M120.005 96.0018H112.001V103.998H120.005V96.0018Z" fill="#90320E"/>
<path d="M120.005 55.9982H112.001V64.0009H120.005V55.9982Z" fill="#D94209"/>
<path d="M128.006 64.0016H120.003V96.0002H128.006V64.0016Z" fill="#B83808"/>
<path d="M112.007 63.9973H104.004V72H112.007V63.9973Z" fill="#D94209"/>
<path d="M104.002 55.9982H95.9985V64.0009H104.002V55.9982Z" fill="#D94209"/>
<path d="M96.0087 47.9949H88.0056V55.9977H96.0087V47.9949Z" fill="#D94209"/>
<path d="M80.0015 48.0028H88.0046V40H64.0015V48.0028H80.0015Z" fill="#D94209"/>
<path d="M64.0028 47.9949H48.0028V55.9977H64.0028V47.9949Z" fill="#D94209"/>
<path d="M48.0046 55.9982H40.0015V64.0009H48.0046V55.9982Z" fill="#D94209"/>
<path d="M40.0031 71.9979V64.0014H32V87.9972H40.0031V71.9979Z" fill="#B83808"/>
<path d="M56.0059 71.9963H48.0028V79.9991H56.0059V71.9963Z" fill="#202020"/>
<path d="M72.0046 103.997H64.0015V112H88.0046V103.997H72.0046Z" fill="#66331A"/>
<path d="M108.002 88H104V96H112V88H108.002Z" fill="#90320E"/>
<path d="M48.0046 87.9986H40.0015V95.9951H48.0046V87.9986Z" fill="#90320E"/>
<path d="M112 63.9942V71.9908H103.997V63.9942H95.9941V55.9915H87.9972V47.9949H63.9941V55.9915H47.9941V63.9942H39.9972V87.9963H47.9941V95.9991H63.9941V103.996H87.9972V95.9991H95.9941V87.9963H111.994V95.9991H119.991V64.0005H111.994L112 63.9942ZM48.0003 71.997H56.0034V79.9998H48.0003V71.997Z" fill="#FF8205"/>
<path d="M96.0028 87.9968V55.9982H88.0059V63.9947H80.0028V71.9975H72.0059V63.9947H64.0028V55.9982H55.9997V87.9968H48.0028V95.9996H72.0059V87.9968H64.0028V80.0003H72.0059V87.9968H80.0028V80.0003H88.0059V87.9968H80.0028V95.9996H104.006V87.9968H96.0028Z" fill="white"/>
</g>
<defs>
<clipPath id="clip0_272_18192">
<rect width="96" height="72" fill="white" transform="translate(32 40)"/>
</clipPath>
</defs>
</svg>
