<svg width="160" height="160" viewBox="0 0 160 160" fill="none" xmlns="http://www.w3.org/2000/svg">
<rect x="32" y="56" width="96" height="8" fill="#B36843"/>
<rect x="24" y="64" width="112" height="72" fill="#FFD800"/>
<path d="M32 64H24V136H32V64Z" fill="#9E481E"/>
<path d="M136 64H128V136H136V64Z" fill="#66331A"/>
<path d="M128 144L128 136L32 136L32 144L128 144Z" fill="#66331A"/>
<path d="M104 32L104 24L56 24L56 32L104 32Z" fill="#B6BFD1"/>
<path d="M104 24L104 16L56 16L56 24L104 24Z" fill="#3F4652"/>
<path d="M104 40L104 32L56 32L56 40L104 40Z" fill="#3F4652"/>
<path d="M56 32H48V56H56V32Z" fill="#8F9BB2"/>
<path d="M48 32H40V56H48V32Z" fill="#3F4652"/>
<path d="M120 32H112V56H120V32Z" fill="#3F4652"/>
<path d="M104 40H96V56H104V40Z" fill="#3F4652"/>
<path d="M64 40H56V56H64V40Z" fill="#3F4652"/>
<path d="M112 32H104V56H112V32Z" fill="#8F9BB2"/>
<rect x="120" y="64" width="8" height="72" fill="#FF8205"/>
<rect x="32" y="64" width="8" height="72" fill="#FFF0C3"/>
<rect x="112" y="64" width="8" height="72" fill="#FFAF00"/>
<rect x="104" y="72" width="8" height="8" fill="#FFC548"/>
<rect x="40" y="128" width="72" height="8" fill="#FFC548"/>
<rect x="128" y="64" width="8" height="96" transform="rotate(90 128 64)" fill="#FFF0C3"/>
<path d="M56 24H48V32H56V24Z" fill="#3F4652"/>
<path d="M56 48H48V56H56V48Z" fill="#5B6472"/>
<path d="M112 24H104V32H112V24Z" fill="#3F4652"/>
<path d="M112 48H104V56H112V48Z" fill="#5B6472"/>
<path d="M100 111.999V80H92.0031V87.9965H84V95.9993H76.0031V87.9965H68V80H59.9969V111.999H52V120.001H76.0031V111.999H68V104.002H76.0031V111.999H84V104.002H92.0031V111.999H84V120.001H108.003V111.999H100Z" fill="#FA500F"/>
<rect x="120" y="64" width="8" height="8" fill="#FFC548"/>
<rect x="32" y="64" width="8" height="8" fill="white"/>
</svg>
