<svg width="76" height="98" viewBox="0 0 76 98" fill="none" xmlns="http://www.w3.org/2000/svg">
<path d="M58.7924 17.0435H52.3396V22.0121H58.7924V26.9855H65.2453V17.0435H58.7924Z" fill="#00AAE6"/>
<path d="M59.8183 89.4783H27.2461V95.1594H65.2461V89.4783H59.8183Z" fill="black"/>
<path d="M61.7632 7.10144H10.7539V12.7826H70.2633V7.10144H61.7632Z" fill="black"/>
<path d="M21.5091 89.4783H16.4902V95.1594H21.5091V89.4783Z" fill="black"/>
<path d="M16.4898 89.4783H10.7539V95.1594H16.4898V89.4783Z" fill="black"/>
<path d="M70.265 89.4783H65.2461V95.1594H70.265V89.4783Z" fill="black"/>
<path d="M10.7552 84.5072H5.73633V89.4782H10.7552V84.5072Z" fill="black"/>
<path d="M10.7552 12.7826H5.73633V17.7536H10.7552V12.7826Z" fill="black"/>
<path d="M5.73585 17.7536H0V84.5072H5.73585V17.7536Z" fill="black"/>
<path d="M75.9995 12.0725H70.2637V89.4783H75.9995V12.0725Z" fill="black"/>
<path d="M64.8485 12.7826H21.5098V73.8551H70.2645V12.7826H64.8485ZM64.8485 21.5054V25.8668H59.4324V21.5054H54.0164V17.144H64.8485V21.5054Z" fill="#0082E6"/>
<path d="M10.7539 17.144V73.8551H16.4898V12.7826H10.7539V17.144Z" fill="#0082E6"/>
<path d="M21.5098 84.2687V95.1594H27.2456V78.826H21.5098V84.2687Z" fill="#E10500"/>
<path d="M16.2019 79.1812H65.2445V73.8551H10.7539V84.5073H16.2019V79.1812Z" fill="#828282"/>
<path d="M38.1017 84.5072H65.2461V78.826H27.2461V84.5072H38.1017Z" fill="white"/>
<path d="M21.5091 78.826H16.4902V84.5072H21.5091V78.826Z" fill="white"/>
<path d="M70.265 73.8551H65.2461V78.8261H70.265V73.8551Z" fill="#323796"/>
<path d="M5.73633 79.1812V84.5073H10.7552V73.8551H5.73633V79.1812Z" fill="#323796"/>
<path d="M16.4902 17.144V73.8551H21.5091V12.7826H16.4902V17.144Z" fill="#323796"/>
<path d="M21.5086 84.5072H10.7539V89.4782H21.5086V84.5072Z" fill="#0082E6"/>
<path d="M64.8883 78.826V84.1496H27.2461V89.4782H70.265V78.826H64.8883Z" fill="#0082E6"/>
<path d="M10.7552 69.5406V17.7537H5.73633V73.8551H10.7552V69.5406Z" fill="#323796"/>
<path d="M54.0827 52.9778V31.9565H48.6504V37.2106H43.2233V42.4697H37.7962V37.2106H32.3692V31.9565H26.9421V52.9778H21.5098V58.2319H37.7962V52.9778H32.3692V47.7238H37.7962V52.9778H43.2233V47.7238H48.6504V52.9778H43.2233V58.2319H59.5098V52.9778H54.0827Z" fill="#F1F1F1"/>
</svg>
