<svg width="160" height="160" viewBox="0 0 160 160" fill="none" xmlns="http://www.w3.org/2000/svg">
<path d="M105.572 128H61V136H113V128H105.572Z" fill="#323796"/>
<path d="M108.573 16H40V24H120V16H108.573Z" fill="#323796"/>
<path d="M48 128H40V136H48V128Z" fill="#323796"/>
<path d="M56 128H48V136H56V128Z" fill="#323796"/>
<path d="M120 128H113V136H120V128Z" fill="#323796"/>
<path d="M40 120H32V128H40V120Z" fill="#1C2175"/>
<path d="M120 112H112V120H120V112Z" fill="#202020"/>
<path d="M32 32H24V120H32V32Z" fill="#1C2175"/>
<path d="M128 24H120V128H128V24Z" fill="#323796"/>
<path d="M112.446 24H52V107H120V24H112.446Z" fill="#0082E6"/>
<path d="M40 29.9273V107H48V24H40V29.9273Z" fill="#0082E6"/>
<path d="M56 122.663V144H64V112H56V122.663Z" fill="#E10500"/>
<path d="M48 112L112 112V104L40 104V120L48 120V112Z" fill="#828282"/>
<path d="M77.7124 120H112V112H64V120H77.7124Z" fill="white"/>
<path d="M56 112H48V120H56V112Z" fill="white"/>
<path d="M120 104H112V112H120V104Z" fill="#202020"/>
<path d="M32 113V120H40V106H32V113Z" fill="#323796"/>
<path d="M44 29.7131V104H52V24H44V29.7131Z" fill="#323796"/>
<path d="M56 120H40V128H56V120Z" fill="#0082E6"/>
<path d="M120 120H64V128H120V120Z" fill="#0082E6"/>
<path d="M40 101.232V32H32V107H40V101.232Z" fill="#323796"/>
<path d="M104.002 84.0015V52H95.9967V59.9984H87.9989V68.0047H80.0011V59.9984H72.0033V52H64.0055V84.0015H56V92H80.0011V84.0015H72.0033V76.0031H80.0011V84.0015H87.9989V76.0031H95.9967V84.0015H87.9989V92H112V84.0015H104.002Z" fill="#F1F1F1"/>
<rect x="104" y="32" width="8" height="8" fill="#00AAE6"/>
<rect x="96" y="32" width="8" height="8" fill="#00AAE6"/>
<rect x="104" y="40" width="8" height="8" fill="#00AAE6"/>
<path d="M40 24H32V32H40V24Z" fill="#1C2175"/>
</svg>
