<svg width="170" height="192" viewBox="0 0 170 192" fill="none" xmlns="http://www.w3.org/2000/svg">
<g clip-path="url(#clip0_3_132)">
<mask id="mask0_3_132" style="mask-type:luminance" maskUnits="userSpaceOnUse" x="0" y="0" width="226" height="189">
<path d="M225.374 0.5H0.67868V188.77H225.374V0.5Z" fill="white"/>
</mask>
<g mask="url(#mask0_3_132)">
<path d="M202.913 0.5H0.67868V188.77H202.913V94.6423H225.374V0.5H202.913Z" fill="#28DCE6"/>
<path d="M135.495 169.957V94.6492H113.035V113.469H90.5568V132.303H68.0959V113.469H45.6177V94.6492H23.157V169.957H0.67868V188.777H68.0959V169.957H45.6177V151.123H68.0959V169.957H90.5568V151.123H113.035V169.957H90.5568V188.777H157.974V169.957H135.495Z" fill="#CDDC1E"/>
<path d="M90.5545 75.8041H68.0936V56.9843H45.6154V75.8041H23.1547V94.6383H45.6154V113.458H68.0936V132.292H90.5545V113.458H113.033V94.6383H90.5545V75.8041Z" fill="#006928"/>
<path d="M0.67868 113.469V169.957H23.1569V94.6492H0.67868V113.469Z" fill="#006928"/>
<path d="M157.982 132.301H135.504V151.121H157.982V132.301Z" fill="#006928"/>
<path d="M113.03 151.121H90.5521V169.94H113.03V151.121Z" fill="#006928"/>
<path d="M68.1089 151.121H45.6307V169.94H68.1089V151.121Z" fill="#006928"/>
<path d="M90.5698 169.953H68.0912V188.773H90.5698V169.953Z" fill="#006928"/>
<path d="M202.921 94.6492V113.469H180.443V132.303H157.982V151.123H135.504V169.957H157.982V188.777H225.382V94.6492H202.921Z" fill="#00A514"/>
<path d="M180.428 0.84729H113.028V38.148H135.489V56.9823H180.428V38.148H202.906V0.84729H180.428Z" fill="#FFD800"/>
</g>
</g>
<defs>
<clipPath id="clip0_3_132">
<rect width="169" height="191" fill="white" transform="translate(0.67868 0.5)"/>
</clipPath>
</defs>
</svg>
