<svg width="160" height="160" viewBox="0 0 160 160" fill="none" xmlns="http://www.w3.org/2000/svg">
<rect x="24" y="24" width="112" height="112" fill="#4FEAF3"/>
<rect x="96" y="112" width="40" height="24" fill="#00A514"/>
<rect x="24" y="96" width="56" height="40" fill="#006928"/>
<rect width="48" height="8" transform="matrix(1 0 0 -1 24 96)" fill="#006928"/>
<rect width="32" height="8" transform="matrix(1 0 0 -1 32 88)" fill="#006928"/>
<rect width="24" height="8" transform="matrix(1 0 0 -1 112 112)" fill="#00A514"/>
<rect width="8" height="8" transform="matrix(1 0 0 -1 48 80)" fill="#006928"/>
<rect width="8" height="8" transform="matrix(1 0 0 -1 88 112)" fill="#006928"/>
<rect width="8" height="16" transform="matrix(1 0 0 -1 88 128)" fill="#00A514"/>
<rect width="8" height="8" transform="matrix(1 0 0 -1 128 104)" fill="#00A514"/>
<rect x="64" y="32" width="64" height="8" fill="#FFAF00"/>
<rect x="64" y="24" width="64" height="8" fill="#FFD800"/>
<rect x="72" y="40" width="48" height="8" fill="#FF8205"/>
<rect x="80" y="48" width="32" height="8" fill="#FA500F"/>
<path d="M88.002 128.001L88.002 96L79.9971 96L79.9971 104.006L71.999 104.006L71.999 112.004L64.001 112.004L64.001 104.006L56.0029 104.006L56.0029 96L48.0049 96L48.0049 128.001L40 128.001L40 136L64.001 136L64.001 128.001L56.0029 128.001L56.0029 120.003L64.001 120.003L64.001 128.001L71.999 128.001L71.999 120.003L79.9971 120.003L79.9971 128.001L71.999 128.001L71.999 136L96 136L96 128.001L88.002 128.001Z" fill="#CDDC1E"/>
</svg>
