<svg fill="none" xmlns="http://www.w3.org/2000/svg" viewBox="43.72 32.13 70.67 103.28">
<path d="M98.0752 37.577H60.0304V70.1869H98.0752V37.577Z" fill="#8F9BB2"/>
<path d="M60.0296 129.972H54.5946V135.407H60.0296V129.972Z" fill="black"/>
<path d="M60.0296 124.537H54.5946V129.972H60.0296V124.537Z" fill="black"/>
<path d="M65.4654 119.102H60.0304V124.537H65.4654V119.102Z" fill="black"/>
<path d="M65.4654 129.972H60.0304V135.407H65.4654V129.972Z" fill="black"/>
<path d="M65.4654 129.972H60.0304V135.407H65.4654V129.972Z" fill="black"/>
<path d="M70.8992 129.972H65.4642V135.407H70.8992V129.972Z" fill="black"/>
<path d="M76.335 129.972H70.9V135.407H76.335V129.972Z" fill="black"/>
<path d="M81.7688 129.972H76.3339V135.407H81.7688V129.972Z" fill="black"/>
<path d="M87.2046 129.972H81.7697V135.407H87.2046V129.972Z" fill="black"/>
<path d="M92.6404 129.972H87.2054V135.407H92.6404V129.972Z" fill="black"/>
<path d="M98.0743 129.972H92.6393V135.407H98.0743V129.972Z" fill="black"/>
<path d="M98.0743 129.972H92.6393V135.407H98.0743V129.972Z" fill="black"/>
<path d="M65.4654 124.537H60.0304V129.972H65.4654V124.537Z" fill="#8F9BB2"/>
<path d="M65.4654 124.537H60.0304V129.972H65.4654V124.537Z" fill="#5E6886"/>
<path d="M70.8992 124.537H65.4642V129.972H70.8992V124.537Z" fill="#5E6886"/>
<path d="M76.335 124.537H70.9V129.972H76.335V124.537Z" fill="#8F9BB2"/>
<path d="M81.7688 124.537H76.3339V129.972H81.7688V124.537Z" fill="#8F9BB2"/>
<path d="M87.2046 124.537H81.7697V129.972H87.2046V124.537Z" fill="#8F9BB2"/>
<path d="M92.6404 124.537H87.2054V129.972H92.6404V124.537Z" fill="#8F9BB2"/>
<path d="M98.0743 124.537H92.6393V129.972H98.0743V124.537Z" fill="#8F9BB2"/>
<path d="M98.0743 124.537H92.6393V129.972H98.0743V124.537Z" fill="#8F9BB2"/>
<path d="M103.51 129.972H98.0751V135.407H103.51V129.972Z" fill="black"/>
<path d="M103.51 124.537H98.0751V129.972H103.51V124.537Z" fill="black"/>
<path d="M98.0743 119.102H92.6393V124.537H98.0743V119.102Z" fill="black"/>
<path d="M98.0743 119.102H92.6393V124.537H98.0743V119.102Z" fill="black"/>
<path d="M92.6404 119.102H87.2054V124.537H92.6404V119.102Z" fill="black"/>
<path d="M87.2046 113.667H81.7697V119.102H87.2046V113.667Z" fill="black"/>
<path d="M76.335 119.102H70.9V124.537H76.335V119.102Z" fill="black"/>
<path d="M87.2046 108.232H81.7697V113.667H87.2046V108.232Z" fill="black"/>
<path d="M81.7688 119.102H76.3339V124.537H81.7688V119.102Z" fill="black"/>
<path d="M87.2046 119.102H81.7697V124.537H87.2046V119.102Z" fill="black"/>
<path d="M70.8992 119.102H65.4642V124.537H70.8992V119.102Z" fill="black"/>
<path d="M76.335 113.667H70.9V119.102H76.335V113.667Z" fill="black"/>
<path d="M81.7688 113.667H76.3339V119.102H81.7688V113.667Z" fill="#8F9BB2"/>
<path d="M76.335 108.232H70.9V113.667H76.335V108.232Z" fill="black"/>
<path d="M81.7688 108.232H76.3339V113.667H81.7688V108.232Z" fill="#8F9BB2"/>
<path d="M81.7688 97.1443H76.3339V102.797H81.7688V97.1443Z" fill="#8F9BB2"/>
<path d="M76.335 97.1443H70.9V102.797H76.335V97.1443Z" fill="black"/>
<path d="M87.2046 97.1443H81.7697V102.797H87.2046V97.1443Z" fill="black"/>
<path d="M76.335 102.797H70.9V108.232H76.335V102.797Z" fill="black"/>
<path d="M65.4654 102.797H60.0304V108.232H65.4654V102.797Z" fill="black"/>
<path d="M70.8992 102.797H65.4642V108.232H70.8992V102.797Z" fill="black"/>
<path d="M81.7688 102.797H76.3339V108.232H81.7688V102.797Z" fill="black"/>
<path d="M87.2046 102.797H81.7697V108.232H87.2046V102.797Z" fill="black"/>
<path d="M92.6404 102.797H87.2054V108.232H92.6404V102.797Z" fill="black"/>
<path d="M98.0743 102.797H92.6393V108.232H98.0743V102.797Z" fill="black"/>
<path d="M103.51 97.3618H98.0751V102.797H103.51V97.3618Z" fill="black"/>
<path d="M108.944 91.9268H103.509V97.3617H108.944V91.9268Z" fill="black"/>
<path d="M108.944 86.4918H103.509V91.9268H108.944V86.4918Z" fill="black"/>
<path d="M108.944 81.0568H103.509V86.4918H108.944V81.0568Z" fill="black"/>
<path d="M108.944 75.6219H103.509V81.0569H108.944V75.6219Z" fill="black"/>
<path d="M108.944 70.1869H103.509V75.6219H108.944V70.1869Z" fill="black"/>
<path d="M103.51 64.7519H98.0751V70.1869H103.51V64.7519Z" fill="black"/>
<path d="M103.51 59.3169H98.0751V64.7519H103.51V59.3169Z" fill="black"/>
<path d="M103.51 53.882H98.0751V59.3169H103.51V53.882Z" fill="black"/>
<path d="M103.51 48.447H98.0751V53.8819H103.51V48.447Z" fill="black"/>
<path d="M103.51 43.012H98.0751V48.447H103.51V43.012Z" fill="black"/>
<path d="M114.38 70.1869H108.945V75.6219H114.38V70.1869Z" fill="black"/>
<path d="M54.5938 91.9268H49.1588V97.3617H54.5938V91.9268Z" fill="black"/>
<path d="M60.0296 97.3618H54.5946V102.797H60.0296V97.3618Z" fill="black"/>
<path d="M54.5938 86.4918H49.1588V91.9268H54.5938V86.4918Z" fill="black"/>
<path d="M54.5938 81.0568H49.1588V86.4918H54.5938V81.0568Z" fill="black"/>
<path d="M54.5938 75.6219H49.1588V81.0569H54.5938V75.6219Z" fill="black"/>
<path d="M54.5938 70.1869H49.1588V75.6219H54.5938V70.1869Z" fill="black"/>
<path d="M60.0296 70.1869H54.5946V75.6219H60.0296V70.1869Z" fill="black"/>
<path d="M60.0296 75.6219H54.5946V81.0569H60.0296V75.6219Z" fill="black"/>
<path d="M76.335 91.7094H70.9V97.1444H76.335V91.7094Z" fill="black"/>
<path d="M60.0296 80.8394H54.5946V86.2744H60.0296V80.8394Z" fill="black"/>
<path d="M65.4654 86.2744H60.0304V91.7094H65.4654V86.2744Z" fill="black"/>
<path d="M70.8992 91.7094H65.4642V97.1444H70.8992V91.7094Z" fill="black"/>
<path d="M81.7688 91.7094H76.3339V97.1444H81.7688V91.7094Z" fill="black"/>
<path d="M87.2046 91.7094H81.7697V97.1444H87.2046V91.7094Z" fill="black"/>
<path d="M92.6404 91.7094H87.2054V97.1444H92.6404V91.7094Z" fill="black"/>
<path d="M98.0743 86.2744H92.6393V91.7094H98.0743V86.2744Z" fill="black"/>
<path d="M103.51 80.8394H98.0751V86.2744H103.51V80.8394Z" fill="black"/>
<path d="M103.51 75.4045H98.0751V80.8395H103.51V75.4045Z" fill="black"/>
<path d="M60.0296 64.7519H54.5946V70.1869H60.0296V64.7519Z" fill="black"/>
<path d="M69.8529 66.334H66V70.1869H69.8529V66.334Z" fill="#3F4652"/>
<path d="M73.7049 66.334H69.8519V70.1869H73.7049V66.334Z" fill="#3F4652"/>
<path d="M73.7049 62.4811H69.8519V66.334H73.7049V62.4811Z" fill="#3F4652"/>
<path d="M73.7049 58.6281H69.8519V62.481H73.7049V58.6281Z" fill="#3F4652"/>
<path d="M73.7049 54.7752H69.8519V58.6281H73.7049V54.7752Z" fill="#3F4652"/>
<path d="M73.7049 50.9223H69.8519V54.7752H73.7049V50.9223Z" fill="#3F4652"/>
<path d="M77.5582 54.7752H73.7053V58.6281H77.5582V54.7752Z" fill="#3F4652"/>
<path d="M85.2634 66.334H81.4105V70.1869H85.2634V66.334Z" fill="#3F4652"/>
<path d="M77.5582 66.334H73.7053V70.1869H77.5582V66.334Z" fill="#3F4652"/>
<path d="M89.1168 66.334H85.2639V70.1869H89.1168V66.334Z" fill="#3F4652"/>
<path d="M77.5582 58.6281H73.7053V62.481H77.5582V58.6281Z" fill="#3F4652"/>
<path d="M89.1168 62.4811H85.2639V66.334H89.1168V62.4811Z" fill="#3F4652"/>
<path d="M89.1168 58.6281H85.2639V62.481H89.1168V58.6281Z" fill="#3F4652"/>
<path d="M89.1168 54.7752H85.2639V58.6281H89.1168V54.7752Z" fill="#3F4652"/>
<path d="M89.1166 50.9223H85.2637V54.7752H89.1166V50.9223Z" fill="#3F4652"/>
<path d="M95.8529 50H92V53.8529H95.8529V50Z" fill="#717C90"/>
<path d="M88.8529 42H85V45.8529H88.8529V42Z" fill="#717C90"/>
<path d="M79.8529 46H76V49.8529H79.8529V46Z" fill="#B6BFD1"/>
<path d="M73.8529 40H70V43.8529H73.8529V40Z" fill="#717C90"/>
<path d="M68.8529 46H65V49.8529H68.8529V46Z" fill="#717C90"/>
<path d="M95.8529 59H92V62.8529H95.8529V59Z" fill="#A9B1C1"/>
<path d="M67.8529 59H64V62.8529H67.8529V59Z" fill="#717C90"/>
<path d="M64.8529 52H61V55.8529H64.8529V52Z" fill="#5B6475"/>
<path d="M85.2634 54.7752H81.4105V58.6281H85.2634V54.7752Z" fill="#3F4652"/>
<path d="M81.4102 58.6281H77.5573V62.481H81.4102V58.6281Z" fill="#3F4652"/>
<path d="M81.4102 62.4811H77.5573V66.334H81.4102V62.4811Z" fill="#3F4652"/>
<path d="M85.2634 58.6281H81.4105V62.481H85.2634V58.6281Z" fill="#3F4652"/>
<path d="M92.9688 66.334H89.1158V70.1869H92.9688V66.334Z" fill="#3F4652"/>
<path d="M60.0296 59.3169H54.5946V64.7519H60.0296V59.3169Z" fill="black"/>
<path d="M60.0296 53.882H54.5946V59.3169H60.0296V53.882Z" fill="black"/>
<path d="M76.335 32.1421H70.9V37.5771H76.335V32.1421Z" fill="black"/>
<path d="M60.0296 48.447H54.5946V53.8819H60.0296V48.447Z" fill="black"/>
<path d="M60.0296 43.012H54.5946V48.447H60.0296V43.012Z" fill="black"/>
<path d="M65.4654 37.577H60.0304V43.012H65.4654V37.577Z" fill="black"/>
<path d="M70.8992 32.1421H65.4642V37.5771H70.8992V32.1421Z" fill="black"/>
<path d="M81.7688 32.1421H76.3339V37.5771H81.7688V32.1421Z" fill="black"/>
<path d="M76.335 70.1869H70.9V75.6219H76.335V70.1869Z" fill="black"/>
<path d="M76.335 75.6219H70.9V81.0569H76.335V75.6219Z" fill="#8F9BB2"/>
<path d="M76.335 75.6219H70.9V81.0569H76.335V75.6219Z" fill="#8F9BB2"/>
<path d="M76.335 80.8394H70.9V86.2744H76.335V80.8394Z" fill="#8F9BB2"/>
<path d="M76.335 86.2744H70.9V91.7094H76.335V86.2744Z" fill="#8F9BB2"/>
<path d="M87.2046 32.1421H81.7697V37.5771H87.2046V32.1421Z" fill="black"/>
<path d="M92.6404 32.1421H87.2054V37.5771H92.6404V32.1421Z" fill="black"/>
<path d="M65.4654 70.1869H60.0304V75.6219H65.4654V70.1869Z" fill="black"/>
<path d="M70.8992 70.1869H65.4642V75.6219H70.8992V70.1869Z" fill="black"/>
<path d="M81.7688 70.1869H76.3339V75.6219H81.7688V70.1869Z" fill="black"/>
<path d="M87.2046 70.1869H81.7697V75.6219H87.2046V70.1869Z" fill="black"/>
<path d="M92.6404 70.1869H87.2054V75.6219H92.6404V70.1869Z" fill="black"/>
<path d="M98.0743 70.1869H92.6393V75.6219H98.0743V70.1869Z" fill="black"/>
<path d="M98.0743 37.577H92.6393V43.012H98.0743V37.577Z" fill="black"/>
<path d="M65.4654 75.6219H60.0304V81.0569H65.4654V75.6219Z" fill="#8F9BB2"/>
<path d="M65.4654 75.6219H60.0304V81.0569H65.4654V75.6219Z" fill="#5E6886"/>
<path d="M70.8992 75.6219H65.4642V81.0569H70.8992V75.6219Z" fill="#8F9BB2"/>
<path d="M65.4654 80.8394H60.0304V86.2744H65.4654V80.8394Z" fill="#5E6886"/>
<path d="M81.7688 75.6219H76.3339V81.0569H81.7688V75.6219Z" fill="#8F9BB2"/>
<path d="M70.8992 75.6219H65.4642V81.0569H70.8992V75.6219Z" fill="#8F9BB2"/>
<path d="M70.8992 80.8394H65.4642V86.2744H70.8992V80.8394Z" fill="#8F9BB2"/>
<path d="M70.8992 86.2744H65.4642V91.7094H70.8992V86.2744Z" fill="#5E6886"/>
<path d="M87.2046 75.6219H81.7697V81.0569H87.2046V75.6219Z" fill="#8F9BB2"/>
<path d="M81.7688 75.6219H76.3339V81.0569H81.7688V75.6219Z" fill="#8F9BB2"/>
<path d="M92.6404 75.6219H87.2054V81.0569H92.6404V75.6219Z" fill="#8F9BB2"/>
<path d="M81.7688 80.8394H76.3339V86.2744H81.7688V80.8394Z" fill="#5EC97B"/>
<path d="M81.7688 86.2744H76.3339V91.7094H81.7688V86.2744Z" fill="#8F9BB2"/>
<path d="M98.0743 75.6219H92.6393V81.0569H98.0743V75.6219Z" fill="#8F9BB2"/>
<path d="M87.2046 75.6219H81.7697V81.0569H87.2046V75.6219Z" fill="#8F9BB2"/>
<path d="M87.2046 80.8394H81.7697V86.2744H87.2046V80.8394Z" fill="#8F9BB2"/>
<path d="M87.2046 86.2744H81.7697V91.7094H87.2046V86.2744Z" fill="#8F9BB2"/>
<path d="M92.6404 75.6219H87.2054V81.0569H92.6404V75.6219Z" fill="#8F9BB2"/>
<path d="M92.6404 80.8394H87.2054V86.2744H92.6404V80.8394Z" fill="#8F9BB2"/>
<path d="M92.6404 86.2744H87.2054V91.7094H92.6404V86.2744Z" fill="#8F9BB2"/>
<path d="M98.0743 75.6219H92.6393V81.0569H98.0743V75.6219Z" fill="#8F9BB2"/>
<path d="M98.0743 80.8394H92.6393V86.2744H98.0743V80.8394Z" fill="#8F9BB2"/>
<path d="M103.51 70.1869H98.0751V75.6219H103.51V70.1869Z" fill="black"/>
<path d="M49.16 70.1869H43.725V75.6219H49.16V70.1869Z" fill="black"/>
<path d="M65.4654 119.102H60.0304V124.537H65.4654V119.102Z" fill="black"/>
</svg>