<svg width="16" height="16" viewBox="0 0 16 16" fill="none" xmlns="http://www.w3.org/2000/svg">
<rect x="3" y="2" width="1" height="1" fill="#808080"/>
<rect x="4" y="2" width="1" height="1" fill="#808080"/>
<rect x="5" y="2" width="1" height="1" fill="#808080"/>
<rect x="6" y="2" width="1" height="1" fill="#808080"/>
<rect x="2" y="3" width="1" height="1" fill="#808080"/>
<rect x="3" y="3" width="1" height="1" fill="#FFFFFF"/>
<rect x="4" y="3" width="1" height="1" fill="#FFFFFF"/>
<rect x="5" y="3" width="1" height="1" fill="#FFFFFF"/>
<rect x="6" y="3" width="1" height="1" fill="#FFFFFF"/>
<rect x="7" y="3" width="1" height="1" fill="#808080"/>
<rect x="8" y="3" width="1" height="1" fill="#FFA500"/>
<rect x="1" y="4" width="1" height="1" fill="#808080"/>
<rect x="2" y="4" width="1" height="1" fill="#FFFFFF"/>
<rect x="3" y="4" width="1" height="1" fill="#FFFFFF"/>
<rect x="4" y="4" width="1" height="1" fill="#FFFFFF"/>
<rect x="5" y="4" width="1" height="1" fill="#FFFFFF"/>
<rect x="6" y="4" width="1" height="1" fill="#FFFFFF"/>
<rect x="7" y="4" width="1" height="1" fill="#808080"/>
<rect x="8" y="4" width="1" height="1" fill="#FFA500"/>
<rect x="9" y="4" width="1" height="1" fill="#FFA500"/>
<rect x="1" y="5" width="1" height="1" fill="#808080"/>
<rect x="2" y="5" width="1" height="1" fill="#808080"/>
<rect x="3" y="5" width="1" height="1" fill="#FFFFFF"/>
<rect x="4" y="5" width="1" height="1" fill="#FFFFFF"/>
<rect x="5" y="5" width="1" height="1" fill="#FFFFFF"/>
<rect x="6" y="5" width="1" height="1" fill="#808080"/>
<rect x="7" y="5" width="1" height="1" fill="#808080"/>
<rect x="8" y="5" width="1" height="1" fill="#FFA500"/>
<rect x="9" y="5" width="1" height="1" fill="#FFA500"/>
<rect x="2" y="6" width="1" height="1" fill="#808080"/>
<rect x="3" y="6" width="1" height="1" fill="#808080"/>
<rect x="4" y="6" width="1" height="1" fill="#FFFFFF"/>
<rect x="5" y="6" width="1" height="1" fill="#808080"/>
<rect x="6" y="6" width="1" height="1" fill="#808080"/>
<rect x="7" y="6" width="1" height="1" fill="#FFA500"/>
<rect x="8" y="6" width="1" height="1" fill="#FFA500"/>
<rect x="3" y="7" width="1" height="1" fill="#808080"/>
<rect x="4" y="7" width="1" height="1" fill="#808080"/>
<rect x="5" y="7" width="1" height="1" fill="#808080"/>
<rect x="6" y="7" width="1" height="1" fill="#FFA500"/>
<rect x="7" y="7" width="1" height="1" fill="#FFA500"/>
<rect x="4" y="8" width="1" height="1" fill="#808080"/>
<rect x="5" y="8" width="1" height="1" fill="#FFA500"/>
<rect x="6" y="8" width="1" height="1" fill="#FFA500"/>
</svg>
