<svg width="160" height="160" viewBox="0 0 160 160" fill="none" xmlns="http://www.w3.org/2000/svg">
<rect x="32" y="32" width="80" height="96" fill="#C1CCDF"/>
<rect x="40" y="128" width="8" height="16" transform="rotate(180 40 128)" fill="#8198C0"/>
<rect x="40" y="112" width="8" height="64" transform="rotate(180 40 112)" fill="#8198C0"/>
<rect x="40" y="40" width="8" height="8" transform="rotate(180 40 40)" fill="#8198C0"/>
<rect x="64" y="48" width="32" height="8" transform="rotate(180 64 48)" fill="#8198C0"/>
<rect x="48" y="32" width="8" height="8" transform="rotate(180 48 32)" fill="#C1CCDF"/>
<rect x="56.0146" y="24" width="8" height="8" transform="rotate(180 56.0146 24)" fill="#C1CCDF"/>
<rect x="112.015" y="32" width="64" height="8" transform="rotate(180 112.015 32)" fill="#C1CCDF"/>
<rect x="112" y="24" width="56" height="8" transform="rotate(180 112 24)" fill="#C1CCDF"/>
<rect x="48.0146" y="32" width="8" height="8" transform="rotate(180 48.0146 32)" fill="#8198C0"/>
<rect x="48" y="40" width="8" height="8" transform="rotate(180 48 40)" fill="#DBE1EA"/>
<rect x="56" y="32" width="8" height="8" transform="rotate(180 56 32)" fill="#DBE1EA"/>
<rect x="56" y="40" width="8" height="8" transform="rotate(180 56 40)" fill="#DBE1EA"/>
<rect x="56.0146" y="24" width="8" height="8" transform="rotate(180 56.0146 24)" fill="#8198C0"/>
<rect x="64.0146" y="40" width="8" height="24" transform="rotate(180 64.0146 40)" fill="#8198C0"/>
<rect x="119.916" y="128" width="8" height="112" transform="rotate(180 119.916 128)" fill="#3C408C"/>
<rect x="111.916" y="24" width="47.9014" height="8" transform="rotate(180 111.916 24)" fill="#8198C0"/>
<rect x="112.015" y="136" width="80.0146" height="8" transform="rotate(180 112.015 136)" fill="#3C408C"/>
<rect x="104" y="120" width="55.9854" height="8" transform="rotate(180 104 120)" fill="#8198C0"/>
<rect x="104" y="104" width="55.9854" height="8" transform="rotate(180 104 104)" fill="#8198C0"/>
<rect x="104" y="88" width="55.9854" height="8" transform="rotate(180 104 88)" fill="#8198C0"/>
<rect x="104" y="72" width="55.9854" height="8" transform="rotate(180 104 72)" fill="#8198C0"/>
<rect x="104" y="56" width="32" height="8" transform="rotate(180 104 56)" fill="#8198C0"/>
<rect x="104" y="40" width="32" height="8" transform="rotate(180 104 40)" fill="#8198C0"/>
<rect x="88" y="56" width="48" height="48" fill="#F5F5F5"/>
<g clip-path="url(#clip0_1093_17641)">
<path d="M115.499 76.4993H108.499V83.4993H115.499V76.4993Z" fill="#FA500F"/>
<path d="M108.499 83.4993H101.499V90.4993H108.499V83.4993Z" fill="#FA500F"/>
<path d="M101.499 90.4993H94.4985V97.4993H101.499V90.4993Z" fill="#FA500F"/>
<path d="M122.499 69.4993H115.499V76.4993H122.499V69.4993Z" fill="#FA500F"/>
<path d="M129.499 62.5H122.499V69.5H129.499V62.5Z" fill="#FA500F"/>
<path d="M108.499 69.4993H101.499V76.4993H108.499V69.4993Z" fill="#FA500F"/>
<path d="M101.499 62.5H94.4985V69.5H101.499V62.5Z" fill="#FA500F"/>
<path d="M129.499 90.4993H122.499V97.4993H129.499V90.4993Z" fill="#FA500F"/>
<path d="M122.499 83.4993H115.499V90.4993H122.499V83.4993Z" fill="#FA500F"/>
</g>
<rect x="136.015" y="112" width="48" height="8" transform="rotate(180 136.015 112)" fill="#FA500F"/>
<rect x="136.015" y="104" width="48" height="8" transform="rotate(-90 136.015 104)" fill="#FA500F"/>
<rect x="80.0146" y="104" width="48" height="8" transform="rotate(-90 80.0146 104)" fill="#FA500F"/>
<rect x="136.015" y="56" width="48" height="8" transform="rotate(180 136.015 56)" fill="#FA500F"/>
<defs>
<clipPath id="clip0_1093_17641">
<rect width="35" height="35" fill="white" transform="translate(94.5 62.5)"/>
</clipPath>
</defs>
</svg>
