<svg width="160" height="160" viewBox="0 0 160 160" fill="none" xmlns="http://www.w3.org/2000/svg">
<rect x="8" y="32" width="96" height="72" fill="#FF8205"/>
<rect x="16" y="32" width="80" height="8" fill="#FF8205"/>
<rect x="24" y="40" width="32" height="16" fill="#FEAD37"/>
<rect x="96" y="32" width="8" height="72" fill="#90320E"/>
<rect x="16" y="24" width="80" height="8" fill="#90320E"/>
<rect x="104" y="96" width="8" height="96" transform="rotate(90 104 96)" fill="#90320E"/>
<rect x="96" y="72" width="24" height="88" transform="rotate(90 96 72)" fill="#FA500F"/>
<rect width="8" height="64" transform="matrix(1 0 0 -1 8 96)" fill="#90320E"/>
<rect width="88" height="8" transform="matrix(1 0 0 -1 16 112)" fill="#3C408C"/>
<rect x="104" y="48" width="24" height="8" fill="#3C408C"/>
<rect x="104" y="80" width="32" height="32" fill="#3C408C"/>
<rect width="8" height="32" transform="matrix(-1 0 0 1 144 72)" fill="#3C408C"/>
<rect width="16" height="8" transform="matrix(1 0 0 -1 32 128)" fill="#5F6CA6"/>
<rect width="16" height="8" transform="matrix(1 0 0 -1 32 104)" fill="#5F6CA6"/>
<rect width="32" height="8" transform="matrix(1 0 0 -1 24 120)" fill="#5F6CA6"/>
<rect width="32" height="8" transform="matrix(1 0 0 -1 24 112)" fill="#5F6CA6"/>
<rect width="16" height="8" transform="matrix(1 0 0 -1 96 128)" fill="#5F6CA6"/>
<rect width="16" height="8" transform="matrix(1 0 0 -1 96 104)" fill="#5F6CA6"/>
<rect width="32" height="8" transform="matrix(1 0 0 -1 88 120)" fill="#5F6CA6"/>
<rect width="32" height="8" transform="matrix(1 0 0 -1 88 112)" fill="#5F6CA6"/>
<rect x="144" y="88" width="8" height="16" fill="#FFD700"/>
<rect x="104" y="56" width="32" height="24" fill="#DBE1EA"/>
<rect width="8" height="8" transform="matrix(-1 0 0 1 144 72)" fill="#3C408C"/>
<rect width="8" height="16" transform="matrix(-1 0 0 1 136 56)" fill="#3C408C"/>
<rect width="8" height="8" transform="matrix(-1 0 0 1 136 72)" fill="#8198C0"/>
<rect width="8" height="16" transform="matrix(-1 0 0 1 128 56)" fill="#8198C0"/>
<rect x="32" y="104" width="16" height="16" fill="#3C408C"/>
<rect x="96" y="104" width="16" height="16" fill="#3C408C"/>
</svg>
