<svg width="160" height="160" viewBox="0 0 160 160" fill="none" xmlns="http://www.w3.org/2000/svg">
<rect x="72" y="40" width="16" height="96" fill="#8198C0"/>
<rect x="80" y="40" width="8" height="96" fill="#3C408C"/>
<rect width="32" height="8" transform="matrix(1 0 0 -1 64 136)" fill="#8198C0"/>
<rect width="32" height="8" transform="matrix(1 0 0 -1 64 32)" fill="#C1CCDF"/>
<rect width="16" height="8" transform="matrix(1 0 0 -1 72 24)" fill="#8198C0"/>
<rect width="48" height="8" transform="matrix(1 0 0 -1 56 144)" fill="#3C408C"/>
<rect width="48" height="8" transform="matrix(1 0 0 -1 56 40)" fill="#8198C0"/>
<rect x="32" y="48" width="96" height="8" fill="#8198C0"/>
<rect x="64" y="56" width="32" height="8" fill="#3C408C"/>
<rect width="32" height="8" transform="matrix(1 0 0 -1 16 120)" fill="#90320E"/>
<rect width="48" height="24" transform="matrix(1 0 0 -1 8 112)" fill="#FEAD37"/>
<rect width="40" height="8" transform="matrix(1 0 0 -1 8 112)" fill="#FF8205"/>
<rect width="8" height="24" transform="matrix(1 0 0 -1 48 112)" fill="#FA500F"/>
<rect x="8" y="80" width="8" height="8" fill="#8198C0"/>
<rect x="16" y="72" width="8" height="8" fill="#8198C0"/>
<rect x="80" y="24" width="8" height="8" fill="#8198C0"/>
<rect x="24" y="64" width="8" height="8" fill="#8198C0"/>
<rect x="28" y="56" width="8" height="8" fill="#3C408C"/>
<rect x="88" y="128" width="8" height="8" fill="#3C408C"/>
<rect x="124" y="56" width="8" height="8" fill="#3C408C"/>
<rect x="32" y="64" width="8" height="8" fill="#8198C0"/>
<rect x="40" y="72" width="8" height="8" fill="#8198C0"/>
<rect x="48" y="80" width="8" height="8" fill="#8198C0"/>
<rect x="32" y="92" width="8" height="16" transform="rotate(90 32 92)" fill="#FFD700"/>
<rect width="32" height="8" transform="matrix(1 0 0 -1 112 120)" fill="#90320E"/>
<rect width="48" height="24" transform="matrix(1 0 0 -1 104 112)" fill="#FEAD37"/>
<rect width="48" height="8" transform="matrix(1 0 0 -1 104 112)" fill="#FF8205"/>
<rect width="8" height="24" transform="matrix(1 0 0 -1 144 112)" fill="#FA500F"/>
<rect x="104" y="80" width="8" height="8" fill="#8198C0"/>
<rect x="112" y="72" width="8" height="8" fill="#8198C0"/>
<rect x="120" y="64" width="8" height="8" fill="#8198C0"/>
<rect x="128" y="64" width="8" height="8" fill="#8198C0"/>
<rect x="136" y="72" width="8" height="8" fill="#8198C0"/>
<rect x="144" y="80" width="8" height="8" fill="#8198C0"/>
<rect x="128" y="92" width="8" height="16" transform="rotate(90 128 92)" fill="#FFD700"/>
<rect x="80" y="16" width="8" height="8" fill="#3C408C"/>
<rect x="88" y="24" width="8" height="8" fill="#3C408C"/>
<rect x="96" y="32" width="8" height="8" fill="#3C408C"/>
<rect x="120" y="48" width="8" height="8" fill="#8198C0"/>
</svg>
