<svg width="160" height="160" viewBox="0 0 160 160" fill="none" xmlns="http://www.w3.org/2000/svg">
<path d="M32 47.9531H128V104H32V47.9531Z" fill="#F5F5F5"/>
<path d="M32 47.9531H128V56.0002H32V47.9531Z" fill="#C1CCDF"/>
<path d="M40 112H120V104H40V112Z" fill="#FFF0C3"/>
<rect x="8" y="32" width="144" height="8" fill="#3C408C"/>
<rect x="16" y="40" width="128" height="8" fill="#0043C8"/>
<rect x="40" y="112" width="80" height="8" fill="#8198C0"/>
<rect x="40" y="104" width="80" height="8" fill="#F5F5F5"/>
<rect x="32" y="48" width="56" height="8" transform="rotate(90 32 48)" fill="#8198C0"/>
<rect x="136" y="48" width="56" height="8" transform="rotate(90 136 48)" fill="#8198C0"/>
<rect x="64" y="24" width="8" height="8" fill="#90320E"/>
<rect x="32" y="104" width="8" height="8" fill="#8198C0"/>
<rect x="72" y="120" width="8" height="16" fill="#3C408C"/>
<rect x="120" y="104" width="8" height="8" fill="#8198C0"/>
<rect x="72" y="16" width="8" height="8" fill="#90320E"/>
<rect x="80" y="16" width="8" height="8" fill="#90320E"/>
<rect x="88" y="24" width="8" height="8" fill="#90320E"/>
<rect x="64" y="136" width="8" height="8" fill="#3C408C"/>
<rect x="80" y="136" width="8" height="8" fill="#3C408C"/>
<rect x="72" y="144" width="8" height="8" fill="#3C408C"/>
<rect x="48" y="88" width="16" height="16" fill="#FFD700"/>
<rect x="64" y="80" width="16" height="24" fill="#FEAD37"/>
<rect x="80" y="72" width="16" height="32" fill="#FA500F"/>
<rect x="96" y="64" width="16" height="40" fill="#E92700"/>
</svg>
