<svg width="160" height="160" viewBox="0 0 160 160" fill="none" xmlns="http://www.w3.org/2000/svg">
<rect x="36" y="40" width="88" height="72" fill="#0082E6"/>
<rect x="36" y="88" width="88" height="32" fill="#9FDA44"/>
<rect x="36" y="96" width="88" height="24" fill="#00A514"/>
<rect x="44" y="32" width="80" height="24" fill="#C1CCDF"/>
<rect x="60" y="48" width="32" height="16" fill="#DBE1EA"/>
<rect x="28" y="24" width="8" height="104" fill="#90320E"/>
<rect width="8" height="104" transform="matrix(-1 0 0 1 132 24)" fill="#90320E"/>
<rect x="36" y="24" width="88" height="8" fill="#90320E"/>
<rect x="36" y="120" width="88" height="8" fill="#90320E"/>
<path d="M84.002 112.001L84.002 80L75.997 80L75.997 88.0055L67.999 88.0055L67.999 96.0041L60.001 96.0041L60.001 88.0055L52.0029 88.0055L52.0029 80L44.0049 80L44.0049 112.001L36 112.001L36 120L60.001 120L60.001 112.001L52.0029 112.001L52.0029 104.003L60.001 104.003L60.001 112.001L67.999 112.001L67.999 104.003L75.997 104.003L75.997 112.001L67.999 112.001L67.999 120L92 120L92 112.001L84.002 112.001Z" fill="#FFD700"/>
<rect x="28" y="16" width="104" height="8" fill="#C46130"/>
<rect x="28" y="128" width="104" height="8" fill="#C46130"/>
<rect width="8" height="104" transform="matrix(1 0 0 -1 132 128)" fill="#C46130"/>
<rect width="104.097" height="8" transform="matrix(0.000317059 1 -1 0.000442649 28 24)" fill="#C46130"/>
<rect x="36" y="72" width="96" height="8" fill="#90320E"/>
<rect x="76" y="24" width="8" height="96" fill="#90320E"/>
<rect x="36" y="32" width="24" height="16" fill="#DBE1EA"/>
<rect x="100" y="48" width="16" height="16" fill="#DBE1EA"/>
</svg>
