<svg width="160" height="160" viewBox="0 0 160 160" fill="none" xmlns="http://www.w3.org/2000/svg">
<rect x="32" y="32" width="8" height="8" fill="#3C408C"/>
<rect x="40" y="32" width="8" height="8" fill="#3C408C"/>
<rect x="48" y="32" width="8" height="8" fill="#8198C0"/>
<rect x="40" y="24" width="8" height="8" fill="#3C408C"/>
<rect x="48" y="24" width="8" height="8" fill="#3C408C"/>
<rect x="56" y="24" width="8" height="8" fill="#8198C0"/>
<rect x="48" y="16" width="8" height="8" fill="#3C408C"/>
<rect x="56" y="16" width="8" height="8" fill="#3C408C"/>
<rect x="64" y="24" width="56" height="8" fill="#3C408C"/>
<rect x="64" y="88" width="56" height="8" fill="#3C408C"/>
<rect x="56" y="32" width="72" height="56" fill="#3C408C"/>
<rect x="64" y="16" width="8" height="8" fill="#8198C0"/>
<rect x="72" y="16" width="8" height="8" fill="#8198C0"/>
<rect x="80" y="16" width="8" height="8" fill="#8198C0"/>
<rect x="88" y="16" width="8" height="8" fill="#8198C0"/>
<rect x="96" y="16" width="8" height="8" fill="#8198C0"/>
<rect x="104" y="16" width="8" height="8" fill="#8198C0"/>
<rect x="112" y="16" width="8" height="8" fill="#8198C0"/>
<rect x="120" y="24" width="8" height="8" fill="#8198C0"/>
<rect x="128" y="32" width="8" height="8" fill="#8198C0"/>
<rect x="128" y="40" width="8" height="8" fill="#8198C0"/>
<rect x="128" y="48" width="8" height="8" fill="#8198C0"/>
<rect x="128" y="56" width="8" height="8" fill="#8198C0"/>
<rect x="128" y="64" width="8" height="8" fill="#8198C0"/>
<rect x="128" y="72" width="8" height="8" fill="#8198C0"/>
<rect x="128" y="80" width="8" height="8" fill="#8198C0"/>
<rect x="120" y="88" width="8" height="8" fill="#8198C0"/>
<rect x="32" y="40" width="8" height="8" fill="#3C408C"/>
<rect x="40" y="40" width="8" height="8" fill="#3C408C"/>
<rect x="48" y="40" width="8" height="8" fill="#8198C0"/>
<rect x="32" y="48" width="8" height="8" fill="#3C408C"/>
<rect x="40" y="48" width="8" height="8" fill="#3C408C"/>
<rect x="48" y="48" width="8" height="8" fill="#8198C0"/>
<rect x="32" y="56" width="8" height="8" fill="#3C408C"/>
<rect x="40" y="56" width="8" height="8" fill="#3C408C"/>
<rect x="48" y="56" width="8" height="8" fill="#8198C0"/>
<rect x="32" y="64" width="8" height="8" fill="#3C408C"/>
<rect x="40" y="64" width="8" height="8" fill="#3C408C"/>
<rect x="48" y="64" width="8" height="8" fill="#8198C0"/>
<rect x="32" y="72" width="8" height="8" fill="#3C408C"/>
<rect x="40" y="72" width="8" height="8" fill="#3C408C"/>
<rect x="48" y="72" width="8" height="8" fill="#8198C0"/>
<rect x="32" y="80" width="8" height="8" fill="#3C408C"/>
<rect x="40" y="80" width="8" height="8" fill="#3C408C"/>
<rect x="48" y="80" width="8" height="8" fill="#8198C0"/>
<rect x="40" y="88" width="8" height="8" fill="#3C408C"/>
<rect x="48" y="88" width="8" height="8" fill="#3C408C"/>
<rect x="56" y="88" width="8" height="8" fill="#8198C0"/>
<rect x="48" y="96" width="8" height="8" fill="#3C408C"/>
<rect x="56" y="96" width="8" height="8" fill="#3C408C"/>
<rect x="64" y="96" width="8" height="8" fill="#8198C0"/>
<rect x="72" y="96" width="8" height="8" fill="#8198C0"/>
<rect x="80" y="96" width="8" height="8" fill="#8198C0"/>
<rect x="88" y="96" width="8" height="8" fill="#8198C0"/>
<rect x="96" y="96" width="8" height="8" fill="#8198C0"/>
<rect x="104" y="96" width="8" height="8" fill="#8198C0"/>
<rect x="112" y="96" width="8" height="8" fill="#8198C0"/>
<rect x="72" y="104" width="24" height="8" fill="#3C408C"/>
<rect x="72" y="112" width="24" height="32" fill="#FEAD37"/>
<rect x="88" y="112" width="8" height="32" fill="#FFD700"/>
<rect x="72" y="112" width="8" height="32" fill="#FA500F"/>
<rect x="72" y="48" width="32.0649" height="32" fill="#F5F5F5"/>
<rect x="72" y="48" width="32.0649" height="32" fill="#0082E6"/>
<rect width="8" height="16" transform="matrix(-1 0 0 1 72 56)" fill="#0082E6"/>
<rect width="8" height="16" transform="matrix(-1 0 0 1 112 56)" fill="#0082E6"/>
<rect width="8" height="16" transform="matrix(1.19249e-08 -1 -1 -1.19249e-08 96 48)" fill="#0082E6"/>
<rect width="8" height="16" transform="matrix(1.19249e-08 -1 -1 -1.19249e-08 96 88)" fill="#0082E6"/>
<rect x="72" y="144" width="24" height="8.15645" fill="#90320E"/>
<rect x="100" y="36" width="16" height="16" fill="#F5F5F5"/>
<rect x="72" y="72" width="8" height="8" fill="#DFDFDF"/>
<rect x="80" y="72" width="8" height="8" fill="#DFDFDF"/>
<rect x="72" y="64" width="8" height="8" fill="#DFDFDF"/>
</svg>
