<svg width="160" height="160" viewBox="0 0 160 160" fill="none" xmlns="http://www.w3.org/2000/svg">
<rect x="24" y="20" width="112" height="32" fill="#C1CCDF"/>
<rect x="32" y="52" width="96" height="8" fill="#3C408C"/>
<rect x="128" y="20" width="8" height="32" fill="#3C408C"/>
<rect width="88" height="8" transform="matrix(1 0 0 -1 32 34)" fill="#8198C0"/>
<rect width="88" height="8" transform="matrix(1 0 0 -1 32 46)" fill="#8198C0"/>
<rect x="64" y="26" width="8" height="16" transform="rotate(90 64 26)" fill="#FFD700"/>
<rect x="104" y="26" width="8" height="8" transform="rotate(90 104 26)" fill="#FA500F"/>
<rect x="80" y="38" width="8" height="8" transform="rotate(90 80 38)" fill="#FF8205"/>
<rect x="48" y="38" width="8" height="8" transform="rotate(90 48 38)" fill="#3C408C"/>
<rect x="112" y="38" width="8" height="8" transform="rotate(90 112 38)" fill="#3C408C"/>
<rect x="24" y="60" width="112" height="32" fill="#C1CCDF"/>
<rect x="24" y="100" width="112" height="32" fill="#C1CCDF"/>
<rect x="32" y="92" width="96" height="8" fill="#3C408C"/>
<rect x="32" y="132" width="96" height="8" fill="#3C408C"/>
<rect x="128" y="60" width="8" height="32" fill="#3C408C"/>
<rect x="128" y="100" width="8" height="32" fill="#3C408C"/>
<rect width="88" height="8" transform="matrix(1 0 0 -1 32 74)" fill="#8198C0"/>
<rect width="88" height="8" transform="matrix(1 0 0 -1 32 114)" fill="#8198C0"/>
<rect width="88" height="8" transform="matrix(1 0 0 -1 32 86)" fill="#8198C0"/>
<rect width="88" height="8" transform="matrix(1 0 0 -1 32 126)" fill="#8198C0"/>
<rect x="56" y="118" width="8" height="8" transform="rotate(90 56 118)" fill="#FA500F"/>
<rect x="64" y="66" width="8" height="16" transform="rotate(90 64 66)" fill="#3C408C"/>
<rect x="80" y="118" width="8" height="16" transform="rotate(90 80 118)" fill="#3C408C"/>
<rect x="88" y="66" width="8" height="8" transform="rotate(90 88 66)" fill="#FA500F"/>
<rect x="88" y="106" width="8" height="8" transform="rotate(90 88 106)" fill="#FFD700"/>
<rect x="48" y="78" width="8" height="8" transform="rotate(90 48 78)" fill="#FFD700"/>
<rect x="56" y="106" width="8" height="16" transform="rotate(90 56 106)" fill="#3C408C"/>
<rect x="112" y="78" width="8" height="8" transform="rotate(90 112 78)" fill="#FFD700"/>
<rect x="112" y="118" width="8" height="8" transform="rotate(90 112 118)" fill="#FFD700"/>
<rect x="96" y="66" width="8" height="8" transform="rotate(90 96 66)" fill="#3C408C"/>
<rect x="104" y="118" width="8" height="8" transform="rotate(90 104 118)" fill="#3C408C"/>
</svg>
