<svg width="160" height="160" viewBox="0 0 160 160" fill="none" xmlns="http://www.w3.org/2000/svg">
<rect x="64" y="72" width="8" height="80" fill="#90320E"/>
<rect x="72" y="72" width="8" height="72" fill="#FFD700"/>
<rect x="80" y="72" width="8" height="80" fill="#FEAD37"/>
<rect x="72" y="144" width="8" height="8" fill="#FEAD37"/>
<rect x="64" y="56" width="40" height="16" fill="#FEAD37"/>
<rect x="64" width="40" height="16" fill="#FEAD37"/>
<rect x="40" y="24" width="16" height="24" fill="#FEAD37"/>
<rect x="40" y="24" width="8" height="24" fill="#FF8205"/>
<rect x="48" y="8" width="16" height="16" fill="#FEAD37"/>
<rect x="64" width="8" height="16" fill="#FEAD37"/>
<rect x="70" width="16" height="8" fill="#FFD700"/>
<rect x="64" y="56" width="8" height="16" fill="#FEAD37"/>
<rect x="70" y="60" width="16" height="8" fill="#FFD700"/>
<rect x="48" y="8" width="8" height="16" fill="#FF8205"/>
<rect x="48" y="48" width="16" height="16" fill="#FEAD37"/>
<rect x="48" y="48" width="8" height="16" fill="#FF8205"/>
<rect x="104" y="48" width="16" height="16" fill="#FEAD37"/>
<rect x="96" y="8" width="24" height="16" fill="#FFD700"/>
<rect x="104" y="8" width="16" height="16" fill="#FEAD37"/>
<rect x="96" y="48" width="8" height="24" fill="#FEAD37"/>
<rect x="96" width="8" height="16" fill="#FEAD37"/>
<rect x="104" y="48" width="16" height="16" fill="#FEAD37"/>
<rect x="112" y="24" width="16" height="24" fill="#FFD700"/>
<rect x="112" y="24" width="16" height="24" fill="#FEAD37"/>
<rect width="8" height="24" transform="matrix(-1 0 0 1 128 24)" fill="#FF8205"/>
<rect width="8" height="16" transform="matrix(-1 0 0 1 120 8)" fill="#FF8205"/>
<rect width="8" height="16" transform="matrix(-1 0 0 1 120 48)" fill="#FF8205"/>
<rect x="56" y="64" width="8" height="8" fill="#90320E"/>
<rect x="56" width="8" height="8" fill="#90320E"/>
<rect x="96" y="16" width="8" height="8" fill="#90320E"/>
<rect x="40" y="8" width="8" height="16" fill="#90320E"/>
<rect x="40" y="48" width="8" height="16" fill="#90320E"/>
<rect x="32" y="24" width="8" height="24" fill="#90320E"/>
<rect x="104" y="24" width="8" height="24" fill="#90320E"/>
<rect x="72" y="72" width="16" height="8" fill="#90320E"/>
<rect x="72" y="80" width="16" height="8" fill="#FA500F"/>
<rect x="72" y="88" width="16" height="8" fill="#FEAD37"/>
<rect x="104" y="120" width="8" height="24" fill="#FEAD37"/>
<rect x="88" y="120" width="8" height="24" fill="#FF8205"/>
<rect x="88" y="128" width="8" height="8" fill="#90320E"/>
<rect x="96" y="112" width="8" height="40" fill="#90320E"/>
<rect x="120" y="112" width="8" height="16" transform="rotate(90 120 112)" fill="#FEAD37"/>
<rect x="120" y="128" width="8" height="16" transform="rotate(90 120 128)" fill="#FFD700"/>
<rect x="112" y="112" width="8" height="8" transform="rotate(90 112 112)" fill="#FFD700"/>
<rect x="104" y="128" width="8" height="8" fill="#FF8205"/>
<rect x="120" y="144" width="8" height="16" transform="rotate(90 120 144)" fill="#FEAD37"/>
<rect x="96" y="64" width="8" height="8" fill="#FF8205"/>
<rect x="96" width="8" height="8" fill="#FF8205"/>
</svg>
