<svg width="160" height="160" viewBox="0 0 160 160" fill="none" xmlns="http://www.w3.org/2000/svg">
<rect x="64" y="24" width="8" height="8" fill="#3C408C"/>
<rect x="64" y="32" width="8" height="8" fill="#F5F5F5"/>
<rect x="120" y="88" width="8" height="8" fill="#8198C0"/>
<rect x="80" y="48" width="8" height="8" fill="#F5F5F5"/>
<rect x="80" y="56" width="8" height="8" fill="#C1CCDF"/>
<rect x="88" y="56" width="8" height="8" fill="#C1CCDF"/>
<rect x="104" y="72" width="8" height="32" fill="#8198C0"/>
<rect x="112" y="80" width="8" height="24" fill="#8198C0"/>
<rect x="64" y="80" width="8" height="8" fill="#C1CCDF"/>
<rect x="72" y="80" width="8" height="8" fill="#C1CCDF"/>
<rect x="72" y="88" width="8" height="8" fill="#8198C0"/>
<rect x="56" y="96" width="8" height="8" fill="#0082E6"/>
<rect x="56" y="32" width="8" height="8" fill="#3C408C"/>
<rect x="48" y="40" width="8" height="8" fill="#3C408C"/>
<rect x="48" y="48" width="8" height="32" fill="#3C408C"/>
<rect x="72" y="32" width="8" height="8" fill="#3C408C"/>
<rect x="80" y="40" width="8" height="8" fill="#3C408C"/>
<rect x="88" y="48" width="8" height="8" fill="#3C408C"/>
<rect x="96" y="56" width="8" height="8" fill="#3C408C"/>
<rect x="104" y="48" width="8" height="8" fill="#3C408C"/>
<rect x="112" y="40" width="8" height="8" fill="#3C408C"/>
<rect x="112" y="32" width="8" height="8" fill="#3C408C"/>
<rect x="112" y="24" width="8" height="8" fill="#3C408C"/>
<rect x="120" y="24" width="8" height="8" fill="#3C408C"/>
<rect x="128" y="24" width="8" height="8" fill="#3C408C"/>
<rect x="128" y="32" width="8" height="8" fill="#3C408C"/>
<rect x="128" y="40" width="8" height="8" fill="#3C408C"/>
<rect x="120" y="40" width="8" height="8" fill="#3C408C"/>
<rect x="120" y="32" width="8" height="8" fill="#FA500F"/>
<rect x="56" y="80" width="8" height="8" fill="#3C408C"/>
<rect x="56" y="104" width="8" height="8" fill="#3C408C"/>
<rect x="72" y="120" width="8" height="8" fill="#3C408C"/>
<rect x="64" y="112" width="8" height="8" fill="#3C408C"/>
<rect x="48" y="112" width="8" height="8" fill="#3C408C"/>
<rect x="40" y="120" width="8" height="8" fill="#3C408C"/>
<rect x="48" y="120" width="8" height="8" fill="#3C408C"/>
<rect x="56" y="120" width="8" height="8" fill="#3C408C"/>
<rect x="56" y="112" width="8" height="8" fill="#3C408C"/>
<rect x="64" y="120" width="8" height="8" fill="#3C408C"/>
<rect x="32" y="128" width="56" height="8" fill="#3C408C"/>
<rect x="104" y="64" width="8" height="8" fill="#3C408C"/>
<rect x="64" y="88" width="8" height="8" fill="#3C408C"/>
<rect x="56" y="88" width="8" height="8" fill="#3C408C"/>
<rect x="48" y="96" width="8" height="8" fill="#3C408C"/>
<rect x="64" y="96" width="8" height="8" fill="#3C408C"/>
<rect x="112" y="72" width="8" height="8" fill="#3C408C"/>
<rect x="72" y="96" width="8" height="8" fill="#3C408C"/>
<rect x="120" y="80" width="8" height="8" fill="#3C408C"/>
<rect x="128" y="88" width="8" height="8" fill="#3C408C"/>
<rect x="120" y="96" width="8" height="8" fill="#3C408C"/>
<rect x="112" y="104" width="8" height="8" fill="#3C408C"/>
<rect x="104" y="104" width="8" height="8" fill="#3C408C"/>
<rect x="80" y="104" width="24" height="8" fill="#3C408C"/>
<rect x="56" y="40" width="24" height="40" fill="#C1CCDF"/>
<rect x="80" y="88" width="24" height="16" fill="#8198C0"/>
<rect x="80" y="64" width="24" height="24" fill="#C1CCDF"/>
</svg>
