<svg width="160" height="160" viewBox="0 0 160 160" fill="none" xmlns="http://www.w3.org/2000/svg">
<rect width="96" height="16" transform="matrix(-1 0 0 1 124 108)" fill="#FF8205"/>
<rect width="88" height="16" transform="matrix(-1 0 0 1 132 92)" fill="#FF8205"/>
<rect width="88" height="8" transform="matrix(-1 0 0 1 132 84)" fill="#FF8205"/>
<rect x="20" y="52" width="104" height="16" fill="#FF8205"/>
<rect width="8" height="16" transform="matrix(1 0 0 -1 20 84)" fill="#FF8205"/>
<rect width="8" height="16" transform="matrix(-1 0 0 1 140 76)" fill="#FEAD37"/>
<rect width="8" height="16" transform="matrix(-1 0 0 1 52 76)" fill="#FEAD37"/>
<rect width="8" height="16" transform="matrix(-1 0 0 1 44 92)" fill="#FEAD37"/>
<rect width="80" height="8" transform="matrix(-1 0 0 1 132 76)" fill="#FEAD37"/>
<rect width="96" height="8" transform="matrix(-1 0 0 1 124 116)" fill="#FA500F"/>
<path d="M20 36H12V124H20V36Z" fill="#90320E"/>
<path d="M124 52H116V76H124V52Z" fill="#90320E"/>
<path d="M124 132L124 124L20 124L20 132L124 132Z" fill="#90320E"/>
<path d="M52 36L52 28L20 28L20 36L52 36Z" fill="#90320E"/>
<path d="M148 76L148 68L44 68L44 76L148 76Z" fill="#90320E"/>
<path d="M132 108H124V124H132V108Z" fill="#90320E"/>
<path d="M140 92H132V108H140V92Z" fill="#90320E"/>
<path d="M148 76H140V92H148V76Z" fill="#90320E"/>
<rect x="20" y="36" width="40" height="8" fill="#FEAD37"/>
<rect x="52" y="36" width="8" height="8" fill="#90320E"/>
<rect x="20" y="44" width="48" height="8" fill="#FF8205"/>
<rect x="20" y="44" width="8" height="8" fill="#FEAD37"/>
<path d="M124 52L124 44L60 44L60 52L124 52Z" fill="#90320E"/>
<rect x="44" y="60" width="72" height="8" fill="#FA500F"/>
<rect x="36" y="68" width="24" height="8" transform="rotate(90 36 68)" fill="#FA500F"/>
<rect x="44" y="60" width="16" height="8" transform="rotate(90 44 60)" fill="#FA500F"/>
<rect x="28" y="84" width="24" height="8" transform="rotate(90 28 84)" fill="#FA500F"/>
<path d="M28 108H20V124H28V108Z" fill="#90320E"/>
<path d="M36 92H28V108H36V92Z" fill="#90320E"/>
<path d="M44 76H36V92H44V76Z" fill="#90320E"/>
</svg>
