<svg width="160" height="160" viewBox="0 0 160 160" fill="none" xmlns="http://www.w3.org/2000/svg">
<rect x="32" y="108" width="88" height="24" fill="#FA500F"/>
<rect x="24.092" y="28.1841" width="8" height="104" fill="#FFAF00"/>
<rect width="8" height="104" transform="matrix(-1 0 0 1 136.092 28.1841)" fill="#C46130"/>
<rect x="32.1841" y="20" width="96" height="8" fill="#FFAF00"/>
<rect x="32.1841" y="132" width="96" height="8" fill="#C46130"/>
<rect x="32" y="28" width="96" height="8" fill="#FF8205"/>
<rect width="8" height="96" transform="matrix(1 0 0 -1 120 132)" fill="#FFAF00"/>
<rect x="32" y="36" width="88" height="72" fill="#9FDA44"/>
<rect x="32" y="92" width="16" height="16" fill="#00A514"/>
<rect x="104" y="92" width="16" height="16" fill="#00A514"/>
<rect x="72" y="44" width="16" height="16" fill="#00A514"/>
<rect x="56" y="52" width="48" height="72" fill="#90320E"/>
<rect width="8" height="24" transform="matrix(-1 0 0 1 56 84)" fill="#90320E"/>
<rect x="64" y="44" width="32" height="8" fill="#90320E"/>
<rect x="72" y="60" width="16" height="24" fill="#FFD700"/>
<rect x="64" y="60" width="8" height="24" fill="#FFD700"/>
<rect x="64" y="92" width="32" height="32" fill="#0082E6"/>
<rect width="16" height="8" transform="matrix(1 0 0 -1 72 92)" fill="#FEAD37"/>
<rect width="8" height="8" transform="matrix(1 0 0 -1 72 100)" fill="#FEAD37"/>
<rect width="8" height="8" transform="matrix(1 0 0 -1 64 100)" fill="#FEAD37"/>
<rect x="56" y="100" width="8" height="24" fill="#0082E6"/>
<rect x="48" y="108" width="8" height="16" fill="#0082E6"/>
<rect x="96" y="100" width="8" height="24" fill="#0082E6"/>
<rect x="104" y="108" width="8" height="16" fill="#0082E6"/>
<g clip-path="url(#clip0_2895_31935)">
<path d="M96.002 124.001L96.002 92L87.997 92L87.997 100.006L79.999 100.006L79.999 108.004L72.001 108.004L72.001 100.006L64.0029 100.006L64.0029 92L56.0049 92L56.0049 124.001L48 124.001L48 132L72.001 132L72.001 124.001L64.0029 124.001L64.0029 116.003L72.001 116.003L72.001 124.001L79.999 124.001L79.999 116.003L87.997 116.003L87.997 124.001L79.999 124.001L79.999 132L104 132L104 124.001L96.002 124.001Z" fill="#3C408C"/>
</g>
<rect width="8" height="16" transform="matrix(-1 0 0 1 112 92)" fill="#90320E"/>
<rect x="32" y="124" width="96" height="8" fill="#FFAF00"/>
<rect x="40" y="36" width="96" height="8" transform="rotate(90 40 36)" fill="#FF8205"/>
<defs>
<clipPath id="clip0_2895_31935">
<rect width="56" height="40" fill="white" transform="translate(48 92)"/>
</clipPath>
</defs>
</svg>
