<svg width="160" height="160" viewBox="0 0 160 160" fill="none" xmlns="http://www.w3.org/2000/svg">
<rect x="40" y="96" width="80" height="8" fill="#FF8205"/>
<rect x="40" y="104" width="80" height="8" fill="#FF8205"/>
<rect x="48" y="112" width="64" height="8" fill="#90320E"/>
<rect x="48" y="120" width="64" height="8" fill="#FF8205"/>
<rect x="48" y="128" width="64" height="8" fill="#FF8205"/>
<rect x="48" y="136" width="64" height="8" fill="#FF8205"/>
<rect x="56" y="144" width="48" height="8" fill="#FA500F"/>
<rect x="80" y="96" width="32" height="16" fill="#FA500F"/>
<rect x="88" y="120" width="16" height="24" fill="#FA500F"/>
<rect x="96" y="120" width="8" height="24" fill="#E92700"/>
<rect x="88" y="144" width="8" height="8" fill="#E92700"/>
<rect x="104" y="96" width="8" height="16" fill="#E92700"/>
<rect x="104" y="120" width="8" height="24" fill="#90320E"/>
<rect x="112" y="96" width="8" height="16" fill="#90320E"/>
<rect x="96" y="144" width="8" height="8" fill="#90320E"/>
<rect x="52" y="98" width="8" height="8" transform="rotate(90 52 98)" fill="#FFD700"/>
<rect x="60" y="124" width="8" height="8" transform="rotate(90 60 124)" fill="#FFD700"/>
<rect x="76" y="72" width="8" height="24" fill="#8198C0"/>
<rect x="84" y="72" width="32" height="8" fill="#8198C0"/>
<rect x="60" y="48" width="40" height="8" fill="#8198C0"/>
<rect x="44" y="72" width="32" height="8" fill="#8198C0"/>
<rect x="76" y="32" width="8" height="40" fill="#8198C0"/>
<rect x="108" y="64" width="8" height="8" fill="#8198C0"/>
<rect x="44" y="64" width="8" height="8" fill="#8198C0"/>
<rect x="68" y="8" width="24" height="24" fill="#8198C0"/>
<rect x="100" y="40" width="24" height="24" fill="#8198C0"/>
<rect x="36" y="40" width="24" height="24" fill="#8198C0"/>
<rect x="76" y="16" width="8" height="8" fill="white"/>
<rect x="108" y="48" width="8" height="8" fill="white"/>
<rect x="44" y="48" width="8" height="8" fill="white"/>
<rect x="116" y="56" width="8" height="8" fill="#3C408C"/>
<rect x="108" y="64" width="8" height="8" fill="#3C408C"/>
<rect x="44" y="64" width="8" height="8" fill="#3C408C"/>
<rect x="76" y="32" width="8" height="8" fill="#3C408C"/>
<rect x="60" y="48" width="8" height="8" fill="#3C408C"/>
<rect x="92" y="48" width="8" height="8" fill="#3C408C"/>
<rect x="76" y="80" width="8" height="8" fill="#8198C0"/>
<rect x="68" y="88" width="8" height="8" fill="#3C408C"/>
<rect x="84" y="88" width="8" height="8" fill="#3C408C"/>
<rect x="76" y="72" width="8" height="8" fill="#3C408C"/>
<rect x="84" y="24" width="8" height="8" fill="#3C408C"/>
<rect x="68" y="8" width="8" height="8" fill="#C1CCDF"/>
<rect x="36" y="40" width="8" height="8" fill="#C1CCDF"/>
<rect x="100" y="40" width="8" height="8" fill="#C1CCDF"/>
</svg>
