<svg width="160" height="160" viewBox="0 0 160 160" fill="none" xmlns="http://www.w3.org/2000/svg">
<rect x="28" y="40" width="16" height="8" transform="rotate(90 28 40)" fill="#3C408C"/>
<rect x="28" y="104" width="16" height="8" transform="rotate(90 28 104)" fill="#3C408C"/>
<rect x="20" y="72" width="16" height="8" transform="rotate(90 20 72)" fill="#3C408C"/>
<rect x="20" y="64" width="16" height="8" fill="#3C408C"/>
<rect x="20" y="88" width="16" height="8" fill="#3C408C"/>
<rect x="28" y="56" width="8" height="8" fill="#3C408C"/>
<rect x="28" y="96" width="8" height="8" fill="#3C408C"/>
<rect x="68" y="16" width="12" height="8" fill="#3C408C"/>
<rect width="12" height="8" transform="matrix(-1 0 0 1 92 16)" fill="#3C408C"/>
<rect x="36" y="24" width="16" height="8" fill="#3C408C"/>
<rect width="16" height="8" transform="matrix(-1 0 0 1 124 24)" fill="#3C408C"/>
<rect x="36" y="32" width="16" height="8" transform="rotate(90 36 32)" fill="#3C408C"/>
<rect x="52" y="32" width="16" height="8" fill="#3C408C"/>
<rect width="16" height="8" transform="matrix(-1 0 0 1 108 32)" fill="#3C408C"/>
<rect x="60" y="24" width="8" height="8" fill="#3C408C"/>
<rect width="8" height="8" transform="matrix(-1 0 0 1 100 24)" fill="#3C408C"/>
<rect x="68" y="136" width="12" height="8" fill="#3C408C"/>
<rect width="12" height="8" transform="matrix(-1 0 0 1 92 136)" fill="#3C408C"/>
<rect x="36" y="112" width="16" height="8" transform="rotate(90 36 112)" fill="#3C408C"/>
<rect x="52" y="120" width="16" height="8" fill="#3C408C"/>
<rect width="16" height="8" transform="matrix(-1 0 0 1 108 120)" fill="#3C408C"/>
<rect x="36" y="128" width="16" height="8" fill="#3C408C"/>
<rect width="16" height="8" transform="matrix(-1 0 0 1 124 128)" fill="#3C408C"/>
<rect x="60" y="128" width="8" height="8" fill="#3C408C"/>
<rect width="8" height="8" transform="matrix(-1 0 0 1 100 128)" fill="#3C408C"/>
<rect width="16" height="8" transform="matrix(-1 0 0 1 132 32)" fill="#3C408C"/>
<rect width="16" height="8" transform="matrix(4.37114e-08 1 1 -4.37114e-08 132 40)" fill="#3C408C"/>
<rect width="16" height="8" transform="matrix(4.37114e-08 1 1 -4.37114e-08 132 104)" fill="#3C408C"/>
<rect width="16" height="8" transform="matrix(4.37114e-08 1 1 -4.37114e-08 140 72)" fill="#3C408C"/>
<rect width="16" height="8" transform="matrix(-1 0 0 1 132 120)" fill="#3C408C"/>
<rect width="16" height="8" transform="matrix(-1 0 0 1 140 64)" fill="#3C408C"/>
<rect width="16" height="8" transform="matrix(-1 0 0 1 140 88)" fill="#3C408C"/>
<rect width="8" height="8" transform="matrix(-1 0 0 1 132 56)" fill="#3C408C"/>
<rect width="8" height="8" transform="matrix(-1 0 0 1 132 96)" fill="#3C408C"/>
<rect width="24" height="80" transform="matrix(-1 0 0 1 124 40)" fill="#C1CCDF"/>
<rect width="8" height="32" transform="matrix(-1 0 0 1 100 40)" fill="#C1CCDF"/>
<rect width="8" height="32" transform="matrix(-1 0 0 1 68 40)" fill="#C1CCDF"/>
<rect width="8" height="32" transform="matrix(-1 0 0 1 100 88)" fill="#C1CCDF"/>
<rect width="8" height="32" transform="matrix(-1 0 0 1 68 88)" fill="#C1CCDF"/>
<rect x="36" y="40" width="24" height="80" fill="#C1CCDF"/>
<rect x="68" y="104" width="12" height="24" fill="#C1CCDF"/>
<rect width="12" height="24" transform="matrix(-1 0 0 1 92 104)" fill="#C1CCDF"/>
<rect x="68" y="32" width="12" height="24" fill="#C1CCDF"/>
<rect width="12" height="24" transform="matrix(-1 0 0 1 92 32)" fill="#C1CCDF"/>
<rect x="28" y="72" width="8" height="16" fill="#C1CCDF"/>
<rect width="8" height="16" transform="matrix(-1 0 0 1 132 72)" fill="#C1CCDF"/>
<rect x="68" y="24" width="12" height="8" fill="#8198C0"/>
<rect width="12" height="8" transform="matrix(-1 0 0 1 92 24)" fill="#8198C0"/>
<rect x="68" y="128" width="12" height="8" fill="#8198C0"/>
<rect width="12" height="8" transform="matrix(-1 0 0 1 92 128)" fill="#8198C0"/>
<rect x="36" y="32" width="16" height="8" fill="#8198C0"/>
<rect width="16" height="8" transform="matrix(-1 0 0 1 124 32)" fill="#8198C0"/>
<rect x="36" y="40" width="16" height="8" transform="rotate(90 36 40)" fill="#8198C0"/>
<rect width="16" height="8" transform="matrix(4.37114e-08 1 1 -4.37114e-08 124 40)" fill="#8198C0"/>
<rect x="36" y="104" width="16" height="8" transform="rotate(90 36 104)" fill="#8198C0"/>
<rect width="16" height="8" transform="matrix(4.37114e-08 1 1 -4.37114e-08 124 104)" fill="#8198C0"/>
<rect x="28" y="72" width="16" height="8" transform="rotate(90 28 72)" fill="#8198C0"/>
<rect width="16" height="8" transform="matrix(4.37114e-08 1 1 -4.37114e-08 132 72)" fill="#8198C0"/>
<rect x="52" y="40" width="16" height="8" fill="#8198C0"/>
<rect width="16" height="8" transform="matrix(-1 0 0 1 108 40)" fill="#8198C0"/>
<rect x="52" y="112" width="16" height="8" fill="#8198C0"/>
<rect width="16" height="8" transform="matrix(-1 0 0 1 108 112)" fill="#8198C0"/>
<rect x="36" y="120" width="16" height="8" fill="#8198C0"/>
<rect width="16" height="8" transform="matrix(-1 0 0 1 124 120)" fill="#8198C0"/>
<rect x="28" y="64" width="16" height="8" fill="#8198C0"/>
<rect width="16" height="8" transform="matrix(-1 0 0 1 132 64)" fill="#8198C0"/>
<rect x="28" y="88" width="16" height="8" fill="#8198C0"/>
<rect width="16" height="8" transform="matrix(-1 0 0 1 132 88)" fill="#8198C0"/>
<rect x="36" y="56" width="8" height="8" fill="#8198C0"/>
<rect width="8" height="8" transform="matrix(-1 0 0 1 124 56)" fill="#8198C0"/>
<rect x="36" y="96" width="8" height="8" fill="#8198C0"/>
<rect width="8" height="8" transform="matrix(-1 0 0 1 124 96)" fill="#8198C0"/>
<rect x="60" y="120" width="8" height="8" fill="#8198C0"/>
<rect width="8" height="8" transform="matrix(-1 0 0 1 100 120)" fill="#8198C0"/>
<rect x="60" y="32" width="8" height="8" fill="#8198C0"/>
<rect width="8" height="8" transform="matrix(-1 0 0 1 100 32)" fill="#8198C0"/>
<rect width="8" height="16" transform="matrix(-1 0 0 1 60 72)" fill="#3C408C"/>
<rect x="60" y="64" width="8" height="8" fill="#3C408C"/>
<rect x="60" y="56" width="8" height="8" fill="#8198C0"/>
<rect x="60" y="96" width="8" height="8" fill="#8198C0"/>
<rect x="84" y="56" width="16" height="8" fill="#8198C0"/>
<rect x="92" y="64" width="8" height="8" fill="#8198C0"/>
<rect width="16" height="8" transform="matrix(-1 0 0 1 100 64)" fill="#3C408C"/>
<rect x="100" y="64" width="8" height="8" fill="#8198C0"/>
<rect x="100" y="72" width="8" height="8" fill="#8198C0"/>
<rect x="52" y="64" width="8" height="8" fill="#8198C0"/>
<rect x="52" y="88" width="8" height="8" fill="#8198C0"/>
<rect x="100" y="88" width="8" height="8" fill="#8198C0"/>
<rect x="100" y="80" width="8" height="8" fill="#8198C0"/>
<rect width="16" height="16" transform="matrix(-1 0 0 1 108 72)" fill="#3C408C"/>
<rect x="84" y="96" width="16" height="8" fill="#8198C0"/>
<rect x="92" y="88" width="8" height="8" fill="#8198C0"/>
<rect width="16" height="8" transform="matrix(-1 0 0 1 100 88)" fill="#3C408C"/>
<rect x="60" y="88" width="8" height="8" fill="#3C408C"/>
<rect width="12" height="8" transform="matrix(-1 0 0 1 92 56)" fill="#3C408C"/>
<rect x="68" y="56" width="12" height="8" fill="#3C408C"/>
<rect width="12" height="8" transform="matrix(-1 0 0 1 92 96)" fill="#3C408C"/>
<rect x="68" y="96" width="12" height="8" fill="#3C408C"/>
</svg>
