<svg width="160" height="160" viewBox="0 0 160 160" fill="none" xmlns="http://www.w3.org/2000/svg">
<rect x="32" y="112" width="96" height="8" fill="#C46130"/>
<rect x="32" y="32" width="96" height="80" fill="#FFD700"/>
<rect width="8" height="64" transform="matrix(-1 0 0 1 32 40)" fill="#FFD700"/>
<rect width="8" height="64" transform="matrix(-1 0 0 1 136 40)" fill="#FF8205"/>
<rect x="24" y="32" width="8" height="8" fill="#FF8205"/>
<rect width="8" height="8" transform="matrix(-1 0 0 1 136 32)" fill="#C46130"/>
<rect x="24" y="104" width="8" height="8" fill="#C46130"/>
<rect x="56" y="120" width="8" height="8" fill="#C46130"/>
<rect x="56" y="128" width="8" height="8" fill="#C46130"/>
<rect x="56" y="136" width="8" height="8" fill="#C46130"/>
<rect x="64" y="128" width="8" height="8" fill="#C46130"/>
<rect x="72" y="120" width="8" height="8" fill="#C46130"/>
<rect x="64" y="120" width="8" height="8" fill="#FF8205"/>
<rect width="8" height="8" transform="matrix(-1 0 0 1 136 104)" fill="#C46130"/>
<rect x="16" y="40" width="8" height="64" fill="#FF8205"/>
<rect x="136" y="40" width="8" height="64" fill="#C46130"/>
<rect x="64" y="112" width="16" height="8" fill="#FFD700"/>
<rect x="32" y="24" width="96" height="8" fill="#FF8205"/>
<rect x="72" y="112" width="8" height="8" fill="#FF8205"/>
<rect x="80.092" y="104" width="48" height="8" fill="#FF8205"/>
<rect x="32" y="104" width="32" height="8" fill="#FF8205"/>
<rect x="52" y="48.2252" width="8" height="8" fill="#FA500F"/>
<rect x="44" y="56.1841" width="8" height="8" fill="#FA500F"/>
<rect x="36" y="64.1841" width="8" height="8" fill="#FA500F"/>
<rect x="44" y="72.1841" width="8" height="8" fill="#FA500F"/>
<rect x="52" y="80.1841" width="8" height="8" fill="#FA500F"/>
<rect width="8" height="8" transform="matrix(-1 0 0 1 100 48.2252)" fill="#FA500F"/>
<rect width="8" height="8" transform="matrix(-1 0 0 1 108 56.1841)" fill="#FA500F"/>
<rect width="8" height="8" transform="matrix(-1 0 0 1 116 64.1841)" fill="#FA500F"/>
<rect width="8" height="8" transform="matrix(-1 0 0 1 108 72.1841)" fill="#FA500F"/>
<rect width="8" height="8" transform="matrix(-1 0 0 1 100 80.1841)" fill="#FA500F"/>
<path d="M76 44H84L76 92H68L76 44Z" fill="#FA500F"/>
</svg>
