<svg width="160" height="160" viewBox="0 0 160 160" fill="none" xmlns="http://www.w3.org/2000/svg">
<path d="M109.572 132H65V140H117V132H109.572Z" fill="#90320E"/>
<path d="M112.573 20H44V28H124V20H112.573Z" fill="#90320E"/>
<path d="M52 132H44V140H52V132Z" fill="#90320E"/>
<path d="M60 132H52V140H60V132Z" fill="#90320E"/>
<path d="M124 132H117V140H124V132Z" fill="#90320E"/>
<path d="M44 124H36V132H44V124Z" fill="#90320E"/>
<path d="M124 116H116V124H124V116Z" fill="#90320E"/>
<path d="M36 36H28V124H36V36Z" fill="#90320E"/>
<path d="M132 28H124V132H132V28Z" fill="#90320E"/>
<path d="M116.446 28H56V111H124V28H116.446Z" fill="#FA500F"/>
<path d="M44 33.9273V111H52V28H44V33.9273Z" fill="#FA500F"/>
<path d="M60 126.663V148H68V116H60V126.663Z" fill="#E10500"/>
<path d="M52 116L116 116V108L44 108V124L52 124V116Z" fill="#828282"/>
<path d="M81.7124 124H116V116H68V124H81.7124Z" fill="white"/>
<path d="M60 116H52V124H60V116Z" fill="white"/>
<path d="M124 108H116V116H124V108Z" fill="#90320E"/>
<path d="M36 117V124H44V110H36V117Z" fill="#E92700"/>
<path d="M48 33.7131V108H56V28H48V33.7131Z" fill="#90320E"/>
<path d="M60 124H44V132H60V124Z" fill="#FA500F"/>
<path d="M124 124H68V132H124V124Z" fill="#FA500F"/>
<path d="M44 105.232V36H36V111H44V105.232Z" fill="#E92700"/>
<path d="M108.002 84.0015V52H99.9967V59.9984H91.9989V68.0047H84.0011V59.9984H76.0033V52H68.0055V84.0015H60V92H84.0011V84.0015H76.0033V76.0031H84.0011V84.0015H91.9989V76.0031H99.9967V84.0015H91.9989V92H116V84.0015H108.002Z" fill="#FFD700"/>
<rect x="108" y="36" width="8" height="8" fill="#FF8205"/>
<rect x="100" y="36" width="8" height="8" fill="#FF8205"/>
<rect x="108" y="44" width="8" height="8" fill="#FF8205"/>
<path d="M44 28H36V36H44V28Z" fill="#90320E"/>
</svg>
