<svg width="160" height="160" viewBox="0 0 160 160" fill="none" xmlns="http://www.w3.org/2000/svg">
<rect x="104" y="16" width="8" height="104" fill="#FA500F"/>
<rect x="96" y="24" width="8" height="88" fill="#FA500F"/>
<rect width="8" height="72" transform="matrix(-1 0 0 1 96 32)" fill="#FA500F"/>
<rect width="16" height="56" transform="matrix(-1 0 0 1 88 40)" fill="#FA500F"/>
<rect x="72" y="40" width="16" height="32" fill="#FF8205"/>
<rect x="88" y="32" width="8" height="32" fill="#FF8205"/>
<rect x="96" y="24" width="8" height="32" fill="#FF8205"/>
<rect x="104" y="16" width="8" height="32" fill="#FF8205"/>
<rect width="8" height="48" transform="matrix(-1 0 0 1 72 48)" fill="#E92700"/>
<rect x="72" y="96" width="16" height="8" fill="#E92700"/>
<rect x="88" y="104" width="8" height="8" fill="#E92700"/>
<rect x="88" y="112" width="8" height="8" fill="#90320E"/>
<rect x="80" y="104" width="8" height="8" fill="#90320E"/>
<rect x="72" y="104" width="8" height="8" fill="#90320E"/>
<rect x="56" y="96" width="16" height="8" fill="#90320E"/>
<rect x="24" y="96" width="16" height="8" fill="#90320E"/>
<rect x="96" y="112" width="8" height="8" fill="#E92700"/>
<rect x="96" y="120" width="8" height="8" fill="#90320E"/>
<rect x="104" y="120" width="8" height="8" fill="#E92700"/>
<rect x="104" y="128" width="8" height="8" fill="#90320E"/>
<rect x="72" y="56" width="8" height="8" fill="#FFD700"/>
<rect x="80" y="48" width="8" height="8" fill="#FFD700"/>
<rect x="88" y="40" width="8" height="8" fill="#FFD700"/>
<rect x="96" y="32" width="8" height="8" fill="#FFD700"/>
<rect x="104" y="24" width="8" height="8" fill="#FFD700"/>
<rect x="112" y="48" width="8" height="56" fill="#90320E"/>
<rect x="120" y="64" width="8" height="24" fill="#E92700"/>
<rect x="16" y="56" width="8" height="40" fill="#E92700"/>
<rect x="24" y="48" width="40" height="48" fill="#FA500F"/>
<rect x="24" y="48" width="40" height="24" fill="#FF8205"/>
<rect x="32" y="56" width="32" height="8" fill="#FFD700"/>
<rect x="40" y="96" width="16" height="32" fill="#90320E"/>
<rect x="48" y="120" width="16" height="24" fill="#90320E"/>
<rect x="128" y="24" width="8" height="8" fill="#FF8205"/>
<rect x="136" y="48" width="8" height="8" fill="#FF8205"/>
<rect x="128" y="104" width="8" height="8" fill="#FF8205"/>
<rect x="144" y="80" width="8" height="8" fill="#FF8205"/>
</svg>
