<svg width="160" height="160" viewBox="0 0 160 160" fill="none" xmlns="http://www.w3.org/2000/svg">
<rect x="20" y="32" width="48" height="24" fill="#DBE1EA"/>
<rect x="52" y="48" width="48" height="24" fill="#DBE1EA"/>
<rect x="52" y="16" width="48" height="24" fill="#DBE1EA"/>
<rect x="84" y="32" width="48" height="24" fill="#DBE1EA"/>
<rect x="20" y="56" width="24" height="36" fill="#C1CCDF"/>
<rect x="84" y="64" width="24" height="44" fill="#8198C0"/>
<rect x="52" y="72" width="24" height="36" fill="#C1CCDF"/>
<rect x="116" y="48" width="24" height="40" fill="#8198C0"/>
<rect x="20" y="92" width="24" height="36" fill="#C1CCDF"/>
<rect x="84" y="108" width="24" height="36" fill="#8198C0"/>
<rect x="52" y="108" width="24" height="36" fill="#C1CCDF"/>
<rect x="116" y="88" width="24" height="40" fill="#8198C0"/>
<rect width="8" height="8" transform="matrix(-1 0 0 1 76 8)" fill="#3C408C"/>
<rect width="8" height="8" transform="matrix(-1 0 0 1 140 40)" fill="#3C408C"/>
<rect width="8" height="8" transform="matrix(-1 0 0 1 108 24)" fill="#3C408C"/>
<rect width="8" height="8" transform="matrix(-1 0 0 1 140 80)" fill="#3C408C"/>
<rect x="76" y="152" width="8" height="8" transform="rotate(180 76 152)" fill="#3C408C"/>
<rect width="8" height="8" transform="matrix(1 0 0 -1 84 152)" fill="#3C408C"/>
<rect width="8" height="8" transform="matrix(-1 0 0 1 84 8)" fill="#3C408C"/>
<rect width="8" height="8" transform="matrix(-1 0 0 1 148 40)" fill="#3C408C"/>
<rect width="8" height="8" transform="matrix(-1 0 0 1 116 24)" fill="#3C408C"/>
<rect width="8" height="8" transform="matrix(-1 0 0 1 148 80)" fill="#3C408C"/>
<rect x="84" y="152" width="8" height="8" transform="rotate(180 84 152)" fill="#3C408C"/>
<rect width="8" height="8" transform="matrix(-1 0 0 1 68 16)" fill="#3C408C"/>
<rect width="8" height="8" transform="matrix(-1 0 0 1 132 48)" fill="#3C408C"/>
<rect width="8" height="8" transform="matrix(-1 0 0 1 100 32)" fill="#3C408C"/>
<rect width="8" height="8" transform="matrix(-1 0 0 1 132 88)" fill="#3C408C"/>
<rect x="68" y="144" width="8" height="8" transform="rotate(180 68 144)" fill="#3C408C"/>
<rect width="8" height="8" transform="matrix(1 0 0 -1 92 144)" fill="#3C408C"/>
<rect width="8" height="8" transform="matrix(-1 0 0 1 52 24)" fill="#3C408C"/>
<rect width="8" height="8" transform="matrix(-1 0 0 1 116 56)" fill="#3C408C"/>
<rect width="8" height="8" transform="matrix(-1 0 0 1 84 40)" fill="#3C408C"/>
<rect width="8" height="8" transform="matrix(-1 0 0 1 116 96)" fill="#3C408C"/>
<rect width="8" height="8" transform="matrix(-1 0 0 1 60 32)" fill="#3C408C"/>
<rect width="8" height="8" transform="matrix(-1 0 0 1 92 48)" fill="#3C408C"/>
<rect width="8" height="8" transform="matrix(-1 0 0 1 28 48)" fill="#3C408C"/>
<rect width="8" height="8" transform="matrix(-1 0 0 1 84 8)" fill="#3C408C"/>
<rect width="8" height="8" transform="matrix(-1 0 0 1 28 84)" fill="#3C408C"/>
<rect width="8" height="8" transform="matrix(-1 0 0 1 60 64)" fill="#3C408C"/>
<rect width="8" height="8" transform="matrix(-1 0 0 1 116 24)" fill="#3C408C"/>
<rect width="8" height="8" transform="matrix(-1 0 0 1 60 100)" fill="#3C408C"/>
<rect width="8" height="8" transform="matrix(-1 0 0 1 76 40)" fill="#3C408C"/>
<rect width="8" height="8" transform="matrix(-1 0 0 1 44 56)" fill="#3C408C"/>
<rect width="8" height="8" transform="matrix(-1 0 0 1 100 16)" fill="#3C408C"/>
<rect width="8" height="8" transform="matrix(-1 0 0 1 44 92)" fill="#3C408C"/>
<rect width="8" height="8" transform="matrix(-1 0 0 1 76 72)" fill="#3C408C"/>
<rect width="8" height="8" transform="matrix(-1 0 0 1 132 32)" fill="#3C408C"/>
<rect width="8" height="8" transform="matrix(-1 0 0 1 76 108)" fill="#3C408C"/>
<rect width="8" height="8" transform="matrix(-1 0 0 1 68 32)" fill="#3C408C"/>
<rect width="8" height="8" transform="matrix(-1 0 0 1 100 48)" fill="#3C408C"/>
<rect width="8" height="8" transform="matrix(-1 0 0 1 36 48)" fill="#3C408C"/>
<rect width="8" height="8" transform="matrix(-1 0 0 1 92 8)" fill="#3C408C"/>
<rect width="8" height="8" transform="matrix(-1 0 0 1 36 84)" fill="#3C408C"/>
<rect width="8" height="8" transform="matrix(-1 0 0 1 68 64)" fill="#3C408C"/>
<rect width="8" height="8" transform="matrix(-1 0 0 1 124 24)" fill="#3C408C"/>
<rect width="8" height="8" transform="matrix(-1 0 0 1 68 100)" fill="#3C408C"/>
<rect width="8" height="8" transform="matrix(-1 0 0 1 84 40)" fill="#3C408C"/>
<rect width="8" height="8" transform="matrix(-1 0 0 1 52 56)" fill="#3C408C"/>
<rect width="8" height="8" transform="matrix(-1 0 0 1 108 16)" fill="#3C408C"/>
<rect width="8" height="8" transform="matrix(-1 0 0 1 52 92)" fill="#3C408C"/>
<rect width="8" height="8" transform="matrix(-1 0 0 1 84 72)" fill="#3C408C"/>
<rect width="8" height="8" transform="matrix(-1 0 0 1 140 32)" fill="#3C408C"/>
<rect width="8" height="8" transform="matrix(-1 0 0 1 84 108)" fill="#3C408C"/>
<rect x="52" y="136" width="8" height="8" transform="rotate(180 52 136)" fill="#3C408C"/>
<rect width="8" height="8" transform="matrix(1 0 0 -1 108 136)" fill="#3C408C"/>
<rect width="8" height="8" transform="matrix(-1 0 0 1 36 32)" fill="#3C408C"/>
<rect width="8" height="8" transform="matrix(-1 0 0 1 100 64)" fill="#3C408C"/>
<rect width="8" height="8" transform="matrix(-1 0 0 1 68 48)" fill="#3C408C"/>
<rect width="8" height="8" transform="matrix(-1 0 0 1 100 104)" fill="#3C408C"/>
<rect x="36" y="128" width="8" height="8" transform="rotate(180 36 128)" fill="#3C408C"/>
<rect width="8" height="8" transform="matrix(1 0 0 -1 124 128)" fill="#3C408C"/>
<rect width="8" height="8" transform="matrix(-1 0 0 1 20 40)" fill="#3C408C"/>
<rect x="20" y="120" width="8" height="8" transform="rotate(180 20 120)" fill="#3C408C"/>
<rect width="8" height="8" transform="matrix(1 0 0 -1 140 120)" fill="#3C408C"/>
<rect width="8" height="8" transform="matrix(-1 0 0 1 60 16)" fill="#3C408C"/>
<rect width="8" height="8" transform="matrix(-1 0 0 1 124 48)" fill="#3C408C"/>
<rect width="8" height="8" transform="matrix(-1 0 0 1 92 32)" fill="#3C408C"/>
<rect width="8" height="8" transform="matrix(-1 0 0 1 124 88)" fill="#3C408C"/>
<rect x="60" y="144" width="8" height="8" transform="rotate(180 60 144)" fill="#3C408C"/>
<rect width="8" height="8" transform="matrix(1 0 0 -1 100 144)" fill="#3C408C"/>
<rect width="8" height="8" transform="matrix(-1 0 0 1 44 24)" fill="#3C408C"/>
<rect width="8" height="8" transform="matrix(-1 0 0 1 108 56)" fill="#3C408C"/>
<rect width="8" height="8" transform="matrix(-1 0 0 1 76 40)" fill="#3C408C"/>
<rect width="8" height="8" transform="matrix(-1 0 0 1 108 96)" fill="#3C408C"/>
<rect x="44" y="136" width="8" height="8" transform="rotate(180 44 136)" fill="#3C408C"/>
<rect width="8" height="8" transform="matrix(1 0 0 -1 116 136)" fill="#3C408C"/>
<rect width="8" height="8" transform="matrix(-1 0 0 1 28 32)" fill="#3C408C"/>
<rect width="8" height="8" transform="matrix(-1 0 0 1 92 64)" fill="#3C408C"/>
<rect width="8" height="8" transform="matrix(-1 0 0 1 60 48)" fill="#3C408C"/>
<rect width="8" height="8" transform="matrix(-1 0 0 1 92 104)" fill="#3C408C"/>
<rect x="28" y="128" width="8" height="8" transform="rotate(180 28 128)" fill="#3C408C"/>
<rect width="8" height="8" transform="matrix(1 0 0 -1 132 128)" fill="#3C408C"/>
<rect width="8" height="64" transform="matrix(-1 0 0 1 20 48)" fill="#3C408C"/>
<rect width="8" height="64" transform="matrix(-1 0 0 1 84 80)" fill="#3C408C"/>
<rect width="8" height="64" transform="matrix(-1 0 0 1 52 64)" fill="#3C408C"/>
<rect width="8" height="64" transform="matrix(-1 0 0 1 116 64)" fill="#3C408C"/>
<rect width="8" height="64" transform="matrix(-1 0 0 1 148 48)" fill="#3C408C"/>
<rect x="4" y="32" width="16" height="16" fill="#FA500F"/>
<rect x="4" y="112" width="16" height="16" fill="#FA500F"/>
<rect x="140" y="32" width="16" height="16" fill="#FA500F"/>
<rect x="140" y="112" width="16" height="16" fill="#FA500F"/>
<rect x="68" y="144" width="16" height="16" fill="#FA500F"/>
<rect x="68" width="16" height="16" fill="#FA500F"/>
<rect x="68" y="64" width="16" height="16" fill="#FA500F"/>
</svg>
