<svg width="160" height="160" viewBox="0 0 160 160" fill="none" xmlns="http://www.w3.org/2000/svg">
<rect width="16" height="24" transform="matrix(1 0 0 -1 32 64)" fill="#5F6CA6"/>
<rect width="16" height="24" transform="matrix(1 0 0 -1 112 64)" fill="#5F6CA6"/>
<rect width="16" height="8" transform="matrix(1 0 0 -1 40 32)" fill="#5F6CA6"/>
<rect width="16" height="8" transform="matrix(1 0 0 -1 32 40)" fill="#5F6CA6"/>
<rect width="8" height="8" transform="matrix(1 0 0 -1 112 32)" fill="#5F6CA6"/>
<rect width="16" height="8" transform="matrix(1 0 0 -1 112 40)" fill="#5F6CA6"/>
<rect width="64" height="8" transform="matrix(1 0 0 -1 48 24)" fill="#5F6CA6"/>
<rect x="16" y="72" width="48" height="48" fill="#5F6CA6"/>
<rect width="32" height="8" transform="matrix(1 0 0 -1 24 72)" fill="#5F6CA6"/>
<rect width="32" height="8" transform="matrix(1 0 0 -1 24 128)" fill="#5F6CA6"/>
<rect width="16" height="8" transform="matrix(1 0 0 -1 56 72)" fill="#FA500F"/>
<rect width="8" height="8" transform="matrix(1 0 0 -1 48 72)" fill="#3C408C"/>
<rect width="16" height="8" transform="matrix(1 0 0 -1 56 128)" fill="#FA500F"/>
<rect width="8" height="8" transform="matrix(1 0 0 -1 48 128)" fill="#3C408C"/>
<rect width="16" height="48" transform="matrix(1 0 0 -1 64 120)" fill="#FA500F"/>
<rect width="8" height="48" transform="matrix(1 0 0 -1 56 120)" fill="#3C408C"/>
<rect x="88" y="72" width="40" height="48" fill="#FA500F"/>
<rect width="24" height="8" transform="matrix(1 0 0 -1 96 72)" fill="#FA500F"/>
<rect width="24" height="8" transform="matrix(1 0 0 -1 96 128)" fill="#FA500F"/>
<rect width="8" height="8" transform="matrix(1 0 0 -1 128 72)" fill="#5F6CA6"/>
<rect width="8" height="8" transform="matrix(1 0 0 -1 120 72)" fill="#FF8205"/>
<rect width="8" height="8" transform="matrix(1 0 0 -1 128 128)" fill="#5F6CA6"/>
<rect width="16" height="8" transform="matrix(1 0 0 -1 112 128)" fill="#FF8205"/>
<rect width="8" height="48" transform="matrix(1 0 0 -1 136 120)" fill="#5F6CA6"/>
<rect width="8" height="48" transform="matrix(1 0 0 -1 128 120)" fill="#FF8205"/>
<rect x="104" y="72" width="16" height="48" fill="#90320E"/>
<rect x="96" y="72" width="8" height="48" fill="#FF8205"/>
<rect x="120" y="128" width="8" height="16" fill="#5F6CA6"/>
<rect x="120" y="152" width="24" height="8" transform="rotate(180 120 152)" fill="#5F6CA6"/>
<rect x="104" y="152" width="16" height="16" transform="rotate(180 104 152)" fill="#FF8205"/>
<rect x="88" y="152" width="8" height="16" transform="rotate(180 88 152)" fill="#90320E"/>
<rect x="112" y="40" width="8" height="24" fill="#3C408C"/>
<rect x="104" y="32" width="8" height="8" fill="#3C408C"/>
<rect x="56" y="24" width="56" height="8" fill="#3C408C"/>
<rect x="48" y="32" width="8" height="8" fill="#3C408C"/>
<rect x="24" y="72" width="24" height="48" fill="#3C408C"/>
</svg>
