<svg width="160" height="160" viewBox="0 0 160 160" fill="none" xmlns="http://www.w3.org/2000/svg">
<rect x="24" y="44" width="112" height="72" fill="#90320E"/>
<rect x="24" y="52" width="112" height="80" fill="#90320E"/>
<path d="M24 44H16V124H24V44Z" fill="#662005"/>
<path d="M144 44H136V124H144V44Z" fill="#662005"/>
<path d="M128 140L128 132L32 132L32 140L128 140Z" fill="#662005"/>
<path d="M104 28L104 20L56 20L56 28L104 28Z" fill="#662005"/>
<path d="M136 44L136 36L24 36L24 44L136 44Z" fill="#662005"/>
<path d="M128 92L128 84L32 84L32 92L128 92Z" fill="#662005"/>
<path d="M100.002 100.001L100.002 68L91.997 68L91.997 76.0055L83.999 76.0055L83.999 84.0041L76.001 84.0041L76.001 76.0055L68.0029 76.0055L68.0029 68L60.0049 68L60.0049 100.001L52 100.001L52 108L76.001 108L76.001 100.001L68.0029 100.001L68.0029 92.0028L76.001 92.0028L76.001 100.001L83.999 100.001L83.999 92.0028L91.997 92.0028L91.997 100.001L83.999 100.001L83.999 108L108 108L108 100.001L100.002 100.001Z" fill="#FFD700"/>
<path d="M32 124H24V132H32V124Z" fill="#662005"/>
<path d="M32 76H24V84H32V76Z" fill="#662005"/>
<path d="M56 28H48V36H56V28Z" fill="#662005"/>
<path d="M112 28H104V36H112V28Z" fill="#662005"/>
<path d="M136 76H128V84H136V76Z" fill="#662005"/>
<path d="M136 124H128V132H136V124Z" fill="#662005"/>
<rect x="24" y="44" width="8" height="32" fill="#C46130"/>
<rect x="128" y="44" width="8" height="32" fill="#C46130"/>
<rect x="24" y="84" width="8" height="40" fill="#C46130"/>
<rect x="32" y="76" width="8" height="8" fill="#C46130"/>
<rect x="120" y="76" width="8" height="8" fill="#C46130"/>
<rect x="128" y="84" width="8" height="40" fill="#C46130"/>
<rect x="136" y="44" width="8" height="104" transform="rotate(90 136 44)" fill="#C46130"/>
<rect x="32" y="124" width="96" height="8" fill="#90320E"/>
</svg>
