<svg width="160" height="160" viewBox="0 0 160 160" fill="none" xmlns="http://www.w3.org/2000/svg">
<rect x="40" y="56.0498" width="80" height="71.9502" fill="#C1CCDF"/>
<rect x="40" y="72" width="80" height="40" fill="#3C408C"/>
<path d="M97.1445 41.2012L97.1445 14L90.2832 14L90.2832 20.8047L83.4277 20.8047L83.4277 27.6035L76.5723 27.6035L76.5723 20.8047L69.7168 20.8047L69.7168 14L62.8614 14L62.8614 41.2012L56 41.2012L56 48L76.5723 48L76.5723 41.2012L69.7168 41.2012L69.7168 34.4023L76.5723 34.4023L76.5723 41.2012L83.4277 41.2012L83.4277 34.4023L90.2832 34.4023L90.2832 41.2012L83.4277 41.2012L83.4277 48L104 48L104 41.2012L97.1445 41.2012Z" fill="#3C408C"/>
<rect x="32" y="120" width="8" height="56" transform="rotate(180 32 120)" fill="#8198C0"/>
<rect x="40" y="120" width="8" height="56" transform="rotate(180 40 120)" fill="#DBE1EA"/>
<rect x="128" y="120" width="8" height="56" transform="rotate(180 128 120)" fill="#8198C0"/>
<rect x="16" y="112" width="8" height="32" transform="rotate(180 16 112)" fill="#8198C0"/>
<rect x="24" y="100" width="8" height="8" transform="rotate(180 24 100)" fill="#8198C0"/>
<rect x="144" y="100" width="8" height="8" transform="rotate(180 144 100)" fill="#3C408C"/>
<rect x="152" y="112" width="8" height="32" transform="rotate(180 152 112)" fill="#3C408C"/>
<rect x="128" y="64" width="8" height="56" fill="#3C408C"/>
<rect x="120" y="48" width="8" height="80" transform="rotate(90 120 48)" fill="#8198C0"/>
<rect x="120" y="128" width="8" height="80" transform="rotate(90 120 128)" fill="#3C408C"/>
<rect x="40" y="64" width="8" height="8" transform="rotate(180 40 64)" fill="#8198C0"/>
<rect x="120" y="120" width="8" height="8" fill="#3C408C"/>
<rect x="40" y="128" width="8" height="8" transform="rotate(180 40 128)" fill="#3C408C"/>
<rect x="120" y="56" width="8" height="8" fill="#8198C0"/>
<rect x="56" y="80" width="16" height="16" fill="#9FDA44"/>
<rect x="88" y="80" width="16" height="16" fill="#9FDA44"/>
<rect x="40" y="55.7881" width="80" height="8.21191" fill="#DBE1EA"/>
</svg>
