<svg width="160" height="160" viewBox="0 0 160 160" fill="none" xmlns="http://www.w3.org/2000/svg">
<rect x="24" y="128" width="8" height="8" fill="#3C408C"/>
<rect x="24" y="120" width="8" height="8" fill="#3C408C"/>
<rect x="32" y="120" width="8" height="8" fill="#3C408C"/>
<rect x="24" y="112" width="8" height="8" fill="#3C408C"/>
<rect x="24" y="104" width="24" height="8" fill="#E9D5AA"/>
<rect x="48" y="112" width="8" height="8" fill="#D6835A"/>
<rect x="32" y="112" width="16" height="8" fill="#E9D5AA"/>
<rect x="40" y="120" width="24" height="8" fill="#D6835A"/>
<rect x="48" y="128" width="16" height="8" fill="#C46130"/>
<rect x="24" y="96" width="16" height="8" fill="#E9D5AA"/>
<rect x="32" y="88" width="8" height="8" fill="#FF8205"/>
<rect x="40" y="88" width="8" height="8" fill="#FEAD37"/>
<rect x="40" y="96" width="8" height="8" fill="#FFD700"/>
<rect x="64" y="120" width="8" height="8" fill="#D6835A"/>
<rect x="72" y="120" width="8" height="8" fill="#E92700"/>
<rect x="64" y="128" width="8" height="8" fill="#E92700"/>
<rect x="72" y="112" width="8" height="8" fill="#FA500F"/>
<rect x="72" y="104" width="8" height="8" fill="#FA500F"/>
<rect x="72" y="96" width="8" height="8" fill="#FF8205"/>
<rect x="72" y="88" width="8" height="8" fill="#FEAD37"/>
<rect x="72" y="80" width="8" height="8" fill="#FEAD37"/>
<rect x="72" y="72" width="8" height="8" fill="#FEAD37"/>
<rect x="72" y="64" width="8" height="8" fill="#FFD700"/>
<rect x="72" y="56" width="8" height="8" fill="#FEAD37"/>
<rect x="80" y="112" width="8" height="8" fill="#E92700"/>
<rect x="80" y="104" width="8" height="8" fill="#FA500F"/>
<rect x="80" y="96" width="8" height="8" fill="#FA500F"/>
<rect x="80" y="88" width="8" height="8" fill="#FF8205"/>
<rect x="80" y="80" width="8" height="8" fill="#FEAD37"/>
<rect x="80" y="72" width="8" height="8" fill="#FEAD37"/>
<rect x="80" y="64" width="8" height="8" fill="#FEAD37"/>
<rect x="80" y="56" width="8" height="8" fill="#FFD700"/>
<rect x="88" y="104" width="8" height="8" fill="#E92700"/>
<rect x="88" y="96" width="8" height="8" fill="#FA500F"/>
<rect x="88" y="88" width="8" height="8" fill="#FA500F"/>
<rect x="88" y="80" width="8" height="8" fill="#FF8205"/>
<rect x="88" y="72" width="8" height="8" fill="#FEAD37"/>
<rect x="88" y="64" width="8" height="8" fill="#FEAD37"/>
<rect x="96" y="96" width="8" height="8" fill="#E92700"/>
<rect x="96" y="88" width="8" height="8" fill="#FA500F"/>
<rect x="96" y="80" width="8" height="8" fill="#FA500F"/>
<rect x="96" y="72" width="8" height="8" fill="#FF8205"/>
<rect x="96" y="64" width="8" height="8" fill="#FEAD37"/>
<rect x="104" y="88" width="8" height="8" fill="#E92700"/>
<rect x="104" y="80" width="8" height="8" fill="#FA500F"/>
<rect x="112" y="80" width="8" height="8" fill="#3C408C"/>
<rect x="120" y="72" width="8" height="8" fill="#3C408C"/>
<rect x="112" y="64" width="8" height="8" fill="#8198C0"/>
<rect x="112" y="72" width="8" height="8" fill="#8198C0"/>
<rect x="104" y="72" width="8" height="8" fill="#8198C0"/>
<rect x="104" y="56" width="8" height="8" fill="#C1CCDF"/>
<rect x="104" y="64" width="8" height="8" fill="#8198C0"/>
<rect x="96" y="64" width="8" height="8" fill="#C1CCDF"/>
<rect x="96" y="48" width="8" height="8" fill="#C1CCDF"/>
<rect x="96" y="56" width="8" height="8" fill="#C1CCDF"/>
<rect x="88" y="56" width="8" height="8" fill="#C1CCDF"/>
<rect x="88" y="40" width="8" height="8" fill="#C1CCDF"/>
<rect x="88" y="48" width="8" height="8" fill="#F5F5F5"/>
<rect x="80" y="48" width="8" height="8" fill="#C1CCDF"/>
<rect x="128" y="64" width="8" height="8" fill="#B54F86"/>
<rect x="40" y="80" width="8" height="8" fill="#FF8205"/>
<rect x="48" y="72" width="8" height="8" fill="#FF8205"/>
<rect x="48" y="80" width="8" height="8" fill="#FEAD37"/>
<rect x="48" y="88" width="8" height="8" fill="#FFD700"/>
<rect x="48" y="96" width="8" height="8" fill="#FEAD37"/>
<rect x="48" y="104" width="8" height="8" fill="#FEAD37"/>
<rect x="56" y="64" width="8" height="8" fill="#FF8205"/>
<rect x="56" y="72" width="8" height="8" fill="#FEAD37"/>
<rect x="56" y="80" width="8" height="8" fill="#FFD700"/>
<rect x="56" y="88" width="8" height="8" fill="#FEAD37"/>
<rect x="56" y="96" width="8" height="8" fill="#FEAD37"/>
<rect x="56" y="104" width="8" height="8" fill="#FEAD37"/>
<rect x="56" y="112" width="8" height="8" fill="#FF8205"/>
<rect x="64" y="56" width="8" height="8" fill="#FF8205"/>
<rect x="64" y="64" width="8" height="8" fill="#FEAD37"/>
<rect x="64" y="72" width="8" height="8" fill="#FFD700"/>
<rect x="64" y="80" width="8" height="8" fill="#FEAD37"/>
<rect x="64" y="88" width="8" height="8" fill="#FEAD37"/>
<rect x="64" y="96" width="8" height="8" fill="#FEAD37"/>
<rect x="64" y="104" width="8" height="8" fill="#FF8205"/>
<rect x="64" y="112" width="8" height="8" fill="#FA500F"/>
<rect x="64" y="120" width="8" height="8" fill="#FA500F"/>
<rect x="72" y="48" width="8" height="8" fill="#FF8205"/>
<rect x="80" y="40" width="8" height="8" fill="#C1CCDF"/>
<rect x="88" y="32" width="8" height="8" fill="#C1CCDF"/>
<rect x="96" y="40" width="8" height="8" fill="#F5F5F5"/>
<rect x="104" y="40" width="8" height="8" fill="#F77779"/>
<rect x="104" y="48" width="8" height="8" fill="#C1CCDF"/>
<rect x="112" y="56" width="8" height="8" fill="#8198C0"/>
<rect x="120" y="64" width="8" height="8" fill="#8198C0"/>
<rect x="120" y="56" width="8" height="8" fill="#B54F86"/>
<rect x="120" y="48" width="8" height="8" fill="#F77779"/>
<rect x="112" y="48" width="8" height="8" fill="#F77779"/>
<rect x="112" y="40" width="8" height="8" fill="#F77779"/>
<rect x="96" y="24" width="8" height="8" fill="#B54F86"/>
<rect x="96" y="32" width="8" height="8" fill="#F77779"/>
<rect x="104" y="24" width="8" height="8" fill="#F77779"/>
<rect x="104" y="32" width="8" height="8" fill="#F77779"/>
<rect x="112" y="32" width="8" height="8" fill="#F77779"/>
<rect x="120" y="32" width="8" height="8" fill="#F77779"/>
<rect x="128" y="40" width="8" height="8" fill="#F77779"/>
<rect x="112" y="24" width="8" height="8" fill="#F77779"/>
<rect x="120" y="40" width="8" height="8" fill="#F77779"/>
<rect x="128" y="48" width="8" height="8" fill="#B54F86"/>
<rect x="136" y="48" width="8" height="8" fill="#B54F86"/>
<rect x="136" y="56" width="8" height="8" fill="#B54F86"/>
<rect x="128" y="56" width="8" height="8" fill="#B54F86"/>
<rect x="32" y="128" width="8" height="8" fill="#3C408C"/>
<rect x="40" y="128" width="8" height="8" fill="#3C408C"/>
</svg>
