<svg width="160" height="160" viewBox="0 0 160 160" fill="none" xmlns="http://www.w3.org/2000/svg">
<rect x="60" y="20" width="40" height="120" fill="#0082E6"/>
<rect x="44" y="28" width="16" height="104" fill="#0082E6"/>
<rect width="16" height="104" transform="matrix(-1 0 0 1 116 28)" fill="#0082E6"/>
<rect x="28" y="44" width="8" height="72" fill="#0082E6"/>
<rect width="8" height="72" transform="matrix(-1 0 0 1 132 44)" fill="#0082E6"/>
<rect x="36" y="36" width="8" height="88" fill="#0082E6"/>
<rect width="8" height="88" transform="matrix(-1 0 0 1 124 36)" fill="#0082E6"/>
<rect x="20" y="60" width="8" height="40" fill="#0082E6"/>
<rect width="8" height="40" transform="matrix(-1 0 0 1 140 60)" fill="#0082E6"/>
<rect x="60" y="12" width="40" height="8" fill="#3C408C"/>
<rect x="60" y="140" width="40" height="8" fill="#3C408C"/>
<rect x="44" y="20" width="16" height="8" fill="#3C408C"/>
<rect width="16" height="8" transform="matrix(-1 0 0 1 116 20)" fill="#3C408C"/>
<rect width="16" height="8" transform="matrix(1 0 0 -1 44 140)" fill="#3C408C"/>
<rect x="116" y="140" width="16" height="8" transform="rotate(180 116 140)" fill="#3C408C"/>
<rect x="36" y="28" width="8" height="8" fill="#3C408C"/>
<rect width="8" height="8" transform="matrix(-1 0 0 1 124 28)" fill="#3C408C"/>
<rect width="8" height="8" transform="matrix(1 0 0 -1 36 132)" fill="#3C408C"/>
<rect x="124" y="132" width="8" height="8" transform="rotate(180 124 132)" fill="#3C408C"/>
<rect x="28" y="36" width="8" height="8" fill="#3C408C"/>
<rect width="8" height="8" transform="matrix(-1 0 0 1 132 36)" fill="#3C408C"/>
<rect width="8" height="8" transform="matrix(1 0 0 -1 28 124)" fill="#3C408C"/>
<rect x="132" y="124" width="8" height="8" transform="rotate(180 132 124)" fill="#3C408C"/>
<rect x="20" y="44" width="8" height="16" fill="#3C408C"/>
<rect width="8" height="16" transform="matrix(-1 0 0 1 140 44)" fill="#3C408C"/>
<rect width="8" height="16" transform="matrix(1 0 0 -1 20 116)" fill="#3C408C"/>
<rect x="140" y="116" width="8" height="16" transform="rotate(180 140 116)" fill="#3C408C"/>
<rect x="12" y="60" width="8" height="40" fill="#3C408C"/>
<rect width="8" height="40" transform="matrix(-1 0 0 1 148 60)" fill="#3C408C"/>
<rect x="28" y="44" width="48" height="8" fill="#9FDA44"/>
<rect x="68" y="36" width="16" height="8" fill="#9FDA44"/>
<rect x="52" y="92" width="8" height="8" fill="#9FDA44"/>
<rect x="108" y="60" width="8" height="8" fill="#9FDA44"/>
<rect x="108" y="28" width="8" height="8" fill="#9FDA44"/>
<rect x="68" y="84" width="8" height="8" fill="#9FDA44"/>
<rect x="36" y="100" width="8" height="16" fill="#9FDA44"/>
<rect x="28" y="92" width="16" height="8" fill="#9FDA44"/>
<rect x="44" y="108" width="16" height="8" fill="#9FDA44"/>
<rect x="52" y="124" width="16" height="8" fill="#9FDA44"/>
<rect x="100" y="52" width="16" height="8" fill="#9FDA44"/>
<rect x="108" y="44" width="24" height="8" fill="#9FDA44"/>
<rect x="108" y="36" width="16" height="8" fill="#9FDA44"/>
<rect x="44" y="116" width="24" height="8" fill="#9FDA44"/>
<rect x="44" y="84" width="16" height="8" fill="#9FDA44"/>
<rect x="36" y="52" width="40" height="8" fill="#9FDA44"/>
<rect x="28" y="60" width="40" height="24" fill="#9FDA44"/>
<rect x="124" y="108" width="8" height="8" fill="#9FDA44"/>
<rect x="132" y="60" width="8" height="8" fill="#9FDA44"/>
<rect x="116" y="84" width="8" height="8" fill="#9FDA44"/>
<rect x="100" y="84" width="8" height="8" fill="#9FDA44"/>
<rect x="132" y="84" width="8" height="8" fill="#9FDA44"/>
<rect x="100" y="68" width="16" height="8" fill="#9FDA44"/>
<rect x="92" y="92" width="24" height="8" fill="#9FDA44"/>
<rect x="124" y="92" width="16" height="8" fill="#9FDA44"/>
<rect x="100" y="76" width="40" height="8" fill="#9FDA44"/>
<rect x="124" y="68" width="16" height="8" fill="#9FDA44"/>
</svg>
