<svg width="160" height="160" viewBox="0 0 160 160" fill="none" xmlns="http://www.w3.org/2000/svg">
<rect x="52" y="31.9414" width="56" height="96.0586" fill="#C1CCDF"/>
<rect x="52" y="31.9414" width="56" height="96.0586" fill="#C1CCDF"/>
<rect x="52" y="31.9414" width="56" height="96.0586" fill="#C1CCDF"/>
<rect x="108" y="40" width="8" height="79.9414" fill="#C1CCDF"/>
<rect width="8" height="79.9414" transform="matrix(-1 0 0 1 52 40)" fill="#C1CCDF"/>
<rect x="116" y="48" width="8" height="64" fill="#C1CCDF"/>
<rect width="8" height="64" transform="matrix(-1 0 0 1 44 48)" fill="#C1CCDF"/>
<rect x="124" y="64" width="8" height="31.9414" fill="#C1CCDF"/>
<rect width="8" height="31.9414" transform="matrix(-1 0 0 1 36 64)" fill="#C1CCDF"/>
<rect x="92" y="24" width="8" height="8" fill="#8198C0"/>
<rect x="92" y="16" width="8" height="8" fill="#3C408C"/>
<rect x="92" y="136" width="8" height="8" fill="#3C408C"/>
<rect x="100" y="16" width="8" height="8" fill="#3C408C"/>
<rect x="100" y="24" width="8" height="8" fill="#8198C0"/>
<rect x="100" y="136" width="8" height="8" fill="#3C408C"/>
<rect x="84" y="16" width="8" height="8" fill="#3C408C"/>
<rect width="16" height="8" transform="matrix(1 0 0 -1 84 136)" fill="#8198C0"/>
<rect x="84" y="24" width="8" height="8" fill="#8198C0"/>
<rect x="84" y="136" width="8" height="8" fill="#3C408C"/>
<rect x="76" y="16" width="8" height="8" fill="#3C408C"/>
<rect width="8" height="8" transform="matrix(1 0 0 -1 76 136)" fill="#8198C0"/>
<rect width="8" height="8" transform="matrix(1 0 0 -1 100 136)" fill="#8198C0"/>
<rect x="68" y="16" width="8" height="8" fill="#3C408C"/>
<rect x="76" y="24" width="8" height="8" fill="#8198C0"/>
<rect x="76" y="136" width="8" height="8" fill="#3C408C"/>
<rect x="60" y="16" width="8" height="8" fill="#3C408C"/>
<rect width="8" height="8" transform="matrix(1 0 0 -1 68 136)" fill="#8198C0"/>
<rect x="68" y="24" width="8" height="8" fill="#8198C0"/>
<rect x="52" y="16" width="8" height="8" fill="#3C408C"/>
<rect x="68" y="136" width="8" height="8" fill="#3C408C"/>
<rect width="8" height="8" transform="matrix(1 0 0 -1 60 136)" fill="#8198C0"/>
<rect x="60" y="24" width="8" height="8" fill="#8198C0"/>
<rect x="60" y="136" width="8" height="8" fill="#3C408C"/>
<rect width="8" height="8" transform="matrix(1 0 0 -1 52 136)" fill="#8198C0"/>
<rect x="52" y="24" width="8" height="8" fill="#8198C0"/>
<rect x="52" y="136" width="8" height="8" fill="#3C408C"/>
<rect width="8" height="8" transform="matrix(1 0 0 -1 44 128)" fill="#8198C0"/>
<rect x="116" y="128" width="8" height="8" transform="rotate(180 116 128)" fill="#8198C0"/>
<rect x="44" y="32" width="8" height="8" fill="#8198C0"/>
<rect x="44" y="24" width="8" height="8" fill="#3C408C"/>
<rect width="8" height="8" transform="matrix(-1 0 0 1 116 24)" fill="#3C408C"/>
<rect width="8" height="8" transform="matrix(-1 0 0 1 116 32)" fill="#8198C0"/>
<rect width="8" height="8" transform="matrix(1 0 0 -1 36 120)" fill="#8198C0"/>
<rect x="124" y="120" width="8" height="8" transform="rotate(180 124 120)" fill="#8198C0"/>
<rect x="36" y="40" width="8" height="8" fill="#8198C0"/>
<rect x="36" y="32" width="8" height="8" fill="#3C408C"/>
<rect width="8" height="8" transform="matrix(-1 0 0 1 124 32)" fill="#3C408C"/>
<rect x="36" y="120" width="8" height="8" fill="#3C408C"/>
<rect width="8" height="8" transform="matrix(-1 0 0 1 124 120)" fill="#3C408C"/>
<rect width="8" height="8" transform="matrix(-1 0 0 1 124 40)" fill="#8198C0"/>
<rect width="8" height="8" transform="matrix(1 0 0 -1 28 112)" fill="#8198C0"/>
<rect x="132" y="112" width="8" height="8" transform="rotate(180 132 112)" fill="#8198C0"/>
<rect width="8" height="8" transform="matrix(1 0 0 -1 28 104)" fill="#8198C0"/>
<rect x="132" y="104" width="8" height="8" transform="rotate(180 132 104)" fill="#8198C0"/>
<rect x="28" y="48" width="8" height="8" fill="#8198C0"/>
<rect x="28" y="40" width="8" height="8" fill="#3C408C"/>
<rect width="8" height="8" transform="matrix(-1 0 0 1 132 40)" fill="#3C408C"/>
<rect x="28" y="112" width="8" height="8" fill="#3C408C"/>
<rect width="8" height="8" transform="matrix(-1 0 0 1 132 112)" fill="#3C408C"/>
<rect x="44" y="128" width="8" height="8" fill="#3C408C"/>
<rect width="8" height="8" transform="matrix(-1 0 0 1 116 128)" fill="#3C408C"/>
<rect x="20" y="48" width="8" height="16" fill="#3C408C"/>
<rect width="8" height="16" transform="matrix(-1 0 0 1 140 48)" fill="#3C408C"/>
<rect x="20" y="96" width="8" height="16" fill="#3C408C"/>
<rect width="8" height="16" transform="matrix(-1 0 0 1 140 96)" fill="#3C408C"/>
<rect x="12" y="64" width="8" height="32" fill="#3C408C"/>
<rect width="8" height="32" transform="matrix(-1 0 0 1 148 64)" fill="#3C408C"/>
<rect width="8" height="8" transform="matrix(-1 0 0 1 132 48)" fill="#8198C0"/>
<rect x="28" y="56" width="8" height="8" fill="#8198C0"/>
<rect width="8" height="8" transform="matrix(-1 0 0 1 132 56)" fill="#8198C0"/>
<rect x="20" y="64" width="8" height="8" fill="#8198C0"/>
<rect width="8" height="8" transform="matrix(-1 0 0 1 140 64)" fill="#8198C0"/>
<rect x="20" y="72" width="8" height="8" fill="#8198C0"/>
<rect width="8" height="8" transform="matrix(-1 0 0 1 140 72)" fill="#8198C0"/>
<rect x="20" y="80" width="8" height="8" fill="#8198C0"/>
<rect width="8" height="8" transform="matrix(-1 0 0 1 140 80)" fill="#8198C0"/>
<rect x="20" y="88" width="8" height="8" fill="#8198C0"/>
<rect width="8" height="8" transform="matrix(-1 0 0 1 140 88)" fill="#8198C0"/>
<rect x="76" y="32" width="8" height="96" fill="#8198C0"/>
<rect opacity="0.5" x="52" y="31.9414" width="16" height="40" fill="#F5F5F5"/>
<rect opacity="0.5" width="8" height="32.0586" transform="matrix(-1 0 0 1 76 31.9414)" fill="#F5F5F5"/>
<rect opacity="0.5" width="8" height="24.0586" transform="matrix(-1 0 0 1 92 31.9414)" fill="#F5F5F5"/>
<rect opacity="0.5" width="8" height="16" transform="matrix(-1 0 0 1 100 31.9414)" fill="#F5F5F5"/>
<rect opacity="0.5" width="8" height="8.05859" transform="matrix(-1 0 0 1 108 31.9414)" fill="#F5F5F5"/>
<rect opacity="0.5" x="44" y="39.9414" width="8" height="40" fill="#F5F5F5"/>
<rect opacity="0.5" x="36" y="47.9414" width="8" height="40" fill="#F5F5F5"/>
<rect opacity="0.5" x="28" y="63.9414" width="8" height="32" fill="#F5F5F5"/>
<rect x="68" y="63.9414" width="8" height="8" fill="#8198C0"/>
<rect width="8" height="8" transform="matrix(-1 0 0 1 92 63.9414)" fill="#8198C0"/>
<rect width="8" height="8" transform="matrix(-1 0 0 1 92 47.9414)" fill="#8198C0"/>
<rect x="68" y="47.9414" width="8" height="8" fill="#8198C0"/>
<rect width="8" height="8" transform="matrix(-1 0 0 1 100 48)" fill="#8198C0"/>
<rect x="60" y="48" width="8" height="8" fill="#8198C0"/>
<rect width="8" height="8" transform="matrix(-1 0 0 1 108 55.9414)" fill="#8198C0"/>
<rect width="8" height="8" transform="matrix(-1 0 0 1 116 48)" fill="#E92700"/>
<rect width="8" height="8" transform="matrix(-1 0 0 1 52 48)" fill="#E92700"/>
<rect width="8" height="8" transform="matrix(-1 0 0 1 92 72)" fill="#E92700"/>
<rect width="8" height="8" transform="matrix(-1 0 0 1 68 112)" fill="#E92700"/>
<rect width="8" height="8" transform="matrix(-1 0 0 1 116 103.941)" fill="#E92700"/>
<rect x="52" y="55.9414" width="8" height="8" fill="#8198C0"/>
<rect width="8" height="8" transform="matrix(-1 0 0 1 116 87.9414)" fill="#8198C0"/>
<rect x="44" y="87.9414" width="8" height="8" fill="#8198C0"/>
<rect width="8" height="8" transform="matrix(-1 0 0 1 108 96)" fill="#8198C0"/>
<rect x="52" y="96" width="8" height="8" fill="#8198C0"/>
<rect width="8" height="8" transform="matrix(-1 0 0 1 100 104)" fill="#8198C0"/>
<rect x="60" y="104" width="8" height="8" fill="#8198C0"/>
<rect width="8" height="8" transform="matrix(-1 0 0 1 92 103.941)" fill="#8198C0"/>
<rect x="68" y="103.941" width="8" height="8" fill="#8198C0"/>
<rect width="8" height="24" transform="matrix(-1 0 0 1 116 64)" fill="#8198C0"/>
<rect x="44" y="64" width="8" height="24" fill="#8198C0"/>
<rect x="68" y="88" width="8" height="8" fill="#8198C0"/>
<rect width="8" height="8" transform="matrix(-1 0 0 1 92 88)" fill="#8198C0"/>
<rect x="60" y="71.9414" width="8" height="16.0586" fill="#8198C0"/>
<rect width="8" height="16.0586" transform="matrix(-1 0 0 1 100 71.9414)" fill="#8198C0"/>
<rect x="68" y="75.9414" width="8" height="40" transform="rotate(90 68 75.9414)" fill="#8198C0"/>
<rect x="140" y="75.9414" width="8" height="40" transform="rotate(90 140 75.9414)" fill="#8198C0"/>
</svg>
