<svg width="160" height="160" viewBox="0 0 160 160" fill="none" xmlns="http://www.w3.org/2000/svg">
<rect x="48" y="40" width="24" height="40" fill="#FF8205"/>
<rect x="120" y="88" width="24" height="40" fill="#8198C0"/>
<rect x="16" y="24" width="48" height="24" fill="#FFD700"/>
<rect x="88" y="72" width="48" height="24" fill="#DBE1EA"/>
<rect x="16" y="48" width="32" height="40" fill="#FEAD37"/>
<rect x="88" y="96" width="32" height="40" fill="#C1CCDF"/>
<rect width="8" height="8" transform="matrix(-1 0 0 1 48 16)" fill="#90320E"/>
<rect width="8" height="8" transform="matrix(-1 0 0 1 120 64)" fill="#3C408C"/>
<rect width="8" height="8" transform="matrix(-1 0 0 1 80 32)" fill="#90320E"/>
<rect width="8" height="8" transform="matrix(-1 0 0 1 152 80)" fill="#3C408C"/>
<rect width="8" height="8" transform="matrix(-1 0 0 1 56 24)" fill="#90320E"/>
<rect width="8" height="8" transform="matrix(-1 0 0 1 128 72)" fill="#3C408C"/>
<rect width="8" height="8" transform="matrix(-1 0 0 1 24 40)" fill="#90320E"/>
<rect width="8" height="8" transform="matrix(-1 0 0 1 96 88)" fill="#3C408C"/>
<rect width="8" height="8" transform="matrix(-1 0 0 1 24 80)" fill="#90320E"/>
<rect width="8" height="8" transform="matrix(-1 0 0 1 96 128)" fill="#3C408C"/>
<rect width="8" height="8" transform="matrix(-1 0 0 1 72 32)" fill="#90320E"/>
<rect width="8" height="8" transform="matrix(-1 0 0 1 144 80)" fill="#3C408C"/>
<rect width="8" height="8" transform="matrix(-1 0 0 1 40 48)" fill="#90320E"/>
<rect width="8" height="8" transform="matrix(-1 0 0 1 112 96)" fill="#3C408C"/>
<rect width="8" height="8" transform="matrix(-1 0 0 1 40 88)" fill="#90320E"/>
<rect width="8" height="8" transform="matrix(-1 0 0 1 112 136)" fill="#3C408C"/>
<rect width="8" height="8" transform="matrix(-1 0 0 1 64 24)" fill="#90320E"/>
<rect width="8" height="8" transform="matrix(-1 0 0 1 136 72)" fill="#3C408C"/>
<rect width="8" height="8" transform="matrix(-1 0 0 1 32 40)" fill="#90320E"/>
<rect width="8" height="8" transform="matrix(-1 0 0 1 104 88)" fill="#3C408C"/>
<rect width="8" height="8" transform="matrix(-1 0 0 1 32 80)" fill="#90320E"/>
<rect width="8" height="8" transform="matrix(-1 0 0 1 104 128)" fill="#3C408C"/>
<rect width="8" height="8" transform="matrix(-1 0 0 1 80 32)" fill="#90320E"/>
<rect width="8" height="8" transform="matrix(-1 0 0 1 152 80)" fill="#3C408C"/>
<rect width="8" height="8" transform="matrix(-1 0 0 1 48 48)" fill="#90320E"/>
<rect width="8" height="8" transform="matrix(-1 0 0 1 120 96)" fill="#3C408C"/>
<rect width="8" height="8" transform="matrix(-1 0 0 1 48 88)" fill="#90320E"/>
<rect width="8" height="8" transform="matrix(-1 0 0 1 120 136)" fill="#3C408C"/>
<rect width="8" height="8" transform="matrix(-1 0 0 1 32 24)" fill="#90320E"/>
<rect width="8" height="8" transform="matrix(-1 0 0 1 104 72)" fill="#3C408C"/>
<rect width="8" height="8" transform="matrix(-1 0 0 1 64 40)" fill="#90320E"/>
<rect width="8" height="8" transform="matrix(-1 0 0 1 136 88)" fill="#3C408C"/>
<rect width="8" height="8" transform="matrix(-1 0 0 1 72 80)" fill="#90320E"/>
<rect width="8" height="8" transform="matrix(-1 0 0 1 144 128)" fill="#3C408C"/>
<rect width="8" height="8" transform="matrix(-1 0 0 1 16 32)" fill="#90320E"/>
<rect width="8" height="8" transform="matrix(-1 0 0 1 88 80)" fill="#3C408C"/>
<rect width="8" height="8" transform="matrix(-1 0 0 1 40 16)" fill="#90320E"/>
<rect width="8" height="8" transform="matrix(-1 0 0 1 112 64)" fill="#3C408C"/>
<rect width="8" height="8" transform="matrix(-1 0 0 1 72 32)" fill="#90320E"/>
<rect width="8" height="8" transform="matrix(-1 0 0 1 144 80)" fill="#3C408C"/>
<rect width="8" height="8" transform="matrix(-1 0 0 1 24 24)" fill="#90320E"/>
<rect width="8" height="8" transform="matrix(-1 0 0 1 96 72)" fill="#3C408C"/>
<rect width="8" height="8" transform="matrix(-1 0 0 1 56 40)" fill="#90320E"/>
<rect width="8" height="8" transform="matrix(-1 0 0 1 128 88)" fill="#3C408C"/>
<rect width="8" height="8" transform="matrix(-1 0 0 1 64 80)" fill="#90320E"/>
<rect width="8" height="8" transform="matrix(-1 0 0 1 136 128)" fill="#3C408C"/>
<rect width="8" height="40" transform="matrix(-1 0 0 1 16 40)" fill="#90320E"/>
<rect width="8" height="40" transform="matrix(-1 0 0 1 88 88)" fill="#3C408C"/>
<rect width="8" height="48" transform="matrix(-1 0 0 1 56 48)" fill="#90320E"/>
<rect width="8" height="48" transform="matrix(-1 0 0 1 128 96)" fill="#3C408C"/>
<rect width="8" height="40" transform="matrix(-1 0 0 1 80 40)" fill="#90320E"/>
<rect width="8" height="40" transform="matrix(-1 0 0 1 152 88)" fill="#3C408C"/>
<rect x="104" y="32" width="16" height="16" fill="#FA500F"/>
<rect x="40" y="112" width="16" height="16" fill="#FA500F"/>
</svg>
