<svg width="160" height="160" viewBox="0 0 160 160" fill="none" xmlns="http://www.w3.org/2000/svg">
<rect x="20" y="96" width="48" height="24" fill="#8198C0"/>
<rect x="52" y="112" width="56" height="24" fill="#8198C0"/>
<rect x="52" y="80" width="48" height="32" fill="#8198C0"/>
<rect x="84" y="96" width="56" height="24" fill="#8198C0"/>
<rect width="8" height="8" transform="matrix(-1 0 0 1 76 72)" fill="#3C408C"/>
<rect width="8" height="8" transform="matrix(-1 0 0 1 108 88)" fill="#FA500F"/>
<rect width="8" height="8" transform="matrix(-1 0 0 1 84 72)" fill="#3C408C"/>
<rect width="8" height="8" transform="matrix(-1 0 0 1 148 104)" fill="#3C408C"/>
<rect width="8" height="8" transform="matrix(-1 0 0 1 116 88)" fill="#3C408C"/>
<rect width="8" height="8" transform="matrix(-1 0 0 1 68 80)" fill="#3C408C"/>
<rect width="8" height="8" transform="matrix(-1 0 0 1 132 112)" fill="#3C408C"/>
<rect width="8" height="8" transform="matrix(-1 0 0 1 52 88)" fill="#3C408C"/>
<rect width="8" height="8" transform="matrix(-1 0 0 1 116 120)" fill="#3C408C"/>
<rect width="8" height="8" transform="matrix(-1 0 0 1 28 112)" fill="#3C408C"/>
<rect width="8" height="8" transform="matrix(-1 0 0 1 84 72)" fill="#3C408C"/>
<rect width="8" height="8" transform="matrix(-1 0 0 1 60 128)" fill="#3C408C"/>
<rect width="8" height="8" transform="matrix(-1 0 0 1 116 88)" fill="#3C408C"/>
<rect width="8" height="8" transform="matrix(-1 0 0 1 44 120)" fill="#3C408C"/>
<rect width="8" height="8" transform="matrix(-1 0 0 1 100 80)" fill="#3C408C"/>
<rect width="8" height="8" transform="matrix(-1 0 0 1 76 136)" fill="#3C408C"/>
<rect width="8" height="8" transform="matrix(-1 0 0 1 132 96)" fill="#3C408C"/>
<rect width="8" height="8" transform="matrix(-1 0 0 1 36 112)" fill="#3C408C"/>
<rect width="8" height="8" transform="matrix(-1 0 0 1 92 72)" fill="#3C408C"/>
<rect width="8" height="8" transform="matrix(-1 0 0 1 68 128)" fill="#3C408C"/>
<rect width="8" height="8" transform="matrix(-1 0 0 1 124 88)" fill="#3C408C"/>
<rect width="8" height="8" transform="matrix(-1 0 0 1 52 120)" fill="#3C408C"/>
<rect width="8" height="8" transform="matrix(-1 0 0 1 108 80)" fill="#3C408C"/>
<rect width="16" height="8" transform="matrix(-1 0 0 1 92 136)" fill="#3C408C"/>
<rect width="8" height="8" transform="matrix(-1 0 0 1 140 96)" fill="#3C408C"/>
<rect width="8" height="8" transform="matrix(-1 0 0 1 36 96)" fill="#3C408C"/>
<rect width="16" height="8" transform="matrix(-1 0 0 1 108 128)" fill="#3C408C"/>
<rect width="8" height="8" transform="matrix(-1 0 0 1 20 104)" fill="#3C408C"/>
<rect width="8" height="8" transform="matrix(-1 0 0 1 60 80)" fill="#3C408C"/>
<rect width="8" height="8" transform="matrix(-1 0 0 1 140 112)" fill="#3C408C"/>
<rect width="8" height="8" transform="matrix(-1 0 0 1 44 88)" fill="#3C408C"/>
<rect width="8" height="8" transform="matrix(-1 0 0 1 124 120)" fill="#3C408C"/>
<rect width="8" height="8" transform="matrix(-1 0 0 1 28 96)" fill="#3C408C"/>
<rect x="20" y="68" width="48" height="24" fill="#C1CCDF"/>
<rect x="52" y="84" width="56" height="24" fill="#C1CCDF"/>
<rect x="52" y="52" width="48" height="32" fill="#C1CCDF"/>
<rect x="84" y="68" width="56" height="24" fill="#C1CCDF"/>
<rect width="8" height="8" transform="matrix(-1 0 0 1 76 44)" fill="#3C408C"/>
<rect width="8" height="8" transform="matrix(-1 0 0 1 108 60)" fill="#C1CCDF"/>
<rect width="8" height="8" transform="matrix(-1 0 0 1 84 44)" fill="#3C408C"/>
<rect width="8" height="8" transform="matrix(-1 0 0 1 148 76)" fill="#3C408C"/>
<rect width="8" height="8" transform="matrix(-1 0 0 1 116 60)" fill="#3C408C"/>
<rect width="8" height="8" transform="matrix(-1 0 0 1 68 52)" fill="#3C408C"/>
<rect width="8" height="8" transform="matrix(-1 0 0 1 132 84)" fill="#3C408C"/>
<rect width="8" height="8" transform="matrix(-1 0 0 1 52 60)" fill="#3C408C"/>
<rect width="8" height="8" transform="matrix(-1 0 0 1 116 92)" fill="#3C408C"/>
<rect width="8" height="8" transform="matrix(-1 0 0 1 28 84)" fill="#3C408C"/>
<rect width="8" height="8" transform="matrix(-1 0 0 1 84 44)" fill="#3C408C"/>
<rect width="8" height="8" transform="matrix(-1 0 0 1 60 100)" fill="#3C408C"/>
<rect width="8" height="8" transform="matrix(-1 0 0 1 116 60)" fill="#3C408C"/>
<rect width="8" height="8" transform="matrix(-1 0 0 1 44 92)" fill="#3C408C"/>
<rect width="8" height="8" transform="matrix(-1 0 0 1 100 52)" fill="#3C408C"/>
<rect width="8" height="8" transform="matrix(-1 0 0 1 76 108)" fill="#3C408C"/>
<rect width="8" height="8" transform="matrix(-1 0 0 1 132 68)" fill="#3C408C"/>
<rect width="8" height="8" transform="matrix(-1 0 0 1 36 84)" fill="#3C408C"/>
<rect width="8" height="8" transform="matrix(-1 0 0 1 92 44)" fill="#3C408C"/>
<rect width="8" height="8" transform="matrix(-1 0 0 1 68 100)" fill="#3C408C"/>
<rect width="8" height="8" transform="matrix(-1 0 0 1 124 60)" fill="#3C408C"/>
<rect width="8" height="8" transform="matrix(-1 0 0 1 52 92)" fill="#3C408C"/>
<rect width="8" height="8" transform="matrix(-1 0 0 1 108 52)" fill="#3C408C"/>
<rect width="16" height="8" transform="matrix(-1 0 0 1 92 108)" fill="#3C408C"/>
<rect width="8" height="8" transform="matrix(-1 0 0 1 140 68)" fill="#3C408C"/>
<rect width="8" height="8" transform="matrix(-1 0 0 1 36 68)" fill="#3C408C"/>
<rect width="16" height="8" transform="matrix(-1 0 0 1 108 100)" fill="#3C408C"/>
<rect width="8" height="8" transform="matrix(-1 0 0 1 20 76)" fill="#3C408C"/>
<rect width="8" height="8" transform="matrix(-1 0 0 1 60 52)" fill="#3C408C"/>
<rect width="8" height="8" transform="matrix(-1 0 0 1 140 84)" fill="#3C408C"/>
<rect width="8" height="8" transform="matrix(-1 0 0 1 44 60)" fill="#3C408C"/>
<rect width="8" height="8" transform="matrix(-1 0 0 1 124 92)" fill="#3C408C"/>
<rect width="8" height="8" transform="matrix(-1 0 0 1 28 68)" fill="#3C408C"/>
<rect x="20" y="40" width="48" height="24" fill="#DBE1EA"/>
<rect x="52" y="56" width="56" height="24" fill="#DBE1EA"/>
<rect x="52" y="24" width="48" height="32" fill="#DBE1EA"/>
<rect x="84" y="40" width="56" height="24" fill="#DBE1EA"/>
<rect width="8" height="8" transform="matrix(-1 0 0 1 76 16)" fill="#3C408C"/>
<rect width="8" height="8" transform="matrix(-1 0 0 1 108 32)" fill="#DBE1EA"/>
<rect width="8" height="8" transform="matrix(-1 0 0 1 84 16)" fill="#3C408C"/>
<rect width="8" height="8" transform="matrix(-1 0 0 1 148 48)" fill="#3C408C"/>
<rect width="8" height="8" transform="matrix(-1 0 0 1 116 32)" fill="#3C408C"/>
<rect width="8" height="8" transform="matrix(-1 0 0 1 68 24)" fill="#3C408C"/>
<rect width="8" height="8" transform="matrix(-1 0 0 1 132 56)" fill="#3C408C"/>
<rect width="8" height="8" transform="matrix(-1 0 0 1 52 32)" fill="#3C408C"/>
<rect width="8" height="8" transform="matrix(-1 0 0 1 116 64)" fill="#3C408C"/>
<rect width="8" height="8" transform="matrix(-1 0 0 1 28 56)" fill="#3C408C"/>
<rect width="8" height="8" transform="matrix(-1 0 0 1 84 16)" fill="#3C408C"/>
<rect width="8" height="8" transform="matrix(-1 0 0 1 60 72)" fill="#3C408C"/>
<rect width="8" height="8" transform="matrix(-1 0 0 1 116 32)" fill="#3C408C"/>
<rect width="8" height="8" transform="matrix(-1 0 0 1 44 64)" fill="#3C408C"/>
<rect width="8" height="8" transform="matrix(-1 0 0 1 100 24)" fill="#3C408C"/>
<rect width="8" height="8" transform="matrix(-1 0 0 1 76 80)" fill="#3C408C"/>
<rect width="8" height="8" transform="matrix(-1 0 0 1 132 40)" fill="#3C408C"/>
<rect width="8" height="8" transform="matrix(-1 0 0 1 36 56)" fill="#3C408C"/>
<rect width="8" height="8" transform="matrix(-1 0 0 1 92 16)" fill="#3C408C"/>
<rect width="8" height="8" transform="matrix(-1 0 0 1 68 72)" fill="#3C408C"/>
<rect width="8" height="8" transform="matrix(-1 0 0 1 124 32)" fill="#3C408C"/>
<rect width="8" height="8" transform="matrix(-1 0 0 1 52 64)" fill="#3C408C"/>
<rect width="8" height="8" transform="matrix(-1 0 0 1 108 24)" fill="#3C408C"/>
<rect width="16" height="8" transform="matrix(-1 0 0 1 92 80)" fill="#3C408C"/>
<rect width="8" height="8" transform="matrix(-1 0 0 1 140 40)" fill="#3C408C"/>
<rect width="8" height="8" transform="matrix(-1 0 0 1 36 40)" fill="#3C408C"/>
<rect width="16" height="8" transform="matrix(-1 0 0 1 108 72)" fill="#3C408C"/>
<rect width="8" height="8" transform="matrix(-1 0 0 1 20 48)" fill="#3C408C"/>
<rect width="8" height="8" transform="matrix(-1 0 0 1 60 24)" fill="#3C408C"/>
<rect width="8" height="8" transform="matrix(-1 0 0 1 140 56)" fill="#3C408C"/>
<rect width="8" height="8" transform="matrix(-1 0 0 1 44 32)" fill="#3C408C"/>
<rect width="8" height="8" transform="matrix(-1 0 0 1 124 64)" fill="#3C408C"/>
<rect width="8" height="8" transform="matrix(-1 0 0 1 28 40)" fill="#3C408C"/>
<rect x="20" y="48" width="16" height="8" fill="#DBE1EA"/>
<rect x="124" y="48" width="16" height="8" fill="#DBE1EA"/>
<rect x="36" y="40" width="16" height="8" fill="#DBE1EA"/>
<rect x="108" y="40" width="16" height="8" fill="#DBE1EA"/>
<rect x="52" y="32" width="16" height="8" fill="#DBE1EA"/>
<rect x="52" y="64" width="16" height="8" fill="#C1CCDF"/>
<rect x="52" y="92" width="16" height="8" fill="#8198C0"/>
<rect opacity="0.5" x="52" y="120" width="16" height="8" fill="#3C408C"/>
<rect x="36" y="56" width="16" height="8" fill="#C1CCDF"/>
<rect x="36" y="84" width="16" height="8" fill="#8198C0"/>
<rect opacity="0.5" x="36" y="112" width="16" height="8" fill="#3C408C"/>
<rect x="92" y="64" width="16" height="8" fill="#C1CCDF"/>
<rect x="92" y="92" width="16" height="8" fill="#8198C0"/>
<rect opacity="0.5" x="92" y="120" width="16" height="8" fill="#3C408C"/>
<rect x="108" y="56" width="16" height="8" fill="#C1CCDF"/>
<rect x="108" y="84" width="16" height="8" fill="#8198C0"/>
<rect opacity="0.5" x="108" y="112" width="16" height="8" fill="#3C408C"/>
<rect x="92" y="32" width="16" height="8" fill="#DBE1EA"/>
<rect x="68" y="24" width="24" height="8" fill="#DBE1EA"/>
<rect x="68" y="72" width="24" height="8" fill="#C1CCDF"/>
<rect x="68" y="100" width="24" height="8" fill="#8198C0"/>
<rect opacity="0.5" x="68" y="128" width="24" height="8" fill="#3C408C"/>
</svg>
