<svg width="160" height="160" viewBox="0 0 160 160" fill="none" xmlns="http://www.w3.org/2000/svg">
<rect x="32" y="56" width="96" height="8" fill="#FF8205"/>
<rect x="24" y="64" width="112" height="72" fill="#FEAD37"/>
<rect x="72" y="112" width="16" height="8" fill="#FF8205"/>
<path d="M32 64H24V136H32V64Z" fill="#FF8205"/>
<path d="M136 64H128V136H136V64Z" fill="#90320E"/>
<path d="M128 144L128 136L32 136L32 144L128 144Z" fill="#90320E"/>
<path d="M104 32L104 24L56 24L56 32L104 32Z" fill="#C1CCDF"/>
<path d="M104 24L104 16L56 16L56 24L104 24Z" fill="#8198C0"/>
<path d="M104 40L104 32L56 32L56 40L104 40Z" fill="#3C408C"/>
<path d="M56 32H48V56H56V32Z" fill="#8198C0"/>
<path d="M48 32H40V56H48V32Z" fill="#8198C0"/>
<path d="M120 32H112V56H120V32Z" fill="#3C408C"/>
<path d="M104 40H96V56H104V40Z" fill="#3C408C"/>
<path d="M64 40H56V56H64V40Z" fill="#3C408C"/>
<path d="M112 32H104V56H112V32Z" fill="#8198C0"/>
<rect x="120" y="56" width="8" height="80" fill="#FA500F"/>
<rect x="32" y="64" width="8" height="72" fill="#FFD700"/>
<rect x="112" y="64" width="8" height="72" fill="#FF8205"/>
<rect x="40" y="128" width="72" height="8" fill="#FF8205"/>
<rect x="112" y="64" width="8" height="80" transform="rotate(90 112 64)" fill="#FFD700"/>
<path d="M56 24H48V32H56V24Z" fill="#8198C0"/>
<path d="M56 48H48V56H56V48Z" fill="#8198C0"/>
<path d="M112 24H104V32H112V24Z" fill="#3C408C"/>
<path d="M112 48H104V56H112V48Z" fill="#8198C0"/>
<rect x="32" y="64" width="8" height="8" fill="white"/>
<rect x="72" y="80" width="16" height="32" fill="#90320E"/>
</svg>
