<svg width="744" height="115" viewBox="0 0 744 115" fill="none" xmlns="http://www.w3.org/2000/svg">
<g clip-path="url(#clip0_2189_16493)">
<mask id="mask0_2189_16493" style="mask-type:luminance" maskUnits="userSpaceOnUse" x="0" y="0" width="162" height="115">
<path d="M161.859 0H0V114.92H161.859V0Z" fill="white"/>
</mask>
<g mask="url(#mask0_2189_16493)">
<path d="M46.242 0H23.1141V23.0599H46.242V0Z" fill="white"/>
<path d="M138.742 0H115.614V23.0599H138.742V0Z" fill="white"/>
<path d="M69.3623 23.0615H23.1141V46.1214H69.3623V23.0615Z" fill="white"/>
<path d="M138.747 23.0615H92.4986V46.1214H138.747V23.0615Z" fill="white"/>
<path d="M138.73 46.1108H23.1141V69.1708H138.73V46.1108Z" fill="white"/>
<path d="M46.242 69.1729H23.1141V92.2324H46.242V69.1729Z" fill="white"/>
<path d="M92.4986 69.1729H69.3705V92.2324H92.4986V69.1729Z" fill="white"/>
<path d="M138.742 69.1729H115.614V92.2324H138.742V69.1729Z" fill="white"/>
<path d="M69.3673 92.2246H-0.00124741V115.285H69.3673V92.2246Z" fill="white"/>
<path d="M161.874 92.2246H92.4986V115.285H161.874V92.2246Z" fill="white"/>
</g>
<path d="M230.296 103.991V13.3158H257.696L274.149 75.1681L290.416 13.3158H317.879V103.991H300.869V32.6137L282.87 103.991H265.242L247.305 32.6137V103.991H230.296ZM332.139 29.3974V13.3158H349.52V29.3974H332.139ZM332.139 103.991V38.3041H349.52V103.991H332.139ZM357.471 85.25L374.914 82.5903C375.656 85.9716 377.161 88.5488 379.429 90.3219C381.697 92.0537 384.872 92.9197 388.954 92.9197C393.449 92.9197 396.83 92.095 399.098 90.4456C400.624 89.291 401.386 87.7447 401.386 85.8067C401.386 84.4871 400.974 83.3944 400.149 82.5285C399.284 81.7038 397.345 80.9409 394.335 80.24C380.316 77.1473 371.429 74.3228 367.677 71.7662C362.481 68.22 359.884 63.2924 359.884 56.9835C359.884 51.2931 362.131 46.5099 366.626 42.6338C371.12 38.7577 378.089 36.8197 387.532 36.8197C396.521 36.8197 403.201 38.2835 407.572 41.2112C411.943 44.1389 414.953 48.4685 416.602 54.2002L400.211 57.2309C399.51 54.6744 398.17 52.7157 396.191 51.355C394.253 49.9942 391.47 49.3138 387.841 49.3138C383.264 49.3138 379.986 49.953 378.006 51.2313C376.687 52.1384 376.027 53.3136 376.027 54.7568C376.027 55.9939 376.604 57.0454 377.759 57.9113C379.326 59.0659 384.728 60.6946 393.964 62.7976C403.242 64.9006 409.716 67.4778 413.386 70.5291C417.014 73.6218 418.829 77.9308 418.829 83.4563C418.829 89.4766 416.314 94.6515 411.283 98.9812C406.252 103.311 398.809 105.476 388.954 105.476C380.006 105.476 372.914 103.661 367.677 100.033C362.481 96.404 359.08 91.4764 357.471 85.25ZM460.428 38.3041V52.159H448.553V78.6318C448.553 83.9923 448.656 87.1262 448.862 88.0333C449.109 88.8993 449.625 89.6209 450.408 90.1982C451.233 90.7754 452.222 91.0641 453.377 91.0641C454.985 91.0641 457.315 90.5074 460.366 89.3941L461.851 102.878C457.81 104.61 453.233 105.476 448.12 105.476C444.986 105.476 442.161 104.96 439.646 103.929C437.13 102.857 435.275 101.497 434.079 99.8471C432.925 98.1565 432.12 95.8886 431.667 93.0434C431.296 91.0229 431.11 86.9406 431.11 80.7966V52.159H423.131V38.3041H431.11V25.2533L448.553 15.1095V38.3041H460.428ZM485.327 103.991H467.947V38.3041H484.09V47.6438C486.853 43.2317 489.327 40.3246 491.513 38.9227C493.739 37.5207 496.255 36.8197 499.059 36.8197C503.017 36.8197 506.831 37.9124 510.501 40.0978L505.12 55.2516C502.192 53.3548 499.471 52.4064 496.956 52.4064C494.523 52.4064 492.461 53.0868 490.77 54.4476C489.08 55.7671 487.74 58.1793 486.75 61.6843C485.802 65.1892 485.327 72.529 485.327 83.7037V103.991ZM527.236 58.3443L511.464 55.4991C513.237 49.1489 516.288 44.4481 520.618 41.3967C524.947 38.3454 531.38 36.8197 539.916 36.8197C547.668 36.8197 553.441 37.7475 557.234 39.603C561.028 41.4174 563.688 43.7471 565.213 46.5923C566.78 49.3963 567.564 54.5713 567.564 62.1172L567.378 82.4048C567.378 88.1777 567.646 92.4455 568.182 95.2082C568.759 97.9297 569.811 100.857 571.337 103.991H554.142C553.688 102.837 553.131 101.125 552.472 98.8575C552.183 97.8266 551.977 97.1462 551.853 96.8164C548.884 99.7028 545.709 101.868 542.328 103.311C538.947 104.754 535.339 105.476 531.504 105.476C524.741 105.476 519.401 103.641 515.484 99.9708C511.608 96.3009 509.67 91.662 509.67 86.0541C509.67 82.3429 510.557 79.0441 512.33 76.1577C514.103 73.23 516.577 71.0034 519.752 69.4777C522.968 67.9107 527.587 66.55 533.607 65.3954C541.73 63.8697 547.359 62.4471 550.492 61.1276V59.3957C550.492 56.0557 549.668 53.6847 548.018 52.2827C546.369 50.8395 543.256 50.1179 538.679 50.1179C535.586 50.1179 533.174 50.7364 531.442 51.9735C529.71 53.1693 528.308 55.2929 527.236 58.3443ZM550.492 72.4466C548.266 73.1888 544.74 74.0753 539.916 75.1062C535.091 76.1371 531.937 77.1473 530.452 78.137C528.184 79.7451 527.05 81.7863 527.05 84.2603C527.05 86.6932 527.958 88.7962 529.772 90.5693C531.586 92.3424 533.895 93.2289 536.699 93.2289C539.833 93.2289 542.823 92.1981 545.668 90.1363C547.771 88.5694 549.152 86.652 549.812 84.3841C550.266 82.8996 550.492 80.075 550.492 75.9103V72.4466ZM580.958 103.991V13.3158H598.339V103.991H580.958ZM721.061 103.991H701.145L693.228 83.3944H656.982L649.498 103.991H630.076L665.394 13.3158H684.754L721.061 103.991ZM687.352 68.1169L674.857 34.4693L662.611 68.1169H687.352ZM726.477 103.991V13.3158H744.785V103.991H726.477Z" fill="white"/>
</g>
<defs>
<clipPath id="clip0_2189_16493">
<rect width="744" height="114.92" fill="white"/>
</clipPath>
</defs>
</svg>
