<svg width="744" height="162" viewBox="0 0 744 162" fill="none" xmlns="http://www.w3.org/2000/svg">
<g clip-path="url(#clip0_2114_27758)">
<g clip-path="url(#clip1_2114_27758)">
<path d="M162 162H0V0H162V162ZM108 54H90V72H72V54H54V36H36V108H18V126H72V108H54V90H72V108H90V90H108V108H90V126H144V108H126V36H108V54Z" fill="black"/>
</g>
<path d="M230.956 126.361V35.811H258.319L274.749 97.5777L290.993 35.811H318.418V126.361H301.432V55.0822L283.458 126.361H265.854L247.942 55.0822V126.361H230.956Z" fill="black"/>
<path d="M332.659 51.8704V35.811H350.015V51.8704H332.659ZM332.659 126.361V60.7647H350.015V126.361H332.659Z" fill="black"/>
<path d="M357.956 107.646L375.374 104.99C376.115 108.366 377.618 110.94 379.883 112.71C382.148 114.44 385.318 115.305 389.395 115.305C393.883 115.305 397.26 114.481 399.525 112.834C401.048 111.681 401.81 110.137 401.81 108.202C401.81 106.884 401.398 105.793 400.575 104.928C399.71 104.104 397.775 103.343 394.769 102.643C380.768 99.5542 371.894 96.7335 368.147 94.1805C362.959 90.6392 360.365 85.7185 360.365 79.4183C360.365 73.7357 362.609 68.9591 367.097 65.0884C371.586 61.2177 378.545 59.2824 387.974 59.2824C396.951 59.2824 403.622 60.7442 407.987 63.6678C412.352 66.5914 415.358 70.9151 417.005 76.6388L400.636 79.6653C399.936 77.1123 398.598 75.1564 396.622 73.7975C394.686 72.4386 391.907 71.7592 388.283 71.7592C383.712 71.7592 380.439 72.3975 378.462 73.674C377.145 74.5799 376.486 75.7534 376.486 77.1947C376.486 78.43 377.062 79.48 378.215 80.3448C379.78 81.4977 385.174 83.1243 394.398 85.2243C403.663 87.3244 410.128 89.898 413.793 92.9452C417.416 96.0335 419.228 100.337 419.228 105.854C419.228 111.866 416.716 117.034 411.693 121.358C406.669 125.681 399.236 127.843 389.395 127.843C380.459 127.843 373.377 126.031 368.147 122.408C362.959 118.784 359.562 113.863 357.956 107.646Z" fill="black"/>
<path d="M460.77 60.7647V74.6005H448.911V101.037C448.911 106.39 449.014 109.519 449.22 110.425C449.467 111.29 449.981 112.01 450.764 112.587C451.587 113.163 452.576 113.452 453.729 113.452C455.335 113.452 457.661 112.896 460.708 111.784L462.191 125.249C458.155 126.979 453.584 127.843 448.478 127.843C445.349 127.843 442.528 127.329 440.016 126.299C437.505 125.229 435.652 123.87 434.457 122.223C433.304 120.534 432.501 118.269 432.049 115.428C431.678 113.41 431.493 109.334 431.493 103.198V74.6005H423.525V60.7647H431.493V47.732L448.911 37.6023V60.7647H460.77Z" fill="black"/>
<path d="M485.635 126.361H468.278V60.7647H484.399V70.0915C487.158 65.6855 489.629 62.7825 491.811 61.3824C494.035 59.9824 496.547 59.2824 499.347 59.2824C503.3 59.2824 507.109 60.3736 510.774 62.556L505.4 77.6888C502.476 75.7946 499.759 74.8475 497.247 74.8475C494.817 74.8475 492.759 75.527 491.07 76.8858C489.382 78.2035 488.044 80.6124 487.055 84.1125C486.108 87.6126 485.635 94.9423 485.635 106.101V126.361Z" fill="black"/>
<path d="M527.485 80.7771L511.735 77.9359C513.505 71.5945 516.553 66.9002 520.876 63.8531C525.2 60.8059 531.624 59.2824 540.147 59.2824C547.889 59.2824 553.654 60.2088 557.442 62.0618C561.23 63.8737 563.886 66.2002 565.41 69.0415C566.975 71.8416 567.757 77.0094 567.757 84.5449L567.572 104.804C567.572 110.569 567.84 114.831 568.375 117.59C568.951 120.308 570.001 123.231 571.525 126.361H554.354C553.901 125.208 553.345 123.499 552.686 121.234C552.398 120.205 552.192 119.525 552.068 119.196C549.104 122.078 545.933 124.24 542.556 125.681C539.18 127.123 535.577 127.843 531.747 127.843C524.994 127.843 519.662 126.011 515.75 122.346C511.879 118.681 509.944 114.049 509.944 108.449C509.944 104.743 510.829 101.448 512.6 98.5659C514.37 95.6423 516.841 93.4187 520.012 91.8951C523.223 90.3304 527.835 88.9715 533.847 87.8185C541.959 86.295 547.58 84.8743 550.71 83.5566V81.8272C550.71 78.4918 549.886 76.124 548.239 74.724C546.592 73.2828 543.483 72.5622 538.912 72.5622C535.824 72.5622 533.415 73.1798 531.685 74.4152C529.956 75.6093 528.556 77.73 527.485 80.7771ZM550.71 94.8599C548.486 95.6011 544.965 96.4864 540.147 97.5159C535.33 98.5453 532.18 99.5542 530.697 100.542C528.432 102.148 527.3 104.187 527.3 106.657C527.3 109.087 528.206 111.187 530.018 112.958C531.83 114.728 534.136 115.614 536.936 115.614C540.065 115.614 543.051 114.584 545.892 112.525C547.992 110.96 549.371 109.046 550.03 106.781C550.483 105.298 550.71 102.478 550.71 98.3189V94.8599Z" fill="black"/>
<path d="M581.133 126.361V35.811H598.49V126.361H581.133Z" fill="black"/>
<path d="M721.042 126.361H701.153L693.247 105.793H657.052L649.578 126.361H630.183L665.452 35.811H684.785L721.042 126.361ZM687.379 90.5363L674.902 56.9352L662.673 90.5363H687.379Z" fill="black"/>
<path d="M726.45 126.361V35.811H744.733V126.361H726.45Z" fill="black"/>
</g>
<defs>
<clipPath id="clip0_2114_27758">
<rect width="744" height="162" fill="white"/>
</clipPath>
<clipPath id="clip1_2114_27758">
<rect width="162" height="162" fill="white"/>
</clipPath>
</defs>
</svg>
