<svg width="733" height="162" viewBox="0 0 733 162" fill="none" xmlns="http://www.w3.org/2000/svg">
<g clip-path="url(#clip0_1664_1597)">
<g clip-path="url(#clip1_1664_1597)">
<rect x="-0.429497" width="162" height="18" fill="#FFD700"/>
<rect x="-0.429497" y="36" width="162" height="18" fill="#FFAF00"/>
<rect x="-0.429497" y="72" width="162" height="18" fill="#FF8205"/>
<rect x="-0.429497" y="108" width="162" height="18" fill="#FA500F"/>
<rect x="-0.429497" y="144" width="162" height="18" fill="#E92700"/>
<rect x="-0.429497" y="18" width="162" height="18" fill="#FFC400"/>
<rect x="-0.429497" y="54" width="162" height="18" fill="#FF8205"/>
<rect x="-0.429497" y="90" width="162" height="18" fill="#FF8205"/>
<rect x="-0.429497" y="126" width="162" height="18" fill="#F13C00"/>
<g clip-path="url(#clip2_1664_1597)">
<rect x="35.5705" y="36" width="18" height="18" fill="white"/>
<rect x="-0.429497" y="108" width="18" height="18" fill="#FA500F"/>
<rect x="-0.429497" y="126" width="18" height="18" fill="#F13C00"/>
<rect x="-0.429497" width="18" height="18" fill="#FFD700"/>
<rect x="-0.429497" y="144" width="18" height="18" fill="#E92700"/>
<rect x="-0.429497" y="18" width="18" height="18" fill="#FFC400"/>
<rect x="17.5705" y="126" width="18" height="18" fill="#F13C00"/>
<rect x="17.5705" width="18" height="18" fill="#FFD700"/>
<rect x="17.5705" y="144" width="18" height="18" fill="#E92700"/>
<rect x="17.5705" y="18" width="18" height="18" fill="#FFC400"/>
<rect x="35.5705" y="126" width="18" height="18" fill="#F13C00"/>
<rect x="35.5705" width="18" height="18" fill="#FFD700"/>
<rect x="35.5705" y="144" width="18" height="18" fill="#E92700"/>
<rect x="35.5705" y="18" width="18" height="18" fill="#FFC400"/>
<rect x="53.5705" y="126" width="18" height="18" fill="#F13C00"/>
<rect x="53.5705" width="18" height="18" fill="#FFD700"/>
<rect x="53.5705" y="144" width="18" height="18" fill="#E92700"/>
<rect x="53.5705" y="18" width="18" height="18" fill="#FFC400"/>
<rect x="71.5705" y="126" width="18" height="18" fill="#F13C00"/>
<rect x="71.5705" width="18" height="18" fill="#FFD700"/>
<rect x="71.5705" y="144" width="18" height="18" fill="#E92700"/>
<rect x="71.5705" y="18" width="18" height="18" fill="#FFC400"/>
<rect x="89.5705" y="126" width="18" height="18" fill="#F13C00"/>
<rect x="89.5705" width="18" height="18" fill="#FFD700"/>
<rect x="89.5705" y="144" width="18" height="18" fill="#E92700"/>
<rect x="89.5705" y="18" width="18" height="18" fill="#FFC400"/>
<rect x="107.57" y="126" width="18" height="18" fill="#F13C00"/>
<rect x="107.57" width="18" height="18" fill="#FFD700"/>
<rect x="107.57" y="144" width="18" height="18" fill="#E92700"/>
<rect x="107.57" y="18" width="18" height="18" fill="#FFC400"/>
<rect x="125.57" y="126" width="18" height="18" fill="#F13C00"/>
<rect x="125.57" width="18" height="18" fill="#FFD700"/>
<rect x="125.57" y="144" width="18" height="18" fill="#E92700"/>
<rect x="125.57" y="18" width="18" height="18" fill="#FFC400"/>
<rect x="143.57" y="126" width="18" height="18" fill="#F13C00"/>
<rect x="143.57" width="18" height="18" fill="#FFD700"/>
<rect x="143.57" y="144" width="18" height="18" fill="#E92700"/>
<rect x="143.57" y="18" width="18" height="18" fill="#FFC400"/>
<rect x="-0.429497" y="90" width="18" height="18" fill="#FF6B01"/>
<rect x="125.57" y="90" width="18" height="18" fill="#FF6B01"/>
<rect x="-0.429497" y="72" width="18" height="18" fill="#FF8205"/>
<rect x="125.57" y="72" width="18" height="18" fill="#FF8205"/>
<rect x="-0.429497" y="54" width="18" height="18" fill="#FF9900"/>
<rect x="125.57" y="54" width="18" height="18" fill="#FF9900"/>
<rect x="-0.429497" y="36" width="18" height="18" fill="#FFAF00"/>
<rect x="125.57" y="36" width="18" height="18" fill="#FFAF00"/>
<rect x="17.5705" y="90" width="18" height="18" fill="#FF6B01"/>
<rect x="143.57" y="90" width="18" height="18" fill="#FF6B01"/>
<rect x="143.57" y="108" width="18" height="18" fill="#FA500F"/>
<rect x="17.5705" y="72" width="18" height="18" fill="#FF8205"/>
<rect x="143.57" y="72" width="18" height="18" fill="#FF8205"/>
<rect x="17.5705" y="54" width="18" height="18" fill="#FF9900"/>
<rect x="143.57" y="54" width="18" height="18" fill="#FF9900"/>
<rect x="17.5705" y="36" width="18" height="18" fill="#FFAF00"/>
<rect x="143.57" y="36" width="18" height="18" fill="#FFAF00"/>
<rect x="53.5705" y="90" width="18" height="18" fill="#FF6B01"/>
<rect x="71.5705" y="108" width="18" height="18" fill="#FA500F"/>
<rect x="89.5705" y="90" width="18" height="18" fill="#FF6B01"/>
<rect x="71.5705" y="54" width="18" height="18" fill="#FF9900"/>
<rect x="53.5705" y="36" width="18" height="18" fill="#FFAF00"/>
<rect x="71.5705" y="36" width="18" height="18" fill="#FFAF00"/>
<rect x="89.5705" y="36" width="18" height="18" fill="#FFAF00"/>
<rect x="107.57" y="36" width="18" height="18" fill="white"/>
<rect x="71.5705" y="90" width="18" height="18" fill="white"/>
<rect x="35.5705" y="90" width="18" height="18" fill="white"/>
<rect x="107.57" y="90" width="18" height="18" fill="white"/>
<rect x="35.5705" y="54" width="36" height="18" fill="white"/>
<rect x="17.5705" y="108" width="54" height="18" fill="white"/>
<rect x="89.5705" y="108" width="54" height="18" fill="white"/>
<rect x="35.5705" y="72" width="90" height="18" fill="white"/>
<rect x="89.5705" y="54" width="36" height="18" fill="white"/>
</g>
</g>
<path d="M720.617 129.758V37.7578H732.617V129.758H720.617Z" fill="black"/>
<path d="M623.617 129.758L658.497 37.7578H671.445L708.617 129.758H694.925L684.331 101.894H646.354L636.38 129.758H623.617ZM649.824 91.9787H680.614L671.135 66.4999C668.244 58.7601 666.096 52.4008 664.692 47.4222C663.536 53.3213 661.904 59.1784 659.798 64.9938L649.824 91.9787Z" fill="black"/>
<path d="M575.617 129.758V37.7578H586.617V129.758H575.617Z" fill="black"/>
<path d="M547.875 121.123C543.785 124.645 539.838 127.132 536.034 128.582C532.272 130.032 528.223 130.758 523.887 130.758C516.73 130.758 511.229 128.996 507.384 125.474C503.54 121.91 501.617 117.372 501.617 111.86C501.617 108.628 502.333 105.686 503.765 103.033C505.237 100.34 507.139 98.1847 509.47 96.5685C511.843 94.9523 514.501 93.7298 517.446 92.9009C519.613 92.3207 522.885 91.7613 527.261 91.2226C536.178 90.1451 542.742 88.8604 546.955 87.3686C546.996 85.8352 547.016 84.8613 547.016 84.447C547.016 79.8884 545.973 76.6767 543.887 74.8119C541.065 72.284 536.873 71.0199 531.31 71.0199C526.116 71.0199 522.272 71.9524 519.777 73.8172C517.322 75.6407 515.503 78.8938 514.317 83.5767L503.519 82.0848C504.501 77.4019 506.117 73.6308 508.366 70.7714C510.616 67.8704 513.867 65.6533 518.121 64.12C522.374 62.5453 527.302 61.7578 532.905 61.7578C538.468 61.7578 542.987 62.4209 546.464 63.7471C549.94 65.0731 552.497 66.7515 554.133 68.7821C555.768 70.7714 556.913 73.2993 557.568 76.3659C557.936 78.2722 558.12 81.7118 558.12 86.6848V101.604C558.12 112.006 558.345 118.595 558.795 121.371C559.286 124.106 560.227 126.737 561.617 129.266H550.083C548.938 126.945 548.202 124.23 547.875 121.123ZM546.955 96.1334C542.947 97.7911 536.934 99.2001 528.918 100.36C524.378 101.023 521.168 101.769 519.286 102.598C517.405 103.427 515.953 104.65 514.93 106.266C513.908 107.841 513.396 109.602 513.396 111.55C513.396 114.533 514.501 117.02 516.709 119.009C518.959 120.998 522.231 121.993 526.525 121.993C530.779 121.993 534.562 121.06 537.875 119.195C541.188 117.289 543.621 114.699 545.176 111.426C546.361 108.897 546.955 105.168 546.955 100.236V96.1334Z" fill="black"/>
<path d="M462.617 129.758V63.2606H472.444V73.3416C474.951 68.6246 477.256 65.5148 479.359 64.012C481.502 62.5092 483.848 61.7578 486.395 61.7578C490.075 61.7578 493.815 62.9684 497.617 65.3895L493.856 75.8462C491.187 74.2182 488.518 73.4042 485.849 73.4042C483.463 73.4042 481.32 74.1555 479.42 75.6584C477.519 77.1193 476.164 79.1648 475.355 81.7946C474.142 85.8019 473.536 90.1849 473.536 94.9437V129.758H462.617Z" fill="black"/>
<path d="M451.961 119.752L453.617 129.751C450.389 130.422 447.501 130.758 444.953 130.758C440.791 130.758 437.563 130.108 435.269 128.808C432.977 127.508 431.363 125.811 430.428 123.714C429.494 121.576 429.027 117.111 429.027 110.319V71.8938H420.617V63.0895H429.027V46.5497L440.43 39.7578V63.0895H451.961V71.8938H440.43V110.948C440.43 114.176 440.621 116.251 441.003 117.173C441.428 118.096 442.086 118.83 442.978 119.375C443.912 119.919 445.229 120.192 446.927 120.192C448.202 120.192 449.88 120.045 451.961 119.752Z" fill="black"/>
<path d="M358.617 109.56L369.717 107.82C370.341 112.254 372.066 115.652 374.893 118.015C377.761 120.376 381.752 121.558 386.866 121.558C392.02 121.558 395.845 120.522 398.339 118.449C400.834 116.336 402.081 113.87 402.081 111.052C402.081 108.524 400.979 106.535 398.776 105.085C397.238 104.09 393.413 102.826 387.301 101.293C379.07 99.2207 373.354 97.4388 370.153 95.9469C366.993 94.4136 364.582 92.3207 362.92 89.6685C361.298 86.9749 360.487 84.0118 360.487 80.7794C360.487 77.8371 361.153 75.1226 362.483 72.6362C363.855 70.1083 365.705 68.0155 368.033 66.3578C369.779 65.0731 372.149 63.9957 375.142 63.1254C378.176 62.2137 381.42 61.7578 384.87 61.7578C390.067 61.7578 394.619 62.5038 398.527 63.9957C402.476 65.4876 405.386 67.5182 407.256 70.0875C409.127 72.6155 410.416 76.0137 411.123 80.2821L400.148 81.7739C399.649 78.3758 398.194 75.7235 395.783 73.8172C393.413 71.911 390.045 70.9578 385.68 70.9578C380.526 70.9578 376.847 71.8074 374.643 73.5064C372.44 75.2056 371.338 77.1948 371.338 79.474C371.338 80.9245 371.795 82.2299 372.71 83.3902C373.624 84.592 375.059 85.5866 377.013 86.3739C378.135 86.7884 381.44 87.7416 386.928 89.2334C394.868 91.3469 400.397 93.0875 403.515 94.455C406.674 95.7811 409.148 97.7289 410.936 100.298C412.723 102.868 413.617 106.059 413.617 109.871C413.617 113.601 412.516 117.124 410.312 120.439C408.15 123.713 405.012 126.261 400.896 128.084C396.781 129.867 392.124 130.758 386.928 130.758C378.322 130.758 371.754 128.976 367.222 125.412C362.733 121.847 359.864 116.564 358.617 109.56Z" fill="black"/>
<path d="M334.617 50.7482V37.7578H345.617V50.7482H334.617ZM334.617 129.758V63.1111H345.617V129.758H334.617Z" fill="black"/>
<path d="M230.617 129.758V37.7578H248.776L270.355 102.898C272.345 108.965 273.796 113.504 274.708 116.516C275.744 113.169 277.361 108.253 279.559 101.769L301.387 37.7578H317.617V129.758H305.988V52.7564L279.496 129.758H268.613L242.246 51.4386V129.758H230.617Z" fill="black"/>
</g>
<defs>
<clipPath id="clip0_1664_1597">
<rect width="733" height="162" fill="white"/>
</clipPath>
<clipPath id="clip1_1664_1597">
<rect width="162" height="162" fill="white" transform="translate(-0.429497)"/>
</clipPath>
<clipPath id="clip2_1664_1597">
<rect width="162" height="162" fill="white" transform="translate(-0.429497)"/>
</clipPath>
</defs>
</svg>
