<svg width="857" height="135" viewBox="0 0 857 135" fill="none" xmlns="http://www.w3.org/2000/svg">
<g clip-path="url(#clip0_2566_26880)">
<mask id="mask0_2566_26880" style="mask-type:luminance" maskUnits="userSpaceOnUse" x="0" y="0" width="191" height="135">
<path d="M190.141 0H0V135H190.141V0Z" fill="white"/>
</mask>
<g mask="url(#mask0_2566_26880)">
<path d="M54.3219 0H27.1528V27.0892H54.3219V0Z" fill="white"/>
<path d="M162.984 0H135.815V27.0892H162.984V0Z" fill="white"/>
<path d="M81.482 27.0913H27.1528V54.1805H81.482V27.0913Z" fill="white"/>
<path d="M162.99 27.0913H108.661V54.1805H162.99V27.0913Z" fill="white"/>
<path d="M162.971 54.168H27.1528V81.2573H162.971V54.168Z" fill="white"/>
<path d="M54.3219 81.2593H27.1528V108.348H54.3219V81.2593Z" fill="white"/>
<path d="M108.661 81.2593H81.4917V108.348H108.661V81.2593Z" fill="white"/>
<path d="M162.984 81.2593H135.815V108.348H162.984V81.2593Z" fill="white"/>
<path d="M81.4879 108.339H-0.00146484V135.429H81.4879V108.339Z" fill="white"/>
<path d="M190.159 108.339H108.661V135.429H190.159V108.339Z" fill="white"/>
</g>
<path d="M842.372 121.565V15.2109H856.446V121.565H842.372Z" fill="white"/>
<path d="M729.208 121.565L770.052 15.2109H785.215L828.743 121.565H812.71L800.304 89.3539H755.833L744.153 121.565H729.208ZM759.896 77.8915H795.952L784.852 48.4374C781.466 39.49 778.951 32.1385 777.307 26.3832C775.953 33.2026 774.042 39.9736 771.576 46.6963L759.896 77.8915Z" fill="white"/>
<path d="M672.76 121.565V15.2109H685.819V121.565H672.76Z" fill="white"/>
<path d="M640.62 112.06C635.783 116.171 631.116 119.073 626.618 120.766C622.169 122.458 617.381 123.305 612.254 123.305C603.79 123.305 597.285 121.249 592.739 117.138C588.193 112.979 585.919 107.683 585.919 101.25C585.919 97.4782 586.766 94.0443 588.459 90.949C590.2 87.8053 592.449 85.2903 595.205 83.4041C598.011 81.5179 601.154 80.0911 604.637 79.1238C607.2 78.4467 611.069 77.7938 616.244 77.1651C626.788 75.9076 634.55 74.4083 639.532 72.6672C639.58 70.8777 639.604 69.7411 639.604 69.2575C639.604 63.9374 638.371 60.1891 635.904 58.0127C632.567 55.0625 627.61 53.5873 621.032 53.5873C614.89 53.5873 610.344 54.6755 607.393 56.8519C604.491 58.98 602.339 62.7766 600.937 68.2418L588.168 66.5007C589.329 61.0355 591.24 56.6343 593.9 53.2972C596.56 49.9116 600.405 47.3241 605.435 45.5346C610.464 43.6968 616.292 42.7778 622.918 42.7778C629.496 42.7778 634.84 43.5517 638.951 45.0994C643.062 46.647 646.085 48.6058 648.02 50.9756C649.954 53.2972 651.308 56.2474 652.082 59.8264C652.517 62.0511 652.735 66.0654 652.735 71.8692V89.2804C652.735 101.42 653.001 109.11 653.533 112.35C654.114 115.542 655.226 118.613 656.87 121.564H643.231C641.877 118.855 641.007 115.687 640.62 112.06ZM639.532 82.8963C634.792 84.8309 627.682 86.4753 618.203 87.8295C612.834 88.6033 609.038 89.4739 606.813 90.4412C604.588 91.4085 602.871 92.8352 601.662 94.7214C600.453 96.5593 599.848 98.6148 599.848 100.888C599.848 104.37 601.154 107.272 603.766 109.593C606.426 111.915 610.295 113.076 615.373 113.076C620.403 113.076 624.877 111.987 628.795 109.811C632.712 107.586 635.59 104.563 637.428 100.743C638.83 97.7926 639.532 93.4398 639.532 87.6844V82.8963Z" fill="white"/>
<path d="M540.731 121.564V44.519H552.484V56.199C555.483 50.7338 558.239 47.1307 560.754 45.3895C563.318 43.6484 566.123 42.7778 569.17 42.7778C573.571 42.7778 578.045 44.1804 582.591 46.9856L578.093 59.1009C574.901 57.2147 571.709 56.2716 568.517 56.2716C565.663 56.2716 563.1 57.1421 560.827 58.8833C558.554 60.576 556.934 62.9459 555.966 65.9929C554.515 70.6359 553.79 75.7141 553.79 81.2277V121.564H540.731Z" fill="white"/>
<path d="M528.028 109.886L529.914 121.421C526.238 122.195 522.949 122.582 520.047 122.582C515.308 122.582 511.632 121.832 509.02 120.333C506.409 118.833 504.571 116.875 503.507 114.456C502.443 111.99 501.911 106.839 501.911 99.004V54.6778H492.334V44.5213H501.911V25.4414L514.897 17.6064V44.5213H528.028V54.6778H514.897V99.7295C514.897 103.453 515.114 105.847 515.549 106.911C516.033 107.976 516.783 108.822 517.798 109.451C518.862 110.079 520.362 110.394 522.296 110.394C523.747 110.394 525.658 110.224 528.028 109.886Z" fill="white"/>
<path d="M420.007 98.5664L432.92 96.5351C433.646 101.71 435.653 105.676 438.942 108.433C442.279 111.189 446.922 112.568 452.871 112.568C458.868 112.568 463.317 111.359 466.219 108.94C469.121 106.474 470.572 103.596 470.572 100.307C470.572 97.3573 469.29 95.0358 466.727 93.343C464.938 92.1823 460.488 90.7072 453.378 88.9177C443.802 86.4994 437.152 84.4198 433.428 82.6786C429.752 80.8892 426.947 78.4467 425.013 75.3514C423.126 72.2077 422.183 68.7496 422.183 64.9772C422.183 61.5433 422.957 58.3754 424.505 55.4736C426.101 52.5233 428.253 50.0809 430.961 48.1463C432.993 46.647 435.75 45.3895 439.232 44.3739C442.762 43.3099 446.535 42.7778 450.549 42.7778C456.595 42.7778 461.891 43.6484 466.437 45.3895C471.032 47.1307 474.417 49.5005 476.593 52.4991C478.77 55.4494 480.269 59.4153 481.091 64.3968L468.323 66.1379C467.743 62.1721 466.05 59.0767 463.245 56.8519C460.488 54.6272 456.57 53.5148 451.492 53.5148C445.495 53.5148 441.215 54.5063 438.651 56.4892C436.088 58.4722 434.806 60.7937 434.806 63.4537C434.806 65.1465 435.338 66.67 436.402 68.0242C437.466 69.4267 439.135 70.5875 441.408 71.5064C442.714 71.9901 446.559 73.1025 452.943 74.8436C462.181 77.3102 468.613 79.3415 472.241 80.9375C475.916 82.4852 478.794 84.7583 480.874 87.7569C482.953 90.7555 483.993 94.4796 483.993 98.9292C483.993 103.282 482.712 107.393 480.148 111.262C477.633 115.083 473.982 118.057 469.194 120.185C464.406 122.265 458.989 123.305 452.943 123.305C442.932 123.305 435.29 121.225 430.018 117.066C424.795 112.906 421.458 106.74 420.007 98.5664Z" fill="white"/>
<path d="M392.229 30.2281V15.2109H405.287V30.2281H392.229ZM392.229 121.565V44.5199H405.287V121.565H392.229Z" fill="white"/>
<path d="M269.617 121.565V15.2109H290.801L315.975 90.5146C318.296 97.5275 319.989 102.775 321.053 106.257C322.262 102.388 324.148 96.7053 326.712 89.2088L352.176 15.2109H371.11V121.565H357.544V32.5496L326.639 121.565H313.943L283.183 31.0262V121.565H269.617Z" fill="white"/>
</g>
<defs>
<clipPath id="clip0_2566_26880">
<rect width="857" height="135" fill="white"/>
</clipPath>
</defs>
</svg>
