<svg width="300" height="300" viewBox="0 0 300 300" fill="none" xmlns="http://www.w3.org/2000/svg">
<rect width="300" height="300" fill="#FFF0C3"/>
<rect x="102" y="92.3999" width="105.6" height="28.8" fill="#DFDFDF"/>
<rect x="92.3999" y="121.2" width="115.2" height="76.8" fill="#202020"/>
<rect x="108" y="102" width="9.6" height="9.6" fill="#E10500"/>
<rect x="126" y="102" width="9.6" height="9.6" fill="#FF8205"/>
<rect x="145.2" y="102" width="9.6" height="9.6" fill="#00A514"/>
<rect x="207.6" y="92.3999" width="9.6" height="115.2" fill="#202020"/>
<rect x="102" y="92.3999" width="9.6" height="9.6" fill="#C8C8C8"/>
<rect x="198" y="92.3999" width="9.6" height="9.6" fill="#C8C8C8"/>
<rect x="92.3999" y="102" width="9.6" height="9.6" fill="#C8C8C8"/>
<rect x="92.3999" y="92.3999" width="9.6" height="9.6" fill="#C8C8C8"/>
<rect x="82.8" y="92.3999" width="9.6" height="115.2" fill="#474747"/>
<rect x="207.6" y="207.6" width="9.6" height="115.2" transform="rotate(90 207.6 207.6)" fill="#202020"/>
<rect x="92.3999" y="82.8" width="115.2" height="9.6" fill="#5B6472"/>
<rect x="92.3999" y="111.6" width="9.6" height="9.6" fill="#C8C8C8"/>
<rect x="92.3999" y="198" width="115.2" height="9.6" fill="#202020"/>
<path d="M172.973 169.601L172.973 141.76L165.94 141.76L165.94 148.725L158.913 148.725L158.913 155.683L151.887 155.683L151.887 148.725L144.86 148.725L144.86 141.76L137.833 141.76L137.833 169.601L130.8 169.601L130.8 176.56L151.887 176.56L151.887 169.601L144.86 169.601L144.86 162.642L151.887 162.642L151.887 169.601L158.913 169.601L158.913 162.642L165.94 162.642L165.94 169.601L158.913 169.601L158.913 176.56L180 176.56L180 169.601L172.973 169.601Z" fill="white"/>
<rect x="106.8" y="140.4" width="7.2" height="7.2" fill="white"/>
<rect x="114" y="147.6" width="7.2" height="7.2" fill="white"/>
<rect x="121.2" y="154.8" width="7.2" height="7.2" fill="white"/>
<rect x="114" y="162" width="7.2" height="7.2" fill="white"/>
<rect x="106.8" y="169.2" width="7.2" height="7.2" fill="white"/>
</svg>
