<svg width="65" height="65" viewBox="0 0 65 65" fill="none" xmlns="http://www.w3.org/2000/svg">
<rect width="65" height="65" rx="2.03125" fill="#FEE5F6"/>
<rect x="0.5" y="0.5" width="64" height="64" rx="1.53125" stroke="black" stroke-opacity="0.15"/>
<path d="M41.0751 11.6748H23.925V26.3748H41.0751V11.6748Z" fill="#8F9BB2"/>
<path d="M23.9251 53.3252H21.4751V55.7752H23.9251V53.3252Z" fill="#202020"/>
<path d="M23.9251 50.875H21.4751V53.325H23.9251V50.875Z" fill="#3F4652"/>
<path d="M26.3751 48.4253H23.925V50.8753H26.3751V48.4253Z" fill="#3F4652"/>
<path d="M26.3751 53.3252H23.925V55.7752H26.3751V53.3252Z" fill="#202020"/>
<path d="M26.3751 53.3252H23.925V55.7752H26.3751V53.3252Z" fill="#202020"/>
<path d="M28.825 53.3252H26.375V55.7752H28.825V53.3252Z" fill="#202020"/>
<path d="M31.275 53.3252H28.825V55.7752H31.275V53.3252Z" fill="#202020"/>
<path d="M33.7252 53.3252H31.2751V55.7752H33.7252V53.3252Z" fill="#202020"/>
<path d="M36.1751 53.3252H33.7251V55.7752H36.1751V53.3252Z" fill="#202020"/>
<path d="M38.6251 53.3252H36.175V55.7752H38.6251V53.3252Z" fill="#202020"/>
<path d="M41.075 53.3252H38.625V55.7752H41.075V53.3252Z" fill="#202020"/>
<path d="M41.075 53.3252H38.625V55.7752H41.075V53.3252Z" fill="#202020"/>
<path d="M26.3751 50.875H23.925V53.325H26.3751V50.875Z" fill="#8F9BB2"/>
<path d="M26.3751 50.875H23.925V53.325H26.3751V50.875Z" fill="#5E6886"/>
<path d="M28.825 50.875H26.375V53.325H28.825V50.875Z" fill="#5E6886"/>
<path d="M31.275 50.875H28.825V53.325H31.275V50.875Z" fill="#8F9BB2"/>
<path d="M33.7252 50.875H31.2751V53.325H33.7252V50.875Z" fill="#8F9BB2"/>
<path d="M36.1751 50.875H33.7251V53.325H36.1751V50.875Z" fill="#8F9BB2"/>
<path d="M38.6251 50.875H36.175V53.325H38.6251V50.875Z" fill="#8F9BB2"/>
<path d="M41.075 50.875H38.625V53.325H41.075V50.875Z" fill="#8F9BB2"/>
<path d="M41.075 50.875H38.625V53.325H41.075V50.875Z" fill="#8F9BB2"/>
<path d="M43.5252 53.3252H41.0752V55.7752H43.5252V53.3252Z" fill="#202020"/>
<path d="M43.5252 50.875H41.0752V53.325H43.5252V50.875Z" fill="#3F4652"/>
<path d="M41.075 48.4253H38.625V50.8753H41.075V48.4253Z" fill="#3F4652"/>
<path d="M41.075 48.4253H38.625V50.8753H41.075V48.4253Z" fill="#3F4652"/>
<path d="M38.6251 48.4253H36.175V50.8753H38.6251V48.4253Z" fill="#3F4652"/>
<path d="M36.1751 45.9751H33.7251V48.4251H36.1751V45.9751Z" fill="#3F4652"/>
<path d="M31.275 48.4253H28.825V50.8753H31.275V48.4253Z" fill="#3F4652"/>
<path d="M36.1751 43.5249H33.7251V45.9749H36.1751V43.5249Z" fill="#3F4652"/>
<path d="M33.7252 48.4253H31.2751V50.8753H33.7252V48.4253Z" fill="#3F4652"/>
<path d="M36.1751 48.4253H33.7251V50.8753H36.1751V48.4253Z" fill="#3F4652"/>
<path d="M28.825 48.4253H26.375V50.8753H28.825V48.4253Z" fill="#3F4652"/>
<path d="M31.275 45.9751H28.825V48.4251H31.275V45.9751Z" fill="#3F4652"/>
<path d="M33.7252 45.9751H31.2751V48.4251H33.7252V45.9751Z" fill="#8F9BB2"/>
<path d="M31.275 43.5249H28.825V45.9749H31.275V43.5249Z" fill="#3F4652"/>
<path d="M33.7252 43.5249H31.2751V45.9749H33.7252V43.5249Z" fill="#8F9BB2"/>
<path d="M33.7252 38.625H31.2751V41.075H33.7252V38.625Z" fill="#8F9BB2"/>
<path d="M31.275 38.625H28.825V41.075H31.275V38.625Z" fill="#3F4652"/>
<path d="M36.1751 38.625H33.7251V41.075H36.1751V38.625Z" fill="#3F4652"/>
<path d="M31.275 41.0752H28.825V43.5252H31.275V41.0752Z" fill="#202020"/>
<path d="M26.3751 41.0752H23.925V43.5252H26.3751V41.0752Z" fill="#202020"/>
<path d="M28.825 41.0752H26.375V43.5252H28.825V41.0752Z" fill="#202020"/>
<path d="M33.7252 41.0752H31.2751V43.5252H33.7252V41.0752Z" fill="#202020"/>
<path d="M36.1751 41.0752H33.7251V43.5252H36.1751V41.0752Z" fill="#202020"/>
<path d="M38.6251 41.0752H36.175V43.5252H38.6251V41.0752Z" fill="#202020"/>
<path d="M41.075 41.0752H38.625V43.5252H41.075V41.0752Z" fill="#202020"/>
<path d="M43.5252 38.625H41.0752V41.075H43.5252V38.625Z" fill="#202020"/>
<path d="M45.9752 36.1748H43.5251V38.6248H45.9752V36.1748Z" fill="#202020"/>
<path d="M45.9752 33.7251H43.5251V36.1751H45.9752V33.7251Z" fill="#202020"/>
<path d="M45.9752 31.2749H43.5251V33.7249H45.9752V31.2749Z" fill="#202020"/>
<path d="M45.9752 28.8252H43.5251V31.2752H45.9752V28.8252Z" fill="#202020"/>
<path d="M45.9752 26.375H43.5251V28.825H45.9752V26.375Z" fill="#202020"/>
<path d="M43.5252 23.9248H41.0752V26.3748H43.5252V23.9248Z" fill="#3F4652"/>
<path d="M43.5252 21.4751H41.0752V23.9251H43.5252V21.4751Z" fill="#3F4652"/>
<path d="M43.5252 19.0249H41.0752V21.4749H43.5252V19.0249Z" fill="#3F4652"/>
<path d="M43.5252 16.5752H41.0752V19.0252H43.5252V16.5752Z" fill="#3F4652"/>
<path d="M43.5252 14.125H41.0752V16.575H43.5252V14.125Z" fill="#3F4652"/>
<path d="M48.4251 26.375H45.9751V28.825H48.4251V26.375Z" fill="#202020"/>
<path d="M21.4749 36.1748H19.0249V38.6248H21.4749V36.1748Z" fill="#202020"/>
<path d="M23.9251 38.625H21.4751V41.075H23.9251V38.625Z" fill="#202020"/>
<path d="M21.4749 33.7251H19.0249V36.1751H21.4749V33.7251Z" fill="#202020"/>
<path d="M21.4749 31.2749H19.0249V33.7249H21.4749V31.2749Z" fill="#202020"/>
<path d="M21.4749 28.8252H19.0249V31.2752H21.4749V28.8252Z" fill="#202020"/>
<path d="M21.4749 26.375H19.0249V28.825H21.4749V26.375Z" fill="#202020"/>
<path d="M23.9251 26.375H21.4751V28.825H23.9251V26.375Z" fill="#202020"/>
<path d="M23.9251 28.8252H21.4751V31.2752H23.9251V28.8252Z" fill="#3F4652"/>
<path d="M31.275 36.1748H28.825V38.6248H31.275V36.1748Z" fill="#3F4652"/>
<path d="M23.9251 31.2749H21.4751V33.7249H23.9251V31.2749Z" fill="#3F4652"/>
<path d="M26.3751 33.7251H23.925V36.1751H26.3751V33.7251Z" fill="#3F4652"/>
<path d="M28.825 36.1748H26.375V38.6248H28.825V36.1748Z" fill="#3F4652"/>
<path d="M33.7252 36.1748H31.2751V38.6248H33.7252V36.1748Z" fill="#3F4652"/>
<path d="M36.1751 36.1748H33.7251V38.6248H36.1751V36.1748Z" fill="#3F4652"/>
<path d="M38.6251 36.1748H36.175V38.6248H38.6251V36.1748Z" fill="#3F4652"/>
<path d="M41.075 33.7251H38.625V36.1751H41.075V33.7251Z" fill="#3F4652"/>
<path d="M43.5252 31.2749H41.0752V33.7249H43.5252V31.2749Z" fill="#3F4652"/>
<path d="M43.5252 28.8252H41.0752V31.2752H43.5252V28.8252Z" fill="#3F4652"/>
<path d="M23.9251 23.9248H21.4751V26.3748H23.9251V23.9248Z" fill="#3F4652"/>
<path d="M28.3531 24.6382H26.6162V26.375H28.3531V24.6382Z" fill="#3F4652"/>
<path d="M30.0896 24.6382H28.3528V26.375H30.0896V24.6382Z" fill="#3F4652"/>
<path d="M30.0896 22.9014H28.3528V24.6382H30.0896V22.9014Z" fill="#3F4652"/>
<path d="M30.0896 21.1646H28.3528V22.9014H30.0896V21.1646Z" fill="#3F4652"/>
<path d="M30.0896 19.4277H28.3528V21.1646H30.0896V19.4277Z" fill="#3F4652"/>
<path d="M30.0896 17.6909H28.3528V19.4278H30.0896V17.6909Z" fill="#3F4652"/>
<path d="M31.8264 19.4277H30.0896V21.1646H31.8264V19.4277Z" fill="#3F4652"/>
<path d="M35.2998 24.6382H33.563V26.375H35.2998V24.6382Z" fill="#3F4652"/>
<path d="M31.8264 24.6382H30.0896V26.375H31.8264V24.6382Z" fill="#3F4652"/>
<path d="M37.0371 24.6382H35.3003V26.375H37.0371V24.6382Z" fill="#3F4652"/>
<path d="M31.8264 21.1646H30.0896V22.9014H31.8264V21.1646Z" fill="#3F4652"/>
<path d="M37.0371 22.9014H35.3003V24.6382H37.0371V22.9014Z" fill="#3F4652"/>
<path d="M37.0371 21.1646H35.3003V22.9014H37.0371V21.1646Z" fill="#3F4652"/>
<path d="M37.0371 19.4277H35.3003V21.1646H37.0371V19.4277Z" fill="#3F4652"/>
<path d="M37.0369 17.6909H35.3V19.4278H37.0369V17.6909Z" fill="#3F4652"/>
<path d="M40.0735 17.2749H38.3367V19.0117H40.0735V17.2749Z" fill="#717C90"/>
<path d="M36.918 13.6689H35.1812V15.4058H36.918V13.6689Z" fill="#717C90"/>
<path d="M32.8609 15.4722H31.124V17.209H32.8609V15.4722Z" fill="#B6BFD1"/>
<path d="M30.1563 12.7671H28.4194V14.5039H30.1563V12.7671Z" fill="#717C90"/>
<path d="M27.9024 15.4722H26.1655V17.209H27.9024V15.4722Z" fill="#717C90"/>
<path d="M40.0735 21.332H38.3367V23.0689H40.0735V21.332Z" fill="#A9B1C1"/>
<path d="M27.4514 21.332H25.7146V23.0689H27.4514V21.332Z" fill="#717C90"/>
<path d="M26.0991 18.1768H24.3623V19.9136H26.0991V18.1768Z" fill="#5B6475"/>
<path d="M35.2998 19.4277H33.563V21.1646H35.2998V19.4277Z" fill="#3F4652"/>
<path d="M33.563 21.1646H31.8262V22.9014H33.563V21.1646Z" fill="#3F4652"/>
<path d="M33.563 22.9014H31.8262V24.6382H33.563V22.9014Z" fill="#3F4652"/>
<path d="M35.2998 21.1646H33.563V22.9014H35.2998V21.1646Z" fill="#3F4652"/>
<path d="M38.7735 24.6382H37.0366V26.375H38.7735V24.6382Z" fill="#3F4652"/>
<path d="M23.9251 21.4751H21.4751V23.9251H23.9251V21.4751Z" fill="#3F4652"/>
<path d="M23.9251 19.0249H21.4751V21.4749H23.9251V19.0249Z" fill="#3F4652"/>
<path d="M31.275 9.2251H28.825V11.6751H31.275V9.2251Z" fill="#5B6472"/>
<path d="M23.9251 16.5752H21.4751V19.0252H23.9251V16.5752Z" fill="#3F4652"/>
<path d="M23.9251 14.125H21.4751V16.575H23.9251V14.125Z" fill="#3F4652"/>
<path d="M26.3751 11.6748H23.925V14.1248H26.3751V11.6748Z" fill="#5B6472"/>
<path d="M28.825 9.2251H26.375V11.6751H28.825V9.2251Z" fill="#5B6472"/>
<path d="M33.7252 9.2251H31.2751V11.6751H33.7252V9.2251Z" fill="#5B6472"/>
<path d="M31.275 26.375H28.825V28.825H31.275V26.375Z" fill="#202020"/>
<path d="M31.275 28.8252H28.825V31.2752H31.275V28.8252Z" fill="#8F9BB2"/>
<path d="M31.275 28.8252H28.825V31.2752H31.275V28.8252Z" fill="#8F9BB2"/>
<path d="M31.275 31.2749H28.825V33.7249H31.275V31.2749Z" fill="#8F9BB2"/>
<path d="M31.275 33.7251H28.825V36.1751H31.275V33.7251Z" fill="#8F9BB2"/>
<path d="M36.1751 9.2251H33.7251V11.6751H36.1751V9.2251Z" fill="#5B6472"/>
<path d="M38.6251 9.2251H36.175V11.6751H38.6251V9.2251Z" fill="#5B6472"/>
<path d="M26.3751 26.375H23.925V28.825H26.3751V26.375Z" fill="#202020"/>
<path d="M28.825 26.375H26.375V28.825H28.825V26.375Z" fill="#202020"/>
<path d="M33.7252 26.375H31.2751V28.825H33.7252V26.375Z" fill="#202020"/>
<path d="M36.1751 26.375H33.7251V28.825H36.1751V26.375Z" fill="#202020"/>
<path d="M38.6251 26.375H36.175V28.825H38.6251V26.375Z" fill="#202020"/>
<path d="M41.075 26.375H38.625V28.825H41.075V26.375Z" fill="#202020"/>
<path d="M41.075 11.6748H38.625V14.1248H41.075V11.6748Z" fill="#5B6472"/>
<path d="M26.3751 28.8252H23.925V31.2752H26.3751V28.8252Z" fill="#8F9BB2"/>
<path d="M26.3751 28.8252H23.925V31.2752H26.3751V28.8252Z" fill="#5E6886"/>
<path d="M28.825 28.8252H26.375V31.2752H28.825V28.8252Z" fill="#8F9BB2"/>
<path d="M26.3751 31.2749H23.925V33.7249H26.3751V31.2749Z" fill="#5E6886"/>
<path d="M33.7252 28.8252H31.2751V31.2752H33.7252V28.8252Z" fill="#8F9BB2"/>
<path d="M28.825 28.8252H26.375V31.2752H28.825V28.8252Z" fill="#8F9BB2"/>
<path d="M28.825 31.2749H26.375V33.7249H28.825V31.2749Z" fill="#8F9BB2"/>
<path d="M28.825 33.7251H26.375V36.1751H28.825V33.7251Z" fill="#5E6886"/>
<path d="M36.1751 28.8252H33.7251V31.2752H36.1751V28.8252Z" fill="#8F9BB2"/>
<path d="M33.7252 28.8252H31.2751V31.2752H33.7252V28.8252Z" fill="#8F9BB2"/>
<path d="M38.6251 28.8252H36.175V31.2752H38.6251V28.8252Z" fill="#8F9BB2"/>
<path d="M33.7252 31.2749H31.2751V33.7249H33.7252V31.2749Z" fill="#9FDA44"/>
<path d="M33.7252 33.7251H31.2751V36.1751H33.7252V33.7251Z" fill="#8F9BB2"/>
<path d="M41.075 28.8252H38.625V31.2752H41.075V28.8252Z" fill="#8F9BB2"/>
<path d="M36.1751 28.8252H33.7251V31.2752H36.1751V28.8252Z" fill="#8F9BB2"/>
<path d="M36.1751 31.2749H33.7251V33.7249H36.1751V31.2749Z" fill="#8F9BB2"/>
<path d="M36.1751 33.7251H33.7251V36.1751H36.1751V33.7251Z" fill="#8F9BB2"/>
<path d="M38.6251 28.8252H36.175V31.2752H38.6251V28.8252Z" fill="#8F9BB2"/>
<path d="M38.6251 31.2749H36.175V33.7249H38.6251V31.2749Z" fill="#8F9BB2"/>
<path d="M38.6251 33.7251H36.175V36.1751H38.6251V33.7251Z" fill="#8F9BB2"/>
<path d="M41.075 28.8252H38.625V31.2752H41.075V28.8252Z" fill="#8F9BB2"/>
<path d="M41.075 31.2749H38.625V33.7249H41.075V31.2749Z" fill="#8F9BB2"/>
<path d="M43.5252 26.375H41.0752V28.825H43.5252V26.375Z" fill="#202020"/>
<path d="M19.025 26.375H16.575V28.825H19.025V26.375Z" fill="#202020"/>
<path d="M26.3751 48.4253H23.925V50.8753H26.3751V48.4253Z" fill="#3F4652"/>
</svg>
