<svg width="300" height="300" viewBox="0 0 300 300" fill="none" xmlns="http://www.w3.org/2000/svg">
<rect width="300" height="300" fill="#FFF0C3"/>
<rect x="82.7998" y="82.8" width="134.4" height="134.4" fill="#4FEAF3"/>
<rect x="169.2" y="188.4" width="48" height="28.8" fill="#00A514"/>
<rect x="82.7998" y="169.2" width="67.2" height="48" fill="#006928"/>
<rect width="57.6" height="9.6" transform="matrix(1 0 0 -1 82.7998 169.2)" fill="#006928"/>
<rect width="38.4" height="9.6" transform="matrix(1 0 0 -1 92.3999 159.6)" fill="#006928"/>
<rect width="28.8" height="9.59999" transform="matrix(1 0 0 -1 188.4 188.4)" fill="#00A514"/>
<rect width="9.6" height="9.6" transform="matrix(1 0 0 -1 111.6 150)" fill="#006928"/>
<rect width="9.6" height="9.59999" transform="matrix(1 0 0 -1 159.6 188.4)" fill="#006928"/>
<rect width="9.6" height="19.2" transform="matrix(1 0 0 -1 159.6 207.6)" fill="#00A514"/>
<rect width="9.59999" height="9.60001" transform="matrix(1 0 0 -1 207.6 178.8)" fill="#00A514"/>
<rect x="130.8" y="92.3999" width="76.8" height="9.6" fill="#FFAF00"/>
<rect x="130.8" y="82.8" width="76.8" height="9.6" fill="#FFD800"/>
<rect x="140.4" y="102" width="57.6" height="9.6" fill="#FF8205"/>
<rect x="150" y="111.6" width="38.4" height="9.6" fill="#FA500F"/>
<path d="M159.602 207.602L159.602 169.2L149.996 169.2L149.996 178.807L140.399 178.807L140.399 188.405L130.801 188.405L130.801 178.807L121.204 178.807L121.204 169.2L111.606 169.2L111.606 207.602L102 207.602L102 217.2L130.801 217.2L130.801 207.602L121.204 207.602L121.204 198.003L130.801 198.003L130.801 207.602L140.399 207.602L140.399 198.003L149.996 198.003L149.996 207.602L140.399 207.602L140.399 217.2L169.2 217.2L169.2 207.602L159.602 207.602Z" fill="#CDDC1E"/>
</svg>
