<svg width="65" height="65" viewBox="0 0 65 65" fill="none" xmlns="http://www.w3.org/2000/svg">
<rect width="65" height="65" rx="2.03125" fill="#F5EBFC"/>
<rect x="0.5" y="0.5" width="64" height="64" rx="1.53125" stroke="black" stroke-opacity="0.15"/>
<path d="M38.6254 28.8256V19.0251H36.1757V21.4758H33.7249V23.9254H31.2752V21.4758H28.8255V19.0251H26.3748V28.8256H23.925V31.2752H31.2752V28.8256H28.8255V26.375H31.2752V28.8256H33.7249V26.375H36.1757V28.8256H33.7249V31.2752H41.0751V28.8256H38.6254Z" fill="#FF92DC"/>
<path d="M43.5253 36.1755V38.6252H38.625V41.0759H36.1754V43.5255H33.7247V31.2751H31.2751V43.5255H28.8255V41.0759H26.3748V38.6252H21.4756V36.1755H19.0249V41.0759H21.4756V43.5255H26.3748V45.9752H38.625V43.5255H43.5253V41.0759H45.975V36.1755H43.5253Z" fill="#00A514"/>
<rect width="2.45" height="2.45" transform="matrix(-4.37114e-08 1 1 4.37114e-08 33.7251 41.0752)" fill="#166C35"/>
<rect width="2.45001" height="2.45001" transform="matrix(-4.37114e-08 1 1 4.37114e-08 38.625 43.5249)" fill="#0E5327"/>
<rect width="2.45001" height="2.45" transform="matrix(-4.37113e-08 1 1 4.37115e-08 41.0752 43.5249)" fill="#0E5327"/>
<rect width="2.45" height="2.45001" transform="matrix(-4.37115e-08 1 1 4.37113e-08 43.5251 41.0752)" fill="#166C35"/>
<rect width="2.45" height="2.45" transform="matrix(-4.37114e-08 1 1 4.37114e-08 19.0249 41.0752)" fill="#166C35"/>
<rect width="2.45001" height="2.45001" transform="matrix(-4.37114e-08 1 1 4.37114e-08 16.575 38.625)" fill="#166C35"/>
<rect width="2.45001" height="2.45" transform="matrix(-4.37113e-08 1 1 4.37115e-08 45.9751 38.625)" fill="#166C35"/>
<rect width="2.45" height="2.45001" transform="matrix(-4.37114e-08 1 1 4.37114e-08 16.575 36.175)" fill="#166C35"/>
<rect width="2.45" height="2.45" transform="matrix(-4.37113e-08 1 1 4.37114e-08 45.9751 36.175)" fill="#166C35"/>
<rect width="2.45001" height="2.45001" transform="matrix(-4.37114e-08 1 1 4.37114e-08 23.925 43.5249)" fill="#0E5327"/>
<rect width="2.45001" height="2.45001" transform="matrix(-4.37114e-08 1 1 4.37114e-08 21.4751 43.5249)" fill="#0E5327"/>
<rect width="2.45001" height="2.45" transform="matrix(-4.37113e-08 1 1 4.37114e-08 26.375 38.625)" fill="#166C35"/>
<rect width="2.45" height="2.45001" transform="matrix(-4.37114e-08 1 1 4.37114e-08 21.4751 36.175)" fill="#166C35"/>
<rect width="2.45" height="2.45001" transform="matrix(-4.37114e-08 1 1 4.37114e-08 23.925 36.175)" fill="#166C35"/>
<rect width="2.45" height="2.45" transform="matrix(-4.37114e-08 1 1 4.37114e-08 19.0249 33.7251)" fill="#166C35"/>
<rect width="2.45001" height="2.45" transform="matrix(-4.37113e-08 1 1 4.37114e-08 36.175 38.625)" fill="#166C35"/>
<rect width="2.45" height="2.45" transform="matrix(-4.37113e-08 1 1 4.37114e-08 41.0752 36.175)" fill="#166C35"/>
<rect width="2.45" height="2.45001" transform="matrix(-4.37114e-08 1 1 4.37114e-08 38.625 36.175)" fill="#166C35"/>
<rect width="2.45" height="2.45001" transform="matrix(-4.37114e-08 1 1 4.37114e-08 43.5251 33.7251)" fill="#166C35"/>
<rect width="9.80002" height="2.45001" transform="matrix(-4.37114e-08 1 1 4.37114e-08 33.7251 31.2751)" fill="#166C35"/>
<rect width="9.80002" height="2.45001" transform="matrix(-4.37114e-08 1 1 4.37114e-08 28.825 31.2751)" fill="#166C35"/>
<rect width="2.45" height="12.25" transform="matrix(-4.37114e-08 1 1 4.37113e-08 26.375 45.9751)" fill="#0E5327"/>
<rect width="2.45" height="2.45" transform="matrix(-4.37114e-08 1 1 4.37114e-08 28.825 41.0752)" fill="#166C35"/>
<rect x="28.825" y="26.375" width="2.45" height="2.45" fill="#69197F"/>
<rect x="26.375" y="16.575" width="2.45" height="2.45001" fill="#9C42B5"/>
<rect x="28.825" y="19.0251" width="2.45" height="2.45" fill="#9C42B5"/>
<rect x="31.2751" y="21.4751" width="2.45001" height="2.45001" fill="#9C42B5"/>
<rect x="33.7251" y="19.0251" width="2.45" height="2.45" fill="#9C42B5"/>
<rect x="36.175" y="16.575" width="2.45" height="2.45001" fill="#9C42B5"/>
<rect x="38.625" y="19.0251" width="2.45001" height="9.80002" fill="#8926A5"/>
<rect x="21.4751" y="28.825" width="2.45001" height="2.45" fill="#69197F"/>
<rect x="41.0752" y="28.825" width="2.45" height="2.45" fill="#69197F"/>
<rect x="23.925" y="19.0251" width="2.45" height="9.80002" fill="#8926A5"/>
<rect x="33.7251" y="26.375" width="2.45" height="2.45" fill="#69197F"/>
<rect x="31.2751" y="28.825" width="2.45001" height="2.45" fill="#69197F"/>
<rect x="23.925" y="31.2751" width="4.90001" height="2.45001" fill="#69197F"/>
<rect x="36.175" y="31.2751" width="4.90001" height="2.45001" fill="#69197F"/>
<rect x="28.825" y="31.2751" width="7.35002" height="2.45001" fill="#0E5327"/>
<rect x="31.2751" y="33.7251" width="2.45001" height="2.45" fill="#9BDB47"/>
<rect x="31.2751" y="36.175" width="2.45001" height="2.45" fill="#58C138"/>
<rect x="19.0249" y="36.175" width="2.45" height="2.45" fill="#58C138"/>
<rect x="43.5251" y="36.175" width="2.45001" height="2.45" fill="#58C138"/>
</svg>
