<svg width="300" height="300" viewBox="0 0 300 300" fill="none" xmlns="http://www.w3.org/2000/svg">
<rect width="300" height="300" fill="#E1FFC7"/>
<path d="M178.796 178.797V140.4H169.201V149.995H159.598V159.598H150.002V149.995H140.399V140.4H130.795V178.797H121.2V188.4H150.002V178.797H140.399V169.201H150.002V178.797H159.598V169.201H169.201V178.797H159.598V188.4H188.4V178.797H178.796Z" fill="#202020"/>
<rect x="102" y="140.4" width="9.6" height="9.6" fill="#0E5327"/>
<rect x="92.3999" y="150" width="9.6" height="9.6" fill="#0E5327"/>
<rect x="140.4" y="217.143" width="9.65698" height="9.60001" transform="rotate(90 140.4 217.143)" fill="#0E5327"/>
<rect x="140.4" y="207.486" width="9.65698" height="9.60001" transform="rotate(90 140.4 207.486)" fill="#149E2F"/>
<rect x="140.4" y="197.886" width="9.60001" height="9.6" transform="rotate(90 140.4 197.886)" fill="#9FDA44"/>
<rect x="140.4" y="188.4" width="9.59999" height="9.6" transform="rotate(90 140.4 188.4)" fill="#9FDA44"/>
<rect x="178.8" y="207.486" width="9.65698" height="9.60001" transform="rotate(90 178.8 207.486)" fill="#149E2F"/>
<rect x="178.8" y="217.143" width="9.65698" height="9.60001" transform="rotate(90 178.8 217.143)" fill="#0E5327"/>
<rect x="178.8" y="197.886" width="9.60001" height="9.6" transform="rotate(90 178.8 197.886)" fill="#9BDB47"/>
<rect x="198" y="207.486" width="9.65698" height="9.60002" transform="rotate(90 198 207.486)" fill="#1D793E"/>
<rect x="178.8" y="188.4" width="9.59999" height="9.6" transform="rotate(90 178.8 188.4)" fill="#9BDB47"/>
<rect x="130.8" y="207.486" width="9.65698" height="9.60001" transform="rotate(90 130.8 207.486)" fill="#149E2F"/>
<rect x="198" y="197.829" width="9.65698" height="9.60002" transform="rotate(90 198 197.829)" fill="#119F2E"/>
<rect x="198" y="217.143" width="9.65698" height="9.60002" transform="rotate(90 198 217.143)" fill="#0E5327"/>
<rect x="121.2" y="207.486" width="9.65698" height="9.60001" transform="rotate(90 121.2 207.486)" fill="#1D793E"/>
<rect x="121.2" y="178.8" width="9.60001" height="9.6" transform="rotate(90 121.2 178.8)" fill="#1D793E"/>
<rect x="111.6" y="169.2" width="9.6" height="9.6" transform="rotate(90 111.6 169.2)" fill="#1D793E"/>
<rect x="150" y="169.2" width="9.6" height="9.60001" transform="rotate(90 150 169.2)" fill="#1D793E"/>
<rect x="159.6" y="178.8" width="9.60001" height="9.6" transform="rotate(90 159.6 178.8)" fill="#1D793E"/>
<rect x="169.2" y="169.2" width="9.6" height="9.6" transform="rotate(90 169.2 169.2)" fill="#1D793E"/>
<rect x="111.6" y="150" width="9.6" height="9.6" transform="rotate(90 111.6 150)" fill="#1D793E"/>
<rect x="198" y="188.4" width="9.59999" height="9.60001" transform="rotate(90 198 188.4)" fill="#58C138"/>
<rect x="207.6" y="178.8" width="9.60001" height="9.59999" transform="rotate(90 207.6 178.8)" fill="#58C138"/>
<rect x="130.8" y="197.886" width="9.60001" height="9.6" transform="rotate(90 130.8 197.886)" fill="#58C138"/>
<rect x="169.2" y="207.486" width="9.65698" height="9.60001" transform="rotate(90 169.2 207.486)" fill="#149E2F"/>
<rect x="130.8" y="217.143" width="9.65698" height="9.60001" transform="rotate(90 130.8 217.143)" fill="#0E5327"/>
<rect x="150" y="207.486" width="9.65698" height="9.60001" transform="rotate(90 150 207.486)" fill="#149E2F"/>
<rect x="121.2" y="197.886" width="9.60001" height="9.6" transform="rotate(90 121.2 197.886)" fill="#119F2E"/>
<rect x="111.6" y="178.8" width="9.60001" height="9.6" transform="rotate(90 111.6 178.8)" fill="#119F2E"/>
<rect x="130.8" y="188.4" width="9.59999" height="9.6" transform="rotate(90 130.8 188.4)" fill="#9BDB47"/>
<rect x="159.6" y="207.486" width="9.65698" height="9.60001" transform="rotate(90 159.6 207.486)" fill="#149E2F"/>
<rect x="169.2" y="197.886" width="9.60001" height="9.6" transform="rotate(90 169.2 197.886)" fill="#9BDB47"/>
<rect x="121.2" y="217.143" width="9.65698" height="9.60001" transform="rotate(90 121.2 217.143)" fill="#0E5327"/>
<rect x="188.4" y="207.486" width="9.65698" height="9.6" transform="rotate(90 188.4 207.486)" fill="#149E2F"/>
<rect x="150" y="197.886" width="9.60001" height="9.6" transform="rotate(90 150 197.886)" fill="#9BDB47"/>
<rect x="121.2" y="188.4" width="9.59999" height="9.6" transform="rotate(90 121.2 188.4)" fill="#119F2E"/>
<rect x="159.6" y="197.886" width="9.60001" height="9.6" transform="rotate(90 159.6 197.886)" fill="#9BDB47"/>
<rect x="188.4" y="197.829" width="9.65698" height="9.6" transform="rotate(90 188.4 197.829)" fill="#58C138"/>
<rect x="102" y="159.6" width="28.8" height="9.6" transform="rotate(90 102 159.6)" fill="#119F2E"/>
<rect x="169.2" y="217.143" width="9.65698" height="9.60001" transform="rotate(90 169.2 217.143)" fill="#0E5327"/>
<rect x="169.2" y="188.4" width="9.59999" height="9.6" transform="rotate(90 169.2 188.4)" fill="#9BDB47"/>
<rect x="207.6" y="198" width="9.60001" height="9.59999" transform="rotate(90 207.6 198)" fill="#1D793E"/>
<rect x="207.6" y="207.6" width="9.60001" height="9.59999" transform="rotate(90 207.6 207.6)" fill="#0E5327"/>
<rect x="150" y="217.143" width="9.65698" height="9.60001" transform="rotate(90 150 217.143)" fill="#0E5327"/>
<rect x="150" y="188.4" width="9.59999" height="9.60001" transform="rotate(90 150 188.4)" fill="#9BDB47"/>
<rect x="159.6" y="217.143" width="9.65698" height="9.60001" transform="rotate(90 159.6 217.143)" fill="#0E5327"/>
<rect x="159.6" y="188.4" width="9.59999" height="9.6" transform="rotate(90 159.6 188.4)" fill="#9BDB47"/>
<rect x="188.4" y="217.143" width="9.65698" height="9.6" transform="rotate(90 188.4 217.143)" fill="#0E5327"/>
<rect x="188.4" y="188.4" width="9.59999" height="9.6" transform="rotate(90 188.4 188.4)" fill="#9BDB47"/>
<rect x="198" y="178.8" width="9.60001" height="9.60001" transform="rotate(90 198 178.8)" fill="#9BDB47"/>
<rect x="82.7998" y="159.6" width="9.6" height="38.4" fill="#0E5327"/>
<rect x="207.6" y="188.4" width="9.59999" height="9.59999" transform="rotate(90 207.6 188.4)" fill="#14A030"/>
<rect x="217.2" y="188.4" width="9.59999" height="9.60001" transform="rotate(90 217.2 188.4)" fill="#1E7A3D"/>
<rect x="207.6" y="149.544" width="9.65697" height="9.60001" transform="rotate(90 207.6 149.544)" fill="#1D793E"/>
<rect x="207.6" y="150" width="9.6" height="9.59999" transform="rotate(90 207.6 150)" fill="#1D793E"/>
<rect x="198" y="130.8" width="9.60001" height="9.60001" transform="rotate(90 198 130.8)" fill="#1D793E"/>
<rect x="217.2" y="159.6" width="28.8" height="9.60001" transform="rotate(90 217.2 159.6)" fill="#149E2E"/>
<rect x="121.2" y="140.4" width="28.8" height="9.6" transform="rotate(90 121.2 140.4)" fill="#58C138"/>
<rect x="188.4" y="140.4" width="39.6" height="9.6" transform="rotate(90 188.4 140.4)" fill="#149E2E"/>
<rect x="130.8" y="140.4" width="38.4" height="9.6" transform="rotate(90 130.8 140.4)" fill="#149E2E"/>
<rect x="207.6" y="159.6" width="20.4" height="9.59999" transform="rotate(90 207.6 159.6)" fill="#9BDC44"/>
<rect x="217.2" y="198" width="9.60001" height="9.60001" transform="rotate(90 217.2 198)" fill="#0E5327"/>
<rect x="226.8" y="159.6" width="38.4" height="9.59999" transform="rotate(90 226.8 159.6)" fill="#0E5327"/>
<rect x="217.2" y="150" width="9.6" height="9.60001" transform="rotate(90 217.2 150)" fill="#0E5327"/>
<rect x="207.6" y="130.8" width="19.2" height="9.59999" transform="rotate(90 207.6 130.8)" fill="#0E5327"/>
<rect x="198" y="140.4" width="9.6" height="9.60001" transform="rotate(90 198 140.4)" fill="#0E5327"/>
<rect x="188.4" y="130.8" width="9.60001" height="9.6" transform="rotate(90 188.4 130.8)" fill="#0E5327"/>
<rect x="178.8" y="130.8" width="9.60001" height="9.6" transform="rotate(90 178.8 130.8)" fill="#1F793E"/>
<rect x="169.2" y="130.8" width="9.60001" height="9.6" transform="rotate(90 169.2 130.8)" fill="#9BDC44"/>
<rect x="169.2" y="140.4" width="9.6" height="9.6" transform="rotate(90 169.2 140.4)" fill="#149E2F"/>
<rect x="159.6" y="130.8" width="9.60001" height="9.6" transform="rotate(90 159.6 130.8)" fill="#9BDC44"/>
<rect x="159.6" y="140.4" width="9.6" height="9.6" transform="rotate(90 159.6 140.4)" fill="#149E2F"/>
<rect x="159.6" y="150" width="9.6" height="9.6" transform="rotate(90 159.6 150)" fill="#149E2F"/>
<rect x="150" y="130.8" width="9.60001" height="9.60001" transform="rotate(90 150 130.8)" fill="#9BDC44"/>
<rect x="150" y="140.4" width="9.6" height="9.60001" transform="rotate(90 150 140.4)" fill="#149E2F"/>
<rect x="140.4" y="130.8" width="9.60001" height="9.6" transform="rotate(90 140.4 130.8)" fill="#9BDC44"/>
<rect x="198" y="121.2" width="9.6" height="9.60001" transform="rotate(90 198 121.2)" fill="#0E5327"/>
<rect x="188.4" y="111.6" width="9.6" height="9.6" transform="rotate(90 188.4 111.6)" fill="#0E5327"/>
<rect x="188.4" y="102" width="9.6" height="9.6" transform="rotate(90 188.4 102)" fill="#177B3E"/>
<rect x="178.8" y="92.5708" width="9.65698" height="9.60001" transform="rotate(90 178.8 92.5708)" fill="#177B3E"/>
<rect x="169.2" y="82.7998" width="9.6" height="9.6" transform="rotate(90 169.2 82.7998)" fill="#177B3E"/>
<rect x="159.6" y="73.2" width="9.6" height="9.6" transform="rotate(90 159.6 73.2)" fill="#177B3E"/>
<rect x="150" y="63.6567" width="9.6" height="9.6" transform="rotate(90 150 63.6567)" fill="#149E2F"/>
<rect x="140.4" y="63.6567" width="9.6" height="9.60001" transform="rotate(90 140.4 63.6567)" fill="#149E2F"/>
<rect x="130.8" y="63.6567" width="9.6" height="9.6" transform="rotate(90 130.8 63.6567)" fill="#149E2F"/>
<rect x="121.2" y="63.6567" width="9.6" height="9.6" transform="rotate(90 121.2 63.6567)" fill="#149E2F"/>
<rect x="121.2" y="73.2568" width="9.6" height="9.6" transform="rotate(90 121.2 73.2568)" fill="#9FDA44"/>
<rect x="111.6" y="82.7998" width="9.6" height="9.6" transform="rotate(90 111.6 82.7998)" fill="#9FDA44"/>
<rect x="121.2" y="102" width="9.6" height="9.6" transform="rotate(90 121.2 102)" fill="#5DC139"/>
<rect x="130.8" y="102" width="9.6" height="9.6" transform="rotate(90 130.8 102)" fill="#177B3E"/>
<rect x="159.6" y="102" width="9.6" height="9.6" transform="rotate(90 159.6 102)" fill="#177B3E"/>
<rect x="159.6" y="121.057" width="10.1398" height="9.60001" transform="rotate(90 159.6 121.057)" fill="#149E2E"/>
<rect x="130.8" y="92.3999" width="9.6" height="28.8" transform="rotate(90 130.8 92.3999)" fill="#58C138"/>
<rect x="159.6" y="92.3999" width="9.6" height="28.8" transform="rotate(90 159.6 92.3999)" fill="#149E2F"/>
<rect x="130.8" y="73.2568" width="9.6" height="9.6" transform="rotate(90 130.8 73.2568)" fill="#9FDA44"/>
<rect x="130.8" y="82.7998" width="9.6" height="9.6" transform="rotate(90 130.8 82.7998)" fill="#9FDA44"/>
<rect x="140.4" y="73.2568" width="9.6" height="9.6" transform="rotate(90 140.4 73.2568)" fill="#9FDA44"/>
<rect x="150" y="73.2568" width="9.6" height="9.6" transform="rotate(90 150 73.2568)" fill="#9FDA44"/>
<rect x="150" y="82.7998" width="9.6" height="9.6" transform="rotate(90 150 82.7998)" fill="#58C139"/>
<rect x="159.6" y="82.7998" width="9.6" height="9.6" transform="rotate(90 159.6 82.7998)" fill="#9FDA44"/>
<rect x="169.2" y="92.3999" width="9.6" height="9.6" transform="rotate(90 169.2 92.3999)" fill="#9FDA44"/>
<rect x="178.8" y="102.228" width="28.9709" height="9.60001" transform="rotate(90 178.8 102.228)" fill="#9FDA44"/>
<rect x="169.2" y="102" width="28.8" height="9.6" transform="rotate(90 169.2 102)" fill="#58C138"/>
<rect x="111.6" y="73.2568" width="9.65698" height="9.60001" transform="rotate(90 111.6 73.2568)" fill="#149E2F"/>
<rect x="121.2" y="82.7998" width="9.6" height="9.6" transform="rotate(90 121.2 82.7998)" fill="#DF3F20"/>
<rect x="92.3999" y="111.6" width="9.65698" height="9.60001" transform="rotate(90 92.3999 111.6)" fill="#DF3F20"/>
<rect x="102" y="102" width="9.6" height="9.6" transform="rotate(90 102 102)" fill="#DF3F20"/>
<rect x="111.6" y="102" width="9.6" height="9.6" transform="rotate(90 111.6 102)" fill="#B5202C"/>
<rect x="140.4" y="82.7998" width="9.6" height="9.6" transform="rotate(90 140.4 82.7998)" fill="#DF3F20"/>
<rect x="102" y="82.7998" width="9.6" height="9.6" transform="rotate(90 102 82.7998)" fill="#177B3E"/>
<rect x="102" y="92.3999" width="9.6" height="9.6" transform="rotate(90 102 92.3999)" fill="#177B3E"/>
<rect x="92.3999" y="102" width="9.6" height="9.6" transform="rotate(90 92.3999 102)" fill="#177B3E"/>
<rect x="82.7998" y="111.6" width="9.65698" height="9.60001" transform="rotate(90 82.7998 111.6)" fill="#177B3E"/>
<rect x="92.3999" y="121.2" width="9.65698" height="9.60001" transform="rotate(90 92.3999 121.2)" fill="#0E5327"/>
<rect x="102" y="111.6" width="9.6" height="9.6" transform="rotate(90 102 111.6)" fill="#0E5327"/>
<rect x="111.6" y="111.6" width="9.6" height="9.6" transform="rotate(90 111.6 111.6)" fill="#0E5327"/>
<rect x="121.2" y="111.6" width="9.6" height="9.6" transform="rotate(90 121.2 111.6)" fill="#0E5327"/>
<rect x="121.2" y="130.8" width="9.60001" height="9.6" transform="rotate(90 121.2 130.8)" fill="#0E5327"/>
<rect x="130.8" y="111.6" width="9.6" height="9.6" transform="rotate(90 130.8 111.6)" fill="#0E5327"/>
<rect x="130.8" y="130.8" width="9.60001" height="9.6" transform="rotate(90 130.8 130.8)" fill="#0E5327"/>
<rect x="198" y="150" width="9.6" height="9.60001" transform="rotate(90 198 150)" fill="#0E5327"/>
<rect x="198" y="159.6" width="10.8" height="9.60001" transform="rotate(90 198 159.6)" fill="#0E5327"/>
<rect x="102" y="197.829" width="9.60001" height="9.65698" fill="#1D793E"/>
<rect x="102" y="207.486" width="9.60001" height="9.65698" fill="#0E5327"/>
<rect x="198" y="170.4" width="9.6" height="9.60001" transform="rotate(90 198 170.4)" fill="#0E5327"/>
<rect x="121.2" y="169.2" width="9.6" height="9.6" transform="rotate(90 121.2 169.2)" fill="#0E5327"/>
<rect x="111.6" y="159.6" width="9.6" height="9.6" transform="rotate(90 111.6 159.6)" fill="#0E5327"/>
<rect x="140.4" y="102" width="9.6" height="9.6" transform="rotate(90 140.4 102)" fill="#0E5327"/>
<rect x="150" y="102" width="9.6" height="9.6" transform="rotate(90 150 102)" fill="#0E5327"/>
<rect x="159.6" y="111.6" width="9.6" height="9.6" transform="rotate(90 159.6 111.6)" fill="#0E5327"/>
<rect x="150" y="121.542" width="9.65697" height="9.60001" transform="rotate(90 150 121.542)" fill="#0E5327"/>
<rect x="140.4" y="121.542" width="9.65697" height="9.60001" transform="rotate(90 140.4 121.542)" fill="#0E5327"/>
<rect x="188.4" y="121.2" width="9.6" height="9.6" transform="rotate(90 188.4 121.2)" fill="#0E5327"/>
<rect x="92.3999" y="197.829" width="9.60001" height="9.65698" fill="#0E5327"/>
<rect x="102" y="188.172" width="9.60001" height="10.1398" fill="#1D793E"/>
<rect x="92.3999" y="188.172" width="9.60001" height="9.65698" fill="#1D793E"/>
</svg>
