<svg width="300" height="300" viewBox="0 0 300 300" fill="none" xmlns="http://www.w3.org/2000/svg">
<rect width="300" height="300" fill="#FFF0C3"/>
<g clip-path="url(#clip0_620_28630)">
<path d="M126.006 166.002H118.003V173.998H134.003V166.002H126.006Z" fill="#66331A"/>
<path d="M166.009 166.002H158.006V173.998H166.009V166.002Z" fill="#66331A"/>
<path d="M174.003 166H166V173.997H174.003V166Z" fill="#66331A"/>
<path d="M174.003 150H166V157.997H174.003V150Z" fill="#90320E"/>
<path d="M190.005 166.002H182.001V173.998H190.005V166.002Z" fill="#90320E"/>
<path d="M190.005 125.998H182.001V134.001H190.005V125.998Z" fill="#D94209"/>
<path d="M198.006 134.001H190.003V166H198.006V134.001Z" fill="#B83808"/>
<path d="M182.007 133.997H174.004V142H182.007V133.997Z" fill="#D94209"/>
<path d="M174.002 125.998H165.999V134.001H174.002V125.998Z" fill="#D94209"/>
<path d="M166.009 117.995H158.006V125.998H166.009V117.995Z" fill="#D94209"/>
<path d="M150.001 118.003H158.005V110H134.001V118.003H150.001Z" fill="#D94209"/>
<path d="M134.003 117.995H118.003V125.998H134.003V117.995Z" fill="#D94209"/>
<path d="M118.005 125.998H110.001V134.001H118.005V125.998Z" fill="#D94209"/>
<path d="M110.003 141.998V134.001H102V157.997H110.003V141.998Z" fill="#B83808"/>
<path d="M126.006 141.996H118.003V149.999H126.006V141.996Z" fill="#202020"/>
<path d="M142.005 173.997H134.001V182H158.005V173.997H142.005Z" fill="#66331A"/>
<path d="M178.002 158H174V166H182V158H178.002Z" fill="#90320E"/>
<path d="M118.005 157.999H110.001V165.995H118.005V157.999Z" fill="#90320E"/>
<path d="M182 133.994V141.991H173.997V133.994H165.994V125.991H157.997V117.995H133.994V125.991H117.994V133.994H109.997V157.996H117.994V165.999H133.994V173.996H157.997V165.999H165.994V157.996H181.994V165.999H189.991V134H181.994L182 133.994ZM118 141.997H126.003V150H118V141.997Z" fill="#FF8205"/>
<path d="M166.003 157.997V125.998H158.006V133.995H150.003V141.997H142.006V133.995H134.003V125.998H126V157.997H118.003V165.999H142.006V157.997H134.003V150H142.006V157.997H150.003V150H158.006V157.997H150.003V165.999H174.006V157.997H166.003Z" fill="white"/>
</g>
<defs>
<clipPath id="clip0_620_28630">
<rect width="96" height="72" fill="white" transform="translate(102 110)"/>
</clipPath>
</defs>
</svg>
