<svg width="142" height="142" viewBox="0 0 142 142" fill="none" xmlns="http://www.w3.org/2000/svg">
<rect y="14.041" width="128" height="128" rx="4" transform="rotate(-6.29772 0 14.041)" fill="#E3F2FD"/>
<rect x="0.519369" y="14.4571" width="127.059" height="127.059" rx="3.52941" transform="rotate(-6.29772 0.519369 14.4571)" stroke="black" stroke-opacity="0.15" stroke-width="0.941176"/>
<g clip-path="url(#clip0_624_30280)">
<path d="M56.2574 59.8583L36.7158 62.0149L38.0637 74.2287L70.634 70.6343L69.2861 58.4204L56.2574 59.8583Z" fill="#0082E6"/>
<path d="M97.1392 71.8299L87.3684 72.9082L88.267 81.0508L104.552 79.2535L103.654 71.111L97.1392 71.8299Z" fill="#0082E6"/>
<path d="M65.7475 71.1737L33.9924 74.6782L35.3404 86.8921L88.267 81.051L86.9191 68.8372L65.7475 71.1737Z" fill="#0082E6"/>
<path d="M67.4612 79.2255L65.664 62.9411L61.5943 63.3902L62.0434 67.4598L57.9706 67.9092L58.42 71.9819L54.3503 72.4311L53.9009 68.3584L49.828 68.8079L49.3789 64.7383L45.306 65.1878L47.1032 81.4723L43.0335 81.9214L43.483 85.9941L55.6984 84.646L55.2489 80.5733L51.1761 81.0228L50.7269 76.9533L54.7998 76.5038L55.2489 80.5733L59.3186 80.1241L58.8695 76.0546L62.9424 75.6051L63.3915 79.6747L59.3186 80.1241L59.7681 84.1968L71.9835 82.8487L71.5341 78.776L67.4612 79.2255Z" fill="white"/>
<path d="M79.3089 82.0397L35.3403 86.8921L35.7896 90.9634L109.073 82.8758L108.623 78.8045L79.3089 82.0397Z" fill="#66331A"/>
<path d="M38.2323 90.6936L35.7896 90.9631L36.2389 95.0344L40.3101 94.5851L39.8608 90.5138L38.2323 90.6936Z" fill="#E92700"/>
<path d="M38.6817 94.7648L36.239 95.0344L36.6883 99.1057L40.7596 98.6564L40.3103 94.5851L38.6817 94.7648Z" fill="#202020"/>
<path d="M107.444 83.0554L105.001 83.325L105.451 87.3962L109.522 86.9469L109.073 82.8756L107.444 83.0554Z" fill="#202020"/>
<path d="M78.9443 86.2007L39.8611 90.5139L40.3104 94.5852L105.451 87.3962L105.002 83.325L78.9443 86.2007Z" fill="white"/>
<path d="M79.3935 90.272L40.3103 94.5852L40.7596 98.6565L105.9 91.4675L105.451 87.3963L79.3935 90.272Z" fill="#202020"/>
<path d="M102.025 71.2907L99.5823 71.5603L100.032 75.6316L104.103 75.1823L103.654 71.111L102.025 71.2907Z" fill="#323796"/>
<path d="M106.096 70.8415L103.654 71.1111L104.103 75.1824L108.174 74.7331L107.725 70.6618L106.096 70.8415Z" fill="#323796"/>
<path d="M102.474 75.362L100.031 75.6316L100.481 79.7029L104.552 79.2536L104.103 75.1823L102.474 75.362Z" fill="#0082E6"/>
<path d="M106.545 74.9128L104.103 75.1824L104.552 79.2537L108.623 78.8043L108.174 74.7331L106.545 74.9128Z" fill="#0082E6"/>
<path d="M76.2493 61.7729L73.8066 62.0425L74.256 66.1138L78.3272 65.6645L77.8779 61.5932L76.2493 61.7729Z" fill="#323796"/>
<path d="M67.6575 58.6003L65.2148 58.8699L65.6642 62.9412L69.7354 62.4918L69.2861 58.4206L67.6575 58.6003Z" fill="#323796"/>
<path d="M63.1368 54.9782L60.6941 55.2478L61.1434 59.3191L65.2147 58.8698L64.7654 54.7985L63.1368 54.9782Z" fill="#323796"/>
<path d="M58.6417 51.3535L56.199 51.623L56.6483 55.6943L60.7196 55.245L60.2703 51.1737L58.6417 51.3535Z" fill="#323796"/>
<path d="M54.1209 47.7314L51.6782 48.001L52.1275 52.0723L56.1988 51.6229L55.7495 47.5517L54.1209 47.7314Z" fill="#323796"/>
<path d="M53.6717 43.6601L51.229 43.9297L51.6783 48.001L55.7496 47.5517L55.3003 43.4804L53.6717 43.6601Z" fill="#323796"/>
<path d="M49.6004 44.1096L47.1577 44.3792L47.607 48.4504L51.6783 48.0011L51.229 43.9298L49.6004 44.1096Z" fill="#0082E6"/>
<path d="M50.0496 48.1809L47.6069 48.4504L48.0562 52.5217L52.1275 52.0724L51.6782 48.0011L50.0496 48.1809Z" fill="#0082E6"/>
<path d="M50.4991 52.2522L48.0564 52.5217L48.5057 56.593L52.577 56.1437L52.1277 52.0724L50.4991 52.2522Z" fill="#0082E6"/>
<path d="M50.9232 56.3261L48.4805 56.5957L48.9298 60.667L53.0011 60.2177L52.5518 56.1464L50.9232 56.3261Z" fill="#0082E6"/>
<path d="M59.0655 55.4274L56.6228 55.697L57.0721 59.7683L61.1434 59.319L60.6941 55.2477L59.0655 55.4274Z" fill="#0082E6"/>
<path d="M56.3424 68.0908L53.8997 68.3604L54.349 72.4316L58.4202 71.9823L57.9709 67.911L56.3424 68.0908Z" fill="#005EA6"/>
<path d="M51.8216 64.4687L49.3789 64.7383L49.8282 68.8096L53.8995 68.3603L53.4502 64.289L51.8216 64.4687Z" fill="#005EA6"/>
<path d="M59.9642 63.57L57.5215 63.8396L57.9708 67.9109L62.0421 67.4616L61.5928 63.3903L59.9642 63.57Z" fill="#005EA6"/>
<path d="M53.1695 76.6826L50.7268 76.9521L51.1761 81.0234L55.2474 80.5741L54.7981 76.5028L53.1695 76.6826Z" fill="#005EA6"/>
<path d="M57.6903 80.3044L55.2476 80.574L55.6969 84.6453L59.7682 84.196L59.3188 80.1247L57.6903 80.3044Z" fill="#005EA6"/>
<path d="M61.3121 75.7839L58.8694 76.0535L59.3187 80.1247L63.39 79.6754L62.9407 75.6042L61.3121 75.7839Z" fill="#005EA6"/>
<path d="M69.4547 74.8852L67.012 75.1548L67.4613 79.2261L71.5326 78.7768L71.0832 74.7055L69.4547 74.8852Z" fill="#005EA6"/>
<path d="M45.0269 77.5813L42.5842 77.8508L43.0335 81.9221L47.1048 81.4728L46.6555 77.4015L45.0269 77.5813Z" fill="#005EA6"/>
<path d="M63.5863 59.0495L61.1436 59.3191L61.5929 63.3904L65.6641 62.9411L65.2148 58.8698L63.5863 59.0495Z" fill="#0082E6"/>
<path d="M76.6988 65.8442L74.2561 66.1138L74.7054 70.1851L78.7767 69.7357L78.3274 65.6645L76.6988 65.8442Z" fill="#0082E6"/>
<path d="M97.9537 71.7402L95.511 72.0098L95.9603 76.081L100.032 75.6317L99.5823 71.5605L97.9537 71.7402Z" fill="#0082E6"/>
<path d="M72.6273 66.2934L70.1846 66.563L70.6339 70.6343L74.7052 70.185L74.2559 66.1137L72.6273 66.2934Z" fill="#0082E6"/>
<path d="M81.2193 69.4663L78.7766 69.7358L79.2259 73.8071L83.2972 73.3578L82.8479 69.2865L81.2193 69.4663Z" fill="#0082E6"/>
<path d="M80.7698 65.3947L78.3271 65.6643L78.7765 69.7356L82.8477 69.2863L82.3984 65.215L80.7698 65.3947Z" fill="#323796"/>
<path d="M89.3619 68.5676L86.9192 68.8372L87.3685 72.9084L91.4398 72.4591L90.9905 68.3878L89.3619 68.5676Z" fill="#323796"/>
<path d="M85.2906 69.0168L82.8479 69.2864L83.2972 73.3577L87.3685 72.9083L86.9192 68.8371L85.2906 69.0168Z" fill="#0082E6"/>
<path d="M84.8411 64.9455L82.3984 65.2151L82.8477 69.2864L86.919 68.8371L86.4697 64.7658L84.8411 64.9455Z" fill="#323796"/>
<path d="M93.4332 68.1181L90.9905 68.3877L91.4398 72.459L95.5111 72.0097L95.0618 67.9384L93.4332 68.1181Z" fill="#323796"/>
<path d="M97.5042 67.6689L95.0615 67.9385L95.5108 72.0098L99.5821 71.5604L99.1328 67.4892L97.5042 67.6689Z" fill="#323796"/>
<path d="M93.8824 72.1894L91.4397 72.459L91.889 76.5303L95.9603 76.081L95.511 72.0097L93.8824 72.1894Z" fill="#0082E6"/>
<path d="M54.9942 55.8769L52.5515 56.1465L53.0008 60.2178L57.0721 59.7685L56.6228 55.6972L54.9942 55.8769Z" fill="#202020"/>
<path d="M68.1068 62.6713L65.6641 62.9409L66.1134 67.0122L70.1847 66.5629L69.7353 62.4916L68.1068 62.6713Z" fill="#202020"/>
<path d="M81.2193 69.4663L78.7766 69.7358L79.2259 73.8071L83.2972 73.3578L82.8479 69.2865L81.2193 69.4663Z" fill="#202020"/>
<path d="M89.8111 72.6386L87.3684 72.9082L87.8177 76.9795L91.889 76.5302L91.4397 72.4589L89.8111 72.6386Z" fill="#202020"/>
<path d="M72.1781 62.2221L69.7354 62.4917L70.1847 66.563L74.2559 66.1137L73.8066 62.0424L72.1781 62.2221Z" fill="#323796"/>
<path d="M46.4278 52.7014L43.9851 52.9709L44.4344 57.0422L48.5057 56.5929L48.0564 52.5216L46.4278 52.7014Z" fill="#0082E6"/>
<path d="M54.5701 51.8027L52.1274 52.0723L52.5768 56.1435L56.648 55.6942L56.1987 51.623L54.5701 51.8027Z" fill="#0082E6"/>
<path d="M49.1512 40.0383L46.7085 40.3079L47.1578 44.3791L51.2291 43.9298L50.7798 39.8586L49.1512 40.0383Z" fill="#005EA6"/>
<path d="M45.5291 44.5588L43.0864 44.8284L43.5357 48.8997L47.607 48.4503L47.1577 44.3791L45.5291 44.5588Z" fill="#005EA6"/>
<path d="M45.9783 48.6301L43.5356 48.8997L43.985 52.9709L48.0562 52.5216L47.6069 48.4503L45.9783 48.6301Z" fill="#005EA6"/>
<path d="M42.3565 53.1508L39.9138 53.4204L40.3631 57.4917L44.4344 57.0424L43.9851 52.9711L42.3565 53.1508Z" fill="#0082E6"/>
<path d="M46.8516 56.7753L44.4089 57.0449L44.8582 61.1162L48.9295 60.6669L48.4802 56.5956L46.8516 56.7753Z" fill="#0082E6"/>
<path d="M38.2852 53.6001L35.8425 53.8696L36.2918 57.9409L40.3631 57.4916L39.9138 53.4203L38.2852 53.6001Z" fill="#0082E6"/>
<path d="M42.7803 57.2248L40.3376 57.4944L40.787 61.5657L44.8582 61.1164L44.4089 57.0451L42.7803 57.2248Z" fill="#0082E6"/>
<path d="M34.2139 54.0493L31.7712 54.3188L32.2205 58.3901L36.2918 57.9408L35.8425 53.8695L34.2139 54.0493Z" fill="#005EA6"/>
<path d="M39.1585 61.7453L36.7158 62.0149L37.1651 66.0862L41.2364 65.6369L40.7871 61.5656L39.1585 61.7453Z" fill="#005EA6"/>
<path d="M40.0572 69.8879L37.6145 70.1575L38.0638 74.2288L42.1351 73.7794L41.6858 69.7082L40.0572 69.8879Z" fill="#005EA6"/>
<path d="M36.8844 78.4797L34.4417 78.7493L34.891 82.8205L38.9622 82.3712L38.5129 78.3L36.8844 78.4797Z" fill="#005EA6"/>
<path d="M33.7645 49.978L31.3218 50.2476L31.7711 54.3188L35.8424 53.8695L35.3931 49.7982L33.7645 49.978Z" fill="#005EA6"/>
<path d="M38.7093 57.674L36.2666 57.9436L36.7159 62.0149L40.7872 61.5656L40.3379 57.4943L38.7093 57.674Z" fill="#005EA6"/>
<path d="M39.6077 65.8166L37.165 66.0862L37.6143 70.1575L41.6856 69.7082L41.2363 65.6369L39.6077 65.8166Z" fill="#005EA6"/>
<path d="M36.4351 74.4086L33.9924 74.6782L34.4417 78.7495L38.513 78.3002L38.0637 74.2289L36.4351 74.4086Z" fill="#005EA6"/>
<path d="M37.3338 82.551L34.8911 82.8206L35.3404 86.8918L39.4117 86.4425L38.9624 82.3712L37.3338 82.551Z" fill="#005EA6"/>
<path d="M76.2116 86.5023L75.9207 86.5344L75.63 86.5665L75.3392 86.5986L75.0483 86.6307L74.7575 86.6628L74.4668 86.6948L74.1759 86.7269L73.8851 86.759L73.5944 86.7911L73.3035 86.8232L73.0127 86.8553L72.7219 86.8874L72.4311 86.9195L72.1403 86.9516L71.8495 86.9837L71.5587 87.0158L71.2679 87.0479L70.9771 87.08L70.6862 87.1121L70.3955 87.1442L70.1047 87.1762L69.8138 87.2083L69.5231 87.2404L69.2323 87.2725L68.9414 87.3046L68.6506 87.3367L68.3599 87.3688L68.069 87.4009L67.7782 87.433L67.4875 87.4651L67.1966 87.4972L66.9058 87.5293L66.6149 87.5614L66.3242 87.5935L66.0334 87.6256L65.7425 87.6577L65.4518 87.6897L65.161 87.7218L64.8701 87.7539L64.5793 87.786L64.2886 87.8181L64.7379 91.8894L65.0286 91.8573L65.3194 91.8252L65.6103 91.7931L65.9011 91.761L66.1918 91.7289L66.4827 91.6968L66.7735 91.6647L67.0642 91.6327L67.3551 91.6006L67.6459 91.5685L67.9368 91.5364L68.2275 91.5043L68.5183 91.4722L68.8092 91.4401L69.0999 91.408L69.3907 91.3759L69.6816 91.3438L69.9724 91.3117L70.2631 91.2796L70.554 91.2475L70.8448 91.2154L71.1355 91.1834L71.4264 91.1513L71.7172 91.1192L72.008 91.0871L72.2988 91.055L72.5896 91.0229L72.8804 90.9908L73.1712 90.9587L73.462 90.9266L73.7528 90.8945L74.0437 90.8624L74.3344 90.8303L74.6252 90.7982L74.9161 90.7661L75.2068 90.734L75.4976 90.7019L75.7885 90.6698L76.0793 90.6378L76.37 90.6057L76.6609 90.5736L76.9517 90.5415L76.5024 86.4702L76.2116 86.5023Z" fill="#FFAF00"/>
<path d="M63.998 87.8502L63.7071 87.8823L63.4164 87.9144L63.1256 87.9465L62.8347 87.9786L62.5439 88.0107L62.2532 88.0427L61.9623 88.0748L61.6715 88.1069L61.3808 88.139L61.0899 88.1711L60.7991 88.2032L60.5082 88.2353L60.2175 88.2674L59.9267 88.2995L59.6358 88.3316L59.3451 88.3637L59.0543 88.3958L58.7634 88.4279L58.4726 88.46L58.1819 88.4921L57.891 88.5241L57.6002 88.5562L57.3095 88.5883L57.0186 88.6204L56.7278 88.6525L56.437 88.6846L56.1462 88.7167L55.8554 88.7488L55.5646 88.7809L55.2738 88.813L54.983 88.8451L54.6922 88.8772L54.4013 88.9093L54.1106 88.9414L53.8198 88.9735L53.5289 89.0056L53.2382 89.0376L52.9474 89.0697L52.6565 89.1018L52.3657 89.1339L52.075 89.166L52.5243 93.2373L52.815 93.2052L53.1058 93.1731L53.3967 93.141L53.6875 93.1089L53.9782 93.0768L54.2691 93.0447L54.5599 93.0126L54.8506 92.9806L55.1415 92.9485L55.4323 92.9164L55.7231 92.8843L56.0139 92.8522L56.3047 92.8201L56.5955 92.788L56.8863 92.7559L57.1771 92.7238L57.4679 92.6917L57.7588 92.6596L58.0495 92.6275L58.3403 92.5954L58.6312 92.5633L58.9219 92.5313L59.2127 92.4992L59.5036 92.4671L59.7944 92.435L60.0851 92.4029L60.376 92.3708L60.6668 92.3387L60.9575 92.3066L61.2484 92.2745L61.5392 92.2424L61.8301 92.2103L62.1208 92.1782L62.4116 92.1461L62.7025 92.114L62.9932 92.0819L63.284 92.0498L63.5749 92.0177L63.8657 91.9857L64.1564 91.9536L64.4473 91.9215L64.7381 91.8894L64.2888 87.8181L63.998 87.8502Z" fill="#FF8205"/>
<path d="M51.7841 89.1981L51.4932 89.2302L51.2025 89.2623L50.9117 89.2944L50.6208 89.3265L50.33 89.3586L50.0393 89.3906L49.7484 89.4227L49.4576 89.4548L49.1669 89.4869L48.876 89.519L48.5852 89.5511L48.2944 89.5832L48.0036 89.6153L47.7128 89.6474L47.422 89.6795L47.1312 89.7116L46.8404 89.7437L46.5496 89.7758L46.2587 89.8079L45.968 89.84L45.6772 89.872L45.3863 89.9041L45.0956 89.9362L44.8048 89.9683L44.5139 90.0004L44.2231 90.0325L43.9324 90.0646L43.6415 90.0967L43.3507 90.1288L43.06 90.1609L42.7691 90.193L42.4783 90.2251L42.1874 90.2572L41.8967 90.2893L41.6059 90.3214L41.315 90.3535L41.0243 90.3855L40.7335 90.4176L40.4426 90.4497L40.1518 90.4818L39.8611 90.5139L40.3104 94.5852L40.6011 94.5531L40.892 94.521L41.1828 94.4889L41.4736 94.4568L41.7644 94.4247L42.0552 94.3926L42.346 94.3605L42.6368 94.3285L42.9276 94.2964L43.2184 94.2643L43.5093 94.2322L43.8 94.2001L44.0908 94.168L44.3817 94.1359L44.6724 94.1038L44.9632 94.0717L45.2541 94.0396L45.5449 94.0075L45.8356 93.9754L46.1265 93.9433L46.4173 93.9112L46.708 93.8792L46.9989 93.8471L47.2897 93.815L47.5806 93.7829L47.8713 93.7508L48.1621 93.7187L48.453 93.6866L48.7437 93.6545L49.0345 93.6224L49.3254 93.5903L49.6162 93.5582L49.9069 93.5261L50.1978 93.494L50.4886 93.4619L50.7793 93.4298L51.0702 93.3977L51.361 93.3656L51.6518 93.3336L51.9426 93.3015L52.2334 93.2694L52.5242 93.2373L52.0749 89.166L51.7841 89.1981Z" fill="#FA500F"/>
</g>
<defs>
<clipPath id="clip0_624_30280">
<rect width="81.92" height="81.92" fill="white" transform="translate(25.4282 34.4146) rotate(-6.29772)"/>
</clipPath>
</defs>
</svg>
