<svg width="300" height="300" viewBox="0 0 300 300" fill="none" xmlns="http://www.w3.org/2000/svg">
<rect width="300" height="300" fill="#FFF0C3"/>
<path d="M119.279 121.2H73.2002V150H150V121.2H119.279Z" fill="#0082E6"/>
<path d="M211.439 159.6H188.4V178.8H226.8V159.6H211.439Z" fill="#0082E6"/>
<path d="M138.478 150H63.6001V178.8H188.4V150H138.478Z" fill="#0082E6"/>
<path d="M140.4 169.198V130.8H130.804V140.396H121.2V149.999H111.604V140.396H102V130.8H92.3961V169.198H82.7998V178.802H111.604V169.198H102V159.603H111.604V169.198H121.2V159.603H130.804V169.198H121.2V178.802H150.004V169.198H140.4Z" fill="white"/>
<path d="M167.277 178.8H63.6001V188.4H236.4V178.8H167.277Z" fill="#66331A"/>
<path d="M69.3599 188.4H63.6001V198H73.2001V188.4H69.3599Z" fill="#E92700"/>
<path d="M69.3599 198H63.6001V207.6H73.2001V198H69.3599Z" fill="#202020"/>
<path d="M232.56 188.4H226.8V198H236.4V188.4H232.56Z" fill="#202020"/>
<path d="M165.358 188.4H73.2002V198H226.8V188.4H165.358Z" fill="white"/>
<path d="M165.358 198H73.2002V207.6H226.8V198H165.358Z" fill="#202020"/>
<path d="M222.96 159.6H217.2V169.2H226.8V159.6H222.96Z" fill="#323796"/>
<path d="M232.56 159.6H226.8V169.2H236.4V159.6H232.56Z" fill="#323796"/>
<path d="M222.96 169.2H217.2V178.8H226.8V169.2H222.96Z" fill="#0082E6"/>
<path d="M232.56 169.2H226.8V178.8H236.4V169.2H232.56Z" fill="#0082E6"/>
<path d="M165.36 130.8H159.6V140.4H169.2V130.8H165.36Z" fill="#323796"/>
<path d="M146.16 121.2H140.4V130.8H150V121.2H146.16Z" fill="#323796"/>
<path d="M136.56 111.6H130.8V121.2H140.4V111.6H136.56Z" fill="#323796"/>
<path d="M127.02 102H121.26V111.6H130.86V102H127.02Z" fill="#323796"/>
<path d="M117.42 92.3999H111.66V102H121.26V92.3999H117.42Z" fill="#323796"/>
<path d="M117.42 82.8H111.66V92.4001H121.26V82.8H117.42Z" fill="#323796"/>
<path d="M107.819 82.8H102.06V92.4001H111.66V82.8H107.819Z" fill="#0082E6"/>
<path d="M107.819 92.3999H102.06V102H111.66V92.3999H107.819Z" fill="#0082E6"/>
<path d="M107.819 102H102.06V111.6H111.66V102H107.819Z" fill="#0082E6"/>
<path d="M107.76 111.6H102V121.2H111.6V111.6H107.76Z" fill="#0082E6"/>
<path d="M126.96 111.6H121.2V121.2H130.8V111.6H126.96Z" fill="#0082E6"/>
<path d="M117.36 140.4H111.6V150H121.2V140.4H117.36Z" fill="#005EA6"/>
<path d="M107.76 130.8H102V140.4H111.6V130.8H107.76Z" fill="#005EA6"/>
<path d="M126.96 130.8H121.2V140.4H130.8V130.8H126.96Z" fill="#005EA6"/>
<path d="M107.76 159.6H102V169.2H111.6V159.6H107.76Z" fill="#005EA6"/>
<path d="M117.36 169.2H111.6V178.8H121.2V169.2H117.36Z" fill="#005EA6"/>
<path d="M126.96 159.6H121.2V169.2H130.8V159.6H126.96Z" fill="#005EA6"/>
<path d="M146.16 159.6H140.4V169.2H150V159.6H146.16Z" fill="#005EA6"/>
<path d="M88.5596 159.6H82.7998V169.2H92.3998V159.6H88.5596Z" fill="#005EA6"/>
<path d="M136.56 121.2H130.8V130.8H140.4V121.2H136.56Z" fill="#0082E6"/>
<path d="M165.36 140.4H159.6V150H169.2V140.4H165.36Z" fill="#0082E6"/>
<path d="M213.36 159.6H207.6V169.2H217.2V159.6H213.36Z" fill="#0082E6"/>
<path d="M155.76 140.4H150V150H159.6V140.4H155.76Z" fill="#0082E6"/>
<path d="M174.96 150H169.2V159.6H178.8V150H174.96Z" fill="#0082E6"/>
<path d="M174.96 140.4H169.2V150H178.8V140.4H174.96Z" fill="#323796"/>
<path d="M194.16 150H188.4V159.6H198V150H194.16Z" fill="#323796"/>
<path d="M184.56 150H178.8V159.6H188.4V150H184.56Z" fill="#0082E6"/>
<path d="M184.56 140.4H178.8V150H188.4V140.4H184.56Z" fill="#323796"/>
<path d="M203.76 150H198V159.6H207.6V150H203.76Z" fill="#323796"/>
<path d="M213.36 150H207.6V159.6H217.2V150H213.36Z" fill="#323796"/>
<path d="M203.76 159.6H198V169.2H207.6V159.6H203.76Z" fill="#0082E6"/>
<path d="M117.36 111.6H111.6V121.2H121.2V111.6H117.36Z" fill="#202020"/>
<path d="M146.16 130.8H140.4V140.4H150V130.8H146.16Z" fill="#202020"/>
<path d="M174.96 150H169.2V159.6H178.8V150H174.96Z" fill="#202020"/>
<path d="M194.16 159.6H188.4V169.2H198V159.6H194.16Z" fill="#202020"/>
<path d="M155.76 130.8H150V140.4H159.6V130.8H155.76Z" fill="#323796"/>
<path d="M98.2193 102H92.4595V111.6H102.059V102H98.2193Z" fill="#0082E6"/>
<path d="M117.42 102H111.66V111.6H121.26V102H117.42Z" fill="#0082E6"/>
<path d="M107.819 73.2H102.06V82.7999H111.66V73.2H107.819Z" fill="#005EA6"/>
<path d="M98.2193 82.8H92.4595V92.4001H102.059V82.8H98.2193Z" fill="#005EA6"/>
<path d="M98.2193 92.3999H92.4595V102H102.059V92.3999H98.2193Z" fill="#005EA6"/>
<path d="M88.6192 102H82.8594V111.6H92.4594V102H88.6192Z" fill="#0082E6"/>
<path d="M98.1597 111.6H92.3999V121.2H102V111.6H98.1597Z" fill="#0082E6"/>
<path d="M79.0196 102H73.2598V111.6H82.8598V102H79.0196Z" fill="#0082E6"/>
<path d="M88.5596 111.6H82.7998V121.2H92.3998V111.6H88.5596Z" fill="#0082E6"/>
<path d="M69.4195 102H63.6597V111.6H73.2597V102H69.4195Z" fill="#005EA6"/>
<path d="M78.96 121.2H73.2002V130.8H82.8002V121.2H78.96Z" fill="#005EA6"/>
<path d="M78.96 140.4H73.2002V150H82.8002V140.4H78.96Z" fill="#005EA6"/>
<path d="M69.3599 159.6H63.6001V169.2H73.2001V159.6H69.3599Z" fill="#005EA6"/>
<path d="M69.4195 92.3999H63.6597V102H73.2597V92.3999H69.4195Z" fill="#005EA6"/>
<path d="M78.96 111.6H73.2002V121.2H82.8002V111.6H78.96Z" fill="#005EA6"/>
<path d="M78.96 130.8H73.2002V140.4H82.8002V130.8H78.96Z" fill="#005EA6"/>
<path d="M69.3599 150H63.6001V159.6H73.2001V150H69.3599Z" fill="#005EA6"/>
<path d="M69.3599 169.2H63.6001V178.8H73.2001V169.2H69.3599Z" fill="#005EA6"/>
<path d="M158.914 188.4H158.228H157.543H156.857H156.171H155.485H154.8H154.114H153.428H152.743H152.057H151.371H150.685H150H149.314H148.628H147.943H147.257H146.571H145.885H145.2H144.514H143.828H143.143H142.457H141.771H141.085H140.4H139.714H139.028H138.343H137.657H136.971H136.285H135.6H134.914H134.228H133.543H132.857H132.171H131.485H130.8V198H131.485H132.171H132.857H133.543H134.228H134.914H135.6H136.285H136.971H137.657H138.343H139.028H139.714H140.4H141.085H141.771H142.457H143.143H143.828H144.514H145.2H145.885H146.571H147.257H147.943H148.628H149.314H150H150.685H151.371H152.057H152.743H153.428H154.114H154.8H155.485H156.171H156.857H157.543H158.228H158.914H159.6V188.4H158.914Z" fill="#FFAF00"/>
<path d="M130.114 188.4H129.428H128.743H128.057H127.371H126.686H126H125.314H124.628H123.943H123.257H122.571H121.886H121.2H120.514H119.828H119.143H118.457H117.771H117.086H116.4H115.714H115.028H114.343H113.657H112.971H112.286H111.6H110.914H110.228H109.543H108.857H108.171H107.486H106.8H106.114H105.428H104.743H104.057H103.371H102.686H102V198H102.686H103.371H104.057H104.743H105.428H106.114H106.8H107.486H108.171H108.857H109.543H110.228H110.914H111.6H112.286H112.971H113.657H114.343H115.028H115.714H116.4H117.086H117.771H118.457H119.143H119.828H120.514H121.2H121.886H122.571H123.257H123.943H124.628H125.314H126H126.686H127.371H128.057H128.743H129.428H130.114H130.8V188.4H130.114Z" fill="#FF8205"/>
<path d="M101.314 188.4H100.629H99.9431H99.2573H98.5715H97.8857H97.2002H96.5144H95.8286H95.1431H94.4573H93.7715H93.0857H92.4002H91.7144H91.0286H90.3431H89.6573H88.9715H88.2857H87.6002H86.9144H86.2286H85.5431H84.8573H84.1715H83.4857H82.8002H82.1144H81.4286H80.7431H80.0573H79.3715H78.6857H78.0002H77.3144H76.6286H75.9431H75.2573H74.5715H73.8857H73.2002V198H73.8857H74.5715H75.2573H75.9431H76.6286H77.3144H78.0002H78.6857H79.3715H80.0573H80.7431H81.4286H82.1144H82.8002H83.4857H84.1715H84.8573H85.5431H86.2286H86.9144H87.6002H88.2857H88.9715H89.6573H90.3431H91.0286H91.7144H92.4002H93.0857H93.7715H94.4573H95.1431H95.8286H96.5144H97.2002H97.8857H98.5715H99.2573H99.9431H100.629H101.314H102V188.4H101.314Z" fill="#FA500F"/>
</svg>
