<svg width="142" height="142" viewBox="0 0 142 142" fill="none" xmlns="http://www.w3.org/2000/svg">
<rect y="14.041" width="128" height="128" rx="4" transform="rotate(-6.29772 0 14.041)" fill="#142635"/>
<g clip-path="url(#clip0_735_35774)">
<path d="M56.2589 59.8583L36.7173 62.0149L38.0652 74.2287L70.6355 70.6343L69.2875 58.4204L56.2589 59.8583Z" fill="#0082E6"/>
<path d="M97.1407 71.8299L87.3699 72.9082L88.2685 81.0508L104.554 79.2535L103.655 71.111L97.1407 71.8299Z" fill="#0082E6"/>
<path d="M65.749 71.1737L33.9939 74.6782L35.3418 86.8921L88.2685 81.051L86.9206 68.8372L65.749 71.1737Z" fill="#0082E6"/>
<path d="M67.4626 79.2255L65.6655 62.9411L61.5958 63.3902L62.0449 67.4598L57.972 67.9092L58.4215 71.9819L54.3518 72.4311L53.9023 68.3584L49.8295 68.8079L49.3804 64.7383L45.3075 65.1878L47.1046 81.4723L43.035 81.9214L43.4844 85.9941L55.6999 84.646L55.2504 80.5733L51.1775 81.0228L50.7284 76.9533L54.8013 76.5038L55.2504 80.5733L59.3201 80.1241L58.871 76.0546L62.9438 75.6051L63.393 79.6747L59.3201 80.1241L59.7695 84.1968L71.985 82.8487L71.5355 78.776L67.4626 79.2255Z" fill="white"/>
<path d="M79.3104 82.0397L35.3418 86.8921L35.7911 90.9634L109.074 82.8758L108.625 78.8045L79.3104 82.0397Z" fill="#66331A"/>
<path d="M38.2337 90.6936L35.791 90.9631L36.2403 95.0344L40.3116 94.5851L39.8623 90.5138L38.2337 90.6936Z" fill="#E92700"/>
<path d="M38.6832 94.7648L36.2405 95.0344L36.6898 99.1057L40.7611 98.6564L40.3118 94.5851L38.6832 94.7648Z" fill="#202020"/>
<path d="M107.446 83.0554L105.003 83.325L105.452 87.3962L109.524 86.9469L109.074 82.8756L107.446 83.0554Z" fill="#202020"/>
<path d="M78.9458 86.2007L39.8625 90.5139L40.3119 94.5852L105.452 87.3962L105.003 83.325L78.9458 86.2007Z" fill="white"/>
<path d="M79.395 90.272L40.3118 94.5852L40.7611 98.6565L105.902 91.4675L105.452 87.3963L79.395 90.272Z" fill="#202020"/>
<path d="M102.026 71.2907L99.5837 71.5603L100.033 75.6316L104.104 75.1823L103.655 71.111L102.026 71.2907Z" fill="#323796"/>
<path d="M106.098 70.8415L103.655 71.1111L104.104 75.1824L108.176 74.7331L107.726 70.6618L106.098 70.8415Z" fill="#323796"/>
<path d="M102.476 75.362L100.033 75.6316L100.483 79.7029L104.554 79.2536L104.104 75.1823L102.476 75.362Z" fill="#0082E6"/>
<path d="M106.547 74.9128L104.104 75.1824L104.554 79.2537L108.625 78.8043L108.176 74.7331L106.547 74.9128Z" fill="#0082E6"/>
<path d="M76.2508 61.7729L73.8081 62.0425L74.2574 66.1138L78.3287 65.6645L77.8794 61.5932L76.2508 61.7729Z" fill="#323796"/>
<path d="M67.659 58.6003L65.2163 58.8699L65.6656 62.9412L69.7369 62.4918L69.2876 58.4206L67.659 58.6003Z" fill="#323796"/>
<path d="M63.1383 54.9782L60.6956 55.2478L61.1449 59.3191L65.2161 58.8698L64.7668 54.7985L63.1383 54.9782Z" fill="#323796"/>
<path d="M58.6431 51.3535L56.2004 51.623L56.6497 55.6943L60.721 55.245L60.2717 51.1737L58.6431 51.3535Z" fill="#323796"/>
<path d="M54.1224 47.7314L51.6797 48.001L52.129 52.0723L56.2003 51.6229L55.751 47.5517L54.1224 47.7314Z" fill="#323796"/>
<path d="M53.6732 43.6601L51.2305 43.9297L51.6798 48.001L55.7511 47.5517L55.3018 43.4804L53.6732 43.6601Z" fill="#323796"/>
<path d="M49.6019 44.1096L47.1592 44.3792L47.6085 48.4504L51.6798 48.0011L51.2305 43.9298L49.6019 44.1096Z" fill="#0082E6"/>
<path d="M50.0511 48.1809L47.6084 48.4504L48.0577 52.5217L52.129 52.0724L51.6797 48.0011L50.0511 48.1809Z" fill="#0082E6"/>
<path d="M50.5006 52.2522L48.0579 52.5217L48.5072 56.593L52.5785 56.1437L52.1291 52.0724L50.5006 52.2522Z" fill="#0082E6"/>
<path d="M50.9246 56.3261L48.4819 56.5957L48.9312 60.667L53.0025 60.2177L52.5532 56.1464L50.9246 56.3261Z" fill="#0082E6"/>
<path d="M59.067 55.4274L56.6243 55.697L57.0736 59.7683L61.1449 59.319L60.6956 55.2477L59.067 55.4274Z" fill="#0082E6"/>
<path d="M56.3438 68.0908L53.9011 68.3604L54.3504 72.4316L58.4217 71.9823L57.9724 67.911L56.3438 68.0908Z" fill="#005EA6"/>
<path d="M51.8231 64.4687L49.3804 64.7383L49.8297 68.8096L53.901 68.3603L53.4517 64.289L51.8231 64.4687Z" fill="#005EA6"/>
<path d="M59.9657 63.57L57.5229 63.8396L57.9723 67.9109L62.0435 67.4616L61.5942 63.3903L59.9657 63.57Z" fill="#005EA6"/>
<path d="M53.171 76.6826L50.7283 76.9521L51.1776 81.0234L55.2489 80.5741L54.7996 76.5028L53.171 76.6826Z" fill="#005EA6"/>
<path d="M57.6917 80.3044L55.249 80.574L55.6983 84.6453L59.7696 84.196L59.3203 80.1247L57.6917 80.3044Z" fill="#005EA6"/>
<path d="M61.3136 75.7839L58.8708 76.0535L59.3202 80.1247L63.3914 79.6754L62.9421 75.6042L61.3136 75.7839Z" fill="#005EA6"/>
<path d="M69.4561 74.8852L67.0134 75.1548L67.4627 79.2261L71.534 78.7768L71.0847 74.7055L69.4561 74.8852Z" fill="#005EA6"/>
<path d="M45.0284 77.5813L42.5857 77.8508L43.035 81.9221L47.1063 81.4728L46.657 77.4015L45.0284 77.5813Z" fill="#005EA6"/>
<path d="M63.5877 59.0495L61.145 59.3191L61.5943 63.3904L65.6656 62.9411L65.2163 58.8698L63.5877 59.0495Z" fill="#0082E6"/>
<path d="M76.7003 65.8442L74.2576 66.1138L74.7069 70.1851L78.7782 69.7357L78.3289 65.6645L76.7003 65.8442Z" fill="#0082E6"/>
<path d="M97.9551 71.7402L95.5125 72.0098L95.9618 76.081L100.033 75.6317L99.5837 71.5605L97.9551 71.7402Z" fill="#0082E6"/>
<path d="M72.6287 66.2934L70.186 66.563L70.6353 70.6343L74.7066 70.185L74.2573 66.1137L72.6287 66.2934Z" fill="#0082E6"/>
<path d="M81.2208 69.4663L78.7781 69.7358L79.2274 73.8071L83.2987 73.3578L82.8494 69.2865L81.2208 69.4663Z" fill="#0082E6"/>
<path d="M80.7713 65.3947L78.3286 65.6643L78.7779 69.7356L82.8492 69.2863L82.3999 65.215L80.7713 65.3947Z" fill="#323796"/>
<path d="M89.3634 68.5676L86.9207 68.8372L87.37 72.9084L91.4412 72.4591L90.9919 68.3878L89.3634 68.5676Z" fill="#323796"/>
<path d="M85.2921 69.0168L82.8494 69.2864L83.2987 73.3577L87.37 72.9083L86.9206 68.8371L85.2921 69.0168Z" fill="#0082E6"/>
<path d="M84.8426 64.9455L82.3999 65.2151L82.8492 69.2864L86.9205 68.8371L86.4712 64.7658L84.8426 64.9455Z" fill="#323796"/>
<path d="M93.4346 68.1181L90.9919 68.3877L91.4413 72.459L95.5125 72.0097L95.0632 67.9384L93.4346 68.1181Z" fill="#323796"/>
<path d="M97.5057 67.6689L95.063 67.9385L95.5123 72.0098L99.5836 71.5604L99.1343 67.4892L97.5057 67.6689Z" fill="#323796"/>
<path d="M93.8839 72.1894L91.4412 72.459L91.8905 76.5303L95.9618 76.081L95.5124 72.0097L93.8839 72.1894Z" fill="#0082E6"/>
<path d="M54.9957 55.8769L52.553 56.1465L53.0023 60.2178L57.0736 59.7685L56.6243 55.6972L54.9957 55.8769Z" fill="#202020"/>
<path d="M68.1082 62.6713L65.6655 62.9409L66.1148 67.0122L70.1861 66.5629L69.7368 62.4916L68.1082 62.6713Z" fill="#202020"/>
<path d="M81.2208 69.4663L78.7781 69.7358L79.2274 73.8071L83.2987 73.3578L82.8494 69.2865L81.2208 69.4663Z" fill="#202020"/>
<path d="M89.8126 72.6386L87.3699 72.9082L87.8192 76.9795L91.8905 76.5302L91.4412 72.4589L89.8126 72.6386Z" fill="#202020"/>
<path d="M72.1795 62.2221L69.7368 62.4917L70.1861 66.563L74.2574 66.1137L73.8081 62.0424L72.1795 62.2221Z" fill="#323796"/>
<path d="M46.4293 52.7014L43.9866 52.9709L44.4359 57.0422L48.5072 56.5929L48.0579 52.5216L46.4293 52.7014Z" fill="#0082E6"/>
<path d="M54.5716 51.8027L52.1289 52.0723L52.5782 56.1435L56.6495 55.6942L56.2002 51.623L54.5716 51.8027Z" fill="#0082E6"/>
<path d="M49.1527 40.0383L46.71 40.3079L47.1593 44.3791L51.2306 43.9298L50.7812 39.8586L49.1527 40.0383Z" fill="#005EA6"/>
<path d="M45.5306 44.5588L43.0879 44.8284L43.5372 48.8997L47.6085 48.4503L47.1592 44.3791L45.5306 44.5588Z" fill="#005EA6"/>
<path d="M45.9798 48.6301L43.5371 48.8997L43.9864 52.9709L48.0577 52.5216L47.6084 48.4503L45.9798 48.6301Z" fill="#005EA6"/>
<path d="M42.358 53.1508L39.9153 53.4204L40.3646 57.4917L44.4359 57.0424L43.9866 52.9711L42.358 53.1508Z" fill="#0082E6"/>
<path d="M46.8531 56.7753L44.4104 57.0449L44.8597 61.1162L48.931 60.6669L48.4817 56.5956L46.8531 56.7753Z" fill="#0082E6"/>
<path d="M38.2867 53.6001L35.844 53.8696L36.2933 57.9409L40.3646 57.4916L39.9153 53.4203L38.2867 53.6001Z" fill="#0082E6"/>
<path d="M42.7818 57.2248L40.3391 57.4944L40.7884 61.5657L44.8597 61.1164L44.4104 57.0451L42.7818 57.2248Z" fill="#0082E6"/>
<path d="M34.2154 54.0493L31.7727 54.3188L32.222 58.3901L36.2933 57.9408L35.844 53.8695L34.2154 54.0493Z" fill="#005EA6"/>
<path d="M39.16 61.7453L36.7173 62.0149L37.1666 66.0862L41.2379 65.6369L40.7886 61.5656L39.16 61.7453Z" fill="#005EA6"/>
<path d="M40.0587 69.8879L37.616 70.1575L38.0653 74.2288L42.1366 73.7794L41.6872 69.7082L40.0587 69.8879Z" fill="#005EA6"/>
<path d="M36.8858 78.4797L34.4431 78.7493L34.8924 82.8205L38.9637 82.3712L38.5144 78.3L36.8858 78.4797Z" fill="#005EA6"/>
<path d="M33.7659 49.978L31.3232 50.2476L31.7726 54.3188L35.8438 53.8695L35.3945 49.7982L33.7659 49.978Z" fill="#005EA6"/>
<path d="M38.7108 57.674L36.2681 57.9436L36.7174 62.0149L40.7887 61.5656L40.3393 57.4943L38.7108 57.674Z" fill="#005EA6"/>
<path d="M39.6092 65.8166L37.1665 66.0862L37.6158 70.1575L41.6871 69.7082L41.2378 65.6369L39.6092 65.8166Z" fill="#005EA6"/>
<path d="M36.4366 74.4086L33.9939 74.6782L34.4432 78.7495L38.5145 78.3002L38.0652 74.2289L36.4366 74.4086Z" fill="#005EA6"/>
<path d="M37.3353 82.551L34.8926 82.8206L35.3419 86.8918L39.4132 86.4425L38.9639 82.3712L37.3353 82.551Z" fill="#005EA6"/>
<path d="M76.213 86.5023L75.9222 86.5344L75.6315 86.5665L75.3406 86.5986L75.0498 86.6307L74.759 86.6628L74.4682 86.6948L74.1774 86.7269L73.8866 86.759L73.5958 86.7911L73.305 86.8232L73.0142 86.8553L72.7233 86.8874L72.4326 86.9195L72.1418 86.9516L71.8509 86.9837L71.5602 87.0158L71.2694 87.0479L70.9785 87.08L70.6877 87.1121L70.397 87.1442L70.1061 87.1762L69.8153 87.2083L69.5246 87.2404L69.2337 87.2725L68.9429 87.3046L68.652 87.3367L68.3613 87.3688L68.0705 87.4009L67.7796 87.433L67.4889 87.4651L67.1981 87.4972L66.9072 87.5293L66.6164 87.5614L66.3257 87.5935L66.0348 87.6256L65.744 87.6577L65.4533 87.6897L65.1624 87.7218L64.8716 87.7539L64.5808 87.786L64.29 87.8181L64.7393 91.8894L65.0301 91.8573L65.3209 91.8252L65.6117 91.7931L65.9026 91.761L66.1933 91.7289L66.4841 91.6968L66.775 91.6647L67.0657 91.6327L67.3565 91.6006L67.6474 91.5685L67.9382 91.5364L68.2289 91.5043L68.5198 91.4722L68.8106 91.4401L69.1013 91.408L69.3922 91.3759L69.683 91.3438L69.9739 91.3117L70.2646 91.2796L70.5554 91.2475L70.8463 91.2154L71.137 91.1834L71.4278 91.1513L71.7187 91.1192L72.0095 91.0871L72.3002 91.055L72.5911 91.0229L72.8819 90.9908L73.1726 90.9587L73.4635 90.9266L73.7543 90.8945L74.0452 90.8624L74.3359 90.8303L74.6267 90.7982L74.9176 90.7661L75.2083 90.734L75.4991 90.7019L75.79 90.6698L76.0808 90.6378L76.3715 90.6057L76.6624 90.5736L76.9532 90.5415L76.5039 86.4702L76.213 86.5023Z" fill="#FFAF00"/>
<path d="M63.9994 87.8502L63.7086 87.8823L63.4179 87.9144L63.127 87.9465L62.8362 87.9786L62.5453 88.0107L62.2546 88.0427L61.9638 88.0748L61.6729 88.1069L61.3822 88.139L61.0914 88.1711L60.8005 88.2032L60.5097 88.2353L60.219 88.2674L59.9281 88.2995L59.6373 88.3316L59.3466 88.3637L59.0557 88.3958L58.7649 88.4279L58.4741 88.46L58.1833 88.4921L57.8925 88.5241L57.6017 88.5562L57.3109 88.5883L57.0201 88.6204L56.7293 88.6525L56.4384 88.6846L56.1477 88.7167L55.8569 88.7488L55.566 88.7809L55.2753 88.813L54.9845 88.8451L54.6936 88.8772L54.4028 88.9093L54.1121 88.9414L53.8212 88.9735L53.5304 89.0056L53.2397 89.0376L52.9488 89.0697L52.658 89.1018L52.3671 89.1339L52.0764 89.166L52.5257 93.2373L52.8164 93.2052L53.1073 93.1731L53.3981 93.141L53.689 93.1089L53.9797 93.0768L54.2705 93.0447L54.5614 93.0126L54.8521 92.9806L55.1429 92.9485L55.4338 92.9164L55.7246 92.8843L56.0153 92.8522L56.3062 92.8201L56.597 92.788L56.8877 92.7559L57.1786 92.7238L57.4694 92.6917L57.7602 92.6596L58.051 92.6275L58.3418 92.5954L58.6327 92.5633L58.9234 92.5313L59.2142 92.4992L59.505 92.4671L59.7959 92.435L60.0866 92.4029L60.3775 92.3708L60.6683 92.3387L60.959 92.3066L61.2499 92.2745L61.5407 92.2424L61.8315 92.2103L62.1222 92.1782L62.4131 92.1461L62.7039 92.114L62.9946 92.0819L63.2855 92.0498L63.5763 92.0177L63.8672 91.9857L64.1579 91.9536L64.4487 91.9215L64.7396 91.8894L64.2903 87.8181L63.9994 87.8502Z" fill="#FF8205"/>
<path d="M51.7856 89.1981L51.4947 89.2302L51.204 89.2623L50.9132 89.2944L50.6223 89.3265L50.3315 89.3586L50.0408 89.3906L49.7499 89.4227L49.4591 89.4548L49.1684 89.4869L48.8775 89.519L48.5867 89.5511L48.2958 89.5832L48.0051 89.6153L47.7143 89.6474L47.4234 89.6795L47.1327 89.7116L46.8419 89.7437L46.551 89.7758L46.2602 89.8079L45.9695 89.84L45.6786 89.872L45.3878 89.9041L45.0971 89.9362L44.8062 89.9683L44.5154 90.0004L44.2245 90.0325L43.9338 90.0646L43.643 90.0967L43.3521 90.1288L43.0614 90.1609L42.7706 90.193L42.4797 90.2251L42.1889 90.2572L41.8982 90.2893L41.6073 90.3214L41.3165 90.3535L41.0258 90.3855L40.7349 90.4176L40.4441 90.4497L40.1533 90.4818L39.8625 90.5139L40.3119 94.5852L40.6026 94.5531L40.8934 94.521L41.1843 94.4889L41.4751 94.4568L41.7658 94.4247L42.0567 94.3926L42.3475 94.3605L42.6382 94.3285L42.9291 94.2964L43.2199 94.2643L43.5107 94.2322L43.8015 94.2001L44.0923 94.168L44.3831 94.1359L44.6739 94.1038L44.9647 94.0717L45.2555 94.0396L45.5464 94.0075L45.8371 93.9754L46.1279 93.9433L46.4188 93.9112L46.7095 93.8792L47.0003 93.8471L47.2912 93.815L47.582 93.7829L47.8727 93.7508L48.1636 93.7187L48.4544 93.6866L48.7451 93.6545L49.036 93.6224L49.3268 93.5903L49.6177 93.5582L49.9084 93.5261L50.1992 93.494L50.4901 93.4619L50.7808 93.4298L51.0716 93.3977L51.3625 93.3656L51.6533 93.3336L51.944 93.3015L52.2349 93.2694L52.5257 93.2373L52.0764 89.166L51.7856 89.1981Z" fill="#FA500F"/>
</g>
<defs>
<clipPath id="clip0_735_35774">
<rect width="81.92" height="81.92" fill="white" transform="translate(25.4297 34.4146) rotate(-6.29772)"/>
</clipPath>
</defs>
</svg>
