<svg width="300" height="300" viewBox="0 0 300 300" fill="none" xmlns="http://www.w3.org/2000/svg">
<rect width="300" height="300" fill="#F0EAFD"/>
<path d="M185.487 212.4H132V222H194.4V212.4H185.487Z" fill="#323796"/>
<path d="M189.088 78H106.8V87.6H202.8V78H189.088Z" fill="#323796"/>
<path d="M116.4 212.4H106.8V222H116.4V212.4Z" fill="#323796"/>
<path d="M126 212.4H116.4V222H126V212.4Z" fill="#323796"/>
<path d="M202.8 212.4H194.4V222H202.8V212.4Z" fill="#323796"/>
<path d="M106.8 202.8H97.2V212.4H106.8V202.8Z" fill="#1C2175"/>
<path d="M202.8 193.2H193.2V202.8H202.8V193.2Z" fill="#202020"/>
<path d="M97.2001 97.2H87.6001V202.8H97.2001V97.2Z" fill="#1C2175"/>
<path d="M212.4 87.6001H202.8V212.4H212.4V87.6001Z" fill="#323796"/>
<path d="M193.735 87.6001H121.2V187.2H202.8V87.6001H193.735Z" fill="#0082E6"/>
<path d="M106.8 94.7129V187.2H116.4V87.6001H106.8V94.7129Z" fill="#0082E6"/>
<path d="M126 205.996V231.6H135.6V193.2H126V205.996Z" fill="#E10500"/>
<path d="M116.4 193.2H193.2V183.6L106.8 183.6V202.8L116.4 202.8V193.2Z" fill="#828282"/>
<path d="M152.055 202.8H193.2V193.2H135.6V202.8H152.055Z" fill="white"/>
<path d="M126 193.2H116.4V202.8H126V193.2Z" fill="white"/>
<path d="M202.8 183.6H193.2V193.2H202.8V183.6Z" fill="#202020"/>
<path d="M97.2 194.4V202.8H106.8V186H97.2V194.4Z" fill="#323796"/>
<path d="M111.6 94.4558V183.6H121.2V87.6001H111.6V94.4558Z" fill="#323796"/>
<path d="M126 202.8H106.8V212.4H126V202.8Z" fill="#0082E6"/>
<path d="M202.8 202.8H135.6V212.4H202.8V202.8Z" fill="#0082E6"/>
<path d="M106.8 180.278V97.2H97.2V187.2H106.8V180.278Z" fill="#323796"/>
<path d="M183.603 159.602V121.2H173.996V130.798H164.399V140.406H154.801V130.798H145.204V121.2H135.607V159.602H126V169.2H154.801V159.602H145.204V150.004H154.801V159.602H164.399V150.004H173.996V159.602H164.399V169.2H193.2V159.602H183.603Z" fill="white"/>
<rect x="183.6" y="97.2" width="9.6" height="9.6" fill="#00AAE6"/>
<rect x="174" y="97.2" width="9.6" height="9.6" fill="#00AAE6"/>
<rect x="183.6" y="106.8" width="9.6" height="9.6" fill="#00AAE6"/>
<path d="M106.8 87.6001H97.2V97.2001H106.8V87.6001Z" fill="#1C2175"/>
</svg>
