<svg width="300" height="300" viewBox="0 0 300 300" fill="none" xmlns="http://www.w3.org/2000/svg">
<rect width="300" height="300" fill="#FFF7C5"/>
<rect x="92.4" y="82.8" width="115.2" height="96" fill="#E1B496"/>
<rect x="102" y="92.3999" width="96" height="76.8" fill="#202020"/>
<rect width="96" height="9.59999" transform="matrix(1 0 0 -1 102 188.4)" fill="#B36843"/>
<rect width="115.2" height="28.8" transform="matrix(1 0 0 -1 92.4 217.2)" fill="#E1B496"/>
<rect width="38.4" height="9.60001" transform="matrix(1 0 0 -1 102 207.6)" fill="#66331A"/>
<rect width="9.60001" height="9.60001" transform="matrix(1 0 0 -1 188.4 207.6)" fill="#66331A"/>
<g clip-path="url(#clip0_349_21215)">
<path d="M139.998 109.199H131.998V118.799H139.998V109.199Z" fill="#FFAF00"/>
<path d="M159.998 109.199H151.998V118.799H159.998V109.199Z" fill="#FFAF00"/>
<path d="M152 99.6001H140V109.2H152V99.6001Z" fill="#FFD700"/>
<path d="M159.998 133.199H151.998V142.799H159.998V133.199Z" fill="#FA500F"/>
<path d="M167.998 142.799H159.998V152.399H167.998V142.799Z" fill="#E92700"/>
<path d="M175.998 152.399H167.998V161.999H175.998V152.399Z" fill="#E92700"/>
<path d="M139.998 133.199H131.998V142.799H139.998V133.199Z" fill="#FA500F"/>
<path d="M152 142.8H140V152.4H152V142.8Z" fill="#FA500F"/>
<path d="M132 118.8H124V133.2H132V118.8Z" fill="#FF8205"/>
<path d="M168 118.8H160V133.2H168V118.8Z" fill="#FF8205"/>
</g>
<defs>
<clipPath id="clip0_349_21215">
<rect width="52" height="62.4" fill="white" transform="translate(124 99.6001)"/>
</clipPath>
</defs>
</svg>
