<svg width="300" height="300" viewBox="0 0 300 300" fill="none" xmlns="http://www.w3.org/2000/svg">
<rect width="300" height="300" fill="#FFF0C3"/>
<rect x="92.3999" y="121.2" width="115.2" height="9.6" fill="#B36843"/>
<rect x="82.7998" y="130.8" width="134.4" height="86.4" fill="#FFD800"/>
<path d="M92.3998 130.8H82.7998V217.2H92.3998V130.8Z" fill="#9E481E"/>
<path d="M217.2 130.8H207.6V217.2H217.2V130.8Z" fill="#66331A"/>
<path d="M207.6 226.8L207.6 217.2L92.4001 217.2L92.4001 226.8L207.6 226.8Z" fill="#66331A"/>
<path d="M178.8 92.4001L178.8 82.8L121.2 82.8L121.2 92.4L178.8 92.4001Z" fill="#B6BFD1"/>
<path d="M178.8 82.8L178.8 73.2L121.2 73.1999L121.2 82.7999L178.8 82.8Z" fill="#3F4652"/>
<path d="M178.8 102L178.8 92.3999L121.2 92.3999L121.2 102L178.8 102Z" fill="#3F4652"/>
<path d="M121.2 92.3999H111.6V121.2H121.2V92.3999Z" fill="#8F9BB2"/>
<path d="M111.6 92.3999H102V121.2H111.6V92.3999Z" fill="#3F4652"/>
<path d="M198 92.3999H188.4V121.2H198V92.3999Z" fill="#3F4652"/>
<path d="M178.8 102H169.2V121.2H178.8V102Z" fill="#3F4652"/>
<path d="M130.8 102H121.2V121.2H130.8V102Z" fill="#3F4652"/>
<path d="M188.4 92.3999H178.8V121.2H188.4V92.3999Z" fill="#8F9BB2"/>
<rect x="198" y="130.8" width="9.60001" height="86.4" fill="#FF8205"/>
<rect x="92.3999" y="130.8" width="9.6" height="86.4" fill="#FFF0C3"/>
<rect x="188.4" y="130.8" width="9.60001" height="86.4" fill="#FFAF00"/>
<rect x="178.8" y="140.4" width="9.59999" height="9.60001" fill="#FFC548"/>
<rect x="102" y="207.6" width="86.4" height="9.59999" fill="#FFC548"/>
<rect x="207.6" y="130.8" width="9.6" height="115.2" transform="rotate(90 207.6 130.8)" fill="#FFF0C3"/>
<path d="M121.2 82.8H111.6V92.4H121.2V82.8Z" fill="#3F4652"/>
<path d="M121.2 111.6H111.6V121.2H121.2V111.6Z" fill="#5B6472"/>
<path d="M188.4 82.8H178.8V92.4H188.4V82.8Z" fill="#3F4652"/>
<path d="M188.4 111.6H178.8V121.2H188.4V111.6Z" fill="#5B6472"/>
<path d="M174 188.398V150H164.404V159.596H154.8V169.199H145.204V159.596H135.6V150H125.996V188.398H116.4V198.002H145.204V188.398H135.6V178.803H145.204V188.398H154.8V178.803H164.404V188.398H154.8V198.002H183.604V188.398H174Z" fill="#FA500F"/>
<rect x="198" y="130.8" width="9.60001" height="9.6" fill="#FFC548"/>
<rect x="92.3999" y="130.8" width="9.6" height="9.6" fill="white"/>
</svg>
