<svg width="65" height="65" viewBox="0 0 65 65" fill="none" xmlns="http://www.w3.org/2000/svg">
<rect width="65" height="65" rx="2.03125" fill="#FFF7C5"/>
<rect x="0.5" y="0.5" width="64" height="64" rx="1.53125" stroke="black" stroke-opacity="0.15"/>
<rect x="17.8" y="15.3501" width="29.3999" height="4.89999" fill="#FFD800"/>
<rect x="49.65" y="17.8" width="29.3999" height="4.89998" transform="rotate(90 49.65 17.8)" fill="#0082E6"/>
<rect x="14.7375" y="21.7812" width="27.5624" height="27.8687" fill="#FA500F"/>
<rect width="2.44999" height="29.3999" transform="matrix(-1 0 0 1 15.35 20.25)" fill="#66331A"/>
<rect width="2.44999" height="29.3999" transform="matrix(-1 0 0 1 25.1499 22.7)" fill="#66331A"/>
<rect width="2.44999" height="29.3999" transform="matrix(-1 0 0 1 34.9498 22.7)" fill="#66331A"/>
<rect width="2.44999" height="29.3999" transform="matrix(1.19249e-08 -1 -1 -1.19249e-08 44.7499 32.5)" fill="#66331A"/>
<rect width="2.44999" height="29.3999" transform="matrix(1.19249e-08 -1 -1 -1.19249e-08 44.7499 42.2998)" fill="#66331A"/>
<path d="M34.9498 39.8493V30.0498H32.5008V32.4987H30.0498V34.9496H27.6008V32.4987H25.1499V30.0498H22.6989V39.8493H20.2499V42.3002H27.6008V39.8493H25.1499V37.4004H27.6008V39.8493H30.0498V37.4004H32.5008V39.8493H30.0498V42.3002H37.4008V39.8493H34.9498Z" fill="white"/>
<rect width="2.44999" height="29.3999" transform="matrix(1.19249e-08 -1 -1 -1.19249e-08 44.7499 52.0996)" fill="#66331A"/>
<rect width="2.44999" height="26.9499" transform="matrix(1.19249e-08 -1 -1 -1.19249e-08 42.2998 22.7)" fill="#66331A"/>
<rect width="2.44999" height="26.9499" transform="matrix(-1 0 0 1 44.7499 22.7)" fill="#66331A"/>
<rect width="2.44999" height="29.3999" transform="matrix(-1 0 0 1 52.0999 15.3501)" fill="#66331A"/>
<rect width="2.44999" height="2.44999" transform="matrix(-1 0 0 1 17.8 17.8)" fill="#66331A"/>
<rect width="2.44999" height="2.44999" transform="matrix(-1 0 0 1 44.75 20.25)" fill="#66331A"/>
<rect width="2.44999" height="2.44999" transform="matrix(-1 0 0 1 37.4 17.8)" fill="#66331A"/>
<rect width="2.44999" height="2.44999" transform="matrix(-1 0 0 1 47.2 27.5999)" fill="#66331A"/>
<rect width="2.44999" height="2.44999" transform="matrix(-1 0 0 1 47.2 37.3999)" fill="#66331A"/>
<rect width="2.44999" height="2.44999" transform="matrix(-1 0 0 1 27.6001 17.8)" fill="#66331A"/>
<rect width="2.44999" height="2.44999" transform="matrix(-1 0 0 1 47.2 47.1997)" fill="#66331A"/>
<rect width="2.44999" height="2.44999" transform="matrix(-1 0 0 1 20.2501 15.3501)" fill="#66331A"/>
<rect width="2.44999" height="2.44999" transform="matrix(-1 0 0 1 22.7001 15.3501)" fill="#66331A"/>
<rect width="2.44999" height="2.44999" transform="matrix(-1 0 0 1 47.2 17.8)" fill="#66331A"/>
<rect width="2.44999" height="2.44999" transform="matrix(-1 0 0 1 39.85 15.3501)" fill="#66331A"/>
<rect width="29.3999" height="2.44999" transform="matrix(-1 0 0 1 49.65 12.8999)" fill="#9E481E"/>
<rect width="2.44999" height="2.44999" transform="matrix(-1 0 0 1 42.3 15.3501)" fill="#66331A"/>
<rect width="2.44999" height="2.44999" transform="matrix(-1 0 0 1 32.5 15.3501)" fill="#66331A"/>
<rect width="2.44999" height="2.44999" transform="matrix(-1 0 0 1 49.65 25.1499)" fill="#66331A"/>
<rect width="2.44999" height="2.44999" transform="matrix(-1 0 0 1 49.65 34.95)" fill="#66331A"/>
<rect width="2.44999" height="2.44999" transform="matrix(-1 0 0 1 30.05 15.3501)" fill="#66331A"/>
<rect width="2.44999" height="2.44999" transform="matrix(-1 0 0 1 49.65 44.75)" fill="#66331A"/>
<rect width="2.44999" height="2.44999" transform="matrix(-1 0 0 1 49.65 15.3501)" fill="#66331A"/>
</svg>
