<svg width="300" height="300" viewBox="0 0 300 300" fill="none" xmlns="http://www.w3.org/2000/svg">
<rect width="300" height="300" fill="#FFF0C3"/>
<rect x="82.7998" y="97.2" width="134.4" height="96" fill="#0E5327"/>
<rect x="82.7998" y="97.2" width="134.4" height="96" fill="#166C35"/>
<rect x="217.2" y="97.2" width="9.6" height="96" fill="#66331A"/>
<rect x="73.2002" y="97.2" width="9.6" height="105.6" fill="#B36843"/>
<rect x="226.8" y="193.2" width="9.60001" height="144" transform="rotate(90 226.8 193.2)" fill="#66331A"/>
<rect x="73.2002" y="87.6001" width="153.6" height="9.6" fill="#B36843"/>
<rect x="134" y="78" width="32" height="9.6" fill="#9E481E"/>
<rect x="118" y="202.8" width="64" height="9.6" fill="#9E481E"/>
<rect x="82.7998" y="183.6" width="134.4" height="9.6" fill="#0E5327"/>
<rect x="217.2" y="97.2" width="96" height="9.6" transform="rotate(90 217.2 97.2)" fill="#0E5327"/>
<rect x="92.3999" y="106.8" width="76.8" height="9.6" transform="rotate(90 92.3999 106.8)" fill="#1D793E"/>
<rect width="9.59999" height="124.8" transform="matrix(-4.37114e-08 1 1 4.37114e-08 82.7998 97.2)" fill="#1D793E"/>
<rect width="9.59999" height="124.8" transform="matrix(-4.37114e-08 1 1 4.37114e-08 82.7998 97.2)" fill="#1D793E"/>
<path d="M188.234 164.221L188.234 129.948L179.661 129.948L179.661 138.522L171.096 138.522L171.096 147.088L162.53 147.088L162.53 138.522L153.964 138.522L153.964 129.948L145.399 129.948L145.399 164.221L136.826 164.221L136.826 172.787L162.53 172.787L162.53 164.221L153.964 164.221L153.964 155.655L162.53 155.655L162.53 164.221L171.096 164.221L171.096 155.655L179.661 155.655L179.661 164.221L171.096 164.221L171.096 172.787L196.8 172.787L196.8 164.221L188.234 164.221Z" fill="white"/>
<rect x="105.768" y="155.652" width="8.56774" height="8.56774" fill="white"/>
<rect x="105.768" y="147.084" width="8.56774" height="8.56774" fill="white"/>
<rect x="97.2002" y="138.516" width="8.56774" height="8.56774" fill="white"/>
<rect x="114.335" y="164.219" width="8.56774" height="8.56774" fill="white"/>
<rect x="122.903" y="121.381" width="8.56774" height="42.8387" fill="white"/>
<rect width="56.4" height="8.4" transform="matrix(1 0 0 -1 132 121.2)" fill="white"/>
<rect x="102" y="183.6" width="28.8" height="9.6" fill="#FFD800"/>
</svg>
