<svg width="300" height="300" viewBox="0 0 300 300" fill="none" xmlns="http://www.w3.org/2000/svg">
<rect width="300" height="300" fill="#FFF1D4"/>
<path d="M198.001 92.3999H140.4V169.2H207.6V92.3999H198.001Z" fill="#FFAF00"/>
<path d="M139.029 92.3999H130.8V159.6H140.4V92.3999H139.029Z" fill="#66331A"/>
<path d="M215.829 92.3999H207.6V169.2H217.2V92.3999H215.829Z" fill="#66331A"/>
<path d="M207.6 177.429L207.6 169.2L140.4 169.2L140.4 178.8L207.6 178.8L207.6 177.429Z" fill="#66331A"/>
<path d="M149.999 92.3999L207.6 92.3999L207.6 82.7999L140.4 82.7999L140.4 92.3999L149.999 92.3999Z" fill="#66331A"/>
<path d="M93.7712 102L102 102L102 92.4L92.4 92.4L92.4 102L93.7712 102Z" fill="#202020"/>
<path d="M103.371 102L111.6 102L111.6 92.4L102 92.4L102 102L103.371 102Z" fill="#202020"/>
<path d="M103.371 92.3999L111.6 92.3999L111.6 82.7999L102 82.7999L102 92.3999L103.371 92.3999Z" fill="#202020"/>
<path d="M103.371 111.6L111.6 111.6L111.6 102L102 102L102 111.6L103.371 111.6Z" fill="#202020"/>
<path d="M112.971 102L121.2 102L121.2 92.4L111.6 92.4L111.6 102L112.971 102Z" fill="#202020"/>
<path d="M170.571 111.6L178.8 111.6L178.8 102L169.2 102L169.2 111.6L170.571 111.6Z" fill="#9E481E"/>
<path d="M178.971 130.8L187.2 130.8L187.2 121.2L177.6 121.2L177.6 130.8L178.971 130.8Z" fill="#9E481E"/>
<path d="M170.571 140.4L178.8 140.4L178.8 130.8L169.2 130.8L169.2 140.4L170.571 140.4Z" fill="#9E481E"/>
<path d="M160.971 140.4L169.2 140.4L169.2 130.8L159.6 130.8L159.6 140.4L160.971 140.4Z" fill="#9E481E"/>
<path d="M170.571 150L178.8 150L178.8 140.4L169.2 140.4L169.2 150L170.571 150Z" fill="#9E481E"/>
<path d="M156.856 159.6L198 159.6L198 150L150 150L150 159.6L156.856 159.6Z" fill="#9E481E"/>
<path d="M156.856 121.2L198 121.2L198 111.6L150 111.6L150 121.2L156.856 121.2Z" fill="#9E481E"/>
<path d="M84.1713 102L92.4 102L92.4 92.4L82.8 92.4L82.8 102L84.1713 102Z" fill="#202020"/>
<path d="M74.5712 111.6L82.8 111.6L82.8 102L73.2 102L73.2 111.6L74.5712 111.6Z" fill="#202020"/>
<path d="M74.5712 121.2L82.8 121.2L82.8 111.6L73.2 111.6L73.2 121.2L74.5712 121.2Z" fill="#202020"/>
<path d="M201.429 198L193.2 198L193.2 207.6L202.8 207.6L202.8 198L201.429 198Z" fill="#202020"/>
<path d="M191.829 198L183.6 198L183.6 207.6L193.2 207.6L193.2 198L191.829 198Z" fill="#202020"/>
<path d="M191.829 207.6L183.6 207.6L183.6 217.2L193.2 217.2L193.2 207.6L191.829 207.6Z" fill="#202020"/>
<path d="M191.829 188.4L183.6 188.4L183.6 198L193.2 198L193.2 188.4L191.829 188.4Z" fill="#202020"/>
<path d="M182.229 198L174 198L174 207.6L183.6 207.6L183.6 198L182.229 198Z" fill="#202020"/>
<path d="M211.029 198L202.8 198L202.8 207.6L212.4 207.6L212.4 198L211.029 198Z" fill="#202020"/>
<path d="M220.629 188.4L212.4 188.4L212.4 198L222 198L222 188.4L220.629 188.4Z" fill="#202020"/>
<path d="M220.629 178.8L212.4 178.8L212.4 188.4L222 188.4L222 178.8L220.629 178.8Z" fill="#202020"/>
<path d="M145.201 140.4H87.6V207.6H154.8V140.4H145.201Z" fill="#0082E6"/>
<path d="M86.2288 140.4H78V207.6H87.6V140.4H86.2288Z" fill="#323796"/>
<path d="M163.029 140.4H154.8V207.6H164.4V140.4H163.029Z" fill="#323796"/>
<path d="M164.4 215.829L164.4 207.6L87.6 207.6L87.6 217.2L164.4 217.2L164.4 215.829Z" fill="#323796"/>
<path d="M145.201 188.402V150H135.602V159.602H125.999V169.201H116.401V159.602H106.802V150H97.1988V188.402H87.6V198H116.401V188.402H106.802V178.799H116.401V188.402H125.999V178.799H135.602V188.402H125.999V198H154.8V188.402H145.201Z" fill="white"/>
<path d="M97.1987 140.4L154.8 140.4L154.8 130.8L87.6 130.8L87.6 140.4L97.1987 140.4Z" fill="#323796"/>
</svg>
