<svg width="300" height="300" viewBox="0 0 300 300" fill="none" xmlns="http://www.w3.org/2000/svg">
<rect width="300" height="300" fill="#FFF7C5"/>
<rect x="92.3999" y="82.8" width="115.2" height="19.2" fill="#FFD800"/>
<rect x="217.2" y="92.3999" width="115.2" height="19.2" transform="rotate(90 217.2 92.3999)" fill="#0082E6"/>
<rect x="80.3999" y="108" width="108" height="109.2" fill="#FA500F"/>
<rect width="9.6" height="115.2" transform="matrix(-1 0 0 1 82.7998 102)" fill="#66331A"/>
<rect width="9.6" height="115.2" transform="matrix(-1 0 0 1 121.2 111.6)" fill="#66331A"/>
<rect width="9.6" height="115.2" transform="matrix(-1 0 0 1 159.6 111.6)" fill="#66331A"/>
<rect width="9.6" height="115.2" transform="matrix(1.19249e-08 -1 -1 -1.19249e-08 198 150)" fill="#66331A"/>
<rect width="9.59999" height="115.2" transform="matrix(1.19249e-08 -1 -1 -1.19249e-08 198 188.4)" fill="#66331A"/>
<path d="M159.6 178.798V140.4H150.004V149.996H140.4V159.599H130.804V149.996H121.2V140.4H111.596V178.798H102V188.402H130.804V178.798H121.2V169.202H130.804V178.798H140.4V169.202H150.004V178.798H140.4V188.402H169.204V178.798H159.6Z" fill="white"/>
<rect width="9.60001" height="115.2" transform="matrix(1.19249e-08 -1 -1 -1.19249e-08 198 226.8)" fill="#66331A"/>
<rect width="9.6" height="105.6" transform="matrix(1.19249e-08 -1 -1 -1.19249e-08 188.4 111.6)" fill="#66331A"/>
<rect width="9.60001" height="105.6" transform="matrix(-1 0 0 1 198 111.6)" fill="#66331A"/>
<rect width="9.60001" height="115.2" transform="matrix(-1 0 0 1 226.8 82.8)" fill="#66331A"/>
<rect width="9.6" height="9.6" transform="matrix(-1 0 0 1 92.3999 92.3999)" fill="#66331A"/>
<rect width="9.60001" height="9.6" transform="matrix(-1 0 0 1 198 102)" fill="#66331A"/>
<rect width="9.6" height="9.6" transform="matrix(-1 0 0 1 169.2 92.3999)" fill="#66331A"/>
<rect width="9.60001" height="9.6" transform="matrix(-1 0 0 1 207.6 130.8)" fill="#66331A"/>
<rect width="9.60001" height="9.60001" transform="matrix(-1 0 0 1 207.6 169.2)" fill="#66331A"/>
<rect width="9.60001" height="9.6" transform="matrix(-1 0 0 1 130.8 92.3999)" fill="#66331A"/>
<rect width="9.60001" height="9.59999" transform="matrix(-1 0 0 1 207.6 207.6)" fill="#66331A"/>
<rect width="9.6" height="9.6" transform="matrix(-1 0 0 1 102 82.8)" fill="#66331A"/>
<rect width="9.6" height="9.6" transform="matrix(-1 0 0 1 111.6 82.8)" fill="#66331A"/>
<rect width="9.60001" height="9.6" transform="matrix(-1 0 0 1 207.6 92.3999)" fill="#66331A"/>
<rect width="9.60001" height="9.6" transform="matrix(-1 0 0 1 178.8 82.8)" fill="#66331A"/>
<rect width="115.2" height="9.6" transform="matrix(-1 0 0 1 217.2 73.2)" fill="#9E481E"/>
<rect width="9.59999" height="9.6" transform="matrix(-1 0 0 1 188.4 82.8)" fill="#66331A"/>
<rect width="9.6" height="9.6" transform="matrix(-1 0 0 1 150 82.8)" fill="#66331A"/>
<rect width="9.59999" height="9.60001" transform="matrix(-1 0 0 1 217.2 121.2)" fill="#66331A"/>
<rect width="9.59999" height="9.6" transform="matrix(-1 0 0 1 217.2 159.6)" fill="#66331A"/>
<rect width="9.6" height="9.6" transform="matrix(-1 0 0 1 140.4 82.8)" fill="#66331A"/>
<rect width="9.59999" height="9.60001" transform="matrix(-1 0 0 1 217.2 198)" fill="#66331A"/>
<rect width="9.59999" height="9.6" transform="matrix(-1 0 0 1 217.2 82.8)" fill="#66331A"/>
</svg>
