<svg width="300" height="300" viewBox="0 0 300 300" fill="none" xmlns="http://www.w3.org/2000/svg">
<rect width="300" height="300" fill="#FFF0C3"/>
<path d="M183.6 68.3999H116.4V126H183.6V68.3999Z" fill="#8F9BB2"/>
<path d="M116.4 231.6H106.8V241.2H116.4V231.6Z" fill="#202020"/>
<path d="M116.4 222H106.8V231.6H116.4V222Z" fill="#3F4652"/>
<path d="M126 212.4H116.4V222H126V212.4Z" fill="#3F4652"/>
<path d="M126 231.6H116.4V241.2H126V231.6Z" fill="#202020"/>
<path d="M126 231.6H116.4V241.2H126V231.6Z" fill="#202020"/>
<path d="M135.6 231.6H126V241.2H135.6V231.6Z" fill="#202020"/>
<path d="M145.2 231.6H135.6V241.2H145.2V231.6Z" fill="#202020"/>
<path d="M154.8 231.6H145.2V241.2H154.8V231.6Z" fill="#202020"/>
<path d="M164.4 231.6H154.8V241.2H164.4V231.6Z" fill="#202020"/>
<path d="M174 231.6H164.4V241.2H174V231.6Z" fill="#202020"/>
<path d="M183.6 231.6H174V241.2H183.6V231.6Z" fill="#202020"/>
<path d="M183.6 231.6H174V241.2H183.6V231.6Z" fill="#202020"/>
<path d="M126 222H116.4V231.6H126V222Z" fill="#8F9BB2"/>
<path d="M126 222H116.4V231.6H126V222Z" fill="#5E6886"/>
<path d="M135.6 222H126V231.6H135.6V222Z" fill="#5E6886"/>
<path d="M145.2 222H135.6V231.6H145.2V222Z" fill="#8F9BB2"/>
<path d="M154.8 222H145.2V231.6H154.8V222Z" fill="#8F9BB2"/>
<path d="M164.4 222H154.8V231.6H164.4V222Z" fill="#8F9BB2"/>
<path d="M174 222H164.4V231.6H174V222Z" fill="#8F9BB2"/>
<path d="M183.6 222H174V231.6H183.6V222Z" fill="#8F9BB2"/>
<path d="M183.6 222H174V231.6H183.6V222Z" fill="#8F9BB2"/>
<path d="M193.2 231.6H183.6V241.2H193.2V231.6Z" fill="#202020"/>
<path d="M193.2 222H183.6V231.6H193.2V222Z" fill="#3F4652"/>
<path d="M183.6 212.4H174V222H183.6V212.4Z" fill="#3F4652"/>
<path d="M183.6 212.4H174V222H183.6V212.4Z" fill="#3F4652"/>
<path d="M174 212.4H164.4V222H174V212.4Z" fill="#3F4652"/>
<path d="M164.4 202.8H154.8V212.4H164.4V202.8Z" fill="#3F4652"/>
<path d="M145.2 212.4H135.6V222H145.2V212.4Z" fill="#3F4652"/>
<path d="M164.4 193.2H154.8V202.8H164.4V193.2Z" fill="#3F4652"/>
<path d="M154.8 212.4H145.2V222H154.8V212.4Z" fill="#3F4652"/>
<path d="M164.4 212.4H154.8V222H164.4V212.4Z" fill="#3F4652"/>
<path d="M135.6 212.4H126V222H135.6V212.4Z" fill="#3F4652"/>
<path d="M145.2 202.8H135.6V212.4H145.2V202.8Z" fill="#3F4652"/>
<path d="M154.8 202.8H145.2V212.4H154.8V202.8Z" fill="#8F9BB2"/>
<path d="M145.2 193.2H135.6V202.8H145.2V193.2Z" fill="#3F4652"/>
<path d="M154.8 193.2H145.2V202.8H154.8V193.2Z" fill="#8F9BB2"/>
<path d="M154.8 174H145.2V183.6H154.8V174Z" fill="#8F9BB2"/>
<path d="M145.2 174H135.6V183.6H145.2V174Z" fill="#3F4652"/>
<path d="M164.4 174H154.8V183.6H164.4V174Z" fill="#3F4652"/>
<path d="M145.2 183.6H135.6V193.2H145.2V183.6Z" fill="#202020"/>
<path d="M126 183.6H116.4V193.2H126V183.6Z" fill="#202020"/>
<path d="M135.6 183.6H126V193.2H135.6V183.6Z" fill="#202020"/>
<path d="M154.8 183.6H145.2V193.2H154.8V183.6Z" fill="#202020"/>
<path d="M164.4 183.6H154.8V193.2H164.4V183.6Z" fill="#202020"/>
<path d="M174 183.6H164.4V193.2H174V183.6Z" fill="#202020"/>
<path d="M183.6 183.6H174V193.2H183.6V183.6Z" fill="#202020"/>
<path d="M193.2 174H183.6V183.6H193.2V174Z" fill="#202020"/>
<path d="M202.8 164.4H193.2V174H202.8V164.4Z" fill="#202020"/>
<path d="M202.8 154.8H193.2V164.4H202.8V154.8Z" fill="#202020"/>
<path d="M202.8 145.2H193.2V154.8H202.8V145.2Z" fill="#202020"/>
<path d="M202.8 135.6H193.2V145.2H202.8V135.6Z" fill="#202020"/>
<path d="M202.8 126H193.2V135.6H202.8V126Z" fill="#202020"/>
<path d="M193.2 116.4H183.6V126H193.2V116.4Z" fill="#3F4652"/>
<path d="M193.2 106.8H183.6V116.4H193.2V106.8Z" fill="#3F4652"/>
<path d="M193.2 97.2H183.6V106.8H193.2V97.2Z" fill="#3F4652"/>
<path d="M193.2 87.6001H183.6V97.2001H193.2V87.6001Z" fill="#3F4652"/>
<path d="M193.2 78H183.6V87.6H193.2V78Z" fill="#3F4652"/>
<path d="M212.4 126H202.8V135.6H212.4V126Z" fill="#202020"/>
<path d="M106.8 164.4H97.2V174H106.8V164.4Z" fill="#202020"/>
<path d="M116.4 174H106.8V183.6H116.4V174Z" fill="#202020"/>
<path d="M106.8 154.8H97.2V164.4H106.8V154.8Z" fill="#202020"/>
<path d="M106.8 145.2H97.2V154.8H106.8V145.2Z" fill="#202020"/>
<path d="M106.8 135.6H97.2V145.2H106.8V135.6Z" fill="#202020"/>
<path d="M106.8 126H97.2V135.6H106.8V126Z" fill="#202020"/>
<path d="M116.4 126H106.8V135.6H116.4V126Z" fill="#202020"/>
<path d="M116.4 135.6H106.8V145.2H116.4V135.6Z" fill="#3F4652"/>
<path d="M145.2 164.4H135.6V174H145.2V164.4Z" fill="#3F4652"/>
<path d="M116.4 145.2H106.8V154.8H116.4V145.2Z" fill="#3F4652"/>
<path d="M126 154.8H116.4V164.4H126V154.8Z" fill="#3F4652"/>
<path d="M135.6 164.4H126V174H135.6V164.4Z" fill="#3F4652"/>
<path d="M154.8 164.4H145.2V174H154.8V164.4Z" fill="#3F4652"/>
<path d="M164.4 164.4H154.8V174H164.4V164.4Z" fill="#3F4652"/>
<path d="M174 164.4H164.4V174H174V164.4Z" fill="#3F4652"/>
<path d="M183.6 154.8H174V164.4H183.6V154.8Z" fill="#3F4652"/>
<path d="M193.2 145.2H183.6V154.8H193.2V145.2Z" fill="#3F4652"/>
<path d="M193.2 135.6H183.6V145.2H193.2V135.6Z" fill="#3F4652"/>
<path d="M116.4 116.4H106.8V126H116.4V116.4Z" fill="#3F4652"/>
<path d="M133.751 119.194H126.945V126H133.751V119.194Z" fill="#3F4652"/>
<path d="M140.555 119.194H133.749V126H140.555V119.194Z" fill="#3F4652"/>
<path d="M140.555 112.389H133.749V119.194H140.555V112.389Z" fill="#3F4652"/>
<path d="M140.555 105.583H133.749V112.389H140.555V105.583Z" fill="#3F4652"/>
<path d="M140.555 98.7776H133.749V105.583H140.555V98.7776Z" fill="#3F4652"/>
<path d="M140.555 91.9722H133.749V98.7777H140.555V91.9722Z" fill="#3F4652"/>
<path d="M147.361 98.7776H140.555V105.583H147.361V98.7776Z" fill="#3F4652"/>
<path d="M160.971 119.194H154.165V126H160.971V119.194Z" fill="#3F4652"/>
<path d="M147.361 119.194H140.555V126H147.361V119.194Z" fill="#3F4652"/>
<path d="M167.777 119.194H160.972V126H167.777V119.194Z" fill="#3F4652"/>
<path d="M147.361 105.583H140.555V112.389H147.361V105.583Z" fill="#3F4652"/>
<path d="M167.777 112.389H160.972V119.194H167.777V112.389Z" fill="#3F4652"/>
<path d="M167.777 105.583H160.972V112.389H167.777V105.583Z" fill="#3F4652"/>
<path d="M167.777 98.7776H160.972V105.583H167.777V98.7776Z" fill="#3F4652"/>
<path d="M167.777 91.9722H160.972V98.7777H167.777V91.9722Z" fill="#3F4652"/>
<path d="M179.676 90.343H172.87V97.1486H179.676V90.343Z" fill="#717C90"/>
<path d="M167.311 76.2124H160.506V83.018H167.311V76.2124Z" fill="#717C90"/>
<path d="M151.414 83.2778H144.609V90.0834H151.414V83.2778Z" fill="#B6BFD1"/>
<path d="M140.816 72.6797H134.011V79.4852H140.816V72.6797Z" fill="#717C90"/>
<path d="M131.985 83.2778H125.179V90.0834H131.985V83.2778Z" fill="#717C90"/>
<path d="M179.676 106.24H172.87V113.046H179.676V106.24Z" fill="#A9B1C1"/>
<path d="M130.218 106.24H123.413V113.046H130.218V106.24Z" fill="#717C90"/>
<path d="M124.919 93.8757H118.114V100.681H124.919V93.8757Z" fill="#5B6475"/>
<path d="M160.971 98.7776H154.165V105.583H160.971V98.7776Z" fill="#3F4652"/>
<path d="M154.165 105.583H147.359V112.389H154.165V105.583Z" fill="#3F4652"/>
<path d="M154.165 112.389H147.359V119.194H154.165V112.389Z" fill="#3F4652"/>
<path d="M160.971 105.583H154.165V112.389H160.971V105.583Z" fill="#3F4652"/>
<path d="M174.581 119.194H167.776V126H174.581V119.194Z" fill="#3F4652"/>
<path d="M116.4 106.8H106.8V116.4H116.4V106.8Z" fill="#3F4652"/>
<path d="M116.4 97.2H106.8V106.8H116.4V97.2Z" fill="#3F4652"/>
<path d="M145.2 58.8H135.6V68.4H145.2V58.8Z" fill="#5B6472"/>
<path d="M116.4 87.6001H106.8V97.2001H116.4V87.6001Z" fill="#3F4652"/>
<path d="M116.4 78H106.8V87.6H116.4V78Z" fill="#3F4652"/>
<path d="M126 68.3999H116.4V77.9999H126V68.3999Z" fill="#5B6472"/>
<path d="M135.6 58.8H126V68.4H135.6V58.8Z" fill="#5B6472"/>
<path d="M154.8 58.8H145.2V68.4H154.8V58.8Z" fill="#5B6472"/>
<path d="M145.2 126H135.6V135.6H145.2V126Z" fill="#202020"/>
<path d="M145.2 135.6H135.6V145.2H145.2V135.6Z" fill="#8F9BB2"/>
<path d="M145.2 135.6H135.6V145.2H145.2V135.6Z" fill="#8F9BB2"/>
<path d="M145.2 145.2H135.6V154.8H145.2V145.2Z" fill="#8F9BB2"/>
<path d="M145.2 154.8H135.6V164.4H145.2V154.8Z" fill="#8F9BB2"/>
<path d="M164.4 58.8H154.8V68.4H164.4V58.8Z" fill="#5B6472"/>
<path d="M174 58.8H164.4V68.4H174V58.8Z" fill="#5B6472"/>
<path d="M126 126H116.4V135.6H126V126Z" fill="#202020"/>
<path d="M135.6 126H126V135.6H135.6V126Z" fill="#202020"/>
<path d="M154.8 126H145.2V135.6H154.8V126Z" fill="#202020"/>
<path d="M164.4 126H154.8V135.6H164.4V126Z" fill="#202020"/>
<path d="M174 126H164.4V135.6H174V126Z" fill="#202020"/>
<path d="M183.6 126H174V135.6H183.6V126Z" fill="#202020"/>
<path d="M183.6 68.3999H174V77.9999H183.6V68.3999Z" fill="#5B6472"/>
<path d="M126 135.6H116.4V145.2H126V135.6Z" fill="#8F9BB2"/>
<path d="M126 135.6H116.4V145.2H126V135.6Z" fill="#5E6886"/>
<path d="M135.6 135.6H126V145.2H135.6V135.6Z" fill="#8F9BB2"/>
<path d="M126 145.2H116.4V154.8H126V145.2Z" fill="#5E6886"/>
<path d="M154.8 135.6H145.2V145.2H154.8V135.6Z" fill="#8F9BB2"/>
<path d="M135.6 135.6H126V145.2H135.6V135.6Z" fill="#8F9BB2"/>
<path d="M135.6 145.2H126V154.8H135.6V145.2Z" fill="#8F9BB2"/>
<path d="M135.6 154.8H126V164.4H135.6V154.8Z" fill="#5E6886"/>
<path d="M164.4 135.6H154.8V145.2H164.4V135.6Z" fill="#8F9BB2"/>
<path d="M154.8 135.6H145.2V145.2H154.8V135.6Z" fill="#8F9BB2"/>
<path d="M174 135.6H164.4V145.2H174V135.6Z" fill="#8F9BB2"/>
<path d="M154.8 145.2H145.2V154.8H154.8V145.2Z" fill="#9FDA44"/>
<path d="M154.8 154.8H145.2V164.4H154.8V154.8Z" fill="#8F9BB2"/>
<path d="M183.6 135.6H174V145.2H183.6V135.6Z" fill="#8F9BB2"/>
<path d="M164.4 135.6H154.8V145.2H164.4V135.6Z" fill="#8F9BB2"/>
<path d="M164.4 145.2H154.8V154.8H164.4V145.2Z" fill="#8F9BB2"/>
<path d="M164.4 154.8H154.8V164.4H164.4V154.8Z" fill="#8F9BB2"/>
<path d="M174 135.6H164.4V145.2H174V135.6Z" fill="#8F9BB2"/>
<path d="M174 145.2H164.4V154.8H174V145.2Z" fill="#8F9BB2"/>
<path d="M174 154.8H164.4V164.4H174V154.8Z" fill="#8F9BB2"/>
<path d="M183.6 135.6H174V145.2H183.6V135.6Z" fill="#8F9BB2"/>
<path d="M183.6 145.2H174V154.8H183.6V145.2Z" fill="#8F9BB2"/>
<path d="M193.2 126H183.6V135.6H193.2V126Z" fill="#202020"/>
<path d="M97.2001 126H87.6001V135.6H97.2001V126Z" fill="#202020"/>
<path d="M126 212.4H116.4V222H126V212.4Z" fill="#3F4652"/>
</svg>
