<svg width="300" height="300" viewBox="0 0 300 300" fill="none" xmlns="http://www.w3.org/2000/svg">
<rect width="300" height="300" fill="#FFF7C5"/>
<rect x="92.4" y="82.8" width="115.2" height="96" fill="#E1B496"/>
<rect x="102" y="92.3999" width="96" height="76.8" fill="#202020"/>
<rect width="96" height="9.6" transform="matrix(1 0 0 -1 102 188.4)" fill="#B36843"/>
<rect width="115.2" height="28.8" transform="matrix(1 0 0 -1 92.4 217.2)" fill="#E1B496"/>
<rect width="38.4" height="9.6" transform="matrix(1 0 0 -1 102 207.6)" fill="#66331A"/>
<rect width="9.6" height="9.6" transform="matrix(1 0 0 -1 188.4 207.6)" fill="#66331A"/>
<rect x="126" y="106.8" width="9.6" height="9.6" fill="#FFD700"/>
<rect x="164.4" y="106.8" width="9.6" height="9.6" fill="#FFD700"/>
<rect x="145.2" y="135.6" width="9.6" height="9.6" fill="#FA500F"/>
<rect x="126" y="135.6" width="9.6" height="9.6" fill="#FA500F"/>
<rect x="164.4" y="135.6" width="9.6" height="9.6" fill="#FA500F"/>
<rect x="126" y="116.4" width="19.2" height="9.6" fill="#FFAF00"/>
<rect x="116.4" y="145.2" width="28.8" height="9.6" fill="#E92700"/>
<rect x="154.8" y="145.2" width="28.8" height="9.6" fill="#E92700"/>
<rect x="126" y="126" width="48" height="9.6" fill="#FF8205"/>
<rect x="154.8" y="116.4" width="19.2" height="9.6" fill="#FFAF00"/>
</svg>
