<svg width="145" height="145" viewBox="0 0 145 145" fill="none" xmlns="http://www.w3.org/2000/svg">
<rect x="17.733" width="128" height="128" rx="4" transform="rotate(7.96332 17.733 0)" fill="#E1E7FD"/>
<rect x="18.1339" y="0.531245" width="127.059" height="127.059" rx="3.52941" transform="rotate(7.96332 18.1339 0.531245)" stroke="black" stroke-opacity="0.15" stroke-width="0.941176"/>
<rect x="55.3717" y="45.073" width="45.056" height="12.288" transform="rotate(7.96332 55.3717 45.073)" fill="#DFDFDF"/>
<rect x="49.6129" y="56.675" width="49.152" height="32.768" transform="rotate(7.96332 49.6129 56.675)" fill="#202020"/>
<rect x="57.3395" y="49.4841" width="4.096" height="4.096" transform="rotate(7.96332 57.3395 49.4841)" fill="#E10500"/>
<rect x="64.9454" y="50.5481" width="4.096" height="4.096" transform="rotate(7.96332 64.9454 50.5481)" fill="#FF8205"/>
<rect x="73.0585" y="51.6831" width="4.096" height="4.096" transform="rotate(7.96332 73.0585 51.6831)" fill="#00A514"/>
<rect x="99.9933" y="51.3152" width="4.096" height="49.152" transform="rotate(7.96332 99.9933 51.3152)" fill="#202020"/>
<rect x="55.3717" y="45.073" width="4.096" height="4.096" transform="rotate(7.96332 55.3717 45.073)" fill="#C8C8C8"/>
<rect x="95.9366" y="50.7476" width="4.096" height="4.096" transform="rotate(7.96332 95.9366 50.7476)" fill="#C8C8C8"/>
<rect x="50.7477" y="48.562" width="4.096" height="4.096" transform="rotate(7.96332 50.7477 48.562)" fill="#C8C8C8"/>
<rect x="51.3153" y="44.5056" width="4.096" height="4.096" transform="rotate(7.96332 51.3153 44.5056)" fill="#C8C8C8"/>
<rect x="47.2586" y="43.9382" width="4.096" height="49.152" transform="rotate(7.96332 47.2586 43.9382)" fill="#474747"/>
<rect x="93.1837" y="99.9932" width="4.096" height="49.152" transform="rotate(97.9633 93.1837 99.9932)" fill="#202020"/>
<rect x="51.8827" y="40.4492" width="49.152" height="4.096" transform="rotate(7.96332 51.8827 40.4492)" fill="#5B6472"/>
<rect x="50.1803" y="52.6187" width="4.096" height="4.096" transform="rotate(7.96332 50.1803 52.6187)" fill="#C8C8C8"/>
<rect x="45.0731" y="89.1272" width="49.152" height="4.096" transform="rotate(7.96332 45.0731 89.1272)" fill="#202020"/>
<path d="M80.7983 81.8898L82.444 70.1254L79.4722 69.7097L79.0606 72.6527L76.0913 72.2373L75.68 75.1778L72.7108 74.7624L73.1221 71.822L70.1529 71.4066L70.5646 68.4636L67.5954 68.0483L65.9497 79.8126L62.9779 79.3969L62.5666 82.3374L71.4768 83.5838L71.8881 80.6434L68.9189 80.228L69.3303 77.2875L72.2995 77.7029L71.8881 80.6434L74.8573 81.0587L75.2687 78.1183L78.2379 78.5336L77.8265 81.4741L74.8573 81.0587L74.446 83.9992L83.3562 85.2456L83.7675 82.3051L80.7983 81.8898Z" fill="white"/>
<rect x="54.5626" y="65.6394" width="3.072" height="3.072" transform="rotate(7.96332 54.5626 65.6394)" fill="white"/>
<rect x="57.1795" y="69.1072" width="3.072" height="3.072" transform="rotate(7.96332 57.1795 69.1072)" fill="white"/>
<rect x="59.7962" y="72.5752" width="3.072" height="3.072" transform="rotate(7.96332 59.7962 72.5752)" fill="white"/>
<rect x="56.3282" y="75.1921" width="3.072" height="3.072" transform="rotate(7.96332 56.3282 75.1921)" fill="white"/>
<rect x="52.8602" y="77.8088" width="3.072" height="3.072" transform="rotate(7.96332 52.8602 77.8088)" fill="white"/>
</svg>
