<svg width="300" height="300" viewBox="0 0 300 300" fill="none" xmlns="http://www.w3.org/2000/svg">
<rect width="300" height="300" fill="#FFF0C3"/>
<path d="M130.802 63.6001H121.202V73.2001H130.802V63.6001Z" fill="#9E481E"/>
<path d="M140.404 63.6001H130.8V73.2034H140.404V63.6001Z" fill="#FA500F"/>
<path d="M150.004 63.6001H140.4V73.2034H150.004V63.6001Z" fill="#FFD800"/>
<path d="M150.004 63.6001H140.4V73.2034H150.004V63.6001Z" fill="#FF8205"/>
<path d="M159.604 63.6001H150V73.2034H159.604V63.6001Z" fill="#46BE00"/>
<path d="M159.604 63.6001H150V73.2034H159.604V63.6001Z" fill="#FFAF00"/>
<path d="M169.204 63.6001H159.6V73.2034H169.204V63.6001Z" fill="#0082E6"/>
<path d="M178.802 63.6001H169.202V73.2001H178.802V63.6001Z" fill="#323796"/>
<path d="M121.204 73.2H111.6V82.8033H121.204V73.2Z" fill="#9E481E"/>
<path d="M130.802 73.2H121.202V82.7999H130.802V73.2Z" fill="#FA500F"/>
<path d="M159.604 73.2H140.404V169.2H159.604V73.2Z" fill="#FFD800"/>
<path d="M178.804 73.2H169.2V82.8033H178.804V73.2Z" fill="#0082E6"/>
<path d="M178.8 73.2H188.404V82.8033H178.8V73.2Z" fill="#323796"/>
<path d="M111.602 82.8H101.998V92.4034H111.602V82.8Z" fill="#9E481E"/>
<path d="M121.202 82.8H111.602V102H121.202V82.8Z" fill="#FA500F"/>
<path d="M130.8 82.8H121.2V111.6H130.8V82.8Z" fill="#FF8205"/>
<path d="M140.4 82.8H130.8V159.6H140.4V82.8Z" fill="#FFD800"/>
<path d="M169.2 82.8H159.6V159.6H169.2V82.8Z" fill="#FFD800"/>
<path d="M169.204 82.8H178.804V111.6H169.204V82.8Z" fill="#46BE00"/>
<path d="M178.802 82.8H188.402V102H178.802V82.8Z" fill="#0082E6"/>
<path d="M188.402 82.8H198.006V92.4034H188.402V82.8Z" fill="#323796"/>
<path d="M102 92.3999H92.3999V111.6H102V92.3999Z" fill="#9E481E"/>
<path d="M111.6 92.3999H102V150H111.6V92.3999Z" fill="#FA500F"/>
<path d="M188.404 92.3999H198.004V150H188.404V92.3999Z" fill="#0082E6"/>
<path d="M198.004 92.3999H207.604V111.6H198.004V92.3999Z" fill="#323796"/>
<path d="M121.202 102H111.602V111.6H121.202V102Z" fill="#FF8205"/>
<path d="M178.804 102H188.404V140.4H178.804V102Z" fill="#46BE00"/>
<path d="M92.4001 111.6H82.8V130.8H92.4001V111.6Z" fill="#9E481E"/>
<path d="M102 111.6H92.3999V130.8H102V111.6Z" fill="#E92700"/>
<path d="M121.2 111.6H111.6V140.4H121.2V111.6Z" fill="#FF8205"/>
<path d="M130.8 111.6H121.2V130.8H130.8V111.6Z" fill="#FF8205"/>
<path d="M178.8 111.6H169.2V130.8H178.8V111.6Z" fill="#46BE00"/>
<path d="M198.004 111.6H207.604V130.8H198.004V111.6Z" fill="#0082E6"/>
<path d="M207.604 111.6H217.204V130.8H207.604V111.6Z" fill="#323796"/>
<path d="M102 130.8H92.3999V150H102V130.8Z" fill="#9E481E"/>
<path d="M198.004 130.8H207.604V150H198.004V130.8Z" fill="#323796"/>
<path d="M130.802 130.803H121.202V169.203H130.802V130.803Z" fill="#FF8205"/>
<path d="M169.202 130.803H178.802V169.203H169.202V130.803Z" fill="#46BE00"/>
<path d="M121.2 140.4H111.6V159.6H121.2V140.4Z" fill="#FA500F"/>
<path d="M178.804 140.4H188.404V159.6H178.804V140.4Z" fill="#0082E6"/>
<path d="M111.602 150H101.998V159.603H111.602V150Z" fill="#9E481E"/>
<path d="M188.402 150H198.006V159.603H188.402V150Z" fill="#323796"/>
<path d="M140.402 150.003H130.802V169.203H140.402V150.003Z" fill="#FF8205"/>
<path d="M159.602 150.003H169.202V169.203H159.602V150.003Z" fill="#46BE00"/>
<path d="M121.202 159.6H111.598V169.203H121.202V159.6Z" fill="#9E481E"/>
<path d="M178.802 159.6H188.406V169.203H178.802V159.6Z" fill="#323796"/>
<path d="M130.804 169.2H121.2V178.803H130.804V169.2Z" fill="#FA500F"/>
<path d="M140.404 169.2H130.8V178.803H140.404V169.2Z" fill="#FF8205"/>
<path d="M150.004 169.2H140.4V178.803H150.004V169.2Z" fill="#FFD800"/>
<path d="M150.004 169.2H140.4V178.803H150.004V169.2Z" fill="#FF8205"/>
<path d="M159.604 169.2H150V178.803H159.604V169.2Z" fill="#46BE00"/>
<path d="M159.604 169.2H150V178.803H159.604V169.2Z" fill="#FFD800"/>
<path d="M169.204 169.2H159.6V178.803H169.204V169.2Z" fill="#FA500F"/>
<path d="M169.204 169.2H159.6V178.803H169.204V169.2Z" fill="#46BE00"/>
<path d="M178.804 169.2H169.2V178.803H178.804V169.2Z" fill="#0082E6"/>
<path d="M174 178.8H126V188.4H174V178.8Z" fill="#66331A"/>
<path d="M140.404 188.4H130.8V198.003H140.404V188.4Z" fill="#E1B496"/>
<path d="M169.204 188.4H159.6V198.003H169.204V188.4Z" fill="#E1B496"/>
<path d="M168.859 227.761L168.859 198L161.312 198L161.312 205.445L153.771 205.445L153.771 212.884L146.23 212.884L146.23 205.445L138.689 205.445L138.689 198L131.148 198L131.148 227.761L123.6 227.761L123.6 235.2L146.23 235.2L146.23 227.761L138.689 227.761L138.689 220.323L146.23 220.323L146.23 227.761L153.771 227.761L153.771 220.323L161.312 220.323L161.312 227.761L153.771 227.761L153.771 235.2L176.4 235.2L176.4 227.761L168.859 227.761Z" fill="#66331A"/>
<path d="M140.402 73.2H130.802V92.4H140.402V73.2Z" fill="#FF8205"/>
<path d="M159.602 73.2H169.202V92.4H159.602V73.2Z" fill="#46BE00"/>
</svg>
