<svg width="65" height="65" viewBox="0 0 65 65" fill="none" xmlns="http://www.w3.org/2000/svg">
<rect width="65" height="65" rx="2.03125" fill="#FFF7C5"/>
<rect x="0.5" y="0.5" width="64" height="64" rx="1.53125" stroke="black" stroke-opacity="0.15"/>
<rect x="17.8" y="15.3506" width="29.3999" height="24.4999" fill="#E1B496"/>
<rect x="20.2501" y="17.8003" width="24.4999" height="19.5999" fill="#202020"/>
<rect width="24.4999" height="2.44999" transform="matrix(1 0 0 -1 20.2501 42.3003)" fill="#B36843"/>
<rect width="29.3999" height="7.34998" transform="matrix(1 0 0 -1 17.8 49.6504)" fill="#E1B496"/>
<rect width="9.79997" height="2.44999" transform="matrix(1 0 0 -1 20.2501 47.2002)" fill="#66331A"/>
<rect width="2.44999" height="2.44999" transform="matrix(1 0 0 -1 42.3 47.2002)" fill="#66331A"/>
<rect x="26.375" y="21.4756" width="2.44999" height="2.44999" fill="#FFD700"/>
<rect x="36.175" y="21.4756" width="2.44999" height="2.44999" fill="#FFD700"/>
<rect x="31.275" y="28.8252" width="2.44999" height="2.44999" fill="#FA500F"/>
<rect x="26.375" y="28.8252" width="2.44999" height="2.44999" fill="#FA500F"/>
<rect x="36.175" y="28.8252" width="2.44999" height="2.44999" fill="#FA500F"/>
<rect x="26.375" y="23.9253" width="4.89998" height="2.44999" fill="#FFAF00"/>
<rect x="23.925" y="31.2754" width="7.34998" height="2.44999" fill="#E92700"/>
<rect x="33.725" y="31.2754" width="7.34998" height="2.44999" fill="#E92700"/>
<rect x="26.375" y="26.3755" width="12.25" height="2.44999" fill="#FF8205"/>
<rect x="33.725" y="23.9253" width="4.89999" height="2.44999" fill="#FFAF00"/>
</svg>
