<svg width="128" height="128" viewBox="0 0 128 128" fill="none" xmlns="http://www.w3.org/2000/svg">
<rect width="128" height="128" rx="4" fill="#322518"/>
<rect x="39.4231" y="35.3281" width="49.152" height="8.192" fill="#FFD800"/>
<rect x="92.6711" y="39.4241" width="49.152" height="8.192" transform="rotate(90 92.6711 39.4241)" fill="#0082E6"/>
<rect x="34.303" y="46.0801" width="46.08" height="46.592" fill="#FA500F"/>
<rect width="4.096" height="49.152" transform="matrix(-1 0 0 1 35.3271 43.52)" fill="#66331A"/>
<rect width="4.096" height="49.152" transform="matrix(-1 0 0 1 51.7109 47.616)" fill="#66331A"/>
<rect width="4.096" height="49.152" transform="matrix(-1 0 0 1 68.0952 47.616)" fill="#66331A"/>
<rect width="4.096" height="49.152" transform="matrix(1.19249e-08 -1 -1 -1.19249e-08 84.479 64)" fill="#66331A"/>
<rect width="4.096" height="49.152" transform="matrix(1.19249e-08 -1 -1 -1.19249e-08 84.479 80.384)" fill="#66331A"/>
<path d="M68.095 76.2873V59.9041H64.0006V63.9983H59.903V68.0957H55.8086V63.9983H51.711V59.9041H47.6134V76.2873H43.519V80.3848H55.8086V76.2873H51.711V72.1931H55.8086V76.2873H59.903V72.1931H64.0006V76.2873H59.903V80.3848H72.1927V76.2873H68.095Z" fill="white"/>
<rect width="4.096" height="49.152" transform="matrix(1.19249e-08 -1 -1 -1.19249e-08 84.479 96.7681)" fill="#66331A"/>
<rect width="4.096" height="45.056" transform="matrix(1.19249e-08 -1 -1 -1.19249e-08 80.3831 47.616)" fill="#66331A"/>
<rect width="4.096" height="45.056" transform="matrix(-1 0 0 1 84.479 47.616)" fill="#66331A"/>
<rect width="4.096" height="49.152" transform="matrix(-1 0 0 1 96.7671 35.3281)" fill="#66331A"/>
<rect width="4.096" height="4.096" transform="matrix(-1 0 0 1 39.4231 39.4241)" fill="#66331A"/>
<rect width="4.096" height="4.096" transform="matrix(-1 0 0 1 84.479 43.52)" fill="#66331A"/>
<rect width="4.096" height="4.096" transform="matrix(-1 0 0 1 72.1912 39.4241)" fill="#66331A"/>
<rect width="4.096" height="4.096" transform="matrix(-1 0 0 1 88.5752 55.8081)" fill="#66331A"/>
<rect width="4.096" height="4.096" transform="matrix(-1 0 0 1 88.5752 72.1921)" fill="#66331A"/>
<rect width="4.096" height="4.096" transform="matrix(-1 0 0 1 55.8071 39.4241)" fill="#66331A"/>
<rect width="4.096" height="4.096" transform="matrix(-1 0 0 1 88.5752 88.5762)" fill="#66331A"/>
<rect width="4.096" height="4.096" transform="matrix(-1 0 0 1 43.519 35.3281)" fill="#66331A"/>
<rect width="4.096" height="4.096" transform="matrix(-1 0 0 1 47.615 35.3281)" fill="#66331A"/>
<rect width="4.096" height="4.096" transform="matrix(-1 0 0 1 88.5752 39.4241)" fill="#66331A"/>
<rect width="4.096" height="4.096" transform="matrix(-1 0 0 1 76.2871 35.3281)" fill="#66331A"/>
<rect width="49.152" height="4.096" transform="matrix(-1 0 0 1 92.6711 31.2319)" fill="#9E481E"/>
<rect width="4.096" height="4.096" transform="matrix(-1 0 0 1 80.3831 35.3281)" fill="#66331A"/>
<rect width="4.096" height="4.096" transform="matrix(-1 0 0 1 63.999 35.3281)" fill="#66331A"/>
<rect width="4.096" height="4.096" transform="matrix(-1 0 0 1 92.6711 51.7119)" fill="#66331A"/>
<rect width="4.096" height="4.096" transform="matrix(-1 0 0 1 92.6711 68.0962)" fill="#66331A"/>
<rect width="4.096" height="4.096" transform="matrix(-1 0 0 1 59.9031 35.3281)" fill="#66331A"/>
<rect width="4.096" height="4.096" transform="matrix(-1 0 0 1 92.6711 84.48)" fill="#66331A"/>
<rect width="4.096" height="4.096" transform="matrix(-1 0 0 1 92.6711 35.3281)" fill="#66331A"/>
</svg>
