<svg width="145" height="145" viewBox="0 0 145 145" fill="none" xmlns="http://www.w3.org/2000/svg">
<rect x="17.733" width="128" height="128" rx="4" transform="rotate(7.96332 17.733 0)" fill="#3F2FCF" fill-opacity="0.25"/>
<rect x="55.3707" y="45.073" width="45.056" height="12.288" transform="rotate(7.96332 55.3707 45.073)" fill="#DFDFDF"/>
<rect x="49.6119" y="56.675" width="49.152" height="32.768" transform="rotate(7.96332 49.6119 56.675)" fill="#202020"/>
<rect x="57.3385" y="49.4841" width="4.096" height="4.096" transform="rotate(7.96332 57.3385 49.4841)" fill="#E10500"/>
<rect x="64.9444" y="50.5481" width="4.096" height="4.096" transform="rotate(7.96332 64.9444 50.5481)" fill="#FF8205"/>
<rect x="73.0577" y="51.6831" width="4.096" height="4.096" transform="rotate(7.96332 73.0577 51.6831)" fill="#00A514"/>
<rect x="99.9923" y="51.3152" width="4.096" height="49.152" transform="rotate(7.96332 99.9923 51.3152)" fill="#202020"/>
<rect x="55.3707" y="45.073" width="4.096" height="4.096" transform="rotate(7.96332 55.3707 45.073)" fill="#C8C8C8"/>
<rect x="95.9357" y="50.7476" width="4.096" height="4.096" transform="rotate(7.96332 95.9357 50.7476)" fill="#C8C8C8"/>
<rect x="50.7467" y="48.562" width="4.096" height="4.096" transform="rotate(7.96332 50.7467 48.562)" fill="#C8C8C8"/>
<rect x="51.3143" y="44.5056" width="4.096" height="4.096" transform="rotate(7.96332 51.3143 44.5056)" fill="#C8C8C8"/>
<rect x="47.2577" y="43.9382" width="4.096" height="49.152" transform="rotate(7.96332 47.2577 43.9382)" fill="#474747"/>
<rect x="93.1827" y="99.9932" width="4.096" height="49.152" transform="rotate(97.9633 93.1827 99.9932)" fill="#202020"/>
<rect x="51.8817" y="40.4492" width="49.152" height="4.096" transform="rotate(7.96332 51.8817 40.4492)" fill="#5B6472"/>
<rect x="50.1793" y="52.6187" width="4.096" height="4.096" transform="rotate(7.96332 50.1793 52.6187)" fill="#C8C8C8"/>
<rect x="45.0721" y="89.1272" width="49.152" height="4.096" transform="rotate(7.96332 45.0721 89.1272)" fill="#202020"/>
<path d="M80.7973 81.8898L82.443 70.1254L79.4713 69.7097L79.0596 72.6527L76.0904 72.2373L75.679 75.1778L72.7098 74.7624L73.1212 71.822L70.1519 71.4066L70.5636 68.4636L67.5944 68.0483L65.9487 79.8126L62.977 79.3969L62.5656 82.3374L71.4758 83.5838L71.8872 80.6434L68.9179 80.228L69.3293 77.2875L72.2985 77.7029L71.8872 80.6434L74.8564 81.0587L75.2677 78.1183L78.2369 78.5336L77.8256 81.4741L74.8564 81.0587L74.445 83.9992L83.3552 85.2456L83.7665 82.3051L80.7973 81.8898Z" fill="white"/>
<rect x="54.5616" y="65.6394" width="3.072" height="3.072" transform="rotate(7.96332 54.5616 65.6394)" fill="white"/>
<rect x="57.1783" y="69.1072" width="3.072" height="3.072" transform="rotate(7.96332 57.1783 69.1072)" fill="white"/>
<rect x="59.795" y="72.5752" width="3.072" height="3.072" transform="rotate(7.96332 59.795 72.5752)" fill="white"/>
<rect x="56.3273" y="75.1921" width="3.072" height="3.072" transform="rotate(7.96332 56.3273 75.1921)" fill="white"/>
<rect x="52.8592" y="77.8088" width="3.072" height="3.072" transform="rotate(7.96332 52.8592 77.8088)" fill="white"/>
</svg>
