<svg width="128" height="128" viewBox="0 0 128 128" fill="none" xmlns="http://www.w3.org/2000/svg">
<rect width="128" height="128" rx="4" fill="#FFF7C5"/>
<rect x="0.470588" y="0.470588" width="127.059" height="127.059" rx="3.52941" stroke="black" stroke-opacity="0.15" stroke-width="0.941176"/>
<rect x="39.4241" y="35.3281" width="49.152" height="8.192" fill="#FFD800"/>
<rect x="92.6721" y="39.4241" width="49.152" height="8.192" transform="rotate(90 92.6721 39.4241)" fill="#0082E6"/>
<rect x="34.304" y="46.0801" width="46.08" height="46.592" fill="#FA500F"/>
<rect width="4.096" height="49.152" transform="matrix(-1 0 0 1 35.3281 43.52)" fill="#66331A"/>
<rect width="4.096" height="49.152" transform="matrix(-1 0 0 1 51.7119 47.616)" fill="#66331A"/>
<rect width="4.096" height="49.152" transform="matrix(-1 0 0 1 68.0962 47.616)" fill="#66331A"/>
<rect width="4.096" height="49.152" transform="matrix(1.19249e-08 -1 -1 -1.19249e-08 84.48 64)" fill="#66331A"/>
<rect width="4.096" height="49.152" transform="matrix(1.19249e-08 -1 -1 -1.19249e-08 84.48 80.384)" fill="#66331A"/>
<path d="M68.096 76.2873V59.9041H64.0016V63.9983H59.904V68.0957H55.8096V63.9983H51.712V59.9041H47.6144V76.2873H43.52V80.3848H55.8096V76.2873H51.712V72.1931H55.8096V76.2873H59.904V72.1931H64.0016V76.2873H59.904V80.3848H72.1936V76.2873H68.096Z" fill="white"/>
<rect width="4.096" height="49.152" transform="matrix(1.19249e-08 -1 -1 -1.19249e-08 84.48 96.7681)" fill="#66331A"/>
<rect width="4.096" height="45.056" transform="matrix(1.19249e-08 -1 -1 -1.19249e-08 80.384 47.616)" fill="#66331A"/>
<rect width="4.096" height="45.056" transform="matrix(-1 0 0 1 84.48 47.616)" fill="#66331A"/>
<rect width="4.096" height="49.152" transform="matrix(-1 0 0 1 96.7681 35.3281)" fill="#66331A"/>
<rect width="4.096" height="4.096" transform="matrix(-1 0 0 1 39.4241 39.4241)" fill="#66331A"/>
<rect width="4.096" height="4.096" transform="matrix(-1 0 0 1 84.48 43.52)" fill="#66331A"/>
<rect width="4.096" height="4.096" transform="matrix(-1 0 0 1 72.1921 39.4241)" fill="#66331A"/>
<rect width="4.096" height="4.096" transform="matrix(-1 0 0 1 88.5762 55.8081)" fill="#66331A"/>
<rect width="4.096" height="4.096" transform="matrix(-1 0 0 1 88.5762 72.1921)" fill="#66331A"/>
<rect width="4.096" height="4.096" transform="matrix(-1 0 0 1 55.8081 39.4241)" fill="#66331A"/>
<rect width="4.096" height="4.096" transform="matrix(-1 0 0 1 88.5762 88.5762)" fill="#66331A"/>
<rect width="4.096" height="4.096" transform="matrix(-1 0 0 1 43.52 35.3281)" fill="#66331A"/>
<rect width="4.096" height="4.096" transform="matrix(-1 0 0 1 47.616 35.3281)" fill="#66331A"/>
<rect width="4.096" height="4.096" transform="matrix(-1 0 0 1 88.5762 39.4241)" fill="#66331A"/>
<rect width="4.096" height="4.096" transform="matrix(-1 0 0 1 76.2881 35.3281)" fill="#66331A"/>
<rect width="49.152" height="4.096" transform="matrix(-1 0 0 1 92.6721 31.2319)" fill="#9E481E"/>
<rect width="4.096" height="4.096" transform="matrix(-1 0 0 1 80.384 35.3281)" fill="#66331A"/>
<rect width="4.096" height="4.096" transform="matrix(-1 0 0 1 64 35.3281)" fill="#66331A"/>
<rect width="4.096" height="4.096" transform="matrix(-1 0 0 1 92.6721 51.7119)" fill="#66331A"/>
<rect width="4.096" height="4.096" transform="matrix(-1 0 0 1 92.6721 68.0962)" fill="#66331A"/>
<rect width="4.096" height="4.096" transform="matrix(-1 0 0 1 59.9041 35.3281)" fill="#66331A"/>
<rect width="4.096" height="4.096" transform="matrix(-1 0 0 1 92.6721 84.48)" fill="#66331A"/>
<rect width="4.096" height="4.096" transform="matrix(-1 0 0 1 92.6721 35.3281)" fill="#66331A"/>
</svg>
