<svg width="300" height="300" viewBox="0 0 300 300" fill="none" xmlns="http://www.w3.org/2000/svg">
<rect width="300" height="300" fill="#FFF0C3"/>
<rect x="73.2002" y="207.6" width="144" height="9.6" fill="#1C2175"/>
<rect x="92.3999" y="198" width="115.2" height="9.6" fill="#005EA6"/>
<rect x="102" y="188.4" width="105.6" height="9.6" fill="#005EA6"/>
<rect x="102" y="178.8" width="86.4" height="9.6" fill="#005EA6"/>
<rect x="121.2" y="169.2" width="67.2" height="9.6" fill="#005EA6"/>
<rect x="73.2002" y="207.6" width="9.6" height="9.6" fill="#1C2175"/>
<rect x="82.7998" y="198" width="9.6" height="9.6" fill="#0082E6"/>
<rect x="92.3999" y="188.4" width="9.6" height="9.6" fill="#0082E6"/>
<rect x="73.2002" y="198" width="9.6" height="9.6" fill="#0082E6"/>
<rect x="82.7998" y="188.4" width="9.6" height="9.6" fill="#0082E6"/>
<rect x="82.7998" y="178.8" width="9.6" height="9.6" fill="#0082E6"/>
<rect x="92.3999" y="169.2" width="9.6" height="9.6" fill="#0082E6"/>
<rect x="92.3999" y="178.8" width="9.6" height="9.6" fill="#0082E6"/>
<rect x="92.3999" y="159.6" width="9.6" height="9.6" fill="#0082E6"/>
<rect x="102" y="150" width="9.6" height="9.6" fill="#0082E6"/>
<rect x="102" y="140.4" width="9.6" height="9.6" fill="#0082E6"/>
<rect x="111.6" y="130.8" width="9.6" height="9.6" fill="#0082E6"/>
<rect x="121.2" y="130.8" width="9.6" height="9.6" fill="white"/>
<rect x="130.8" y="130.8" width="9.6" height="9.6" fill="#0082E6"/>
<rect x="121.2" y="140.4" width="9.6" height="9.6" fill="#0082E6"/>
<rect x="121.2" y="150" width="9.6" height="9.6" fill="#0082E6"/>
<rect x="111.6" y="159.6" width="9.6" height="9.6" fill="#005EA6"/>
<rect x="130.8" y="140.4" width="9.6" height="9.6" fill="#0082E6"/>
<rect x="130.8" y="150" width="9.6" height="9.6" fill="#0082E6"/>
<rect x="140.4" y="150" width="9.6" height="9.6" fill="#0082E6"/>
<rect x="140.4" y="140.4" width="9.6" height="9.6" fill="#0082E6"/>
<rect x="140.4" y="130.8" width="9.6" height="9.6" fill="#0082E6"/>
<rect x="150" y="140.4" width="9.6" height="19.2" fill="#0082E6"/>
<rect x="150" y="150" width="9.6" height="9.6" fill="#005EA6"/>
<rect x="159.6" y="150" width="9.6" height="9.6" fill="#005EA6"/>
<rect x="169.2" y="130.8" width="9.6" height="38.4" fill="#005EA6"/>
<rect x="178.8" y="130.8" width="9.6" height="38.4" fill="#005EA6"/>
<rect x="188.4" y="150" width="9.6" height="28.8" fill="#005EA6"/>
<rect x="198" y="169.2" width="9.6" height="19.2" fill="#005EA6"/>
<rect x="207.6" y="188.4" width="9.6" height="19.2" fill="#005EA6"/>
<rect x="111.6" y="140.4" width="9.6" height="28.8" fill="#0082E6"/>
<rect x="111.6" y="159.6" width="9.6" height="9.6" fill="#0082E6"/>
<rect x="102" y="159.6" width="9.6" height="19.2" fill="#0082E6"/>
<rect x="102" y="169.2" width="9.6" height="9.6" fill="#0082E6"/>
<rect x="92.3999" y="178.8" width="9.6" height="9.6" fill="#0082E6"/>
<rect x="111.6" y="121.2" width="9.6" height="9.6" fill="#0082E6"/>
<rect x="121.2" y="111.6" width="9.6" height="9.6" fill="#8F9BB2"/>
<rect x="140.4" y="82.8" width="9.6" height="9.6" fill="#8F9BB2"/>
<rect x="159.6" y="102" width="9.6" height="9.6" fill="#8F9BB2"/>
<rect x="169.2" y="111.6" width="9.6" height="9.6" fill="#8F9BB2"/>
<rect x="159.6" y="111.6" width="9.6" height="9.6" fill="#B6BFD1"/>
<rect x="169.2" y="121.2" width="9.6" height="9.6" fill="#005EA6"/>
<rect x="159.6" y="121.2" width="9.6" height="9.6" fill="#B6BFD1"/>
<rect x="159.6" y="130.8" width="9.6" height="9.6" fill="#B6BFD1"/>
<rect x="150" y="102" width="9.6" height="9.6" fill="#B6BFD1"/>
<rect x="140.4" y="111.6" width="9.6" height="9.6" fill="white"/>
<rect x="140.4" y="121.2" width="9.6" height="9.6" fill="#B6BFD1"/>
<rect x="150" y="130.8" width="9.6" height="9.6" fill="#B6BFD1"/>
<rect x="217.2" y="198" width="9.6" height="9.6" fill="#1C2175"/>
<rect x="207.6" y="198" width="9.6" height="9.6" fill="#1C2175"/>
<rect x="226.8" y="207.6" width="9.6" height="9.6" fill="#1C2175"/>
<rect x="217.2" y="207.6" width="9.6" height="9.6" fill="#1C2175"/>
<rect x="63.6001" y="207.6" width="9.6" height="9.6" fill="#1C2175"/>
<rect x="102" y="178.8" width="9.6" height="9.6" fill="#0082E6"/>
<rect x="188.4" y="178.8" width="9.6" height="9.6" fill="#005EA6"/>
<rect x="198" y="188.4" width="9.6" height="9.6" fill="#005EA6"/>
<rect x="198" y="198" width="9.6" height="9.6" fill="#1C2175"/>
<rect x="188.4" y="198" width="9.6" height="9.6" fill="#1C2175"/>
<rect x="207.6" y="207.6" width="9.6" height="9.6" fill="#1C2175"/>
<rect x="111.6" y="188.4" width="9.6" height="9.6" fill="#0082E6"/>
<rect x="121.2" y="188.4" width="9.6" height="9.6" fill="#0082E6"/>
<rect x="102" y="198" width="19.2" height="9.6" fill="#0082E6"/>
<rect x="111.6" y="169.2" width="9.6" height="9.6" fill="#0082E6"/>
<rect x="121.2" y="169.2" width="28.8" height="9.6" fill="#0082E6"/>
<rect x="140.4" y="159.6" width="19.2" height="9.6" fill="#0082E6"/>
<rect x="111.6" y="178.8" width="28.8" height="9.6" fill="#0082E6"/>
<rect x="102" y="188.4" width="9.6" height="9.6" fill="#0082E6"/>
<rect x="92.3999" y="198" width="9.6" height="9.6" fill="#0082E6"/>
<rect x="82.7998" y="207.6" width="38.4" height="9.6" fill="#1C2175"/>
<rect x="121.2" y="159.6" width="19.2" height="9.6" fill="#0082E6"/>
<rect x="159.6" y="169.2" width="28.8" height="9.6" fill="#005EA6"/>
<rect x="178.8" y="169.2" width="9.6" height="9.6" fill="#005EA6"/>
<rect x="140.4" y="92.3999" width="9.6" height="19.2" fill="white"/>
<rect x="130.8" y="102" width="9.6" height="28.8" fill="white"/>
<rect x="121.2" y="121.2" width="9.6" height="9.6" fill="white"/>
<rect x="150" y="92.3999" width="9.6" height="9.6" fill="white"/>
<rect x="130.8" y="130.8" width="9.6" height="9.6" fill="white"/>
<rect x="121.2" y="140.4" width="9.6" height="9.6" fill="white"/>
<rect x="130.8" y="150" width="9.6" height="9.6" fill="#0082E6"/>
<rect x="150" y="111.6" width="9.6" height="9.6" fill="white"/>
<rect x="150" y="121.2" width="9.6" height="9.6" fill="white"/>
<rect x="159.6" y="140.4" width="9.6" height="9.6" fill="#B6BFD1"/>
<rect x="150" y="130.8" width="9.6" height="9.6" fill="#B6BFD1"/>
<rect x="169.2" y="140.4" width="9.6" height="9.6" fill="#B6BFD1"/>
<rect x="111.6" y="140.4" width="9.6" height="9.6" fill="#B6BFD1"/>
<rect x="130.8" y="102" width="9.6" height="9.6" fill="#8F9BB2"/>
<rect x="130.8" y="92.3999" width="9.6" height="9.6" fill="#8F9BB2"/>
<rect x="150" y="92.3999" width="9.6" height="9.6" fill="#8F9BB2"/>
<rect x="121.2" y="159.6" width="9.6" height="9.6" fill="#9FDA44"/>
<rect x="159.6" y="159.6" width="9.6" height="9.6" fill="#9FDA44"/>
<rect x="140.4" y="188.4" width="9.6" height="9.6" fill="#9FDA44"/>
<rect x="121.2" y="188.4" width="9.6" height="9.6" fill="#9FDA44"/>
<rect x="159.6" y="188.4" width="9.6" height="9.6" fill="#9FDA44"/>
<rect x="121.2" y="169.2" width="19.2" height="9.6" fill="#9FDA44"/>
<rect x="111.6" y="198" width="28.8" height="9.6" fill="#9FDA44"/>
<rect x="150" y="198" width="28.8" height="9.6" fill="#9FDA44"/>
<rect x="121.2" y="178.8" width="48" height="9.6" fill="#9FDA44"/>
<rect x="150" y="169.2" width="19.2" height="9.6" fill="#9FDA44"/>
<rect x="207.6" y="188.4" width="9.6" height="9.6" fill="#1C2175"/>
<rect x="198" y="188.4" width="9.6" height="9.6" fill="#1C2175"/>
<rect x="198" y="178.8" width="9.6" height="9.6" fill="#1C2175"/>
<rect x="198" y="169.2" width="9.6" height="9.6" fill="#1C2175"/>
<rect x="188.4" y="169.2" width="9.6" height="9.6" fill="#1C2175"/>
<rect x="188.4" y="159.6" width="9.6" height="9.6" fill="#1C2175"/>
<rect x="178.8" y="159.6" width="9.6" height="9.6" fill="#1C2175"/>
<rect x="188.4" y="150" width="9.6" height="9.6" fill="#1C2175"/>
<rect x="150" y="159.6" width="9.6" height="9.6" fill="#005EA6"/>
<rect x="150" y="140.4" width="9.6" height="9.6" fill="#005EA6"/>
</svg>
