<svg width="63" height="62" viewBox="0 0 63 62" fill="none" xmlns="http://www.w3.org/2000/svg">
<rect width="63" height="62" rx="1.9375" fill="#322518"/>
<rect x="17.9785" y="14.6421" width="28.043" height="23.3692" fill="#E1B496"/>
<rect x="20.3154" y="16.979" width="23.3692" height="18.6953" fill="#202020"/>
<rect width="23.3692" height="2.33691" transform="matrix(1 0 0 -1 20.3154 40.3481)" fill="#B36843"/>
<rect width="28.043" height="7.01075" transform="matrix(1 0 0 -1 17.9785 47.3589)" fill="#E1B496"/>
<rect width="9.34766" height="2.33692" transform="matrix(1 0 0 -1 20.3154 45.022)" fill="#66331A"/>
<rect width="2.33692" height="2.33692" transform="matrix(1 0 0 -1 41.3477 45.022)" fill="#66331A"/>
<rect x="26.1577" y="20.4844" width="2.33692" height="2.33692" fill="#FFD700"/>
<rect x="35.5054" y="20.4844" width="2.33692" height="2.33692" fill="#FFD700"/>
<rect x="30.8315" y="27.4951" width="2.33692" height="2.33692" fill="#FA500F"/>
<rect x="26.1577" y="27.4951" width="2.33692" height="2.33692" fill="#FA500F"/>
<rect x="35.5054" y="27.4951" width="2.33692" height="2.33692" fill="#FA500F"/>
<rect x="26.1577" y="22.8213" width="4.67383" height="2.33692" fill="#FFAF00"/>
<rect x="23.8208" y="29.832" width="7.01075" height="2.33692" fill="#E92700"/>
<rect x="33.1685" y="29.832" width="7.01075" height="2.33692" fill="#E92700"/>
<rect x="26.1577" y="25.1582" width="11.6846" height="2.33692" fill="#FF8205"/>
<rect x="33.1685" y="22.8213" width="4.67383" height="2.33692" fill="#FFAF00"/>
</svg>
