<svg width="63" height="62" viewBox="0 0 63 62" fill="none" xmlns="http://www.w3.org/2000/svg">
<rect width="63" height="62" rx="1.9375" fill="#321B3E"/>
<path d="M37.8407 27.4946V18.1465H35.5041V20.484H33.1664V22.8205H30.8298V20.484H28.4931V18.1465H26.1555V27.4946H23.8188V29.8311H30.8298V27.4946H28.4931V25.1571H30.8298V27.4946H33.1664V25.1571H35.5041V27.4946H33.1664V29.8311H40.1773V27.4946H37.8407Z" fill="#FF92DC"/>
<path d="M42.5147 34.5052V36.8418H37.8405V39.1794H35.504V41.516H33.1664V29.8311H30.8298V41.516H28.4933V39.1794H26.1557V36.8418H21.4826V34.5052H19.145V39.1794H21.4826V41.516H26.1557V43.8526H37.8405V41.516H42.5147V39.1794H44.8512V34.5052H42.5147Z" fill="#00A514"/>
<rect width="2.33693" height="2.33693" transform="matrix(-4.37114e-08 1 1 4.37114e-08 33.1665 39.179)" fill="#166C35"/>
<rect width="2.33693" height="2.33693" transform="matrix(-4.37114e-08 1 1 4.37114e-08 37.8406 41.5159)" fill="#0E5327"/>
<rect width="2.33693" height="2.33693" transform="matrix(-4.37113e-08 1 1 4.37115e-08 40.1775 41.5159)" fill="#0E5327"/>
<rect width="2.33693" height="2.33693" transform="matrix(-4.37115e-08 1 1 4.37113e-08 42.5144 39.179)" fill="#166C35"/>
<rect width="2.33693" height="2.33693" transform="matrix(-4.37114e-08 1 1 4.37114e-08 19.145 39.179)" fill="#166C35"/>
<rect width="2.33693" height="2.33693" transform="matrix(-4.37114e-08 1 1 4.37114e-08 16.8081 36.842)" fill="#166C35"/>
<rect width="2.33693" height="2.33693" transform="matrix(-4.37113e-08 1 1 4.37115e-08 44.8513 36.842)" fill="#166C35"/>
<rect width="2.33693" height="2.33693" transform="matrix(-4.37114e-08 1 1 4.37114e-08 16.8081 34.5051)" fill="#166C35"/>
<rect width="2.33693" height="2.33693" transform="matrix(-4.37113e-08 1 1 4.37114e-08 44.8513 34.5051)" fill="#166C35"/>
<rect width="2.33693" height="2.33693" transform="matrix(-4.37114e-08 1 1 4.37114e-08 23.8188 41.5159)" fill="#0E5327"/>
<rect width="2.33693" height="2.33693" transform="matrix(-4.37114e-08 1 1 4.37114e-08 21.4819 41.5159)" fill="#0E5327"/>
<rect width="2.33693" height="2.33693" transform="matrix(-4.37113e-08 1 1 4.37114e-08 26.1558 36.842)" fill="#166C35"/>
<rect width="2.33693" height="2.33693" transform="matrix(-4.37114e-08 1 1 4.37114e-08 21.4819 34.5051)" fill="#166C35"/>
<rect width="2.33693" height="2.33693" transform="matrix(-4.37114e-08 1 1 4.37114e-08 23.8188 34.5051)" fill="#166C35"/>
<rect width="2.33693" height="2.33693" transform="matrix(-4.37114e-08 1 1 4.37114e-08 19.145 32.168)" fill="#166C35"/>
<rect width="2.33693" height="2.33693" transform="matrix(-4.37113e-08 1 1 4.37114e-08 35.5037 36.842)" fill="#166C35"/>
<rect width="2.33693" height="2.33693" transform="matrix(-4.37113e-08 1 1 4.37114e-08 40.1775 34.5051)" fill="#166C35"/>
<rect width="2.33693" height="2.33693" transform="matrix(-4.37114e-08 1 1 4.37114e-08 37.8406 34.5051)" fill="#166C35"/>
<rect width="2.33693" height="2.33693" transform="matrix(-4.37114e-08 1 1 4.37114e-08 42.5144 32.168)" fill="#166C35"/>
<rect width="9.34771" height="2.33693" transform="matrix(-4.37114e-08 1 1 4.37114e-08 33.1665 29.8311)" fill="#166C35"/>
<rect width="9.34771" height="2.33693" transform="matrix(-4.37114e-08 1 1 4.37114e-08 28.4927 29.8311)" fill="#166C35"/>
<rect width="2.33693" height="11.6846" transform="matrix(-4.37114e-08 1 1 4.37113e-08 26.1558 43.8528)" fill="#0E5327"/>
<rect width="2.33693" height="2.33693" transform="matrix(-4.37114e-08 1 1 4.37114e-08 28.4927 39.179)" fill="#166C35"/>
<rect x="28.4927" y="25.1572" width="2.33693" height="2.33693" fill="#69197F"/>
<rect x="26.1558" y="15.8096" width="2.33693" height="2.33693" fill="#9C42B5"/>
<rect x="28.4927" y="18.1465" width="2.33693" height="2.33693" fill="#9C42B5"/>
<rect x="30.8296" y="20.4834" width="2.33693" height="2.33693" fill="#9C42B5"/>
<rect x="33.1665" y="18.1465" width="2.33693" height="2.33693" fill="#9C42B5"/>
<rect x="35.5037" y="15.8096" width="2.33693" height="2.33693" fill="#9C42B5"/>
<rect x="37.8406" y="18.1465" width="2.33693" height="9.34771" fill="#8926A5"/>
<rect x="21.4819" y="27.4944" width="2.33693" height="2.33693" fill="#69197F"/>
<rect x="40.1775" y="27.4944" width="2.33693" height="2.33693" fill="#69197F"/>
<rect x="23.8188" y="18.1465" width="2.33693" height="9.34771" fill="#8926A5"/>
<rect x="33.1665" y="25.1572" width="2.33693" height="2.33693" fill="#69197F"/>
<rect x="30.8296" y="27.4944" width="2.33693" height="2.33693" fill="#69197F"/>
<rect x="23.8188" y="29.8311" width="4.67385" height="2.33693" fill="#69197F"/>
<rect x="35.5037" y="29.8311" width="4.67386" height="2.33693" fill="#69197F"/>
<rect x="28.4929" y="29.8313" width="7.01078" height="2.33693" fill="#0E5327"/>
<rect x="30.8296" y="32.168" width="2.33693" height="2.33693" fill="#9BDB47"/>
<rect x="30.8296" y="34.5051" width="2.33693" height="2.33693" fill="#58C138"/>
<rect x="19.145" y="34.5051" width="2.33693" height="2.33693" fill="#58C138"/>
<rect x="42.5144" y="34.5051" width="2.33693" height="2.33693" fill="#58C138"/>
</svg>
