<svg width="63" height="62" viewBox="0 0 63 62" fill="none" xmlns="http://www.w3.org/2000/svg">
<rect width="63" height="62" rx="1.9375" fill="#322518"/>
<rect x="17.9785" y="14.6414" width="28.043" height="4.67383" fill="#FFD800"/>
<rect x="48.3584" y="16.9783" width="28.043" height="4.67383" transform="rotate(90 48.3584 16.9783)" fill="#0082E6"/>
<rect x="15.0574" y="20.7759" width="26.2903" height="26.5824" fill="#FA500F"/>
<rect width="2.33692" height="28.043" transform="matrix(-1 0 0 1 15.6416 19.3152)" fill="#66331A"/>
<rect width="2.33692" height="28.043" transform="matrix(-1 0 0 1 24.9893 21.6521)" fill="#66331A"/>
<rect width="2.33692" height="28.043" transform="matrix(-1 0 0 1 34.3369 21.6521)" fill="#66331A"/>
<rect width="2.33692" height="28.043" transform="matrix(1.19249e-08 -1 -1 -1.19249e-08 43.6846 30.9998)" fill="#66331A"/>
<rect width="2.33691" height="28.043" transform="matrix(1.19249e-08 -1 -1 -1.19249e-08 43.6846 40.3474)" fill="#66331A"/>
<path d="M34.3369 38.0101V28.6628H32.0009V30.9987H29.6631V33.3365H27.3271V30.9987H24.9893V28.6628H22.6514V38.0101H20.3154V40.3478H27.3271V38.0101H24.9893V35.6742H27.3271V38.0101H29.6631V35.6742H32.0009V38.0101H29.6631V40.3478H36.6748V38.0101H34.3369Z" fill="white"/>
<rect width="2.33692" height="28.043" transform="matrix(1.19249e-08 -1 -1 -1.19249e-08 43.6846 49.6951)" fill="#66331A"/>
<rect width="2.33692" height="25.7061" transform="matrix(1.19249e-08 -1 -1 -1.19249e-08 41.3477 21.6521)" fill="#66331A"/>
<rect width="2.33692" height="25.7061" transform="matrix(-1 0 0 1 43.6846 21.6521)" fill="#66331A"/>
<rect width="2.33692" height="28.043" transform="matrix(-1 0 0 1 50.6953 14.6414)" fill="#66331A"/>
<rect width="2.33692" height="2.33692" transform="matrix(-1 0 0 1 17.9785 16.9783)" fill="#66331A"/>
<rect width="2.33692" height="2.33692" transform="matrix(-1 0 0 1 43.6846 19.3152)" fill="#66331A"/>
<rect width="2.33692" height="2.33692" transform="matrix(-1 0 0 1 36.6738 16.9783)" fill="#66331A"/>
<rect width="2.33692" height="2.33692" transform="matrix(-1 0 0 1 46.0215 26.3259)" fill="#66331A"/>
<rect width="2.33692" height="2.33692" transform="matrix(-1 0 0 1 46.0215 35.6736)" fill="#66331A"/>
<rect width="2.33692" height="2.33692" transform="matrix(-1 0 0 1 27.3262 16.9783)" fill="#66331A"/>
<rect width="2.33692" height="2.33691" transform="matrix(-1 0 0 1 46.0215 45.0212)" fill="#66331A"/>
<rect width="2.33692" height="2.33692" transform="matrix(-1 0 0 1 20.3154 14.6414)" fill="#66331A"/>
<rect width="2.33692" height="2.33692" transform="matrix(-1 0 0 1 22.6523 14.6414)" fill="#66331A"/>
<rect width="2.33692" height="2.33692" transform="matrix(-1 0 0 1 46.0215 16.9783)" fill="#66331A"/>
<rect width="2.33692" height="2.33692" transform="matrix(-1 0 0 1 39.0107 14.6414)" fill="#66331A"/>
<rect width="28.043" height="2.33692" transform="matrix(-1 0 0 1 48.3584 12.3044)" fill="#9E481E"/>
<rect width="2.33691" height="2.33692" transform="matrix(-1 0 0 1 41.3477 14.6414)" fill="#66331A"/>
<rect width="2.33692" height="2.33692" transform="matrix(-1 0 0 1 32 14.6414)" fill="#66331A"/>
<rect width="2.33691" height="2.33692" transform="matrix(-1 0 0 1 48.3584 23.989)" fill="#66331A"/>
<rect width="2.33691" height="2.33692" transform="matrix(-1 0 0 1 48.3584 33.3367)" fill="#66331A"/>
<rect width="2.33692" height="2.33692" transform="matrix(-1 0 0 1 29.6631 14.6414)" fill="#66331A"/>
<rect width="2.33691" height="2.33692" transform="matrix(-1 0 0 1 48.3584 42.6843)" fill="#66331A"/>
<rect width="2.33691" height="2.33692" transform="matrix(-1 0 0 1 48.3584 14.6414)" fill="#66331A"/>
</svg>
