<svg width="300" height="300" viewBox="0 0 300 300" fill="none" xmlns="http://www.w3.org/2000/svg">
<rect width="300" height="300" fill="#FBE5E6"/>
<rect x="102" y="82.8" width="96" height="134.4" fill="#E1B496"/>
<rect x="111.6" y="92.3999" width="76.8" height="38.4" fill="#58C138"/>
<path d="M177.944 125.041L177.944 102L172.284 102L172.284 107.764L166.628 107.764L166.628 113.523L160.972 113.523L160.972 107.764L155.316 107.764L155.316 102L149.661 102L149.661 125.041L144 125.041L144 130.8L160.972 130.8L160.972 125.041L155.316 125.041L155.316 119.282L160.972 119.282L160.972 125.041L166.628 125.041L166.628 119.282L172.284 119.282L172.284 125.041L166.628 125.041L166.628 130.8L183.6 130.8L183.6 125.041L177.944 125.041Z" fill="#1D793E"/>
<rect x="111.6" y="92.3999" width="9.6" height="38.4" fill="#0E5327"/>
<rect x="121.2" y="140.4" width="9.60001" height="67.2" fill="#B36843"/>
<rect x="92.4" y="82.8" width="9.6" height="134.4" fill="#B36843"/>
<rect x="198" y="82.8" width="9.60001" height="134.4" fill="#F9E4D5"/>
<rect x="198" y="73.2" width="9.60001" height="96" transform="rotate(90 198 73.2)" fill="#F9E4D5"/>
<rect x="198" y="217.2" width="9.6" height="96" transform="rotate(90 198 217.2)" fill="#B36843"/>
<rect x="140.4" y="140.4" width="9.6" height="67.2" fill="#B36843"/>
<rect x="159.6" y="140.4" width="9.6" height="67.2" fill="#B36843"/>
<rect x="178.8" y="140.4" width="9.59999" height="67.2" fill="#B36843"/>
<rect x="169.2" y="140.4" width="9.60001" height="67.2" fill="#F4EBE4"/>
<rect x="150" y="140.4" width="9.6" height="67.2" fill="#F4EBE4"/>
<rect x="130.8" y="140.4" width="9.6" height="67.2" fill="#F4EBE4"/>
<rect x="111.6" y="140.4" width="9.6" height="67.2" fill="#F4EBE4"/>
<rect x="111.6" y="92.3999" width="76.8" height="9.6" fill="#0E5327"/>
<rect x="188.4" y="150" width="9.6" height="76.8" transform="rotate(90 188.4 150)" fill="#CB9372"/>
<rect x="188.4" y="169.2" width="9.6" height="76.8" transform="rotate(90 188.4 169.2)" fill="#CB9372"/>
<rect x="188.4" y="188.4" width="9.6" height="76.8" transform="rotate(90 188.4 188.4)" fill="#CB9372"/>
</svg>
