<svg width="300" height="300" viewBox="0 0 300 300" fill="none" xmlns="http://www.w3.org/2000/svg">
<rect width="300" height="300" fill="#FFE7D5"/>
<rect x="121.2" y="92.3999" width="57.6" height="67.2" fill="#FFF0C3"/>
<rect x="111.6" y="102" width="76.8" height="48" fill="#FFF0C3"/>
<rect x="178.8" y="73.2" width="9.6" height="57.6" transform="rotate(90 178.8 73.2)" fill="#9E481E"/>
<rect x="188.4" y="82.8" width="9.6" height="76.8" transform="rotate(90 188.4 82.8)" fill="#9E481E"/>
<rect x="178.8" y="82.8" width="9.6" height="57.6" transform="rotate(90 178.8 82.8)" fill="#66331A"/>
<rect x="111.6" y="92.3999" width="9.6" height="9.6" transform="rotate(90 111.6 92.3999)" fill="#9E481E"/>
<rect x="121.2" y="92.3999" width="9.6" height="9.6" transform="rotate(90 121.2 92.3999)" fill="#B36843"/>
<rect x="121.2" y="92.3999" width="9.6" height="9.6" transform="rotate(90 121.2 92.3999)" fill="#66331A"/>
<rect width="9.6" height="9.59999" transform="matrix(4.37113e-08 1 1 -4.37114e-08 178.8 92.3999)" fill="#9E481E"/>
<rect width="9.6" height="9.59999" transform="matrix(4.37113e-08 1 1 -4.37114e-08 178.8 92.3999)" fill="#66331A"/>
<rect width="9.6" height="9.60001" transform="matrix(4.37114e-08 1 1 -4.37114e-08 188.4 92.3999)" fill="#9E481E"/>
<rect x="102" y="102" width="19.2" height="9.6" transform="rotate(90 102 102)" fill="#9E481E"/>
<rect x="111.6" y="102" width="9.6" height="9.6" transform="rotate(90 111.6 102)" fill="#9E481E"/>
<rect x="111.6" y="102" width="48" height="9.6" transform="rotate(90 111.6 102)" fill="#66331A"/>
<rect width="9.6" height="9.60001" transform="matrix(4.37114e-08 1 1 -4.37113e-08 188.4 102)" fill="#9E481E"/>
<rect width="19.2" height="9.60001" transform="matrix(4.37114e-08 1 1 -4.37114e-08 198 102)" fill="#9E481E"/>
<path d="M170.573 138.242L170.573 105.6L162.34 105.6L162.34 113.766L154.113 113.766L154.113 121.924L145.887 121.924L145.887 113.766L137.66 113.766L137.66 105.6L129.434 105.6L129.434 138.242L121.2 138.242L121.2 146.4L145.887 146.4L145.887 138.242L137.66 138.242L137.66 130.083L145.887 130.083L145.887 138.242L154.113 138.242L154.113 130.083L162.34 130.083L162.34 138.242L154.113 138.242L154.113 146.4L178.8 146.4L178.8 138.242L170.573 138.242Z" fill="#FA500F"/>
<rect x="102" y="121.2" width="19.2" height="9.6" transform="rotate(90 102 121.2)" fill="#9E481E"/>
<rect width="19.2" height="9.60001" transform="matrix(4.37114e-08 1 1 -4.37114e-08 198 121.2)" fill="#9E481E"/>
<rect x="102" y="140.4" width="19.2" height="9.6" transform="rotate(90 102 140.4)" fill="#9E481E"/>
<rect width="19.2" height="9.60001" transform="matrix(4.37114e-08 1 1 -4.37114e-08 198 140.4)" fill="#9E481E"/>
<rect x="111.6" y="150" width="9.6" height="9.6" transform="rotate(90 111.6 150)" fill="#9E481E"/>
<rect x="121.2" y="150" width="9.6" height="9.6" transform="rotate(90 121.2 150)" fill="#66331A"/>
<rect width="9.6" height="9.59999" transform="matrix(4.37114e-08 1 1 -4.37114e-08 178.8 150)" fill="#66331A"/>
<rect width="9.6" height="9.60001" transform="matrix(4.37114e-08 1 1 -4.37113e-08 188.4 150)" fill="#9E481E"/>
<rect x="111.6" y="159.6" width="9.6" height="9.6" transform="rotate(90 111.6 159.6)" fill="#9E481E"/>
<rect x="121.2" y="159.6" width="9.6" height="9.6" transform="rotate(90 121.2 159.6)" fill="#9E481E"/>
<rect width="9.6" height="9.59999" transform="matrix(4.37114e-08 1 1 -4.37114e-08 178.8 159.6)" fill="#9E481E"/>
<rect x="198" y="159.6" width="9.6" height="9.60001" transform="rotate(90 198 159.6)" fill="#9E481E"/>
<rect x="178.8" y="159.6" width="9.6" height="57.6" transform="rotate(90 178.8 159.6)" fill="#66331A"/>
<rect x="188.4" y="169.2" width="9.6" height="76.8" transform="rotate(90 188.4 169.2)" fill="#9E481E"/>
<rect x="188.4" y="169.2" width="9.6" height="76.8" transform="rotate(90 188.4 169.2)" fill="#9E481E"/>
<rect x="169.2" y="178.8" width="9.6" height="38.4" transform="rotate(90 169.2 178.8)" fill="#66331A"/>
<rect x="159.6" y="188.4" width="28.8" height="19.2" transform="rotate(90 159.6 188.4)" fill="#9E481E"/>
<rect x="159.6" y="217.2" width="9.60001" height="19.2" transform="rotate(90 159.6 217.2)" fill="#66331A"/>
<rect width="48" height="9.6" transform="matrix(4.37114e-08 1 1 -4.37114e-08 188.4 102)" fill="#66331A"/>
</svg>
