<svg width="300" height="300" viewBox="0 0 300 300" fill="none" xmlns="http://www.w3.org/2000/svg">
<rect width="300" height="300" fill="#FFDEDD"/>
<path d="M145.2 78H135.6V87.6H145.2V78Z" fill="#9E481E"/>
<path d="M154.8 78H145.2V87.6H154.8V78Z" fill="#9E481E"/>
<path d="M164.4 78H154.8V87.6H164.4V78Z" fill="#9E481E"/>
<path d="M106.8 116.4H97.2V126H106.8V116.4Z" fill="#66331A"/>
<path d="M106.8 126H97.2V135.6H106.8V126Z" fill="#66331A"/>
<path d="M106.8 135.6H97.2V145.2H106.8V135.6Z" fill="#66331A"/>
<path d="M106.8 145.2H97.2V154.8H106.8V145.2Z" fill="#66331A"/>
<path d="M202.8 116.4H193.2V126H202.8V116.4Z" fill="#66331A"/>
<path d="M202.8 126H193.2V135.6H202.8V126Z" fill="#66331A"/>
<path d="M202.8 135.6H193.2V145.2H202.8V135.6Z" fill="#66331A"/>
<path d="M202.8 145.2H193.2V154.8H202.8V145.2Z" fill="#66331A"/>
<path d="M135.6 174H126V183.6H135.6V174Z" fill="#00425C"/>
<path d="M145.2 174H135.6V183.6H145.2V174Z" fill="#00425C"/>
<path d="M164.4 174H154.8V183.6H164.4V174Z" fill="#00425C"/>
<path d="M174 174H164.4V183.6H174V174Z" fill="#00425C"/>
<path d="M135.6 164.4H126V174H135.6V164.4Z" fill="#FA500F"/>
<path d="M145.2 164.4H135.6V174H145.2V164.4Z" fill="#FA500F"/>
<path d="M154.8 164.4H145.2V174H154.8V164.4Z" fill="#FA500F"/>
<path d="M164.4 164.4H154.8V174H164.4V164.4Z" fill="#FA500F"/>
<path d="M174 164.4H164.4V174H174V164.4Z" fill="#FA500F"/>
<path d="M183.6 154.8H174V164.4H183.6V154.8Z" fill="#FF8205"/>
<path d="M193.2 145.2H183.6V154.8H193.2V145.2Z" fill="#FFAF00"/>
<path d="M145.2 154.8H135.6V164.4H145.2V154.8Z" fill="#FF8205"/>
<path d="M135.6 154.8H126V164.4H135.6V154.8Z" fill="#FF8205"/>
<path d="M154.8 154.8H145.2V164.4H154.8V154.8Z" fill="#FFD800"/>
<path d="M164.4 154.8H154.8V164.4H164.4V154.8Z" fill="#FF8205"/>
<path d="M174 154.8H164.4V164.4H174V154.8Z" fill="#FF8205"/>
<path d="M154.8 145.2H145.2V154.8H154.8V145.2Z" fill="#FF8205"/>
<path d="M145.2 145.2H135.6V154.8H145.2V145.2Z" fill="#FFD800"/>
<path d="M164.4 145.2H154.8V154.8H164.4V145.2Z" fill="#FFD800"/>
<path d="M183.6 145.2H174V154.8H183.6V145.2Z" fill="#FFD800"/>
<path d="M193.2 135.6H183.6V145.2H193.2V135.6Z" fill="#FFD800"/>
<path d="M193.2 126H183.6V135.6H193.2V126Z" fill="#FFD800"/>
<path d="M193.2 116.4H183.6V126H193.2V116.4Z" fill="#FFD800"/>
<path d="M183.6 116.4H174V126H183.6V116.4Z" fill="#FFD800"/>
<path d="M174 116.4H164.4V126H174V116.4Z" fill="#FF8205"/>
<path d="M183.6 106.8H174V116.4H183.6V106.8Z" fill="#FFD800"/>
<path d="M154.8 87.6001H145.2V97.2001H154.8V87.6001Z" fill="#FFF0C3"/>
<path d="M164.4 87.6001H154.8V97.2001H164.4V87.6001Z" fill="#FFF0C3"/>
<path d="M154.8 97.2H145.2V106.8H154.8V97.2Z" fill="#FFD800"/>
<path d="M135.6 97.2H126V106.8H135.6V97.2Z" fill="#FFF0C3"/>
<path d="M126 106.8H116.4V116.4H126V106.8Z" fill="#FFF0C3"/>
<path d="M116.4 145.2H106.8V154.8H116.4V145.2Z" fill="#FFF0C3"/>
<path d="M116.4 135.6H106.8V145.2H116.4V135.6Z" fill="#FFF0C3"/>
<path d="M116.4 126H106.8V135.6H116.4V126Z" fill="#FFF0C3"/>
<path d="M116.4 116.4H106.8V126H116.4V116.4Z" fill="#FFF0C3"/>
<path d="M126 97.2H116.4V106.8H126V97.2Z" fill="#FFF0C3"/>
<path d="M145.2 87.6001H135.6V97.2001H145.2V87.6001Z" fill="#FFF0C3"/>
<path d="M174 97.2H164.4V106.8H174V97.2Z" fill="#FFD800"/>
<path d="M183.6 97.2H174V106.8H183.6V97.2Z" fill="#FFD800"/>
<path d="M183.6 126H174V135.6H183.6V126Z" fill="#FFD800"/>
<path d="M183.6 164.4H174V174H183.6V164.4Z" fill="#66331A"/>
<path d="M126 164.4H116.4V174H126V164.4Z" fill="#66331A"/>
<path d="M126 135.6H116.4V145.2H126V135.6Z" fill="#FFD800"/>
<path d="M174 106.8H164.4V116.4H174V106.8Z" fill="#FFD800"/>
<path d="M164.4 116.4H154.8V126H164.4V116.4Z" fill="#FFD800"/>
<path d="M145.2 126H135.6V135.6H145.2V126Z" fill="#FF8205"/>
<path d="M154.8 135.6H145.2V145.2H154.8V135.6Z" fill="#FF8205"/>
<path d="M164.4 106.8H154.8V116.4H164.4V106.8Z" fill="#FFD800"/>
<path d="M164.4 97.2H154.8V106.8H164.4V97.2Z" fill="#FFD800"/>
<path d="M145.2 116.4H135.6V126H145.2V116.4Z" fill="#FFD800"/>
<path d="M145.2 106.8H135.6V116.4H145.2V106.8Z" fill="#FFD800"/>
<path d="M145.2 97.2H135.6V106.8H145.2V97.2Z" fill="#FFD800"/>
<path d="M174 87.6001H164.4V97.2001H174V87.6001Z" fill="#9E481E"/>
<path d="M183.6 87.6001H174V97.2001H183.6V87.6001Z" fill="#66331A"/>
<path d="M135.6 87.6001H126V97.2001H135.6V87.6001Z" fill="#9E481E"/>
<path d="M126 87.6001H116.4V97.2001H126V87.6001Z" fill="#66331A"/>
<path d="M193.2 97.2H183.6V106.8H193.2V97.2Z" fill="#66331A"/>
<path d="M193.2 106.8H183.6V116.4H193.2V106.8Z" fill="#66331A"/>
<path d="M193.2 154.8H183.6V164.4H193.2V154.8Z" fill="#66331A"/>
<path d="M183.6 135.6H174V145.2H183.6V135.6Z" fill="#FFD800"/>
<path d="M174 145.2H164.4V154.8H174V145.2Z" fill="#FF8205"/>
<path d="M174 135.6H164.4V145.2H174V135.6Z" fill="#FF8205"/>
<path d="M174 126H164.4V135.6H174V126Z" fill="#FF8205"/>
<path d="M164.4 135.6H154.8V145.2H164.4V135.6Z" fill="#FF8205"/>
<path d="M154.8 174H145.2V183.6H154.8V174Z" fill="#00425C"/>
<path d="M164.4 126H154.8V135.6H164.4V126Z" fill="#FF8205"/>
<path d="M154.8 116.4H145.2V126H154.8V116.4Z" fill="#FFD800"/>
<path d="M154.8 106.8H145.2V116.4H154.8V106.8Z" fill="#FFD800"/>
<path d="M135.6 106.8H126V116.4H135.6V106.8Z" fill="#FFD800"/>
<path d="M126 154.8H116.4V164.4H126V154.8Z" fill="#FF8205"/>
<path d="M135.6 145.2H126V154.8H135.6V145.2Z" fill="#FF8205"/>
<path d="M145.2 135.6H135.6V145.2H145.2V135.6Z" fill="#FF8205"/>
<path d="M135.6 135.6H126V145.2H135.6V135.6Z" fill="#FF8205"/>
<path d="M135.6 126H126V135.6H135.6V126Z" fill="#FF8205"/>
<path d="M135.6 116.4H126V126H135.6V116.4Z" fill="#FF8205"/>
<path d="M154.8 126H145.2V135.6H154.8V126Z" fill="#FFD800"/>
<path d="M126 116.4H116.4V126H126V116.4Z" fill="#FFD800"/>
<path d="M126 145.2H116.4V154.8H126V145.2Z" fill="#FFD800"/>
<path d="M126 126H116.4V135.6H126V126Z" fill="#FFD800"/>
<path d="M116.4 97.2H106.8V106.8H116.4V97.2Z" fill="#66331A"/>
<path d="M116.4 106.8H106.8V116.4H116.4V106.8Z" fill="#66331A"/>
<path d="M116.4 154.8H106.8V164.4H116.4V154.8Z" fill="#66331A"/>
<path d="M145.2 183.6H135.6V193.2H145.2V183.6Z" fill="#B9DAFF"/>
<path d="M154.8 183.6H145.2V193.2H154.8V183.6Z" fill="#B9DAFF"/>
<path d="M164.4 183.6H154.8V193.2H164.4V183.6Z" fill="#00AAE6"/>
<path d="M135.6 183.6H126V193.2H135.6V183.6Z" fill="#00425C"/>
<path d="M154.8 193.2H145.2V202.8H154.8V193.2Z" fill="#00425C"/>
<path d="M164.4 193.2H154.8V202.8H164.4V193.2Z" fill="#00425C"/>
<path d="M154.8 202.8H145.2V212.4H154.8V202.8Z" fill="#00AAE6"/>
<path d="M135.6 202.8H126V212.4H135.6V202.8Z" fill="#00425C"/>
<path d="M145.2 193.2H135.6V202.8H145.2V193.2Z" fill="#00425C"/>
<path d="M174 202.8H164.4V212.4H174V202.8Z" fill="#00425C"/>
<path d="M174 183.6H164.4V193.2H174V183.6Z" fill="#00425C"/>
<path d="M164.4 212.4H154.8V222H164.4V212.4Z" fill="#00425C"/>
<path d="M164.4 202.8H154.8V212.4H164.4V202.8Z" fill="#00425C"/>
<path d="M145.2 212.4H135.6V222H145.2V212.4Z" fill="#00425C"/>
<path d="M145.2 202.8H135.6V212.4H145.2V202.8Z" fill="#B9DAFF"/>
<path d="M174 193.2H164.4V202.8H174V193.2Z" fill="#00425C"/>
<path d="M135.6 193.2H126V202.8H135.6V193.2Z" fill="#00425C"/>
<path d="M154.8 212.4H145.2V222H154.8V212.4Z" fill="#00425C"/>
</svg>
