<svg width="300" height="300" viewBox="0 0 300 300" fill="none" xmlns="http://www.w3.org/2000/svg">
<rect width="300" height="300" fill="#FBFBCC"/>
<rect x="159.6" y="73.2" width="163.2" height="28.8" transform="rotate(90 159.6 73.2)" fill="#66331A"/>
<rect x="150" y="73.2" width="153.6" height="9.59999" transform="rotate(90 150 73.2)" fill="#B36843"/>
<rect width="9.6" height="9.6" transform="matrix(4.37114e-08 -1 -1 -4.37114e-08 150 73.2)" fill="#66331A"/>
<rect x="102" y="82.8" width="96" height="48" fill="#E1B496"/>
<rect x="102" y="82.8" width="96" height="9.6" fill="#B36843"/>
<path d="M102 92.3999H92.3999V121.2H102V92.3999Z" fill="#9E481E"/>
<rect x="198" y="92.3999" width="9.60001" height="9.6" fill="#E1B496"/>
<rect x="198" y="102" width="9.60001" height="9.6" fill="#E1B496"/>
<rect x="198" y="111.6" width="9.60001" height="9.6" fill="#E1B496"/>
<rect x="207.6" y="102" width="9.59999" height="9.6" fill="#E1B496"/>
<rect x="198" y="82.8" width="9.60001" height="9.6" fill="#B36843"/>
<rect x="207.6" y="92.3999" width="9.59999" height="9.6" fill="#B36843"/>
<rect x="217.2" y="102" width="9.60001" height="9.6" fill="#B36843"/>
<rect x="207.6" y="111.6" width="9.59999" height="9.6" fill="#B36843"/>
<rect x="198" y="121.2" width="9.60001" height="9.60001" fill="#66331A"/>
<rect x="102" y="121.2" width="96" height="9.60001" fill="#66331A"/>
<rect width="96" height="48" transform="matrix(-1 0 0 1 188.4 130.8)" fill="#E1B496"/>
<rect width="96" height="9.6" transform="matrix(-1 0 0 1 188.4 130.8)" fill="#B36843"/>
<rect width="43.2" height="9.6" transform="matrix(-1 0 0 1 188.4 150)" fill="#B36843"/>
<rect width="43.2" height="9.6" transform="matrix(-1 0 0 1 145.2 102)" fill="#B36843"/>
<rect width="19.2" height="9.6" transform="matrix(-1 0 0 1 111.6 150)" fill="#B36843"/>
<rect width="19.2" height="9.6" transform="matrix(-1 0 0 1 178.8 102)" fill="#B36843"/>
<path d="M188.4 140.4H198V169.2H188.4V140.4Z" fill="#9E481E"/>
<rect width="9.6" height="9.6" transform="matrix(-1 0 0 1 92.3999 140.4)" fill="#E1B496"/>
<rect width="9.6" height="9.6" transform="matrix(-1 0 0 1 92.3999 150)" fill="#E1B496"/>
<rect width="9.6" height="9.6" transform="matrix(-1 0 0 1 92.3999 159.6)" fill="#E1B496"/>
<rect width="9.6" height="9.6" transform="matrix(-1 0 0 1 82.7998 150)" fill="#E1B496"/>
<rect width="9.6" height="9.6" transform="matrix(-1 0 0 1 92.3999 130.8)" fill="#B36843"/>
<rect width="9.6" height="9.6" transform="matrix(-1 0 0 1 82.7998 140.4)" fill="#B36843"/>
<rect width="9.6" height="9.6" transform="matrix(-1 0 0 1 73.2002 150)" fill="#B36843"/>
<rect width="9.6" height="9.6" transform="matrix(-1 0 0 1 82.7998 159.6)" fill="#B36843"/>
<rect width="9.6" height="9.60001" transform="matrix(-1 0 0 1 92.3999 169.2)" fill="#66331A"/>
<rect width="96" height="9.60001" transform="matrix(-1 0 0 1 188.4 169.2)" fill="#66331A"/>
<path d="M213.6 226.798V188.4H204.004V197.996H194.4V207.599H184.804V197.996H175.2V188.4H165.596V226.798H156V236.402H184.804V226.798H175.2V217.202H184.804V226.798H194.4V217.202H204.004V226.798H194.4V236.402H223.204V226.798H213.6Z" fill="#00A514"/>
<rect x="102" y="198" width="8" height="8" fill="#00A514"/>
<rect x="86" y="198" width="8" height="8" fill="#00A514"/>
<rect x="118" y="198" width="8" height="8" fill="#00A514"/>
<rect x="110" y="190" width="8" height="16" fill="#00A514"/>
</svg>
