<svg width="300" height="300" viewBox="0 0 300 300" fill="none" xmlns="http://www.w3.org/2000/svg">
<rect width="300" height="300" fill="#FFF0C3"/>
<path d="M174.001 135.602V97.2H164.402V106.802H154.799V116.401H145.2V106.802H135.602V97.2H125.999V135.602H116.4V145.2H145.2V135.602H135.602V125.999H145.2V135.602H154.799V125.999H164.402V135.602H154.799V145.2H183.6V135.602H174.001Z" fill="#FF92DC"/>
<path d="M193.201 164.401V174H174V183.603H164.402V193.201H154.799V145.2H145.201V193.201H135.602V183.603H126V174H106.803V164.401H97.2V183.603H106.803V193.201H126V202.8H174V193.201H193.201V183.603H202.8V164.401H193.201Z" fill="#00A514"/>
<rect width="9.59999" height="9.6" transform="matrix(-4.37114e-08 1 1 4.37114e-08 154.8 183.6)" fill="#166C35"/>
<rect width="9.60001" height="9.60001" transform="matrix(-4.37114e-08 1 1 4.37114e-08 174 193.2)" fill="#0E5327"/>
<rect width="9.60001" height="9.59999" transform="matrix(-4.37113e-08 1 1 4.37115e-08 183.6 193.2)" fill="#0E5327"/>
<rect width="9.59999" height="9.60001" transform="matrix(-4.37115e-08 1 1 4.37113e-08 193.2 183.6)" fill="#166C35"/>
<rect width="9.59999" height="9.6" transform="matrix(-4.37114e-08 1 1 4.37114e-08 97.2 183.6)" fill="#166C35"/>
<rect width="9.60001" height="9.6" transform="matrix(-4.37114e-08 1 1 4.37114e-08 87.6001 174)" fill="#166C35"/>
<rect width="9.60001" height="9.59999" transform="matrix(-4.37113e-08 1 1 4.37115e-08 202.8 174)" fill="#166C35"/>
<rect width="9.6" height="9.6" transform="matrix(-4.37114e-08 1 1 4.37114e-08 87.6001 164.4)" fill="#166C35"/>
<rect width="9.6" height="9.59999" transform="matrix(-4.37113e-08 1 1 4.37114e-08 202.8 164.4)" fill="#166C35"/>
<rect width="9.60001" height="9.6" transform="matrix(-4.37114e-08 1 1 4.37114e-08 116.4 193.2)" fill="#0E5327"/>
<rect width="9.60001" height="9.6" transform="matrix(-4.37114e-08 1 1 4.37114e-08 106.8 193.2)" fill="#0E5327"/>
<rect width="9.60001" height="9.6" transform="matrix(-4.37113e-08 1 1 4.37114e-08 126 174)" fill="#166C35"/>
<rect width="9.6" height="9.6" transform="matrix(-4.37114e-08 1 1 4.37114e-08 106.8 164.4)" fill="#166C35"/>
<rect width="9.6" height="9.6" transform="matrix(-4.37114e-08 1 1 4.37114e-08 116.4 164.4)" fill="#166C35"/>
<rect width="9.6" height="9.6" transform="matrix(-4.37114e-08 1 1 4.37114e-08 97.2 154.8)" fill="#166C35"/>
<rect width="9.60001" height="9.6" transform="matrix(-4.37113e-08 1 1 4.37114e-08 164.4 174)" fill="#166C35"/>
<rect width="9.6" height="9.59999" transform="matrix(-4.37113e-08 1 1 4.37114e-08 183.6 164.4)" fill="#166C35"/>
<rect width="9.6" height="9.60001" transform="matrix(-4.37114e-08 1 1 4.37114e-08 174 164.4)" fill="#166C35"/>
<rect width="9.6" height="9.60001" transform="matrix(-4.37114e-08 1 1 4.37114e-08 193.2 154.8)" fill="#166C35"/>
<rect width="38.4" height="9.6" transform="matrix(-4.37114e-08 1 1 4.37114e-08 154.8 145.2)" fill="#166C35"/>
<rect width="38.4" height="9.6" transform="matrix(-4.37114e-08 1 1 4.37114e-08 135.6 145.2)" fill="#166C35"/>
<rect width="9.59999" height="48" transform="matrix(-4.37114e-08 1 1 4.37113e-08 126 202.8)" fill="#0E5327"/>
<rect width="9.59999" height="9.6" transform="matrix(-4.37114e-08 1 1 4.37114e-08 135.6 183.6)" fill="#166C35"/>
<rect x="135.6" y="126" width="9.6" height="9.6" fill="#69197F"/>
<rect x="126" y="87.6001" width="9.6" height="9.6" fill="#9C42B5"/>
<rect x="135.6" y="97.2" width="9.6" height="9.6" fill="#9C42B5"/>
<rect x="145.2" y="106.8" width="9.60001" height="9.6" fill="#9C42B5"/>
<rect x="154.8" y="97.2" width="9.6" height="9.6" fill="#9C42B5"/>
<rect x="164.4" y="87.6001" width="9.6" height="9.6" fill="#9C42B5"/>
<rect x="174" y="97.2" width="9.60001" height="38.4" fill="#8926A5"/>
<rect x="106.8" y="135.6" width="9.6" height="9.6" fill="#69197F"/>
<rect x="183.6" y="135.6" width="9.59999" height="9.6" fill="#69197F"/>
<rect x="116.4" y="97.2" width="9.6" height="38.4" fill="#8926A5"/>
<rect x="154.8" y="126" width="9.6" height="9.6" fill="#69197F"/>
<rect x="145.2" y="135.6" width="9.60001" height="9.6" fill="#69197F"/>
<rect x="116.4" y="145.2" width="19.2" height="9.60001" fill="#69197F"/>
<rect x="164.4" y="145.2" width="19.2" height="9.60001" fill="#69197F"/>
<rect x="135.6" y="145.2" width="28.8" height="9.60001" fill="#0E5327"/>
<rect x="145.2" y="154.8" width="9.60001" height="9.6" fill="#9BDB47"/>
<rect x="145.2" y="164.4" width="9.60001" height="9.6" fill="#58C138"/>
<rect x="97.2" y="164.4" width="9.6" height="9.6" fill="#58C138"/>
<rect x="193.2" y="164.4" width="9.60001" height="9.6" fill="#58C138"/>
</svg>
