<svg width="63" height="62" viewBox="0 0 63 62" fill="none" xmlns="http://www.w3.org/2000/svg">
<rect width="63" height="62" rx="1.9375" fill="#101010"/>
<rect width="63" height="62" rx="1.9375" fill="#328506" fill-opacity="0.25"/>
<path d="M39.0081 38.0101V28.6631H36.6722V30.9989H34.3345V33.3366H31.9986V30.9989H29.6609V28.6631H27.3232V38.0101H24.9873V40.3477H31.9986V38.0101H29.6609V35.6742H31.9986V38.0101H34.3345V35.6742H36.6722V38.0101H34.3345V40.3477H41.3458V38.0101H39.0081Z" fill="#202020"/>
<rect x="20.3135" y="28.6631" width="2.33693" height="2.33693" fill="#0E5327"/>
<rect x="17.9766" y="31" width="2.33693" height="2.33693" fill="#0E5327"/>
<rect x="29.6611" y="47.3447" width="2.3508" height="2.33693" transform="rotate(90 29.6611 47.3447)" fill="#0E5327"/>
<rect x="29.6611" y="44.9941" width="2.3508" height="2.33693" transform="rotate(90 29.6611 44.9941)" fill="#149E2F"/>
<rect x="29.6611" y="42.6567" width="2.33693" height="2.33693" transform="rotate(90 29.6611 42.6567)" fill="#9FDA44"/>
<rect x="29.6611" y="40.3477" width="2.33693" height="2.33693" transform="rotate(90 29.6611 40.3477)" fill="#9FDA44"/>
<rect x="39.009" y="44.9941" width="2.3508" height="2.33693" transform="rotate(90 39.009 44.9941)" fill="#149E2F"/>
<rect x="39.009" y="47.3447" width="2.3508" height="2.33693" transform="rotate(90 39.009 47.3447)" fill="#0E5327"/>
<rect x="39.009" y="42.6567" width="2.33693" height="2.33693" transform="rotate(90 39.009 42.6567)" fill="#9BDB47"/>
<rect x="43.6829" y="44.9941" width="2.3508" height="2.33693" transform="rotate(90 43.6829 44.9941)" fill="#1D793E"/>
<rect x="39.009" y="40.3477" width="2.33693" height="2.33693" transform="rotate(90 39.009 40.3477)" fill="#9BDB47"/>
<rect x="27.3242" y="44.9941" width="2.3508" height="2.33693" transform="rotate(90 27.3242 44.9941)" fill="#149E2F"/>
<rect x="43.6829" y="42.6431" width="2.3508" height="2.33693" transform="rotate(90 43.6829 42.6431)" fill="#119F2E"/>
<rect x="43.6829" y="47.3447" width="2.3508" height="2.33693" transform="rotate(90 43.6829 47.3447)" fill="#0E5327"/>
<rect x="24.9873" y="44.9941" width="2.3508" height="2.33693" transform="rotate(90 24.9873 44.9941)" fill="#1D793E"/>
<rect x="24.9873" y="38.0107" width="2.33693" height="2.33693" transform="rotate(90 24.9873 38.0107)" fill="#1D793E"/>
<rect x="22.6504" y="35.6738" width="2.33693" height="2.33693" transform="rotate(90 22.6504 35.6738)" fill="#1D793E"/>
<rect x="31.9983" y="35.6738" width="2.33693" height="2.33693" transform="rotate(90 31.9983 35.6738)" fill="#1D793E"/>
<rect x="34.3352" y="38.0107" width="2.33693" height="2.33693" transform="rotate(90 34.3352 38.0107)" fill="#1D793E"/>
<rect x="36.6721" y="35.6738" width="2.33693" height="2.33693" transform="rotate(90 36.6721 35.6738)" fill="#1D793E"/>
<rect x="22.6504" y="31" width="2.33693" height="2.33693" transform="rotate(90 22.6504 31)" fill="#1D793E"/>
<rect x="43.6829" y="40.3477" width="2.33693" height="2.33693" transform="rotate(90 43.6829 40.3477)" fill="#58C138"/>
<rect x="46.0198" y="38.0107" width="2.33693" height="2.33693" transform="rotate(90 46.0198 38.0107)" fill="#58C138"/>
<rect x="27.3242" y="42.6567" width="2.33693" height="2.33693" transform="rotate(90 27.3242 42.6567)" fill="#58C138"/>
<rect x="36.6721" y="44.9941" width="2.3508" height="2.33693" transform="rotate(90 36.6721 44.9941)" fill="#149E2F"/>
<rect x="27.3242" y="47.3447" width="2.3508" height="2.33693" transform="rotate(90 27.3242 47.3447)" fill="#0E5327"/>
<rect x="31.9983" y="44.9941" width="2.3508" height="2.33693" transform="rotate(90 31.9983 44.9941)" fill="#149E2F"/>
<rect x="24.9873" y="42.6567" width="2.33693" height="2.33693" transform="rotate(90 24.9873 42.6567)" fill="#119F2E"/>
<rect x="22.6504" y="38.0107" width="2.33693" height="2.33693" transform="rotate(90 22.6504 38.0107)" fill="#119F2E"/>
<rect x="27.3242" y="40.3477" width="2.33693" height="2.33693" transform="rotate(90 27.3242 40.3477)" fill="#9BDB47"/>
<rect x="34.3352" y="44.9941" width="2.3508" height="2.33693" transform="rotate(90 34.3352 44.9941)" fill="#149E2F"/>
<rect x="36.6721" y="42.6567" width="2.33693" height="2.33693" transform="rotate(90 36.6721 42.6567)" fill="#9BDB47"/>
<rect x="24.9873" y="47.3447" width="2.3508" height="2.33693" transform="rotate(90 24.9873 47.3447)" fill="#0E5327"/>
<rect x="41.3459" y="44.9941" width="2.3508" height="2.33693" transform="rotate(90 41.3459 44.9941)" fill="#149E2F"/>
<rect x="31.9983" y="42.6567" width="2.33693" height="2.33693" transform="rotate(90 31.9983 42.6567)" fill="#9BDB47"/>
<rect x="24.9873" y="40.3477" width="2.33693" height="2.33693" transform="rotate(90 24.9873 40.3477)" fill="#119F2E"/>
<rect x="34.3352" y="42.6567" width="2.33693" height="2.33693" transform="rotate(90 34.3352 42.6567)" fill="#9BDB47"/>
<rect x="41.3459" y="42.6431" width="2.3508" height="2.33693" transform="rotate(90 41.3459 42.6431)" fill="#58C138"/>
<rect x="20.3135" y="33.3369" width="7.01078" height="2.33693" transform="rotate(90 20.3135 33.3369)" fill="#119F2E"/>
<rect x="36.6721" y="47.3447" width="2.3508" height="2.33693" transform="rotate(90 36.6721 47.3447)" fill="#0E5327"/>
<rect x="36.6721" y="40.3477" width="2.33693" height="2.33693" transform="rotate(90 36.6721 40.3477)" fill="#9BDB47"/>
<rect x="46.0198" y="42.6846" width="2.33693" height="2.33693" transform="rotate(90 46.0198 42.6846)" fill="#1D793E"/>
<rect x="46.0198" y="45.0215" width="2.33693" height="2.33693" transform="rotate(90 46.0198 45.0215)" fill="#0E5327"/>
<rect x="31.9983" y="47.3447" width="2.3508" height="2.33693" transform="rotate(90 31.9983 47.3447)" fill="#0E5327"/>
<rect x="31.9983" y="40.3477" width="2.33693" height="2.33693" transform="rotate(90 31.9983 40.3477)" fill="#9BDB47"/>
<rect x="34.3352" y="47.3447" width="2.3508" height="2.33693" transform="rotate(90 34.3352 47.3447)" fill="#0E5327"/>
<rect x="34.3352" y="40.3477" width="2.33693" height="2.33693" transform="rotate(90 34.3352 40.3477)" fill="#9BDB47"/>
<rect x="41.3459" y="47.3447" width="2.3508" height="2.33693" transform="rotate(90 41.3459 47.3447)" fill="#0E5327"/>
<rect x="41.3459" y="40.3477" width="2.33693" height="2.33693" transform="rotate(90 41.3459 40.3477)" fill="#9BDB47"/>
<rect x="43.6829" y="38.0107" width="2.33693" height="2.33693" transform="rotate(90 43.6829 38.0107)" fill="#9BDB47"/>
<rect x="15.6396" y="33.3369" width="2.33693" height="9.34771" fill="#0E5327"/>
<rect x="46.0198" y="40.3477" width="2.33693" height="2.33693" transform="rotate(90 46.0198 40.3477)" fill="#14A030"/>
<rect x="48.3567" y="40.3477" width="2.33693" height="2.33693" transform="rotate(90 48.3567 40.3477)" fill="#1E7A3D"/>
<rect x="46.0198" y="30.8892" width="2.3508" height="2.33693" transform="rotate(90 46.0198 30.8892)" fill="#1D793E"/>
<rect x="46.0198" y="31" width="2.33693" height="2.33693" transform="rotate(90 46.0198 31)" fill="#1D793E"/>
<rect x="43.6829" y="26.3262" width="2.33693" height="2.33693" transform="rotate(90 43.6829 26.3262)" fill="#1D793E"/>
<rect x="48.3567" y="33.3369" width="7.01078" height="2.33693" transform="rotate(90 48.3567 33.3369)" fill="#149E2E"/>
<rect x="24.9873" y="28.6631" width="7.01078" height="2.33693" transform="rotate(90 24.9873 28.6631)" fill="#58C138"/>
<rect x="41.3459" y="28.6631" width="9.63983" height="2.33693" transform="rotate(90 41.3459 28.6631)" fill="#149E2E"/>
<rect x="27.3242" y="28.6631" width="9.34771" height="2.33693" transform="rotate(90 27.3242 28.6631)" fill="#149E2E"/>
<rect x="46.0198" y="33.3369" width="4.96597" height="2.33693" transform="rotate(90 46.0198 33.3369)" fill="#9BDC44"/>
<rect x="48.3567" y="42.6846" width="2.33693" height="2.33693" transform="rotate(90 48.3567 42.6846)" fill="#0E5327"/>
<rect x="50.6936" y="33.3369" width="9.34771" height="2.33693" transform="rotate(90 50.6936 33.3369)" fill="#0E5327"/>
<rect x="48.3567" y="31" width="2.33693" height="2.33693" transform="rotate(90 48.3567 31)" fill="#0E5327"/>
<rect x="46.0198" y="26.3262" width="4.67386" height="2.33693" transform="rotate(90 46.0198 26.3262)" fill="#0E5327"/>
<rect x="43.6829" y="28.6631" width="2.33693" height="2.33693" transform="rotate(90 43.6829 28.6631)" fill="#0E5327"/>
<rect x="41.3459" y="26.3262" width="2.33693" height="2.33693" transform="rotate(90 41.3459 26.3262)" fill="#0E5327"/>
<rect x="39.009" y="26.3262" width="2.33693" height="2.33693" transform="rotate(90 39.009 26.3262)" fill="#1F793E"/>
<rect x="36.6721" y="26.3262" width="2.33693" height="2.33693" transform="rotate(90 36.6721 26.3262)" fill="#9BDC44"/>
<rect x="36.6721" y="28.6631" width="2.33693" height="2.33693" transform="rotate(90 36.6721 28.6631)" fill="#149E2F"/>
<rect x="34.3352" y="26.3262" width="2.33693" height="2.33693" transform="rotate(90 34.3352 26.3262)" fill="#9BDC44"/>
<rect x="34.3352" y="28.6631" width="2.33693" height="2.33693" transform="rotate(90 34.3352 28.6631)" fill="#149E2F"/>
<rect x="34.3352" y="31" width="2.33693" height="2.33693" transform="rotate(90 34.3352 31)" fill="#149E2F"/>
<rect x="31.9983" y="26.3262" width="2.33693" height="2.33693" transform="rotate(90 31.9983 26.3262)" fill="#9BDC44"/>
<rect x="31.9983" y="28.6631" width="2.33693" height="2.33693" transform="rotate(90 31.9983 28.6631)" fill="#149E2F"/>
<rect x="29.6611" y="26.3262" width="2.33693" height="2.33693" transform="rotate(90 29.6611 26.3262)" fill="#9BDC44"/>
<rect x="43.6829" y="23.9893" width="2.33693" height="2.33693" transform="rotate(90 43.6829 23.9893)" fill="#0E5327"/>
<rect x="41.3459" y="21.6523" width="2.33693" height="2.33693" transform="rotate(90 41.3459 21.6523)" fill="#0E5327"/>
<rect x="41.3459" y="19.3154" width="2.33693" height="2.33693" transform="rotate(90 41.3459 19.3154)" fill="#177B3E"/>
<rect x="39.009" y="17.02" width="2.3508" height="2.33693" transform="rotate(90 39.009 17.02)" fill="#177B3E"/>
<rect x="36.6721" y="14.6416" width="2.33693" height="2.33693" transform="rotate(90 36.6721 14.6416)" fill="#177B3E"/>
<rect x="34.3352" y="12.3047" width="2.33693" height="2.33693" transform="rotate(90 34.3352 12.3047)" fill="#177B3E"/>
<rect x="31.9983" y="9.98145" width="2.33693" height="2.33693" transform="rotate(90 31.9983 9.98145)" fill="#149E2F"/>
<rect x="29.6611" y="9.98145" width="2.33693" height="2.33693" transform="rotate(90 29.6611 9.98145)" fill="#149E2F"/>
<rect x="27.3242" y="9.98145" width="2.33693" height="2.33693" transform="rotate(90 27.3242 9.98145)" fill="#149E2F"/>
<rect x="24.9873" y="9.98145" width="2.33693" height="2.33693" transform="rotate(90 24.9873 9.98145)" fill="#149E2F"/>
<rect x="24.9873" y="12.3184" width="2.33693" height="2.33693" transform="rotate(90 24.9873 12.3184)" fill="#9FDA44"/>
<rect x="22.6504" y="14.6416" width="2.33693" height="2.33693" transform="rotate(90 22.6504 14.6416)" fill="#9FDA44"/>
<rect x="24.9873" y="19.3154" width="2.33693" height="2.33693" transform="rotate(90 24.9873 19.3154)" fill="#5DC139"/>
<rect x="27.3242" y="19.3154" width="2.33693" height="2.33693" transform="rotate(90 27.3242 19.3154)" fill="#177B3E"/>
<rect x="34.3352" y="19.3154" width="2.33693" height="2.33693" transform="rotate(90 34.3352 19.3154)" fill="#177B3E"/>
<rect x="34.3352" y="23.9546" width="2.46834" height="2.33693" transform="rotate(90 34.3352 23.9546)" fill="#149E2E"/>
<rect x="27.3242" y="16.9785" width="2.33693" height="7.01078" transform="rotate(90 27.3242 16.9785)" fill="#58C138"/>
<rect x="34.3352" y="16.9785" width="2.33693" height="7.01078" transform="rotate(90 34.3352 16.9785)" fill="#149E2F"/>
<rect x="27.3245" y="12.3184" width="2.33693" height="2.33693" transform="rotate(90 27.3245 12.3184)" fill="#9FDA44"/>
<rect x="27.3242" y="14.6416" width="2.33693" height="2.33693" transform="rotate(90 27.3242 14.6416)" fill="#9FDA44"/>
<rect x="29.6611" y="12.3184" width="2.33693" height="2.33693" transform="rotate(90 29.6611 12.3184)" fill="#9FDA44"/>
<rect x="31.9983" y="12.3184" width="2.33693" height="2.33693" transform="rotate(90 31.9983 12.3184)" fill="#9FDA44"/>
<rect x="31.9983" y="14.6416" width="2.33693" height="2.33693" transform="rotate(90 31.9983 14.6416)" fill="#58C139"/>
<rect x="34.3352" y="14.6416" width="2.33693" height="2.33693" transform="rotate(90 34.3352 14.6416)" fill="#9FDA44"/>
<rect x="36.6721" y="16.9785" width="2.33693" height="2.33693" transform="rotate(90 36.6721 16.9785)" fill="#9FDA44"/>
<rect x="39.009" y="19.3711" width="7.0524" height="2.33693" transform="rotate(90 39.009 19.3711)" fill="#9FDA44"/>
<rect x="36.6721" y="19.3154" width="7.01078" height="2.33693" transform="rotate(90 36.6721 19.3154)" fill="#58C138"/>
<rect x="22.6504" y="12.3184" width="2.3508" height="2.33693" transform="rotate(90 22.6504 12.3184)" fill="#149E2F"/>
<rect x="24.9873" y="14.6416" width="2.33693" height="2.33693" transform="rotate(90 24.9873 14.6416)" fill="#DF3F20"/>
<rect x="17.9766" y="21.6523" width="2.3508" height="2.33693" transform="rotate(90 17.9766 21.6523)" fill="#DF3F20"/>
<rect x="20.3135" y="19.3154" width="2.33693" height="2.33693" transform="rotate(90 20.3135 19.3154)" fill="#DF3F20"/>
<rect x="22.6504" y="19.3154" width="2.33693" height="2.33693" transform="rotate(90 22.6504 19.3154)" fill="#B5202C"/>
<rect x="29.6611" y="14.6416" width="2.33693" height="2.33693" transform="rotate(90 29.6611 14.6416)" fill="#DF3F20"/>
<rect x="20.3135" y="14.6416" width="2.33693" height="2.33693" transform="rotate(90 20.3135 14.6416)" fill="#177B3E"/>
<rect x="20.3135" y="16.9785" width="2.33693" height="2.33693" transform="rotate(90 20.3135 16.9785)" fill="#177B3E"/>
<rect x="17.9766" y="19.3154" width="2.33693" height="2.33693" transform="rotate(90 17.9766 19.3154)" fill="#177B3E"/>
<rect x="15.6396" y="21.6523" width="2.3508" height="2.33693" transform="rotate(90 15.6396 21.6523)" fill="#177B3E"/>
<rect x="17.9766" y="23.9893" width="2.3508" height="2.33693" transform="rotate(90 17.9766 23.9893)" fill="#0E5327"/>
<rect x="20.3135" y="21.6523" width="2.33693" height="2.33693" transform="rotate(90 20.3135 21.6523)" fill="#0E5327"/>
<rect x="22.6504" y="21.6523" width="2.33693" height="2.33693" transform="rotate(90 22.6504 21.6523)" fill="#0E5327"/>
<rect x="24.9873" y="21.6523" width="2.33693" height="2.33693" transform="rotate(90 24.9873 21.6523)" fill="#0E5327"/>
<rect x="24.9873" y="26.3262" width="2.33693" height="2.33693" transform="rotate(90 24.9873 26.3262)" fill="#0E5327"/>
<rect x="27.3242" y="21.6523" width="2.33693" height="2.33693" transform="rotate(90 27.3242 21.6523)" fill="#0E5327"/>
<rect x="27.3242" y="26.3262" width="2.33693" height="2.33693" transform="rotate(90 27.3242 26.3262)" fill="#0E5327"/>
<rect x="43.6829" y="31" width="2.33693" height="2.33693" transform="rotate(90 43.6829 31)" fill="#0E5327"/>
<rect x="43.6829" y="33.3369" width="2.62904" height="2.33693" transform="rotate(90 43.6829 33.3369)" fill="#0E5327"/>
<rect x="20.3135" y="42.6431" width="2.33693" height="2.3508" fill="#1D793E"/>
<rect x="20.3135" y="44.9941" width="2.33693" height="2.3508" fill="#0E5327"/>
<rect x="43.6829" y="35.9663" width="2.33693" height="2.33693" transform="rotate(90 43.6829 35.9663)" fill="#0E5327"/>
<rect x="24.9873" y="35.6738" width="2.33693" height="2.33693" transform="rotate(90 24.9873 35.6738)" fill="#0E5327"/>
<rect x="22.6504" y="33.3369" width="2.33693" height="2.33693" transform="rotate(90 22.6504 33.3369)" fill="#0E5327"/>
<rect x="29.6611" y="19.3154" width="2.33693" height="2.33693" transform="rotate(90 29.6611 19.3154)" fill="#0E5327"/>
<rect x="31.9983" y="19.3154" width="2.33693" height="2.33693" transform="rotate(90 31.9983 19.3154)" fill="#0E5327"/>
<rect x="34.3352" y="21.6523" width="2.33693" height="2.33693" transform="rotate(90 34.3352 21.6523)" fill="#0E5327"/>
<rect x="31.9983" y="24.0723" width="2.3508" height="2.33693" transform="rotate(90 31.9983 24.0723)" fill="#0E5327"/>
<rect x="29.6611" y="24.0723" width="2.3508" height="2.33693" transform="rotate(90 29.6611 24.0723)" fill="#0E5327"/>
<rect x="41.3459" y="23.9893" width="2.33693" height="2.33693" transform="rotate(90 41.3459 23.9893)" fill="#0E5327"/>
<rect x="17.9766" y="42.6431" width="2.33693" height="2.3508" fill="#0E5327"/>
<rect x="20.3135" y="40.2925" width="2.33693" height="2.46834" fill="#1D793E"/>
<rect x="17.9766" y="40.2925" width="2.33693" height="2.3508" fill="#1D793E"/>
</svg>
