<svg width="160" height="160" viewBox="0 0 160 160" fill="none" xmlns="http://www.w3.org/2000/svg">
<rect x="56" y="32" width="48" height="56" fill="#FFF0C3"/>
<rect x="48" y="40" width="64" height="40" fill="#FFF0C3"/>
<rect x="104" y="16" width="8" height="48" transform="rotate(90 104 16)" fill="#9E481E"/>
<rect x="112" y="24" width="8" height="64" transform="rotate(90 112 24)" fill="#9E481E"/>
<rect x="104" y="24" width="8" height="48" transform="rotate(90 104 24)" fill="#66331A"/>
<rect x="48" y="32" width="8" height="8" transform="rotate(90 48 32)" fill="#9E481E"/>
<rect x="56" y="32" width="8" height="8" transform="rotate(90 56 32)" fill="#B36843"/>
<rect x="56" y="32" width="8" height="8" transform="rotate(90 56 32)" fill="#66331A"/>
<rect width="8" height="8" transform="matrix(4.37114e-08 1 1 -4.37114e-08 104 32)" fill="#9E481E"/>
<rect width="8" height="8" transform="matrix(4.37114e-08 1 1 -4.37114e-08 104 32)" fill="#66331A"/>
<rect width="8" height="8" transform="matrix(4.37114e-08 1 1 -4.37114e-08 112 32)" fill="#9E481E"/>
<rect x="40" y="40" width="16" height="8" transform="rotate(90 40 40)" fill="#9E481E"/>
<rect x="48" y="40" width="8" height="8" transform="rotate(90 48 40)" fill="#9E481E"/>
<rect x="48" y="40" width="40" height="8" transform="rotate(90 48 40)" fill="#66331A"/>
<rect width="8" height="8" transform="matrix(4.37114e-08 1 1 -4.37114e-08 112 40)" fill="#9E481E"/>
<rect width="16" height="8" transform="matrix(4.37114e-08 1 1 -4.37114e-08 120 40)" fill="#9E481E"/>
<path d="M97.1445 70.2012L97.1445 43L90.2832 43L90.2832 49.8047L83.4277 49.8047L83.4277 56.6035L76.5723 56.6035L76.5723 49.8047L69.7168 49.8047L69.7168 43L62.8614 43L62.8614 70.2012L56 70.2012L56 77L76.5723 77L76.5723 70.2012L69.7168 70.2012L69.7168 63.4023L76.5723 63.4023L76.5723 70.2012L83.4277 70.2012L83.4277 63.4023L90.2832 63.4023L90.2832 70.2012L83.4277 70.2012L83.4277 77L104 77L104 70.2012L97.1445 70.2012Z" fill="#FA500F"/>
<rect x="40" y="56" width="16" height="8" transform="rotate(90 40 56)" fill="#9E481E"/>
<rect width="16" height="8" transform="matrix(4.37114e-08 1 1 -4.37114e-08 120 56)" fill="#9E481E"/>
<rect x="40" y="72" width="16" height="8" transform="rotate(90 40 72)" fill="#9E481E"/>
<rect width="16" height="8" transform="matrix(4.37114e-08 1 1 -4.37114e-08 120 72)" fill="#9E481E"/>
<rect x="48" y="80" width="8" height="8" transform="rotate(90 48 80)" fill="#9E481E"/>
<rect x="56" y="80" width="8" height="8" transform="rotate(90 56 80)" fill="#66331A"/>
<rect width="8" height="8" transform="matrix(4.37114e-08 1 1 -4.37114e-08 104 80)" fill="#66331A"/>
<rect width="8" height="8" transform="matrix(4.37114e-08 1 1 -4.37114e-08 112 80)" fill="#9E481E"/>
<rect x="48" y="88" width="8" height="8" transform="rotate(90 48 88)" fill="#9E481E"/>
<rect x="56" y="88" width="8" height="8" transform="rotate(90 56 88)" fill="#9E481E"/>
<rect width="8" height="8" transform="matrix(4.37114e-08 1 1 -4.37114e-08 104 88)" fill="#9E481E"/>
<rect x="120" y="88" width="8" height="8" transform="rotate(90 120 88)" fill="#9E481E"/>
<rect x="104" y="88" width="8" height="48" transform="rotate(90 104 88)" fill="#66331A"/>
<rect x="112" y="96" width="8" height="64" transform="rotate(90 112 96)" fill="#9E481E"/>
<rect x="112" y="96" width="8" height="64" transform="rotate(90 112 96)" fill="#9E481E"/>
<rect x="96" y="104" width="8" height="32" transform="rotate(90 96 104)" fill="#66331A"/>
<rect x="88" y="112" width="24" height="16" transform="rotate(90 88 112)" fill="#9E481E"/>
<rect x="88" y="136" width="8" height="16" transform="rotate(90 88 136)" fill="#66331A"/>
<rect width="40" height="8" transform="matrix(4.37114e-08 1 1 -4.37114e-08 112 40)" fill="#66331A"/>
</svg>
