<svg width="160" height="160" viewBox="0 0 160 160" fill="none" xmlns="http://www.w3.org/2000/svg">
<path d="M64.0016 8H56.0016V16H64.0016V8Z" fill="#9E481E"/>
<path d="M72.0031 8H64V16.0028H72.0031V8Z" fill="#FA500F"/>
<path d="M80.0031 8H72V16.0028H80.0031V8Z" fill="#FFD800"/>
<path d="M80.0031 8H72V16.0028H80.0031V8Z" fill="#FF8205"/>
<path d="M88.0031 8H80V16.0028H88.0031V8Z" fill="#46BE00"/>
<path d="M88.0031 8H80V16.0028H88.0031V8Z" fill="#FFAF00"/>
<path d="M96.0031 8H88V16.0028H96.0031V8Z" fill="#0082E6"/>
<path d="M104.002 8H96.0016V16H104.002V8Z" fill="#323796"/>
<path d="M56.0031 16H48V24.0028H56.0031V16Z" fill="#9E481E"/>
<path d="M64.0016 16H56.0016V24H64.0016V16Z" fill="#FA500F"/>
<path d="M88.0032 16H72.0032V96H88.0032V16Z" fill="#FFD800"/>
<path d="M104.003 16H96V24.0028H104.003V16Z" fill="#0082E6"/>
<path d="M104 16H112.003V24.0028H104V16Z" fill="#323796"/>
<path d="M48.0015 24H39.9984V32.0028H48.0015V24Z" fill="#9E481E"/>
<path d="M56.0016 24H48.0016V40H56.0016V24Z" fill="#FA500F"/>
<path d="M64 24H56V48H64V24Z" fill="#FF8205"/>
<path d="M72 24H64V88H72V24Z" fill="#FFD800"/>
<path d="M96 24H88V88H96V24Z" fill="#FFD800"/>
<path d="M96.0032 24H104.003V48H96.0032V24Z" fill="#46BE00"/>
<path d="M104.002 24H112.002V40H104.002V24Z" fill="#0082E6"/>
<path d="M112.002 24H120.005V32.0028H112.002V24Z" fill="#323796"/>
<path d="M40 32H32V48H40V32Z" fill="#9E481E"/>
<path d="M48 32H40V80H48V32Z" fill="#FA500F"/>
<path d="M112.003 32H120.003V80H112.003V32Z" fill="#0082E6"/>
<path d="M120.003 32H128.003V48H120.003V32Z" fill="#323796"/>
<path d="M56.0016 40H48.0016V48H56.0016V40Z" fill="#FF8205"/>
<path d="M104.003 40H112.003V72H104.003V40Z" fill="#46BE00"/>
<path d="M32 48H24V64H32V48Z" fill="#9E481E"/>
<path d="M40 48H32V64H40V48Z" fill="#E92700"/>
<path d="M56 48H48V72H56V48Z" fill="#FF8205"/>
<path d="M64 48H56V64H64V48Z" fill="#FF8205"/>
<path d="M104 48H96V64H104V48Z" fill="#46BE00"/>
<path d="M120.003 48H128.003V64H120.003V48Z" fill="#0082E6"/>
<path d="M128.003 48H136.003V64H128.003V48Z" fill="#323796"/>
<path d="M40 64H32V80H40V64Z" fill="#9E481E"/>
<path d="M120.003 64H128.003V80H120.003V64Z" fill="#323796"/>
<path d="M64.0016 64.0028H56.0016V96.0028H64.0016V64.0028Z" fill="#FF8205"/>
<path d="M96.0016 64.0028H104.002V96.0028H96.0016V64.0028Z" fill="#46BE00"/>
<path d="M56 72H48V88H56V72Z" fill="#FA500F"/>
<path d="M104.003 72H112.003V88H104.003V72Z" fill="#0082E6"/>
<path d="M48.0015 80H39.9984V88.0028H48.0015V80Z" fill="#9E481E"/>
<path d="M112.002 80H120.005V88.0028H112.002V80Z" fill="#323796"/>
<path d="M72.0016 80.0028H64.0016V96.0028H72.0016V80.0028Z" fill="#FF8205"/>
<path d="M88.0016 80.0028H96.0016V96.0028H88.0016V80.0028Z" fill="#46BE00"/>
<path d="M56.0015 88H47.9984V96.0028H56.0015V88Z" fill="#9E481E"/>
<path d="M104.002 88H112.005V96.0028H104.002V88Z" fill="#323796"/>
<path d="M64.0031 96H56V104.003H64.0031V96Z" fill="#FA500F"/>
<path d="M72.0031 96H64V104.003H72.0031V96Z" fill="#FF8205"/>
<path d="M80.0031 96H72V104.003H80.0031V96Z" fill="#FFD800"/>
<path d="M80.0031 96H72V104.003H80.0031V96Z" fill="#FF8205"/>
<path d="M88.0031 96H80V104.003H88.0031V96Z" fill="#46BE00"/>
<path d="M88.0031 96H80V104.003H88.0031V96Z" fill="#FFD800"/>
<path d="M96.0031 96H88V104.003H96.0031V96Z" fill="#FA500F"/>
<path d="M96.0031 96H88V104.003H96.0031V96Z" fill="#46BE00"/>
<path d="M104.003 96H96V104.003H104.003V96Z" fill="#0082E6"/>
<path d="M100 104H60V112H100V104Z" fill="#66331A"/>
<path d="M72.0031 112H64V120.003H72.0031V112Z" fill="#E1B496"/>
<path d="M96.0031 112H88V120.003H96.0031V112Z" fill="#E1B496"/>
<path d="M95.7158 144.801L95.7158 120L89.4263 120L89.4263 126.204L83.1421 126.204L83.1421 132.403L76.8579 132.403L76.8579 126.204L70.5737 126.204L70.5737 120L64.2896 120L64.2896 144.801L58 144.801L58 151L76.8579 151L76.8579 144.801L70.5737 144.801L70.5737 138.602L76.8579 138.602L76.8579 144.801L83.1421 144.801L83.1421 138.602L89.4263 138.602L89.4263 144.801L83.1421 144.801L83.1421 151L102 151L102 144.801L95.7158 144.801Z" fill="#66331A"/>
<path d="M72.0016 16H64.0016V32H72.0016V16Z" fill="#FF8205"/>
<path d="M88.0016 16H96.0016V32H88.0016V16Z" fill="#46BE00"/>
</svg>
