<svg width="160" height="160" viewBox="0 0 160 160" fill="none" xmlns="http://www.w3.org/2000/svg">
<rect x="40" y="24" width="80" height="112" fill="#E1B496"/>
<rect x="48" y="32" width="64" height="32" fill="#58C138"/>
<path d="M103.287 59.2008L103.287 40L98.5697 40L98.5697 44.8033L93.8566 44.8033L93.8566 49.6025L89.1434 49.6025L89.1434 44.8033L84.4303 44.8033L84.4303 40L79.7172 40L79.7172 59.2008L75 59.2008L75 64L89.1434 64L89.1434 59.2008L84.4303 59.2008L84.4303 54.4017L89.1434 54.4017L89.1434 59.2008L93.8566 59.2008L93.8566 54.4017L98.5697 54.4017L98.5697 59.2008L93.8566 59.2008L93.8566 64L108 64L108 59.2008L103.287 59.2008Z" fill="#1D793E"/>
<rect x="48" y="32" width="8" height="32" fill="#0E5327"/>
<rect x="56" y="72" width="8" height="56" fill="#B36843"/>
<rect x="32" y="24" width="8" height="112" fill="#B36843"/>
<rect x="120" y="24" width="8" height="112" fill="#F9E4D5"/>
<rect x="120" y="16" width="8" height="80" transform="rotate(90 120 16)" fill="#F9E4D5"/>
<rect x="120" y="136" width="8" height="80" transform="rotate(90 120 136)" fill="#B36843"/>
<rect x="72" y="72" width="8" height="56" fill="#B36843"/>
<rect x="88" y="72" width="8" height="56" fill="#B36843"/>
<rect x="104" y="72" width="8" height="56" fill="#B36843"/>
<rect x="96" y="72" width="8" height="56" fill="#F4EBE4"/>
<rect x="80" y="72" width="8" height="56" fill="#F4EBE4"/>
<rect x="64" y="72" width="8" height="56" fill="#F4EBE4"/>
<rect x="48" y="72" width="8" height="56" fill="#F4EBE4"/>
<rect x="48" y="32" width="64" height="8" fill="#0E5327"/>
<rect x="112" y="80" width="8" height="64" transform="rotate(90 112 80)" fill="#CB9372"/>
<rect x="112" y="96" width="8" height="64" transform="rotate(90 112 96)" fill="#CB9372"/>
<rect x="112" y="112" width="8" height="64" transform="rotate(90 112 112)" fill="#CB9372"/>
</svg>
