<svg width="160" height="160" viewBox="0 0 160 160" fill="none" xmlns="http://www.w3.org/2000/svg">
<rect x="32" y="24" width="96" height="80" fill="#E1B496"/>
<rect x="40" y="32" width="80" height="64" fill="#202020"/>
<rect width="80" height="8" transform="matrix(1 0 0 -1 40 112)" fill="#B36843"/>
<rect width="96" height="24" transform="matrix(1 0 0 -1 32 136)" fill="#E1B496"/>
<rect width="32" height="8" transform="matrix(1 0 0 -1 40 128)" fill="#66331A"/>
<rect width="8" height="8" transform="matrix(1 0 0 -1 112 128)" fill="#66331A"/>
<g clip-path="url(#clip0_290_43450)">
<path d="M69.9984 45.9992H61.9984V53.9992H69.9984V45.9992Z" fill="#FFAF00"/>
<path d="M89.9984 45.9992H81.9984V53.9992H89.9984V45.9992Z" fill="#FFAF00"/>
<path d="M82 38H70V46H82V38Z" fill="#FFD700"/>
<path d="M89.9984 65.9992H81.9984V73.9992H89.9984V65.9992Z" fill="#FA500F"/>
<path d="M97.9984 73.9992H89.9984V81.9992H97.9984V73.9992Z" fill="#E92700"/>
<path d="M105.998 81.9992H97.9984V89.9992H105.998V81.9992Z" fill="#E92700"/>
<path d="M69.9984 65.9992H61.9984V73.9992H69.9984V65.9992Z" fill="#FA500F"/>
<path d="M82 74H70V82H82V74Z" fill="#FA500F"/>
<path d="M62 54H54V66H62V54Z" fill="#FF8205"/>
<path d="M98 54H90V66H98V54Z" fill="#FF8205"/>
</g>
<defs>
<clipPath id="clip0_290_43450">
<rect width="52" height="52" fill="white" transform="translate(54 38)"/>
</clipPath>
</defs>
</svg>
