<svg width="160" height="160" viewBox="0 0 160 160" fill="none" xmlns="http://www.w3.org/2000/svg">
<rect x="32" y="24" width="96" height="16" fill="#FFD800"/>
<rect x="136" y="32" width="96" height="16" transform="rotate(90 136 32)" fill="#0082E6"/>
<rect x="22" y="45" width="90" height="91" fill="#FA500F"/>
<rect width="8" height="96" transform="matrix(-1 0 0 1 24 40)" fill="#66331A"/>
<rect width="8" height="96" transform="matrix(-1 0 0 1 56 48)" fill="#66331A"/>
<rect width="8" height="96" transform="matrix(-1 0 0 1 88 48)" fill="#66331A"/>
<rect width="8" height="96" transform="matrix(1.19249e-08 -1 -1 -1.19249e-08 120 80)" fill="#66331A"/>
<rect width="8" height="96" transform="matrix(1.19249e-08 -1 -1 -1.19249e-08 120 112)" fill="#66331A"/>
<path d="M88 103.999V72H80.0031V79.9965H72V87.9993H64.0031V79.9965H56V72H47.9969V103.999H40V112.001H64.0031V103.999H56V96.0021H64.0031V103.999H72V96.0021H80.0031V103.999H72V112.001H96.0031V103.999H88Z" fill="white"/>
<rect width="8" height="96" transform="matrix(1.19249e-08 -1 -1 -1.19249e-08 120 144)" fill="#66331A"/>
<rect width="8" height="88" transform="matrix(1.19249e-08 -1 -1 -1.19249e-08 112 48)" fill="#66331A"/>
<rect width="8" height="88" transform="matrix(-1 0 0 1 120 48)" fill="#66331A"/>
<rect width="8" height="96" transform="matrix(-1 0 0 1 144 24)" fill="#66331A"/>
<rect width="8" height="8" transform="matrix(-1 0 0 1 32 32)" fill="#66331A"/>
<rect width="8" height="8" transform="matrix(-1 0 0 1 120 40)" fill="#66331A"/>
<rect width="8" height="8" transform="matrix(-1 0 0 1 96 32)" fill="#66331A"/>
<rect width="8" height="8" transform="matrix(-1 0 0 1 128 64)" fill="#66331A"/>
<rect width="8" height="8" transform="matrix(-1 0 0 1 128 96)" fill="#66331A"/>
<rect width="8" height="8" transform="matrix(-1 0 0 1 64 32)" fill="#66331A"/>
<rect width="8" height="8" transform="matrix(-1 0 0 1 128 128)" fill="#66331A"/>
<rect width="8" height="8" transform="matrix(-1 0 0 1 40 24)" fill="#66331A"/>
<rect width="8" height="8" transform="matrix(-1 0 0 1 48 24)" fill="#66331A"/>
<rect width="8" height="8" transform="matrix(-1 0 0 1 128 32)" fill="#66331A"/>
<rect width="8" height="8" transform="matrix(-1 0 0 1 104 24)" fill="#66331A"/>
<rect width="96" height="8" transform="matrix(-1 0 0 1 136 16)" fill="#9E481E"/>
<rect width="8" height="8" transform="matrix(-1 0 0 1 112 24)" fill="#66331A"/>
<rect width="8" height="8" transform="matrix(-1 0 0 1 80 24)" fill="#66331A"/>
<rect width="8" height="8" transform="matrix(-1 0 0 1 136 56)" fill="#66331A"/>
<rect width="8" height="8" transform="matrix(-1 0 0 1 136 88)" fill="#66331A"/>
<rect width="8" height="8" transform="matrix(-1 0 0 1 72 24)" fill="#66331A"/>
<rect width="8" height="8" transform="matrix(-1 0 0 1 136 120)" fill="#66331A"/>
<rect width="8" height="8" transform="matrix(-1 0 0 1 136 24)" fill="#66331A"/>
</svg>
