<svg width="160" height="160" viewBox="0 0 160 160" fill="none" xmlns="http://www.w3.org/2000/svg">
<path d="M76 20H68V28H76V20Z" fill="#9E481E"/>
<path d="M84 20H76V28H84V20Z" fill="#9E481E"/>
<path d="M92 20H84V28H92V20Z" fill="#9E481E"/>
<path d="M44 52H36V60H44V52Z" fill="#66331A"/>
<path d="M44 60H36V68H44V60Z" fill="#66331A"/>
<path d="M44 68H36V76H44V68Z" fill="#66331A"/>
<path d="M44 76H36V84H44V76Z" fill="#66331A"/>
<path d="M124 52H116V60H124V52Z" fill="#66331A"/>
<path d="M124 60H116V68H124V60Z" fill="#66331A"/>
<path d="M124 68H116V76H124V68Z" fill="#66331A"/>
<path d="M124 76H116V84H124V76Z" fill="#66331A"/>
<path d="M68 100H60V108H68V100Z" fill="#00425C"/>
<path d="M76 100H68V108H76V100Z" fill="#00425C"/>
<path d="M92 100H84V108H92V100Z" fill="#00425C"/>
<path d="M100 100H92V108H100V100Z" fill="#00425C"/>
<path d="M68 92H60V100H68V92Z" fill="#FA500F"/>
<path d="M76 92H68V100H76V92Z" fill="#FA500F"/>
<path d="M84 92H76V100H84V92Z" fill="#FA500F"/>
<path d="M92 92H84V100H92V92Z" fill="#FA500F"/>
<path d="M100 92H92V100H100V92Z" fill="#FA500F"/>
<path d="M108 84H100V92H108V84Z" fill="#FF8205"/>
<path d="M116 76H108V84H116V76Z" fill="#FFAF00"/>
<path d="M76 84H68V92H76V84Z" fill="#FF8205"/>
<path d="M68 84H60V92H68V84Z" fill="#FF8205"/>
<path d="M84 84H76V92H84V84Z" fill="#FFD800"/>
<path d="M92 84H84V92H92V84Z" fill="#FF8205"/>
<path d="M100 84H92V92H100V84Z" fill="#FF8205"/>
<path d="M84 76H76V84H84V76Z" fill="#FF8205"/>
<path d="M76 76H68V84H76V76Z" fill="#FFD800"/>
<path d="M92 76H84V84H92V76Z" fill="#FFD800"/>
<path d="M108 76H100V84H108V76Z" fill="#FFD800"/>
<path d="M116 68H108V76H116V68Z" fill="#FFD800"/>
<path d="M116 60H108V68H116V60Z" fill="#FFD800"/>
<path d="M116 52H108V60H116V52Z" fill="#FFD800"/>
<path d="M108 52H100V60H108V52Z" fill="#FFD800"/>
<path d="M100 52H92V60H100V52Z" fill="#FF8205"/>
<path d="M108 44H100V52H108V44Z" fill="#FFD800"/>
<path d="M84 28H76V36H84V28Z" fill="#FFF0C3"/>
<path d="M92 28H84V36H92V28Z" fill="#FFF0C3"/>
<path d="M84 36H76V44H84V36Z" fill="#FFD800"/>
<path d="M68 36H60V44H68V36Z" fill="#FFF0C3"/>
<path d="M60 44H52V52H60V44Z" fill="#FFF0C3"/>
<path d="M52 76H44V84H52V76Z" fill="#FFF0C3"/>
<path d="M52 68H44V76H52V68Z" fill="#FFF0C3"/>
<path d="M52 60H44V68H52V60Z" fill="#FFF0C3"/>
<path d="M52 52H44V60H52V52Z" fill="#FFF0C3"/>
<path d="M60 36H52V44H60V36Z" fill="#FFF0C3"/>
<path d="M76 28H68V36H76V28Z" fill="#FFF0C3"/>
<path d="M100 36H92V44H100V36Z" fill="#FFD800"/>
<path d="M108 36H100V44H108V36Z" fill="#FFD800"/>
<path d="M108 60H100V68H108V60Z" fill="#FFD800"/>
<path d="M108 92H100V100H108V92Z" fill="#66331A"/>
<path d="M60 92H52V100H60V92Z" fill="#66331A"/>
<path d="M60 68H52V76H60V68Z" fill="#FFD800"/>
<path d="M100 44H92V52H100V44Z" fill="#FFD800"/>
<path d="M92 52H84V60H92V52Z" fill="#FFD800"/>
<path d="M76 60H68V68H76V60Z" fill="#FF8205"/>
<path d="M84 68H76V76H84V68Z" fill="#FF8205"/>
<path d="M92 44H84V52H92V44Z" fill="#FFD800"/>
<path d="M92 36H84V44H92V36Z" fill="#FFD800"/>
<path d="M76 52H68V60H76V52Z" fill="#FFD800"/>
<path d="M76 44H68V52H76V44Z" fill="#FFD800"/>
<path d="M76 36H68V44H76V36Z" fill="#FFD800"/>
<path d="M100 28H92V36H100V28Z" fill="#9E481E"/>
<path d="M108 28H100V36H108V28Z" fill="#66331A"/>
<path d="M68 28H60V36H68V28Z" fill="#9E481E"/>
<path d="M60 28H52V36H60V28Z" fill="#66331A"/>
<path d="M116 36H108V44H116V36Z" fill="#66331A"/>
<path d="M116 44H108V52H116V44Z" fill="#66331A"/>
<path d="M116 84H108V92H116V84Z" fill="#66331A"/>
<path d="M108 68H100V76H108V68Z" fill="#FFD800"/>
<path d="M100 76H92V84H100V76Z" fill="#FF8205"/>
<path d="M100 68H92V76H100V68Z" fill="#FF8205"/>
<path d="M100 60H92V68H100V60Z" fill="#FF8205"/>
<path d="M92 68H84V76H92V68Z" fill="#FF8205"/>
<path d="M84 100H76V108H84V100Z" fill="#00425C"/>
<path d="M92 60H84V68H92V60Z" fill="#FF8205"/>
<path d="M84 52H76V60H84V52Z" fill="#FFD800"/>
<path d="M84 44H76V52H84V44Z" fill="#FFD800"/>
<path d="M68 44H60V52H68V44Z" fill="#FFD800"/>
<path d="M60 84H52V92H60V84Z" fill="#FF8205"/>
<path d="M68 76H60V84H68V76Z" fill="#FF8205"/>
<path d="M76 68H68V76H76V68Z" fill="#FF8205"/>
<path d="M68 68H60V76H68V68Z" fill="#FF8205"/>
<path d="M68 60H60V68H68V60Z" fill="#FF8205"/>
<path d="M68 52H60V60H68V52Z" fill="#FF8205"/>
<path d="M84 60H76V68H84V60Z" fill="#FFD800"/>
<path d="M60 52H52V60H60V52Z" fill="#FFD800"/>
<path d="M60 76H52V84H60V76Z" fill="#FFD800"/>
<path d="M60 60H52V68H60V60Z" fill="#FFD800"/>
<path d="M52 36H44V44H52V36Z" fill="#66331A"/>
<path d="M52 44H44V52H52V44Z" fill="#66331A"/>
<path d="M52 84H44V92H52V84Z" fill="#66331A"/>
<path d="M76 108H68V116H76V108Z" fill="#B9DAFF"/>
<path d="M84 108H76V116H84V108Z" fill="#B9DAFF"/>
<path d="M92 108H84V116H92V108Z" fill="#00AAE6"/>
<path d="M68 108H60V116H68V108Z" fill="#00425C"/>
<path d="M84 116H76V124H84V116Z" fill="#00425C"/>
<path d="M92 116H84V124H92V116Z" fill="#00425C"/>
<path d="M84 124H76V132H84V124Z" fill="#00AAE6"/>
<path d="M68 124H60V132H68V124Z" fill="#00425C"/>
<path d="M76 116H68V124H76V116Z" fill="#00425C"/>
<path d="M100 124H92V132H100V124Z" fill="#00425C"/>
<path d="M100 108H92V116H100V108Z" fill="#00425C"/>
<path d="M92 132H84V140H92V132Z" fill="#00425C"/>
<path d="M92 124H84V132H92V124Z" fill="#00425C"/>
<path d="M76 132H68V140H76V132Z" fill="#00425C"/>
<path d="M76 124H68V132H76V124Z" fill="#B9DAFF"/>
<path d="M100 116H92V124H100V116Z" fill="#00425C"/>
<path d="M68 116H60V124H68V116Z" fill="#00425C"/>
<path d="M84 132H76V140H84V132Z" fill="#00425C"/>
</svg>
