<svg width="160" height="160" viewBox="0 0 160 160" fill="none" xmlns="http://www.w3.org/2000/svg">
<path d="M100.001 68.0014V36H92.0019V44.002H83.9995V52.0007H76.0005V44.002H68.0015V36H59.999V68.0014H52V76H76.0005V68.0014H68.0015V59.9993H76.0005V68.0014H83.9995V59.9993H92.0019V68.0014H83.9995V76H108V68.0014H100.001Z" fill="#FF92DC"/>
<path d="M116.001 92.0011V100H100V108.002H92.0016V116.001H83.9994V76H76.0006V116.001H68.0019V108.002H59.9997V100H44.0022V92.0011H36V108.002H44.0022V116.001H59.9997V124H100V116.001H116.001V108.002H124V92.0011H116.001Z" fill="#00A514"/>
<rect width="8" height="8" transform="matrix(-4.37114e-08 1 1 4.37114e-08 84 108)" fill="#166C35"/>
<rect width="8" height="8" transform="matrix(-4.37114e-08 1 1 4.37114e-08 100 116)" fill="#0E5327"/>
<rect width="8" height="8" transform="matrix(-4.37114e-08 1 1 4.37114e-08 108 116)" fill="#0E5327"/>
<rect width="8" height="8" transform="matrix(-4.37114e-08 1 1 4.37114e-08 116 108)" fill="#166C35"/>
<rect width="8" height="8" transform="matrix(-4.37114e-08 1 1 4.37114e-08 36 108)" fill="#166C35"/>
<rect width="8" height="8" transform="matrix(-4.37114e-08 1 1 4.37114e-08 28 100)" fill="#166C35"/>
<rect width="8" height="8" transform="matrix(-4.37114e-08 1 1 4.37114e-08 124 100)" fill="#166C35"/>
<rect width="8" height="8" transform="matrix(-4.37114e-08 1 1 4.37114e-08 28 92)" fill="#166C35"/>
<rect width="8" height="8" transform="matrix(-4.37114e-08 1 1 4.37114e-08 124 92)" fill="#166C35"/>
<rect width="8" height="8" transform="matrix(-4.37114e-08 1 1 4.37114e-08 52 116)" fill="#0E5327"/>
<rect width="8" height="8" transform="matrix(-4.37114e-08 1 1 4.37114e-08 44 116)" fill="#0E5327"/>
<rect width="8" height="8" transform="matrix(-4.37114e-08 1 1 4.37114e-08 60 100)" fill="#166C35"/>
<rect width="8" height="8" transform="matrix(-4.37114e-08 1 1 4.37114e-08 44 92)" fill="#166C35"/>
<rect width="8" height="8" transform="matrix(-4.37114e-08 1 1 4.37114e-08 52 92)" fill="#166C35"/>
<rect width="8" height="8" transform="matrix(-4.37114e-08 1 1 4.37114e-08 36 84)" fill="#166C35"/>
<rect width="8" height="8" transform="matrix(-4.37114e-08 1 1 4.37114e-08 92 100)" fill="#166C35"/>
<rect width="8" height="8" transform="matrix(-4.37114e-08 1 1 4.37114e-08 108 92)" fill="#166C35"/>
<rect width="8" height="8" transform="matrix(-4.37114e-08 1 1 4.37114e-08 100 92)" fill="#166C35"/>
<rect width="8" height="8" transform="matrix(-4.37114e-08 1 1 4.37114e-08 116 84)" fill="#166C35"/>
<rect width="32" height="8" transform="matrix(-4.37114e-08 1 1 4.37114e-08 84 76)" fill="#166C35"/>
<rect width="32" height="8" transform="matrix(-4.37114e-08 1 1 4.37114e-08 68 76)" fill="#166C35"/>
<rect width="8" height="40" transform="matrix(-4.37114e-08 1 1 4.37114e-08 60 124)" fill="#0E5327"/>
<rect width="8" height="8" transform="matrix(-4.37114e-08 1 1 4.37114e-08 68 108)" fill="#166C35"/>
<rect x="68" y="60" width="8" height="8" fill="#69197F"/>
<rect x="60" y="28" width="8" height="8" fill="#9C42B5"/>
<rect x="68" y="36" width="8" height="8" fill="#9C42B5"/>
<rect x="76" y="44" width="8" height="8" fill="#9C42B5"/>
<rect x="84" y="36" width="8" height="8" fill="#9C42B5"/>
<rect x="92" y="28" width="8" height="8" fill="#9C42B5"/>
<rect x="100" y="36" width="8" height="32" fill="#8926A5"/>
<rect x="44" y="68" width="8" height="8" fill="#69197F"/>
<rect x="108" y="68" width="8" height="8" fill="#69197F"/>
<rect x="52" y="36" width="8" height="32" fill="#8926A5"/>
<rect x="84" y="60" width="8" height="8" fill="#69197F"/>
<rect x="76" y="68" width="8" height="8" fill="#69197F"/>
<rect x="52" y="76" width="16" height="8" fill="#69197F"/>
<rect x="92" y="76" width="16" height="8" fill="#69197F"/>
<rect x="68" y="76" width="24" height="8" fill="#0E5327"/>
<rect x="76" y="84" width="8" height="8" fill="#9BDB47"/>
<rect x="76" y="92" width="8" height="8" fill="#58C138"/>
<rect x="36" y="92" width="8" height="8" fill="#58C138"/>
<rect x="116" y="92" width="8" height="8" fill="#58C138"/>
</svg>
