<svg width="160" height="160" viewBox="0 0 160 160" fill="none" xmlns="http://www.w3.org/2000/svg">
<path d="M54.3989 56H16V80H80V56H54.3989Z" fill="#0082E6"/>
<path d="M131.199 88H112V104H144V88H131.199Z" fill="#0082E6"/>
<path d="M70.3982 80H8V104H112V80H70.3982Z" fill="#0082E6"/>
<path d="M72 95.9986V64H64.0031V71.9965H56V79.9993H48.0031V71.9965H40V64H31.9969V95.9986H24V104.001H48.0031V95.9986H40V88.0021H48.0031V95.9986H56V88.0021H64.0031V95.9986H56V104.001H80.0031V95.9986H72Z" fill="white"/>
<path d="M94.3975 104H8V112H152V104H94.3975Z" fill="#66331A"/>
<path d="M12.7999 112H8V120H16V112H12.7999Z" fill="#E92700"/>
<path d="M12.7999 120H8V128H16V120H12.7999Z" fill="#202020"/>
<path d="M148.8 112H144V120H152V112H148.8Z" fill="#202020"/>
<path d="M92.7978 112H16V120H144V112H92.7978Z" fill="white"/>
<path d="M92.7978 120H16V128H144V120H92.7978Z" fill="#202020"/>
<path d="M140.8 88H136V96H144V88H140.8Z" fill="#323796"/>
<path d="M148.8 88H144V96H152V88H148.8Z" fill="#323796"/>
<path d="M140.8 96H136V104H144V96H140.8Z" fill="#0082E6"/>
<path d="M148.8 96H144V104H152V96H148.8Z" fill="#0082E6"/>
<path d="M92.7999 64H88V72H96V64H92.7999Z" fill="#323796"/>
<path d="M76.7999 56H72V64H80V56H76.7999Z" fill="#323796"/>
<path d="M68.7999 48H64V56H72V48H68.7999Z" fill="#323796"/>
<path d="M60.8495 40H56.0497V48H64.0497V40H60.8495Z" fill="#323796"/>
<path d="M52.8495 32H48.0497V40H56.0497V32H52.8495Z" fill="#323796"/>
<path d="M52.8495 24H48.0497V32H56.0497V24H52.8495Z" fill="#323796"/>
<path d="M44.8495 24H40.0497V32H48.0497V24H44.8495Z" fill="#0082E6"/>
<path d="M44.8495 32H40.0497V40H48.0497V32H44.8495Z" fill="#0082E6"/>
<path d="M44.8495 40H40.0497V48H48.0497V40H44.8495Z" fill="#0082E6"/>
<path d="M44.7999 48H40V56H48V48H44.7999Z" fill="#0082E6"/>
<path d="M60.7999 48H56V56H64V48H60.7999Z" fill="#0082E6"/>
<path d="M52.7999 72H48V80H56V72H52.7999Z" fill="#005EA6"/>
<path d="M44.7999 64H40V72H48V64H44.7999Z" fill="#005EA6"/>
<path d="M60.7999 64H56V72H64V64H60.7999Z" fill="#005EA6"/>
<path d="M44.7999 88H40V96H48V88H44.7999Z" fill="#005EA6"/>
<path d="M52.7999 96H48V104H56V96H52.7999Z" fill="#005EA6"/>
<path d="M60.7999 88H56V96H64V88H60.7999Z" fill="#005EA6"/>
<path d="M76.7999 88H72V96H80V88H76.7999Z" fill="#005EA6"/>
<path d="M28.7999 88H24V96H32V88H28.7999Z" fill="#005EA6"/>
<path d="M68.7999 56H64V64H72V56H68.7999Z" fill="#0082E6"/>
<path d="M92.7999 72H88V80H96V72H92.7999Z" fill="#0082E6"/>
<path d="M132.8 88H128V96H136V88H132.8Z" fill="#0082E6"/>
<path d="M84.7999 72H80V80H88V72H84.7999Z" fill="#0082E6"/>
<path d="M100.8 80H96V88H104V80H100.8Z" fill="#0082E6"/>
<path d="M100.8 72H96V80H104V72H100.8Z" fill="#323796"/>
<path d="M116.8 80H112V88H120V80H116.8Z" fill="#323796"/>
<path d="M108.8 80H104V88H112V80H108.8Z" fill="#0082E6"/>
<path d="M108.8 72H104V80H112V72H108.8Z" fill="#323796"/>
<path d="M124.8 80H120V88H128V80H124.8Z" fill="#323796"/>
<path d="M132.8 80H128V88H136V80H132.8Z" fill="#323796"/>
<path d="M124.8 88H120V96H128V88H124.8Z" fill="#0082E6"/>
<path d="M52.7999 48H48V56H56V48H52.7999Z" fill="#202020"/>
<path d="M76.7999 64H72V72H80V64H76.7999Z" fill="#202020"/>
<path d="M100.8 80H96V88H104V80H100.8Z" fill="#202020"/>
<path d="M116.8 88H112V96H120V88H116.8Z" fill="#202020"/>
<path d="M84.7999 64H80V72H88V64H84.7999Z" fill="#323796"/>
<path d="M36.8495 40H32.0497V48H40.0497V40H36.8495Z" fill="#0082E6"/>
<path d="M52.8495 40H48.0497V48H56.0497V40H52.8495Z" fill="#0082E6"/>
<path d="M44.8495 16H40.0497V24H48.0497V16H44.8495Z" fill="#005EA6"/>
<path d="M36.8495 24H32.0497V32H40.0497V24H36.8495Z" fill="#005EA6"/>
<path d="M36.8495 32H32.0497V40H40.0497V32H36.8495Z" fill="#005EA6"/>
<path d="M28.8495 40H24.0497V48H32.0497V40H28.8495Z" fill="#0082E6"/>
<path d="M36.7999 48H32V56H40V48H36.7999Z" fill="#0082E6"/>
<path d="M20.8495 40H16.0497V48H24.0497V40H20.8495Z" fill="#0082E6"/>
<path d="M28.7999 48H24V56H32V48H28.7999Z" fill="#0082E6"/>
<path d="M12.8495 40H8.04968V48H16.0497V40H12.8495Z" fill="#005EA6"/>
<path d="M20.7999 56H16V64H24V56H20.7999Z" fill="#005EA6"/>
<path d="M20.7999 72H16V80H24V72H20.7999Z" fill="#005EA6"/>
<path d="M12.7999 88H8V96H16V88H12.7999Z" fill="#005EA6"/>
<path d="M12.8495 32H8.04968V40H16.0497V32H12.8495Z" fill="#005EA6"/>
<path d="M20.7999 48H16V56H24V48H20.7999Z" fill="#005EA6"/>
<path d="M20.7999 64H16V72H24V64H20.7999Z" fill="#005EA6"/>
<path d="M12.7999 80H8V88H16V80H12.7999Z" fill="#005EA6"/>
<path d="M12.7999 96H8V104H16V96H12.7999Z" fill="#005EA6"/>
<path d="M87.4285 112H86.857H86.2857H85.7143H85.1428H84.5713H84H83.4285H82.857H82.2857H81.7143H81.1428H80.5713H80H79.4285H78.857H78.2857H77.7143H77.1428H76.5713H76H75.4285H74.857H74.2857H73.7143H73.1428H72.5713H72H71.4285H70.857H70.2857H69.7143H69.1428H68.5713H68H67.4285H66.857H66.2857H65.7143H65.1428H64.5713H64V120H64.5713H65.1428H65.7143H66.2857H66.857H67.4285H68H68.5713H69.1428H69.7143H70.2857H70.857H71.4285H72H72.5713H73.1428H73.7143H74.2857H74.857H75.4285H76H76.5713H77.1428H77.7143H78.2857H78.857H79.4285H80H80.5713H81.1428H81.7143H82.2857H82.857H83.4285H84H84.5713H85.1428H85.7143H86.2857H86.857H87.4285H88V112H87.4285Z" fill="#FFAF00"/>
<path d="M63.4285 112H62.857H62.2857H61.7143H61.1428H60.5713H60H59.4285H58.857H58.2857H57.7143H57.1428H56.5713H56H55.4285H54.857H54.2857H53.7143H53.1428H52.5713H52H51.4285H50.857H50.2857H49.7143H49.1428H48.5713H48H47.4285H46.857H46.2857H45.7143H45.1428H44.5713H44H43.4285H42.857H42.2857H41.7143H41.1428H40.5713H40V120H40.5713H41.1428H41.7143H42.2857H42.857H43.4285H44H44.5713H45.1428H45.7143H46.2857H46.857H47.4285H48H48.5713H49.1428H49.7143H50.2857H50.857H51.4285H52H52.5713H53.1428H53.7143H54.2857H54.857H55.4285H56H56.5713H57.1428H57.7143H58.2857H58.857H59.4285H60H60.5713H61.1428H61.7143H62.2857H62.857H63.4285H64V112H63.4285Z" fill="#FF8205"/>
<path d="M39.4285 112H38.857H38.2857H37.7143H37.1428H36.5713H36H35.4285H34.857H34.2857H33.7143H33.1428H32.5713H32H31.4285H30.857H30.2857H29.7143H29.1428H28.5713H28H27.4285H26.857H26.2857H25.7143H25.1428H24.5713H24H23.4285H22.857H22.2857H21.7143H21.1428H20.5713H20H19.4285H18.857H18.2857H17.7143H17.1428H16.5713H16V120H16.5713H17.1428H17.7143H18.2857H18.857H19.4285H20H20.5713H21.1428H21.7143H22.2857H22.857H23.4285H24H24.5713H25.1428H25.7143H26.2857H26.857H27.4285H28H28.5713H29.1428H29.7143H30.2857H30.857H31.4285H32H32.5713H33.1428H33.7143H34.2857H34.857H35.4285H36H36.5713H37.1428H37.7143H38.2857H38.857H39.4285H40V112H39.4285Z" fill="#FA500F"/>
</svg>
