<svg width="160" height="160" viewBox="0 0 160 160" fill="none" xmlns="http://www.w3.org/2000/svg">
<path d="M120.001 32H72V96H128V32H120.001Z" fill="#FFAF00"/>
<path d="M70.8573 32H64V88H72V32H70.8573Z" fill="#66331A"/>
<path d="M134.857 32H128V96H136V32H134.857Z" fill="#66331A"/>
<path d="M128 102.857L128 96L72 96L72 104L128 104L128 102.857Z" fill="#66331A"/>
<path d="M79.9989 32L128 32L128 24L72 24L72 32L79.9989 32Z" fill="#66331A"/>
<path d="M33.1427 40L40 40L40 32L32 32L32 40L33.1427 40Z" fill="#202020"/>
<path d="M41.1427 40L48 40L48 32L40 32L40 40L41.1427 40Z" fill="#202020"/>
<path d="M41.1427 32L48 32L48 24L40 24L40 32L41.1427 32Z" fill="#202020"/>
<path d="M41.1427 48L48 48L48 40L40 40L40 48L41.1427 48Z" fill="#202020"/>
<path d="M49.1427 40L56 40L56 32L48 32L48 40L49.1427 40Z" fill="#202020"/>
<path d="M97.1427 48L104 48L104 40L96 40L96 48L97.1427 48Z" fill="#9E481E"/>
<path d="M104.143 64L111 64L111 56L103 56L103 64L104.143 64Z" fill="#9E481E"/>
<path d="M97.1427 72L104 72L104 64L96 64L96 72L97.1427 72Z" fill="#9E481E"/>
<path d="M89.1427 72L96 72L96 64L88 64L88 72L89.1427 72Z" fill="#9E481E"/>
<path d="M97.1427 80L104 80L104 72L96 72L96 80L97.1427 80Z" fill="#9E481E"/>
<path d="M85.7135 88L120 88L120 80L80 80L80 88L85.7135 88Z" fill="#9E481E"/>
<path d="M85.7135 56L120 56L120 48L80 48L80 56L85.7135 56Z" fill="#9E481E"/>
<path d="M25.1427 40L32 40L32 32L24 32L24 40L25.1427 40Z" fill="#202020"/>
<path d="M17.1427 48L24 48L24 40L16 40L16 48L17.1427 48Z" fill="#202020"/>
<path d="M17.1427 56L24 56L24 48L16 48L16 56L17.1427 56Z" fill="#202020"/>
<path d="M122.857 120L116 120L116 128L124 128L124 120L122.857 120Z" fill="#202020"/>
<path d="M114.857 120L108 120L108 128L116 128L116 120L114.857 120Z" fill="#202020"/>
<path d="M114.857 128L108 128L108 136L116 136L116 128L114.857 128Z" fill="#202020"/>
<path d="M114.857 112L108 112L108 120L116 120L116 112L114.857 112Z" fill="#202020"/>
<path d="M106.857 120L100 120L100 128L108 128L108 120L106.857 120Z" fill="#202020"/>
<path d="M130.857 120L124 120L124 128L132 128L132 120L130.857 120Z" fill="#202020"/>
<path d="M138.857 112L132 112L132 120L140 120L140 112L138.857 112Z" fill="#202020"/>
<path d="M138.857 104L132 104L132 112L140 112L140 104L138.857 104Z" fill="#202020"/>
<path d="M76.0011 72H28V128H84V72H76.0011Z" fill="#0082E6"/>
<path d="M26.8573 72H20V128H28V72H26.8573Z" fill="#323796"/>
<path d="M90.8573 72H84V128H92V72H90.8573Z" fill="#323796"/>
<path d="M92 134.857L92 128L28 128L28 136L92 136L92 134.857Z" fill="#323796"/>
<path d="M76.001 112.001V80H68.0019V88.002H59.9995V96.0007H52.0005V88.002H44.0015V80H35.999V112.001H28V120H52.0005V112.001H44.0015V103.999H52.0005V112.001H59.9995V103.999H68.0019V112.001H59.9995V120H84V112.001H76.001Z" fill="white"/>
<path d="M35.9989 72L84 72L84 64L28 64L28 72L35.9989 72Z" fill="#323796"/>
</svg>
