<?xml version="1.0" encoding="UTF-8" standalone="no"?>
<!DOCTYPE svg PUBLIC "-//W3C//DTD SVG 1.1//EN" "http://www.w3.org/Graphics/SVG/1.1/DTD/svg11.dtd">
<svg width="100%" height="100%" viewBox="0 0 1360 640" version="1.1" xmlns="http://www.w3.org/2000/svg" xmlns:xlink="http://www.w3.org/1999/xlink" xml:space="preserve" xmlns:serif="http://www.serif.com/" style="fill-rule:evenodd;clip-rule:evenodd;">
    <g transform="matrix(0.791086,0,0,1,56.8247,0)">
        <path d="M272,62L272,578C272,586.831 262.937,594 251.775,594L54.225,594C43.063,594 34,586.831 34,578L34,62C34,53.169 43.063,46 54.225,46L251.775,46C262.937,46 272,53.169 272,62Z" style="fill:rgb(255,243,231);stroke:rgb(224,106,42);stroke-width:1.5px;"/>
    </g>
    <g transform="matrix(1,0,0,1,173.293,295)">
        <text x="-58.368px" y="0px" style="font-family:'Helvetica';font-size:25px;fill:rgb(47,45,42);">Admin <tspan x="18.073px 34.747px " y="0px 0px ">AP</tspan>I</text>
    </g>
    <g transform="matrix(0.898289,0,0,0.898289,177.715,349.018)">
        <text x="-85.526px" y="0px" style="font-family:'Helvetica';font-size:18px;fill:rgb(111,106,100);">Programmatic control</text>
    </g>
    <path d="M940,48L940,106C940,113.727 933.727,120 926,120L624,120C616.273,120 610,113.727 610,106L610,48C610,40.273 616.273,34 624,34L926,34C933.727,34 940,40.273 940,48Z" style="fill:rgb(217,92,31);stroke:rgb(184,77,26);stroke-width:1.5px;"/>
    <g transform="matrix(1,0,0,1,775,71)">
        <text x="-70.874px" y="0px" style="font-family:'Helvetica';font-size:25px;fill:white;">Admin Console</text>
    </g>
    <g transform="matrix(1,0,0,1,775,99)">
        <text x="-59.027px" y="0px" style="font-family:'Helvetica';font-size:18px;fill:white;fill-opacity:0.88;">control surface</text>
    </g>
    <path d="M1060,196L1060,264C1060,271.727 1053.73,278 1046,278L504,278C496.273,278 490,271.727 490,264L490,196C490,188.273 496.273,182 504,182L1046,182C1053.73,182 1060,188.273 1060,196Z" style="fill:rgb(246,244,241);stroke:rgb(216,211,204);stroke-width:1.5px;"/>
    <g transform="matrix(1,0,0,1,775,223)">
        <g transform="matrix(25,0,0,25,77.124,0)">
        </g>
        <text x="-77.124px" y="0px" style="font-family:'Helvetica';font-size:25px;fill:rgb(47,45,42);">Organizations</text>
    </g>
    <g transform="matrix(1,0,0,1,775,252)">
        <text x="-179.082px" y="0px" style="font-family:'Helvetica';font-size:18px;fill:rgb(111,106,100);">Company account · policies · billing · security</text>
    </g>
    <g transform="matrix(1,0,0,1.01958,0,-7.32342)">
        <path d="M700,387.731L700,454.269C700,461.847 693.727,468 686,468L384,468C376.273,468 370,461.847 370,454.269L370,387.731C370,380.153 376.273,374 384,374L686,374C693.727,374 700,380.153 700,387.731Z" style="fill:rgb(246,244,241);stroke:rgb(216,211,204);stroke-width:1.5px;"/>
    </g>
    <g transform="matrix(1,0,0,1,535,413)">
        <text x="-52.094px" y="0px" style="font-family:'Helvetica';font-size:25px;fill:rgb(47,45,42);">Members</text>
    </g>
    <g transform="matrix(1,0,0,1,535,442)">
        <text x="-109.556px" y="0px" style="font-family:'Helvetica';font-size:18px;fill:rgb(111,106,100);">Role-Based <tspan x="-11.487px 0.519px " y="0px 0px ">Ac</tspan>cess Control</text>
        <g transform="matrix(18,0,0,18,28.0151,18)">
        </g>
        <text x="-23.014px" y="18px" style="font-family:'Helvetica';font-size:18px;fill:rgb(111,106,100);">Seats</text>
    </g>
    <g transform="matrix(1,0,0,1,574.076,303.597)">
        <g transform="matrix(18,0,0,18,37.5249,0)">
        </g>
        <text x="-32.524px" y="0px" style="font-family:'Helvetica';font-size:18px;fill:rgb(111,106,100);">Manage</text>
    </g>
    <g transform="matrix(1,0,0,1,1070.84,316.598)">
        <g transform="matrix(18,0,0,18,72.5361,0)">
        </g>
        <text x="-67.535px" y="0px" style="font-family:'Helvetica';font-size:18px;fill:rgb(111,106,100);">Scope resources</text>
    </g>
    <path d="M1250,388L1250,454C1250,461.727 1243.73,468 1236,468L904,468C896.273,468 890,461.727 890,454L890,388C890,380.273 896.273,374 904,374L1236,374C1243.73,374 1250,380.273 1250,388Z" style="fill:rgb(246,244,241);stroke:rgb(216,211,204);stroke-width:1.5px;"/>
    <g transform="matrix(1,0,0,1,1070,413)">
        <text x="-68.549px" y="0px" style="font-family:'Helvetica';font-size:25px;fill:rgb(47,45,42);">W<tspan x="-45.392px -31.488px " y="0px 0px ">or</tspan>kspaces</text>
    </g>
    <g transform="matrix(1,0,0,1,1070,442)">
        <text x="-108.057px" y="0px" style="font-family:'Helvetica';font-size:18px;fill:rgb(111,106,100);">T<tspan x="-99.057px -89.046px " y="0px 0px ">ea</tspan>ms · products · budgets</text>
    </g>
    <g transform="matrix(1,0,0,1,40,0)">
        <path d="M975,562L975,592C975,599.727 968.727,606 961,606L839,606C831.273,606 825,599.727 825,592L825,562C825,554.273 831.273,548 839,548L961,548C968.727,548 975,554.273 975,562Z" style="fill:rgb(246,244,241);stroke:rgb(216,211,204);stroke-width:1.5px;"/>
    </g>
    <g transform="matrix(1,0,0,1,940,586)">
        <text x="-24.799px" y="0px" style="font-family:'Helvetica';font-size:25px;fill:rgb(47,45,42);">V<tspan x="-8.563px -3.009px " y="0px 0px ">ib</tspan>e</text>
    </g>
    <g transform="matrix(1,0,0,1,21.8454,-0.527625)">
        <path d="M1250,562L1250,592C1250,599.727 1243.73,606 1236,606L1114,606C1106.27,606 1100,599.727 1100,592L1100,562C1100,554.273 1106.27,548 1114,548L1236,548C1243.73,548 1250,554.273 1250,562Z" style="fill:rgb(246,244,241);stroke:rgb(216,211,204);stroke-width:1.5px;"/>
    </g>
    <g transform="matrix(1,0,0,1,1199,586)">
        <text x="-35.443px" y="0px" style="font-family:'Helvetica';font-size:25px;fill:rgb(47,45,42);">Studio</text>
    </g>
    <g transform="matrix(1,0,0,1.20533,0,-24.6397)">
        <path d="M775,120L775,170" style="fill:none;fill-rule:nonzero;stroke:rgb(111,106,100);stroke-width:2.26px;stroke-linecap:round;stroke-linejoin:round;"/>
    </g>
    <g transform="matrix(1,0,0,1,795,151)">
        <text x="0px" y="0px" style="font-family:'Helvetica';font-size:15px;fill:rgb(126,119,112);">Manages</text>
    </g>
    <path d="M640,278C628,326 548,334 535,374" style="fill:none;fill-rule:nonzero;stroke:rgb(111,106,100);stroke-width:2.5px;stroke-linecap:round;stroke-linejoin:round;"/>
    <path d="M910,278C922,326 1060,334 1070,374" style="fill:none;fill-rule:nonzero;stroke:rgb(111,106,100);stroke-width:2.5px;stroke-linecap:round;stroke-linejoin:round;"/>
    <g transform="matrix(1.08012,0,0,1,-56.0813,0)">
        <path d="M700,421L875,421" style="fill:none;fill-rule:nonzero;stroke:rgb(111,106,100);stroke-width:2.4px;stroke-linecap:round;stroke-linejoin:round;"/>
    </g>
    <g transform="matrix(0.641568,0,0,0.958867,369.185,19.2501)">
        <path d="M1030,468C1030,514 910,511 900,548" style="fill:none;fill-rule:nonzero;stroke:rgb(111,106,100);stroke-width:3.06px;stroke-linecap:round;stroke-linejoin:round;"/>
    </g>
    <g transform="matrix(-0.641568,0,0,0.958867,1777.41,19.2501)">
        <path d="M1030,468C1030,514 910,511 900,548" style="fill:none;fill-rule:nonzero;stroke:rgb(111,106,100);stroke-width:3.06px;stroke-linecap:round;stroke-linejoin:round;"/>
    </g>
    <g transform="matrix(1.04187,0,0,1,-11.3874,0)">
        <path d="M272,77L594,77" style="fill:none;fill-rule:nonzero;stroke:rgb(217,92,31);stroke-width:2.2px;stroke-linecap:round;stroke-linejoin:round;stroke-dasharray:8,9;"/>
    </g>
    <g transform="matrix(1.06991,0,0,1,-19.0144,0)">
        <path d="M272,230L474,230" style="fill:none;fill-rule:nonzero;stroke:rgb(217,92,31);stroke-width:2.2px;stroke-linecap:round;stroke-linejoin:round;stroke-dasharray:8,9;"/>
    </g>
    <g transform="matrix(1.17825,0,0,1,-48.4837,1)">
        <path d="M272,421L354,421" style="fill:none;fill-rule:nonzero;stroke:rgb(217,92,31);stroke-width:2.2px;stroke-linecap:round;stroke-linejoin:round;stroke-dasharray:8,9;"/>
    </g>
    <g transform="matrix(1,0,0,0.815101,0,77.8426)">
        <path d="M272,324L820,324C864,324 872,405 890,421" style="fill:none;fill-rule:nonzero;stroke:rgb(217,92,31);stroke-width:2.2px;stroke-linecap:round;stroke-linejoin:round;stroke-dasharray:8,9;"/>
    </g>
    <g transform="matrix(1,0,0,1,786.049,446.894)">
        <text x="-16.005px" y="0px" style="font-family:'Helvetica';font-size:18px;fill:rgb(111,106,100);">Use</text>
    </g>
</svg>
