<?xml version="1.0" encoding="UTF-8" standalone="no"?>
<!DOCTYPE svg PUBLIC "-//W3C//DTD SVG 1.1//EN" "http://www.w3.org/Graphics/SVG/1.1/DTD/svg11.dtd">
<svg width="100%" height="100%" viewBox="0 0 1180 340" version="1.1" xmlns="http://www.w3.org/2000/svg" xmlns:xlink="http://www.w3.org/1999/xlink" xml:space="preserve" xmlns:serif="http://www.serif.com/" style="fill-rule:evenodd;clip-rule:evenodd;" role="img" aria-label="Client authentication flow: the browser asks your server for a token, your server mints an rt_* token with the Mistral API, returns it to the browser, and the browser opens the realtime transcription WebSocket using Sec-WebSocket-Protocol.">
    <defs>
        <style>
            @media (prefers-color-scheme: dark) {
                path[style*="fill:rgb(245,244,242)"] { fill: #2d2d2d !important; stroke: #444 !important; }
                path[style*="fill:rgb(251,246,240)"] { fill: #332820 !important; stroke: #7a5230 !important; }
                path[style*="stroke:rgb(214,210,205)"] { stroke: #444 !important; }
                path[style*="stroke:rgb(48,46,43)"] { stroke: #f0f0f0 !important; }
                path:not([style]) { fill: #f0f0f0 !important; }
                text[style*="fill:rgb(48,46,43)"] { fill: #f0f0f0 !important; }
                text[style*="fill:rgb(122,82,48)"] { fill: #d6b08d !important; }
            }
        </style>
    </defs>
    <path d="M250,28L250,60C250,64.415 246.415,68 242,68L78,68C73.585,68 70,64.415 70,60L70,28C70,23.585 73.585,20 78,20L242,20C246.415,20 250,23.585 250,28Z" style="fill:rgb(245,244,242);stroke:rgb(214,210,205);stroke-width:1.5px;"/>
    <g transform="matrix(1,0,0,1,160,50)">
        <text x="-33.007px" y="0px" style="font-family:'Helvetica';font-size:18px;fill:rgb(48,46,43);">Browser</text>
    </g>
    <path d="M680,28L680,60C680,64.415 676.415,68 672,68L508,68C503.585,68 500,64.415 500,60L500,28C500,23.585 503.585,20 508,20L672,20C676.415,20 680,23.585 680,28Z" style="fill:rgb(245,244,242);stroke:rgb(214,210,205);stroke-width:1.5px;"/>
    <g transform="matrix(1,0,0,1,590,50)">
        <text x="-45.69px" y="0px" style="font-family:'Helvetica';font-size:18px;fill:rgb(48,46,43);">Y<tspan x="-35.336px -25.326px " y="0px 0px ">ou</tspan>r server</text>
    </g>
    <path d="M1110,28L1110,60C1110,64.415 1106.41,68 1102,68L938,68C933.585,68 930,64.415 930,60L930,28C930,23.585 933.585,20 938,20L1102,20C1106.41,20 1110,23.585 1110,28Z" style="fill:rgb(245,244,242);stroke:rgb(214,210,205);stroke-width:1.5px;"/>
    <g transform="matrix(1,0,0,1,1020,50)">
        <text x="-43.014px" y="0px" style="font-family:'Helvetica';font-size:18px;fill:rgb(48,46,43);">Mistral <tspan x="14.001px 26.007px " y="0px 0px ">AP</tspan>I</text>
    </g>
    <path d="M160,68L160,315" style="fill:none;fill-rule:nonzero;stroke:rgb(214,210,205);stroke-width:1.25px;stroke-dasharray:4,4;"/>
    <path d="M590,68L590,315" style="fill:none;fill-rule:nonzero;stroke:rgb(214,210,205);stroke-width:1.25px;stroke-dasharray:4,4;"/>
    <path d="M1020,68L1020,315" style="fill:none;fill-rule:nonzero;stroke:rgb(214,210,205);stroke-width:1.25px;stroke-dasharray:4,4;"/>
    <g transform="matrix(1,0,0,1,375,102)">
        <text x="-74.205px" y="0px" style="font-family:'Helvetica';font-size:15px;fill:rgb(48,46,43);">request realtime token</text>
    </g>
    <path d="M166,112L584,112" style="fill:none;fill-rule:nonzero;stroke:rgb(48,46,43);stroke-width:1.5px;"/>
    <g transform="matrix(6.12323e-17,1,-1,6.12323e-17,691.978,-478.022)">
        <path d="M590,102.406L596,121.551L584,121.551L590,102.406Z"/>
    </g>
    <g transform="matrix(6.12323e-17,1,-1,6.12323e-17,691.978,-340.022)">
        <path d="M590,102.406L596,121.551L584,121.551L590,102.406Z" style="fill:rgb(211,90,32);"/>
    </g>
    <g transform="matrix(1,0,0,1,805,148)">
        <text x="-83.232px" y="0px" style="font-family:'Helvetica';font-size:15px;fill:rgb(48,46,43);">POST<tspan x="-42.656px -38.489px " y="0px 0px "> /</tspan>v1/client/sessions</text>
    </g>
    <path d="M596,158L1014,158" style="fill:none;fill-rule:nonzero;stroke:rgb(48,46,43);stroke-width:1.5px;"/>
    <g transform="matrix(1,0,0,1,805,194)">
        <text x="-32.102px" y="0px" style="font-family:'Helvetica';font-size:15px;fill:rgb(184,77,26);">rt_* token</text>
    </g>
    <path d="M1014,204L596,204" style="fill:none;fill-rule:nonzero;stroke:rgb(211,90,32);stroke-width:1.75px;"/>
    <g transform="matrix(1,0,0,1,375,240)">
        <text x="-83.793px" y="0px" style="font-family:'Helvetica';font-size:15px;fill:rgb(184,77,26);">return client_secret.value</text>
    </g>
    <path d="M584,250L166,250" style="fill:none;fill-rule:nonzero;stroke:rgb(211,90,32);stroke-width:1.75px;"/>
    <path d="M166,292L1014,292" style="fill:none;fill-rule:nonzero;stroke:rgb(48,46,43);stroke-width:1.5px;"/>
    <path d="M265,288L265,316C265,319.311 262.311,322 259,322L61,322C57.689,322 55,319.311 55,316L55,288C55,284.689 57.689,282 61,282L259,282C262.311,282 265,284.689 265,288Z" style="fill:rgb(251,246,240);stroke:rgb(230,195,168);stroke-width:1px;"/>
    <g transform="matrix(1,0,0,1,160,299)">
        <text x="-87.677px" y="0px" style="font-family:'Helvetica';font-size:13px;fill:rgb(122,82,48);">open realtime W<tspan x="6.744px 13.974px " y="0px 0px ">eb</tspan>Socket with</text>
    </g>
    <g transform="matrix(6.12323e-17,1,-1,6.12323e-17,1121.98,-298.022)">
        <path d="M590,102.406L596,121.551L584,121.551L590,102.406Z"/>
    </g>
    <g transform="matrix(1,0,0,1,160,315)">
        <text x="-72.497px" y="0px" style="font-family:'Helvetica';font-size:13px;fill:rgb(122,82,48);">Sec-W<tspan x="-33.725px -26.495px " y="0px 0px ">eb</tspan>Socket-Protocol</text>
    </g>
    <g transform="matrix(1,0,0,1,590,316)">
        <text x="-125.05px" y="0px" style="font-family:'Helvetica';font-size:15px;fill:rgb(48,46,43);">WSS /v1/audio/transcriptions/realtime</text>
    </g>
    <g transform="matrix(6.12323e-17,-1,1,6.12323e-17,487.449,748)">
        <path d="M590,102.406L596,121.551L584,121.551L590,102.406Z"/>
    </g>
    <g transform="matrix(6.12323e-17,-1,1,6.12323e-17,487.449,794)">
        <path d="M590,102.406L596,121.551L584,121.551L590,102.406Z" style="fill:rgb(211,90,32);"/>
    </g>
</svg>
