<svg width="162" height="162" viewBox="0 0 162 162" fill="none" xmlns="http://www.w3.org/2000/svg">
<path d="M53.9956 90H35.9934V108.002H53.9956V90Z" fill="#27DCE6"/>
<path d="M36.0012 126.002H17.999V144.004H36.0012V126.002Z" fill="#27DCE6"/>
<path d="M108.002 126.002H90.0002V144.004H108.002V126.002Z" fill="#27DCE6"/>
<path d="M53.9956 108.003H35.9934V126.005H53.9956V108.003Z" fill="#27DCE6"/>
<path d="M108.002 90H90.0002V108.002H108.002V90Z" fill="#27DCE6"/>
<path d="M71.9955 90H53.9933V108.002H71.9955V90Z" fill="#27DCE6"/>
<path d="M54.0022 71.999H36V90.0012H54.0022V71.999Z" fill="#1A1A1A"/>
<path d="M36.0022 54H18V72.0022H36.0022V54Z" fill="#323797"/>
<path d="M108 54H36V72H108V54Z" fill="#323797"/>
<path d="M126 36H36V54H126V36Z" fill="#323797"/>
<path d="M108 18H54V36H108V18Z" fill="#323797"/>
<path d="M72.0022 72H54V90.0022H72.0022V72Z" fill="#1A1A1A"/>
<path d="M90.0022 72H72V90.0022H90.0022V72Z" fill="#1A1A1A"/>
<path d="M108.002 72H90V90.0022H108.002V72Z" fill="#1A1A1A"/>
<path d="M126.002 54H108V72.0022H126.002V54Z" fill="#323797"/>
<path d="M144.002 54H126V72.0022H144.002V54Z" fill="#323797"/>
<path d="M126.002 71.999H108V90.0012H126.002V71.999Z" fill="#1A1A1A"/>
<path d="M54.0022 126.002H36V144.004H54.0022V126.002Z" fill="#27DCE6"/>
<path d="M126.002 126.002H108V144.004H126.002V126.002Z" fill="#27DCE6"/>
<path d="M126.002 90H108V108.002H126.002V90Z" fill="#27DCE6"/>
<path d="M126.002 108.003H108V126.005H126.002V108.003Z" fill="#27DCE6"/>
<path d="M90.0026 90.0107H72.0004V108.013H90.0026V90.0107Z" fill="#27DCE6"/>
<path d="M72 126H54V144H72V126Z" fill="#27DCE6"/>
<path d="M144.004 126H126.002V144.002H144.004V126Z" fill="#27DCE6"/>
<path d="M90.0026 108.003H72.0004V126.005H90.0026V108.003Z" fill="#27DCE6"/>
<rect x="72" y="90" width="18" height="18" fill="#27DCE6"/>
<rect x="72" y="40" width="18" height="18" fill="#FFD900"/>
</svg>
