<svg width="162" height="162" viewBox="0 0 162 162" fill="none" xmlns="http://www.w3.org/2000/svg">
<path d="M53.9959 89.9893H35.9938V107.991H53.9959V89.9893Z" fill="#FE9830"/>
<path d="M36.0021 125.991H18V143.993H36.0021V125.991Z" fill="#DF3305"/>
<path d="M108.003 125.991H90.0005V143.993H108.003V125.991Z" fill="#DF3305"/>
<path d="M53.9959 107.992H35.9938V125.994H53.9959V107.992Z" fill="#F96D07"/>
<path d="M108.003 89.9893H90.0005V107.991H108.003V89.9893Z" fill="#FE9830"/>
<path d="M71.9959 89.9893H53.9938V107.991H71.9959V89.9893Z" fill="#FE9830"/>
<path d="M53.9961 125.991H35.994V143.993H53.9961V125.991Z" fill="#DF3305"/>
<path d="M126.002 125.991H108V143.993H126.002V125.991Z" fill="#DF3305"/>
<path d="M126.002 89.9893H108V107.991H126.002V89.9893Z" fill="#FE9830"/>
<path d="M126.002 107.992H108V125.994H126.002V107.992Z" fill="#F96D07"/>
<path d="M90.0026 90H72.0005V108.002H90.0026V90Z" fill="#FE9830"/>
<path d="M71.9959 125.991H53.9938V143.993H71.9959V125.991Z" fill="#DF3305"/>
<path d="M144.004 125.998H126.002V144H144.004V125.998Z" fill="#DF3305"/>
<path d="M90.0026 107.992H72.0005V125.994H90.0026V107.992Z" fill="#F96D07"/>
<path d="M162 72H36.0007V89.9999H162V72Z" fill="#14110F"/>
<path d="M126 54H36.0007V71.9999H126V54Z" fill="#14110F"/>
<path d="M126 36H36.0007V53.9999H126V36Z" fill="#14110F"/>
<path d="M108 18H54.0006V36H108V18Z" fill="#14110F"/>
<path d="M117.539 54.6084H106.776V65.3714H117.539V54.6084Z" fill="#FFB44A"/>
<path d="M43.5349 54.6084H54.2979V65.3714H43.5349V54.6084Z" fill="#FFB44A"/>
<path d="M106.778 43.8462H96.0154V54.6092H106.778V43.8462Z" fill="#FFB44A"/>
<path d="M54.2968 43.8462H65.0597V54.6092H54.2968V43.8462Z" fill="#FFB44A"/>
<path d="M106.778 65.3696H96.0154V76.1326H106.778V65.3696Z" fill="#FFB44A"/>
<path d="M54.2968 65.373H65.0597V76.136H54.2968V65.373Z" fill="#FFB44A"/>
<path d="M91.6489 39.6611L80.0788 82.3712H69.1084L80.6785 39.6611H91.6489Z" fill="#FFB44A"/>
</svg>
