<svg width="162" height="162" viewBox="0 0 162 162" fill="none" xmlns="http://www.w3.org/2000/svg">
<rect x="72" y="108" width="18" height="18" fill="#FFAF01"/>
<rect x="36" y="108" width="18" height="18" fill="#46BE00"/>
<rect x="36" y="72" width="18" height="18" fill="#46BE00"/>
<rect x="54" y="72" width="18" height="18" fill="#FFAF01"/>
<rect x="90" y="72" width="18" height="18" fill="#963CC8"/>
<rect x="108" y="72" width="18" height="18" fill="#963CC8"/>
<rect x="36" y="54" width="18" height="18" fill="#46BE00"/>
<rect x="108" y="54" width="18" height="18" fill="#963CC8"/>
<rect x="108" y="108" width="18" height="18" fill="#FA500F"/>
<rect x="18" y="126" width="54" height="18" fill="#0082E6"/>
<rect x="90" y="126" width="54" height="18" fill="#FA500F"/>
<rect x="36" y="90" width="18" height="18" fill="#46BE00"/>
<rect x="54" y="90" width="18" height="18" fill="#FFAF01"/>
<rect x="72" y="90" width="18" height="18" fill="#FFAF01"/>
<rect x="90" y="90" width="18" height="18" fill="#963CC8"/>
<rect x="108" y="90" width="18" height="18" fill="#FA500F"/>
</svg>
