<svg width="162" height="162" viewBox="0 0 162 162" fill="none" xmlns="http://www.w3.org/2000/svg">
<path d="M50.9987 32.0001H30.9987V50.0001H50.9987V32.0001Z" fill="#FA500F"/>
<path d="M130.999 32.0001H110.999V50.0001H130.999V32.0001Z" fill="#FA500F"/>
<path d="M90.9988 92.0002H70.9988V110H90.9988V92.0002Z" fill="#FA500F"/>
<path d="M50.9987 92.0002H30.9987V110H50.9987V92.0002Z" fill="#FA500F"/>
<path d="M130.999 92.0002H110.999V110H130.999V92.0002Z" fill="#FA500F"/>
<path d="M70.9987 52.0004H30.9987V70.0004H70.9987V52.0004Z" fill="#FA500F"/>
<path d="M71.0002 112H11V130.001H71.0002V112Z" fill="#FA500F"/>
<path d="M151 112H90.9998V130.001H151V112Z" fill="#FA500F"/>
<path d="M130.999 72.0002H30.9987V90.0003H130.999V72.0002Z" fill="#FA500F"/>
<path d="M131 52.0004H90.9998V70.0004H131V52.0004Z" fill="#FA500F"/>
</svg>
