<svg width="2320" height="744" viewBox="0 0 2320 744" fill="none" xmlns="http://www.w3.org/2000/svg">
<g clip-path="url(#clip0_3_83975)">
<path d="M103 121H121" stroke="black" stroke-width="2" stroke-linecap="square"/>
<path d="M103 117H106" stroke="black" stroke-width="2" stroke-linecap="square"/>
<path d="M118 117H121" stroke="black" stroke-width="2" stroke-linecap="square"/>
<path d="M108 118H116" stroke="black" stroke-width="2" stroke-linecap="square"/>
<path d="M123.01 119H123" stroke="black" stroke-width="2" stroke-linecap="square"/>
<path d="M101.01 119H101" stroke="black" stroke-width="2" stroke-linecap="square"/>
<path d="M103 105V113" stroke="black" stroke-width="2" stroke-linecap="square"/>
<path d="M121 105V113" stroke="black" stroke-width="2" stroke-linecap="square"/>
<path d="M119 103H105" stroke="black" stroke-width="2" stroke-linecap="square"/>
</g>
<path d="M215 106H217" stroke="black" stroke-width="2" stroke-miterlimit="10" stroke-linecap="square"/>
<path d="M211 102H221" stroke="black" stroke-width="2" stroke-linecap="square"/>
<path d="M211 122H215" stroke="black" stroke-width="2" stroke-linecap="square"/>
<path d="M209 120V104" stroke="black" stroke-width="2" stroke-linecap="square"/>
<path d="M223 109V104" stroke="black" stroke-width="2" stroke-linecap="square"/>
<path d="M222 113H219" stroke="black" stroke-width="2" stroke-linecap="square"/>
<path d="M224.01 120H219" stroke="black" stroke-width="2" stroke-linecap="square"/>
<path d="M224 117V115" stroke="black" stroke-width="2" stroke-linecap="square"/>
<path d="M217 118V115" stroke="black" stroke-width="2" stroke-linecap="square"/>
<defs>
<clipPath id="clip0_3_83975">
<rect width="24" height="24" fill="white" transform="translate(100 100)"/>
</clipPath>
</defs>
</svg>
