<svg width="1858" height="1136" viewBox="0 0 1858 1136" fill="none" xmlns="http://www.w3.org/2000/svg">
<rect x="31" y="34" width="20" height="20" fill="#6060F8"/>
<rect x="111" y="34" width="20" height="20" fill="#6060F8"/>
<rect x="71" y="94" width="20" height="20" fill="#6060F8"/>
<rect x="31" y="94" width="20" height="20" fill="#6060F8"/>
<rect x="111" y="94" width="20" height="20" fill="#6060F8"/>
<rect x="31" y="54" width="40" height="20" fill="#6060F8"/>
<rect x="11" y="114" width="60" height="20" fill="#6060F8"/>
<rect x="91" y="114" width="60" height="20" fill="#6060F8"/>
<rect x="31" y="74" width="100" height="20" fill="#6060F8"/>
<rect x="91" y="54" width="40" height="20" fill="#6060F8"/>
<rect x="35" y="518" width="20" height="20" fill="#606060"/>
<rect x="115" y="518" width="20" height="20" fill="#606060"/>
<rect x="75" y="578" width="20" height="20" fill="#606060"/>
<rect x="35" y="578" width="20" height="20" fill="#606060"/>
<rect x="115" y="578" width="20" height="20" fill="#606060"/>
<rect x="35" y="538" width="40" height="20" fill="#606060"/>
<rect x="15" y="598" width="60" height="20" fill="#606060"/>
<rect x="95" y="598" width="60" height="20" fill="#606060"/>
<rect x="35" y="558" width="100" height="20" fill="#606060"/>
<rect x="95" y="538" width="40" height="20" fill="#606060"/>
<rect x="35" y="276" width="20" height="20" fill="#FA500F"/>
<rect x="115" y="276" width="20" height="20" fill="#FA500F"/>
<rect x="75" y="336" width="20" height="20" fill="#FA500F"/>
<rect x="35" y="336" width="20" height="20" fill="#FA500F"/>
<rect x="115" y="336" width="20" height="20" fill="#FA500F"/>
<rect x="35" y="296" width="40" height="20" fill="#FA500F"/>
<rect x="15" y="356" width="60" height="20" fill="#FA500F"/>
<rect x="95" y="356" width="60" height="20" fill="#FA500F"/>
<rect x="35" y="316" width="100" height="20" fill="#FA500F"/>
<rect x="95" y="296" width="40" height="20" fill="#FA500F"/>
<path d="M50.9987 760H30.9987V778H50.9987V760Z" fill="#FFD700"/>
<path d="M130.999 760H110.999V778H130.999V760Z" fill="#FFD700"/>
<path d="M90.9988 820H70.9988V838H90.9988V820Z" fill="#FA500F"/>
<path d="M50.9987 820H30.9987V838H50.9987V820Z" fill="#FA500F"/>
<path d="M130.999 820H110.999V838H130.999V820Z" fill="#FA500F"/>
<path d="M70.9987 780H30.9987V798H70.9987V780Z" fill="#FFAF00"/>
<path d="M71.0002 840H11V858.001H71.0002V840Z" fill="#E92700"/>
<path d="M151 840H90.9998V858.001H151V840Z" fill="#E92700"/>
<path d="M130.999 800H30.9987V818H130.999V800Z" fill="#FF8205"/>
<path d="M131 780H90.9998V798H131V780Z" fill="#FFAF00"/>
<rect x="42" y="1002" width="20" height="20" fill="#FF8205"/>
<rect x="122" y="1002" width="20" height="20" fill="#FF8205"/>
<rect x="82" y="1062" width="20" height="20" fill="#FF8205"/>
<rect x="42" y="1062" width="20" height="20" fill="#FF8205"/>
<rect x="122" y="1062" width="20" height="20" fill="#FF8205"/>
<rect x="42" y="1022" width="40" height="20" fill="#FF8205"/>
<rect x="22" y="1082" width="60" height="20" fill="#FF8205"/>
<rect x="102" y="1082" width="60" height="20" fill="#FF8205"/>
<rect x="42" y="1042" width="100" height="20" fill="#FF8205"/>
<rect x="102" y="1022" width="40" height="20" fill="#FF8205"/>
<rect width="162" height="162" transform="translate(242 3)" fill="#6060F8"/>
<rect x="278" y="39" width="18" height="18" fill="white"/>
<rect x="350" y="39" width="18" height="18" fill="white"/>
<rect x="314" y="93" width="18" height="18" fill="white"/>
<rect x="278" y="93" width="18" height="18" fill="white"/>
<rect x="350" y="93" width="18" height="18" fill="white"/>
<rect x="278" y="57" width="36" height="18" fill="white"/>
<rect x="260" y="111" width="54" height="18" fill="white"/>
<rect x="332" y="111" width="54" height="18" fill="white"/>
<rect x="278" y="75" width="90" height="18" fill="white"/>
<rect x="332" y="57" width="36" height="18" fill="white"/>
<rect width="162" height="162" transform="translate(242 487)" fill="#EAEAEA"/>
<rect x="278" y="523" width="18" height="18" fill="#606060"/>
<rect x="350" y="523" width="18" height="18" fill="#606060"/>
<rect x="314" y="577" width="18" height="18" fill="#606060"/>
<rect x="278" y="577" width="18" height="18" fill="#606060"/>
<rect x="350" y="577" width="18" height="18" fill="#606060"/>
<rect x="278" y="541" width="36" height="18" fill="#606060"/>
<rect x="260" y="595" width="54" height="18" fill="#606060"/>
<rect x="332" y="595" width="54" height="18" fill="#606060"/>
<rect x="278" y="559" width="90" height="18" fill="#606060"/>
<rect x="332" y="541" width="36" height="18" fill="#606060"/>
<rect width="162" height="162" transform="translate(242 245)" fill="#FA500F"/>
<rect x="278" y="281" width="18" height="18" fill="white"/>
<rect x="350" y="281" width="18" height="18" fill="white"/>
<rect x="314" y="335" width="18" height="18" fill="white"/>
<rect x="278" y="335" width="18" height="18" fill="white"/>
<rect x="350" y="335" width="18" height="18" fill="white"/>
<rect x="278" y="299" width="36" height="18" fill="white"/>
<rect x="260" y="353" width="54" height="18" fill="white"/>
<rect x="332" y="353" width="54" height="18" fill="white"/>
<rect x="278" y="317" width="90" height="18" fill="white"/>
<rect x="332" y="299" width="36" height="18" fill="white"/>
<rect width="162" height="162" transform="translate(242 729)" fill="#14110F"/>
<path d="M295.999 766H277.999V782.2H295.999V766Z" fill="#FFD700"/>
<path d="M367.999 766H349.999V782.2H367.999V766Z" fill="#FFD700"/>
<path d="M331.999 820H313.999V836.2H331.999V820Z" fill="#FA500F"/>
<path d="M295.999 820H277.999V836.2H295.999V820Z" fill="#FA500F"/>
<path d="M367.999 820H349.999V836.2H367.999V820Z" fill="#FA500F"/>
<path d="M313.999 784H277.999V800.2H313.999V784Z" fill="#FFAF00"/>
<path d="M314 838H260V854.201H314V838Z" fill="#E92700"/>
<path d="M386 838H332V854.201H386V838Z" fill="#E92700"/>
<path d="M367.999 802H277.999V818.2H367.999V802Z" fill="#FF8205"/>
<path d="M368 784H332V800.2H368V784Z" fill="#FFAF00"/>
<rect width="162" height="162" transform="translate(242 971)" fill="#FF8205"/>
<rect x="278" y="1007" width="18" height="18" fill="white"/>
<rect x="350" y="1007" width="18" height="18" fill="white"/>
<rect x="314" y="1061" width="18" height="18" fill="white"/>
<rect x="278" y="1061" width="18" height="18" fill="white"/>
<rect x="350" y="1061" width="18" height="18" fill="white"/>
<rect x="278" y="1025" width="36" height="18" fill="white"/>
<rect x="260" y="1079" width="54" height="18" fill="white"/>
<rect x="332" y="1079" width="54" height="18" fill="white"/>
<rect x="278" y="1043" width="90" height="18" fill="white"/>
<rect x="332" y="1025" width="36" height="18" fill="white"/>
<rect width="162" height="162" transform="translate(1168 3)" fill="#6060F8"/>
<rect x="1204" y="39" width="18" height="18" fill="white"/>
<rect x="1276" y="39" width="18" height="18" fill="white"/>
<rect x="1240" y="93" width="18" height="18" fill="white"/>
<rect x="1204" y="93" width="18" height="18" fill="white"/>
<rect x="1276" y="93" width="18" height="18" fill="white"/>
<rect x="1204" y="57" width="36" height="18" fill="white"/>
<rect x="1186" y="111" width="54" height="18" fill="white"/>
<rect x="1258" y="111" width="54" height="18" fill="white"/>
<rect x="1204" y="75" width="90" height="18" fill="white"/>
<rect x="1258" y="57" width="36" height="18" fill="white"/>
<path d="M1371.34 71V19.4609H1381.61L1393.81 55.9531C1394.93 59.3516 1395.75 61.8945 1396.27 63.582C1396.86 61.707 1397.77 58.9531 1399.01 55.3203L1411.35 19.4609H1420.53V71H1413.95V27.8633L1398.98 71H1392.82L1377.92 27.125V71H1371.34ZM1430.04 26.7383V19.4609H1436.37V26.7383H1430.04ZM1430.04 71V33.6641H1436.37V71H1430.04ZM1442.78 59.8555L1449.04 58.8711C1449.39 61.3789 1450.36 63.3008 1451.96 64.6367C1453.58 65.9727 1455.83 66.6406 1458.71 66.6406C1461.61 66.6406 1463.77 66.0547 1465.18 64.8828C1466.58 63.6875 1467.29 62.293 1467.29 60.6992C1467.29 59.2695 1466.67 58.1445 1465.42 57.3242C1464.56 56.7617 1462.4 56.0469 1458.95 55.1797C1454.31 54.0078 1451.09 53 1449.29 52.1562C1447.51 51.2891 1446.15 50.1055 1445.21 48.6055C1444.29 47.082 1443.84 45.4062 1443.84 43.5781C1443.84 41.9141 1444.21 40.3789 1444.96 38.9727C1445.74 37.543 1446.78 36.3594 1448.09 35.4219C1449.08 34.6953 1450.41 34.0859 1452.1 33.5938C1453.81 33.0781 1455.64 32.8203 1457.58 32.8203C1460.51 32.8203 1463.08 33.2422 1465.28 34.0859C1467.51 34.9297 1469.15 36.0781 1470.2 37.5312C1471.26 38.9609 1471.99 40.8828 1472.38 43.2969L1466.2 44.1406C1465.92 42.2188 1465.1 40.7188 1463.74 39.6406C1462.4 38.5625 1460.5 38.0234 1458.04 38.0234C1455.13 38.0234 1453.06 38.5039 1451.82 39.4648C1450.58 40.4258 1449.95 41.5508 1449.95 42.8398C1449.95 43.6602 1450.21 44.3984 1450.73 45.0547C1451.24 45.7344 1452.05 46.2969 1453.15 46.7422C1453.79 46.9766 1455.65 47.5156 1458.74 48.3594C1463.22 49.5547 1466.34 50.5391 1468.1 51.3125C1469.88 52.0625 1471.27 53.1641 1472.28 54.6172C1473.29 56.0703 1473.79 57.875 1473.79 60.0312C1473.79 62.1406 1473.17 64.1328 1471.93 66.0078C1470.71 67.8594 1468.94 69.3008 1466.62 70.332C1464.3 71.3398 1461.67 71.8438 1458.74 71.8438C1453.89 71.8438 1450.19 70.8359 1447.63 68.8203C1445.1 66.8047 1443.49 63.8164 1442.78 59.8555ZM1494.41 65.3398L1495.32 70.9297C1493.54 71.3047 1491.95 71.4922 1490.54 71.4922C1488.25 71.4922 1486.46 71.1289 1485.2 70.4023C1483.93 69.6758 1483.04 68.7266 1482.53 67.5547C1482.01 66.3594 1481.75 63.8633 1481.75 60.0664V38.5859H1477.11V33.6641H1481.75V24.418L1488.05 20.6211V33.6641H1494.41V38.5859H1488.05V60.418C1488.05 62.2227 1488.15 63.3828 1488.36 63.8984C1488.6 64.4141 1488.96 64.8242 1489.45 65.1289C1489.97 65.4336 1490.7 65.5859 1491.63 65.5859C1492.34 65.5859 1493.26 65.5039 1494.41 65.3398ZM1499.84 71V33.6641H1505.54V39.3242C1506.99 36.6758 1508.33 34.9297 1509.55 34.0859C1510.79 33.2422 1512.15 32.8203 1513.62 32.8203C1515.76 32.8203 1517.92 33.5 1520.13 34.8594L1517.95 40.7305C1516.4 39.8164 1514.85 39.3594 1513.31 39.3594C1511.92 39.3594 1510.68 39.7812 1509.58 40.625C1508.48 41.4453 1507.69 42.5938 1507.23 44.0703C1506.52 46.3203 1506.17 48.7812 1506.17 51.4531V71H1499.84ZM1547.53 66.3945C1545.19 68.3867 1542.93 69.793 1540.75 70.6133C1538.59 71.4336 1536.27 71.8438 1533.79 71.8438C1529.69 71.8438 1526.53 70.8477 1524.33 68.8555C1522.13 66.8398 1521.02 64.2734 1521.02 61.1562C1521.02 59.3281 1521.44 57.6641 1522.26 56.1641C1523.1 54.6406 1524.19 53.4219 1525.52 52.5078C1526.88 51.5938 1528.41 50.9023 1530.1 50.4336C1531.34 50.1055 1533.21 49.7891 1535.72 49.4844C1540.83 48.875 1544.59 48.1484 1547.01 47.3047C1547.03 46.4375 1547.04 45.8867 1547.04 45.6523C1547.04 43.0742 1546.44 41.2578 1545.25 40.2031C1543.63 38.7734 1541.23 38.0586 1538.04 38.0586C1535.06 38.0586 1532.86 38.5859 1531.43 39.6406C1530.02 40.6719 1528.98 42.5117 1528.3 45.1602L1522.11 44.3164C1522.68 41.668 1523.6 39.5352 1524.89 37.918C1526.18 36.2773 1528.04 35.0234 1530.48 34.1562C1532.92 33.2656 1535.74 32.8203 1538.95 32.8203C1542.14 32.8203 1544.73 33.1953 1546.72 33.9453C1548.72 34.6953 1550.18 35.6445 1551.12 36.793C1552.06 37.918 1552.71 39.3477 1553.09 41.082C1553.3 42.1602 1553.4 44.1055 1553.4 46.918V55.3555C1553.4 61.2383 1553.53 64.9648 1553.79 66.5352C1554.07 68.082 1554.61 69.5703 1555.41 71H1548.8C1548.14 69.6875 1547.72 68.1523 1547.53 66.3945ZM1547.01 52.2617C1544.71 53.1992 1541.26 53.9961 1536.67 54.6523C1534.07 55.0273 1532.23 55.4492 1531.15 55.918C1530.07 56.3867 1529.24 57.0781 1528.65 57.9922C1528.07 58.8828 1527.77 59.8789 1527.77 60.9805C1527.77 62.668 1528.41 64.0742 1529.67 65.1992C1530.96 66.3242 1532.84 66.8867 1535.3 66.8867C1537.74 66.8867 1539.9 66.3594 1541.8 65.3047C1543.7 64.2266 1545.1 62.7617 1545.99 60.9102C1546.67 59.4805 1547.01 57.3711 1547.01 54.582V52.2617ZM1562.39 71V19.4609H1568.72V71H1562.39Z" fill="#14110F"/>
<path d="M1365.89 148L1385.69 96.4609H1393.04L1414.13 148H1406.36L1400.35 132.391H1378.8L1373.14 148H1365.89ZM1380.77 126.836H1398.24L1392.86 112.562C1391.22 108.227 1390 104.664 1389.2 101.875C1388.55 105.18 1387.62 108.461 1386.43 111.719L1380.77 126.836ZM1420.02 148V96.4609H1426.84V148H1420.02ZM1455.18 131.441L1461.61 130.879C1461.91 133.457 1462.62 135.578 1463.72 137.242C1464.84 138.883 1466.58 140.219 1468.92 141.25C1471.27 142.258 1473.9 142.762 1476.83 142.762C1479.43 142.762 1481.73 142.375 1483.72 141.602C1485.71 140.828 1487.19 139.773 1488.15 138.438C1489.14 137.078 1489.63 135.602 1489.63 134.008C1489.63 132.391 1489.16 130.984 1488.22 129.789C1487.29 128.57 1485.74 127.551 1483.58 126.73C1482.2 126.191 1479.14 125.359 1474.41 124.234C1469.67 123.086 1466.36 122.008 1464.46 121C1462 119.711 1460.16 118.117 1458.94 116.219C1457.74 114.297 1457.14 112.152 1457.14 109.785C1457.14 107.184 1457.88 104.758 1459.36 102.508C1460.84 100.234 1462.99 98.5117 1465.83 97.3398C1468.66 96.168 1471.82 95.582 1475.29 95.582C1479.11 95.582 1482.47 96.2031 1485.38 97.4453C1488.3 98.6641 1490.55 100.469 1492.13 102.859C1493.7 105.25 1494.54 107.957 1494.66 110.98L1488.12 111.473C1487.77 108.215 1486.57 105.754 1484.53 104.09C1482.52 102.426 1479.53 101.594 1475.57 101.594C1471.44 101.594 1468.43 102.355 1466.53 103.879C1464.66 105.379 1463.72 107.195 1463.72 109.328C1463.72 111.18 1464.39 112.703 1465.72 113.898C1467.04 115.094 1470.46 116.324 1475.99 117.59C1481.54 118.832 1485.35 119.922 1487.41 120.859C1490.41 122.242 1492.63 124 1494.06 126.133C1495.49 128.242 1496.2 130.68 1496.2 133.445C1496.2 136.188 1495.42 138.777 1493.85 141.215C1492.28 143.629 1490.02 145.516 1487.06 146.875C1484.13 148.211 1480.83 148.879 1477.15 148.879C1472.48 148.879 1468.57 148.199 1465.41 146.84C1462.27 145.48 1459.79 143.441 1457.99 140.723C1456.21 137.98 1455.27 134.887 1455.18 131.441ZM1517.81 142.34L1518.72 147.93C1516.94 148.305 1515.35 148.492 1513.94 148.492C1511.64 148.492 1509.86 148.129 1508.6 147.402C1507.33 146.676 1506.44 145.727 1505.92 144.555C1505.41 143.359 1505.15 140.863 1505.15 137.066V115.586H1500.51V110.664H1505.15V101.418L1511.44 97.6211V110.664H1517.81V115.586H1511.44V137.418C1511.44 139.223 1511.55 140.383 1511.76 140.898C1511.99 141.414 1512.36 141.824 1512.85 142.129C1513.37 142.434 1514.09 142.586 1515.03 142.586C1515.73 142.586 1516.66 142.504 1517.81 142.34ZM1547.78 148V142.516C1544.87 146.734 1540.92 148.844 1535.93 148.844C1533.73 148.844 1531.67 148.422 1529.74 147.578C1527.85 146.734 1526.43 145.68 1525.49 144.414C1524.58 143.125 1523.93 141.555 1523.56 139.703C1523.3 138.461 1523.17 136.492 1523.17 133.797V110.664H1529.5V131.371C1529.5 134.676 1529.63 136.902 1529.88 138.051C1530.28 139.715 1531.13 141.027 1532.42 141.988C1533.7 142.926 1535.3 143.395 1537.2 143.395C1539.1 143.395 1540.88 142.914 1542.54 141.953C1544.2 140.969 1545.38 139.645 1546.06 137.98C1546.76 136.293 1547.11 133.855 1547.11 130.668V110.664H1553.44V148H1547.78ZM1586.89 148V143.289C1584.52 146.992 1581.04 148.844 1576.45 148.844C1573.47 148.844 1570.73 148.023 1568.22 146.383C1565.74 144.742 1563.8 142.457 1562.42 139.527C1561.06 136.574 1560.38 133.188 1560.38 129.367C1560.38 125.641 1561 122.266 1562.25 119.242C1563.49 116.195 1565.35 113.863 1567.84 112.246C1570.32 110.629 1573.1 109.82 1576.17 109.82C1578.42 109.82 1580.42 110.301 1582.18 111.262C1583.94 112.199 1585.37 113.43 1586.47 114.953V96.4609H1592.76V148H1586.89ZM1566.89 129.367C1566.89 134.148 1567.89 137.723 1569.91 140.09C1571.93 142.457 1574.3 143.641 1577.05 143.641C1579.81 143.641 1582.16 142.516 1584.08 140.266C1586.02 137.992 1587 134.535 1587 129.895C1587 124.785 1586.01 121.035 1584.04 118.645C1582.07 116.254 1579.65 115.059 1576.77 115.059C1573.95 115.059 1571.6 116.207 1569.7 118.504C1567.82 120.801 1566.89 124.422 1566.89 129.367ZM1602.06 103.738V96.4609H1608.39V103.738H1602.06ZM1602.06 148V110.664H1608.39V148H1602.06ZM1614.98 129.332C1614.98 122.418 1616.9 117.297 1620.75 113.969C1623.96 111.203 1627.87 109.82 1632.49 109.82C1637.62 109.82 1641.82 111.508 1645.08 114.883C1648.33 118.234 1649.96 122.875 1649.96 128.805C1649.96 133.609 1649.24 137.395 1647.78 140.16C1646.35 142.902 1644.26 145.035 1641.49 146.559C1638.75 148.082 1635.75 148.844 1632.49 148.844C1627.26 148.844 1623.03 147.168 1619.8 143.816C1616.59 140.465 1614.98 135.637 1614.98 129.332ZM1621.49 129.332C1621.49 134.113 1622.53 137.699 1624.62 140.09C1626.7 142.457 1629.33 143.641 1632.49 143.641C1635.63 143.641 1638.24 142.445 1640.33 140.055C1642.42 137.664 1643.46 134.02 1643.46 129.121C1643.46 124.504 1642.4 121.012 1640.29 118.645C1638.21 116.254 1635.61 115.059 1632.49 115.059C1629.33 115.059 1626.7 116.242 1624.62 118.609C1622.53 120.977 1621.49 124.551 1621.49 129.332Z" fill="#14110F"/>
<rect width="162" height="162" transform="translate(1168 971)" fill="#FF8205"/>
<rect x="1204" y="1007" width="18" height="18" fill="white"/>
<rect x="1276" y="1007" width="18" height="18" fill="white"/>
<rect x="1240" y="1061" width="18" height="18" fill="white"/>
<rect x="1204" y="1061" width="18" height="18" fill="white"/>
<rect x="1276" y="1061" width="18" height="18" fill="white"/>
<rect x="1204" y="1025" width="36" height="18" fill="white"/>
<rect x="1186" y="1079" width="54" height="18" fill="white"/>
<rect x="1258" y="1079" width="54" height="18" fill="white"/>
<rect x="1204" y="1043" width="90" height="18" fill="white"/>
<rect x="1258" y="1025" width="36" height="18" fill="white"/>
<path d="M1371.34 1039V987.461H1381.61L1393.81 1023.95C1394.93 1027.35 1395.75 1029.89 1396.27 1031.58C1396.86 1029.71 1397.77 1026.95 1399.01 1023.32L1411.35 987.461H1420.53V1039H1413.95V995.863L1398.98 1039H1392.82L1377.92 995.125V1039H1371.34ZM1430.04 994.738V987.461H1436.37V994.738H1430.04ZM1430.04 1039V1001.66H1436.37V1039H1430.04ZM1442.78 1027.86L1449.04 1026.87C1449.39 1029.38 1450.36 1031.3 1451.96 1032.64C1453.58 1033.97 1455.83 1034.64 1458.71 1034.64C1461.61 1034.64 1463.77 1034.05 1465.18 1032.88C1466.58 1031.69 1467.29 1030.29 1467.29 1028.7C1467.29 1027.27 1466.67 1026.14 1465.42 1025.32C1464.56 1024.76 1462.4 1024.05 1458.95 1023.18C1454.31 1022.01 1451.09 1021 1449.29 1020.16C1447.51 1019.29 1446.15 1018.11 1445.21 1016.61C1444.29 1015.08 1443.84 1013.41 1443.84 1011.58C1443.84 1009.91 1444.21 1008.38 1444.96 1006.97C1445.74 1005.54 1446.78 1004.36 1448.09 1003.42C1449.08 1002.7 1450.41 1002.09 1452.1 1001.59C1453.81 1001.08 1455.64 1000.82 1457.58 1000.82C1460.51 1000.82 1463.08 1001.24 1465.28 1002.09C1467.51 1002.93 1469.15 1004.08 1470.2 1005.53C1471.26 1006.96 1471.99 1008.88 1472.38 1011.3L1466.2 1012.14C1465.92 1010.22 1465.1 1008.72 1463.74 1007.64C1462.4 1006.56 1460.5 1006.02 1458.04 1006.02C1455.13 1006.02 1453.06 1006.5 1451.82 1007.46C1450.58 1008.43 1449.95 1009.55 1449.95 1010.84C1449.95 1011.66 1450.21 1012.4 1450.73 1013.05C1451.24 1013.73 1452.05 1014.3 1453.15 1014.74C1453.79 1014.98 1455.65 1015.52 1458.74 1016.36C1463.22 1017.55 1466.34 1018.54 1468.1 1019.31C1469.88 1020.06 1471.27 1021.16 1472.28 1022.62C1473.29 1024.07 1473.79 1025.88 1473.79 1028.03C1473.79 1030.14 1473.17 1032.13 1471.93 1034.01C1470.71 1035.86 1468.94 1037.3 1466.62 1038.33C1464.3 1039.34 1461.67 1039.84 1458.74 1039.84C1453.89 1039.84 1450.19 1038.84 1447.63 1036.82C1445.1 1034.8 1443.49 1031.82 1442.78 1027.86ZM1494.41 1033.34L1495.32 1038.93C1493.54 1039.3 1491.95 1039.49 1490.54 1039.49C1488.25 1039.49 1486.46 1039.13 1485.2 1038.4C1483.93 1037.68 1483.04 1036.73 1482.53 1035.55C1482.01 1034.36 1481.75 1031.86 1481.75 1028.07V1006.59H1477.11V1001.66H1481.75V992.418L1488.05 988.621V1001.66H1494.41V1006.59H1488.05V1028.42C1488.05 1030.22 1488.15 1031.38 1488.36 1031.9C1488.6 1032.41 1488.96 1032.82 1489.45 1033.13C1489.97 1033.43 1490.7 1033.59 1491.63 1033.59C1492.34 1033.59 1493.26 1033.5 1494.41 1033.34ZM1499.84 1039V1001.66H1505.54V1007.32C1506.99 1004.68 1508.33 1002.93 1509.55 1002.09C1510.79 1001.24 1512.15 1000.82 1513.62 1000.82C1515.76 1000.82 1517.92 1001.5 1520.13 1002.86L1517.95 1008.73C1516.4 1007.82 1514.85 1007.36 1513.31 1007.36C1511.92 1007.36 1510.68 1007.78 1509.58 1008.62C1508.48 1009.45 1507.69 1010.59 1507.23 1012.07C1506.52 1014.32 1506.17 1016.78 1506.17 1019.45V1039H1499.84ZM1547.53 1034.39C1545.19 1036.39 1542.93 1037.79 1540.75 1038.61C1538.59 1039.43 1536.27 1039.84 1533.79 1039.84C1529.69 1039.84 1526.53 1038.85 1524.33 1036.86C1522.13 1034.84 1521.02 1032.27 1521.02 1029.16C1521.02 1027.33 1521.44 1025.66 1522.26 1024.16C1523.1 1022.64 1524.19 1021.42 1525.52 1020.51C1526.88 1019.59 1528.41 1018.9 1530.1 1018.43C1531.34 1018.11 1533.21 1017.79 1535.72 1017.48C1540.83 1016.88 1544.59 1016.15 1547.01 1015.3C1547.03 1014.44 1547.04 1013.89 1547.04 1013.65C1547.04 1011.07 1546.44 1009.26 1545.25 1008.2C1543.63 1006.77 1541.23 1006.06 1538.04 1006.06C1535.06 1006.06 1532.86 1006.59 1531.43 1007.64C1530.02 1008.67 1528.98 1010.51 1528.3 1013.16L1522.11 1012.32C1522.68 1009.67 1523.6 1007.54 1524.89 1005.92C1526.18 1004.28 1528.04 1003.02 1530.48 1002.16C1532.92 1001.27 1535.74 1000.82 1538.95 1000.82C1542.14 1000.82 1544.73 1001.2 1546.72 1001.95C1548.72 1002.7 1550.18 1003.64 1551.12 1004.79C1552.06 1005.92 1552.71 1007.35 1553.09 1009.08C1553.3 1010.16 1553.4 1012.11 1553.4 1014.92V1023.36C1553.4 1029.24 1553.53 1032.96 1553.79 1034.54C1554.07 1036.08 1554.61 1037.57 1555.41 1039H1548.8C1548.14 1037.69 1547.72 1036.15 1547.53 1034.39ZM1547.01 1020.26C1544.71 1021.2 1541.26 1022 1536.67 1022.65C1534.07 1023.03 1532.23 1023.45 1531.15 1023.92C1530.07 1024.39 1529.24 1025.08 1528.65 1025.99C1528.07 1026.88 1527.77 1027.88 1527.77 1028.98C1527.77 1030.67 1528.41 1032.07 1529.67 1033.2C1530.96 1034.32 1532.84 1034.89 1535.3 1034.89C1537.74 1034.89 1539.9 1034.36 1541.8 1033.3C1543.7 1032.23 1545.1 1030.76 1545.99 1028.91C1546.67 1027.48 1547.01 1025.37 1547.01 1022.58V1020.26ZM1562.39 1039V987.461H1568.72V1039H1562.39Z" fill="#14110F"/>
<path d="M1408.33 1097.93L1415.15 1099.65C1413.72 1105.25 1411.14 1109.53 1407.41 1112.48C1403.71 1115.41 1399.18 1116.88 1393.81 1116.88C1388.25 1116.88 1383.73 1115.75 1380.24 1113.5C1376.77 1111.23 1374.12 1107.95 1372.29 1103.66C1370.49 1099.37 1369.59 1094.77 1369.59 1089.84C1369.59 1084.48 1370.61 1079.8 1372.64 1075.82C1374.71 1071.81 1377.62 1068.77 1381.4 1066.71C1385.2 1064.62 1389.37 1063.58 1393.91 1063.58C1399.07 1063.58 1403.41 1064.89 1406.92 1067.52C1410.44 1070.14 1412.89 1073.84 1414.27 1078.59L1407.55 1080.18C1406.36 1076.43 1404.62 1073.7 1402.35 1071.98C1400.08 1070.27 1397.22 1069.42 1393.77 1069.42C1389.81 1069.42 1386.5 1070.37 1383.82 1072.27C1381.18 1074.16 1379.31 1076.72 1378.23 1079.93C1377.16 1083.12 1376.62 1086.41 1376.62 1089.81C1376.62 1094.19 1377.25 1098.02 1378.52 1101.3C1379.8 1104.56 1381.8 1107 1384.49 1108.62C1387.19 1110.23 1390.11 1111.04 1393.25 1111.04C1397.07 1111.04 1400.3 1109.94 1402.95 1107.74C1405.6 1105.54 1407.39 1102.27 1408.33 1097.93ZM1419.7 1097.33C1419.7 1090.42 1421.62 1085.3 1425.47 1081.97C1428.68 1079.2 1432.59 1077.82 1437.21 1077.82C1442.34 1077.82 1446.54 1079.51 1449.8 1082.88C1453.05 1086.23 1454.68 1090.88 1454.68 1096.8C1454.68 1101.61 1453.96 1105.39 1452.5 1108.16C1451.07 1110.9 1448.98 1113.04 1446.21 1114.56C1443.47 1116.08 1440.47 1116.84 1437.21 1116.84C1431.98 1116.84 1427.75 1115.17 1424.52 1111.82C1421.31 1108.46 1419.7 1103.64 1419.7 1097.33ZM1426.21 1097.33C1426.21 1102.11 1427.25 1105.7 1429.33 1108.09C1431.42 1110.46 1434.05 1111.64 1437.21 1111.64C1440.35 1111.64 1442.96 1110.45 1445.05 1108.05C1447.14 1105.66 1448.18 1102.02 1448.18 1097.12C1448.18 1092.5 1447.12 1089.01 1445.01 1086.64C1442.93 1084.25 1440.33 1083.06 1437.21 1083.06C1434.05 1083.06 1431.42 1084.24 1429.33 1086.61C1427.25 1088.98 1426.21 1092.55 1426.21 1097.33ZM1461.42 1116V1078.66H1467.08V1083.9C1468.25 1082.07 1469.81 1080.61 1471.75 1079.51C1473.7 1078.38 1475.91 1077.82 1478.4 1077.82C1481.16 1077.82 1483.42 1078.39 1485.18 1079.54C1486.96 1080.69 1488.22 1082.3 1488.94 1084.36C1491.9 1080 1495.74 1077.82 1500.47 1077.82C1504.18 1077.82 1507.02 1078.85 1509.02 1080.91C1511.01 1082.95 1512.01 1086.11 1512.01 1090.37V1116H1505.71V1092.48C1505.71 1089.95 1505.5 1088.13 1505.08 1087.03C1504.68 1085.91 1503.94 1085 1502.86 1084.32C1501.79 1083.64 1500.52 1083.3 1499.07 1083.3C1496.44 1083.3 1494.26 1084.18 1492.53 1085.94C1490.79 1087.68 1489.93 1090.46 1489.93 1094.31V1116H1483.6V1091.74C1483.6 1088.93 1483.08 1086.82 1482.05 1085.41C1481.02 1084.01 1479.33 1083.3 1476.99 1083.3C1475.21 1083.3 1473.56 1083.77 1472.03 1084.71C1470.53 1085.65 1469.44 1087.02 1468.76 1088.82C1468.08 1090.63 1467.74 1093.23 1467.74 1096.63V1116H1461.42ZM1520.67 1130.31V1078.66H1526.44V1083.52C1527.8 1081.62 1529.33 1080.2 1531.04 1079.26C1532.75 1078.3 1534.83 1077.82 1537.27 1077.82C1540.45 1077.82 1543.27 1078.64 1545.7 1080.28C1548.14 1081.92 1549.98 1084.24 1551.22 1087.24C1552.46 1090.22 1553.09 1093.49 1553.09 1097.05C1553.09 1100.87 1552.39 1104.32 1551.01 1107.39C1549.65 1110.43 1547.66 1112.78 1545.04 1114.42C1542.43 1116.04 1539.69 1116.84 1536.81 1116.84C1534.7 1116.84 1532.8 1116.4 1531.11 1115.51C1529.45 1114.62 1528.08 1113.49 1527 1112.13V1130.31H1520.67ZM1526.4 1097.54C1526.4 1102.35 1527.38 1105.9 1529.32 1108.2C1531.27 1110.49 1533.62 1111.64 1536.39 1111.64C1539.2 1111.64 1541.6 1110.46 1543.59 1108.09C1545.61 1105.7 1546.62 1102.01 1546.62 1097.02C1546.62 1092.26 1545.63 1088.7 1543.66 1086.33C1541.72 1083.96 1539.39 1082.78 1536.67 1082.78C1533.97 1082.78 1531.58 1084.04 1529.5 1086.57C1527.43 1089.08 1526.4 1092.74 1526.4 1097.54ZM1584.5 1116V1110.52C1581.59 1114.73 1577.64 1116.84 1572.65 1116.84C1570.45 1116.84 1568.39 1116.42 1566.46 1115.58C1564.57 1114.73 1563.15 1113.68 1562.21 1112.41C1561.3 1111.12 1560.65 1109.55 1560.28 1107.7C1560.02 1106.46 1559.89 1104.49 1559.89 1101.8V1078.66H1566.22V1099.37C1566.22 1102.68 1566.35 1104.9 1566.6 1106.05C1567 1107.71 1567.85 1109.03 1569.14 1109.99C1570.42 1110.93 1572.02 1111.39 1573.92 1111.39C1575.82 1111.39 1577.6 1110.91 1579.26 1109.95C1580.92 1108.97 1582.1 1107.64 1582.78 1105.98C1583.48 1104.29 1583.83 1101.86 1583.83 1098.67V1078.66H1590.16V1116H1584.5ZM1613.2 1110.34L1614.12 1115.93C1612.34 1116.3 1610.74 1116.49 1609.34 1116.49C1607.04 1116.49 1605.26 1116.13 1603.99 1115.4C1602.73 1114.68 1601.84 1113.73 1601.32 1112.55C1600.81 1111.36 1600.55 1108.86 1600.55 1105.07V1083.59H1595.91V1078.66H1600.55V1069.42L1606.84 1065.62V1078.66H1613.2V1083.59H1606.84V1105.42C1606.84 1107.22 1606.95 1108.38 1607.16 1108.9C1607.39 1109.41 1607.76 1109.82 1608.25 1110.13C1608.76 1110.43 1609.49 1110.59 1610.43 1110.59C1611.13 1110.59 1612.06 1110.5 1613.2 1110.34ZM1644.27 1103.98L1650.8 1104.79C1649.77 1108.61 1647.86 1111.57 1645.07 1113.68C1642.29 1115.79 1638.72 1116.84 1634.39 1116.84C1628.93 1116.84 1624.59 1115.17 1621.38 1111.82C1618.19 1108.44 1616.6 1103.72 1616.6 1097.65C1616.6 1091.37 1618.22 1086.49 1621.45 1083.02C1624.68 1079.55 1628.88 1077.82 1634.04 1077.82C1639.03 1077.82 1643.11 1079.52 1646.27 1082.92C1649.43 1086.32 1651.02 1091.1 1651.02 1097.26C1651.02 1097.64 1651 1098.2 1650.98 1098.95H1623.14C1623.37 1103.05 1624.53 1106.19 1626.62 1108.37C1628.7 1110.55 1631.3 1111.64 1634.42 1111.64C1636.74 1111.64 1638.72 1111.03 1640.36 1109.81C1642 1108.59 1643.3 1106.65 1644.27 1103.98ZM1623.49 1093.75H1644.34C1644.05 1090.61 1643.26 1088.25 1641.95 1086.68C1639.93 1084.24 1637.32 1083.02 1634.11 1083.02C1631.2 1083.02 1628.75 1084 1626.76 1085.94C1624.79 1087.89 1623.7 1090.49 1623.49 1093.75Z" fill="#14110F"/>
<rect width="162" height="162" transform="translate(1168 729)" fill="#14110F"/>
<path d="M1222 766H1204V782.2H1222V766Z" fill="#FFD700"/>
<path d="M1294 766H1276V782.2H1294V766Z" fill="#FFD700"/>
<path d="M1258 820H1240V836.2H1258V820Z" fill="#FA500F"/>
<path d="M1222 820H1204V836.2H1222V820Z" fill="#FA500F"/>
<path d="M1294 820H1276V836.2H1294V820Z" fill="#FA500F"/>
<path d="M1240 784H1204V800.2H1240V784Z" fill="#FFAF00"/>
<path d="M1240 838H1186V854.201H1240V838Z" fill="#E92700"/>
<path d="M1312 838H1258V854.201H1312V838Z" fill="#E92700"/>
<path d="M1294 802H1204V818.2H1294V802Z" fill="#FF8205"/>
<path d="M1294 784H1258V800.2H1294V784Z" fill="#FFAF00"/>
<path d="M1371.34 797V745.461H1381.61L1393.81 781.953C1394.93 785.352 1395.75 787.895 1396.27 789.582C1396.86 787.707 1397.77 784.953 1399.01 781.32L1411.35 745.461H1420.53V797H1413.95V753.863L1398.98 797H1392.82L1377.92 753.125V797H1371.34ZM1430.04 752.738V745.461H1436.37V752.738H1430.04ZM1430.04 797V759.664H1436.37V797H1430.04ZM1442.78 785.855L1449.04 784.871C1449.39 787.379 1450.36 789.301 1451.96 790.637C1453.58 791.973 1455.83 792.641 1458.71 792.641C1461.61 792.641 1463.77 792.055 1465.18 790.883C1466.58 789.688 1467.29 788.293 1467.29 786.699C1467.29 785.27 1466.67 784.145 1465.42 783.324C1464.56 782.762 1462.4 782.047 1458.95 781.18C1454.31 780.008 1451.09 779 1449.29 778.156C1447.51 777.289 1446.15 776.105 1445.21 774.605C1444.29 773.082 1443.84 771.406 1443.84 769.578C1443.84 767.914 1444.21 766.379 1444.96 764.973C1445.74 763.543 1446.78 762.359 1448.09 761.422C1449.08 760.695 1450.41 760.086 1452.1 759.594C1453.81 759.078 1455.64 758.82 1457.58 758.82C1460.51 758.82 1463.08 759.242 1465.28 760.086C1467.51 760.93 1469.15 762.078 1470.2 763.531C1471.26 764.961 1471.99 766.883 1472.38 769.297L1466.2 770.141C1465.92 768.219 1465.1 766.719 1463.74 765.641C1462.4 764.562 1460.5 764.023 1458.04 764.023C1455.13 764.023 1453.06 764.504 1451.82 765.465C1450.58 766.426 1449.95 767.551 1449.95 768.84C1449.95 769.66 1450.21 770.398 1450.73 771.055C1451.24 771.734 1452.05 772.297 1453.15 772.742C1453.79 772.977 1455.65 773.516 1458.74 774.359C1463.22 775.555 1466.34 776.539 1468.1 777.312C1469.88 778.062 1471.27 779.164 1472.28 780.617C1473.29 782.07 1473.79 783.875 1473.79 786.031C1473.79 788.141 1473.17 790.133 1471.93 792.008C1470.71 793.859 1468.94 795.301 1466.62 796.332C1464.3 797.34 1461.67 797.844 1458.74 797.844C1453.89 797.844 1450.19 796.836 1447.63 794.82C1445.1 792.805 1443.49 789.816 1442.78 785.855ZM1494.41 791.34L1495.32 796.93C1493.54 797.305 1491.95 797.492 1490.54 797.492C1488.25 797.492 1486.46 797.129 1485.2 796.402C1483.93 795.676 1483.04 794.727 1482.53 793.555C1482.01 792.359 1481.75 789.863 1481.75 786.066V764.586H1477.11V759.664H1481.75V750.418L1488.05 746.621V759.664H1494.41V764.586H1488.05V786.418C1488.05 788.223 1488.15 789.383 1488.36 789.898C1488.6 790.414 1488.96 790.824 1489.45 791.129C1489.97 791.434 1490.7 791.586 1491.63 791.586C1492.34 791.586 1493.26 791.504 1494.41 791.34ZM1499.84 797V759.664H1505.54V765.324C1506.99 762.676 1508.33 760.93 1509.55 760.086C1510.79 759.242 1512.15 758.82 1513.62 758.82C1515.76 758.82 1517.92 759.5 1520.13 760.859L1517.95 766.73C1516.4 765.816 1514.85 765.359 1513.31 765.359C1511.92 765.359 1510.68 765.781 1509.58 766.625C1508.48 767.445 1507.69 768.594 1507.23 770.07C1506.52 772.32 1506.17 774.781 1506.17 777.453V797H1499.84ZM1547.53 792.395C1545.19 794.387 1542.93 795.793 1540.75 796.613C1538.59 797.434 1536.27 797.844 1533.79 797.844C1529.69 797.844 1526.53 796.848 1524.33 794.855C1522.13 792.84 1521.02 790.273 1521.02 787.156C1521.02 785.328 1521.44 783.664 1522.26 782.164C1523.1 780.641 1524.19 779.422 1525.52 778.508C1526.88 777.594 1528.41 776.902 1530.1 776.434C1531.34 776.105 1533.21 775.789 1535.72 775.484C1540.83 774.875 1544.59 774.148 1547.01 773.305C1547.03 772.438 1547.04 771.887 1547.04 771.652C1547.04 769.074 1546.44 767.258 1545.25 766.203C1543.63 764.773 1541.23 764.059 1538.04 764.059C1535.06 764.059 1532.86 764.586 1531.43 765.641C1530.02 766.672 1528.98 768.512 1528.3 771.16L1522.11 770.316C1522.68 767.668 1523.6 765.535 1524.89 763.918C1526.18 762.277 1528.04 761.023 1530.48 760.156C1532.92 759.266 1535.74 758.82 1538.95 758.82C1542.14 758.82 1544.73 759.195 1546.72 759.945C1548.72 760.695 1550.18 761.645 1551.12 762.793C1552.06 763.918 1552.71 765.348 1553.09 767.082C1553.3 768.16 1553.4 770.105 1553.4 772.918V781.355C1553.4 787.238 1553.53 790.965 1553.79 792.535C1554.07 794.082 1554.61 795.57 1555.41 797H1548.8C1548.14 795.688 1547.72 794.152 1547.53 792.395ZM1547.01 778.262C1544.71 779.199 1541.26 779.996 1536.67 780.652C1534.07 781.027 1532.23 781.449 1531.15 781.918C1530.07 782.387 1529.24 783.078 1528.65 783.992C1528.07 784.883 1527.77 785.879 1527.77 786.98C1527.77 788.668 1528.41 790.074 1529.67 791.199C1530.96 792.324 1532.84 792.887 1535.3 792.887C1537.74 792.887 1539.9 792.359 1541.8 791.305C1543.7 790.227 1545.1 788.762 1545.99 786.91C1546.67 785.48 1547.01 783.371 1547.01 780.582V778.262ZM1562.39 797V745.461H1568.72V797H1562.39Z" fill="#14110F"/>
<path d="M1386.29 874L1366.32 822.461H1373.7L1387.09 859.902C1388.17 862.902 1389.07 865.715 1389.8 868.34C1390.6 865.527 1391.52 862.715 1392.58 859.902L1406.5 822.461H1413.46L1393.28 874H1386.29ZM1416.75 829.738V822.461H1423.08V829.738H1416.75ZM1416.75 874V836.664H1423.08V874H1416.75ZM1437.86 874H1431.99V822.461H1438.32V840.848C1440.99 837.496 1444.4 835.82 1448.55 835.82C1450.85 835.82 1453.01 836.289 1455.05 837.227C1457.11 838.141 1458.8 839.441 1460.11 841.129C1461.45 842.793 1462.49 844.809 1463.24 847.176C1463.99 849.543 1464.37 852.074 1464.37 854.77C1464.37 861.168 1462.79 866.113 1459.62 869.605C1456.46 873.098 1452.66 874.844 1448.23 874.844C1443.83 874.844 1440.37 873.004 1437.86 869.324V874ZM1437.79 855.051C1437.79 859.527 1438.4 862.762 1439.62 864.754C1441.61 868.012 1444.31 869.641 1447.7 869.641C1450.47 869.641 1452.86 868.445 1454.88 866.055C1456.89 863.641 1457.9 860.055 1457.9 855.297C1457.9 850.422 1456.93 846.824 1454.98 844.504C1453.06 842.184 1450.73 841.023 1447.99 841.023C1445.22 841.023 1442.83 842.23 1440.81 844.645C1438.8 847.035 1437.79 850.504 1437.79 855.051ZM1496.94 861.977L1503.48 862.785C1502.45 866.605 1500.54 869.57 1497.75 871.68C1494.96 873.789 1491.4 874.844 1487.06 874.844C1481.6 874.844 1477.27 873.168 1474.05 869.816C1470.87 866.441 1469.27 861.719 1469.27 855.648C1469.27 849.367 1470.89 844.492 1474.13 841.023C1477.36 837.555 1481.55 835.82 1486.71 835.82C1491.7 835.82 1495.78 837.52 1498.95 840.918C1502.11 844.316 1503.69 849.098 1503.69 855.262C1503.69 855.637 1503.68 856.199 1503.66 856.949H1475.81C1476.05 861.051 1477.21 864.191 1479.29 866.371C1481.38 868.551 1483.98 869.641 1487.1 869.641C1489.42 869.641 1491.4 869.031 1493.04 867.812C1494.68 866.594 1495.98 864.648 1496.94 861.977ZM1476.16 851.746H1497.01C1496.73 848.605 1495.93 846.25 1494.62 844.68C1492.61 842.242 1489.99 841.023 1486.78 841.023C1483.88 841.023 1481.43 841.996 1479.43 843.941C1477.46 845.887 1476.38 848.488 1476.16 851.746Z" fill="#14110F"/>
<rect width="162" height="162" transform="translate(1168 245)" fill="#FA500F"/>
<rect x="1204" y="281" width="18" height="18" fill="white"/>
<rect x="1276" y="281" width="18" height="18" fill="white"/>
<rect x="1240" y="335" width="18" height="18" fill="white"/>
<rect x="1204" y="335" width="18" height="18" fill="white"/>
<rect x="1276" y="335" width="18" height="18" fill="white"/>
<rect x="1204" y="299" width="36" height="18" fill="white"/>
<rect x="1186" y="353" width="54" height="18" fill="white"/>
<rect x="1258" y="353" width="54" height="18" fill="white"/>
<rect x="1204" y="317" width="90" height="18" fill="white"/>
<rect x="1258" y="299" width="36" height="18" fill="white"/>
<path d="M1371.34 313V261.461H1381.61L1393.81 297.953C1394.93 301.352 1395.75 303.895 1396.27 305.582C1396.86 303.707 1397.77 300.953 1399.01 297.32L1411.35 261.461H1420.53V313H1413.95V269.863L1398.98 313H1392.82L1377.92 269.125V313H1371.34ZM1430.04 268.738V261.461H1436.37V268.738H1430.04ZM1430.04 313V275.664H1436.37V313H1430.04ZM1442.78 301.855L1449.04 300.871C1449.39 303.379 1450.36 305.301 1451.96 306.637C1453.58 307.973 1455.83 308.641 1458.71 308.641C1461.61 308.641 1463.77 308.055 1465.18 306.883C1466.58 305.688 1467.29 304.293 1467.29 302.699C1467.29 301.27 1466.67 300.145 1465.42 299.324C1464.56 298.762 1462.4 298.047 1458.95 297.18C1454.31 296.008 1451.09 295 1449.29 294.156C1447.51 293.289 1446.15 292.105 1445.21 290.605C1444.29 289.082 1443.84 287.406 1443.84 285.578C1443.84 283.914 1444.21 282.379 1444.96 280.973C1445.74 279.543 1446.78 278.359 1448.09 277.422C1449.08 276.695 1450.41 276.086 1452.1 275.594C1453.81 275.078 1455.64 274.82 1457.58 274.82C1460.51 274.82 1463.08 275.242 1465.28 276.086C1467.51 276.93 1469.15 278.078 1470.2 279.531C1471.26 280.961 1471.99 282.883 1472.38 285.297L1466.2 286.141C1465.92 284.219 1465.1 282.719 1463.74 281.641C1462.4 280.562 1460.5 280.023 1458.04 280.023C1455.13 280.023 1453.06 280.504 1451.82 281.465C1450.58 282.426 1449.95 283.551 1449.95 284.84C1449.95 285.66 1450.21 286.398 1450.73 287.055C1451.24 287.734 1452.05 288.297 1453.15 288.742C1453.79 288.977 1455.65 289.516 1458.74 290.359C1463.22 291.555 1466.34 292.539 1468.1 293.312C1469.88 294.062 1471.27 295.164 1472.28 296.617C1473.29 298.07 1473.79 299.875 1473.79 302.031C1473.79 304.141 1473.17 306.133 1471.93 308.008C1470.71 309.859 1468.94 311.301 1466.62 312.332C1464.3 313.34 1461.67 313.844 1458.74 313.844C1453.89 313.844 1450.19 312.836 1447.63 310.82C1445.1 308.805 1443.49 305.816 1442.78 301.855ZM1494.41 307.34L1495.32 312.93C1493.54 313.305 1491.95 313.492 1490.54 313.492C1488.25 313.492 1486.46 313.129 1485.2 312.402C1483.93 311.676 1483.04 310.727 1482.53 309.555C1482.01 308.359 1481.75 305.863 1481.75 302.066V280.586H1477.11V275.664H1481.75V266.418L1488.05 262.621V275.664H1494.41V280.586H1488.05V302.418C1488.05 304.223 1488.15 305.383 1488.36 305.898C1488.6 306.414 1488.96 306.824 1489.45 307.129C1489.97 307.434 1490.7 307.586 1491.63 307.586C1492.34 307.586 1493.26 307.504 1494.41 307.34ZM1499.84 313V275.664H1505.54V281.324C1506.99 278.676 1508.33 276.93 1509.55 276.086C1510.79 275.242 1512.15 274.82 1513.62 274.82C1515.76 274.82 1517.92 275.5 1520.13 276.859L1517.95 282.73C1516.4 281.816 1514.85 281.359 1513.31 281.359C1511.92 281.359 1510.68 281.781 1509.58 282.625C1508.48 283.445 1507.69 284.594 1507.23 286.07C1506.52 288.32 1506.17 290.781 1506.17 293.453V313H1499.84ZM1547.53 308.395C1545.19 310.387 1542.93 311.793 1540.75 312.613C1538.59 313.434 1536.27 313.844 1533.79 313.844C1529.69 313.844 1526.53 312.848 1524.33 310.855C1522.13 308.84 1521.02 306.273 1521.02 303.156C1521.02 301.328 1521.44 299.664 1522.26 298.164C1523.1 296.641 1524.19 295.422 1525.52 294.508C1526.88 293.594 1528.41 292.902 1530.1 292.434C1531.34 292.105 1533.21 291.789 1535.72 291.484C1540.83 290.875 1544.59 290.148 1547.01 289.305C1547.03 288.438 1547.04 287.887 1547.04 287.652C1547.04 285.074 1546.44 283.258 1545.25 282.203C1543.63 280.773 1541.23 280.059 1538.04 280.059C1535.06 280.059 1532.86 280.586 1531.43 281.641C1530.02 282.672 1528.98 284.512 1528.3 287.16L1522.11 286.316C1522.68 283.668 1523.6 281.535 1524.89 279.918C1526.18 278.277 1528.04 277.023 1530.48 276.156C1532.92 275.266 1535.74 274.82 1538.95 274.82C1542.14 274.82 1544.73 275.195 1546.72 275.945C1548.72 276.695 1550.18 277.645 1551.12 278.793C1552.06 279.918 1552.71 281.348 1553.09 283.082C1553.3 284.16 1553.4 286.105 1553.4 288.918V297.355C1553.4 303.238 1553.53 306.965 1553.79 308.535C1554.07 310.082 1554.61 311.57 1555.41 313H1548.8C1548.14 311.688 1547.72 310.152 1547.53 308.395ZM1547.01 294.262C1544.71 295.199 1541.26 295.996 1536.67 296.652C1534.07 297.027 1532.23 297.449 1531.15 297.918C1530.07 298.387 1529.24 299.078 1528.65 299.992C1528.07 300.883 1527.77 301.879 1527.77 302.98C1527.77 304.668 1528.41 306.074 1529.67 307.199C1530.96 308.324 1532.84 308.887 1535.3 308.887C1537.74 308.887 1539.9 308.359 1541.8 307.305C1543.7 306.227 1545.1 304.762 1545.99 302.91C1546.67 301.48 1547.01 299.371 1547.01 296.582V294.262ZM1562.39 313V261.461H1568.72V313H1562.39Z" fill="#14110F"/>
<path d="M1371.27 390V338.461H1378.09V383.918H1403.48V390H1371.27ZM1435.66 377.977L1442.2 378.785C1441.17 382.605 1439.26 385.57 1436.47 387.68C1433.68 389.789 1430.12 390.844 1425.78 390.844C1420.32 390.844 1415.99 389.168 1412.78 385.816C1409.59 382.441 1407.99 377.719 1407.99 371.648C1407.99 365.367 1409.61 360.492 1412.85 357.023C1416.08 353.555 1420.28 351.82 1425.43 351.82C1430.42 351.82 1434.5 353.52 1437.67 356.918C1440.83 360.316 1442.41 365.098 1442.41 371.262C1442.41 371.637 1442.4 372.199 1442.38 372.949H1414.53C1414.77 377.051 1415.93 380.191 1418.01 382.371C1420.1 384.551 1422.7 385.641 1425.82 385.641C1428.14 385.641 1430.12 385.031 1431.76 383.812C1433.4 382.594 1434.7 380.648 1435.66 377.977ZM1414.89 367.746H1435.73C1435.45 364.605 1434.65 362.25 1433.34 360.68C1431.33 358.242 1428.71 357.023 1425.5 357.023C1422.6 357.023 1420.15 357.996 1418.15 359.941C1416.19 361.887 1415.1 364.488 1414.89 367.746ZM1506.36 371.93L1513.18 373.652C1511.75 379.254 1509.18 383.531 1505.45 386.484C1501.75 389.414 1497.21 390.879 1491.84 390.879C1486.29 390.879 1481.77 389.754 1478.27 387.504C1474.8 385.23 1472.16 381.949 1470.33 377.66C1468.52 373.371 1467.62 368.766 1467.62 363.844C1467.62 358.477 1468.64 353.801 1470.68 349.816C1472.74 345.809 1475.66 342.773 1479.43 340.711C1483.23 338.625 1487.4 337.582 1491.95 337.582C1497.11 337.582 1501.44 338.895 1504.96 341.52C1508.47 344.145 1510.92 347.836 1512.3 352.594L1505.59 354.176C1504.39 350.426 1502.66 347.695 1500.39 345.984C1498.11 344.273 1495.25 343.418 1491.81 343.418C1487.85 343.418 1484.53 344.367 1481.86 346.266C1479.21 348.164 1477.35 350.719 1476.27 353.93C1475.19 357.117 1474.65 360.41 1474.65 363.809C1474.65 368.191 1475.29 372.023 1476.55 375.305C1477.84 378.562 1479.83 381 1482.53 382.617C1485.22 384.234 1488.14 385.043 1491.28 385.043C1495.1 385.043 1498.34 383.941 1500.98 381.738C1503.63 379.535 1505.43 376.266 1506.36 371.93ZM1520.09 390V338.461H1526.42V356.953C1529.37 353.531 1533.1 351.82 1537.6 351.82C1540.37 351.82 1542.77 352.371 1544.81 353.473C1546.85 354.551 1548.3 356.051 1549.17 357.973C1550.06 359.895 1550.5 362.684 1550.5 366.34V390H1544.17V366.34C1544.17 363.176 1543.48 360.879 1542.1 359.449C1540.74 357.996 1538.81 357.27 1536.3 357.27C1534.42 357.27 1532.66 357.762 1530.99 358.746C1529.35 359.707 1528.18 361.02 1527.48 362.684C1526.77 364.348 1526.42 366.645 1526.42 369.574V390H1520.09ZM1583.81 385.395C1581.47 387.387 1579.21 388.793 1577.03 389.613C1574.87 390.434 1572.55 390.844 1570.07 390.844C1565.97 390.844 1562.81 389.848 1560.61 387.855C1558.41 385.84 1557.31 383.273 1557.31 380.156C1557.31 378.328 1557.72 376.664 1558.54 375.164C1559.38 373.641 1560.47 372.422 1561.81 371.508C1563.17 370.594 1564.69 369.902 1566.38 369.434C1567.62 369.105 1569.49 368.789 1572 368.484C1577.11 367.875 1580.87 367.148 1583.29 366.305C1583.31 365.438 1583.32 364.887 1583.32 364.652C1583.32 362.074 1582.72 360.258 1581.53 359.203C1579.91 357.773 1577.51 357.059 1574.32 357.059C1571.35 357.059 1569.14 357.586 1567.71 358.641C1566.31 359.672 1565.26 361.512 1564.58 364.16L1558.4 363.316C1558.96 360.668 1559.88 358.535 1561.17 356.918C1562.46 355.277 1564.33 354.023 1566.76 353.156C1569.2 352.266 1572.02 351.82 1575.24 351.82C1578.42 351.82 1581.01 352.195 1583.01 352.945C1585 353.695 1586.46 354.645 1587.4 355.793C1588.34 356.918 1588.99 358.348 1589.37 360.082C1589.58 361.16 1589.69 363.105 1589.69 365.918V374.355C1589.69 380.238 1589.81 383.965 1590.07 385.535C1590.35 387.082 1590.89 388.57 1591.69 390H1585.08C1584.42 388.688 1584 387.152 1583.81 385.395ZM1583.29 371.262C1580.99 372.199 1577.54 372.996 1572.95 373.652C1570.35 374.027 1568.51 374.449 1567.43 374.918C1566.35 375.387 1565.52 376.078 1564.94 376.992C1564.35 377.883 1564.06 378.879 1564.06 379.98C1564.06 381.668 1564.69 383.074 1565.95 384.199C1567.24 385.324 1569.12 385.887 1571.58 385.887C1574.02 385.887 1576.19 385.359 1578.08 384.305C1579.98 383.227 1581.38 381.762 1582.27 379.91C1582.95 378.48 1583.29 376.371 1583.29 373.582V371.262ZM1612.63 384.34L1613.54 389.93C1611.76 390.305 1610.16 390.492 1608.76 390.492C1606.46 390.492 1604.68 390.129 1603.41 389.402C1602.15 388.676 1601.26 387.727 1600.74 386.555C1600.23 385.359 1599.97 382.863 1599.97 379.066V357.586H1595.33V352.664H1599.97V343.418L1606.26 339.621V352.664H1612.63V357.586H1606.26V379.418C1606.26 381.223 1606.37 382.383 1606.58 382.898C1606.81 383.414 1607.18 383.824 1607.67 384.129C1608.18 384.434 1608.91 384.586 1609.85 384.586C1610.55 384.586 1611.48 384.504 1612.63 384.34Z" fill="#14110F"/>
<rect width="162" height="162" transform="translate(1168 487)" fill="#EAEAEA"/>
<rect x="1204" y="523" width="18" height="18" fill="#606060"/>
<rect x="1276" y="523" width="18" height="18" fill="#606060"/>
<rect x="1240" y="577" width="18" height="18" fill="#606060"/>
<rect x="1204" y="577" width="18" height="18" fill="#606060"/>
<rect x="1276" y="577" width="18" height="18" fill="#606060"/>
<rect x="1204" y="541" width="36" height="18" fill="#606060"/>
<rect x="1186" y="595" width="54" height="18" fill="#606060"/>
<rect x="1258" y="595" width="54" height="18" fill="#606060"/>
<rect x="1204" y="559" width="90" height="18" fill="#606060"/>
<rect x="1258" y="541" width="36" height="18" fill="#606060"/>
<path d="M1371.34 555V503.461H1381.61L1393.81 539.953C1394.93 543.352 1395.75 545.895 1396.27 547.582C1396.86 545.707 1397.77 542.953 1399.01 539.32L1411.35 503.461H1420.53V555H1413.95V511.863L1398.98 555H1392.82L1377.92 511.125V555H1371.34ZM1430.04 510.738V503.461H1436.37V510.738H1430.04ZM1430.04 555V517.664H1436.37V555H1430.04ZM1442.78 543.855L1449.04 542.871C1449.39 545.379 1450.36 547.301 1451.96 548.637C1453.58 549.973 1455.83 550.641 1458.71 550.641C1461.61 550.641 1463.77 550.055 1465.18 548.883C1466.58 547.688 1467.29 546.293 1467.29 544.699C1467.29 543.27 1466.67 542.145 1465.42 541.324C1464.56 540.762 1462.4 540.047 1458.95 539.18C1454.31 538.008 1451.09 537 1449.29 536.156C1447.51 535.289 1446.15 534.105 1445.21 532.605C1444.29 531.082 1443.84 529.406 1443.84 527.578C1443.84 525.914 1444.21 524.379 1444.96 522.973C1445.74 521.543 1446.78 520.359 1448.09 519.422C1449.08 518.695 1450.41 518.086 1452.1 517.594C1453.81 517.078 1455.64 516.82 1457.58 516.82C1460.51 516.82 1463.08 517.242 1465.28 518.086C1467.51 518.93 1469.15 520.078 1470.2 521.531C1471.26 522.961 1471.99 524.883 1472.38 527.297L1466.2 528.141C1465.92 526.219 1465.1 524.719 1463.74 523.641C1462.4 522.562 1460.5 522.023 1458.04 522.023C1455.13 522.023 1453.06 522.504 1451.82 523.465C1450.58 524.426 1449.95 525.551 1449.95 526.84C1449.95 527.66 1450.21 528.398 1450.73 529.055C1451.24 529.734 1452.05 530.297 1453.15 530.742C1453.79 530.977 1455.65 531.516 1458.74 532.359C1463.22 533.555 1466.34 534.539 1468.1 535.312C1469.88 536.062 1471.27 537.164 1472.28 538.617C1473.29 540.07 1473.79 541.875 1473.79 544.031C1473.79 546.141 1473.17 548.133 1471.93 550.008C1470.71 551.859 1468.94 553.301 1466.62 554.332C1464.3 555.34 1461.67 555.844 1458.74 555.844C1453.89 555.844 1450.19 554.836 1447.63 552.82C1445.1 550.805 1443.49 547.816 1442.78 543.855ZM1494.41 549.34L1495.32 554.93C1493.54 555.305 1491.95 555.492 1490.54 555.492C1488.25 555.492 1486.46 555.129 1485.2 554.402C1483.93 553.676 1483.04 552.727 1482.53 551.555C1482.01 550.359 1481.75 547.863 1481.75 544.066V522.586H1477.11V517.664H1481.75V508.418L1488.05 504.621V517.664H1494.41V522.586H1488.05V544.418C1488.05 546.223 1488.15 547.383 1488.36 547.898C1488.6 548.414 1488.96 548.824 1489.45 549.129C1489.97 549.434 1490.7 549.586 1491.63 549.586C1492.34 549.586 1493.26 549.504 1494.41 549.34ZM1499.84 555V517.664H1505.54V523.324C1506.99 520.676 1508.33 518.93 1509.55 518.086C1510.79 517.242 1512.15 516.82 1513.62 516.82C1515.76 516.82 1517.92 517.5 1520.13 518.859L1517.95 524.73C1516.4 523.816 1514.85 523.359 1513.31 523.359C1511.92 523.359 1510.68 523.781 1509.58 524.625C1508.48 525.445 1507.69 526.594 1507.23 528.07C1506.52 530.32 1506.17 532.781 1506.17 535.453V555H1499.84ZM1547.53 550.395C1545.19 552.387 1542.93 553.793 1540.75 554.613C1538.59 555.434 1536.27 555.844 1533.79 555.844C1529.69 555.844 1526.53 554.848 1524.33 552.855C1522.13 550.84 1521.02 548.273 1521.02 545.156C1521.02 543.328 1521.44 541.664 1522.26 540.164C1523.1 538.641 1524.19 537.422 1525.52 536.508C1526.88 535.594 1528.41 534.902 1530.1 534.434C1531.34 534.105 1533.21 533.789 1535.72 533.484C1540.83 532.875 1544.59 532.148 1547.01 531.305C1547.03 530.438 1547.04 529.887 1547.04 529.652C1547.04 527.074 1546.44 525.258 1545.25 524.203C1543.63 522.773 1541.23 522.059 1538.04 522.059C1535.06 522.059 1532.86 522.586 1531.43 523.641C1530.02 524.672 1528.98 526.512 1528.3 529.16L1522.11 528.316C1522.68 525.668 1523.6 523.535 1524.89 521.918C1526.18 520.277 1528.04 519.023 1530.48 518.156C1532.92 517.266 1535.74 516.82 1538.95 516.82C1542.14 516.82 1544.73 517.195 1546.72 517.945C1548.72 518.695 1550.18 519.645 1551.12 520.793C1552.06 521.918 1552.71 523.348 1553.09 525.082C1553.3 526.16 1553.4 528.105 1553.4 530.918V539.355C1553.4 545.238 1553.53 548.965 1553.79 550.535C1554.07 552.082 1554.61 553.57 1555.41 555H1548.8C1548.14 553.688 1547.72 552.152 1547.53 550.395ZM1547.01 536.262C1544.71 537.199 1541.26 537.996 1536.67 538.652C1534.07 539.027 1532.23 539.449 1531.15 539.918C1530.07 540.387 1529.24 541.078 1528.65 541.992C1528.07 542.883 1527.77 543.879 1527.77 544.98C1527.77 546.668 1528.41 548.074 1529.67 549.199C1530.96 550.324 1532.84 550.887 1535.3 550.887C1537.74 550.887 1539.9 550.359 1541.8 549.305C1543.7 548.227 1545.1 546.762 1545.99 544.91C1546.67 543.48 1547.01 541.371 1547.01 538.582V536.262ZM1562.39 555V503.461H1568.72V555H1562.39Z" fill="#14110F"/>
<path d="M1371.55 632V580.461H1389.31C1393.32 580.461 1396.38 580.707 1398.48 581.199C1401.44 581.879 1403.96 583.109 1406.04 584.891C1408.76 587.188 1410.79 590.129 1412.12 593.715C1413.48 597.277 1414.16 601.355 1414.16 605.949C1414.16 609.863 1413.71 613.332 1412.79 616.355C1411.88 619.379 1410.71 621.887 1409.28 623.879C1407.85 625.848 1406.28 627.406 1404.57 628.555C1402.88 629.68 1400.83 630.535 1398.41 631.121C1396.02 631.707 1393.27 632 1390.15 632H1371.55ZM1378.38 625.918H1389.38C1392.78 625.918 1395.44 625.602 1397.36 624.969C1399.3 624.336 1400.85 623.445 1402 622.297C1403.62 620.68 1404.87 618.512 1405.76 615.793C1406.68 613.051 1407.13 609.734 1407.13 605.844C1407.13 600.453 1406.24 596.316 1404.46 593.434C1402.7 590.527 1400.56 588.582 1398.03 587.598C1396.2 586.895 1393.26 586.543 1389.2 586.543H1378.38V625.918ZM1419.7 613.332C1419.7 606.418 1421.62 601.297 1425.47 597.969C1428.68 595.203 1432.59 593.82 1437.21 593.82C1442.34 593.82 1446.54 595.508 1449.8 598.883C1453.05 602.234 1454.68 606.875 1454.68 612.805C1454.68 617.609 1453.96 621.395 1452.5 624.16C1451.07 626.902 1448.98 629.035 1446.21 630.559C1443.47 632.082 1440.47 632.844 1437.21 632.844C1431.98 632.844 1427.75 631.168 1424.52 627.816C1421.31 624.465 1419.7 619.637 1419.7 613.332ZM1426.21 613.332C1426.21 618.113 1427.25 621.699 1429.33 624.09C1431.42 626.457 1434.05 627.641 1437.21 627.641C1440.35 627.641 1442.96 626.445 1445.05 624.055C1447.14 621.664 1448.18 618.02 1448.18 613.121C1448.18 608.504 1447.12 605.012 1445.01 602.645C1442.93 600.254 1440.33 599.059 1437.21 599.059C1434.05 599.059 1431.42 600.242 1429.33 602.609C1427.25 604.977 1426.21 608.551 1426.21 613.332ZM1485.78 618.324L1492 619.133C1491.32 623.422 1489.58 626.785 1486.76 629.223C1483.97 631.637 1480.54 632.844 1476.46 632.844C1471.35 632.844 1467.24 631.18 1464.12 627.852C1461.03 624.5 1459.48 619.707 1459.48 613.473C1459.48 609.441 1460.15 605.914 1461.49 602.891C1462.82 599.867 1464.85 597.605 1467.57 596.105C1470.31 594.582 1473.29 593.82 1476.5 593.82C1480.55 593.82 1483.87 594.852 1486.45 596.914C1489.02 598.953 1490.68 601.859 1491.4 605.633L1485.25 606.582C1484.67 604.074 1483.62 602.188 1482.12 600.922C1480.65 599.656 1478.85 599.023 1476.74 599.023C1473.56 599.023 1470.97 600.172 1468.97 602.469C1466.98 604.742 1465.99 608.352 1465.99 613.297C1465.99 618.312 1466.95 621.957 1468.87 624.23C1470.79 626.504 1473.3 627.641 1476.39 627.641C1478.88 627.641 1480.95 626.879 1482.61 625.355C1484.28 623.832 1485.33 621.488 1485.78 618.324ZM1521.16 632V626.516C1518.26 630.734 1514.31 632.844 1509.32 632.844C1507.11 632.844 1505.05 632.422 1503.13 631.578C1501.23 630.734 1499.81 629.68 1498.88 628.414C1497.96 627.125 1497.32 625.555 1496.94 623.703C1496.68 622.461 1496.55 620.492 1496.55 617.797V594.664H1502.88V615.371C1502.88 618.676 1503.01 620.902 1503.27 622.051C1503.67 623.715 1504.51 625.027 1505.8 625.988C1507.09 626.926 1508.68 627.395 1510.58 627.395C1512.48 627.395 1514.26 626.914 1515.93 625.953C1517.59 624.969 1518.76 623.645 1519.44 621.98C1520.14 620.293 1520.5 617.855 1520.5 614.668V594.664H1526.82V632H1521.16ZM1536.05 632V594.664H1541.71V599.902C1542.89 598.074 1544.44 596.609 1546.39 595.508C1548.33 594.383 1550.55 593.82 1553.03 593.82C1555.8 593.82 1558.06 594.395 1559.82 595.543C1561.6 596.691 1562.85 598.297 1563.58 600.359C1566.53 596 1570.38 593.82 1575.11 593.82C1578.82 593.82 1581.66 594.852 1583.66 596.914C1585.65 598.953 1586.64 602.105 1586.64 606.371V632H1580.35V608.48C1580.35 605.949 1580.14 604.133 1579.72 603.031C1579.32 601.906 1578.58 601.004 1577.5 600.324C1576.42 599.645 1575.16 599.305 1573.71 599.305C1571.08 599.305 1568.9 600.184 1567.17 601.941C1565.43 603.676 1564.57 606.465 1564.57 610.309V632H1558.24V607.742C1558.24 604.93 1557.72 602.82 1556.69 601.414C1555.66 600.008 1553.97 599.305 1551.63 599.305C1549.85 599.305 1548.19 599.773 1546.67 600.711C1545.17 601.648 1544.08 603.02 1543.4 604.824C1542.72 606.629 1542.38 609.23 1542.38 612.629V632H1536.05ZM1620.87 619.977L1627.41 620.785C1626.38 624.605 1624.47 627.57 1621.68 629.68C1618.89 631.789 1615.33 632.844 1610.99 632.844C1605.53 632.844 1601.19 631.168 1597.98 627.816C1594.79 624.441 1593.2 619.719 1593.2 613.648C1593.2 607.367 1594.82 602.492 1598.05 599.023C1601.29 595.555 1605.48 593.82 1610.64 593.82C1615.63 593.82 1619.71 595.52 1622.87 598.918C1626.04 602.316 1627.62 607.098 1627.62 613.262C1627.62 613.637 1627.61 614.199 1627.58 614.949H1599.74C1599.97 619.051 1601.13 622.191 1603.22 624.371C1605.31 626.551 1607.91 627.641 1611.02 627.641C1613.35 627.641 1615.33 627.031 1616.97 625.812C1618.61 624.594 1619.91 622.648 1620.87 619.977ZM1600.09 609.746H1620.94C1620.66 606.605 1619.86 604.25 1618.55 602.68C1616.53 600.242 1613.92 599.023 1610.71 599.023C1607.8 599.023 1605.35 599.996 1603.36 601.941C1601.39 603.887 1600.3 606.488 1600.09 609.746ZM1634.67 632V594.664H1640.36V599.973C1643.11 595.871 1647.07 593.82 1652.25 593.82C1654.5 593.82 1656.56 594.23 1658.43 595.051C1660.33 595.848 1661.75 596.902 1662.69 598.215C1663.63 599.527 1664.28 601.086 1664.66 602.891C1664.89 604.062 1665.01 606.113 1665.01 609.043V632H1658.68V609.289C1658.68 606.711 1658.43 604.789 1657.94 603.523C1657.45 602.234 1656.57 601.215 1655.3 600.465C1654.06 599.691 1652.6 599.305 1650.91 599.305C1648.22 599.305 1645.88 600.16 1643.91 601.871C1641.97 603.582 1641 606.828 1641 611.609V632H1634.67ZM1687.84 626.34L1688.76 631.93C1686.98 632.305 1685.38 632.492 1683.98 632.492C1681.68 632.492 1679.9 632.129 1678.63 631.402C1677.37 630.676 1676.48 629.727 1675.96 628.555C1675.44 627.359 1675.19 624.863 1675.19 621.066V599.586H1670.55V594.664H1675.19V585.418L1681.48 581.621V594.664H1687.84V599.586H1681.48V621.418C1681.48 623.223 1681.58 624.383 1681.8 624.898C1682.03 625.414 1682.39 625.824 1682.89 626.129C1683.4 626.434 1684.13 626.586 1685.07 626.586C1685.77 626.586 1686.69 626.504 1687.84 626.34ZM1717.71 627.395C1715.36 629.387 1713.1 630.793 1710.92 631.613C1708.77 632.434 1706.45 632.844 1703.96 632.844C1699.86 632.844 1696.71 631.848 1694.51 629.855C1692.3 627.84 1691.2 625.273 1691.2 622.156C1691.2 620.328 1691.61 618.664 1692.43 617.164C1693.28 615.641 1694.36 614.422 1695.7 613.508C1697.06 612.594 1698.58 611.902 1700.27 611.434C1701.51 611.105 1703.39 610.789 1705.9 610.484C1711.01 609.875 1714.77 609.148 1717.18 608.305C1717.2 607.438 1717.22 606.887 1717.22 606.652C1717.22 604.074 1716.62 602.258 1715.42 601.203C1713.81 599.773 1711.4 599.059 1708.22 599.059C1705.24 599.059 1703.04 599.586 1701.61 600.641C1700.2 601.672 1699.16 603.512 1698.48 606.16L1692.29 605.316C1692.85 602.668 1693.78 600.535 1695.07 598.918C1696.36 597.277 1698.22 596.023 1700.66 595.156C1703.1 594.266 1705.92 593.82 1709.13 593.82C1712.32 593.82 1714.91 594.195 1716.9 594.945C1718.89 595.695 1720.36 596.645 1721.29 597.793C1722.23 598.918 1722.89 600.348 1723.26 602.082C1723.47 603.16 1723.58 605.105 1723.58 607.918V616.355C1723.58 622.238 1723.71 625.965 1723.97 627.535C1724.25 629.082 1724.79 630.57 1725.58 632H1718.97C1718.32 630.688 1717.9 629.152 1717.71 627.395ZM1717.18 613.262C1714.88 614.199 1711.44 614.996 1706.85 615.652C1704.24 616.027 1702.4 616.449 1701.33 616.918C1700.25 617.387 1699.42 618.078 1698.83 618.992C1698.24 619.883 1697.95 620.879 1697.95 621.98C1697.95 623.668 1698.58 625.074 1699.85 626.199C1701.14 627.324 1703.01 627.887 1705.47 627.887C1707.91 627.887 1710.08 627.359 1711.98 626.305C1713.88 625.227 1715.27 623.762 1716.16 621.91C1716.84 620.48 1717.18 618.371 1717.18 615.582V613.262ZM1746.52 626.34L1747.43 631.93C1745.65 632.305 1744.06 632.492 1742.65 632.492C1740.36 632.492 1738.57 632.129 1737.31 631.402C1736.04 630.676 1735.15 629.727 1734.64 628.555C1734.12 627.359 1733.86 624.863 1733.86 621.066V599.586H1729.22V594.664H1733.86V585.418L1740.16 581.621V594.664H1746.52V599.586H1740.16V621.418C1740.16 623.223 1740.26 624.383 1740.47 624.898C1740.71 625.414 1741.07 625.824 1741.56 626.129C1742.08 626.434 1742.81 626.586 1743.74 626.586C1744.45 626.586 1745.37 626.504 1746.52 626.34ZM1752.06 587.738V580.461H1758.39V587.738H1752.06ZM1752.06 632V594.664H1758.39V632H1752.06ZM1764.98 613.332C1764.98 606.418 1766.9 601.297 1770.74 597.969C1773.95 595.203 1777.87 593.82 1782.49 593.82C1787.62 593.82 1791.81 595.508 1795.07 598.883C1798.33 602.234 1799.96 606.875 1799.96 612.805C1799.96 617.609 1799.23 621.395 1797.78 624.16C1796.35 626.902 1794.25 629.035 1791.49 630.559C1788.74 632.082 1785.74 632.844 1782.49 632.844C1777.26 632.844 1773.03 631.168 1769.79 627.816C1766.58 624.465 1764.98 619.637 1764.98 613.332ZM1771.48 613.332C1771.48 618.113 1772.53 621.699 1774.61 624.09C1776.7 626.457 1779.32 627.641 1782.49 627.641C1785.63 627.641 1788.24 626.445 1790.33 624.055C1792.41 621.664 1793.45 618.02 1793.45 613.121C1793.45 608.504 1792.4 605.012 1790.29 602.645C1788.2 600.254 1785.6 599.059 1782.49 599.059C1779.32 599.059 1776.7 600.242 1774.61 602.609C1772.53 604.977 1771.48 608.551 1771.48 613.332ZM1806.69 632V594.664H1812.39V599.973C1815.13 595.871 1819.09 593.82 1824.27 593.82C1826.52 593.82 1828.58 594.23 1830.46 595.051C1832.36 595.848 1833.77 596.902 1834.71 598.215C1835.65 599.527 1836.31 601.086 1836.68 602.891C1836.91 604.062 1837.03 606.113 1837.03 609.043V632H1830.7V609.289C1830.7 606.711 1830.46 604.789 1829.97 603.523C1829.47 602.234 1828.59 601.215 1827.33 600.465C1826.09 599.691 1824.62 599.305 1822.93 599.305C1820.24 599.305 1817.91 600.16 1815.94 601.871C1813.99 603.582 1813.02 606.828 1813.02 611.609V632H1806.69Z" fill="#14110F"/>
<rect width="165" height="165" transform="translate(470)" fill="#6060F8"/>
<rect x="515" y="43.125" width="15" height="15" fill="white"/>
<rect x="575" y="43.125" width="15" height="15" fill="white"/>
<rect x="545" y="88.125" width="15" height="15" fill="white"/>
<rect x="515" y="88.125" width="15" height="15" fill="white"/>
<rect x="575" y="88.125" width="15" height="15" fill="white"/>
<rect x="515" y="58.125" width="30" height="15" fill="white"/>
<rect x="500" y="103.125" width="45" height="15" fill="white"/>
<rect x="560" y="103.125" width="45" height="15" fill="white"/>
<rect x="515" y="73.125" width="75" height="15" fill="white"/>
<rect x="560" y="58.125" width="30" height="15" fill="white"/>
<rect x="701" width="165" height="165" rx="82.5" fill="#6060F8"/>
<rect x="746" y="43.125" width="15" height="15" fill="white"/>
<rect x="806" y="43.125" width="15" height="15" fill="white"/>
<rect x="776" y="88.125" width="15" height="15" fill="white"/>
<rect x="746" y="88.125" width="15" height="15" fill="white"/>
<rect x="806" y="88.125" width="15" height="15" fill="white"/>
<rect x="746" y="58.125" width="30" height="15" fill="white"/>
<rect x="731" y="103.125" width="45" height="15" fill="white"/>
<rect x="791" y="103.125" width="45" height="15" fill="white"/>
<rect x="746" y="73.125" width="75" height="15" fill="white"/>
<rect x="791" y="58.125" width="30" height="15" fill="white"/>
<rect width="165" height="165" transform="translate(470 245)" fill="#FA500F"/>
<rect x="515" y="288.125" width="15" height="15" fill="white"/>
<rect x="575" y="288.125" width="15" height="15" fill="white"/>
<rect x="545" y="333.125" width="15" height="15" fill="white"/>
<rect x="515" y="333.125" width="15" height="15" fill="white"/>
<rect x="575" y="333.125" width="15" height="15" fill="white"/>
<rect x="515" y="303.125" width="30" height="15" fill="white"/>
<rect x="500" y="348.125" width="45" height="15" fill="white"/>
<rect x="560" y="348.125" width="45" height="15" fill="white"/>
<rect x="515" y="318.125" width="75" height="15" fill="white"/>
<rect x="560" y="303.125" width="30" height="15" fill="white"/>
<rect x="701" y="245" width="165" height="165" rx="82.5" fill="#FA500F"/>
<rect x="746" y="288.125" width="15" height="15" fill="white"/>
<rect x="806" y="288.125" width="15" height="15" fill="white"/>
<rect x="776" y="333.125" width="15" height="15" fill="white"/>
<rect x="746" y="333.125" width="15" height="15" fill="white"/>
<rect x="806" y="333.125" width="15" height="15" fill="white"/>
<rect x="746" y="303.125" width="30" height="15" fill="white"/>
<rect x="731" y="348.125" width="45" height="15" fill="white"/>
<rect x="791" y="348.125" width="45" height="15" fill="white"/>
<rect x="746" y="318.125" width="75" height="15" fill="white"/>
<rect x="791" y="303.125" width="30" height="15" fill="white"/>
<rect width="165" height="165" transform="translate(470 971)" fill="#FF8205"/>
<rect x="515" y="1014.12" width="15" height="15" fill="white"/>
<rect x="575" y="1014.12" width="15" height="15" fill="white"/>
<rect x="545" y="1059.12" width="15" height="15" fill="white"/>
<rect x="515" y="1059.12" width="15" height="15" fill="white"/>
<rect x="575" y="1059.12" width="15" height="15" fill="white"/>
<rect x="515" y="1029.12" width="30" height="15" fill="white"/>
<rect x="500" y="1074.12" width="45" height="15" fill="white"/>
<rect x="560" y="1074.12" width="45" height="15" fill="white"/>
<rect x="515" y="1044.12" width="75" height="15" fill="white"/>
<rect x="560" y="1029.12" width="30" height="15" fill="white"/>
<rect x="701" y="971" width="165" height="165" rx="82.5" fill="#FF8205"/>
<rect x="746" y="1014.12" width="15" height="15" fill="white"/>
<rect x="806" y="1014.12" width="15" height="15" fill="white"/>
<rect x="776" y="1059.12" width="15" height="15" fill="white"/>
<rect x="746" y="1059.12" width="15" height="15" fill="white"/>
<rect x="806" y="1059.12" width="15" height="15" fill="white"/>
<rect x="746" y="1029.12" width="30" height="15" fill="white"/>
<rect x="731" y="1074.12" width="45" height="15" fill="white"/>
<rect x="791" y="1074.12" width="45" height="15" fill="white"/>
<rect x="746" y="1044.12" width="75" height="15" fill="white"/>
<rect x="791" y="1029.12" width="30" height="15" fill="white"/>
<rect width="165" height="165" transform="translate(470 487)" fill="#EAEAEA"/>
<rect x="515" y="530.125" width="15" height="15" fill="#606060"/>
<rect x="575" y="530.125" width="15" height="15" fill="#606060"/>
<rect x="545" y="575.125" width="15" height="15" fill="#606060"/>
<rect x="515" y="575.125" width="15" height="15" fill="#606060"/>
<rect x="575" y="575.125" width="15" height="15" fill="#606060"/>
<rect x="515" y="545.125" width="30" height="15" fill="#606060"/>
<rect x="500" y="590.125" width="45" height="15" fill="#606060"/>
<rect x="560" y="590.125" width="45" height="15" fill="#606060"/>
<rect x="515" y="560.125" width="75" height="15" fill="#606060"/>
<rect x="560" y="545.125" width="30" height="15" fill="#606060"/>
<rect x="701" y="487" width="165" height="165" rx="82.5" fill="#EAEAEA"/>
<rect x="746" y="530.125" width="15" height="15" fill="#606060"/>
<rect x="806" y="530.125" width="15" height="15" fill="#606060"/>
<rect x="776" y="575.125" width="15" height="15" fill="#606060"/>
<rect x="746" y="575.125" width="15" height="15" fill="#606060"/>
<rect x="806" y="575.125" width="15" height="15" fill="#606060"/>
<rect x="746" y="545.125" width="30" height="15" fill="#606060"/>
<rect x="731" y="590.125" width="45" height="15" fill="#606060"/>
<rect x="791" y="590.125" width="45" height="15" fill="#606060"/>
<rect x="746" y="560.125" width="75" height="15" fill="#606060"/>
<rect x="791" y="545.125" width="30" height="15" fill="#606060"/>
<rect width="165" height="165" transform="translate(470 729)" fill="#14110F"/>
<path d="M530.14 773.105H515.234V786.521H530.14V773.105Z" fill="#FFD700"/>
<path d="M589.764 773.105H574.858V786.521H589.764V773.105Z" fill="#FFD700"/>
<path d="M559.952 817.823H545.046V831.239H559.952V817.823Z" fill="#FA500F"/>
<path d="M530.14 817.823H515.234V831.239H530.14V817.823Z" fill="#FA500F"/>
<path d="M589.764 817.823H574.858V831.239H589.764V817.823Z" fill="#FA500F"/>
<path d="M545.046 788.012H515.234V801.427H545.046V788.012Z" fill="#FFAF00"/>
<path d="M545.047 832.729H500.33V846.145H545.047V832.729Z" fill="#E92700"/>
<path d="M604.671 832.729H559.953V846.145H604.671V832.729Z" fill="#E92700"/>
<path d="M589.764 802.917H515.234V816.333H589.764V802.917Z" fill="#FF8205"/>
<path d="M589.765 788.012H559.953V801.427H589.765V788.012Z" fill="#FFAF00"/>
<rect x="701" y="729" width="165" height="165" rx="82.5" fill="#14110F"/>
<path d="M761.14 773.105H746.234V786.521H761.14V773.105Z" fill="#FFD700"/>
<path d="M820.764 773.105H805.858V786.521H820.764V773.105Z" fill="#FFD700"/>
<path d="M790.952 817.823H776.046V831.239H790.952V817.823Z" fill="#FA500F"/>
<path d="M761.14 817.823H746.234V831.239H761.14V817.823Z" fill="#FA500F"/>
<path d="M820.764 817.823H805.858V831.239H820.764V817.823Z" fill="#FA500F"/>
<path d="M776.046 788.012H746.234V801.427H776.046V788.012Z" fill="#FFAF00"/>
<path d="M776.047 832.729H731.33V846.145H776.047V832.729Z" fill="#E92700"/>
<path d="M835.671 832.729H790.953V846.145H835.671V832.729Z" fill="#E92700"/>
<path d="M820.764 802.917H746.234V816.333H820.764V802.917Z" fill="#FF8205"/>
<path d="M820.765 788.012H790.953V801.427H820.765V788.012Z" fill="#FFAF00"/>
</svg>
