<svg width="1228" height="1386" viewBox="0 0 1228 1386" fill="none" xmlns="http://www.w3.org/2000/svg">
<rect x="947.9" y="557.45" width="239.4" height="19.95" fill="#D7D5CD"/>
<rect x="947.9" y="357.95" width="239.4" height="199.5" fill="white"/>
<rect width="19.95" height="159.6" transform="matrix(-1 0 0 1 947.9 377.9)" fill="white"/>
<rect width="19.95" height="159.6" transform="matrix(-1 0 0 1 1207.25 377.9)" fill="#EFEDE5"/>
<rect x="927.95" y="357.95" width="19.95" height="19.95" fill="#D7D5CD"/>
<rect width="19.95" height="19.95" transform="matrix(-1 0 0 1 1207.25 357.95)" fill="#D7D5CD"/>
<rect x="927.95" y="537.5" width="19.95" height="19.95" fill="#D7D5CD"/>
<rect x="1007.75" y="577.4" width="19.95" height="19.95" fill="#D7D5CD"/>
<rect x="1007.75" y="597.35" width="19.95" height="19.95" fill="#D7D5CD"/>
<rect x="1007.75" y="617.3" width="19.95" height="19.95" fill="#D7D5CD"/>
<rect x="1027.7" y="597.35" width="19.95" height="19.95" fill="#D7D5CD"/>
<rect x="1047.65" y="577.4" width="19.95" height="19.95" fill="#D7D5CD"/>
<rect x="1027.7" y="577.4" width="19.95" height="19.95" fill="#EFEDE5"/>
<rect width="19.95" height="19.95" transform="matrix(-1 0 0 1 1207.25 537.5)" fill="#D7D5CD"/>
<rect x="908" y="377.9" width="19.95" height="159.6" fill="#D7D5CD"/>
<rect x="1207.25" y="377.9" width="19.95" height="159.6" fill="#D7D5CD"/>
<rect x="1027.7" y="557.45" width="39.9" height="19.95" fill="#F5F5F5"/>
<rect x="947.9" y="338" width="239.4" height="19.95" fill="#D7D5CD"/>
<rect x="1047.65" y="557.45" width="19.95" height="19.95" fill="#EFEDE5"/>
<rect x="1067.83" y="537.5" width="119.7" height="19.95" fill="#EFEDE5"/>
<rect x="947.9" y="537.5" width="79.8" height="19.95" fill="#EFEDE5"/>
<path d="M1026.95 394.312H1004.26V414.73H1026.95V394.312Z" fill="#FFD700"/>
<path d="M1117.69 394.312H1095V414.73H1117.69V394.312Z" fill="#FFD700"/>
<path d="M1072.32 462.37H1049.63V482.787H1072.32V462.37Z" fill="#FA500F"/>
<path d="M1026.95 462.37H1004.26V482.787H1026.95V462.37Z" fill="#FA500F"/>
<path d="M1117.69 462.37H1095V482.787H1117.69V462.37Z" fill="#FA500F"/>
<path d="M1049.63 416.999H1004.26V437.416H1049.63V416.999Z" fill="#FFAF00"/>
<path d="M1049.63 485.055H981.577V505.472H1049.63V485.055Z" fill="#E92700"/>
<path d="M1140.38 485.055H1072.32V505.472H1140.38V485.055Z" fill="#E92700"/>
<path d="M1117.69 439.684H1004.26V460.101H1117.69V439.684Z" fill="#FF8205"/>
<path d="M1117.69 416.999H1072.32V437.416H1117.69V416.999Z" fill="#FFAF00"/>
<path d="M769.6 1185.19H735.792V1219H769.6V1185.19Z" fill="#FF8205"/>
<path d="M735.808 1252.8H702V1286.61H735.808V1252.8Z" fill="#E92700"/>
<path d="M871.024 1252.81H837.216V1286.61H871.024V1252.81Z" fill="#E92700"/>
<path d="M769.6 1219H735.792V1252.81H769.6V1219Z" fill="#FA500F"/>
<path d="M871.026 1185.19H837.218V1219H871.026V1185.19Z" fill="#FF8205"/>
<path d="M803.405 1185.19H769.597V1219H803.405V1185.19Z" fill="#FF8205"/>
<path d="M769.598 1252.8H735.79V1286.61H769.598V1252.8Z" fill="#E92700"/>
<path d="M904.828 1252.81H871.021V1286.61H904.828V1252.81Z" fill="#E92700"/>
<path d="M904.827 1185.19H871.02V1219H904.827V1185.19Z" fill="#FF8205"/>
<path d="M904.827 1219H871.02V1252.81H904.827V1219Z" fill="#FA500F"/>
<path d="M837.22 1185.21H803.412V1219.02H837.22V1185.21Z" fill="#FF8205"/>
<path d="M803.405 1252.81H769.597V1286.61H803.405V1252.81Z" fill="#E92700"/>
<path d="M938.637 1252.82H904.829V1286.63H938.637V1252.82Z" fill="#E92700"/>
<path d="M837.22 1219H803.412V1252.81H837.22V1219Z" fill="#FA500F"/>
<path d="M965 1151.62H735.586V1185.32H965V1151.62Z" fill="#202020"/>
<path d="M904.549 1117.44H735.586V1151.62H904.549V1117.44Z" fill="#202020"/>
<path d="M904.823 1083.8H735.805V1117.61H904.823V1083.8Z" fill="#202020"/>
<path d="M871.02 1050H769.608V1083.8H871.02V1050Z" fill="#202020"/>
<path d="M888.468 1118.25H868.255V1138.47H888.468V1118.25Z" fill="white"/>
<path d="M752.461 1118.25H772.674V1138.47H752.461V1118.25Z" fill="white"/>
<path d="M868.258 1098.04H848.045V1118.26H868.258V1098.04Z" fill="white"/>
<path d="M772.672 1098.04H792.885V1118.26H772.672V1098.04Z" fill="white"/>
<path d="M868.26 1138.46H848.047V1158.68H868.26V1138.46Z" fill="white"/>
<path d="M772.672 1138.47H792.885V1158.68H772.672V1138.47Z" fill="white"/>
<path d="M838.677 1089.69L819.04 1170.95H799.039L818.676 1089.69H838.677Z" fill="white"/>
<path d="M804.284 568.5H697.031V587.75H822.156V568.5H804.284Z" fill="#C80700"/>
<path d="M811.503 299H646.499V318.25H838.999V299H811.503Z" fill="#C80700"/>
<path d="M665.751 568.5H646.501V587.75H665.751V568.5Z" fill="#C80700"/>
<path d="M685.001 568.5H665.751V587.75H685.001V568.5Z" fill="#C80700"/>
<path d="M839 568.5H822.156V587.75H839V568.5Z" fill="#C80700"/>
<path d="M646.501 549.25H627.251V568.5H646.501V549.25Z" fill="#730C11"/>
<path d="M839.001 530H819.751V549.25H839.001V530Z" fill="#202020"/>
<path d="M627.25 337.5H608V549.25H627.25V337.5Z" fill="#730C11"/>
<path d="M858.251 318.25H839.001V568.5H858.251V318.25Z" fill="#C80700"/>
<path d="M820.823 318.25H675.375V517.969H839V318.25H820.823Z" fill="#FA500F"/>
<path d="M646.502 332.513V517.969H665.752V318.25H646.502V332.513Z" fill="#FA500F"/>
<path d="M685 555.658V607H704.25V530H685V555.658Z" fill="#E10500"/>
<path d="M665.749 530H819.749V510.75L646.499 510.75V549.25L665.749 549.25V530Z" fill="#828282"/>
<path d="M737.246 549.25H819.751V530H704.251V549.25H737.246Z" fill="white"/>
<path d="M685.001 530H665.751V549.25H685.001V530Z" fill="white"/>
<path d="M839.001 510.75H819.751V530H839.001V510.75Z" fill="#202020"/>
<path d="M627.251 532.407V549.25H646.501V515.563H627.251V532.407Z" fill="#C80700"/>
<path d="M656.126 331.998V510.75H675.376V318.25H656.126V331.998Z" fill="#C80700"/>
<path d="M684.999 549.25H646.499V568.5H684.999V549.25Z" fill="#FA500F"/>
<path d="M839.003 549.25H704.253V568.5H839.003V549.25Z" fill="#FA500F"/>
<path d="M646.501 504.09V337.5H627.251V517.969H646.501V504.09Z" fill="#C80700"/>
<rect x="780.168" y="340.083" width="16.4891" height="16.4891" fill="#F1F1F1"/>
<rect x="796.658" y="340.083" width="16.4891" height="16.4891" fill="#F1F1F1"/>
<rect x="763.68" y="340.083" width="16.4891" height="16.4891" fill="#F1F1F1"/>
<rect x="763.68" y="389.55" width="16.4891" height="16.4891" fill="#F1F1F1"/>
<rect x="796.658" y="389.55" width="16.4891" height="16.4891" fill="#F1F1F1"/>
<rect x="763.68" y="356.572" width="16.4891" height="16.4891" fill="#F1F1F1"/>
<rect x="796.658" y="356.572" width="16.4891" height="16.4891" fill="#F1F1F1"/>
<rect x="763.68" y="373.061" width="16.4891" height="16.4891" fill="#F1F1F1"/>
<rect x="796.658" y="373.061" width="16.4891" height="16.4891" fill="#F1F1F1"/>
<rect x="780.168" y="389.55" width="16.4891" height="16.4891" fill="#F1F1F1"/>
<path d="M646.501 318.251H627.251V337.501H646.501V318.251Z" fill="#730C11"/>
<rect x="719.71" y="422.529" width="16.4891" height="16.4891" fill="#F1F1F1"/>
<rect x="769.176" y="422.529" width="16.4891" height="16.4891" fill="#F1F1F1"/>
<rect x="736.198" y="422.529" width="16.4891" height="16.4891" fill="#F1F1F1"/>
<rect x="703.219" y="422.529" width="16.4891" height="16.4891" fill="#F1F1F1"/>
<rect x="703.219" y="471.996" width="16.4891" height="16.4891" fill="#F1F1F1"/>
<rect x="736.198" y="471.996" width="16.4891" height="16.4891" fill="#F1F1F1"/>
<rect x="769.176" y="471.996" width="16.4891" height="16.4891" fill="#F1F1F1"/>
<rect x="802.155" y="471.996" width="16.4891" height="16.4891" fill="#F1F1F1"/>
<rect x="785.665" y="422.529" width="16.4891" height="16.4891" fill="#F1F1F1"/>
<rect x="703.219" y="439.018" width="16.4891" height="16.4891" fill="#F1F1F1"/>
<rect x="736.198" y="439.018" width="16.4891" height="16.4891" fill="#F1F1F1"/>
<rect x="785.665" y="439.018" width="16.4891" height="16.4891" fill="#F1F1F1"/>
<rect x="703.219" y="455.506" width="16.4891" height="16.4891" fill="#F1F1F1"/>
<rect x="736.198" y="455.506" width="16.4891" height="16.4891" fill="#F1F1F1"/>
<rect x="785.665" y="455.506" width="16.4891" height="16.4891" fill="#F1F1F1"/>
<rect x="719.71" y="471.996" width="16.4891" height="16.4891" fill="#F1F1F1"/>
<rect x="785.665" y="471.996" width="16.4891" height="16.4891" fill="#F1F1F1"/>
<rect x="697.723" y="340.083" width="16.4891" height="16.4891" fill="#F1F1F1"/>
<rect x="697.723" y="389.55" width="16.4891" height="16.4891" fill="#F1F1F1"/>
<rect x="730.701" y="389.55" width="16.4891" height="16.4891" fill="#F1F1F1"/>
<rect x="714.213" y="340.083" width="16.4891" height="16.4891" fill="#F1F1F1"/>
<rect x="714.213" y="356.572" width="16.4891" height="16.4891" fill="#F1F1F1"/>
<rect x="714.213" y="373.061" width="16.4891" height="16.4891" fill="#F1F1F1"/>
<rect x="714.213" y="389.55" width="16.4891" height="16.4891" fill="#F1F1F1"/>
<rect x="80.9414" y="671" width="242.824" height="222.588" fill="#F5F5F5"/>
<rect x="101.177" y="691.235" width="202.353" height="182.118" fill="#3C3B41"/>
<rect x="101.177" y="691.235" width="20.2353" height="182.118" fill="#302E3B"/>
<rect width="202.353" height="20.2353" transform="matrix(1 0 0 -1 101.177 913.824)" fill="#D7D5CD"/>
<rect x="101.177" y="913.824" width="20.2353" height="20.2353" transform="rotate(180 101.177 913.824)" fill="#BBB9AF"/>
<rect width="242.824" height="60.7059" transform="matrix(1 0 0 -1 101.177 974.529)" fill="#F5F5F5"/>
<rect width="80.9412" height="20.2353" transform="matrix(1 0 0 -1 121.412 954.294)" fill="#EFEDE5"/>
<rect width="20.2353" height="20.2353" transform="matrix(1 0 0 -1 303.529 954.294)" fill="#EFEDE5"/>
<path d="M181.14 735.987H161.604V753.57H181.14V735.987Z" fill="#FFD700"/>
<path d="M259.289 735.987H239.752V753.57H259.289V735.987Z" fill="#FFD700"/>
<path d="M220.215 794.598H200.678V812.181H220.215V794.598Z" fill="#FA500F"/>
<path d="M181.14 794.598H161.604V812.181H181.14V794.598Z" fill="#FA500F"/>
<path d="M259.289 794.598H239.752V812.181H259.289V794.598Z" fill="#FA500F"/>
<path d="M200.677 755.524H161.604V773.107H200.677V755.524Z" fill="#FFAF00"/>
<path d="M200.679 814.135H142.068V831.718H200.679V814.135Z" fill="#E92700"/>
<path d="M278.827 814.135H220.216V831.718H278.827V814.135Z" fill="#E92700"/>
<path d="M259.288 775.061H161.604V792.644H259.288V775.061Z" fill="#FF8205"/>
<path d="M259.29 755.524H220.216V773.107H259.29V755.524Z" fill="#FFAF00"/>
<rect x="60.7061" y="691.235" width="20.2353" height="202.353" fill="#66331A"/>
<rect x="60.7061" y="671" width="20.2353" height="222.588" fill="#D7D5CD"/>
<rect x="20.2354" y="913.824" width="80.9412" height="60.7059" fill="#D7D5CD"/>
<rect y="913.824" width="20.2353" height="60.7059" fill="#BBB9AF"/>
<rect x="40.4707" y="691.235" width="20.2353" height="202.353" fill="#D7D5CD"/>
<rect x="20.2354" y="711.471" width="20.2353" height="161.882" fill="#BBB9AF"/>
<rect y="751.941" width="20.2353" height="80.9412" fill="#BBB9AF"/>
<rect x="7.4054" y="0.405404" width="896.189" height="235.91" rx="12.5675" fill="#13110E" stroke="#FFF0C3" stroke-width="0.810809"/>
<path d="M58.4863 177.046H46.2646V166.232H58.4863V177.046ZM107.372 177.046H95.1504V166.232H107.372V177.046ZM156.259 177.046H144.037V166.232H156.259V177.046ZM184.612 177.046H172.391V166.232H184.612V177.046ZM261.853 177.046H212.966V166.232H261.853V177.046ZM339.093 177.046H314.649V166.232H339.093V177.046ZM367.446 177.046H355.225V166.232H367.446V177.046ZM459.353 177.046H422.688V166.232H459.353V177.046ZM483.795 177.046H471.574V166.232H483.795V177.046ZM524.371 177.046H512.149V166.232H524.371V177.046ZM620.188 177.046H607.966V166.232H620.188V177.046ZM685.206 177.046H672.984V166.232H685.206V177.046ZM713.561 177.046H701.339V166.232H713.561V177.046ZM750.225 177.046H725.781V166.232H750.225V177.046ZM851.908 177.046H815.243V166.232H851.908V177.046ZM58.4863 164.614H46.2646V153.978H58.4863V164.614ZM107.372 164.614H95.1504V153.978H107.372V164.614ZM156.259 164.614H144.037V153.978H156.259V164.614ZM184.612 164.614H172.391V153.978H184.612V164.614ZM212.966 164.614H200.745V153.978H212.966V164.614ZM274.074 164.614H261.853V153.978H274.074V164.614ZM314.649 164.614H302.428V153.978H314.649V164.614ZM367.446 164.614H355.225V153.978H367.446V164.614ZM422.688 164.614H410.466V153.978H422.688V164.614ZM483.795 164.614H459.353V153.978H483.795V164.614ZM512.149 164.614H499.928V153.978H512.149V164.614ZM620.188 164.614H607.966V153.978H620.188V164.614ZM685.206 164.614H672.984V153.978H685.206V164.614ZM725.781 164.614H701.339V153.978H725.781V164.614ZM762.446 164.614H750.225V153.978H762.446V164.614ZM815.243 164.614H803.021V153.978H815.243V164.614ZM864.129 164.614H851.908V153.978H864.129V164.614ZM58.4863 152.359H46.2646V141.722H58.4863V152.359ZM95.1504 152.359H82.9297V141.722H95.1504V152.359ZM119.594 152.359H107.372V141.722H119.594V152.359ZM156.259 152.359H144.037V141.722H156.259V152.359ZM184.612 152.359H172.391V141.722H184.612V152.359ZM274.074 152.359H261.853V141.722H274.074V152.359ZM314.649 152.359H302.428V141.722H314.649V152.359ZM367.446 152.359H355.225V141.722H367.446V152.359ZM422.688 152.359H410.466V141.722H422.688V152.359ZM483.795 152.359H471.574V141.722H483.795V152.359ZM512.149 152.359H499.928V141.722H512.149V152.359ZM607.966 152.359H595.744V141.722H607.966V152.359ZM632.409 152.359H620.188V141.722H632.409V152.359ZM685.206 152.359H672.984V141.722H685.206V152.359ZM713.561 152.359H701.339V141.722H713.561V152.359ZM774.668 152.359H762.446V141.722H774.668V152.359ZM803.021 152.359H790.8V141.722H803.021V152.359ZM58.4863 140.104H46.2646V129.467H58.4863V140.104ZM95.1504 140.104H82.9297V129.467H95.1504V140.104ZM119.594 140.104H107.372V129.467H119.594V140.104ZM156.259 140.104H144.037V129.467H156.259V140.104ZM184.612 140.104H172.391V129.467H184.612V140.104ZM261.853 140.104H212.966V129.467H261.853V140.104ZM314.649 140.104H302.428V129.467H314.649V140.104ZM367.446 140.104H355.225V129.467H367.446V140.104ZM483.795 140.104H422.688V129.467H483.795V140.104ZM512.149 140.104H499.928V129.467H512.149V140.104ZM607.966 140.104H595.744V129.467H607.966V140.104ZM632.409 140.104H620.188V129.467H632.409V140.104ZM685.206 140.104H672.984V129.467H685.206V140.104ZM713.561 140.104H701.339V129.467H713.561V140.104ZM774.668 140.104H762.446V129.467H774.668V140.104ZM864.129 140.104H790.8V129.467H864.129V140.104ZM58.4863 127.849H46.2646V116.446H58.4863V127.849ZM82.9297 127.849H70.708V116.446H82.9297V127.849ZM131.815 127.849H119.594V116.446H131.815V127.849ZM156.259 127.849H144.037V116.446H156.259V127.849ZM184.612 127.849H172.391V116.446H184.612V127.849ZM212.966 127.849H200.745V116.446H212.966V127.849ZM314.649 127.849H302.428V116.446H314.649V127.849ZM367.446 127.849H355.225V116.446H367.446V127.849ZM483.795 127.849H471.574V116.446H483.795V127.849ZM512.149 127.849H499.928V116.446H512.149V127.849ZM595.744 127.849H583.523V116.446H595.744V127.849ZM644.631 127.849H632.409V116.446H644.631V127.849ZM685.206 127.849H672.984V116.446H685.206V127.849ZM713.561 127.849H701.339V116.446H713.561V127.849ZM774.668 127.849H762.446V116.446H774.668V127.849ZM803.021 127.849H790.8V116.446H803.021V127.849ZM864.129 127.849H851.908V116.446H864.129V127.849ZM58.4863 114.828H46.2646V104.19H58.4863V114.828ZM82.9297 114.828H70.708V104.19H82.9297V114.828ZM131.815 114.828H119.594V104.19H131.815V114.828ZM156.259 114.828H144.037V104.19H156.259V114.828ZM184.612 114.828H172.391V104.19H184.612V114.828ZM212.966 114.828H200.745V104.19H212.966V114.828ZM274.074 114.828H261.853V104.19H274.074V114.828ZM314.649 114.828H302.428V104.19H314.649V114.828ZM379.668 114.828H355.225V104.19H379.668V114.828ZM434.909 114.828H422.688V104.19H434.909V114.828ZM483.795 114.828H471.574V104.19H483.795V114.828ZM512.149 114.828H499.928V104.19H512.149V114.828ZM595.744 114.828H583.523V104.19H595.744V114.828ZM644.631 114.828H632.409V104.19H644.631V114.828ZM685.206 114.828H672.984V104.19H685.206V114.828ZM725.781 114.828H701.339V104.19H725.781V114.828ZM762.446 114.828H750.225V104.19H762.446V114.828ZM815.243 114.828H803.021V104.19H815.243V114.828ZM851.908 114.828H839.687V104.19H851.908V114.828ZM70.708 102.572H46.2646V91.9355H70.708V102.572ZM156.259 102.572H131.815V91.9355H156.259V102.572ZM184.612 102.572H172.391V91.9355H184.612V102.572ZM261.853 102.572H212.966V91.9355H261.853V102.572ZM339.093 102.572H290.206V91.9355H339.093V102.572ZM367.446 102.572H355.225V91.9355H367.446V102.572ZM404.111 102.572H379.668V91.9355H404.111V102.572ZM471.574 102.572H434.909V91.9355H471.574V102.572ZM512.149 102.572H499.928V91.9355H512.149V102.572ZM583.523 102.572H571.302V91.9355H583.523V102.572ZM656.853 102.572H644.631V91.9355H656.853V102.572ZM685.206 102.572H672.984V91.9355H685.206V102.572ZM713.561 102.572H701.339V91.9355H713.561V102.572ZM750.225 102.572H725.781V91.9355H750.225V102.572ZM839.687 102.572H815.243V91.9355H839.687V102.572ZM70.708 90.3174H46.2646V79.6807H70.708V90.3174ZM156.259 90.3174H131.815V79.6807H156.259V90.3174ZM314.649 90.3174H302.428V79.6807H314.649V90.3174ZM512.149 90.3174H499.928V79.6807H512.149V90.3174ZM583.523 90.3174H571.302V79.6807H583.523V90.3174ZM656.853 90.3174H644.631V79.6807H656.853V90.3174ZM713.561 90.3174H701.339V79.6807H713.561V90.3174ZM58.4863 78.0625H46.2646V67.0518H58.4863V78.0625ZM156.259 78.0625H144.037V67.0518H156.259V78.0625ZM184.612 78.0625H172.391V67.0518H184.612V78.0625ZM314.649 78.0625H302.428V67.0518H314.649V78.0625ZM512.149 78.0625H499.928V67.0518H512.149V78.0625ZM583.523 78.0625H571.302V67.0518H583.523V78.0625ZM656.853 78.0625H644.631V67.0518H656.853V78.0625ZM685.206 78.0625H672.984V67.0518H685.206V78.0625ZM713.561 78.0625H701.339V67.0518H713.561V78.0625Z" fill="#FFF0C3"/>
<path d="M873.122 15.2979L885.693 27.869" stroke="#FFF0C3" stroke-width="1.32328"/>
<path d="M885.693 15.2979L873.122 27.869" stroke="#FFF0C3" stroke-width="1.32328"/>
<rect x="844.01" y="15.2979" width="13.2328" height="13.2328" rx="3.3082" stroke="#FFF0C3" stroke-width="1.32328"/>
<line x1="812.913" y1="21.914" x2="828.792" y2="21.914" stroke="#FFF0C3" stroke-width="1.32328"/>
<path d="M562.195 470.612H542.562V508.787H562.195V470.612Z" fill="black"/>
<rect x="6" y="567" width="555.776" height="24.0769" fill="#FA500F"/>
<rect x="6" y="579.002" width="556" height="13.5061" fill="#FF8205"/>
<rect x="6" y="591.034" width="555.776" height="14.0449" fill="#FFAF00"/>
<path d="M428.04 432.438H409.498V452.07H428.04V432.438Z" fill="#FFD800"/>
<path d="M447.125 412.807H389.865V432.439H466.214V412.807H447.125Z" fill="#FA500F"/>
<path d="M370.852 316.824V393.607H351.691V412.805H409.189V393.607H390.02V374.41H409.189V393.607H428.349V374.41H447.518V393.607H428.349V412.805H485.847V393.607H466.686V316.824H447.518V336.022H428.349V355.22H409.189V336.022H390.02V316.824H370.852Z" fill="black"/>
<path d="M542.559 452.07H524.018V470.612H542.559V452.07Z" fill="black"/>
<path d="M524.018 527.877V546.96H542.559V508.786H524.018V527.877Z" fill="black"/>
<path d="M428.332 432.438V451.605H409.201V432.438H390.062V509.099H370.923V547.425H313.515V566.593H524.019V547.425H504.88V528.266V470.772H485.741V432.438H428.332Z" fill="black"/>
<rect x="377.188" y="268" width="226.724" height="16.0513" transform="rotate(90 377.188 268)" fill="white"/>
<rect x="18.0352" y="268" width="343.096" height="228.731" fill="#F5F5F5"/>
<rect width="14.0449" height="36.1154" transform="matrix(-1 0 0 1 172.531 530.839)" fill="#FFAF5F"/>
<rect x="34.0898" y="268" width="226.724" height="16.0513" transform="rotate(90 34.0898 268)" fill="#EFEDE5"/>
<rect x="18.0352" y="480.68" width="343.096" height="16.0513" fill="#EFEDE5"/>
<rect x="222.688" y="418.481" width="12.0385" height="76.2436" transform="rotate(90 222.688 418.481)" fill="#D7D5CD"/>
<rect x="60.1729" y="548.896" width="196.628" height="18.0577" fill="#EFEDE5"/>
<rect x="110.33" y="496.731" width="88.2821" height="52.1667" fill="#EFEDE5"/>
<rect x="96.2832" y="536.859" width="88.2821" height="12.0385" fill="#EFEDE5"/>
<rect x="122.366" y="458.609" width="88.2821" height="38.1218" fill="#EFEDE5"/>
<rect x="134.404" y="430.519" width="88.2821" height="30.0962" fill="#EFEDE5"/>
<rect x="110.33" y="496.731" width="12.0385" height="40.1282" fill="#D7D5CD"/>
<rect x="122.366" y="454.596" width="12.0385" height="40.1282" fill="#D7D5CD"/>
<rect x="96.2832" y="536.859" width="12.0385" height="10.0321" fill="#D7D5CD"/>
<rect x="60.1729" y="548.896" width="12.0385" height="14.0449" fill="#D7D5CD"/>
<rect x="244.762" y="548.896" width="12.0385" height="14.0449" fill="white"/>
<rect x="232.724" y="548.896" width="12.0385" height="14.0449" fill="#D7D5CD"/>
<rect x="198.613" y="460.614" width="12.0385" height="36.1154" fill="white"/>
<rect x="186.577" y="460.614" width="12.0385" height="36.1154" fill="#D7D5CD"/>
<rect x="186.577" y="496.731" width="12.0385" height="52.1667" fill="white"/>
<rect x="174.532" y="496.731" width="12.0385" height="52.1667" fill="#D7D5CD"/>
<rect x="134.404" y="430.519" width="12.0385" height="28.0897" fill="#D7D5CD"/>
<rect x="210.651" y="430.519" width="12.0385" height="28.0897" fill="white"/>
<rect x="198.613" y="430.519" width="12.0385" height="28.0897" fill="#D7D5CD"/>
<path d="M166.417 317.96H150.959V331.873H166.417V317.96Z" fill="#FFD700"/>
<path d="M228.251 317.96H212.793V331.873H228.251V317.96Z" fill="#FFD700"/>
<path d="M197.334 364.336H181.876V378.248H197.334V364.336Z" fill="#FA500F"/>
<path d="M166.417 364.336H150.959V378.248H166.417V364.336Z" fill="#FA500F"/>
<path d="M228.251 364.336H212.793V378.248H228.251V364.336Z" fill="#FA500F"/>
<path d="M181.876 333.419H150.959V347.332H181.876V333.419Z" fill="#FFAF00"/>
<path d="M181.877 379.794H135.502V393.707H181.877V379.794Z" fill="#E92700"/>
<path d="M243.71 379.794H197.335V393.707H243.71V379.794Z" fill="#E92700"/>
<path d="M228.251 348.877H150.959V362.79H228.251V348.877Z" fill="#FF8205"/>
<path d="M228.252 333.419H197.335V347.332H228.252V333.419Z" fill="#FFAF00"/>
<rect x="34.0918" y="268.001" width="343.096" height="16.0513" fill="white"/>
<path d="M889.999 664.436H871.755V682.647H889.999V664.436Z" fill="black"/>
<path d="M871.756 700.892H853.512V719.103H871.756V700.892Z" fill="black"/>
<path d="M871.758 682.65H853.514V700.895H871.758V682.65Z" fill="black"/>
<path d="M871.756 664.436H853.512V682.647H871.756V664.436Z" fill="black"/>
<path d="M853.513 719.103H835.302V737.347H853.513V719.103Z" fill="black"/>
<path d="M853.513 700.891H835.302V719.102H853.513V700.891Z" fill="black"/>
<path d="M853.513 682.65H835.302V700.895H853.513V682.65Z" fill="black"/>
<path d="M853.513 664.436H835.302V682.647H853.513V664.436Z" fill="black"/>
<path d="M835.302 737.347H817.058V755.591H835.302V737.347Z" fill="black"/>
<path d="M835.302 719.103H817.058V737.347H835.302V719.103Z" fill="black"/>
<path d="M835.3 700.891H817.056V719.102H835.3V700.891Z" fill="black"/>
<path d="M835.302 682.65H817.058V700.895H835.302V682.65Z" fill="black"/>
<path d="M835.302 664.436H817.058V682.647H835.302V664.436Z" fill="black"/>
<path d="M817.057 737.347H798.846V755.591H817.057V737.347Z" fill="black"/>
<path d="M817.059 719.102H798.848V737.346H817.059V719.102Z" fill="black"/>
<path d="M817.059 700.891H798.848V719.102H817.059V700.891Z" fill="black"/>
<path d="M817.059 682.65H798.848V700.895H817.059V682.65Z" fill="black"/>
<path d="M817.057 664.436H798.846V682.647H817.057V664.436Z" fill="black"/>
<path d="M798.848 737.347H780.604V755.591H798.848V737.347Z" fill="black"/>
<path d="M798.848 719.101H780.604V737.345H798.848V719.101Z" fill="black"/>
<path d="M798.848 700.891H780.604V719.102H798.848V700.891Z" fill="white"/>
<path d="M798.846 682.65H780.602V700.895H798.846V682.65Z" fill="black"/>
<path d="M798.846 664.437H780.602V682.648H798.846V664.437Z" fill="black"/>
<path d="M780.605 737.347H762.36V755.591H780.605V737.347Z" fill="black"/>
<path d="M780.605 719.103H762.36V737.347H780.605V719.103Z" fill="white"/>
<path d="M780.605 700.891H762.36V719.102H780.605V700.891Z" fill="black"/>
<path d="M780.607 682.651H762.362V700.895H780.607V682.651Z" fill="white"/>
<path d="M780.607 664.436H762.362V682.647H780.607V664.436Z" fill="black"/>
<path d="M762.36 737.347H744.149V755.591H762.36V737.347Z" fill="black"/>
<path d="M762.36 719.102H744.149V737.346H762.36V719.102Z" fill="black"/>
<path d="M762.362 700.891H744.151V719.102H762.362V700.891Z" fill="white"/>
<path d="M762.36 682.65H744.149V700.895H762.36V682.65Z" fill="black"/>
<path d="M762.36 664.436H744.149V682.647H762.36V664.436Z" fill="black"/>
<path d="M744.149 719.103H725.904V737.347H744.149V719.103Z" fill="black"/>
<path d="M744.149 700.891H725.904V719.102H744.149V700.891Z" fill="black"/>
<path d="M744.151 682.65H725.907V700.895H744.151V682.65Z" fill="black"/>
<path d="M744.151 664.436H725.907V682.647H744.151V664.436Z" fill="black"/>
<path d="M725.908 682.65H707.697V700.895H725.908V682.65Z" fill="black"/>
<path d="M725.908 664.436H707.697V682.647H725.908V664.436Z" fill="black"/>
<path d="M707.698 664.436H689.454V682.647H707.698V664.436Z" fill="black"/>
<path d="M689.455 682.65H671.211V700.895H689.455V682.65Z" fill="black"/>
<path d="M689.456 664.436H671.212V682.647H689.456V664.436Z" fill="black"/>
<path d="M671.211 719.102H653V737.346H671.211V719.102Z" fill="black"/>
<path d="M671.211 700.891H653V719.102H671.211V700.891Z" fill="black"/>
<path d="M671.208 682.651H652.997V700.895H671.208V682.651Z" fill="black"/>
<path d="M671.208 664.436H652.997V682.647H671.208V664.436Z" fill="black"/>
<path d="M652.998 737.347H634.754V755.591H652.998V737.347Z" fill="black"/>
<path d="M652.998 719.102H634.754V737.346H652.998V719.102Z" fill="black"/>
<path d="M652.998 700.892H634.754V719.103H652.998V700.892Z" fill="black"/>
<path d="M653 682.65H634.756V700.895H653V682.65Z" fill="black"/>
<path d="M652.998 664.436H634.754V682.647H652.998V664.436Z" fill="black"/>
<path d="M634.754 737.347H616.543V755.591H634.754V737.347Z" fill="black"/>
<path d="M634.755 719.101H616.544V737.345H634.755V719.101Z" fill="black"/>
<path d="M634.755 700.891H616.544V719.102H634.755V700.891Z" fill="black"/>
<path d="M634.754 682.65H616.543V700.895H634.754V682.65Z" fill="black"/>
<path d="M634.754 664.437H616.543V682.648H634.754V664.437Z" fill="black"/>
<path d="M616.546 737.346H598.302V755.59H616.546V737.346Z" fill="black"/>
<path d="M616.546 719.102H598.302V737.346H616.546V719.102Z" fill="black"/>
<path d="M616.546 700.892H598.302V719.103H616.546V700.892Z" fill="black"/>
<path d="M616.546 682.651H598.302V700.895H616.546V682.651Z" fill="black"/>
<path d="M616.546 664.436H598.302V682.647H616.546V664.436Z" fill="black"/>
<path d="M598.303 737.347H580.059V755.591H598.303V737.347Z" fill="black"/>
<path d="M598.302 719.103H580.058V737.347H598.302V719.103Z" fill="black"/>
<path d="M598.302 700.891H580.058V719.102H598.302V700.891Z" fill="white"/>
<path d="M598.303 682.65H580.059V700.895H598.303V682.65Z" fill="black"/>
<path d="M598.303 664.437H580.059V682.648H598.303V664.437Z" fill="black"/>
<path d="M580.059 737.347H561.848V755.591H580.059V737.347Z" fill="black"/>
<path d="M580.061 719.103H561.85V737.347H580.061V719.103Z" fill="white"/>
<path d="M580.059 700.891H561.848V719.102H580.059V700.891Z" fill="black"/>
<path d="M580.059 682.65H561.848V700.895H580.059V682.65Z" fill="white"/>
<path d="M580.059 664.436H561.848V682.647H580.059V664.436Z" fill="black"/>
<path d="M561.85 737.347H543.605V755.591H561.85V737.347Z" fill="black"/>
<path d="M561.847 719.103H543.603V737.347H561.847V719.103Z" fill="black"/>
<path d="M561.85 700.891H543.605V719.102H561.85V700.891Z" fill="white"/>
<path d="M561.85 682.65H543.605V700.895H561.85V682.65Z" fill="black"/>
<path d="M561.85 664.436H543.605V682.647H561.85V664.436Z" fill="black"/>
<path d="M543.605 719.102H525.394V737.346H543.605V719.102Z" fill="black"/>
<path d="M543.602 700.891H525.391V719.102H543.602V700.891Z" fill="black"/>
<path d="M543.602 682.65H525.391V700.895H543.602V682.65Z" fill="black"/>
<path d="M543.602 664.436H525.391V682.647H543.602V664.436Z" fill="black"/>
<path d="M525.396 700.891H507.151V719.102H525.396V700.891Z" fill="black"/>
<path d="M525.396 682.65H507.151V700.895H525.396V682.65Z" fill="black"/>
<path d="M525.396 664.436H507.151V682.647H525.396V664.436Z" fill="black"/>
<path d="M507.151 664.436H488.906V682.647H507.151V664.436Z" fill="black"/>
<path d="M488.907 664.436H470.696V682.647H488.907V664.436Z" fill="black"/>
<path d="M470.698 664.437H452.454V682.648H470.698V664.437Z" fill="black"/>
<path d="M452.452 682.65H434.241V700.895H452.452V682.65Z" fill="black"/>
<path d="M452.452 664.436H434.241V682.647H452.452V664.436Z" fill="black"/>
<path d="M434.244 682.65H416V700.895H434.244V682.65Z" fill="black"/>
<rect x="452.161" y="869.919" width="16.1611" height="96.9667" fill="#010008"/>
<rect width="16.1611" height="96.9667" transform="matrix(-1 0 0 1 743.062 869.919)" fill="#010008"/>
<rect x="468.323" y="886.08" width="258.578" height="96.9667" fill="#010008"/>
<rect x="468.323" y="837.598" width="258.578" height="80.8056" fill="#3C3B41"/>
<rect x="452.161" y="837.598" width="16.1611" height="80.8056" fill="#302E3B"/>
<rect x="436" y="853.758" width="16.1611" height="96.9667" fill="#010008"/>
<rect width="16.1611" height="96.9667" transform="matrix(-1 0 0 1 759.224 853.758)" fill="#010008"/>
<rect x="726.901" y="837.598" width="16.1611" height="80.8056" fill="#2C2932"/>
<rect x="468.323" y="821.436" width="258.578" height="16.1611" fill="#010008"/>
<rect x="468.323" y="918.403" width="258.578" height="16.1611" fill="#6B6A70"/>
<rect x="452.161" y="902.241" width="16.1611" height="16.1611" fill="#6B6A70"/>
<rect x="726.901" y="902.242" width="16.1611" height="16.1611" fill="#6B6A70"/>
<path d="M526.958 855.563H549.833V861.578H555.847V870.008H545V863.994H531.79V891.649H545V885.635H555.847V894.065H549.833V900.08H526.958V894.065H520.943V861.578H526.958V855.563ZM560.835 855.563H595.74V863.994H583.711V900.08H572.864V863.994H560.835V855.563ZM600.727 855.563L629.617 855.563V861.578H635.632V876.023H629.617V879.62H635.632V900.08H624.784V882.037H611.575V900.08H600.727V855.563ZM610.34 863.403V874.197H625.966V863.403H610.34ZM640.62 855.563H651.467V891.649H675.524V900.08H640.62V855.563Z" fill="#E9E6ED"/>
<rect x="794.712" y="870.633" width="16.1611" height="96.9667" fill="#010008"/>
<rect width="16.1611" height="96.9667" transform="matrix(-1 0 0 1 907.839 870.633)" fill="#010008"/>
<rect x="810.873" y="886.793" width="80.8056" height="96.9667" fill="#010008"/>
<rect x="810.872" y="838.311" width="80.8056" height="80.8056" fill="#3C3B41"/>
<rect x="794.712" y="838.311" width="16.1611" height="80.8056" fill="#302E3B"/>
<rect x="778.549" y="854.472" width="16.1611" height="96.9667" fill="#010008"/>
<rect width="16.1611" height="96.9667" transform="matrix(-1 0 0 1 924 854.472)" fill="#010008"/>
<rect x="891.677" y="838.31" width="16.1611" height="80.8056" fill="#2C2932"/>
<rect x="810.872" y="822.149" width="80.8056" height="16.1611" fill="#010008"/>
<rect x="810.871" y="919.116" width="80.8056" height="16.1611" fill="#6B6A70"/>
<rect x="794.712" y="902.955" width="16.1611" height="16.1611" fill="#6B6A70"/>
<rect x="891.677" y="902.955" width="16.1611" height="16.1611" fill="#6B6A70"/>
<rect x="829.95" y="856.807" width="8.90999" height="8.90999" fill="#E9E6ED"/>
<rect x="865.59" y="856.807" width="8.90999" height="8.90999" fill="#E9E6ED"/>
<rect x="847.77" y="883.537" width="8.90999" height="8.90999" fill="#E9E6ED"/>
<rect x="829.95" y="883.537" width="8.90999" height="8.90999" fill="#E9E6ED"/>
<rect x="865.59" y="883.537" width="8.90999" height="8.90999" fill="#E9E6ED"/>
<rect x="829.95" y="865.717" width="17.82" height="8.90999" fill="#E9E6ED"/>
<rect x="821.04" y="892.447" width="26.73" height="8.90999" fill="#E9E6ED"/>
<rect x="856.68" y="892.447" width="26.73" height="8.90999" fill="#E9E6ED"/>
<rect x="829.95" y="874.627" width="44.5499" height="8.90999" fill="#E9E6ED"/>
<rect x="856.68" y="865.717" width="17.82" height="8.90999" fill="#E9E6ED"/>
<path d="M455.37 1238.03V1254.41H471.738V1238.03V1221.65H455.37V1238.03Z" fill="#0082E6"/>
<path d="M471.737 1188.89H455.368V1205.27H471.737V1188.89Z" fill="white"/>
<path d="M569.944 1139.72H553.575V1156.1H569.944V1139.72Z" fill="#E7E7E7"/>
<path d="M504.472 1139.72H488.104V1156.1H504.472V1139.72Z" fill="#E7E7E7"/>
<path d="M553.575 1123.34H537.207V1139.72H553.575V1123.34Z" fill="#E7E7E7"/>
<path d="M471.737 1123.34V1139.72H488.106V1123.34V1106.96H471.737V1123.34Z" fill="#E7E7E7"/>
<path d="M553.577 1106.96V1123.34H569.946V1106.96V1090.58H553.577V1106.96Z" fill="#E7E7E7"/>
<path d="M504.474 1090.58H488.105V1106.96H504.474V1090.58Z" fill="#E7E7E7"/>
<path d="M520.842 1074.2H504.474V1090.58H520.842V1074.2Z" fill="#E7E7E7"/>
<path d="M569.944 1057.82V1074.2V1090.58H586.313V1074.2V1057.82H569.944Z" fill="#E7E7E7"/>
<path d="M569.946 1041.44H553.577V1057.82H569.946V1041.44Z" fill="white"/>
<path d="M504.472 1057.82H488.104V1074.2H504.472V1057.82Z" fill="#E7E7E7"/>
<path d="M569.944 1221.65H553.575V1238.04H569.944V1221.65Z" fill="#E10500"/>
<path d="M569.944 1254.44H553.575V1270.82H569.944V1254.44Z" fill="#E10500"/>
<path d="M569.946 1319.96H553.577V1336.34H569.946V1319.96Z" fill="#005EA6"/>
<path d="M569.946 1188.89H553.577V1205.27H569.946V1188.89Z" fill="#005EA6"/>
<path d="M668.175 1205.25V1188.86H651.807V1172.48H569.965V1188.86H586.333V1205.25H569.965V1221.63H586.333V1238.01H569.965V1254.39H586.333V1270.77H569.965V1287.15H586.333V1303.53H569.965V1319.91H586.333V1336.29H569.965V1352.67H520.86V1369.05H471.755V1385.44H586.333V1369.05H602.702V1352.67H619.07V1303.53H651.807V1287.15H668.175V1270.77H684.544V1205.25H668.175ZM635.419 1270.79H619.05V1205.27H651.787V1270.79H635.419Z" fill="#005EA6"/>
<path d="M569.944 1287.2H553.575V1303.58H569.944V1287.2Z" fill="#E10500"/>
<path d="M553.579 1205.25V1188.86H569.947V1172.48H439V1352.67H455.368V1369.05H520.842V1352.67H569.947V1336.29H553.579V1319.91H569.947V1303.53H586.315V1287.15H569.947V1270.77H586.315V1254.39H569.947V1238.01H586.315V1221.63H569.947V1205.25H553.579ZM455.368 1188.86H471.737V1205.25H455.368V1188.86ZM455.368 1238.01V1221.63H471.737V1254.39H455.368V1238.01Z" fill="#0082E6"/>
<path d="M566.94 1268.82L549.777 1268.76L549.719 1285.93L566.882 1285.98L566.94 1268.82Z" fill="white"/>
<path d="M451.456 1268.43L468.619 1268.49L468.561 1285.65L451.398 1285.59L451.456 1268.43Z" fill="white"/>
<path d="M549.84 1251.6L532.677 1251.54L532.619 1268.71L549.782 1268.76L549.84 1251.6Z" fill="white"/>
<path d="M468.675 1251.33L485.838 1251.39L485.78 1268.55L468.617 1268.49L468.675 1251.33Z" fill="white"/>
<path d="M549.724 1285.92L532.561 1285.87L532.503 1303.03L549.666 1303.09L549.724 1285.92Z" fill="white"/>
<path d="M468.56 1285.65L485.723 1285.71L485.665 1302.88L468.502 1302.82L468.56 1285.65Z" fill="white"/>
<path d="M524.746 1244.42L507.838 1313.37L490.855 1313.31L507.763 1244.37L524.746 1244.42Z" fill="white"/>
<path d="M586.313 1319.96H569.944V1336.34H586.313V1319.96Z" fill="#0082E6"/>
<path d="M586.311 1188.89H569.942V1205.27H586.311V1188.89Z" fill="#0082E6"/>
<path d="M45.2094 1041.44H27.1035V1059.54H45.2094V1041.44Z" fill="#0082E6"/>
<path d="M63.3099 1041.44H45.2051V1059.54H63.3099V1041.44Z" fill="#0082E6"/>
<path d="M81.4164 1041.44H63.3105V1059.54H81.4164V1041.44Z" fill="#0082E6"/>
<path d="M99.5179 1041.44H81.4141V1059.54H99.5179V1041.44Z" fill="#0082E6"/>
<path d="M117.621 1041.44H99.5156V1059.54H117.621V1041.44Z" fill="#0082E6"/>
<path d="M135.726 1041.44H117.621V1059.54H135.726V1041.44Z" fill="#0082E6"/>
<path d="M153.83 1041.44H135.726V1059.54H153.83V1041.44Z" fill="#0082E6"/>
<path d="M171.935 1041.44H153.829V1059.54H171.935V1041.44Z" fill="#0082E6"/>
<path d="M190.036 1041.44H171.933V1059.54H190.036V1041.44Z" fill="#0082E6"/>
<path d="M208.14 1041.44H190.035V1059.54H208.14V1041.44Z" fill="#0082E6"/>
<path d="M226.245 1041.44H208.14V1059.54H226.245V1041.44Z" fill="#0082E6"/>
<path d="M244.349 1041.44H226.244V1059.54H244.349V1041.44Z" fill="#0082E6"/>
<path d="M262.452 1041.44H244.348V1059.54H262.452V1041.44Z" fill="#0082E6"/>
<path d="M280.556 1041.44H262.45V1059.54H280.556V1041.44Z" fill="#0082E6"/>
<path d="M298.659 1041.44H280.554V1059.54H298.659V1041.44Z" fill="#0082E6"/>
<path d="M316.764 1041.44H298.658V1059.54H316.764V1041.44Z" fill="#0082E6"/>
<path d="M334.868 1041.44H316.764V1059.54H334.868V1041.44Z" fill="#0082E6"/>
<path d="M27.1049 1059.54H9V1077.65H27.1049V1059.54Z" fill="#0082E6"/>
<path d="M45.2094 1059.54H27.1035V1077.65H45.2094V1059.54Z" fill="#0082E6"/>
<path d="M63.3099 1059.54H45.2051V1077.65H63.3099V1059.54Z" fill="#0082E6"/>
<path d="M81.4164 1059.54H63.3105V1077.65H81.4164V1059.54Z" fill="#0082E6"/>
<path d="M99.5179 1059.54H81.4141V1077.65H99.5179V1059.54Z" fill="#323796"/>
<path d="M117.621 1059.54H99.5156V1077.65H117.621V1059.54Z" fill="#323796"/>
<path d="M135.726 1059.54H117.621V1077.65H135.726V1059.54Z" fill="#323796"/>
<path d="M153.83 1059.54H135.726V1077.65H153.83V1059.54Z" fill="#323796"/>
<path d="M171.935 1059.54H153.829V1077.65H171.935V1059.54Z" fill="#323796"/>
<path d="M190.036 1059.54H171.933V1077.65H190.036V1059.54Z" fill="#323796"/>
<path d="M208.14 1059.54H190.035V1077.65H208.14V1059.54Z" fill="#323796"/>
<path d="M226.245 1059.54H208.14V1077.65H226.245V1059.54Z" fill="#323796"/>
<path d="M244.374 1059.54H226.269V1077.65H244.374V1059.54Z" fill="#323796"/>
<path d="M262.479 1059.54H244.373V1077.65H262.479V1059.54Z" fill="#323796"/>
<path d="M280.578 1059.54H262.478V1077.65H280.578V1059.54Z" fill="#323796"/>
<path d="M298.684 1059.54H280.577V1077.65H298.684V1059.54Z" fill="#0082E6"/>
<path d="M316.764 1059.54H298.658V1077.65H316.764V1059.54Z" fill="#0082E6"/>
<path d="M334.868 1059.54H316.764V1077.65H334.868V1059.54Z" fill="#0082E6"/>
<path d="M27.1049 1077.65H9V1095.75H27.1049V1077.65Z" fill="#0082E6"/>
<path d="M45.2094 1077.65H27.1035V1095.75H45.2094V1077.65Z" fill="#0082E6"/>
<path d="M63.3099 1077.65H45.2051V1095.75H63.3099V1077.65Z" fill="#0082E6"/>
<path d="M81.4164 1077.65H63.3105V1095.75H81.4164V1077.65Z" fill="#0082E6"/>
<path d="M99.5179 1077.65H81.4141V1095.75H99.5179V1077.65Z" fill="#323796"/>
<path d="M117.621 1077.65H99.5156V1095.75H117.621V1077.65Z" fill="#202020"/>
<path d="M135.726 1077.65H117.621V1095.75H135.726V1077.65Z" fill="#202020"/>
<path d="M153.83 1077.65H135.726V1095.75H153.83V1077.65Z" fill="#202020"/>
<path d="M171.935 1077.65H153.829V1095.75H171.935V1077.65Z" fill="#202020"/>
<path d="M190.036 1077.65H171.933V1095.75H190.036V1077.65Z" fill="#202020"/>
<path d="M208.14 1077.65H190.035V1095.75H208.14V1077.65Z" fill="#202020"/>
<path d="M226.245 1077.65H208.14V1095.75H226.245V1077.65Z" fill="#202020"/>
<path d="M244.349 1077.65H226.244V1095.75H244.349V1077.65Z" fill="#202020"/>
<path d="M262.452 1077.65H244.348V1095.75H262.452V1077.65Z" fill="#202020"/>
<path d="M280.556 1077.65H262.45V1095.75H280.556V1077.65Z" fill="#323796"/>
<path d="M298.659 1077.65H280.554V1095.75H298.659V1077.65Z" fill="#0082E6"/>
<path d="M316.764 1077.65H298.658V1095.75H316.764V1077.65Z" fill="#0082E6"/>
<path d="M334.868 1077.65H316.764V1095.75H334.868V1077.65Z" fill="#0082E6"/>
<path d="M27.1049 1095.75H9V1113.86H27.1049V1095.75Z" fill="#0082E6"/>
<path d="M45.2094 1095.75H27.1035V1113.86H45.2094V1095.75Z" fill="#0082E6"/>
<path d="M63.3099 1095.75H45.2051V1113.86H63.3099V1095.75Z" fill="#0082E6"/>
<path d="M81.4164 1095.75H63.3105V1113.86H81.4164V1095.75Z" fill="#0082E6"/>
<path d="M99.5179 1095.75H81.4141V1113.86H99.5179V1095.75Z" fill="#323796"/>
<path d="M117.621 1095.75H99.5156V1113.86H117.621V1095.75Z" fill="#202020"/>
<path d="M135.726 1095.75H117.621V1113.86H135.726V1095.75Z" fill="#202020"/>
<path d="M153.83 1095.75H135.726V1113.86H153.83V1095.75Z" fill="#202020"/>
<path d="M171.935 1095.75H153.829V1113.86H171.935V1095.75Z" fill="#202020"/>
<path d="M190.036 1095.75H171.933V1113.86H190.036V1095.75Z" fill="#202020"/>
<path d="M208.14 1095.75H190.035V1113.86H208.14V1095.75Z" fill="#202020"/>
<path d="M226.245 1095.75H208.14V1113.86H226.245V1095.75Z" fill="#202020"/>
<path d="M244.349 1095.75H226.244V1113.86H244.349V1095.75Z" fill="#202020"/>
<path d="M262.452 1095.75H244.348V1113.86H262.452V1095.75Z" fill="#202020"/>
<path d="M280.556 1095.75H262.45V1113.86H280.556V1095.75Z" fill="#323796"/>
<path d="M298.659 1095.75H280.554V1113.86H298.659V1095.75Z" fill="#0082E6"/>
<path d="M316.764 1095.75H298.658V1113.86H316.764V1095.75Z" fill="#0082E6"/>
<path d="M334.868 1095.75H316.764V1113.86H334.868V1095.75Z" fill="#0082E6"/>
<path d="M27.1049 1113.85H9V1131.96H27.1049V1113.85Z" fill="#0082E6"/>
<path d="M45.2094 1113.86H27.1035V1131.96H45.2094V1113.86Z" fill="#323796"/>
<path d="M63.3099 1113.86H45.2051V1131.96H63.3099V1113.86Z" fill="#323796"/>
<path d="M81.4164 1113.86H63.3105V1131.96H81.4164V1113.86Z" fill="#0082E6"/>
<path d="M99.5179 1113.86H81.4141V1131.96H99.5179V1113.86Z" fill="#323796"/>
<path d="M117.621 1113.86H99.5156V1131.96H117.621V1113.86Z" fill="#202020"/>
<path d="M135.726 1113.86H117.621V1131.96H135.726V1113.86Z" fill="#202020"/>
<path d="M153.83 1113.86H135.726V1131.96H153.83V1113.86Z" fill="#202020"/>
<path d="M171.935 1113.86H153.829V1131.96H171.935V1113.86Z" fill="#202020"/>
<path d="M190.036 1113.86H171.933V1131.96H190.036V1113.86Z" fill="#202020"/>
<path d="M208.14 1113.86H190.035V1131.96H208.14V1113.86Z" fill="#202020"/>
<path d="M226.245 1113.86H208.14V1131.96H226.245V1113.86Z" fill="#202020"/>
<path d="M244.349 1113.86H226.244V1131.96H244.349V1113.86Z" fill="#202020"/>
<path d="M262.452 1113.86H244.348V1131.96H262.452V1113.86Z" fill="#202020"/>
<path d="M280.556 1113.86H262.45V1131.96H280.556V1113.86Z" fill="#323796"/>
<path d="M298.659 1113.86H280.554V1131.96H298.659V1113.86Z" fill="#0082E6"/>
<path d="M316.764 1113.86H298.658V1131.96H316.764V1113.86Z" fill="#323796"/>
<path d="M334.868 1113.86H316.764V1131.96H334.868V1113.86Z" fill="#323796"/>
<path d="M27.1049 1131.96H9V1150.07H27.1049V1131.96Z" fill="#0082E6"/>
<path d="M45.2094 1131.96H27.1035V1150.07H45.2094V1131.96Z" fill="#0082E6"/>
<path d="M63.3099 1131.96H45.2051V1150.07H63.3099V1131.96Z" fill="#0082E6"/>
<path d="M81.4164 1131.96H63.3105V1150.07H81.4164V1131.96Z" fill="#0082E6"/>
<path d="M99.5179 1131.96H81.4141V1150.07H99.5179V1131.96Z" fill="#323796"/>
<path d="M117.621 1131.96H99.5156V1150.07H117.621V1131.96Z" fill="#202020"/>
<path d="M135.726 1131.96H117.621V1150.07H135.726V1131.96Z" fill="#202020"/>
<path d="M153.83 1131.96H135.726V1150.07H153.83V1131.96Z" fill="#202020"/>
<path d="M171.935 1131.96H153.829V1150.07H171.935V1131.96Z" fill="#202020"/>
<path d="M190.036 1131.96H171.933V1150.07H190.036V1131.96Z" fill="#202020"/>
<path d="M208.14 1131.96H190.035V1150.07H208.14V1131.96Z" fill="#202020"/>
<path d="M226.245 1131.96H208.14V1150.07H226.245V1131.96Z" fill="#202020"/>
<path d="M244.349 1131.96H226.244V1150.07H244.349V1131.96Z" fill="#202020"/>
<path d="M262.452 1131.96H244.348V1150.07H262.452V1131.96Z" fill="#202020"/>
<path d="M280.556 1131.96H262.45V1150.07H280.556V1131.96Z" fill="#323796"/>
<path d="M298.659 1131.96H280.554V1150.07H298.659V1131.96Z" fill="#0082E6"/>
<path d="M316.764 1131.96H298.658V1150.07H316.764V1131.96Z" fill="#0082E6"/>
<path d="M334.868 1131.96H316.764V1150.07H334.868V1131.96Z" fill="#0082E6"/>
<path d="M27.1049 1150.07H9V1168.17H27.1049V1150.07Z" fill="#0082E6"/>
<path d="M45.2094 1150.07H27.1035V1168.17H45.2094V1150.07Z" fill="#0082E6"/>
<path d="M63.3099 1150.07H45.2051V1168.17H63.3099V1150.07Z" fill="#0082E6"/>
<path d="M81.4164 1150.07H63.3105V1168.17H81.4164V1150.07Z" fill="#0082E6"/>
<path d="M99.5179 1150.07H81.4141V1168.17H99.5179V1150.07Z" fill="#323796"/>
<path d="M117.621 1150.07H99.5156V1168.17H117.621V1150.07Z" fill="#202020"/>
<path d="M135.726 1150.07H117.621V1168.17H135.726V1150.07Z" fill="#202020"/>
<path d="M153.83 1150.07H135.726V1168.17H153.83V1150.07Z" fill="#202020"/>
<path d="M171.935 1150.07H153.829V1168.17H171.935V1150.07Z" fill="#202020"/>
<path d="M190.036 1150.07H171.933V1168.17H190.036V1150.07Z" fill="#202020"/>
<path d="M208.14 1150.07H190.035V1168.17H208.14V1150.07Z" fill="#202020"/>
<path d="M226.245 1150.07H208.14V1168.17H226.245V1150.07Z" fill="#202020"/>
<path d="M244.349 1150.07H226.244V1168.17H244.349V1150.07Z" fill="#202020"/>
<path d="M262.452 1150.07H244.348V1168.17H262.452V1150.07Z" fill="#202020"/>
<path d="M280.556 1150.07H262.45V1168.17H280.556V1150.07Z" fill="#323796"/>
<path d="M298.659 1150.07H280.554V1168.17H298.659V1150.07Z" fill="#0082E6"/>
<path d="M316.764 1150.07H298.658V1168.17H316.764V1150.07Z" fill="#0082E6"/>
<path d="M334.868 1150.07H316.764V1168.17H334.868V1150.07Z" fill="#0082E6"/>
<path d="M27.1049 1168.17H9V1186.28H27.1049V1168.17Z" fill="#0082E6"/>
<path d="M45.2094 1168.17H27.1035V1186.28H45.2094V1168.17Z" fill="#0082E6"/>
<path d="M63.3099 1168.17H45.2051V1186.28H63.3099V1168.17Z" fill="#0082E6"/>
<path d="M81.4164 1168.17H63.3105V1186.28H81.4164V1168.17Z" fill="#0082E6"/>
<path d="M99.5179 1168.17H81.4141V1186.28H99.5179V1168.17Z" fill="#323796"/>
<path d="M117.621 1168.17H99.5156V1186.28H117.621V1168.17Z" fill="#323796"/>
<path d="M135.726 1168.17H117.621V1186.28H135.726V1168.17Z" fill="#323796"/>
<path d="M153.83 1168.17H135.726V1186.28H153.83V1168.17Z" fill="#323796"/>
<path d="M171.935 1168.17H153.829V1186.28H171.935V1168.17Z" fill="#323796"/>
<path d="M190.036 1168.17H171.933V1186.28H190.036V1168.17Z" fill="#323796"/>
<path d="M208.14 1168.17H190.035V1186.28H208.14V1168.17Z" fill="#323796"/>
<path d="M226.245 1168.17H208.14V1186.28H226.245V1168.17Z" fill="#323796"/>
<path d="M244.349 1168.17H226.244V1186.28H244.349V1168.17Z" fill="#323796"/>
<path d="M262.452 1168.17H244.348V1186.28H262.452V1168.17Z" fill="#323796"/>
<path d="M280.556 1168.17H262.45V1186.28H280.556V1168.17Z" fill="#323796"/>
<path d="M298.659 1168.17H280.554V1186.28H298.659V1168.17Z" fill="#0082E6"/>
<path d="M316.764 1168.17H298.658V1186.28H316.764V1168.17Z" fill="#0082E6"/>
<path d="M334.868 1168.17H316.764V1186.28H334.868V1168.17Z" fill="#0082E6"/>
<path d="M27.1049 1186.28H9V1204.38H27.1049V1186.28Z" fill="#0082E6"/>
<path d="M45.2094 1186.28H27.1035V1204.38H45.2094V1186.28Z" fill="#0082E6"/>
<path d="M63.3099 1186.28H45.2051V1204.38H63.3099V1186.28Z" fill="#0082E6"/>
<path d="M81.4164 1186.28H63.3105V1204.38H81.4164V1186.28Z" fill="#0082E6"/>
<path d="M99.5179 1186.28H81.4141V1204.38H99.5179V1186.28Z" fill="#0082E6"/>
<path d="M117.621 1186.28H99.5156V1204.38H117.621V1186.28Z" fill="#0082E6"/>
<path d="M135.726 1186.28H117.621V1204.38H135.726V1186.28Z" fill="#0082E6"/>
<path d="M153.83 1186.28H135.726V1204.38H153.83V1186.28Z" fill="#0082E6"/>
<path d="M171.935 1186.28H153.829V1204.38H171.935V1186.28Z" fill="#0082E6"/>
<path d="M190.036 1186.28H171.933V1204.38H190.036V1186.28Z" fill="#0082E6"/>
<path d="M208.14 1186.28H190.035V1204.38H208.14V1186.28Z" fill="#0082E6"/>
<path d="M226.245 1186.28H208.14V1204.38H226.245V1186.28Z" fill="#0082E6"/>
<path d="M244.349 1186.28H226.244V1204.38H244.349V1186.28Z" fill="#0082E6"/>
<path d="M262.452 1186.28H244.348V1204.38H262.452V1186.28Z" fill="#0082E6"/>
<path d="M280.556 1186.28H262.45V1204.38H280.556V1186.28Z" fill="#0082E6"/>
<path d="M298.659 1186.28H280.554V1204.38H298.659V1186.28Z" fill="#0082E6"/>
<path d="M316.764 1186.28H298.658V1204.38H316.764V1186.28Z" fill="#0082E6"/>
<path d="M334.868 1186.28H316.764V1204.38H334.868V1186.28Z" fill="#0082E6"/>
<path d="M45.2094 1204.38H27.1035V1222.49H45.2094V1204.38Z" fill="#00AAE6"/>
<path d="M63.3099 1204.38H45.2051V1222.49H63.3099V1204.38Z" fill="#00AAE6"/>
<path d="M81.4164 1204.38H63.3105V1222.49H81.4164V1204.38Z" fill="#00AAE6"/>
<path d="M99.5179 1204.38H81.4141V1222.49H99.5179V1204.38Z" fill="#00AAE6"/>
<path d="M117.621 1204.38H99.5156V1222.49H117.621V1204.38Z" fill="#00AAE6"/>
<path d="M135.726 1204.38H117.621V1222.49H135.726V1204.38Z" fill="#00AAE6"/>
<path d="M153.83 1204.38H135.726V1222.49H153.83V1204.38Z" fill="#00AAE6"/>
<path d="M171.935 1204.38H153.829V1222.49H171.935V1204.38Z" fill="#00AAE6"/>
<path d="M190.036 1204.38H171.933V1222.49H190.036V1204.38Z" fill="#00AAE6"/>
<path d="M208.14 1204.38H190.035V1222.49H208.14V1204.38Z" fill="#00AAE6"/>
<path d="M226.245 1204.38H208.14V1222.49H226.245V1204.38Z" fill="#00AAE6"/>
<path d="M244.349 1204.38H226.244V1222.49H244.349V1204.38Z" fill="#00AAE6"/>
<path d="M262.452 1204.38H244.348V1222.49H262.452V1204.38Z" fill="#00AAE6"/>
<path d="M280.556 1204.38H262.45V1222.49H280.556V1204.38Z" fill="#00AAE6"/>
<path d="M298.659 1204.38H280.554V1222.49H298.659V1204.38Z" fill="#00AAE6"/>
<path d="M316.764 1204.38H298.658V1222.49H316.764V1204.38Z" fill="#00AAE6"/>
<path d="M334.868 1204.38H316.764V1222.49H334.868V1204.38Z" fill="#00AAE6"/>
<path d="M27.1049 1222.49H9V1240.59H27.1049V1222.49Z" fill="#0082E6"/>
<path d="M45.2094 1222.49H27.1035V1240.59H45.2094V1222.49Z" fill="#0082E6"/>
<path d="M63.3099 1222.49H45.2051V1240.59H63.3099V1222.49Z" fill="#0082E6"/>
<path d="M81.4164 1222.49H63.3105V1240.59H81.4164V1222.49Z" fill="#0082E6"/>
<path d="M99.5179 1222.49H81.4141V1240.59H99.5179V1222.49Z" fill="#0082E6"/>
<path d="M117.621 1222.49H99.5156V1240.59H117.621V1222.49Z" fill="#0082E6"/>
<path d="M135.726 1222.49H117.621V1240.59H135.726V1222.49Z" fill="#0082E6"/>
<path d="M153.83 1222.49H135.726V1240.59H153.83V1222.49Z" fill="#0082E6"/>
<path d="M171.935 1222.49H153.829V1240.59H171.935V1222.49Z" fill="#0082E6"/>
<path d="M190.036 1222.49H171.933V1240.59H190.036V1222.49Z" fill="#0082E6"/>
<path d="M208.14 1222.49H190.035V1240.59H208.14V1222.49Z" fill="#0082E6"/>
<path d="M226.245 1222.49H208.14V1240.59H226.245V1222.49Z" fill="#0082E6"/>
<path d="M244.349 1222.49H226.244V1240.59H244.349V1222.49Z" fill="#0082E6"/>
<path d="M262.452 1222.49H244.348V1240.59H262.452V1222.49Z" fill="#0082E6"/>
<path d="M280.556 1222.49H262.45V1240.59H280.556V1222.49Z" fill="#0082E6"/>
<path d="M298.659 1222.49H280.554V1240.59H298.659V1222.49Z" fill="#0082E6"/>
<path d="M316.764 1222.49H298.658V1240.59H316.764V1222.49Z" fill="#0082E6"/>
<path d="M334.868 1222.49H316.764V1240.59H334.868V1222.49Z" fill="#0082E6"/>
<path d="M27.1049 1240.59H9V1258.7H27.1049V1240.59Z" fill="#0082E6"/>
<path d="M45.2094 1240.59H27.1035V1258.7H45.2094V1240.59Z" fill="#0082E6"/>
<path d="M63.3099 1240.59H45.2051V1258.7H63.3099V1240.59Z" fill="#0082E6"/>
<path d="M81.4164 1240.59H63.3105V1258.7H81.4164V1240.59Z" fill="#0082E6"/>
<path d="M99.5179 1240.59H81.4141V1258.7H99.5179V1240.59Z" fill="#0082E6"/>
<path d="M117.621 1240.59H99.5156V1258.7H117.621V1240.59Z" fill="#4FEAF3"/>
<path d="M135.726 1240.59H117.621V1258.7H135.726V1240.59Z" fill="#4FEAF3"/>
<path d="M153.83 1240.59H135.726V1258.7H153.83V1240.59Z" fill="#4FEAF3"/>
<path d="M171.935 1240.59H153.829V1258.7H171.935V1240.59Z" fill="#4FEAF3"/>
<path d="M190.036 1240.59H171.933V1258.7H190.036V1240.59Z" fill="#4FEAF3"/>
<path d="M208.14 1240.59H190.035V1258.7H208.14V1240.59Z" fill="#4FEAF3"/>
<path d="M226.245 1240.59H208.14V1258.7H226.245V1240.59Z" fill="#4FEAF3"/>
<path d="M244.349 1240.59H226.244V1258.7H244.349V1240.59Z" fill="#4FEAF3"/>
<path d="M262.452 1240.59H244.348V1258.7H262.452V1240.59Z" fill="#4FEAF3"/>
<path d="M280.556 1240.59H262.45V1258.7H280.556V1240.59Z" fill="#0082E6"/>
<path d="M298.659 1240.59H280.554V1258.7H298.659V1240.59Z" fill="#0082E6"/>
<path d="M316.764 1240.59H298.658V1258.7H316.764V1240.59Z" fill="#0082E6"/>
<path d="M334.868 1240.59H316.764V1258.7H334.868V1240.59Z" fill="#0082E6"/>
<path d="M27.1049 1258.7H9V1276.81H27.1049V1258.7Z" fill="#0082E6"/>
<path d="M45.2094 1258.7H27.1035V1276.81H45.2094V1258.7Z" fill="#0082E6"/>
<path d="M63.3099 1258.7H45.2051V1276.81H63.3099V1258.7Z" fill="#323796"/>
<path d="M81.4164 1258.7H63.3105V1276.81H81.4164V1258.7Z" fill="#0082E6"/>
<path d="M99.5179 1258.7H81.4141V1276.81H99.5179V1258.7Z" fill="#0082E6"/>
<path d="M117.621 1258.7H99.5156V1276.81H117.621V1258.7Z" fill="#00AAE6"/>
<path d="M135.726 1258.7H117.621V1276.81H135.726V1258.7Z" fill="#00AAE6"/>
<path d="M153.83 1258.7H135.726V1276.81H153.83V1258.7Z" fill="#00AAE6"/>
<path d="M171.935 1258.7H153.829V1276.81H171.935V1258.7Z" fill="#00AAE6"/>
<path d="M190.036 1258.7H171.933V1276.81H190.036V1258.7Z" fill="#00AAE6"/>
<path d="M208.14 1258.7H190.035V1276.81H208.14V1258.7Z" fill="#00AAE6"/>
<path d="M226.245 1258.7H208.14V1276.81H226.245V1258.7Z" fill="#00AAE6"/>
<path d="M244.349 1258.7H226.244V1276.81H244.349V1258.7Z" fill="#00AAE6"/>
<path d="M262.452 1258.7H244.348V1276.81H262.452V1258.7Z" fill="#00AAE6"/>
<path d="M280.556 1258.7H262.45V1276.81H280.556V1258.7Z" fill="#0082E6"/>
<path d="M298.659 1258.7H280.554V1276.81H298.659V1258.7Z" fill="#0082E6"/>
<path d="M316.764 1258.7H298.658V1276.81H316.764V1258.7Z" fill="#323796"/>
<path d="M334.868 1258.7H316.764V1276.81H334.868V1258.7Z" fill="#0082E6"/>
<path d="M27.1049 1276.81H9V1294.91H27.1049V1276.81Z" fill="#0082E6"/>
<path d="M45.2094 1276.81H27.1035V1294.91H45.2094V1276.81Z" fill="#323796"/>
<path d="M63.3099 1276.81H45.2051V1294.91H63.3099V1276.81Z" fill="#323796"/>
<path d="M81.4164 1276.81H63.3105V1294.91H81.4164V1276.81Z" fill="#323796"/>
<path d="M99.5179 1276.81H81.4141V1294.91H99.5179V1276.81Z" fill="#0082E6"/>
<path d="M117.621 1276.81H99.5156V1294.91H117.621V1276.81Z" fill="#00AAE6"/>
<path d="M135.726 1276.81H117.621V1294.91H135.726V1276.81Z" fill="#00AAE6"/>
<path d="M153.83 1276.81H135.726V1294.91H153.83V1276.81Z" fill="#00AAE6"/>
<path d="M171.935 1276.81H153.829V1294.91H171.935V1276.81Z" fill="#00AAE6"/>
<path d="M190.036 1276.81H171.933V1294.91H190.036V1276.81Z" fill="#00AAE6"/>
<path d="M208.14 1276.81H190.035V1294.91H208.14V1276.81Z" fill="#00AAE6"/>
<path d="M226.245 1276.81H208.14V1294.91H226.245V1276.81Z" fill="#00AAE6"/>
<path d="M244.349 1276.81H226.244V1294.91H244.349V1276.81Z" fill="#00AAE6"/>
<path d="M262.452 1276.81H244.348V1294.91H262.452V1276.81Z" fill="#00AAE6"/>
<path d="M280.556 1276.81H262.45V1294.91H280.556V1276.81Z" fill="#0082E6"/>
<path d="M298.659 1276.81H280.554V1294.91H298.659V1276.81Z" fill="#323796"/>
<path d="M316.764 1276.81H298.658V1294.91H316.764V1276.81Z" fill="#0082E6"/>
<path d="M334.868 1276.81H316.764V1294.91H334.868V1276.81Z" fill="#323796"/>
<path d="M27.1049 1294.91H9V1313.02H27.1049V1294.91Z" fill="#0082E6"/>
<path d="M45.2094 1294.91H27.1035V1313.02H45.2094V1294.91Z" fill="#0082E6"/>
<path d="M63.3099 1294.91H45.2051V1313.02H63.3099V1294.91Z" fill="#323796"/>
<path d="M81.4164 1294.91H63.3105V1313.02H81.4164V1294.91Z" fill="#0082E6"/>
<path d="M99.5179 1294.91H81.4141V1313.02H99.5179V1294.91Z" fill="#0082E6"/>
<path d="M117.621 1294.91H99.5156V1313.02H117.621V1294.91Z" fill="#00AAE6"/>
<path d="M135.726 1294.91H117.621V1313.02H135.726V1294.91Z" fill="#00AAE6"/>
<path d="M153.83 1294.91H135.726V1313.02H153.83V1294.91Z" fill="#00AAE6"/>
<path d="M171.961 1294.91H153.857V1313.02H171.961V1294.91Z" fill="#00AAE6"/>
<path d="M190.036 1294.91H171.933V1313.02H190.036V1294.91Z" fill="#00AAE6"/>
<path d="M208.14 1294.91H190.035V1313.02H208.14V1294.91Z" fill="#00AAE6"/>
<path d="M226.273 1294.91H208.167V1313.02H226.273V1294.91Z" fill="#00AAE6"/>
<path d="M244.378 1294.91H226.273V1313.02H244.378V1294.91Z" fill="#00AAE6"/>
<path d="M262.48 1294.91H244.374V1313.02H262.48V1294.91Z" fill="#00AAE6"/>
<path d="M280.583 1294.91H262.479V1313.02H280.583V1294.91Z" fill="#0082E6"/>
<path d="M298.688 1294.91H280.582V1313.02H298.688V1294.91Z" fill="#0082E6"/>
<path d="M316.793 1294.91H298.688V1313.02H316.793V1294.91Z" fill="#323796"/>
<path d="M334.868 1294.91H316.764V1313.02H334.868V1294.91Z" fill="#0082E6"/>
<path d="M27.1049 1313.02H9V1331.12H27.1049V1313.02Z" fill="#0082E6"/>
<path d="M45.2094 1313.02H27.1035V1331.12H45.2094V1313.02Z" fill="#0082E6"/>
<path d="M63.3099 1313.02H45.2051V1331.12H63.3099V1313.02Z" fill="#0082E6"/>
<path d="M81.4164 1313.02H63.3105V1331.12H81.4164V1313.02Z" fill="#0082E6"/>
<path d="M99.5179 1313.02H81.4141V1331.12H99.5179V1313.02Z" fill="#0082E6"/>
<path d="M117.621 1313.02H99.5156V1331.12H117.621V1313.02Z" fill="#00AAE6"/>
<path d="M135.726 1313.02H117.621V1331.12H135.726V1313.02Z" fill="#00AAE6"/>
<path d="M153.83 1313.02H135.726V1331.12H153.83V1313.02Z" fill="#00AAE6"/>
<path d="M171.961 1313.02H153.857V1331.12H171.961V1313.02Z" fill="#00AAE6"/>
<path d="M190.066 1313.02H171.96V1331.12H190.066V1313.02Z" fill="#00AAE6"/>
<path d="M208.168 1313.02H190.064V1331.12H208.168V1313.02Z" fill="#00AAE6"/>
<path d="M226.244 1313.02H208.167V1331.12H226.244V1313.02Z" fill="#00AAE6"/>
<path d="M244.378 1313.02H226.273V1331.12H244.378V1313.02Z" fill="#00AAE6"/>
<path d="M262.48 1313.02H244.374V1331.12H262.48V1313.02Z" fill="#00AAE6"/>
<path d="M280.583 1313.02H262.479V1331.12H280.583V1313.02Z" fill="#0082E6"/>
<path d="M298.688 1313.02H280.582V1331.12H298.688V1313.02Z" fill="#0082E6"/>
<path d="M316.793 1313.02H298.688V1331.12H316.793V1313.02Z" fill="#0082E6"/>
<path d="M334.917 1313.02H316.812V1331.12H334.917V1313.02Z" fill="#0082E6"/>
<path d="M27.1049 1331.12H9V1349.23H27.1049V1331.12Z" fill="#0082E6"/>
<path d="M45.2094 1331.12H27.1035V1349.23H45.2094V1331.12Z" fill="#0082E6"/>
<path d="M63.3099 1331.12H45.2051V1349.23H63.3099V1331.12Z" fill="#0082E6"/>
<path d="M81.4164 1331.12H63.3105V1349.23H81.4164V1331.12Z" fill="#0082E6"/>
<path d="M99.5179 1331.12H81.4141V1349.23H99.5179V1331.12Z" fill="#0082E6"/>
<path d="M117.621 1331.12H99.5156V1349.23H117.621V1331.12Z" fill="#00AAE6"/>
<path d="M135.726 1331.12H117.621V1349.23H135.726V1331.12Z" fill="#00AAE6"/>
<path d="M153.83 1331.12H135.726V1349.23H153.83V1331.12Z" fill="#00AAE6"/>
<path d="M171.935 1331.12H153.829V1349.23H171.935V1331.12Z" fill="#00AAE6"/>
<path d="M190.036 1331.12H171.933V1349.23H190.036V1331.12Z" fill="#00AAE6"/>
<path d="M208.14 1331.12H190.035V1349.23H208.14V1331.12Z" fill="#00AAE6"/>
<path d="M226.245 1331.12H208.14V1349.23H226.245V1331.12Z" fill="#00AAE6"/>
<path d="M244.349 1331.12H226.244V1349.23H244.349V1331.12Z" fill="#00AAE6"/>
<path d="M262.452 1331.12H244.348V1349.23H262.452V1331.12Z" fill="#00AAE6"/>
<path d="M280.556 1331.12H262.45V1349.23H280.556V1331.12Z" fill="#0082E6"/>
<path d="M298.659 1331.12H280.554V1349.23H298.659V1331.12Z" fill="#0082E6"/>
<path d="M316.812 1331.12H298.706V1349.23H316.812V1331.12Z" fill="#0082E6"/>
<path d="M334.868 1331.12H316.764V1349.23H334.868V1331.12Z" fill="#0082E6"/>
<path d="M27.1049 1349.23H9V1367.33H27.1049V1349.23Z" fill="#00AAE6"/>
<path d="M45.2094 1349.23H27.1035V1367.33H45.2094V1349.23Z" fill="#0082E6"/>
<path d="M63.3099 1349.23H45.2051V1367.33H63.3099V1349.23Z" fill="#0082E6"/>
<path d="M81.4164 1349.23H63.3105V1367.33H81.4164V1349.23Z" fill="#0082E6"/>
<path d="M99.5179 1349.23H81.4141V1367.33H99.5179V1349.23Z" fill="#0082E6"/>
<path d="M117.621 1349.23H99.5156V1367.33H117.621V1349.23Z" fill="#0082E6"/>
<path d="M135.726 1349.23H117.621V1367.33H135.726V1349.23Z" fill="#0082E6"/>
<path d="M153.852 1349.23H135.746V1367.33H153.852V1349.23Z" fill="#0082E6"/>
<path d="M171.955 1349.23H153.851V1367.33H171.955V1349.23Z" fill="#0082E6"/>
<path d="M190.057 1349.23H171.951V1367.33H190.057V1349.23Z" fill="#0082E6"/>
<path d="M208.14 1349.23H190.035V1367.33H208.14V1349.23Z" fill="#0082E6"/>
<path d="M226.263 1349.23H208.158V1367.33H226.263V1349.23Z" fill="#0082E6"/>
<path d="M244.37 1349.23H226.264V1367.33H244.37V1349.23Z" fill="#0082E6"/>
<path d="M262.499 1349.23H244.395V1367.33H262.499V1349.23Z" fill="#0082E6"/>
<path d="M280.602 1349.23H262.496V1367.33H280.602V1349.23Z" fill="#0082E6"/>
<path d="M298.706 1349.23H280.602V1367.33H298.706V1349.23Z" fill="#0082E6"/>
<path d="M316.764 1349.23H298.658V1367.33H316.764V1349.23Z" fill="#0082E6"/>
<path d="M63.3099 1367.33H45.2051V1385.44H63.3099V1367.33Z" fill="#00AAE6"/>
<path d="M45.222 1367.33H27.1172V1385.44H45.222V1367.33Z" fill="#00AAE6"/>
<path d="M81.4164 1367.33H63.3105V1385.44H81.4164V1367.33Z" fill="#00AAE6"/>
<path d="M99.5179 1367.33H81.4141V1385.44H99.5179V1367.33Z" fill="#00AAE6"/>
<path d="M117.621 1367.33H99.5156V1385.44H117.621V1367.33Z" fill="#00AAE6"/>
<path d="M135.726 1367.33H117.621V1385.44H135.726V1367.33Z" fill="#00AAE6"/>
<path d="M153.852 1367.33H135.746V1385.44H153.852V1367.33Z" fill="#00AAE6"/>
<path d="M171.955 1367.33H153.851V1385.44H171.955V1367.33Z" fill="#00AAE6"/>
<path d="M190.057 1367.33H171.951V1385.44H190.057V1367.33Z" fill="#00AAE6"/>
<path d="M208.14 1367.33H190.035V1385.44H208.14V1367.33Z" fill="#00AAE6"/>
<path d="M226.263 1367.33H208.158V1385.44H226.263V1367.33Z" fill="#00AAE6"/>
<path d="M244.37 1367.33H226.264V1385.44H244.37V1367.33Z" fill="#00AAE6"/>
<path d="M262.499 1367.33H244.395V1385.44H262.499V1367.33Z" fill="#00AAE6"/>
<path d="M280.602 1367.33H262.496V1385.44H280.602V1367.33Z" fill="#00AAE6"/>
<path d="M298.706 1367.33H280.602V1385.44H298.706V1367.33Z" fill="#00AAE6"/>
<path d="M316.764 1367.33H298.658V1385.44H316.764V1367.33Z" fill="#00AAE6"/>
<path d="M334.897 1367.33H316.792V1385.44H334.897V1367.33Z" fill="#00AAE6"/>
<path d="M334.868 1349.23H316.764V1367.33H334.868V1349.23Z" fill="#0082E6"/>
<path d="M352.953 1059.54H334.849V1077.65H352.953V1059.54Z" fill="#0082E6"/>
<path d="M352.953 1077.65H334.849V1095.75H352.953V1077.65Z" fill="#0082E6"/>
<path d="M352.953 1095.75H334.849V1113.86H352.953V1095.75Z" fill="#0082E6"/>
<path d="M352.953 1113.86H334.849V1131.96H352.953V1113.86Z" fill="#0082E6"/>
<path d="M352.953 1131.96H334.849V1150.07H352.953V1131.96Z" fill="#0082E6"/>
<path d="M352.953 1150.07H334.849V1168.17H352.953V1150.07Z" fill="#0082E6"/>
<path d="M352.953 1168.17H334.849V1186.28H352.953V1168.17Z" fill="#0082E6"/>
<path d="M352.953 1186.28H334.849V1204.38H352.953V1186.28Z" fill="#0082E6"/>
<path d="M352.953 1222.49H334.849V1240.59H352.953V1222.49Z" fill="#0082E6"/>
<path d="M352.953 1240.59H334.849V1258.7H352.953V1240.59Z" fill="#0082E6"/>
<path d="M352.953 1258.7H334.849V1276.81H352.953V1258.7Z" fill="#0082E6"/>
<path d="M352.953 1276.81H334.849V1294.91H352.953V1276.81Z" fill="#0082E6"/>
<path d="M352.953 1294.91H334.849V1313.02H352.953V1294.91Z" fill="#0082E6"/>
<path d="M353 1313.02H334.896V1331.12H353V1313.02Z" fill="#0082E6"/>
<path d="M352.953 1331.12H334.849V1349.23H352.953V1331.12Z" fill="#0082E6"/>
<path d="M352.953 1349.23H334.849V1367.33H352.953V1349.23Z" fill="#00AAE6"/>
<path d="M161.049 1089.93H148.116V1101.57H161.049V1089.93Z" fill="#FFD700"/>
<path d="M212.778 1089.93H199.846V1101.57H212.778V1089.93Z" fill="#FFD700"/>
<path d="M186.914 1128.73H173.981V1140.37H186.914V1128.73Z" fill="#FA500F"/>
<path d="M161.049 1128.73H148.116V1140.37H161.049V1128.73Z" fill="#FA500F"/>
<path d="M212.778 1128.73H199.846V1140.37H212.778V1128.73Z" fill="#FA500F"/>
<path d="M173.981 1102.87H148.116V1114.5H173.981V1102.87Z" fill="#FFAF00"/>
<path d="M173.982 1141.66H135.185V1153.3H173.982V1141.66Z" fill="#E92700"/>
<path d="M225.712 1141.66H186.914V1153.3H225.712V1141.66Z" fill="#E92700"/>
<path d="M212.779 1115.8H148.116V1127.44H212.779V1115.8Z" fill="#FF8205"/>
<path d="M212.779 1102.87H186.914V1114.5H212.779V1102.87Z" fill="#FFAF00"/>
</svg>
